  0
SECTION
  2
HEADER
  9
$ACADVER
  1
AC1027
  9
$ACADMAINTVER
 70
   125
  9
$DWGCODEPAGE
  3
ANSI_1252
  9
$LASTSAVEDBY
  1
zz000
  9
$REQUIREDVERSIONS
160
                 0
  9
$INSBASE
 10
0.0
 20
0.0
 30
0.0
  9
$EXTMIN
 10
-727.1722393771272
 20
122.631059246586
 30
-0.000000473272514
  9
$EXTMAX
 10
-431.3185693824012
 20
228.131062333132
 30
0.0000000008535206
  9
$LIMMIN
 10
0.0
 20
0.0
  9
$LIMMAX
 10
12.0
 20
9.0
  9
$ORTHOMODE
 70
     0
  9
$REGENMODE
 70
     1
  9
$FILLMODE
 70
     1
  9
$QTEXTMODE
 70
     0
  9
$MIRRTEXT
 70
     0
  9
$LTSCALE
 40
1.0
  9
$ATTMODE
 70
     1
  9
$TEXTSIZE
 40
0.2
  9
$TRACEWID
 40
0.05
  9
$TEXTSTYLE
  7
STANDARD
  9
$CLAYER
  8
0
  9
$CELTYPE
  6
Continuous
  9
$CECOLOR
 62
   256
  9
$CELTSCALE
 40
1.0
  9
$DISPSILH
 70
     0
  9
$DIMSCALE
 40
1.0
  9
$DIMASZ
 40
0.18
  9
$DIMEXO
 40
0.0625
  9
$DIMDLI
 40
0.38
  9
$DIMRND
 40
0.0
  9
$DIMDLE
 40
0.0
  9
$DIMEXE
 40
0.18
  9
$DIMTP
 40
0.0
  9
$DIMTM
 40
0.0
  9
$DIMTXT
 40
0.18
  9
$DIMCEN
 40
0.09
  9
$DIMTSZ
 40
0.0
  9
$DIMTOL
 70
     0
  9
$DIMLIM
 70
     0
  9
$DIMTIH
 70
     1
  9
$DIMTOH
 70
     1
  9
$DIMSE1
 70
     0
  9
$DIMSE2
 70
     0
  9
$DIMTAD
 70
     0
  9
$DIMZIN
 70
     0
  9
$DIMBLK
  1

  9
$DIMASO
 70
     1
  9
$DIMSHO
 70
     1
  9
$DIMPOST
  1

  9
$DIMAPOST
  1

  9
$DIMALT
 70
     0
  9
$DIMALTD
 70
     2
  9
$DIMALTF
 40
25.4
  9
$DIMLFAC
 40
1.0
  9
$DIMTOFL
 70
     0
  9
$DIMTVP
 40
0.0
  9
$DIMTIX
 70
     0
  9
$DIMSOXD
 70
     0
  9
$DIMSAH
 70
     0
  9
$DIMBLK1
  1

  9
$DIMBLK2
  1

  9
$DIMSTYLE
  2
Standard
  9
$DIMCLRD
 70
     0
  9
$DIMCLRE
 70
     0
  9
$DIMCLRT
 70
     0
  9
$DIMTFAC
 40
1.0
  9
$DIMGAP
 40
0.09
  9
$DIMJUST
 70
     0
  9
$DIMSD1
 70
     0
  9
$DIMSD2
 70
     0
  9
$DIMTOLJ
 70
     1
  9
$DIMTZIN
 70
     0
  9
$DIMALTZ
 70
     0
  9
$DIMALTTZ
 70
     0
  9
$DIMUPT
 70
     0
  9
$DIMDEC
 70
     4
  9
$DIMTDEC
 70
     4
  9
$DIMALTU
 70
     2
  9
$DIMALTTD
 70
     2
  9
$DIMTXSTY
  7
STANDARD
  9
$DIMAUNIT
 70
     0
  9
$DIMADEC
 70
     0
  9
$DIMALTRND
 40
0.0
  9
$DIMAZIN
 70
     0
  9
$DIMDSEP
 70
    46
  9
$DIMATFIT
 70
     3
  9
$DIMFRAC
 70
     0
  9
$DIMLDRBLK
  1

  9
$DIMLUNIT
 70
     2
  9
$DIMLWD
 70
    -2
  9
$DIMLWE
 70
    -2
  9
$DIMTMOVE
 70
     0
  9
$DIMFXL
 40
1.0
  9
$DIMFXLON
 70
     0
  9
$DIMJOGANG
 40
0.7853981633974483
  9
$DIMTFILL
 70
     0
  9
$DIMTFILLCLR
 70
     0
  9
$DIMARCSYM
 70
     0
  9
$DIMLTYPE
  6

  9
$DIMLTEX1
  6

  9
$DIMLTEX2
  6

  9
$DIMTXTDIRECTION
 70
     0
  9
$LUNITS
 70
     2
  9
$LUPREC
 70
     4
  9
$SKETCHINC
 40
0.1
  9
$FILLETRAD
 40
0.0
  9
$AUNITS
 70
     0
  9
$AUPREC
 70
     0
  9
$MENU
  1
.
  9
$ELEVATION
 40
0.0
  9
$PELEVATION
 40
0.0
  9
$THICKNESS
 40
0.0
  9
$LIMCHECK
 70
     0
  9
$CHAMFERA
 40
0.0
  9
$CHAMFERB
 40
0.0
  9
$CHAMFERC
 40
0.0
  9
$CHAMFERD
 40
0.0
  9
$SKPOLY
 70
     0
  9
$TDCREATE
 40
2459828.775393519
  9
$TDUCREATE
 40
2459829.067060185
  9
$TDUPDATE
 40
2459828.777210648
  9
$TDUUPDATE
 40
2459829.068877315
  9
$TDINDWG
 40
0.0018171296
  9
$TDUSRTIMER
 40
0.0018171296
  9
$USRTIMER
 70
     1
  9
$ANGBASE
 50
0.0
  9
$ANGDIR
 70
     0
  9
$PDMODE
 70
     0
  9
$PDSIZE
 40
0.0
  9
$PLINEWID
 40
0.0
  9
$SPLFRAME
 70
     0
  9
$SPLINETYPE
 70
     6
  9
$SPLINESEGS
 70
     8
  9
$HANDSEED
  5
10079
  9
$SURFTAB1
 70
     6
  9
$SURFTAB2
 70
     6
  9
$SURFTYPE
 70
     6
  9
$SURFU
 70
     6
  9
$SURFV
 70
     6
  9
$UCSBASE
  2

  9
$UCSNAME
  2

  9
$UCSORG
 10
0.0
 20
0.0
 30
0.0
  9
$UCSXDIR
 10
1.0
 20
0.0
 30
0.0
  9
$UCSYDIR
 10
0.0
 20
1.0
 30
0.0
  9
$UCSORTHOREF
  2

  9
$UCSORTHOVIEW
 70
     0
  9
$UCSORGTOP
 10
0.0
 20
0.0
 30
0.0
  9
$UCSORGBOTTOM
 10
0.0
 20
0.0
 30
0.0
  9
$UCSORGLEFT
 10
0.0
 20
0.0
 30
0.0
  9
$UCSORGRIGHT
 10
0.0
 20
0.0
 30
0.0
  9
$UCSORGFRONT
 10
0.0
 20
0.0
 30
0.0
  9
$UCSORGBACK
 10
0.0
 20
0.0
 30
0.0
  9
$PUCSBASE
  2

  9
$PUCSNAME
  2

  9
$PUCSORG
 10
0.0
 20
0.0
 30
0.0
  9
$PUCSXDIR
 10
1.0
 20
0.0
 30
0.0
  9
$PUCSYDIR
 10
0.0
 20
1.0
 30
0.0
  9
$PUCSORTHOREF
  2

  9
$PUCSORTHOVIEW
 70
     0
  9
$PUCSORGTOP
 10
0.0
 20
0.0
 30
0.0
  9
$PUCSORGBOTTOM
 10
0.0
 20
0.0
 30
0.0
  9
$PUCSORGLEFT
 10
0.0
 20
0.0
 30
0.0
  9
$PUCSORGRIGHT
 10
0.0
 20
0.0
 30
0.0
  9
$PUCSORGFRONT
 10
0.0
 20
0.0
 30
0.0
  9
$PUCSORGBACK
 10
0.0
 20
0.0
 30
0.0
  9
$USERI1
 70
     0
  9
$USERI2
 70
     0
  9
$USERI3
 70
     0
  9
$USERI4
 70
     0
  9
$USERI5
 70
     0
  9
$USERR1
 40
0.0
  9
$USERR2
 40
0.0
  9
$USERR3
 40
0.0
  9
$USERR4
 40
0.0
  9
$USERR5
 40
0.0
  9
$WORLDVIEW
 70
     1
  9
$SHADEDGE
 70
     3
  9
$SHADEDIF
 70
    70
  9
$TILEMODE
 70
     1
  9
$MAXACTVP
 70
    64
  9
$PINSBASE
 10
0.0
 20
0.0
 30
0.0
  9
$PLIMCHECK
 70
     0
  9
$PEXTMIN
 10
1.000000000000000E+20
 20
1.000000000000000E+20
 30
1.000000000000000E+20
  9
$PEXTMAX
 10
-1.000000000000000E+20
 20
-1.000000000000000E+20
 30
-1.000000000000000E+20
  9
$PLIMMIN
 10
0.0
 20
0.0
  9
$PLIMMAX
 10
12.0
 20
9.0
  9
$UNITMODE
 70
     0
  9
$VISRETAIN
 70
     1
  9
$PLINEGEN
 70
     0
  9
$PSLTSCALE
 70
     1
  9
$TREEDEPTH
 70
  3020
  9
$CMLSTYLE
  2
Standard
  9
$CMLJUST
 70
     0
  9
$CMLSCALE
 40
1.0
  9
$PROXYGRAPHICS
 70
     1
  9
$MEASUREMENT
 70
     0
  9
$CELWEIGHT
370
    -1
  9
$ENDCAPS
280
     0
  9
$JOINSTYLE
280
     0
  9
$LWDISPLAY
290
     0
  9
$INSUNITS
 70
     4
  9
$HYPERLINKBASE
  1

  9
$STYLESHEET
  1

  9
$XEDIT
290
     1
  9
$CEPSNTYPE
380
     0
  9
$PSTYLEMODE
290
     1
  9
$FINGERPRINTGUID
  2
{A41D94B2-133B-5348-AF80-5BA24FCFA47B}
  9
$VERSIONGUID
  2
{7FFC6191-E08A-D04A-94A7-513C56783085}
  9
$EXTNAMES
290
     1
  9
$PSVPSCALE
 40
0.0
  9
$OLESTARTUP
290
     0
  9
$SORTENTS
280
   127
  9
$INDEXCTL
280
     0
  9
$HIDETEXT
280
     0
  9
$XCLIPFRAME
280
     2
  9
$HALOGAP
280
     0
  9
$OBSCOLOR
 70
   257
  9
$OBSLTYPE
280
     0
  9
$INTERSECTIONDISPLAY
280
     0
  9
$INTERSECTIONCOLOR
 70
   257
  9
$DIMASSOC
280
     1
  9
$PROJECTNAME
  1

  9
$CAMERADISPLAY
290
     0
  9
$LENSLENGTH
 40
50.0
  9
$CAMERAHEIGHT
 40
0.0
  9
$STEPSPERSEC
 40
2.0
  9
$STEPSIZE
 40
6.0
  9
$3DDWFPREC
 40
2.0
  9
$PSOLWIDTH
 40
0.25
  9
$PSOLHEIGHT
 40
4.0
  9
$LOFTANG1
 40
1.570796326794896
  9
$LOFTANG2
 40
1.570796326794896
  9
$LOFTMAG1
 40
0.0
  9
$LOFTMAG2
 40
0.0
  9
$LOFTPARAM
 70
     7
  9
$LOFTNORMALS
280
     1
  9
$LATITUDE
 40
37.795
  9
$LONGITUDE
 40
-122.394
  9
$NORTHDIRECTION
 40
0.0
  9
$TIMEZONE
 70
 -8000
  9
$LIGHTGLYPHDISPLAY
280
     1
  9
$TILEMODELIGHTSYNCH
280
     1
  9
$CMATERIAL
347
10005
  9
$SOLIDHIST
280
     0
  9
$SHOWHIST
280
     1
  9
$DWFFRAME
280
     2
  9
$DGNFRAME
280
     0
  9
$REALWORLDSCALE
290
     1
  9
$INTERFERECOLOR
 62
     1
  9
$INTERFEREOBJVS
345
10027
  9
$INTERFEREVPVS
346
10024
  9
$CSHADOW
280
     0
  9
$SHADOWPLANELOCATION
 40
0.0
  0
ENDSEC
  0
SECTION
  2
CLASSES
  0
CLASS
  1
ACDBDICTIONARYWDFLT
  2
AcDbDictionaryWithDefault
  3
ObjectDBX Classes
 90
        0
 91
        1
280
     0
281
     0
  0
CLASS
  1
MATERIAL
  2
AcDbMaterial
  3
ObjectDBX Classes
 90
     1153
 91
        3
280
     0
281
     0
  0
CLASS
  1
VISUALSTYLE
  2
AcDbVisualStyle
  3
ObjectDBX Classes
 90
     4095
 91
       24
280
     0
281
     0
  0
CLASS
  1
TABLESTYLE
  2
AcDbTableStyle
  3
ObjectDBX Classes
 90
     4095
 91
        1
280
     0
281
     0
  0
CLASS
  1
SCALE
  2
AcDbScale
  3
ObjectDBX Classes
 90
     1153
 91
       17
280
     0
281
     0
  0
CLASS
  1
MLEADERSTYLE
  2
AcDbMLeaderStyle
  3
ACDB_MLEADERSTYLE_CLASS
 90
     4095
 91
        1
280
     0
281
     0
  0
CLASS
  1
ACDBSECTIONVIEWSTYLE
  2
AcDbSectionViewStyle
  3
ObjectDBX Classes
 90
     1025
 91
        1
280
     0
281
     0
  0
CLASS
  1
ACDBDETAILVIEWSTYLE
  2
AcDbDetailViewStyle
  3
ObjectDBX Classes
 90
     1025
 91
        1
280
     0
281
     0
  0
CLASS
  1
SOLID_BACKGROUND
  2
AcDbSolidBackground
  3
SCENEOE
 90
     4095
 91
        1
280
     0
281
     0
  0
CLASS
  1
NPOCOLLECTION
  2
AcDbImpNonPersistentObjectsCollection
  3
ObjectDBX Classes
 90
     1153
 91
        1
280
     0
281
     0
  0
CLASS
  1
GROUND_PLANE_BACKGROUND
  2
AcDbGroundPlaneBackground
  3
SCENEOE
 90
     4095
 91
        1
280
     0
281
     0
  0
CLASS
  1
DICTIONARYVAR
  2
AcDbDictionaryVar
  3
ObjectDBX Classes
 90
        0
 91
        9
280
     0
281
     0
  0
CLASS
  1
CELLSTYLEMAP
  2
AcDbCellStyleMap
  3
ObjectDBX Classes
 90
     1152
 91
        1
280
     0
281
     0
  0
ENDSEC
  0
SECTION
  2
TABLES
  0
TABLE
  2
VPORT
  5
8
330
0
100
AcDbSymbolTable
 70
     1
1001
ACAD
1000
DbSaveVer
1071
      247
  0
VPORT
  5
10059
330
8
100
AcDbSymbolTableRecord
100
AcDbViewportTableRecord
  2
*Active
 70
     0
 10
0.0
 20
0.0
 11
1.0
 21
1.0
 12
0.0
 22
0.0
 13
0.0
 23
0.0
 14
1.0
 24
1.0
 15
0.0
 25
0.0
 16
0.0000000000002274
 26
0.0
 36
859.0307547824396
 17
-579.2454071044922
 27
175.3810577392578
 37
-0.0000002362094934
 40
314.1013260001033
 41
2.025141930251419
 42
50.0
 43
0.0
 44
0.0
 50
0.0
 51
180.0
 71
     0
 72
  1000
 73
     1
 74
     3
 75
     0
 76
     0
 77
     0
 78
     0
281
     0
 65
     1
110
0.0
120
0.0
130
0.0
111
1.0
121
0.0
131
0.0
112
0.0
122
1.0
132
0.0
 79
     0
146
0.0
348
10023
 60
     3
 61
     5
292
     1
282
     1
141
0.0
142
0.0
 63
   250
421
  3355443
1001
ACAD_NAV_VCDISPLAY
1070
     3
  0
ENDTAB
  0
TABLE
  2
LTYPE
  5
5
330
0
100
AcDbSymbolTable
 70
     2
  0
LTYPE
  5
14
330
5
100
AcDbSymbolTableRecord
100
AcDbLinetypeTableRecord
  2
BYBLOCK
 70
     0
  3

 72
    65
 73
     0
 40
0.0
  0
LTYPE
  5
15
330
5
100
AcDbSymbolTableRecord
100
AcDbLinetypeTableRecord
  2
BYLAYER
 70
     0
  3

 72
    65
 73
     0
 40
0.0
  0
LTYPE
  5
10001
330
5
100
AcDbSymbolTableRecord
100
AcDbLinetypeTableRecord
  2
Continuous
 70
     0
  3
Solid line
 72
    65
 73
     0
 40
0.0
  0
ENDTAB
  0
TABLE
  2
LAYER
  5
2
330
0
100
AcDbSymbolTable
 70
     1
  0
LAYER
  5
50
102
{ACAD_XDICTIONARY
360
10066
102
}
330
2
100
AcDbSymbolTableRecord
100
AcDbLayerTableRecord
  2
0
 70
     0
 62
     7
  6
Continuous
370
    -3
390
10003
347
10015
348
0
  0
ENDTAB
  0
TABLE
  2
STYLE
  5
3
330
0
100
AcDbSymbolTable
 70
     1
  0
STYLE
  5
11
330
3
100
AcDbSymbolTableRecord
100
AcDbTextStyleTableRecord
  2
STANDARD
 70
     0
 40
0.0
 41
1.0
 50
0.0
 71
     0
 42
0.2
  3

  4

  0
ENDTAB
  0
TABLE
  2
VIEW
  5
6
330
0
100
AcDbSymbolTable
 70
     0
  0
ENDTAB
  0
TABLE
  2
UCS
  5
7
330
0
100
AcDbSymbolTable
 70
     0
  0
ENDTAB
  0
TABLE
  2
APPID
  5
9
330
0
100
AcDbSymbolTable
 70
     3
  0
APPID
  5
12
330
9
100
AcDbSymbolTableRecord
100
AcDbRegAppTableRecord
  2
ACAD
 70
     0
  0
APPID
  5
10058
330
9
100
AcDbSymbolTableRecord
100
AcDbRegAppTableRecord
  2
ACAD_NAV_VCDISPLAY
 70
     0
  0
APPID
  5
1005F
330
9
100
AcDbSymbolTableRecord
100
AcDbRegAppTableRecord
  2
ACAD_EXEMPT_FROM_CAD_STANDARDS
 70
     0
  0
ENDTAB
  0
TABLE
  2
DIMSTYLE
  5
A
330
0
100
AcDbSymbolTable
 70
     2
100
AcDbDimStyleTable
 71
     0
  0
DIMSTYLE
105
10053
330
A
100
AcDbSymbolTableRecord
100
AcDbDimStyleTableRecord
  2
Standard
 70
     0
340
11
  0
ENDTAB
  0
TABLE
  2
BLOCK_RECORD
  5
1
330
0
100
AcDbSymbolTable
 70
     1
  0
BLOCK_RECORD
  5
1F
330
1
100
AcDbSymbolTableRecord
100
AcDbBlockTableRecord
  2
*MODEL_SPACE
340
10055
 70
     0
280
     1
281
     0
  0
BLOCK_RECORD
  5
1B
330
1
100
AcDbSymbolTableRecord
100
AcDbBlockTableRecord
  2
*PAPER_SPACE
340
10056
 70
     0
280
     1
281
     0
  0
ENDTAB
  0
ENDSEC
  0
SECTION
  2
BLOCKS
  0
BLOCK
  5
20
330
1F
100
AcDbEntity
  8
0
100
AcDbBlockBegin
  2
*MODEL_SPACE
 70
     0
 10
0.0
 20
0.0
 30
0.0
  3
*MODEL_SPACE
  1

  0
ENDBLK
  5
21
330
1F
100
AcDbEntity
  8
0
100
AcDbBlockEnd
  0
BLOCK
  5
1C
330
1B
100
AcDbEntity
 67
     1
  8
0
100
AcDbBlockBegin
  2
*PAPER_SPACE
 70
     0
 10
0.0
 20
0.0
 30
0.0
  3
*PAPER_SPACE
  1

  0
ENDBLK
  5
1D
330
1B
100
AcDbEntity
 67
     1
  8
0
100
AcDbBlockEnd
  0
ENDSEC
  0
SECTION
  2
ENTITIES
  0
ARC
  5
100
330
1F
100
AcDbEntity
  8
0
100
AcDbCircle
 10
-720.6529018665138
 20
129.581068676075
 30
0.0000000000006795
 40
2.000000000000028
100
AcDbArc
 50
180.0
 51
270.0
  0
LINE
  5
101
330
1F
100
AcDbEntity
  8
0
100
AcDbLine
 10
-720.6529018665138
 20
127.581068676075
 30
0.0000000000006795
 11
-713.8682412472259
 21
127.581068676076
 31
-0.0000000006574852
  0
ARC
  5
102
330
1F
100
AcDbEntity
  8
0
100
AcDbCircle
 10
-713.8682412472259
 20
125.581068676076
 30
0.0000000000005418
 40
2.000000000000028
100
AcDbArc
 50
0.0
 51
90.0
  0
LINE
  5
103
330
1F
100
AcDbEntity
  8
0
100
AcDbLine
 10
-711.8682412472259
 20
125.581068676075
 30
0.0000000000005418
 11
-711.8682412472259
 21
124.631059246587
 31
-0.000000000658511
  0
ARC
  5
104
330
1F
100
AcDbEntity
  8
0
100
AcDbCircle
 10
-709.8682412472259
 20
124.631059246587
 30
0.0000002338890613
 40
2.000000000000028
210
-0.0000000003294817
220
0.0
230
1.0
100
AcDbArc
 50
180.0
 51
270.0
  0
LINE
  5
105
330
1F
100
AcDbEntity
  8
0
100
AcDbLine
 10
-709.8682412472259
 20
122.631059246587
 30
0.000000000000453
 11
-653.768239563391
 21
122.631059246586
 31
-0.0000000006588746
  0
ARC
  5
106
330
1F
100
AcDbEntity
  8
0
100
AcDbCircle
 10
-653.768239563391
 20
124.631059246587
 30
-0.0000000410657793
 40
2.000000000000988
210
0.0
220
-0.0000000003294998
230
1.0
100
AcDbArc
 50
-90.0
 51
0.0
  0
LINE
  5
107
330
1F
100
AcDbEntity
  8
0
100
AcDbLine
 10
-651.768239563391
 20
124.631059246587
 30
0.0000000000001249
 11
-651.768239563391
 21
125.581068676075
 31
-0.0000000006589385
  0
ARC
  5
108
330
1F
100
AcDbEntity
  8
0
100
AcDbCircle
 10
-649.768239563391
 20
125.581068676076
 30
0.000000000000025
 40
1.999999999999992
100
AcDbArc
 50
90.0
 51
180.0
  0
LINE
  5
109
330
1F
100
AcDbEntity
  8
0
100
AcDbLine
 10
-649.768239563391
 20
127.581068676076
 30
0.000000000000025
 11
-621.8550416595941
 21
127.581068676076
 31
-0.0000000006586248
  0
ARC
  5
110
330
1F
100
AcDbEntity
  8
0
100
AcDbCircle
 10
-621.8550416595941
 20
125.581068676076
 30
-0.0000000000006334
 40
2.000000000000028
100
AcDbArc
 50
0.0
 51
90.0
  0
LINE
  5
111
330
1F
100
AcDbEntity
  8
0
100
AcDbLine
 10
-619.8550416595941
 20
125.581068676075
 30
-0.0000000000006334
 11
-619.8550416595941
 21
124.631059246586
 31
-0.0000000006586554
  0
ARC
  5
112
330
1F
100
AcDbEntity
  8
0
100
AcDbCircle
 10
-617.8550416595941
 20
124.631059246587
 30
0.0000002032529354
 40
1.999999999999957
210
-0.0000000003289666
220
0.0
230
1.0
100
AcDbArc
 50
180.0
 51
270.0
  0
LINE
  5
113
330
1F
100
AcDbEntity
  8
0
100
AcDbLine
 10
-617.8550416595941
 20
122.631059246587
 30
-0.0000000000007222
 11
-561.8282395633911
 21
122.631059246587
 31
-0.0000000006590173
  0
ARC
  5
114
330
1F
100
AcDbEntity
  8
0
100
AcDbCircle
 10
-561.8282395633911
 20
124.631059246587
 30
-0.0000000409417211
 40
1.999999999999992
210
0.0
220
-0.000000000328487
230
1.0
100
AcDbArc
 50
270.0
 51
360.0
  0
LINE
  5
115
330
1F
100
AcDbEntity
  8
0
100
AcDbLine
 10
-559.828239563391
 20
124.631059246586
 30
-0.0000000000020434
 11
-559.828239563391
 21
125.581068676075
 31
-0.0000000006590811
  0
ARC
  5
116
330
1F
100
AcDbEntity
  8
0
100
AcDbCircle
 10
-557.8282395633911
 20
125.581068676076
 30
-0.0000000000021427
 40
1.999999999999992
100
AcDbArc
 50
90.0
 51
180.0
  0
LINE
  5
117
330
1F
100
AcDbEntity
  8
0
100
AcDbLine
 10
-557.8282395633911
 20
127.581068676076
 30
-0.0000000000021427
 11
-529.855041659594
 21
127.581068676076
 31
-0.0000000006588047
  0
ARC
  5
118
330
1F
100
AcDbEntity
  8
0
100
AcDbCircle
 10
-529.855041659594
 20
125.581068676076
 30
-0.0000000000028022
 40
2.000000000000028
100
AcDbArc
 50
0.0
 51
90.0
  0
LINE
  5
119
330
1F
100
AcDbEntity
  8
0
100
AcDbLine
 10
-527.855041659594
 20
125.581068676075
 30
-0.0000000000028022
 11
-527.855041659594
 21
124.631059246586
 31
-0.00000000065983
  0
ARC
  5
120
330
1F
100
AcDbEntity
  8
0
100
AcDbCircle
 10
-525.8550416595951
 20
124.631059246587
 30
0.0000001727242913
 40
1.999999999999033
210
-0.0000000003284692
220
0.0
230
1.0
100
AcDbArc
 50
180.0
 51
270.0
  0
LINE
  5
121
330
1F
100
AcDbEntity
  8
0
100
AcDbLine
 10
-525.8550416595951
 20
122.631059246587
 30
-0.000000000002891
 11
-469.8282395633912
 21
122.631059246587
 31
-0.0000000006601919
  0
ARC
  5
122
330
1F
100
AcDbEntity
  8
0
100
AcDbCircle
 10
-469.8282395633912
 20
124.631059246587
 30
-0.0000000408819355
 40
1.999999999999992
210
0.0
220
-0.0000000003279899
230
1.0
100
AcDbArc
 50
270.0
 51
360.0
  0
LINE
  5
123
330
1F
100
AcDbEntity
  8
0
100
AcDbLine
 10
-467.8282395633912
 20
124.631059246586
 30
-0.0000000000042122
 11
-467.8282395633912
 21
125.581068676075
 31
-0.0000000006602557
  0
ARC
  5
124
330
1F
100
AcDbEntity
  8
0
100
AcDbCircle
 10
-465.8282395633912
 20
125.581068676076
 30
-0.0000000000043121
 40
1.999999999999992
100
AcDbArc
 50
90.0
 51
180.0
  0
LINE
  5
125
330
1F
100
AcDbEntity
  8
0
100
AcDbLine
 10
-465.8282395633912
 20
127.581068676076
 30
-0.0000000000043121
 11
-437.7182420114862
 21
127.581068676075
 31
-0.0000000006599821
  0
ARC
  5
126
330
1F
100
AcDbEntity
  8
0
100
AcDbCircle
 10
-437.7182420114862
 20
129.581068676075
 30
-0.0000000423783661
 40
1.999999999999992
210
0.0
220
-0.0000000003269951
230
1.0
100
AcDbArc
 50
-90.0
 51
0.0
  0
LINE
  5
127
330
1F
100
AcDbEntity
  8
0
100
AcDbLine
 10
-435.7182420114861
 20
129.581068676075
 30
-0.0000000000059919
 11
-435.7182420114861
 21
142.13115983429
 31
-0.0000000006611056
  0
ARC
  5
128
330
1F
100
AcDbEntity
  8
0
100
AcDbCircle
 10
-433.7182420114863
 20
142.131159834291
 30
-0.000000000005162
 40
1.999999999999992
100
AcDbArc
 50
90.0
 51
180.0
  0
LINE
  5
129
330
1F
100
AcDbEntity
  8
0
100
AcDbLine
 10
-433.7182420114863
 20
144.131159834291
 30
-0.000000000005162
 11
-432.8185693824011
 21
144.131159834291
 31
-0.000000000661185
  0
ARC
  5
130
330
1F
100
AcDbEntity
  8
0
100
AcDbCircle
 10
-432.8185693824011
 20
145.631159834291
 30
-0.0000000635972259
 40
1.499999999999985
210
0.0
220
-0.0000000004366581
230
1.0
100
AcDbArc
 50
270.0
 51
360.0
  0
LINE
  5
131
330
1F
100
AcDbEntity
  8
0
100
AcDbLine
 10
-431.3185693824012
 20
145.63115983429
 30
-0.0000000000061973
 11
-431.3185693824012
 21
201.633311797845
 31
-0.0000000006605483
  0
ARC
  5
132
330
1F
100
AcDbEntity
  8
0
100
AcDbCircle
 10
-432.8185693824011
 20
201.633311797845
 30
-0.0000001887260333
 40
1.499999999999985
210
0.0000000004360245
220
0.0
230
1.0
100
AcDbArc
 50
0.0
 51
90.0
  0
LINE
  5
133
330
1F
100
AcDbEntity
  8
0
100
AcDbLine
 10
-432.8185693824011
 20
203.1333117978451
 30
-0.0000000000065115
 11
-433.7182420114863
 21
203.133311797844
 31
-0.0000000006614947
  0
ARC
  5
134
330
1F
100
AcDbEntity
  8
0
100
AcDbCircle
 10
-433.7182420114863
 20
205.1333117978451
 30
-0.0000000000065098
 40
2.000000000000028
100
AcDbArc
 50
180.0
 51
270.0
  0
LINE
  5
135
330
1F
100
AcDbEntity
  8
0
100
AcDbLine
 10
-435.7182420114862
 20
205.1333117978451
 30
-0.0000000000065098
 11
-435.7182420114861
 21
221.731053106646
 31
-0.0000000006615519
  0
ARC
  5
136
330
1F
100
AcDbEntity
  8
0
100
AcDbCircle
 10
-437.7182420114862
 20
221.731053106646
 30
-0.0000001433686968
 40
2.000000000000028
210
0.0000000003275216
220
0.0
230
1.0
100
AcDbArc
 50
0.0
 51
90.0
  0
LINE
  5
137
330
1F
100
AcDbEntity
  8
0
100
AcDbLine
 10
-437.7182420114862
 20
223.731053106646
 30
-0.0000000000065087
 11
-444.6206663184951
 21
223.731053106646
 31
-0.0000000000013478
  0
ARC
  5
138
330
1F
100
AcDbEntity
  8
0
100
AcDbCircle
 10
-444.6206663184951
 20
225.731053106646
 30
0.0000000000616129
 40
2.000000000000028
100
AcDbArc
 50
180.0
 51
270.0
  0
LINE
  5
139
330
1F
100
AcDbEntity
  8
0
100
AcDbLine
 10
-446.6206663184951
 20
225.7310531066451
 30
0.0000000000616129
 11
-446.6206663184947
 21
226.0846454885391
 31
-0.000000473272514
  0
ARC
  5
140
330
1F
100
AcDbEntity
  8
0
100
AcDbCircle
 10
-448.6206663184776
 20
226.0846412503481
 30
-0.0001061586225348
 40
1.999999999999885
210
0.0000002366336163
220
0.0000000000005014
230
0.9999999999999719
100
AcDbArc
 50
0.0001214160985003
 51
90.0
  0
LINE
  5
141
330
1F
100
AcDbEntity
  8
0
100
AcDbLine
 10
-448.62066631849
 20
228.084641250348
 30
-0.0000000000052813
 11
-504.62066631849
 21
228.084641250347
 31
-0.0000000005009787
  0
ARC
  5
142
330
1F
100
AcDbEntity
  8
0
100
AcDbCircle
 10
-504.62066631849
 20
226.084641250347
 30
0.0000000560666607
 40
2.000000000000028
210
0.0
220
0.0000000002480116
230
1.0
100
AcDbArc
 50
90.0
 51
179.9998785899052
  0
LINE
  5
143
330
1F
100
AcDbEntity
  8
0
100
AcDbLine
 10
-506.6206663184856
 20
226.0846454884887
 30
-0.0000000000049555
 11
-506.6206713067789
 21
225.731053106646
 31
-0.000000473255643
  0
ARC
  5
144
330
1F
100
AcDbEntity
  8
0
100
AcDbCircle
 10
-508.6206713067792
 20
225.7310531066451
 30
0.0000000000441502
 40
1.999999999999992
100
AcDbArc
 50
-90.0
 51
0.0000135532364635
  0
LINE
  5
145
330
1F
100
AcDbEntity
  8
0
100
AcDbLine
 10
-508.6206713067792
 20
223.7310531066451
 30
0.0000000000441502
 11
-547.1927393771322
 21
223.7310531066451
 31
-0.0000000000009542
  0
ARC
  5
146
330
1F
100
AcDbEntity
  8
0
100
AcDbCircle
 10
-547.1927393771322
 20
225.7310531066451
 30
0.0000000000330519
 40
2.000000000000028
100
AcDbArc
 50
180.0
 51
270.0
  0
LINE
  5
147
330
1F
100
AcDbEntity
  8
0
100
AcDbLine
 10
-549.1927393771321
 20
225.7310531066451
 30
0.0000000000330519
 11
-549.1927393771321
 21
226.131062333112
 31
0.0000000008480888
  0
ARC
  5
148
330
1F
100
AcDbEntity
  8
0
100
AcDbCircle
 10
-551.1927393771271
 20
226.13105809492
 30
0.0000002345162387
 40
1.999999999999474
210
-0.000000000425476
220
-0.0000000000000009
230
1.0
100
AcDbArc
 50
0.0001214160985003
 51
90.0
  0
LINE
  5
149
330
1F
100
AcDbEntity
  8
0
100
AcDbLine
 10
-551.1927393771271
 20
228.13105809492
 30
-0.0000000000028633
 11
-607.1927393771272
 21
228.13105809492
 31
-0.0000000000025485
  0
ARC
  5
150
330
1F
100
AcDbEntity
  8
0
100
AcDbCircle
 10
-607.1927393771272
 20
226.1310580949191
 30
-0.0000000000035322
 40
2.000000000000988
100
AcDbArc
 50
90.0
 51
179.9998785899052
  0
LINE
  5
151
330
1F
100
AcDbEntity
  8
0
100
AcDbLine
 10
-609.1927393771227
 20
226.1310623330619
 30
-0.0000000000035322
 11
-609.1927443654161
 21
225.731053106646
 31
0.0000000008535206
  0
ARC
  5
152
330
1F
100
AcDbEntity
  8
0
100
AcDbCircle
 10
-611.1927443654161
 20
225.7310531066451
 30
0.0000000000155537
 40
1.999999999999992
100
AcDbArc
 50
-90.0
 51
0.0
  0
LINE
  5
153
330
1F
100
AcDbEntity
  8
0
100
AcDbLine
 10
-611.1927443654161
 20
223.7310531066451
 30
0.0000000000155537
 11
-649.8182393771322
 21
223.7310531066451
 31
-0.000000000000524
  0
ARC
  5
154
330
1F
100
AcDbEntity
  8
0
100
AcDbCircle
 10
-649.8182393771322
 20
225.731053106644
 30
0.0000000000044742
 40
2.000000000000028
100
AcDbArc
 50
180.0
 51
270.0
  0
LINE
  5
155
330
1F
100
AcDbEntity
  8
0
100
AcDbLine
 10
-651.8182393771321
 20
225.731053106644
 30
0.0000000000044742
 11
-651.818239377132
 21
226.131062333113
 31
0.0000000000035244
  0
ARC
  5
156
330
1F
100
AcDbEntity
  8
0
100
AcDbCircle
 10
-653.8182393771272
 20
226.13105809492
 30
0.0000000012965294
 40
1.999999999999545
210
-0.0000000000019837
220
0.0
230
1.0
100
AcDbArc
 50
0.0001214160985003
 51
90.0
  0
LINE
  5
157
330
1F
100
AcDbEntity
  8
0
100
AcDbLine
 10
-653.8182393771272
 20
228.13105809492
 30
-0.0000000000004435
 11
-709.818239377127
 21
228.13105809492
 31
-0.0000000000001288
  0
ARC
  5
158
330
1F
100
AcDbEntity
  8
0
100
AcDbCircle
 10
-709.818239377127
 20
226.1310580949191
 30
-0.0000000000011124
 40
2.000000000000988
100
AcDbArc
 50
90.0
 51
179.9998785899052
  0
LINE
  5
159
330
1F
100
AcDbEntity
  8
0
100
AcDbLine
 10
-711.8182393771225
 20
226.131062333063
 30
-0.0000000000011124
 11
-711.8182443654159
 21
225.731053106644
 31
-0.000000000013089
  0
ARC
  5
160
330
1F
100
AcDbEntity
  8
0
100
AcDbCircle
 10
-713.8182443654159
 20
225.731053106644
 30
-0.0000000000140365
 40
1.999999999999992
100
AcDbArc
 50
-90.0
 51
0.0
  0
LINE
  5
161
330
1F
100
AcDbEntity
  8
0
100
AcDbLine
 10
-713.8182443654159
 20
223.7310531066441
 30
-0.0000000000140365
 11
-720.6529018665138
 21
223.7310531066451
 31
-0.0000000000008432
  0
ARC
  5
162
330
1F
100
AcDbEntity
  8
0
100
AcDbCircle
 10
-720.6529018665138
 20
221.731053106644
 30
0.0000000002229574
 40
2.000000000000988
210
0.0
220
0.0000000000010003
230
1.0
100
AcDbArc
 50
90.0
 51
180.0
  0
LINE
  5
163
330
1F
100
AcDbEntity
  8
0
100
AcDbLine
 10
-722.6529018665143
 20
221.731053106644
 30
0.0000000000011574
 11
-722.6529018665143
 21
205.1333117978451
 31
-0.0000000006587081
  0
ARC
  5
164
330
1F
100
AcDbEntity
  8
0
100
AcDbCircle
 10
-724.6529018665142
 20
205.1333117978451
 30
0.0000000000003497
 40
1.999999999999992
100
AcDbArc
 50
-90.0
 51
0.0
  0
LINE
  5
165
330
1F
100
AcDbEntity
  8
0
100
AcDbLine
 10
-724.6529018665142
 20
203.1333117978451
 30
0.0000000000003503
 11
-725.672239377127
 21
203.1333117978451
 31
-0.0000000006586254
  0
ARC
  5
166
330
1F
100
AcDbEntity
  8
0
100
AcDbCircle
 10
-725.672239377127
 20
201.633311797845
 30
0.0000000885871759
 40
1.499999999999985
210
0.0
220
0.000000000439346
230
1.0
100
AcDbArc
 50
90.0
 51
180.0
  0
LINE
  5
167
330
1F
100
AcDbEntity
  8
0
100
AcDbLine
 10
-727.1722393771272
 20
201.633311797845
 30
0.0000000000003936
 11
-727.1722393771272
 21
145.631159834291
 31
-0.0000000006582679
  0
ARC
  5
168
330
1F
100
AcDbEntity
  8
0
100
AcDbCircle
 10
-725.672239377127
 20
145.631159834291
 30
0.0000003188009324
 40
1.500000000000056
210
-0.0000000004393171
220
0.0
230
1.0
100
AcDbArc
 50
180.0
 51
270.0
  0
LINE
  5
169
330
1F
100
AcDbEntity
  8
0
100
AcDbLine
 10
-725.672239377127
 20
144.131159834291
 30
0.0000000000007078
 11
-724.6529018665142
 21
144.13115983429
 31
-0.0000000006583184
  0
ARC
  5
170
330
1F
100
AcDbEntity
  8
0
100
AcDbCircle
 10
-724.6529018665142
 20
142.131159834291
 30
0.0000000000016981
 40
2.000000000000028
100
AcDbArc
 50
0.0
 51
90.0
  0
LINE
  5
171
330
1F
100
AcDbEntity
  8
0
100
AcDbLine
 10
-722.6529018665143
 20
142.131159834291
 30
0.0000000000016981
 11
-722.6529018665143
 21
129.581068676075
 31
0.0000000000006795
  0
LWPOLYLINE
  5
172
330
1F
100
AcDbEntity
  8
0
100
AcDbPolyline
 90
       12
 70
     1
 43
0.0
 10
-459.9618127230981
 20
168.965562716983
 10
-459.961812723098
 20
169.44975182279
 42
-0.0039529088418076
 10
-459.9619377230982
 20
169.465562716983
 10
-459.9619377230982
 20
181.4648627169841
 42
-0.0039529088418164
 10
-459.961812723098
 20
181.480673611177
 10
-459.961812723098
 20
181.965562716983
 42
-0.4142135623730951
 10
-459.4618127230981
 20
182.465562716983
 10
-441.6993127230981
 20
182.4655627169829
 42
-0.4142135623730951
 10
-441.1993127230982
 20
181.965562716983
 10
-441.1993127230982
 20
168.965562716983
 42
-0.4142135623730951
 10
-441.6993127230981
 20
168.465562716983
 10
-459.4618127230981
 20
168.465562716983
 42
-0.4142135623730951
  0
LWPOLYLINE
  5
173
330
1F
100
AcDbEntity
  8
0
100
AcDbPolyline
 90
       16
 70
     1
 43
0.0
 10
-519.060321797838
 20
207.625049060695
 10
-520.7173717978381
 20
207.625049060695
 42
-0.4142135623730951
 10
-521.2173717978381
 20
208.125049060695
 10
-521.2173717978382
 20
219.125049060695
 42
-0.4142135623730951
 10
-520.7173717978381
 20
219.625049060695
 10
-513.8603217978381
 20
219.625049060695
 42
-0.4142135623730951
 10
-513.3603217978381
 20
219.125049060695
 10
-513.3603217978381
 20
208.125049060695
 42
-0.4142135623730951
 10
-513.8603217978381
 20
207.625049060695
 10
-515.460321797838
 20
207.625049060695
 42
0.4142135623725123
 10
-515.960321797838
 20
207.125049060696
 10
-515.960321797838
 20
206.1391442365831
 42
-0.4142135623725123
 10
-516.460321797838
 20
205.639144236584
 10
-518.0603217978379
 20
205.6391442365841
 42
-0.4142135623725123
 10
-518.560321797838
 20
206.1391442365831
 10
-518.560321797838
 20
207.125049060696
 42
0.4142135623725123
  0
LWPOLYLINE
  5
174
330
1F
100
AcDbEntity
  8
0
100
AcDbPolyline
 90
        8
 70
     1
 43
0.0
 10
-573.7620127230981
 20
220.565562716983
 10
-560.7620127230981
 20
220.565562716983
 42
-0.4142135623730951
 10
-560.2620127230981
 20
220.065562716983
 10
-560.262012723098
 20
207.0655627169831
 42
-0.4142135623730951
 10
-560.7620127230981
 20
206.5655627169831
 10
-573.7620127230981
 20
206.5655627169831
 42
-0.4142135623730951
 10
-574.262012723098
 20
207.0655627169831
 10
-574.262012723098
 20
220.065562716983
 42
-0.4142135623730951
  0
LWPOLYLINE
  5
175
330
1F
100
AcDbEntity
  8
0
100
AcDbPolyline
 90
        8
 70
     1
 43
0.0
 10
-700.4682627230981
 20
188.015562716983
 10
-700.4682627230981
 20
201.015562716983
 42
-0.4142135623730951
 10
-699.9682627230981
 20
201.515562716983
 10
-686.9682627230981
 20
201.515562716983
 42
-0.4142135623730951
 10
-686.4682627230981
 20
201.015562716983
 10
-686.4682627230981
 20
188.015562716983
 42
-0.4142135623730951
 10
-686.9682627230981
 20
187.515562716983
 10
-699.9682627230981
 20
187.515562716983
 42
-0.4142135623730951
  0
LWPOLYLINE
  5
176
330
1F
100
AcDbEntity
  8
0
100
AcDbPolyline
 90
        8
 70
     1
 43
0.0
 10
-719.518262723098
 20
207.0655627169831
 10
-719.518262723098
 20
220.065562716983
 42
-0.4142135623730951
 10
-719.018262723098
 20
220.565562716983
 10
-706.0182627230981
 20
220.565562716983
 42
-0.4142135623730951
 10
-705.5182627230981
 20
220.065562716983
 10
-705.5182627230981
 20
207.0655627169831
 42
-0.4142135623730951
 10
-706.0182627230981
 20
206.5655627169831
 10
-719.018262723098
 20
206.5655627169831
 42
-0.4142135623730951
  0
LWPOLYLINE
  5
177
330
1F
100
AcDbEntity
  8
0
100
AcDbPolyline
 90
        8
 70
     1
 43
0.0
 10
-700.4682627230981
 20
207.0655627169831
 10
-700.4682627230981
 20
220.065562716983
 42
-0.4142135623730951
 10
-699.9682627230981
 20
220.565562716983
 10
-686.9682627230981
 20
220.565562716983
 42
-0.4142135623730951
 10
-686.4682627230981
 20
220.065562716983
 10
-686.4682627230981
 20
207.0655627169831
 42
-0.4142135623730951
 10
-686.9682627230981
 20
206.5655627169831
 10
-699.9682627230981
 20
206.5655627169831
 42
-0.4142135623730951
  0
LWPOLYLINE
  5
178
330
1F
100
AcDbEntity
  8
0
100
AcDbPolyline
 90
        8
 70
     1
 43
0.0
 10
-681.4182627230979
 20
207.0655627169831
 10
-681.4182627230979
 20
220.065562716983
 42
-0.4142135623730951
 10
-680.9182627230979
 20
220.565562716983
 10
-667.9182627230979
 20
220.565562716983
 42
-0.4142135623730951
 10
-667.418262723098
 20
220.065562716983
 10
-667.418262723098
 20
207.0655627169831
 42
-0.4142135623730951
 10
-667.9182627230979
 20
206.5655627169831
 10
-680.9182627230979
 20
206.5655627169831
 42
-0.4142135623730951
  0
LWPOLYLINE
  5
179
330
1F
100
AcDbEntity
  8
0
100
AcDbPolyline
 90
        8
 70
     1
 43
0.0
 10
-719.518262723098
 20
188.015562716983
 10
-719.518262723098
 20
201.015562716983
 42
-0.4142135623730951
 10
-719.018262723098
 20
201.515562716983
 10
-706.0182627230981
 20
201.515562716983
 42
-0.4142135623730951
 10
-705.5182627230981
 20
201.015562716983
 10
-705.5182627230981
 20
188.015562716983
 42
-0.4142135623730951
 10
-706.0182627230981
 20
187.515562716983
 10
-719.018262723098
 20
187.515562716983
 42
-0.4142135623730951
  0
LWPOLYLINE
  5
180
330
1F
100
AcDbEntity
  8
0
100
AcDbPolyline
 90
        8
 70
     1
 43
0.0
 10
-643.3182627230982
 20
207.0655627169831
 10
-643.3182627230982
 20
220.065562716983
 42
-0.4142135623730951
 10
-642.8182627230982
 20
220.565562716983
 10
-629.8182627230982
 20
220.565562716983
 42
-0.4142135623730951
 10
-629.3182627230984
 20
220.065562716983
 10
-629.3182627230982
 20
207.0655627169831
 42
-0.4142135623730951
 10
-629.8182627230982
 20
206.5655627169831
 10
-642.8182627230982
 20
206.5655627169831
 42
-0.4142135623730951
  0
LWPOLYLINE
  5
181
330
1F
100
AcDbEntity
  8
0
100
AcDbPolyline
 90
        8
 70
     1
 43
0.0
 10
-662.3682627230981
 20
207.0655627169831
 10
-662.3682627230981
 20
220.065562716983
 42
-0.4142135623730951
 10
-661.8682627230981
 20
220.565562716983
 10
-648.8682627230981
 20
220.565562716983
 42
-0.4142135623730951
 10
-648.3682627230981
 20
220.065562716983
 10
-648.3682627230981
 20
207.0655627169831
 42
-0.4142135623730951
 10
-648.8682627230981
 20
206.5655627169831
 10
-661.8682627230981
 20
206.5655627169831
 42
-0.4142135623730951
  0
LWPOLYLINE
  5
182
330
1F
100
AcDbEntity
  8
0
100
AcDbPolyline
 90
        8
 70
     1
 43
0.0
 10
-674.2745127230981
 20
188.015562716983
 10
-674.2745127230981
 20
201.015562716983
 42
-0.4142135623730951
 10
-673.7745127230981
 20
201.515562716983
 10
-660.7745127230981
 20
201.515562716983
 42
-0.4142135623730951
 10
-660.2745127230981
 20
201.015562716983
 10
-660.2745127230981
 20
188.015562716983
 42
-0.4142135623730951
 10
-660.7745127230981
 20
187.515562716983
 10
-673.7745127230981
 20
187.515562716983
 42
-0.4142135623730951
  0
LWPOLYLINE
  5
183
330
1F
100
AcDbEntity
  8
0
100
AcDbPolyline
 90
        8
 70
     1
 43
0.0
 10
-561.3555449430982
 20
182.465585576985
 10
-549.3555449430982
 20
182.4655855769841
 42
-0.4142135623730951
 10
-548.3555449430983
 20
181.465585576984
 10
-548.3555449430983
 20
169.465585576983
 42
-0.4142135623730951
 10
-549.3555449430982
 20
168.465585576983
 10
-561.3555449430982
 20
168.465585576983
 42
-0.4142135623730951
 10
-562.3555449430982
 20
169.465585576983
 10
-562.3555449430991
 20
181.465585576984
 42
-0.4142135623730951
  0
LWPOLYLINE
  5
184
330
1F
100
AcDbEntity
  8
0
100
AcDbPolyline
 90
        8
 70
     1
 43
0.0
 10
-543.3053199430982
 20
169.4655855769841
 10
-543.3053199430982
 20
181.464885576983
 42
-0.4142135623730951
 10
-542.3053199430982
 20
182.4648855769831
 10
-530.3057699430982
 20
182.4648855769831
 42
-0.4142135623730951
 10
-529.3057699430981
 20
181.464885576983
 10
-529.3057699430981
 20
169.4655855769841
 42
-0.4142135623730951
 10
-530.3057699430982
 20
168.465585576984
 10
-542.3053199430982
 20
168.465585576984
 42
-0.4142135623730951
  0
LWPOLYLINE
  5
185
330
1F
100
AcDbEntity
  8
0
100
AcDbPolyline
 90
        8
 70
     1
 43
0.0
 10
-486.4432877230981
 20
162.414862716984
 10
-486.4432877230981
 20
150.415562716983
 42
-0.4142135623730951
 10
-487.443287723098
 20
149.415562716983
 10
-499.442837723098
 20
149.415562716983
 42
-0.4142135623730951
 10
-500.4428377230982
 20
150.415562716983
 10
-500.4428377230982
 20
162.414862716984
 42
-0.4142135623730951
 10
-499.442837723098
 20
163.4148627169841
 10
-487.443287723098
 20
163.4148627169841
 42
-0.4142135623730951
  0
LWPOLYLINE
  5
186
330
1F
100
AcDbEntity
  8
0
100
AcDbPolyline
 90
        8
 70
     1
 43
0.0
 10
-599.4555449430982
 20
182.465585576985
 10
-587.4555449430982
 20
182.4655855769841
 42
-0.4142135623730951
 10
-586.4555449430981
 20
181.465585576984
 10
-586.4555449430981
 20
169.465585576983
 42
-0.4142135623730951
 10
-587.4555449430982
 20
168.465585576983
 10
-599.4555449430982
 20
168.465585576983
 42
-0.4142135623730951
 10
-600.4555449430982
 20
169.465585576983
 10
-600.4555449430991
 20
181.465585576984
 42
-0.4142135623730951
  0
LWPOLYLINE
  5
187
330
1F
100
AcDbEntity
  8
0
100
AcDbPolyline
 90
        8
 70
     1
 43
0.0
 10
-467.3934877230982
 20
162.414862716984
 10
-467.3934877230981
 20
150.415562716983
 42
-0.4142135623730951
 10
-468.3934877230981
 20
149.415562716983
 10
-480.393037723098
 20
149.415562716983
 42
-0.4142135623730951
 10
-481.393037723098
 20
150.415562716983
 10
-481.393037723098
 20
162.414862716984
 42
-0.4142135623730951
 10
-480.393037723098
 20
163.4148627169841
 10
-468.3934877230981
 20
163.414862716984
 42
-0.4142135623730951
  0
LWPOLYLINE
  5
188
330
1F
100
AcDbEntity
  8
0
100
AcDbPolyline
 90
        8
 70
     1
 43
0.0
 10
-505.2053199430982
 20
169.4655855769841
 10
-505.2053199430982
 20
181.464885576983
 42
-0.4142135623730951
 10
-504.2053199430982
 20
182.4648855769831
 10
-492.2057699430982
 20
182.4648855769831
 42
-0.4142135623730951
 10
-491.2057699430982
 20
181.464885576983
 10
-491.2057699430982
 20
169.4655855769841
 42
-0.4142135623730951
 10
-492.2057699430982
 20
168.465585576984
 10
-504.2053199430982
 20
168.465585576984
 42
-0.4142135623730951
  0
LWPOLYLINE
  5
189
330
1F
100
AcDbEntity
  8
0
100
AcDbPolyline
 90
        8
 70
     1
 43
0.0
 10
-586.1680377230981
 20
131.365562716983
 10
-586.1680377230981
 20
143.364862716983
 42
-0.4142135623730951
 10
-585.1680377230981
 20
144.364862716983
 10
-573.1684877230981
 20
144.364862716983
 42
-0.4142135623730951
 10
-572.168487723098
 20
143.364862716983
 10
-572.168487723098
 20
131.365562716983
 42
-0.4142135623730951
 10
-573.1684877230981
 20
130.365562716983
 10
-585.1680377230981
 20
130.365562716983
 42
-0.4142135623730951
  0
LWPOLYLINE
  5
190
330
1F
100
AcDbEntity
  8
0
100
AcDbPolyline
 90
        8
 70
     1
 43
0.0
 10
-581.4055449430981
 20
169.465585576983
 10
-581.4055449430981
 20
181.465585576984
 42
-0.4142135623730951
 10
-580.4055449430981
 20
182.4655855769841
 10
-568.4055449430981
 20
182.4655855769841
 42
-0.4142135623730951
 10
-567.4055449430981
 20
181.465585576984
 10
-567.4055449430981
 20
169.465585576983
 42
-0.4142135623730951
 10
-568.4055449430981
 20
168.465585576983
 10
-580.4055449430981
 20
168.465585576983
 42
-0.4142135623730951
  0
LWPOLYLINE
  5
191
330
1F
100
AcDbEntity
  8
0
100
AcDbPolyline
 90
        8
 70
     1
 43
0.0
 10
-575.6430627230981
 20
163.415562716984
 10
-563.6430627230981
 20
163.415562716983
 42
-0.4142135623730951
 10
-562.6430627230981
 20
162.415562716983
 10
-562.6430627230981
 20
150.415562716983
 42
-0.4142135623730951
 10
-563.6430627230981
 20
149.415562716983
 10
-575.6430627230981
 20
149.415562716983
 42
-0.4142135623730951
 10
-576.6430627230981
 20
150.415562716983
 10
-576.6430627230992
 20
162.415562716983
 42
-0.4142135623730951
  0
LWPOLYLINE
  5
192
330
1F
100
AcDbEntity
  8
0
100
AcDbPolyline
 90
        8
 70
     1
 43
0.0
 10
-515.018487723098
 20
143.364862716983
 10
-515.018487723098
 20
131.365562716983
 42
-0.4142135623730951
 10
-516.018487723098
 20
130.365562716983
 10
-528.018037723098
 20
130.365562716983
 42
-0.4142135623730951
 10
-529.018037723098
 20
131.365562716983
 10
-529.018037723098
 20
143.364862716983
 42
-0.4142135623730951
 10
-528.018037723098
 20
144.364862716983
 10
-516.018487723098
 20
144.364862716983
 42
-0.4142135623730951
  0
LWPOLYLINE
  5
193
330
1F
100
AcDbEntity
  8
0
100
AcDbPolyline
 90
        8
 70
     1
 43
0.0
 10
-524.255319943098
 20
169.4655855769841
 10
-524.255319943098
 20
181.464885576983
 42
-0.4142135623730951
 10
-523.255319943098
 20
182.4648855769831
 10
-511.2557699430982
 20
182.4648855769831
 42
-0.4142135623730951
 10
-510.255769943098
 20
181.464885576983
 10
-510.255769943098
 20
169.4655855769841
 42
-0.4142135623730951
 10
-511.2557699430982
 20
168.465585576984
 10
-523.255319943098
 20
168.465585576984
 42
-0.4142135623730951
  0
LWPOLYLINE
  5
194
330
1F
100
AcDbEntity
  8
0
100
AcDbPolyline
 90
        8
 70
     1
 43
0.0
 10
-635.0805449430981
 20
187.515585576984
 10
-647.0805449430981
 20
187.5155855769841
 42
-0.4142135623730951
 10
-648.0805449430979
 20
188.515585576984
 10
-648.0805449430979
 20
200.515585576985
 42
-0.4142135623730951
 10
-647.0805449430981
 20
201.515585576985
 10
-635.0805449430981
 20
201.515585576985
 42
-0.4142135623730951
 10
-634.0805449430981
 20
200.515585576985
 10
-634.0805449430981
 20
188.515585576984
 42
-0.4142135623730951
  0
LWPOLYLINE
  5
195
330
1F
100
AcDbEntity
  8
0
100
AcDbPolyline
 90
        8
 70
     1
 43
0.0
 10
-547.0680377230982
 20
144.364862716983
 10
-535.0684877230982
 20
144.364862716983
 42
-0.4142135623730951
 10
-534.0684877230982
 20
143.364862716983
 10
-534.0684877230982
 20
131.365562716983
 42
-0.4142135623730951
 10
-535.0684877230982
 20
130.365562716983
 10
-547.0680377230982
 20
130.365562716983
 42
-0.4142135623730951
 10
-548.0680377230982
 20
131.365562716983
 10
-548.0680377230982
 20
143.364862716983
 42
-0.4142135623730951
  0
LWPOLYLINE
  5
196
330
1F
100
AcDbEntity
  8
0
100
AcDbPolyline
 90
        8
 70
     1
 43
0.0
 10
-651.8430627230992
 20
163.415562716983
 10
-639.8430627230981
 20
163.415562716983
 42
-0.4142135623730951
 10
-638.8430627230981
 20
162.415562716983
 10
-638.8430627230981
 20
150.415562716983
 42
-0.4142135623730951
 10
-639.8430627230981
 20
149.415562716983
 10
-651.8430627230992
 20
149.4155627169831
 42
-0.4142135623730951
 10
-652.8430627230989
 20
150.415562716983
 10
-652.8430627230992
 20
162.415562716983
 42
-0.4142135623730951
  0
LWPOLYLINE
  5
197
330
1F
100
AcDbEntity
  8
0
100
AcDbPolyline
 90
        8
 70
     1
 43
0.0
 10
-476.9184877230982
 20
143.364862716983
 10
-476.9184877230982
 20
131.365562716983
 42
-0.4142135623730951
 10
-477.9184877230981
 20
130.365562716983
 10
-489.9180377230982
 20
130.365562716983
 42
-0.4142135623730951
 10
-490.9180377230982
 20
131.365562716983
 10
-490.9180377230982
 20
143.364862716983
 42
-0.4142135623730951
 10
-489.9180377230982
 20
144.364862716983
 10
-477.9184877230981
 20
144.364862716983
 42
-0.4142135623730951
  0
LWPOLYLINE
  5
198
330
1F
100
AcDbEntity
  8
0
100
AcDbPolyline
 90
        8
 70
     1
 43
0.0
 10
-524.5432877230983
 20
162.414862716984
 10
-524.5432877230983
 20
150.415562716983
 42
-0.4142135623730951
 10
-525.5432877230982
 20
149.415562716983
 10
-537.5428377230982
 20
149.415562716983
 42
-0.4142135623730951
 10
-538.5428377230982
 20
150.415562716983
 10
-538.5428377230982
 20
162.414862716984
 42
-0.4142135623730951
 10
-537.5428377230982
 20
163.4148627169841
 10
-525.5432877230982
 20
163.4148627169841
 42
-0.4142135623730951
  0
LWPOLYLINE
  5
199
330
1F
100
AcDbEntity
  8
0
100
AcDbPolyline
 90
        8
 70
     1
 43
0.0
 10
-464.7244377230982
 20
188.515562716982
 10
-464.7244377230982
 20
200.5148627169821
 42
-0.4142135623730951
 10
-463.7244377230982
 20
201.5148627169821
 10
-451.7248877230982
 20
201.5148627169821
 42
-0.4142135623730951
 10
-450.7248877230982
 20
200.5148627169821
 10
-450.7248877230982
 20
188.515562716982
 42
-0.4142135623730951
 10
-451.7248877230982
 20
187.515562716982
 10
-463.7244377230982
 20
187.515562716982
 42
-0.4142135623730951
  0
LWPOLYLINE
  5
200
330
1F
100
AcDbEntity
  8
0
100
AcDbPolyline
 90
        8
 70
     1
 43
0.0
 10
-486.1555199430982
 20
169.4655855769841
 10
-486.1555199430982
 20
181.464885576983
 42
-0.4142135623730951
 10
-485.1555199430982
 20
182.4648855769831
 10
-473.1559699430982
 20
182.4648855769831
 42
-0.4142135623730951
 10
-472.1559699430982
 20
181.464885576983
 10
-472.1559699430982
 20
169.4655855769841
 42
-0.4142135623730951
 10
-473.1559699430982
 20
168.465585576984
 10
-485.1555199430982
 20
168.465585576984
 42
-0.4142135623730951
  0
LWPOLYLINE
  5
201
330
1F
100
AcDbEntity
  8
0
100
AcDbPolyline
 90
        8
 70
     1
 43
0.0
 10
-543.593062723098
 20
162.415562716983
 10
-543.593062723098
 20
150.415562716983
 42
-0.4142135623730951
 10
-544.5930627230981
 20
149.415562716983
 10
-556.5930627230981
 20
149.415562716983
 42
-0.4142135623730951
 10
-557.5930627230981
 20
150.415562716983
 10
-557.5930627230981
 20
162.415562716983
 42
-0.4142135623730951
 10
-556.5930627230981
 20
163.415562716983
 10
-544.5930627230981
 20
163.415562716983
 42
-0.4142135623730951
  0
LWPOLYLINE
  5
202
330
1F
100
AcDbEntity
  8
0
100
AcDbPolyline
 90
        8
 70
     1
 43
0.0
 10
-619.7930627230981
 20
162.415562716983
 10
-619.7930627230981
 20
150.415562716983
 42
-0.4142135623730951
 10
-620.7930627230981
 20
149.415562716983
 10
-632.7930627230982
 20
149.415562716983
 42
-0.4142135623730951
 10
-633.7930627230981
 20
150.415562716983
 10
-633.7930627230981
 20
162.415562716983
 42
-0.4142135623730951
 10
-632.7930627230982
 20
163.415562716983
 10
-620.7930627230981
 20
163.415562716983
 42
-0.4142135623730951
  0
LWPOLYLINE
  5
203
330
1F
100
AcDbEntity
  8
0
100
AcDbPolyline
 90
        8
 70
     1
 43
0.0
 10
-505.4932877230982
 20
162.414862716984
 10
-505.4932877230982
 20
150.415562716983
 42
-0.4142135623730951
 10
-506.4932877230981
 20
149.415562716983
 10
-518.4928377230981
 20
149.415562716983
 42
-0.4142135623730951
 10
-519.4928377230983
 20
150.415562716983
 10
-519.4928377230983
 20
162.414862716984
 42
-0.4142135623730951
 10
-518.4928377230981
 20
163.4148627169841
 10
-506.4932877230981
 20
163.4148627169841
 42
-0.4142135623730951
  0
LWPOLYLINE
  5
204
330
1F
100
AcDbEntity
  8
0
100
AcDbPolyline
 90
        8
 70
     1
 43
0.0
 10
-443.5811877230981
 20
162.414862716984
 10
-443.5811877230981
 20
150.415562716983
 42
-0.4142135623730951
 10
-444.5811877230982
 20
149.415562716983
 10
-456.5807377230981
 20
149.415562716983
 42
-0.4142135623730951
 10
-457.580737723098
 20
150.415562716983
 10
-457.580737723098
 20
162.414862716984
 42
-0.4142135623730951
 10
-456.5807377230981
 20
163.4148627169841
 10
-444.5811877230982
 20
163.4148627169841
 42
-0.4142135623730951
  0
LWPOLYLINE
  5
205
330
1F
100
AcDbEntity
  8
0
100
AcDbPolyline
 90
        8
 70
     1
 43
0.0
 10
-495.9684877230982
 20
143.364862716983
 10
-495.9684877230982
 20
131.365562716983
 42
-0.4142135623730951
 10
-496.9684877230982
 20
130.365562716983
 10
-508.9680377230982
 20
130.365562716983
 42
-0.4142135623730951
 10
-509.9680377230982
 20
131.365562716983
 10
-509.9680377230982
 20
143.364862716983
 42
-0.4142135623730951
 10
-508.9680377230982
 20
144.364862716983
 10
-496.9684877230982
 20
144.364862716983
 42
-0.4142135623730951
  0
LWPOLYLINE
  5
206
330
1F
100
AcDbEntity
  8
0
100
AcDbPolyline
 90
        8
 70
     1
 43
0.0
 10
-470.8680377230982
 20
144.364862716983
 10
-458.8684877230981
 20
144.364862716983
 42
-0.4142135623730951
 10
-457.8684877230982
 20
143.364862716983
 10
-457.8684877230982
 20
131.365562716983
 42
-0.4142135623730951
 10
-458.8684877230981
 20
130.365562716983
 10
-470.8680377230982
 20
130.365562716983
 42
-0.4142135623730951
 10
-471.8680377230982
 20
131.365562716983
 10
-471.8680377230982
 20
143.364862716983
 42
-0.4142135623730951
  0
LWPOLYLINE
  5
207
330
1F
100
AcDbEntity
  8
0
100
AcDbPolyline
 90
        8
 70
     1
 43
0.0
 10
-567.1180377230981
 20
131.365562716983
 10
-567.1180377230983
 20
143.364862716983
 42
-0.4142135623730951
 10
-566.1180377230981
 20
144.364862716983
 10
-554.1184877230982
 20
144.364862716983
 42
-0.4142135623730951
 10
-553.1184877230982
 20
143.364862716983
 10
-553.1184877230982
 20
131.365562716983
 42
-0.4142135623730951
 10
-554.1184877230982
 20
130.365562716983
 10
-566.1180377230981
 20
130.365562716983
 42
-0.4142135623730951
  0
LWPOLYLINE
  5
208
330
1F
100
AcDbEntity
  8
0
100
AcDbPolyline
 90
        8
 70
     1
 43
0.0
 10
-439.8186877230982
 20
130.365562716983
 10
-451.8182377230981
 20
130.365562716983
 42
-0.4142135623730951
 10
-452.8182377230982
 20
131.365562716983
 10
-452.8182377230982
 20
143.364862716983
 42
-0.4142135623730951
 10
-451.8182377230981
 20
144.364862716983
 10
-439.8186877230982
 20
144.364862716983
 42
-0.4142135623730951
 10
-438.8186877230982
 20
143.364862716983
 10
-438.8186877230982
 20
131.365562716983
 42
-0.4142135623730951
  0
LWPOLYLINE
  5
209
330
1F
100
AcDbEntity
  8
0
100
AcDbPolyline
 90
        8
 70
     1
 43
0.0
 10
-677.9432877230981
 20
149.415562716983
 10
-689.9428377230981
 20
149.4155627169831
 42
-0.4142135623730951
 10
-690.9428377230981
 20
150.415562716983
 10
-690.9428377230981
 20
162.414862716984
 42
-0.4142135623730951
 10
-689.9428377230981
 20
163.4148627169841
 10
-677.9432877230981
 20
163.414862716984
 42
-0.4142135623730951
 10
-676.9432877230981
 20
162.414862716984
 10
-676.9432877230981
 20
150.415562716983
 42
-0.4142135623730951
  0
LWPOLYLINE
  5
210
330
1F
100
AcDbEntity
  8
0
100
AcDbPolyline
 90
        8
 70
     1
 43
0.0
 10
-613.7430627230981
 20
163.415562716983
 10
-601.7430627230981
 20
163.415562716983
 42
-0.4142135623730951
 10
-600.7430627230982
 20
162.415562716983
 10
-600.7430627230982
 20
150.415562716983
 42
-0.4142135623730951
 10
-601.7430627230981
 20
149.415562716983
 10
-613.7430627230981
 20
149.415562716983
 42
-0.4142135623730951
 10
-614.7430627230981
 20
150.415562716983
 10
-614.7430627230981
 20
162.415562716983
 42
-0.4142135623730951
  0
LWPOLYLINE
  5
211
330
1F
100
AcDbEntity
  8
0
100
AcDbPolyline
 90
        8
 70
     1
 43
0.0
 10
-701.7564877230982
 20
149.415562716983
 10
-713.7560377230982
 20
149.4155627169831
 42
-0.4142135623730951
 10
-714.7560377230981
 20
150.415562716983
 10
-714.7560377230981
 20
162.414862716984
 42
-0.4142135623730951
 10
-713.7560377230982
 20
163.4148627169841
 10
-701.7564877230982
 20
163.414862716984
 42
-0.4142135623730951
 10
-700.7564877230982
 20
162.414862716984
 10
-700.7564877230982
 20
150.415562716983
 42
-0.4142135623730951
  0
LWPOLYLINE
  5
212
330
1F
100
AcDbEntity
  8
0
100
AcDbPolyline
 90
        8
 70
     1
 43
0.0
 10
-513.7303199430983
 20
201.514885576984
 10
-501.7307699430982
 20
201.5148855769841
 42
-0.4142135623730951
 10
-500.7307699430982
 20
200.5148855769841
 10
-500.7307699430982
 20
188.515585576984
 42
-0.4142135623730951
 10
-501.7307699430982
 20
187.515585576984
 10
-513.7303199430983
 20
187.515585576984
 42
-0.4142135623730951
 10
-514.7303199430982
 20
188.515585576984
 10
-514.7303199430982
 20
200.5148855769841
 42
-0.4142135623730951
  0
LWPOLYLINE
  5
213
330
1F
100
AcDbEntity
  8
0
100
AcDbPolyline
 90
        8
 70
     1
 43
0.0
 10
-489.8250377230982
 20
206.565592716984
 10
-504.2055377230981
 20
206.565592716984
 42
-0.4142135623730951
 10
-505.2055377230982
 20
207.5655927169841
 10
-505.2055377230982
 20
219.564892716983
 42
-0.4142135623730951
 10
-504.2055377230981
 20
220.5648927169831
 10
-489.8250377230982
 20
220.5648927169831
 42
-0.4142135623730951
 10
-488.8250377230981
 20
219.564892716983
 10
-488.8250377230981
 20
207.5655927169841
 42
-0.4142135623730951
  0
LWPOLYLINE
  5
214
330
1F
100
AcDbEntity
  8
0
100
AcDbPolyline
 90
        8
 70
     1
 43
0.0
 10
-551.8305449430982
 20
201.515585576985
 10
-539.8305449430981
 20
201.515585576985
 42
-0.4142135623730951
 10
-538.8305449430982
 20
200.515585576985
 10
-538.8305449430982
 20
188.515585576984
 42
-0.4142135623730951
 10
-539.8305449430981
 20
187.515585576984
 10
-551.8305449430982
 20
187.515585576984
 42
-0.4142135623730951
 10
-552.8305449430981
 20
188.515585576984
 10
-552.8305449430981
 20
200.515585576985
 42
-0.4142135623730951
  0
LWPOLYLINE
  5
215
330
1F
100
AcDbEntity
  8
0
100
AcDbPolyline
 90
        8
 70
     1
 43
0.0
 10
-694.6124877230982
 20
168.465562716983
 10
-706.6120377230982
 20
168.4655627169831
 42
-0.4142135623730951
 10
-707.6120377230981
 20
169.465562716983
 10
-707.6120377230981
 20
181.464862716984
 42
-0.4142135623730951
 10
-706.6120377230982
 20
182.464862716984
 10
-694.6124877230982
 20
182.464862716984
 42
-0.4142135623730951
 10
-693.6124877230981
 20
181.464862716984
 10
-693.6124877230981
 20
169.465562716983
 42
-0.4142135623730951
  0
LWPOLYLINE
  5
216
330
1F
100
AcDbEntity
  8
0
100
AcDbPolyline
 90
        8
 70
     1
 43
0.0
 10
-658.8932877230981
 20
149.415562716983
 10
-670.8928377230981
 20
149.4155627169831
 42
-0.4142135623730951
 10
-671.8928377230981
 20
150.415562716983
 10
-671.8928377230981
 20
162.414862716984
 42
-0.4142135623730951
 10
-670.8928377230981
 20
163.4148627169841
 10
-658.8932877230981
 20
163.414862716984
 42
-0.4142135623730951
 10
-657.8932877230982
 20
162.414862716984
 10
-657.8932877230982
 20
150.415562716983
 42
-0.4142135623730951
  0
LWPOLYLINE
  5
217
330
1F
100
AcDbEntity
  8
0
100
AcDbPolyline
 90
        8
 70
     1
 43
0.0
 10
-533.7803199430981
 20
188.515585576984
 10
-533.7803199430981
 20
200.5148855769841
 42
-0.4142135623730951
 10
-532.7803199430981
 20
201.5148855769841
 10
-520.7807699430981
 20
201.5148855769841
 42
-0.4142135623730951
 10
-519.780769943098
 20
200.5148855769841
 10
-519.780769943098
 20
188.515585576984
 42
-0.4142135623730951
 10
-520.7807699430981
 20
187.515585576984
 10
-532.7803199430981
 20
187.515585576984
 42
-0.4142135623730951
  0
LWPOLYLINE
  5
218
330
1F
100
AcDbEntity
  8
0
100
AcDbPolyline
 90
        8
 70
     1
 43
0.0
 10
-557.880544943098
 20
200.515585576985
 10
-557.880544943098
 20
188.515585576984
 42
-0.4142135623730951
 10
-558.880544943098
 20
187.515585576984
 10
-570.8805449430981
 20
187.515585576984
 42
-0.4142135623730951
 10
-571.8805449430981
 20
188.515585576984
 10
-571.8805449430981
 20
200.515585576985
 42
-0.4142135623730951
 10
-570.8805449430981
 20
201.515585576985
 10
-558.880544943098
 20
201.515585576985
 42
-0.4142135623730951
  0
LWPOLYLINE
  5
219
330
1F
100
AcDbEntity
  8
0
100
AcDbPolyline
 90
       23
 70
     1
 43
0.0
 10
-621.160542007118
 20
215.097585978893
 10
-621.160521797838
 20
215.097585978893
 10
-621.160521797838
 20
219.125049060695
 42
-0.4142135623730951
 10
-620.660521797838
 20
219.625049060695
 10
-613.8605217978381
 20
219.625049060695
 42
-0.4142135623730951
 10
-613.3605217978381
 20
219.125049060695
 10
-613.3605217978381
 20
219.090834116983
 10
-613.3676417154381
 20
219.090834116983
 10
-613.3676417154381
 20
208.040792716983
 10
-613.3676720554782
 20
208.040792716983
 42
-0.365446646163136
 10
-613.8605217978381
 20
207.625049060695
 10
-615.4605217978382
 20
207.6250490606961
 42
0.4142135623725123
 10
-615.9605217978382
 20
207.125049060696
 10
-615.9605217978382
 20
206.1391442365831
 42
-0.4142135623725123
 10
-616.4605217978381
 20
205.639144236584
 10
-618.0605217978381
 20
205.6391442365841
 42
-0.4142135623725123
 10
-618.5605217978381
 20
206.1391442365831
 10
-618.5605217978381
 20
207.125049060696
 42
0.4142135623725123
 10
-619.0605217978381
 20
207.625049060695
 10
-620.660521797838
 20
207.625049060695
 42
-0.4142135623730951
 10
-621.160521797838
 20
208.125049060695
 10
-621.160521797838
 20
212.034040855073
 10
-621.160542007118
 20
212.034040855073
  0
LWPOLYLINE
  5
220
330
1F
100
AcDbEntity
  8
0
100
AcDbPolyline
 90
       16
 70
     1
 43
0.0
 10
-711.2641803830982
 20
183.004733041094
 10
-711.2641803830982
 20
182.018828216983
 42
0.4142135623730951
 10
-710.7641803830981
 20
181.518828216983
 10
-709.1641803830981
 20
181.518828216982
 42
-0.4142135623725123
 10
-708.6641803830981
 20
181.018828216983
 10
-708.6641803830981
 20
170.018828216983
 42
-0.4142135623736778
 10
-709.1641803830981
 20
169.518828216982
 10
-715.9641803830981
 20
169.518828216982
 42
-0.4142135623736778
 10
-716.464180383098
 20
170.018828216983
 10
-716.464180383098
 20
181.018828216983
 42
-0.4142135623725123
 10
-715.9641803830981
 20
181.5188282169821
 10
-714.3641803830981
 20
181.518828216983
 42
0.4142135623730951
 10
-713.8641803830982
 20
182.018828216983
 10
-713.8641803830982
 20
183.004733041094
 42
-0.4142135623730951
 10
-713.3641803830982
 20
183.504733041094
 10
-711.7641803830982
 20
183.504733041094
 42
-0.4142135623730951
  0
LWPOLYLINE
  5
221
330
1F
100
AcDbEntity
  8
0
100
AcDbPolyline
 90
        8
 70
     1
 43
0.0
 10
-675.655544943098
 20
182.4655855769841
 10
-663.6555449430979
 20
182.4655855769839
 42
-0.4142135623730951
 10
-662.6555449430981
 20
181.465585576984
 10
-662.6555449430981
 20
169.465585576983
 42
-0.4142135623730951
 10
-663.6555449430979
 20
168.465585576983
 10
-675.655544943098
 20
168.4655855769831
 42
-0.4142135623730951
 10
-676.6555449430979
 20
169.465585576983
 10
-676.6555449430982
 20
181.465585576984
 42
-0.4142135623730951
  0
LWPOLYLINE
  5
222
330
1F
100
AcDbEntity
  8
0
100
AcDbPolyline
 90
        8
 70
     1
 43
0.0
 10
-618.5055449430981
 20
182.4655855769841
 10
-606.5055449430981
 20
182.4655855769841
 42
-0.4142135623730951
 10
-605.5055449430981
 20
181.465585576984
 10
-605.5055449430981
 20
169.465585576983
 42
-0.4142135623730951
 10
-606.5055449430981
 20
168.465585576983
 10
-618.5055449430981
 20
168.465585576983
 42
-0.4142135623730951
 10
-619.5055449430981
 20
169.465585576983
 10
-619.5055449430981
 20
181.465585576984
 42
-0.4142135623730951
  0
LWPOLYLINE
  5
223
330
1F
100
AcDbEntity
  8
0
100
AcDbPolyline
 90
        8
 70
     1
 43
0.0
 10
-637.5555449430982
 20
182.4655855769841
 10
-625.5555449430982
 20
182.4655855769841
 42
-0.4142135623730951
 10
-624.5555449430981
 20
181.465585576984
 10
-624.5555449430981
 20
169.465585576983
 42
-0.4142135623730951
 10
-625.5555449430982
 20
168.465585576983
 10
-637.5555449430982
 20
168.465585576983
 42
-0.4142135623730951
 10
-638.5555449430982
 20
169.465585576983
 10
-638.5555449430982
 20
181.465585576984
 42
-0.4142135623730951
  0
LWPOLYLINE
  5
224
330
1F
100
AcDbEntity
  8
0
100
AcDbPolyline
 90
        8
 70
     1
 43
0.0
 10
-616.0305449430981
 20
187.515585576984
 10
-628.0305449430981
 20
187.515585576984
 42
-0.4142135623730951
 10
-629.0305449430981
 20
188.515585576984
 10
-629.0305449430981
 20
200.515585576985
 42
-0.4142135623730951
 10
-628.0305449430981
 20
201.515585576985
 10
-616.0305449430981
 20
201.515585576985
 42
-0.4142135623730951
 10
-615.030544943098
 20
200.515585576985
 10
-615.030544943098
 20
188.515585576984
 42
-0.4142135623730951
  0
LWPOLYLINE
  5
225
330
1F
100
AcDbEntity
  8
0
100
AcDbPolyline
 90
        8
 70
     1
 43
0.0
 10
-608.9805449430981
 20
201.515585576985
 10
-596.9805449430981
 20
201.515585576985
 42
-0.4142135623730951
 10
-595.9805449430981
 20
200.515585576985
 10
-595.9805449430981
 20
188.515585576984
 42
-0.4142135623730951
 10
-596.9805449430981
 20
187.515585576984
 10
-608.9805449430981
 20
187.515585576984
 42
-0.4142135623730951
 10
-609.9805449430981
 20
188.515585576984
 10
-609.9805449430981
 20
200.515585576985
 42
-0.4142135623730951
  0
LWPOLYLINE
  5
226
330
1F
100
AcDbEntity
  8
0
100
AcDbPolyline
 90
        8
 70
     1
 43
0.0
 10
-594.6930627230981
 20
163.415562716983
 10
-582.6930627230981
 20
163.415562716983
 42
-0.4142135623730951
 10
-581.6930627230981
 20
162.415562716983
 10
-581.6930627230981
 20
150.415562716983
 42
-0.4142135623730951
 10
-582.6930627230981
 20
149.415562716983
 10
-594.6930627230981
 20
149.415562716983
 42
-0.4142135623730951
 10
-595.6930627230981
 20
150.415562716983
 10
-595.6930627230981
 20
162.415562716983
 42
-0.4142135623730951
  0
LWPOLYLINE
  5
227
330
1F
100
AcDbEntity
  8
0
100
AcDbPolyline
 90
        8
 70
     1
 43
0.0
 10
-577.9305449430982
 20
187.515585576984
 10
-589.9305449430982
 20
187.515585576984
 42
-0.4142135623730951
 10
-590.9305449430984
 20
188.515585576984
 10
-590.9305449430984
 20
200.515585576985
 42
-0.4142135623730951
 10
-589.9305449430982
 20
201.515585576985
 10
-577.9305449430982
 20
201.515585576985
 42
-0.4142135623730951
 10
-576.9305449430982
 20
200.515585576985
 10
-576.9305449430982
 20
188.515585576984
 42
-0.4142135623730951
  0
LWPOLYLINE
  5
228
330
1F
100
AcDbEntity
  8
0
100
AcDbPolyline
 90
        8
 70
     1
 43
0.0
 10
-656.6055449430981
 20
182.4655855769841
 10
-644.6055449430981
 20
182.4655855769839
 42
-0.4142135623730951
 10
-643.6055449430981
 20
181.465585576984
 10
-643.6055449430981
 20
169.465585576983
 42
-0.4142135623730951
 10
-644.6055449430981
 20
168.465585576983
 10
-656.6055449430981
 20
168.4655855769831
 42
-0.4142135623730951
 10
-657.6055449430981
 20
169.465585576983
 10
-657.6055449430981
 20
181.465585576984
 42
-0.4142135623730951
  0
LWPOLYLINE
  5
229
330
1F
100
AcDbEntity
  8
0
100
AcDbPolyline
 90
        8
 70
     1
 43
0.0
 10
-624.2680377230981
 20
131.365562716983
 10
-624.2680377230981
 20
143.364862716983
 42
-0.4142135623730951
 10
-623.2680377230981
 20
144.364862716983
 10
-611.2684877230981
 20
144.364862716983
 42
-0.4142135623730951
 10
-610.2684877230981
 20
143.364862716983
 10
-610.2684877230981
 20
131.365562716983
 42
-0.4142135623730951
 10
-611.2684877230981
 20
130.365562716983
 10
-623.2680377230981
 20
130.365562716983
 42
-0.4142135623730951
  0
LWPOLYLINE
  5
230
330
1F
100
AcDbEntity
  8
0
100
AcDbPolyline
 90
        8
 70
     1
 43
0.0
 10
-481.393037723098
 20
207.5655927169841
 10
-481.393037723098
 20
219.564892716983
 42
-0.4142135623730951
 10
-480.393037723098
 20
220.5648927169831
 10
-466.0110377230981
 20
220.5648927169831
 42
-0.4142135623730951
 10
-465.011037723098
 20
219.564892716983
 10
-465.011037723098
 20
207.5655927169841
 42
-0.4142135623730951
 10
-466.0110377230981
 20
206.565592716984
 10
-480.393037723098
 20
206.565592716984
 42
-0.4142135623730951
  0
LWPOLYLINE
  5
231
330
1F
100
AcDbEntity
  8
0
100
AcDbPolyline
 90
        8
 70
     1
 43
0.0
 10
-642.3180377230981
 20
144.364862716983
 10
-630.3184877230981
 20
144.364862716983
 42
-0.4142135623730951
 10
-629.3184877230982
 20
143.364862716983
 10
-629.3184877230982
 20
131.365562716983
 42
-0.4142135623730951
 10
-630.3184877230981
 20
130.365562716983
 10
-642.3180377230981
 20
130.365562716983
 42
-0.4142135623730951
 10
-643.3180377230982
 20
131.365562716983
 10
-643.3180377230982
 20
143.364862716983
 42
-0.4142135623730951
  0
LWPOLYLINE
  5
232
330
1F
100
AcDbEntity
  8
0
100
AcDbPolyline
 90
       16
 70
     1
 43
0.0
 10
-468.376580383098
 20
201.068828216983
 42
0.4142135623736778
 10
-467.876580383098
 20
200.568828216982
 10
-466.2765803830982
 20
200.568828216983
 42
-0.4142135623736778
 10
-465.7765803830982
 20
200.0688282169821
 10
-465.7765803830982
 20
189.068828216982
 42
-0.4142135623725123
 10
-466.2765803830982
 20
188.568828216983
 10
-473.0765803830982
 20
188.568828216983
 42
-0.4142135623725123
 10
-473.5765803830981
 20
189.068828216982
 10
-473.5765803830982
 20
200.0688282169821
 42
-0.4142135623736778
 10
-473.0765803830982
 20
200.568828216983
 10
-471.4765803830982
 20
200.568828216983
 42
0.4142135623736778
 10
-470.9765803830982
 20
201.068828216983
 10
-470.9765803830982
 20
202.0547330410941
 42
-0.4142135623736778
 10
-470.4765803830982
 20
202.5547330410951
 10
-468.8765803830981
 20
202.5547330410951
 42
-0.4142135623736778
 10
-468.3765803830982
 20
202.0547330410941
  0
LWPOLYLINE
  5
233
330
1F
100
AcDbEntity
  8
0
100
AcDbPolyline
 90
        8
 70
     1
 43
0.0
 10
-648.3684877230981
 20
143.364862716983
 10
-648.3684877230984
 20
131.365562716983
 42
-0.4142135623730951
 10
-649.3684877230982
 20
130.365562716983
 10
-661.3680377230982
 20
130.365562716983
 42
-0.4142135623730951
 10
-662.3680377230981
 20
131.365562716983
 10
-662.3680377230981
 20
143.364862716983
 42
-0.4142135623730951
 10
-661.3680377230982
 20
144.364862716983
 10
-649.3684877230982
 20
144.3648627169831
 42
-0.4142135623730951
  0
LWPOLYLINE
  5
234
330
1F
100
AcDbEntity
  8
0
100
AcDbPolyline
 90
        8
 70
     1
 43
0.0
 10
-667.4184877230981
 20
143.364862716983
 10
-667.4184877230981
 20
131.365562716983
 42
-0.4142135623730951
 10
-668.418487723098
 20
130.365562716983
 10
-680.418037723098
 20
130.365562716983
 42
-0.4142135623730951
 10
-681.418037723098
 20
131.365562716983
 10
-681.418037723098
 20
143.364862716983
 42
-0.4142135623730951
 10
-680.418037723098
 20
144.364862716983
 10
-668.418487723098
 20
144.3648627169829
 42
-0.4142135623730951
  0
LWPOLYLINE
  5
235
330
1F
100
AcDbEntity
  8
0
100
AcDbPolyline
 90
        8
 70
     1
 43
0.0
 10
-457.580737723098
 20
207.5655927169841
 10
-457.580737723098
 20
219.564892716983
 42
-0.4142135623730951
 10
-456.5807377230981
 20
220.5648927169831
 10
-442.1999477230982
 20
220.5648927169831
 42
-0.4142135623730951
 10
-441.1999477230982
 20
219.564892716983
 10
-441.1999477230982
 20
207.5655927169841
 42
-0.4142135623730951
 10
-442.1999477230982
 20
206.565592716984
 10
-456.5807377230981
 20
206.565592716984
 42
-0.4142135623730951
  0
LWPOLYLINE
  5
236
330
1F
100
AcDbEntity
  8
0
100
AcDbPolyline
 90
       16
 70
     1
 43
0.0
 10
-447.576580383098
 20
200.568828216982
 42
0.4142135623736778
 10
-447.0765803830982
 20
201.068828216983
 10
-447.0765803830982
 20
202.0547330410941
 42
-0.4142135623736778
 10
-446.576580383098
 20
202.5547330410951
 10
-444.9765803830982
 20
202.5547330410951
 42
-0.4142135623736778
 10
-444.4765803830982
 20
202.0547330410941
 10
-444.4765803830982
 20
201.068828216983
 42
0.4142135623736778
 10
-443.9765803830982
 20
200.568828216982
 10
-442.376580383098
 20
200.568828216983
 42
-0.4142135623736778
 10
-441.8765803830981
 20
200.0688282169821
 10
-441.8765803830981
 20
189.068828216982
 42
-0.4142135623725123
 10
-442.376580383098
 20
188.568828216983
 10
-449.1765803830982
 20
188.568828216983
 42
-0.4142135623725123
 10
-449.6765803830982
 20
189.068828216982
 10
-449.6765803830982
 20
200.0688282169821
 42
-0.4142135623736778
 10
-449.1765803830982
 20
200.568828216983
  0
LWPOLYLINE
  5
237
330
1F
100
AcDbEntity
  8
0
100
AcDbPolyline
 90
       20
 70
     1
 43
0.0
 10
-686.4684877230981
 20
143.364862716983
 10
-686.4684877230981
 20
131.365562716983
 42
-0.4142135623730951
 10
-687.4684877230982
 20
130.365562716983
 10
-718.5180377230981
 20
130.365562716983
 42
-0.4142135623730951
 10
-719.518037723098
 20
131.365562716983
 10
-719.518037723098
 20
143.364862716983
 42
-0.4142135623730951
 10
-718.5180377230981
 20
144.364862716983
 10
-716.1441803830982
 20
144.364862716983
 10
-716.1441803830982
 20
144.904733041095
 42
-0.4142135623730951
 10
-715.6441803830981
 20
145.404733041095
 10
-714.0441803830981
 20
145.404733041095
 42
-0.4142135623736778
 10
-713.5441803830981
 20
144.904733041094
 10
-713.544180383098
 20
144.364862716983
 10
-692.3451803830982
 20
144.364862716983
 10
-692.3451803830982
 20
144.904733041094
 42
-0.4142135623736778
 10
-691.8451803830982
 20
145.404733041095
 10
-690.2451803830981
 20
145.404733041095
 42
-0.4142135623736778
 10
-689.7451803830981
 20
144.904733041094
 10
-689.7451803830981
 20
144.364862716983
 10
-687.4684877230982
 20
144.3648627169831
 42
-0.4142135623730951
  0
LWPOLYLINE
  5
238
330
1F
100
AcDbEntity
  8
0
100
AcDbPolyline
 90
        8
 70
     1
 43
0.0
 10
-494.6805199430982
 20
201.514885576984
 10
-482.6809699430982
 20
201.5148855769841
 42
-0.4142135623730951
 10
-481.6809699430982
 20
200.5148855769841
 10
-481.6809699430982
 20
188.515585576984
 42
-0.4142135623730951
 10
-482.6809699430982
 20
187.515585576984
 10
-494.6805199430982
 20
187.515585576984
 42
-0.4142135623730951
 10
-495.6805199430982
 20
188.515585576984
 10
-495.6805199430982
 20
200.5148855769841
 42
-0.4142135623730951
  0
LWPOLYLINE
  5
239
330
1F
100
AcDbEntity
  8
0
100
AcDbPolyline
 90
        8
 70
     1
 43
0.0
 10
-605.2180377230982
 20
131.365562716983
 10
-605.2180377230982
 20
143.364862716983
 42
-0.4142135623730951
 10
-604.2180377230981
 20
144.364862716983
 10
-592.2184877230981
 20
144.364862716983
 42
-0.4142135623730951
 10
-591.2184877230981
 20
143.364862716983
 10
-591.2184877230981
 20
131.365562716983
 42
-0.4142135623730951
 10
-592.2184877230981
 20
130.365562716983
 10
-604.2180377230981
 20
130.365562716983
 42
-0.4142135623730951
  0
LWPOLYLINE
  5
240
330
1F
100
AcDbEntity
  8
0
100
AcDbPolyline
 90
       16
 70
     1
 43
0.0
 10
-687.3641803830982
 20
183.004733041094
 10
-687.3641803830982
 20
182.018828216983
 42
0.4142135623730951
 10
-686.8641803830982
 20
181.518828216983
 10
-685.2641803830981
 20
181.518828216982
 42
-0.4142135623725123
 10
-684.7641803830981
 20
181.018828216983
 10
-684.7641803830981
 20
170.018828216983
 42
-0.4142135623736778
 10
-685.2641803830981
 20
169.518828216982
 10
-692.0641803830981
 20
169.518828216982
 42
-0.4142135623736778
 10
-692.564180383098
 20
170.018828216983
 10
-692.564180383098
 20
181.018828216983
 42
-0.4142135623725123
 10
-692.0641803830981
 20
181.5188282169821
 10
-690.4641803830981
 20
181.518828216983
 42
0.4142135623730951
 10
-689.9641803830981
 20
182.018828216983
 10
-689.964180383098
 20
183.004733041094
 42
-0.4142135623730951
 10
-689.4641803830979
 20
183.504733041094
 10
-687.8641803830982
 20
183.5047330410941
 42
-0.4142135623730951
  0
LWPOLYLINE
  5
241
330
1F
100
AcDbEntity
  8
0
100
AcDbPolyline
 90
        8
 70
     1
 43
0.0
 10
-462.5112969409182
 20
181.964862716982
 42
0.4142135623730951
 10
-463.0112969409182
 20
182.464862716982
 10
-464.4546796353582
 20
182.464862716982
 42
0.4142135623730951
 10
-464.9546796353582
 20
181.964862716982
 10
-464.9546796353582
 20
168.965562716984
 42
0.4142135623730951
 10
-464.4546796353582
 20
168.465562716984
 10
-463.0112969409182
 20
168.465562716984
 42
0.4142135623730951
 10
-462.5112969409181
 20
168.965562716984
  0
LWPOLYLINE
  5
242
330
1F
100
AcDbEntity
  8
0
100
AcDbPolyline
 90
        8
 70
     1
 43
0.0
 10
-719.748779635358
 20
149.915562716984
 10
-719.748779635358
 20
162.914862716983
 42
-0.4142135623725123
 10
-719.248779635358
 20
163.414862716982
 10
-717.8053969409181
 20
163.414862716982
 42
-0.4142135623725123
 10
-717.3053969409181
 20
162.914862716983
 10
-717.3053969409181
 20
149.915562716984
 42
-0.4142135623736778
 10
-717.8053969409181
 20
149.415562716983
 10
-719.248779635358
 20
149.415562716983
 42
-0.4142135623736778
  0
LWPOLYLINE
  5
243
330
1F
100
AcDbEntity
  8
0
100
AcDbPolyline
 90
        8
 70
     1
 43
0.0
 10
-438.5884458108383
 20
162.914862716983
 42
0.4142135623725123
 10
-439.0884458108383
 20
163.414862716982
 10
-440.5318285052782
 20
163.414862716982
 42
0.4142135623725123
 10
-441.0318285052781
 20
162.914862716983
 10
-441.0318285052781
 20
149.915562716983
 42
0.4142135623730951
 10
-440.5318285052782
 20
149.415562716982
 10
-439.0884458108383
 20
149.415562716983
 42
0.4142135623730951
 10
-438.5884458108381
 20
149.915562716983
  0
ENDSEC
  0
SECTION
  2
OBJECTS
  0
DICTIONARY
  5
C
330
0
100
AcDbDictionary
281
     1
  3
ACAD_BACKGROUND
350
1005B
  3
ACAD_CIP_PREVIOUS_PRODUCT_INFO
350
1005A
  3
ACAD_COLOR
350
10036
  3
ACAD_DETAILVIEWSTYLE
350
10051
  3
ACAD_GROUP
350
D
  3
ACAD_LAYOUT
350
10037
  3
ACAD_MATERIAL
350
10004
  3
ACAD_MLEADERSTYLE
350
1004D
  3
ACAD_MLINESTYLE
350
17
  3
ACAD_PLOTSETTINGS
350
10054
  3
ACAD_PLOTSTYLENAME
350
10002
  3
ACAD_SCALELIST
350
1003B
  3
ACAD_SECTIONVIEWSTYLE
350
1004F
  3
ACAD_TABLESTYLE
350
10038
  3
ACAD_VISUALSTYLE
350
1001D
  3
ACDB_RECOMPOSE_DATA
350
10074
  3
AcDbVariableDictionary
350
10068
  0
DICTIONARY
  5
10066
330
50
100
AcDbDictionary
280
     1
281
     1
  3
ADSK_XREC_LAYER_RECONCILED
360
10067
  0
DICTIONARY
  5
1005B
102
{ACAD_REACTORS
330
C
102
}
330
C
100
AcDbDictionary
281
     1
  0
XRECORD
  5
1005A
102
{ACAD_REACTORS
330
C
102
}
330
C
100
AcDbXrecord
280
     1
300
ACD
300
2022
300

  0
DICTIONARY
  5
10036
102
{ACAD_REACTORS
330
C
102
}
330
C
100
AcDbDictionary
281
     1
  0
DICTIONARY
  5
10051
102
{ACAD_REACTORS
330
C
102
}
330
C
100
AcDbDictionary
281
     1
  3
Imperial24
350
10052
  0
DICTIONARY
  5
D
330
C
100
AcDbDictionary
281
     1
  0
DICTIONARY
  5
10037
102
{ACAD_REACTORS
330
C
102
}
330
C
100
AcDbDictionary
281
     1
  3
Layout1
350
10056
  3
Model
350
10055
  0
DICTIONARY
  5
10004
102
{ACAD_REACTORS
330
C
102
}
330
C
100
AcDbDictionary
281
     1
  3
ByBlock
350
1000D
  3
ByLayer
350
10005
  3
Global
350
10015
  0
DICTIONARY
  5
1004D
102
{ACAD_REACTORS
330
C
102
}
330
C
100
AcDbDictionary
281
     1
  3
Standard
350
1004E
  0
DICTIONARY
  5
17
330
C
100
AcDbDictionary
281
     1
  3
Standard
350
1003A
  0
DICTIONARY
  5
10054
102
{ACAD_REACTORS
330
C
102
}
330
C
100
AcDbDictionary
281
     1
  0
ACDBDICTIONARYWDFLT
  5
10002
102
{ACAD_REACTORS
330
C
102
}
330
C
100
AcDbDictionary
281
     1
  3
Normal
350
10003
100
AcDbDictionaryWithDefault
340
10003
  0
DICTIONARY
  5
1003B
102
{ACAD_REACTORS
330
C
102
}
330
C
100
AcDbDictionary
281
     1
  3
A0
350
1003C
  3
A1
350
1003D
  3
A2
350
1003E
  3
A3
350
1003F
  3
A4
350
10040
  3
A5
350
10041
  3
A6
350
10042
  3
A7
350
10043
  3
A8
350
10044
  3
A9
350
10045
  3
B0
350
10046
  3
B1
350
10047
  3
B2
350
10048
  3
B3
350
10049
  3
B4
350
1004A
  3
B5
350
1004B
  3
B6
350
1004C
  0
DICTIONARY
  5
1004F
102
{ACAD_REACTORS
330
C
102
}
330
C
100
AcDbDictionary
281
     1
  3
Imperial24
350
10050
  0
DICTIONARY
  5
10038
102
{ACAD_REACTORS
330
C
102
}
330
C
100
AcDbDictionary
281
     1
  3
Standard
350
10039
  0
DICTIONARY
  5
1001D
102
{ACAD_REACTORS
330
C
102
}
330
C
100
AcDbDictionary
281
     1
  3
2dWireframe
350
10023
  3
Basic
350
10022
  3
Brighten
350
10029
  3
ColorChange
350
1002D
  3
Conceptual
350
10026
  3
Dim
350
10028
  3
EdgeColorOff
350
10035
  3
Facepattern
350
1002C
  3
Flat
350
1001E
  3
FlatWithEdges
350
1001F
  3
Gouraud
350
10020
  3
GouraudWithEdges
350
10021
  3
Hidden
350
10025
  3
JitterOff
350
10033
  3
Linepattern
350
1002B
  3
OverhangOff
350
10034
  3
Realistic
350
10027
  3
Shaded
350
10032
  3
Shaded with edges
350
10031
  3
Shades of Gray
350
1002E
  3
Sketchy
350
1002F
  3
Thicken
350
1002A
  3
Wireframe
350
10024
  3
X-Ray
350
10030
  0
XRECORD
  5
10074
102
{ACAD_REACTORS
330
C
102
}
330
C
100
AcDbXrecord
280
     1
 90
        1
330
10039
  0
DICTIONARY
  5
10068
102
{ACAD_REACTORS
330
C
102
}
330
C
100
AcDbDictionary
281
     1
  3
CANNOSCALE
350
1006E
  3
CMLEADERSTYLE
350
1006A
  3
CTABLESTYLE
350
10069
  3
CVIEWDETAILSTYLE
350
1006B
  3
CVIEWSECTIONSTYLE
350
1006C
  3
LAYEREVAL
350
10070
  3
LAYERNOTIFY
350
10071
  3
LIGHTINGUNITS
350
1006F
  3
MSLTSCALE
350
1006D
  0
XRECORD
  5
10067
102
{ACAD_REACTORS
330
10066
102
}
330
10066
100
AcDbXrecord
280
     1
290
     1
  0
ACDBDETAILVIEWSTYLE
  5
10052
102
{ACAD_XDICTIONARY
360
10077
102
}
102
{ACAD_REACTORS
330
10051
102
}
330
10051
100
AcDbModelDocViewStyle
 70
     0
  3
Imperial24
290
     0
100
AcDbDetailViewStyle
 70
     0
 71
     0
 90
        3
 71
     1
340
11
 62
   256
 40
0.24
340
0
 62
   256
 40
0.24
300

 40
0.36
280
     3
 71
     2
340
0
 90
       25
 62
   256
 71
     3
340
11
 62
   256
 40
0.24
 90
        1
 40
0.75
 90
        1
300
%<\AcVar ViewType \f "%tc1">% %<\AcVar ViewDetailId>%\PSCALE %<\AcVar ViewScale \f "%sn">%
 71
     4
340
0
 90
       25
 62
   256
340
0
 90
       25
 62
   256
280
     0
  0
LAYOUT
  5
10056
102
{ACAD_REACTORS
330
10037
102
}
330
10037
100
AcDbPlotSettings
  1

  2
Canon iP110 series WS
  4

  6

 40
0.0
 41
0.0
 42
0.0
 43
0.0
 44
0.0
 45
0.0
 46
0.0
 47
0.0
 48
0.0
 49
0.0
140
0.0
141
0.0
142
1.0
143
1.0
 70
   688
 72
     0
 73
     0
 74
     5
  7

 75
    16
147
1.0
 76
     0
 77
     2
 78
   300
148
0.0
149
0.0
100
AcDbLayout
  1
Layout1
 70
     1
 71
     1
 10
0.0
 20
0.0
 11
12.0
 21
9.0
 12
0.0
 22
0.0
 32
0.0
 14
1.000000000000000E+20
 24
1.000000000000000E+20
 34
1.000000000000000E+20
 15
-1.000000000000000E+20
 25
-1.000000000000000E+20
 35
-1.000000000000000E+20
146
0.0
 13
0.0
 23
0.0
 33
0.0
 16
1.0
 26
0.0
 36
0.0
 17
0.0
 27
1.0
 37
0.0
 76
     0
330
1B
  0
LAYOUT
  5
10055
102
{ACAD_REACTORS
330
10037
102
}
330
10037
100
AcDbPlotSettings
  1

  2
Canon iP110 series WS
  4

  6

 40
0.0
 41
0.0
 42
0.0
 43
0.0
 44
0.0
 45
0.0
 46
0.0
 47
0.0
 48
0.0
 49
0.0
140
0.0
141
0.0
142
1.0
143
1.0
 70
  1712
 72
     0
 73
     0
 74
     0
  7

 75
     0
147
1.0
 76
     0
 77
     2
 78
   300
148
0.0
149
0.0
100
AcDbLayout
  1
Model
 70
     1
 71
     0
 10
0.0
 20
0.0
 11
12.0
 21
9.0
 12
0.0
 22
0.0
 32
0.0
 14
0.0
 24
0.0
 34
0.0
 15
0.0
 25
0.0
 35
0.0
146
0.0
 13
0.0
 23
0.0
 33
0.0
 16
1.0
 26
0.0
 36
0.0
 17
0.0
 27
1.0
 37
0.0
 76
     0
330
1F
331
10059
  0
MATERIAL
  5
1000D
102
{ACAD_XDICTIONARY
360
1000E
102
}
102
{ACAD_REACTORS
330
10004
102
}
330
10004
100
AcDbMaterial
  1
ByBlock
 72
     0
 43
0.0008202099737533
 43
0.0
 43
0.0
 43
0.0
 43
0.0
 43
0.0008202099737533
 43
0.0
 43
0.0
 43
0.0
 43
0.0
 43
1.0
 43
0.0
 43
0.0
 43
0.0
 43
0.0
 43
1.0
 77
     0
 47
0.0008202099737533
 47
0.0
 47
0.0
 47
0.0
 47
0.0
 47
0.0008202099737533
 47
0.0
 47
0.0
 47
0.0
 47
0.0
 47
1.0
 47
0.0
 47
0.0
 47
0.0
 47
0.0
 47
1.0
171
     0
 49
0.0008202099737533
 49
0.0
 49
0.0
 49
0.0
 49
0.0
 49
0.0008202099737533
 49
0.0
 49
0.0
 49
0.0
 49
0.0
 49
1.0
 49
0.0
 49
0.0
 49
0.0
 49
0.0
 49
1.0
175
     0
142
0.0008202099737533
142
0.0
142
0.0
142
0.0
142
0.0
142
0.0008202099737533
142
0.0
142
0.0
142
0.0
142
0.0
142
1.0
142
0.0
142
0.0
142
0.0
142
0.0
142
1.0
179
     0
144
0.0008202099737533
144
0.0
144
0.0
144
0.0
144
0.0
144
0.0008202099737533
144
0.0
144
0.0
144
0.0
144
0.0
144
1.0
144
0.0
144
0.0
144
0.0
144
0.0
144
1.0
147
0.0008202099737533
147
0.0
147
0.0
147
0.0
147
0.0
147
0.0008202099737533
147
0.0
147
0.0
147
0.0
147
0.0
147
1.0
147
0.0
147
0.0
147
0.0
147
0.0
147
1.0
  0
MATERIAL
  5
10005
102
{ACAD_XDICTIONARY
360
10006
102
}
102
{ACAD_REACTORS
330
10004
102
}
330
10004
100
AcDbMaterial
  1
ByLayer
 72
     0
 43
0.0008202099737533
 43
0.0
 43
0.0
 43
0.0
 43
0.0
 43
0.0008202099737533
 43
0.0
 43
0.0
 43
0.0
 43
0.0
 43
1.0
 43
0.0
 43
0.0
 43
0.0
 43
0.0
 43
1.0
 77
     0
 47
0.0008202099737533
 47
0.0
 47
0.0
 47
0.0
 47
0.0
 47
0.0008202099737533
 47
0.0
 47
0.0
 47
0.0
 47
0.0
 47
1.0
 47
0.0
 47
0.0
 47
0.0
 47
0.0
 47
1.0
171
     0
 49
0.0008202099737533
 49
0.0
 49
0.0
 49
0.0
 49
0.0
 49
0.0008202099737533
 49
0.0
 49
0.0
 49
0.0
 49
0.0
 49
1.0
 49
0.0
 49
0.0
 49
0.0
 49
0.0
 49
1.0
175
     0
142
0.0008202099737533
142
0.0
142
0.0
142
0.0
142
0.0
142
0.0008202099737533
142
0.0
142
0.0
142
0.0
142
0.0
142
1.0
142
0.0
142
0.0
142
0.0
142
0.0
142
1.0
179
     0
144
0.0008202099737533
144
0.0
144
0.0
144
0.0
144
0.0
144
0.0008202099737533
144
0.0
144
0.0
144
0.0
144
0.0
144
1.0
144
0.0
144
0.0
144
0.0
144
0.0
144
1.0
147
0.0008202099737533
147
0.0
147
0.0
147
0.0
147
0.0
147
0.0008202099737533
147
0.0
147
0.0
147
0.0
147
0.0
147
1.0
147
0.0
147
0.0
147
0.0
147
0.0
147
1.0
  0
MATERIAL
  5
10015
102
{ACAD_XDICTIONARY
360
10016
102
}
102
{ACAD_REACTORS
330
10004
102
}
330
10004
100
AcDbMaterial
  1
Global
 72
     0
 43
0.0008202099737533
 43
0.0
 43
0.0
 43
0.0
 43
0.0
 43
0.0008202099737533
 43
0.0
 43
0.0
 43
0.0
 43
0.0
 43
1.0
 43
0.0
 43
0.0
 43
0.0
 43
0.0
 43
1.0
 77
     0
 47
0.0008202099737533
 47
0.0
 47
0.0
 47
0.0
 47
0.0
 47
0.0008202099737533
 47
0.0
 47
0.0
 47
0.0
 47
0.0
 47
1.0
 47
0.0
 47
0.0
 47
0.0
 47
0.0
 47
1.0
171
     0
 49
0.0008202099737533
 49
0.0
 49
0.0
 49
0.0
 49
0.0
 49
0.0008202099737533
 49
0.0
 49
0.0
 49
0.0
 49
0.0
 49
1.0
 49
0.0
 49
0.0
 49
0.0
 49
0.0
 49
1.0
175
     0
142
0.0008202099737533
142
0.0
142
0.0
142
0.0
142
0.0
142
0.0008202099737533
142
0.0
142
0.0
142
0.0
142
0.0
142
1.0
142
0.0
142
0.0
142
0.0
142
0.0
142
1.0
179
     0
144
0.0008202099737533
144
0.0
144
0.0
144
0.0
144
0.0
144
0.0008202099737533
144
0.0
144
0.0
144
0.0
144
0.0
144
1.0
144
0.0
144
0.0
144
0.0
144
0.0
144
1.0
147
0.0008202099737533
147
0.0
147
0.0
147
0.0
147
0.0
147
0.0008202099737533
147
0.0
147
0.0
147
0.0
147
0.0
147
1.0
147
0.0
147
0.0
147
0.0
147
0.0
147
1.0
  0
MLEADERSTYLE
  5
1004E
102
{ACAD_REACTORS
330
1004D
102
}
330
1004D
100
AcDbMLeaderStyle
179
     2
170
     2
171
     1
172
     0
 90
        2
 40
0.0
 41
0.0
173
     1
 91
-1056964608
340
14
 92
       -2
290
     1
 42
0.09
291
     1
 43
0.36
  3
Standard
 44
0.18
300

342
11
174
     1
178
     6
175
     1
176
     0
 93
-1056964608
 45
0.18
292
     0
297
     0
 46
0.18
 94
-1056964608
 47
1.0
 49
1.0
140
1.0
293
     1
141
0.0
294
     1
177
     0
142
1.0
295
     0
296
     0
143
0.125
271
     0
272
     9
273
     9
298
     0
  0
MLINESTYLE
  5
1003A
102
{ACAD_REACTORS
330
17
102
}
330
17
100
AcDbMlineStyle
  2
STANDARD
 70
     0
  3

 62
   256
 51
90.0
 52
90.0
 71
     2
 49
0.5
 62
   256
  6
BYLAYER
 49
-0.5
 62
   256
  6
BYLAYER
  0
ACDBPLACEHOLDER
  5
10003
102
{ACAD_REACTORS
330
10002
102
}
330
10002
  0
SCALE
  5
1003C
102
{ACAD_REACTORS
330
1003B
102
}
330
1003B
100
AcDbScale
 70
     0
300
1:1
140
1.0
141
1.0
290
     1
  0
SCALE
  5
1003D
102
{ACAD_REACTORS
330
1003B
102
}
330
1003B
100
AcDbScale
 70
     0
300
1/128" = 1'-0"
140
0.0078125
141
12.0
290
     0
  0
SCALE
  5
1003E
102
{ACAD_REACTORS
330
1003B
102
}
330
1003B
100
AcDbScale
 70
     0
300
1/64" = 1'-0"
140
0.015625
141
12.0
290
     0
  0
SCALE
  5
1003F
102
{ACAD_REACTORS
330
1003B
102
}
330
1003B
100
AcDbScale
 70
     0
300
1/32" = 1'-0"
140
0.03125
141
12.0
290
     0
  0
SCALE
  5
10040
102
{ACAD_REACTORS
330
1003B
102
}
330
1003B
100
AcDbScale
 70
     0
300
1/16" = 1'-0"
140
0.0625
141
12.0
290
     0
  0
SCALE
  5
10041
102
{ACAD_REACTORS
330
1003B
102
}
330
1003B
100
AcDbScale
 70
     0
300
3/32" = 1'-0"
140
0.09375
141
12.0
290
     0
  0
SCALE
  5
10042
102
{ACAD_REACTORS
330
1003B
102
}
330
1003B
100
AcDbScale
 70
     0
300
1/8" = 1'-0"
140
0.125
141
12.0
290
     0
  0
SCALE
  5
10043
102
{ACAD_REACTORS
330
1003B
102
}
330
1003B
100
AcDbScale
 70
     0
300
3/16" = 1'-0"
140
0.1875
141
12.0
290
     0
  0
SCALE
  5
10044
102
{ACAD_REACTORS
330
1003B
102
}
330
1003B
100
AcDbScale
 70
     0
300
1/4" = 1'-0"
140
0.25
141
12.0
290
     0
  0
SCALE
  5
10045
102
{ACAD_REACTORS
330
1003B
102
}
330
1003B
100
AcDbScale
 70
     0
300
3/8" = 1'-0"
140
0.375
141
12.0
290
     0
  0
SCALE
  5
10046
102
{ACAD_REACTORS
330
1003B
102
}
330
1003B
100
AcDbScale
 70
     0
300
1/2" = 1'-0"
140
0.5
141
12.0
290
     0
  0
SCALE
  5
10047
102
{ACAD_REACTORS
330
1003B
102
}
330
1003B
100
AcDbScale
 70
     0
300
3/4" = 1'-0"
140
0.75
141
12.0
290
     0
  0
SCALE
  5
10048
102
{ACAD_REACTORS
330
1003B
102
}
330
1003B
100
AcDbScale
 70
     0
300
1" = 1'-0"
140
1.0
141
12.0
290
     0
  0
SCALE
  5
10049
102
{ACAD_REACTORS
330
1003B
102
}
330
1003B
100
AcDbScale
 70
     0
300
1-1/2" = 1'-0"
140
1.5
141
12.0
290
     0
  0
SCALE
  5
1004A
102
{ACAD_REACTORS
330
1003B
102
}
330
1003B
100
AcDbScale
 70
     0
300
3" = 1'-0"
140
3.0
141
12.0
290
     0
  0
SCALE
  5
1004B
102
{ACAD_REACTORS
330
1003B
102
}
330
1003B
100
AcDbScale
 70
     0
300
6" = 1'-0"
140
6.0
141
12.0
290
     0
  0
SCALE
  5
1004C
102
{ACAD_REACTORS
330
1003B
102
}
330
1003B
100
AcDbScale
 70
     0
300
1'-0" = 1'-0"
140
12.0
141
12.0
290
     0
  0
ACDBSECTIONVIEWSTYLE
  5
10050
102
{ACAD_XDICTIONARY
360
10075
102
}
102
{ACAD_REACTORS
330
1004F
102
}
330
1004F
100
AcDbModelDocViewStyle
 70
     0
  3
Imperial24
290
     0
100
AcDbSectionViewStyle
 70
     0
 71
     0
 90
       78
 71
     1
340
11
 62
   256
 40
0.24
340
0
340
0
 62
   256
 40
0.24
300
I, O, Q, S, X, Z
 40
0.48
 90
        3
 40
0.18
 90
        1
 71
     2
340
0
 90
       25
 62
   256
340
0
 90
       50
 62
   256
 40
0.24
 40
0.0
 40
0.24
 71
     3
340
11
 62
   256
 40
0.24
 90
        1
 40
0.75
 90
        1
300
%<\AcVar ViewType \f "%tc1">% %<\AcVar ViewSectionStartId>%-%<\AcVar ViewSectionEndId>%\PSCALE %<\AcVar ViewScale \f "%sn">%
 71
     4
 62
   256
 62
   257
300
ANSI31
 40
1.0
 90
        0
290
     0
290
     0
 90
        6
 40
0.0
 40
1.570796326794896
 40
0.2617993877991494
 40
1.308996938995747
 40
-0.2617993877991494
 40
1.832595714594046
  0
TABLESTYLE
  5
10039
102
{ACAD_XDICTIONARY
360
10072
102
}
102
{ACAD_REACTORS
330
10038
102
}
330
10038
100
AcDbTableStyle
280
     0
  3
Standard
 70
     0
 71
     0
 40
0.06
 41
0.06
280
     0
281
     0
  7
STANDARD
140
0.18
170
     2
 62
     0
 63
     7
283
     0
 90
      512
 91
        0
  1

274
    -2
284
     1
 64
     0
275
    -2
285
     1
 65
     0
276
    -2
286
     1
 66
     0
277
    -2
287
     1
 67
     0
278
    -2
288
     1
 68
     0
279
    -2
289
     1
 69
     0
  7
STANDARD
140
0.25
170
     5
 62
     0
 63
     7
283
     0
 90
      512
 91
        0
  1

274
    -2
284
     1
 64
     0
275
    -2
285
     1
 65
     0
276
    -2
286
     1
 66
     0
277
    -2
287
     1
 67
     0
278
    -2
288
     1
 68
     0
279
    -2
289
     1
 69
     0
  7
STANDARD
140
0.18
170
     5
 62
     0
 63
     7
283
     0
 90
      512
 91
        0
  1

274
    -2
284
     1
 64
     0
275
    -2
285
     1
 65
     0
276
    -2
286
     1
 66
     0
277
    -2
287
     1
 67
     0
278
    -2
288
     1
 68
     0
279
    -2
289
     1
 69
     0
  0
VISUALSTYLE
  5
10023
102
{ACAD_REACTORS
330
1001D
102
}
330
1001D
100
AcDbVisualStyle
  2
2dWireframe
 70
     4
177
     3
291
     0
 70
    58
 90
        0
176
     1
 90
        2
176
     1
 90
        0
176
     1
 90
        0
176
     1
 40
0.6
176
     1
 40
30.0
176
     1
 62
     7
420
 16777215
176
     1
 90
        1
176
     1
 90
        4
176
     1
 62
     7
176
     1
 62
   257
176
     1
 90
        1
176
     1
 90
        1
176
     1
 40
1.0
176
     1
 90
        0
176
     1
 62
   257
176
     1
 40
1.0
176
     1
 90
        1
176
     1
 90
        6
176
     1
 90
        2
176
     1
 62
     7
176
     1
 90
        5
176
     1
 90
        0
176
     1
 90
        0
176
     1
290
     0
176
     1
 90
        1
176
     1
 40
0.0
176
     1
 90
        0
176
     1
290
     1
176
     1
290
     1
176
     1
290
     0
176
     1
290
     0
176
     1
290
     0
176
     1
290
     0
176
     1
290
     0
176
     1
290
     0
176
     1
290
     0
176
     1
 90
       50
176
     1
 40
0.0
176
     1
 40
1.0
176
     1
 90
        0
176
     1
 62
    18
420
        0
176
     1
 90
       50
176
     1
 90
        3
176
     1
 62
     5
420
      255
176
     1
290
     0
176
     1
 90
       50
176
     1
 90
       50
176
     1
 90
       50
176
     1
290
     0
176
     1
 90
       50
176
     1
 62
   256
176
     0
 40
1.0
176
     0
 90
        2
176
     1
  1
strokes_ogs.tif
176
     1
290
     0
176
     1
 40
1.0
176
     1
 40
1.0
176
     1
1001
ACAD
1000
AcDbSavedByObjectVersion
1070
     0
  0
VISUALSTYLE
  5
10022
102
{ACAD_REACTORS
330
1001D
102
}
330
1001D
100
AcDbVisualStyle
  2
Basic
 70
     7
177
     3
291
     1
 70
    58
 90
        1
176
     1
 90
        0
176
     1
 90
        1
176
     1
 90
        0
176
     1
 40
0.6
176
     1
 40
30.0
176
     1
 62
     7
420
 16777215
176
     1
 90
        0
176
     1
 90
        4
176
     1
 62
     7
176
     1
 62
   257
176
     1
 90
        1
176
     1
 90
        1
176
     1
 40
1.0
176
     1
 90
        8
176
     1
 62
     7
176
     1
 40
1.0
176
     1
 90
        1
176
     1
 90
        6
176
     1
 90
        2
176
     1
 62
     7
176
     1
 90
        5
176
     1
 90
        0
176
     1
 90
        0
176
     1
290
     0
176
     1
 90
        1
176
     1
 40
0.0
176
     1
 90
        0
176
     1
290
     0
176
     1
290
     1
176
     1
290
     1
176
     1
290
     0
176
     1
290
     0
176
     1
290
     0
176
     1
290
     0
176
     1
290
     0
176
     1
290
     0
176
     1
 90
       50
176
     1
 40
0.0
176
     1
 40
1.0
176
     1
 90
        0
176
     1
 62
    18
420
        0
176
     1
 90
       50
176
     1
 90
        3
176
     1
 62
     5
420
      255
176
     1
290
     0
176
     1
 90
       50
176
     1
 90
       50
176
     1
 90
       50
176
     1
290
     0
176
     1
 90
       50
176
     1
 62
   256
176
     0
 40
1.0
176
     0
 90
        2
176
     1
  1
strokes_ogs.tif
176
     1
290
     0
176
     1
 40
1.0
176
     1
 40
1.0
176
     1
1001
ACAD
1000
AcDbSavedByObjectVersion
1070
     0
  0
VISUALSTYLE
  5
10029
102
{ACAD_REACTORS
330
1001D
102
}
330
1001D
100
AcDbVisualStyle
  2
Brighten
 70
    12
177
     3
291
     1
 70
    58
 90
        2
176
     1
 90
        2
176
     1
 90
        0
176
     1
 90
        0
176
     1
 40
0.6
176
     1
 40
30.0
176
     1
 62
     7
420
 16777215
176
     1
 90
        1
176
     1
 90
        4
176
     1
 62
     7
176
     1
 62
   257
176
     1
 90
        1
176
     1
 90
        1
176
     1
 40
1.0
176
     1
 90
        8
176
     1
 62
     7
176
     1
 40
1.0
176
     1
 90
        1
176
     1
 90
        6
176
     1
 90
        2
176
     1
 62
     7
176
     1
 90
        5
176
     1
 90
        0
176
     1
 90
        0
176
     1
290
     0
176
     1
 90
        1
176
     1
 40
50.0
176
     1
 90
        0
176
     1
290
     0
176
     1
290
     1
176
     1
290
     1
176
     1
290
     0
176
     1
290
     0
176
     1
290
     0
176
     1
290
     0
176
     1
290
     0
176
     1
290
     0
176
     1
 90
       50
176
     1
 40
0.0
176
     1
 40
1.0
176
     1
 90
        0
176
     1
 62
    18
420
        0
176
     1
 90
       50
176
     1
 90
        3
176
     1
 62
     5
420
      255
176
     1
290
     0
176
     1
 90
       50
176
     1
 90
       50
176
     1
 90
       50
176
     1
290
     0
176
     1
 90
       50
176
     1
 62
   256
176
     0
 40
1.0
176
     0
 90
        2
176
     1
  1
strokes_ogs.tif
176
     1
290
     0
176
     1
 40
1.0
176
     1
 40
1.0
176
     1
1001
ACAD
1000
AcDbSavedByObjectVersion
1070
     0
  0
VISUALSTYLE
  5
1002D
102
{ACAD_REACTORS
330
1001D
102
}
330
1001D
100
AcDbVisualStyle
  2
ColorChange
 70
    16
177
     3
291
     1
 70
    58
 90
        2
176
     1
 90
        2
176
     1
 90
        3
176
     1
 90
        0
176
     1
 40
0.6
176
     1
 40
30.0
176
     1
 62
     8
420
  8421504
176
     1
 90
        1
176
     1
 90
        4
176
     1
 62
     7
176
     1
 62
   257
176
     1
 90
        1
176
     1
 90
        1
176
     1
 40
1.0
176
     1
 90
        8
176
     1
 62
     8
420
  8421504
176
     1
 40
1.0
176
     1
 90
        1
176
     1
 90
        6
176
     1
 90
        2
176
     1
 62
     7
176
     1
 90
        5
176
     1
 90
        0
176
     1
 90
        0
176
     1
290
     0
176
     1
 90
        1
176
     1
 40
0.0
176
     1
 90
        0
176
     1
290
     0
176
     1
290
     1
176
     1
290
     1
176
     1
290
     0
176
     1
290
     0
176
     1
290
     0
176
     1
290
     0
176
     1
290
     0
176
     1
290
     0
176
     1
 90
       50
176
     1
 40
0.0
176
     1
 40
1.0
176
     1
 90
        0
176
     1
 62
    18
420
        0
176
     1
 90
       50
176
     1
 90
        3
176
     1
 62
     5
420
      255
176
     1
290
     0
176
     1
 90
       50
176
     1
 90
       50
176
     1
 90
       50
176
     1
290
     0
176
     1
 90
       50
176
     1
 62
   256
176
     0
 40
1.0
176
     0
 90
        2
176
     1
  1
strokes_ogs.tif
176
     1
290
     0
176
     1
 40
1.0
176
     1
 40
1.0
176
     1
1001
ACAD
1000
AcDbSavedByObjectVersion
1070
     0
  0
VISUALSTYLE
  5
10026
102
{ACAD_REACTORS
330
1001D
102
}
330
1001D
100
AcDbVisualStyle
  2
Conceptual
 70
     9
177
     3
291
     0
 70
    58
 90
        3
176
     1
 90
        2
176
     1
 90
        0
176
     1
 90
        0
176
     1
 40
0.6
176
     1
 40
30.0
176
     1
 62
     7
420
 16777215
176
     1
 90
        2
176
     1
 90
        2
176
     1
 62
     7
176
     1
 62
   257
176
     1
 90
        1
176
     1
 90
        1
176
     1
 40
179.0
176
     1
 90
        8
176
     1
 62
     7
176
     1
 40
1.0
176
     1
 90
        1
176
     1
 90
        6
176
     1
 90
        2
176
     1
 62
     7
176
     1
 90
        3
176
     1
 90
        0
176
     1
 90
        0
176
     1
290
     0
176
     1
 90
        1
176
     1
 40
0.0
176
     1
 90
        0
176
     1
290
     0
176
     1
290
     1
176
     1
290
     1
176
     1
290
     0
176
     1
290
     0
176
     1
290
     0
176
     1
290
     0
176
     1
290
     0
176
     1
290
     0
176
     1
 90
       50
176
     1
 40
0.0
176
     1
 40
1.0
176
     1
 90
        0
176
     1
 62
    18
420
        0
176
     1
 90
       50
176
     1
 90
        3
176
     1
 62
     5
420
      255
176
     1
290
     0
176
     1
 90
       50
176
     1
 90
       50
176
     1
 90
       50
176
     1
290
     0
176
     1
 90
       50
176
     1
 62
   256
176
     0
 40
1.0
176
     0
 90
        2
176
     1
  1
strokes_ogs.tif
176
     1
290
     0
176
     1
 40
1.0
176
     1
 40
1.0
176
     1
1001
ACAD
1000
AcDbSavedByObjectVersion
1070
     0
  0
VISUALSTYLE
  5
10028
102
{ACAD_REACTORS
330
1001D
102
}
330
1001D
100
AcDbVisualStyle
  2
Dim
 70
    11
177
     3
291
     1
 70
    58
 90
        2
176
     1
 90
        2
176
     1
 90
        0
176
     1
 90
        0
176
     1
 40
0.6
176
     1
 40
30.0
176
     1
 62
     7
420
 16777215
176
     1
 90
        1
176
     1
 90
        4
176
     1
 62
     7
176
     1
 62
   257
176
     1
 90
        1
176
     1
 90
        1
176
     1
 40
1.0
176
     1
 90
        8
176
     1
 62
     7
176
     1
 40
1.0
176
     1
 90
        1
176
     1
 90
        6
176
     1
 90
        2
176
     1
 62
     7
176
     1
 90
        5
176
     1
 90
        0
176
     1
 90
        0
176
     1
290
     0
176
     1
 90
        1
176
     1
 40
-50.0
176
     1
 90
        0
176
     1
290
     0
176
     1
290
     1
176
     1
290
     1
176
     1
290
     0
176
     1
290
     0
176
     1
290
     0
176
     1
290
     0
176
     1
290
     0
176
     1
290
     0
176
     1
 90
       50
176
     1
 40
0.0
176
     1
 40
1.0
176
     1
 90
        0
176
     1
 62
    18
420
        0
176
     1
 90
       50
176
     1
 90
        3
176
     1
 62
     5
420
      255
176
     1
290
     0
176
     1
 90
       50
176
     1
 90
       50
176
     1
 90
       50
176
     1
290
     0
176
     1
 90
       50
176
     1
 62
   256
176
     0
 40
1.0
176
     0
 90
        2
176
     1
  1
strokes_ogs.tif
176
     1
290
     0
176
     1
 40
1.0
176
     1
 40
1.0
176
     1
1001
ACAD
1000
AcDbSavedByObjectVersion
1070
     0
  0
VISUALSTYLE
  5
10035
102
{ACAD_REACTORS
330
1001D
102
}
330
1001D
100
AcDbVisualStyle
  2
EdgeColorOff
 70
    22
177
     3
291
     1
 70
    58
 90
        2
176
     0
 90
        2
176
     0
 90
        0
176
     0
 90
        0
176
     0
 40
0.6
176
     0
 40
30.0
176
     0
 62
     7
420
 16777215
176
     0
 90
        1
176
     0
 90
        4
176
     0
 62
     7
176
     0
 62
   257
176
     0
 90
        1
176
     0
 90
        1
176
     0
 40
1.0
176
     0
 90
        8
176
     2
 62
     7
176
     0
 40
1.0
176
     0
 90
        1
176
     0
 90
        6
176
     0
 90
        2
176
     0
 62
     7
176
     0
 90
        5
176
     0
 90
        0
176
     0
 90
        0
176
     0
290
     0
176
     0
 90
        1
176
     0
 40
0.0
176
     0
 90
        0
176
     0
290
     0
176
     1
290
     1
176
     1
290
     1
176
     1
290
     0
176
     1
290
     0
176
     1
290
     0
176
     1
290
     0
176
     1
290
     0
176
     1
290
     0
176
     1
 90
       50
176
     0
 40
0.0
176
     0
 40
1.0
176
     0
 90
        0
176
     0
 62
    18
420
        0
176
     0
 90
       50
176
     0
 90
        3
176
     0
 62
     5
420
      255
176
     0
290
     0
176
     1
 90
       50
176
     0
 90
       50
176
     0
 90
       50
176
     0
290
     0
176
     1
 90
       50
176
     0
 62
   256
176
     0
 40
1.0
176
     0
 90
        2
176
     0
  1
strokes_ogs.tif
176
     0
290
     0
176
     1
 40
1.0
176
     0
 40
1.0
176
     0
1001
ACAD
1000
AcDbSavedByObjectVersion
1070
     0
  0
VISUALSTYLE
  5
1002C
102
{ACAD_REACTORS
330
1001D
102
}
330
1001D
100
AcDbVisualStyle
  2
Facepattern
 70
    15
177
     3
291
     1
 70
    58
 90
        2
176
     1
 90
        2
176
     1
 90
        0
176
     1
 90
        0
176
     1
 40
0.6
176
     1
 40
30.0
176
     1
 62
     7
420
 16777215
176
     1
 90
        1
176
     1
 90
        4
176
     1
 62
     7
176
     1
 62
   257
176
     1
 90
        1
176
     1
 90
        1
176
     1
 40
1.0
176
     1
 90
        8
176
     1
 62
     7
176
     1
 40
1.0
176
     1
 90
        1
176
     1
 90
        6
176
     1
 90
        2
176
     1
 62
     7
176
     1
 90
        5
176
     1
 90
        0
176
     1
 90
        0
176
     1
290
     0
176
     1
 90
        1
176
     1
 40
0.0
176
     1
 90
        0
176
     1
290
     0
176
     1
290
     1
176
     1
290
     1
176
     1
290
     0
176
     1
290
     0
176
     1
290
     0
176
     1
290
     0
176
     1
290
     0
176
     1
290
     0
176
     1
 90
       50
176
     1
 40
0.0
176
     1
 40
1.0
176
     1
 90
        0
176
     1
 62
    18
420
        0
176
     1
 90
       50
176
     1
 90
        3
176
     1
 62
     5
420
      255
176
     1
290
     0
176
     1
 90
       50
176
     1
 90
       50
176
     1
 90
       50
176
     1
290
     0
176
     1
 90
       50
176
     1
 62
   256
176
     0
 40
1.0
176
     0
 90
        2
176
     1
  1
strokes_ogs.tif
176
     1
290
     0
176
     1
 40
1.0
176
     1
 40
1.0
176
     1
1001
ACAD
1000
AcDbSavedByObjectVersion
1070
     0
  0
VISUALSTYLE
  5
1001E
102
{ACAD_REACTORS
330
1001D
102
}
330
1001D
100
AcDbVisualStyle
  2
Flat
 70
     0
177
     3
291
     1
 70
    58
 90
        2
176
     1
 90
        1
176
     1
 90
        1
176
     1
 90
        2
176
     1
 40
0.6
176
     1
 40
30.0
176
     1
 62
     7
420
 16777215
176
     1
 90
        0
176
     1
 90
        0
176
     1
 62
     7
176
     1
 62
   257
176
     1
 90
        1
176
     1
 90
        1
176
     1
 40
1.0
176
     1
 90
        8
176
     1
 62
     7
176
     1
 40
1.0
176
     1
 90
        1
176
     1
 90
        6
176
     1
 90
        2
176
     1
 62
     7
176
     1
 90
        5
176
     1
 90
        0
176
     1
 90
        0
176
     1
290
     0
176
     1
 90
       13
176
     1
 40
0.0
176
     1
 90
        0
176
     1
290
     0
176
     1
290
     1
176
     1
290
     1
176
     1
290
     0
176
     1
290
     0
176
     1
290
     0
176
     1
290
     0
176
     1
290
     0
176
     1
290
     0
176
     1
 90
       50
176
     1
 40
0.0
176
     1
 40
1.0
176
     1
 90
        0
176
     1
 62
    18
420
        0
176
     1
 90
       50
176
     1
 90
        3
176
     1
 62
     5
420
      255
176
     1
290
     0
176
     1
 90
       50
176
     1
 90
       50
176
     1
 90
       50
176
     1
290
     0
176
     1
 90
       50
176
     1
 62
   256
176
     0
 40
1.0
176
     0
 90
        2
176
     1
  1
strokes_ogs.tif
176
     1
290
     0
176
     1
 40
1.0
176
     1
 40
1.0
176
     1
1001
ACAD
1000
AcDbSavedByObjectVersion
1070
     0
  0
VISUALSTYLE
  5
1001F
102
{ACAD_REACTORS
330
1001D
102
}
330
1001D
100
AcDbVisualStyle
  2
FlatWithEdges
 70
     1
177
     3
291
     1
 70
    58
 90
        2
176
     1
 90
        1
176
     1
 90
        1
176
     1
 90
        2
176
     1
 40
0.6
176
     1
 40
30.0
176
     1
 62
     7
420
 16777215
176
     1
 90
        1
176
     1
 90
        0
176
     1
 62
     7
176
     1
 62
   257
176
     1
 90
        1
176
     1
 90
        1
176
     1
 40
1.0
176
     1
 90
        0
176
     1
 62
   257
176
     1
 40
1.0
176
     1
 90
        1
176
     1
 90
        6
176
     1
 90
        2
176
     1
 62
     7
176
     1
 90
        5
176
     1
 90
        0
176
     1
 90
        0
176
     1
290
     0
176
     1
 90
       13
176
     1
 40
0.0
176
     1
 90
        0
176
     1
290
     0
176
     1
290
     1
176
     1
290
     1
176
     1
290
     0
176
     1
290
     0
176
     1
290
     0
176
     1
290
     0
176
     1
290
     0
176
     1
290
     0
176
     1
 90
       50
176
     1
 40
0.0
176
     1
 40
1.0
176
     1
 90
        0
176
     1
 62
    18
420
        0
176
     1
 90
       50
176
     1
 90
        3
176
     1
 62
     5
420
      255
176
     1
290
     0
176
     1
 90
       50
176
     1
 90
       50
176
     1
 90
       50
176
     1
290
     0
176
     1
 90
       50
176
     1
 62
   256
176
     0
 40
1.0
176
     0
 90
        2
176
     1
  1
strokes_ogs.tif
176
     1
290
     0
176
     1
 40
1.0
176
     1
 40
1.0
176
     1
1001
ACAD
1000
AcDbSavedByObjectVersion
1070
     0
  0
VISUALSTYLE
  5
10020
102
{ACAD_REACTORS
330
1001D
102
}
330
1001D
100
AcDbVisualStyle
  2
Gouraud
 70
     2
177
     3
291
     1
 70
    58
 90
        2
176
     1
 90
        2
176
     1
 90
        1
176
     1
 90
        2
176
     1
 40
0.6
176
     1
 40
30.0
176
     1
 62
     7
420
 16777215
176
     1
 90
        0
176
     1
 90
        0
176
     1
 62
     7
176
     1
 62
   257
176
     1
 90
        1
176
     1
 90
        1
176
     1
 40
1.0
176
     1
 90
        0
176
     1
 62
     7
176
     1
 40
1.0
176
     1
 90
        1
176
     1
 90
        6
176
     1
 90
        2
176
     1
 62
     7
176
     1
 90
        5
176
     1
 90
        0
176
     1
 90
        0
176
     1
290
     0
176
     1
 90
       13
176
     1
 40
0.0
176
     1
 90
        0
176
     1
290
     0
176
     1
290
     1
176
     1
290
     1
176
     1
290
     0
176
     1
290
     0
176
     1
290
     0
176
     1
290
     0
176
     1
290
     0
176
     1
290
     0
176
     1
 90
       50
176
     1
 40
0.0
176
     1
 40
1.0
176
     1
 90
        0
176
     1
 62
    18
420
        0
176
     1
 90
       50
176
     1
 90
        3
176
     1
 62
     5
420
      255
176
     1
290
     0
176
     1
 90
       50
176
     1
 90
       50
176
     1
 90
       50
176
     1
290
     0
176
     1
 90
       50
176
     1
 62
   256
176
     0
 40
1.0
176
     0
 90
        2
176
     1
  1
strokes_ogs.tif
176
     1
290
     0
176
     1
 40
1.0
176
     1
 40
1.0
176
     1
1001
ACAD
1000
AcDbSavedByObjectVersion
1070
     0
  0
VISUALSTYLE
  5
10021
102
{ACAD_REACTORS
330
1001D
102
}
330
1001D
100
AcDbVisualStyle
  2
GouraudWithEdges
 70
     3
177
     3
291
     1
 70
    58
 90
        2
176
     1
 90
        2
176
     1
 90
        1
176
     1
 90
        2
176
     1
 40
0.6
176
     1
 40
30.0
176
     1
 62
     7
420
 16777215
176
     1
 90
        1
176
     1
 90
        0
176
     1
 62
     7
176
     1
 62
   257
176
     1
 90
        1
176
     1
 90
        1
176
     1
 40
1.0
176
     1
 90
        0
176
     1
 62
   257
176
     1
 40
1.0
176
     1
 90
        1
176
     1
 90
        6
176
     1
 90
        2
176
     1
 62
     7
176
     1
 90
        5
176
     1
 90
        0
176
     1
 90
        0
176
     1
290
     0
176
     1
 90
       13
176
     1
 40
0.0
176
     1
 90
        0
176
     1
290
     0
176
     1
290
     1
176
     1
290
     1
176
     1
290
     0
176
     1
290
     0
176
     1
290
     0
176
     1
290
     0
176
     1
290
     0
176
     1
290
     0
176
     1
 90
       50
176
     1
 40
0.0
176
     1
 40
1.0
176
     1
 90
        0
176
     1
 62
    18
420
        0
176
     1
 90
       50
176
     1
 90
        3
176
     1
 62
     5
420
      255
176
     1
290
     0
176
     1
 90
       50
176
     1
 90
       50
176
     1
 90
       50
176
     1
290
     0
176
     1
 90
       50
176
     1
 62
   256
176
     0
 40
1.0
176
     0
 90
        2
176
     1
  1
strokes_ogs.tif
176
     1
290
     0
176
     1
 40
1.0
176
     1
 40
1.0
176
     1
1001
ACAD
1000
AcDbSavedByObjectVersion
1070
     0
  0
VISUALSTYLE
  5
10025
102
{ACAD_REACTORS
330
1001D
102
}
330
1001D
100
AcDbVisualStyle
  2
Hidden
 70
     6
177
     3
291
     0
 70
    58
 90
        1
176
     1
 90
        2
176
     1
 90
        2
176
     1
 90
        0
176
     1
 40
0.6
176
     1
 40
30.0
176
     1
 62
     7
420
 16777215
176
     1
 90
        2
176
     1
 90
        2
176
     1
 62
     7
176
     1
 62
   257
176
     1
 90
        2
176
     1
 90
        1
176
     1
 40
40.0
176
     1
 90
        0
176
     1
 62
   257
176
     1
 40
1.0
176
     1
 90
        1
176
     1
 90
        6
176
     1
 90
        2
176
     1
 62
     7
176
     1
 90
        3
176
     1
 90
        0
176
     1
 90
        0
176
     1
290
     0
176
     1
 90
        1
176
     1
 40
0.0
176
     1
 90
        0
176
     1
290
     0
176
     1
290
     1
176
     1
290
     1
176
     1
290
     0
176
     1
290
     0
176
     1
290
     0
176
     1
290
     0
176
     1
290
     0
176
     1
290
     0
176
     1
 90
       50
176
     1
 40
0.0
176
     1
 40
1.0
176
     1
 90
        0
176
     1
 62
    18
420
        0
176
     1
 90
       50
176
     1
 90
        3
176
     1
 62
     5
420
      255
176
     1
290
     0
176
     1
 90
       50
176
     1
 90
       50
176
     1
 90
       50
176
     1
290
     0
176
     1
 90
       50
176
     1
 62
   256
176
     0
 40
1.0
176
     0
 90
        2
176
     1
  1
strokes_ogs.tif
176
     1
290
     0
176
     1
 40
1.0
176
     1
 40
1.0
176
     1
1001
ACAD
1000
AcDbSavedByObjectVersion
1070
     0
  0
VISUALSTYLE
  5
10033
102
{ACAD_REACTORS
330
1001D
102
}
330
1001D
100
AcDbVisualStyle
  2
JitterOff
 70
    20
177
     3
291
     1
 70
    58
 90
        2
176
     0
 90
        2
176
     0
 90
        0
176
     0
 90
        0
176
     0
 40
0.6
176
     0
 40
30.0
176
     0
 62
     7
420
 16777215
176
     0
 90
        1
176
     0
 90
        4
176
     0
 62
     7
176
     0
 62
   257
176
     0
 90
        1
176
     0
 90
        1
176
     0
 40
1.0
176
     0
 90
       10
176
     2
 62
     7
176
     0
 40
1.0
176
     0
 90
        1
176
     0
 90
        6
176
     0
 90
        2
176
     0
 62
     7
176
     0
 90
        5
176
     0
 90
        0
176
     0
 90
        0
176
     0
290
     0
176
     0
 90
        1
176
     0
 40
0.0
176
     0
 90
        0
176
     0
290
     0
176
     1
290
     1
176
     1
290
     1
176
     1
290
     0
176
     1
290
     0
176
     1
290
     0
176
     1
290
     0
176
     1
290
     0
176
     1
290
     0
176
     1
 90
       50
176
     0
 40
0.0
176
     0
 40
1.0
176
     0
 90
        0
176
     0
 62
    18
420
        0
176
     0
 90
       50
176
     0
 90
        3
176
     0
 62
     5
420
      255
176
     0
290
     0
176
     1
 90
       50
176
     0
 90
       50
176
     0
 90
       50
176
     0
290
     0
176
     1
 90
       50
176
     0
 62
   256
176
     0
 40
1.0
176
     0
 90
        2
176
     0
  1
strokes_ogs.tif
176
     0
290
     0
176
     1
 40
1.0
176
     0
 40
1.0
176
     0
1001
ACAD
1000
AcDbSavedByObjectVersion
1070
     0
  0
VISUALSTYLE
  5
1002B
102
{ACAD_REACTORS
330
1001D
102
}
330
1001D
100
AcDbVisualStyle
  2
Linepattern
 70
    14
177
     3
291
     1
 70
    58
 90
        2
176
     1
 90
        2
176
     1
 90
        0
176
     1
 90
        0
176
     1
 40
0.6
176
     1
 40
30.0
176
     1
 62
     7
420
 16777215
176
     1
 90
        1
176
     1
 90
        4
176
     1
 62
     7
176
     1
 62
   257
176
     1
 90
        7
176
     1
 90
        7
176
     1
 40
1.0
176
     1
 90
        8
176
     1
 62
     7
176
     1
 40
1.0
176
     1
 90
        1
176
     1
 90
        6
176
     1
 90
        2
176
     1
 62
     7
176
     1
 90
        5
176
     1
 90
        0
176
     1
 90
        0
176
     1
290
     0
176
     1
 90
        1
176
     1
 40
0.0
176
     1
 90
        0
176
     1
290
     0
176
     1
290
     1
176
     1
290
     1
176
     1
290
     0
176
     1
290
     0
176
     1
290
     0
176
     1
290
     0
176
     1
290
     0
176
     1
290
     0
176
     1
 90
       50
176
     1
 40
0.0
176
     1
 40
1.0
176
     1
 90
        0
176
     1
 62
    18
420
        0
176
     1
 90
       50
176
     1
 90
        3
176
     1
 62
     5
420
      255
176
     1
290
     0
176
     1
 90
       50
176
     1
 90
       50
176
     1
 90
       50
176
     1
290
     0
176
     1
 90
       50
176
     1
 62
   256
176
     0
 40
1.0
176
     0
 90
        2
176
     1
  1
strokes_ogs.tif
176
     1
290
     0
176
     1
 40
1.0
176
     1
 40
1.0
176
     1
1001
ACAD
1000
AcDbSavedByObjectVersion
1070
     0
  0
VISUALSTYLE
  5
10034
102
{ACAD_REACTORS
330
1001D
102
}
330
1001D
100
AcDbVisualStyle
  2
OverhangOff
 70
    21
177
     3
291
     1
 70
    58
 90
        2
176
     0
 90
        2
176
     0
 90
        0
176
     0
 90
        0
176
     0
 40
0.6
176
     0
 40
30.0
176
     0
 62
     7
420
 16777215
176
     0
 90
        1
176
     0
 90
        4
176
     0
 62
     7
176
     0
 62
   257
176
     0
 90
        1
176
     0
 90
        1
176
     0
 40
1.0
176
     0
 90
        9
176
     2
 62
     7
176
     0
 40
1.0
176
     0
 90
        1
176
     0
 90
        6
176
     0
 90
        2
176
     0
 62
     7
176
     0
 90
        5
176
     0
 90
        0
176
     0
 90
        0
176
     0
290
     0
176
     0
 90
        1
176
     0
 40
0.0
176
     0
 90
        0
176
     0
290
     0
176
     1
290
     1
176
     1
290
     1
176
     1
290
     0
176
     1
290
     0
176
     1
290
     0
176
     1
290
     0
176
     1
290
     0
176
     1
290
     0
176
     1
 90
       50
176
     0
 40
0.0
176
     0
 40
1.0
176
     0
 90
        0
176
     0
 62
    18
420
        0
176
     0
 90
       50
176
     0
 90
        3
176
     0
 62
     5
420
      255
176
     0
290
     0
176
     1
 90
       50
176
     0
 90
       50
176
     0
 90
       50
176
     0
290
     0
176
     1
 90
       50
176
     0
 62
   256
176
     0
 40
1.0
176
     0
 90
        2
176
     0
  1
strokes_ogs.tif
176
     0
290
     0
176
     1
 40
1.0
176
     0
 40
1.0
176
     0
1001
ACAD
1000
AcDbSavedByObjectVersion
1070
     0
  0
VISUALSTYLE
  5
10027
102
{ACAD_REACTORS
330
1001D
102
}
330
1001D
100
AcDbVisualStyle
  2
Realistic
 70
     8
177
     3
291
     0
 70
    58
 90
        2
176
     1
 90
        3
176
     1
 90
        0
176
     1
 90
        2
176
     1
 40
0.6
176
     1
 40
30.0
176
     1
 62
     7
420
 16777215
176
     1
 90
        0
176
     1
 90
        0
176
     1
 62
     7
176
     1
 62
   257
176
     1
 90
        1
176
     1
 90
        1
176
     1
 40
1.0
176
     1
 90
        8
176
     1
 62
   257
176
     1
 40
1.0
176
     1
 90
        1
176
     1
 90
        6
176
     1
 90
        2
176
     1
 62
     7
176
     1
 90
        3
176
     1
 90
        0
176
     1
 90
        0
176
     1
290
     0
176
     1
 90
       13
176
     1
 40
0.0
176
     1
 90
        0
176
     1
290
     0
176
     1
290
     1
176
     1
290
     1
176
     1
290
     0
176
     1
290
     0
176
     1
290
     0
176
     1
290
     0
176
     1
290
     0
176
     1
290
     0
176
     1
 90
       50
176
     1
 40
0.0
176
     1
 40
1.0
176
     1
 90
        0
176
     1
 62
    18
420
        0
176
     1
 90
       50
176
     1
 90
        3
176
     1
 62
     5
420
      255
176
     1
290
     0
176
     1
 90
       50
176
     1
 90
       50
176
     1
 90
       50
176
     1
290
     0
176
     1
 90
       50
176
     1
 62
   256
176
     0
 40
1.0
176
     0
 90
        2
176
     1
  1
strokes_ogs.tif
176
     1
290
     0
176
     1
 40
1.0
176
     1
 40
1.0
176
     1
1001
ACAD
1000
AcDbSavedByObjectVersion
1070
     0
  0
VISUALSTYLE
  5
10032
102
{ACAD_REACTORS
330
1001D
102
}
330
1001D
100
AcDbVisualStyle
  2
Shaded
 70
    27
177
     3
291
     0
 70
    58
 90
        2
176
     1
 90
        2
176
     1
 90
        1
176
     1
 90
        2
176
     1
 40
0.6
176
     1
 40
30.0
176
     1
 62
     7
420
 16777215
176
     1
 90
        0
176
     1
 90
        4
176
     1
 62
     7
176
     1
 62
   257
176
     1
 90
        1
176
     1
 90
        1
176
     1
 40
1.0
176
     1
 90
        8
176
     1
 62
   257
176
     1
 40
1.0
176
     1
 90
        1
176
     1
 90
        6
176
     1
 90
        2
176
     1
 62
     8
420
  7895160
176
     1
 90
        3
176
     1
 90
        0
176
     1
 90
        0
176
     1
290
     0
176
     1
 90
        5
176
     1
 40
0.0
176
     1
 90
        0
176
     1
290
     0
176
     1
290
     1
176
     1
290
     1
176
     1
290
     0
176
     1
290
     0
176
     1
290
     0
176
     1
290
     0
176
     1
290
     0
176
     1
290
     0
176
     1
 90
       50
176
     1
 40
0.0
176
     1
 40
1.0
176
     1
 90
        0
176
     1
 62
    18
420
        0
176
     1
 90
       50
176
     1
 90
        3
176
     1
 62
     5
420
      255
176
     1
290
     0
176
     1
 90
       50
176
     1
 90
       50
176
     1
 90
       50
176
     1
290
     0
176
     1
 90
       50
176
     1
 62
   256
176
     0
 40
1.0
176
     0
 90
        2
176
     1
  1
strokes_ogs.tif
176
     1
290
     0
176
     1
 40
1.0
176
     1
 40
1.0
176
     1
1001
ACAD
1000
AcDbSavedByObjectVersion
1070
     0
  0
VISUALSTYLE
  5
10031
102
{ACAD_REACTORS
330
1001D
102
}
330
1001D
100
AcDbVisualStyle
  2
Shaded with edges
 70
    26
177
     3
291
     0
 70
    58
 90
        2
176
     1
 90
        2
176
     1
 90
        1
176
     1
 90
        2
176
     1
 40
0.6
176
     1
 40
30.0
176
     1
 62
     7
420
 16777215
176
     1
 90
        1
176
     1
 90
        2
176
     1
 62
     7
176
     1
 62
   257
176
     1
 90
        2
176
     1
 90
        1
176
     1
 40
1.0
176
     1
 90
        8
176
     1
 62
   257
176
     1
 40
1.0
176
     1
 90
        1
176
     1
 90
        6
176
     1
 90
        2
176
     1
 62
     7
176
     1
 90
        3
176
     1
 90
        0
176
     1
 90
        0
176
     1
290
     0
176
     1
 90
        5
176
     1
 40
0.0
176
     1
 90
        0
176
     1
290
     0
176
     1
290
     1
176
     1
290
     1
176
     1
290
     0
176
     1
290
     0
176
     1
290
     0
176
     1
290
     0
176
     1
290
     0
176
     1
290
     0
176
     1
 90
       50
176
     1
 40
0.0
176
     1
 40
1.0
176
     1
 90
        0
176
     1
 62
    18
420
        0
176
     1
 90
       50
176
     1
 90
        3
176
     1
 62
     5
420
      255
176
     1
290
     0
176
     1
 90
       50
176
     1
 90
       50
176
     1
 90
       50
176
     1
290
     0
176
     1
 90
       50
176
     1
 62
   256
176
     0
 40
1.0
176
     0
 90
        2
176
     1
  1
strokes_ogs.tif
176
     1
290
     0
176
     1
 40
1.0
176
     1
 40
1.0
176
     1
1001
ACAD
1000
AcDbSavedByObjectVersion
1070
     0
  0
VISUALSTYLE
  5
1002E
102
{ACAD_REACTORS
330
1001D
102
}
330
1001D
100
AcDbVisualStyle
  2
Shades of Gray
 70
    23
177
     3
291
     0
 70
    58
 90
        2
176
     1
 90
        2
176
     1
 90
        3
176
     1
 90
        0
176
     1
 40
0.6
176
     1
 40
30.0
176
     1
 62
     7
420
 16777215
176
     1
 90
        2
176
     1
 90
        2
176
     1
 62
     7
176
     1
 62
     7
176
     1
 90
        1
176
     1
 90
        1
176
     1
 40
40.0
176
     1
 90
        8
176
     1
 62
     7
176
     1
 40
1.0
176
     1
 90
        1
176
     1
 90
        6
176
     1
 90
        2
176
     1
 62
     7
176
     1
 90
        3
176
     1
 90
        0
176
     1
 90
        0
176
     1
290
     0
176
     1
 90
        1
176
     1
 40
0.0
176
     1
 90
        0
176
     1
290
     0
176
     1
290
     1
176
     1
290
     1
176
     1
290
     0
176
     1
290
     0
176
     1
290
     0
176
     1
290
     0
176
     1
290
     0
176
     1
290
     0
176
     1
 90
       50
176
     1
 40
0.0
176
     1
 40
1.0
176
     1
 90
        0
176
     1
 62
    18
420
        0
176
     1
 90
       50
176
     1
 90
        3
176
     1
 62
     5
420
      255
176
     1
290
     0
176
     1
 90
       50
176
     1
 90
       50
176
     1
 90
       50
176
     1
290
     0
176
     1
 90
       50
176
     1
 62
   256
176
     0
 40
1.0
176
     0
 90
        2
176
     1
  1
strokes_ogs.tif
176
     1
290
     0
176
     1
 40
1.0
176
     1
 40
1.0
176
     1
1001
ACAD
1000
AcDbSavedByObjectVersion
1070
     0
  0
VISUALSTYLE
  5
1002F
102
{ACAD_REACTORS
330
1001D
102
}
330
1001D
100
AcDbVisualStyle
  2
Sketchy
 70
    24
177
     3
291
     0
 70
    58
 90
        1
176
     1
 90
        2
176
     1
 90
        2
176
     1
 90
        0
176
     1
 40
0.6
176
     1
 40
30.0
176
     1
 62
     7
420
 16777215
176
     1
 90
        2
176
     1
 90
        2
176
     1
 62
     7
176
     1
 62
     7
176
     1
 90
        1
176
     1
 90
        1
176
     1
 40
40.0
176
     1
 90
       11
176
     1
 62
     7
176
     1
 40
1.0
176
     1
 90
        1
176
     1
 90
        6
176
     1
 90
        2
176
     1
 62
     7
176
     1
 90
        6
176
     1
 90
        0
176
     1
 90
        0
176
     1
290
     0
176
     1
 90
        1
176
     1
 40
0.0
176
     1
 90
        0
176
     1
290
     0
176
     1
290
     1
176
     1
290
     1
176
     1
290
     0
176
     1
290
     0
176
     1
290
     0
176
     1
290
     0
176
     1
290
     0
176
     1
290
     0
176
     1
 90
       50
176
     1
 40
0.0
176
     1
 40
1.0
176
     1
 90
        0
176
     1
 62
    18
420
        0
176
     1
 90
       50
176
     1
 90
        3
176
     1
 62
     5
420
      255
176
     1
290
     0
176
     1
 90
       50
176
     1
 90
       50
176
     1
 90
       50
176
     1
290
     0
176
     1
 90
       50
176
     1
 62
   256
176
     0
 40
1.0
176
     0
 90
        2
176
     1
  1
strokes_ogs.tif
176
     1
290
     0
176
     1
 40
1.0
176
     1
 40
1.0
176
     1
1001
ACAD
1000
AcDbSavedByObjectVersion
1070
     0
  0
VISUALSTYLE
  5
1002A
102
{ACAD_REACTORS
330
1001D
102
}
330
1001D
100
AcDbVisualStyle
  2
Thicken
 70
    13
177
     3
291
     1
 70
    58
 90
        2
176
     1
 90
        2
176
     1
 90
        0
176
     1
 90
        0
176
     1
 40
0.6
176
     1
 40
30.0
176
     1
 62
     7
420
 16777215
176
     1
 90
        1
176
     1
 90
        4
176
     1
 62
     7
176
     1
 62
   257
176
     1
 90
        1
176
     1
 90
        1
176
     1
 40
1.0
176
     1
 90
       12
176
     1
 62
     7
176
     1
 40
1.0
176
     1
 90
        1
176
     1
 90
        6
176
     1
 90
        2
176
     1
 62
     7
176
     1
 90
        5
176
     1
 90
        0
176
     1
 90
        0
176
     1
290
     0
176
     1
 90
        1
176
     1
 40
0.0
176
     1
 90
        0
176
     1
290
     0
176
     1
290
     1
176
     1
290
     1
176
     1
290
     0
176
     1
290
     0
176
     1
290
     0
176
     1
290
     0
176
     1
290
     0
176
     1
290
     0
176
     1
 90
       50
176
     1
 40
0.0
176
     1
 40
1.0
176
     1
 90
        0
176
     1
 62
    18
420
        0
176
     1
 90
       50
176
     1
 90
        3
176
     1
 62
     5
420
      255
176
     1
290
     0
176
     1
 90
       50
176
     1
 90
       50
176
     1
 90
       50
176
     1
290
     0
176
     1
 90
       50
176
     1
 62
   256
176
     0
 40
1.0
176
     0
 90
        2
176
     1
  1
strokes_ogs.tif
176
     1
290
     0
176
     1
 40
1.0
176
     1
 40
1.0
176
     1
1001
ACAD
1000
AcDbSavedByObjectVersion
1070
     0
  0
VISUALSTYLE
  5
10024
102
{ACAD_REACTORS
330
1001D
102
}
330
1001D
100
AcDbVisualStyle
  2
Wireframe
 70
     5
177
     3
291
     0
 70
    58
 90
        0
176
     1
 90
        2
176
     1
 90
        0
176
     1
 90
        0
176
     1
 40
0.6
176
     1
 40
30.0
176
     1
 62
     7
420
 16777215
176
     1
 90
        1
176
     1
 90
        4
176
     1
 62
     7
176
     1
 62
   257
176
     1
 90
        1
176
     1
 90
        1
176
     1
 40
1.0
176
     1
 90
        0
176
     1
 62
   257
176
     1
 40
1.0
176
     1
 90
        1
176
     1
 90
        6
176
     1
 90
        2
176
     1
 62
     7
176
     1
 90
        3
176
     1
 90
        0
176
     1
 90
        0
176
     1
290
     0
176
     1
 90
        1
176
     1
 40
0.0
176
     1
 90
        0
176
     1
290
     0
176
     1
290
     1
176
     1
290
     1
176
     1
290
     0
176
     1
290
     0
176
     1
290
     0
176
     1
290
     0
176
     1
290
     0
176
     1
290
     0
176
     1
 90
       50
176
     1
 40
0.0
176
     1
 40
1.0
176
     1
 90
        0
176
     1
 62
    18
420
        0
176
     1
 90
       50
176
     1
 90
        3
176
     1
 62
     5
420
      255
176
     1
290
     0
176
     1
 90
       50
176
     1
 90
       50
176
     1
 90
       50
176
     1
290
     0
176
     1
 90
       50
176
     1
 62
   256
176
     0
 40
1.0
176
     0
 90
        2
176
     1
  1
strokes_ogs.tif
176
     1
290
     0
176
     1
 40
1.0
176
     1
 40
1.0
176
     1
1001
ACAD
1000
AcDbSavedByObjectVersion
1070
     0
  0
VISUALSTYLE
  5
10030
102
{ACAD_REACTORS
330
1001D
102
}
330
1001D
100
AcDbVisualStyle
  2
X-Ray
 70
    25
177
     3
291
     0
 70
    58
 90
        2
176
     1
 90
        2
176
     1
 90
        1
176
     1
 90
        1
176
     1
 40
0.5
176
     1
 40
30.0
176
     1
 62
     7
420
 16777215
176
     1
 90
        1
176
     1
 90
        0
176
     1
 62
     7
176
     1
 62
   257
176
     1
 90
        1
176
     1
 90
        1
176
     1
 40
1.0
176
     1
 90
        8
176
     1
 62
     7
176
     1
 40
1.0
176
     1
 90
        1
176
     1
 90
        6
176
     1
 90
        2
176
     1
 62
     7
176
     1
 90
        3
176
     1
 90
        0
176
     1
 90
        0
176
     1
290
     0
176
     1
 90
       13
176
     1
 40
0.0
176
     1
 90
        0
176
     1
290
     0
176
     1
290
     1
176
     1
290
     1
176
     1
290
     0
176
     1
290
     0
176
     1
290
     0
176
     1
290
     0
176
     1
290
     0
176
     1
290
     0
176
     1
 90
       50
176
     1
 40
0.0
176
     1
 40
1.0
176
     1
 90
        0
176
     1
 62
    18
420
        0
176
     1
 90
       50
176
     1
 90
        3
176
     1
 62
     5
420
      255
176
     1
290
     0
176
     1
 90
       50
176
     1
 90
       50
176
     1
 90
       50
176
     1
290
     0
176
     1
 90
       50
176
     1
 62
   256
176
     0
 40
1.0
176
     0
 90
        2
176
     1
  1
strokes_ogs.tif
176
     1
290
     0
176
     1
 40
1.0
176
     1
 40
1.0
176
     1
1001
ACAD
1000
AcDbSavedByObjectVersion
1070
     0
  0
DICTIONARYVAR
  5
1006E
102
{ACAD_REACTORS
330
10068
102
}
330
10068
100
DictionaryVariables
280
     0
  1
1:1
  0
DICTIONARYVAR
  5
1006A
102
{ACAD_REACTORS
330
10068
102
}
330
10068
100
DictionaryVariables
280
     0
  1
STANDARD
  0
DICTIONARYVAR
  5
10069
102
{ACAD_REACTORS
330
10068
102
}
330
10068
100
DictionaryVariables
280
     0
  1
STANDARD
  0
DICTIONARYVAR
  5
1006B
102
{ACAD_REACTORS
330
10068
102
}
330
10068
100
DictionaryVariables
280
     0
  1
Imperial24
  0
DICTIONARYVAR
  5
1006C
102
{ACAD_REACTORS
330
10068
102
}
330
10068
100
DictionaryVariables
280
     0
  1
Imperial24
  0
DICTIONARYVAR
  5
10070
102
{ACAD_REACTORS
330
10068
102
}
330
10068
100
DictionaryVariables
280
     0
  1
1
  0
DICTIONARYVAR
  5
10071
102
{ACAD_REACTORS
330
10068
102
}
330
10068
100
DictionaryVariables
280
     0
  1
15
  0
DICTIONARYVAR
  5
1006F
102
{ACAD_REACTORS
330
10068
102
}
330
10068
100
DictionaryVariables
280
     0
  1
0
  0
DICTIONARYVAR
  5
1006D
102
{ACAD_REACTORS
330
10068
102
}
330
10068
100
DictionaryVariables
280
     0
  1
0
  0
DICTIONARY
  5
10077
330
10052
100
AcDbDictionary
280
     1
281
     1
  3
ACAD_XREC_ROUNDTRIP
360
10078
  0
DICTIONARY
  5
1000E
330
1000D
100
AcDbDictionary
280
     1
281
     1
  3
BUMPTILE
360
10010
  3
DIFFUSETILE
360
1000F
  3
OPACITYTILE
360
10013
  3
REFLECTIONTILE
360
10012
  3
REFRACTIONTILE
360
10014
  3
SPECULARTILE
360
10011
  0
DICTIONARY
  5
10006
330
10005
100
AcDbDictionary
280
     1
281
     1
  3
BUMPTILE
360
10008
  3
DIFFUSETILE
360
10007
  3
OPACITYTILE
360
1000B
  3
REFLECTIONTILE
360
1000A
  3
REFRACTIONTILE
360
1000C
  3
SPECULARTILE
360
10009
  0
DICTIONARY
  5
10016
330
10015
100
AcDbDictionary
280
     1
281
     1
  3
BUMPTILE
360
10018
  3
DIFFUSETILE
360
10017
  3
OPACITYTILE
360
1001B
  3
REFLECTIONTILE
360
1001A
  3
REFRACTIONTILE
360
1001C
  3
SPECULARTILE
360
10019
  0
DICTIONARY
  5
10075
330
10050
100
AcDbDictionary
280
     1
281
     1
  3
ACAD_XREC_ROUNDTRIP
360
10076
  0
DICTIONARY
  5
10072
330
10039
100
AcDbDictionary
280
     1
281
     1
  3
ACAD_ROUNDTRIP_2008_TABLESTYLE_CELLSTYLEMAP
360
10073
  0
XRECORD
  5
10078
102
{ACAD_REACTORS
330
10077
102
}
330
10077
100
AcDbXrecord
280
     1
102
DISPLAYNAME
  1
Imperial24
102
FLAGS
 90
        0
  0
XRECORD
  5
10010
102
{ACAD_REACTORS
330
1000E
102
}
330
1000E
100
AcDbXrecord
280
     1
270
     1
271
     1
  0
XRECORD
  5
1000F
102
{ACAD_REACTORS
330
1000E
102
}
330
1000E
100
AcDbXrecord
280
     1
270
     1
271
     1
  0
XRECORD
  5
10013
102
{ACAD_REACTORS
330
1000E
102
}
330
1000E
100
AcDbXrecord
280
     1
270
     1
271
     1
  0
XRECORD
  5
10012
102
{ACAD_REACTORS
330
1000E
102
}
330
1000E
100
AcDbXrecord
280
     1
270
     1
271
     1
  0
XRECORD
  5
10014
102
{ACAD_REACTORS
330
1000E
102
}
330
1000E
100
AcDbXrecord
280
     1
270
     1
271
     1
  0
XRECORD
  5
10011
102
{ACAD_REACTORS
330
1000E
102
}
330
1000E
100
AcDbXrecord
280
     1
270
     1
271
     1
  0
XRECORD
  5
10008
102
{ACAD_REACTORS
330
10006
102
}
330
10006
100
AcDbXrecord
280
     1
270
     1
271
     1
  0
XRECORD
  5
10007
102
{ACAD_REACTORS
330
10006
102
}
330
10006
100
AcDbXrecord
280
     1
270
     1
271
     1
  0
XRECORD
  5
1000B
102
{ACAD_REACTORS
330
10006
102
}
330
10006
100
AcDbXrecord
280
     1
270
     1
271
     1
  0
XRECORD
  5
1000A
102
{ACAD_REACTORS
330
10006
102
}
330
10006
100
AcDbXrecord
280
     1
270
     1
271
     1
  0
XRECORD
  5
1000C
102
{ACAD_REACTORS
330
10006
102
}
330
10006
100
AcDbXrecord
280
     1
270
     1
271
     1
  0
XRECORD
  5
10009
102
{ACAD_REACTORS
330
10006
102
}
330
10006
100
AcDbXrecord
280
     1
270
     1
271
     1
  0
XRECORD
  5
10018
102
{ACAD_REACTORS
330
10016
102
}
330
10016
100
AcDbXrecord
280
     1
270
     1
271
     1
  0
XRECORD
  5
10017
102
{ACAD_REACTORS
330
10016
102
}
330
10016
100
AcDbXrecord
280
     1
270
     1
271
     1
  0
XRECORD
  5
1001B
102
{ACAD_REACTORS
330
10016
102
}
330
10016
100
AcDbXrecord
280
     1
270
     1
271
     1
  0
XRECORD
  5
1001A
102
{ACAD_REACTORS
330
10016
102
}
330
10016
100
AcDbXrecord
280
     1
270
     1
271
     1
  0
XRECORD
  5
1001C
102
{ACAD_REACTORS
330
10016
102
}
330
10016
100
AcDbXrecord
280
     1
270
     1
271
     1
  0
XRECORD
  5
10019
102
{ACAD_REACTORS
330
10016
102
}
330
10016
100
AcDbXrecord
280
     1
270
     1
271
     1
  0
XRECORD
  5
10076
102
{ACAD_REACTORS
330
10075
102
}
330
10075
100
AcDbXrecord
280
     1
102
DISPLAYNAME
  1
Imperial24
102
FLAGS
 90
        0
  0
CELLSTYLEMAP
  5
10073
102
{ACAD_REACTORS
330
10072
102
}
330
10072
100
AcDbCellStyleMap
 90
        3
300
CELLSTYLE
  1
TABLEFORMAT_BEGIN
 90
        5
170
     1
 91
        0
 92
    32768
 62
   257
 93
        1
300
CONTENTFORMAT
  1
CONTENTFORMAT_BEGIN
 90
        0
 91
        0
 92
      512
 93
        0
300

 40
0.0
140
1.0
 94
        5
 62
     0
340
11
144
0.25
309
CONTENTFORMAT_END
171
     0
 94
        0
309
TABLEFORMAT_END
  1
CELLSTYLE_BEGIN
 90
        1
 91
        1
300
_TITLE
309
CELLSTYLE_END
300
CELLSTYLE
  1
TABLEFORMAT_BEGIN
 90
        5
170
     1
 91
        0
 92
        0
 62
   257
 93
        1
300
CONTENTFORMAT
  1
CONTENTFORMAT_BEGIN
 90
        0
 91
        0
 92
      512
 93
        0
300

 40
0.0
140
1.0
 94
        5
 62
     0
340
11
144
0.18
309
CONTENTFORMAT_END
171
     0
 94
        0
309
TABLEFORMAT_END
  1
CELLSTYLE_BEGIN
 90
        2
 91
        1
300
_HEADER
309
CELLSTYLE_END
300
CELLSTYLE
  1
TABLEFORMAT_BEGIN
 90
        5
170
     1
 91
        0
 92
        0
 62
   257
 93
        1
300
CONTENTFORMAT
  1
CONTENTFORMAT_BEGIN
 90
        0
 91
        0
 92
      512
 93
        0
300

 40
0.0
140
1.0
 94
        2
 62
     0
340
11
144
0.18
309
CONTENTFORMAT_END
171
     0
 94
        0
309
TABLEFORMAT_END
  1
CELLSTYLE_BEGIN
 90
        3
 91
        2
300
_DATA
309
CELLSTYLE_END
  0
ENDSEC
  0
EOF
