0
SECTION
2
HEADER
9
$INSUNITS
70
4
9
$ACADVER
1
AC1014
9
$HANDSEED
5
FFFF
0
ENDSEC
0
SECTION
2
TABLES
0
TABLE
2
VPORT
5
8
100
AcDbSymbolTable
0
ENDTAB
0
TABLE
2
LTYPE
5
5
100
AcDbSymbolTable
0
LTYPE
5
14
100
AcDbSymbolTableRecord
100
AcDbLinetypeTableRecord
2
BYBLOCK
70
0
0
LTYPE
5
15
100
AcDbSymbolTableRecord
100
AcDbLinetypeTableRecord
2
BYLAYER
70
0
0
ENDTAB
0
TABLE
2
LAYER
5
2
100
AcDbSymbolTable
70
2
0
LAYER
5
50
100
AcDbSymbolTableRecord
100
AcDbLayerTableRecord
2
0
70
0
6
CONTINUOUS
0
ENDTAB
0
TABLE
2
STYLE
5
3
100
AcDbSymbolTable
70
1
0
STYLE
5
11
100
AcDbSymbolTableRecord
100
AcDbTextStyleTableRecord
2
STANDARD
70
0
0
ENDTAB
0
TABLE
2
VIEW
5
6
100
AcDbSymbolTable
70
0
0
ENDTAB
0
TABLE
2
UCS
5
7
100
AcDbSymbolTable
70
0
0
ENDTAB
0
TABLE
2
APPID
5
9
100
AcDbSymbolTable
70
2
0
APPID
5
12
100
AcDbSymbolTableRecord
100
AcDbRegAppTableRecord
2
ACAD
70
0
0
ENDTAB
0
TABLE
2
DIMSTYLE
5
A
100
AcDbSymbolTable
70
1
0
ENDTAB
0
TABLE
2
BLOCK_RECORD
5
1
100
AcDbSymbolTable
70
1
0
BLOCK_RECORD
5
1F
100
AcDbSymbolTableRecord
100
AcDbBlockTableRecord
2
*MODEL_SPACE
0
BLOCK_RECORD
5
1B
100
AcDbSymbolTableRecord
100
AcDbBlockTableRecord
2
*PAPER_SPACE
0
ENDTAB
0
ENDSEC
0
SECTION
2
BLOCKS
0
BLOCK
5
20
100
AcDbEntity
100
AcDbBlockBegin
2
*MODEL_SPACE
0
ENDBLK
5
21
100
AcDbEntity
100
AcDbBlockEnd
0
BLOCK
5
1C
100
AcDbEntity
100
AcDbBlockBegin
2
*PAPER_SPACE
0
ENDBLK
5
1D
100
AcDbEntity
100
AcDbBlockEnd
0
ENDSEC
0
SECTION
2
ENTITIES
0
LWPOLYLINE
5
100
100
AcDbEntity
8
0
100
AcDbPolyline
90
91
70
1
43
0.0
10
444.80265359530017
20
-410.62086886952642
42
0.41421356237299095
10
445.80265359529994
20
-411.6208688695263
10
501.80265858358393
20
-411.62086886953909
42
0.41421356237315748
10
502.80265858358416
20
-410.62086886953955
10
502.8026585835845
20
-409.32128072583816
42
0.41421356237299095
10
501.80265858358473
20
-408.32128072583828
10
490.32945569150479
20
-408.32128072583555
10
490.32945569150519
20
-406.26728072583609
10
544.37472665393716
20
-406.26728072584626
42
-0.054018590120400084
10
544.80311065788123
20
-406.31369757042023
10
559.87472665393818
20
-406.31369757042415
10
559.87472665393761
20
-408.36769757042475
10
548.37472665393773
20
-408.36769757042202
42
0.41421356237319906
10
547.3747266539375
20
-409.36769757042151
10
547.37472665393716
20
-410.66728571412182
42
0.41421356237301177
10
548.37472665393693
20
-411.66728571412182
10
604.37473164222092
20
-411.66728571413375
42
0.41421356237315748
10
605.37473164222115
20
-410.66728571413415
10
605.37473164222149
20
-409.36769757043476
42
0.4142135623730534
10
604.37473164222172
20
-408.36769757043476
10
592.90152875014167
20
-408.36769757043214
10
592.90152875014212
20
-406.31369757043154
10
607.94634763827605
20
-406.31369757043473
42
-0.054018590120545169
10
608.37473164222115
20
-406.26728072586076
10
647.00022665393715
20
-406.26728072586968
42
-0.054018590120766638
10
647.42861065788406
20
-406.31369757044422
10
662.50022665393908
20
-406.3136975704474
10
662.50022665393874
20
-408.36769757044692
10
651.00022665393772
20
-408.36769757044431
42
0.4142135623731783
10
650.0002266539376
20
-409.36769757044488
10
650.00022665393726
20
-410.66728571414421
42
0.4142135623732407
10
651.00022665393692
20
-411.66728571414501
10
707.00023164222102
20
-411.66728571415672
42
0.4142135623731783
10
708.00023164222125
20
-410.6672857141574
10
708.00023164222148
20
-409.36769757045801
42
0.41421356237332396
10
707.00023164222171
20
-408.3676975704571
10
695.52702875014165
20
-408.36769757045442
10
695.52702875014211
20
-406.31369757045479
10
710.57184763827297
20
-406.31369757045769
42
-0.054018590120947577
10
711.00023164222125
20
-406.2672807258831
10
717.8348891433202
20
-406.26728072588458
42
0.41421356237321988
10
719.83488914332065
20
-404.26728072588469
10
719.83488914334112
20
-313.11729629531646
42
0.414213562373069
10
717.83488914334157
20
-311.11729629531618
10
695.55022852405364
20
-311.1172962953118
10
695.55022852405386
20
-309.46729629531251
10
707.05022852405375
20
-309.46729629531512
42
0.41421356237309503
10
708.05022852405398
20
-308.46729629531575
10
708.05022852405443
20
-307.16728686582479
42
0.41421356237312623
10
707.05022852405466
20
-306.16728686582451
10
650.95022684021967
20
-306.16728686581189
42
0.41421356237311585
10
649.95022684021944
20
-307.16728686581155
10
649.95022684021922
20
-308.4672962953025
42
0.41421356237310542
10
650.95022684021887
20
-309.46729629530284
10
662.52342642785084
20
-309.467296295305
10
662.5234264278505
20
-311.11729629530538
10
647.02342642785061
20
-311.11729629530208
10
647.02342642785061
20
-311.1159563014981
42
-0.0091522480098908034
10
646.95022684021853
20
-311.11729629530134
10
603.53702893642151
20
-311.117296295291
10
603.53702893642185
20
-309.46729629529165
10
615.03702893642196
20
-309.4672962952942
42
0.41421356237315748
10
616.03702893642219
20
-308.46729629529369
10
616.0370289364223
20
-307.16728686580382
42
0.41421356237306384
10
615.03702893642264
20
-306.16728686580376
10
559.01022684021962
20
-306.16728686579103
42
0.41421356237303258
10
558.01022684021939
20
-307.16728686579069
10
558.01022684021905
20
-308.46729629528062
42
0.41421356237318868
10
559.01022684021893
20
-309.46729629528113
10
570.51022684021882
20
-309.46729629528409
10
570.51022684021848
20
-311.11729629528338
10
511.53702893642253
20
-311.11729629527014
10
511.53702893642287
20
-309.46729629527078
10
523.03702893642185
20
-309.46729629527334
42
0.41421356237319906
10
524.03702893642208
20
-308.46729629527289
10
524.03702893642242
20
-307.16728686578301
42
0.4142135623730222
10
523.03702893642264
20
-306.16728686578307
10
467.01022684021962
20
-306.16728686577017
42
0.41421356237295975
10
466.01022684021939
20
-307.16728686576977
10
466.01022684021916
20
-308.4672962952597
42
0.41421356237325113
10
467.01022684021893
20
-309.46729629526044
10
478.51022684021893
20
-309.46729629526328
10
478.51022684021859
20
-311.11729629526263
10
434.9002292883136
20
-311.11729629525263
42
0.41421356237301177
10
432.90022928831308
20
-313.11729629525166
10
432.90022928829262
20
-404.26728072582273
42
0.41421356237316787
10
434.90022928829217
20
-406.26728072582358
10
457.30265359530114
20
-406.2672807258287
10
457.30265359530074
20
-408.3212807258281
10
445.80265359530074
20
-408.32128072582555
42
0.41421356237319906
10
444.80265359530046
20
-409.32128072582606
0
LWPOLYLINE
5
101
100
AcDbEntity
8
0
100
AcDbPolyline
90
4
70
1
43
0.0
10
642.52544999991767
20
-349.97679033620682
10
586.37544999991576
20
-349.97679033619443
42
-0.99999999999999989
10
586.3754499999161
20
-348.97679033619431
10
642.52544999991801
20
-348.97679033620733
42
-0.99999999999999989
0
LWPOLYLINE
5
102
100
AcDbEntity
8
0
100
AcDbPolyline
90
4
70
1
43
0.0
10
609.1879499999136
20
-369.02679033619967
10
553.03794999991146
20
-369.0267903361871
42
-0.99999999999999989
10
553.0379499999118
20
-368.02679033618699
10
609.18794999991371
20
-368.02679033619972
42
-0.99999999999999989
0
LWPOLYLINE
5
103
100
AcDbEntity
8
0
100
AcDbPolyline
90
4
70
1
43
0.0
10
678.38794999991353
20
-369.02679033621445
10
629.23794999991344
20
-369.02679033620359
42
-0.99999999999999989
10
629.23794999991378
20
-368.02679033620336
10
678.38794999991376
20
-368.02679033621467
42
-0.99999999999999989
0
LWPOLYLINE
5
104
100
AcDbEntity
8
0
100
AcDbPolyline
90
4
70
1
43
0.0
10
671.10044999992101
20
-330.926790336213
10
614.95044999992115
20
-330.92679033620038
42
-0.99999999999999989
10
614.95044999992137
20
-329.92679033620044
10
671.10044999992124
20
-329.92679033621334
42
-0.99999999999999989
0
LWPOLYLINE
5
105
100
AcDbEntity
8
0
100
AcDbPolyline
90
4
70
1
43
0.0
10
594.90044999992108
20
-330.92679033619567
10
538.7504499999211
20
-330.92679033618322
42
-0.99999999999999989
10
538.75044999992133
20
-329.92679033618316
10
594.90044999992142
20
-329.92679033619601
42
-0.99999999999999989
0
LWPOLYLINE
5
106
100
AcDbEntity
8
0
100
AcDbPolyline
90
8
70
1
43
0.0
10
671.51373308764903
20
-384.55109033621306
42
0.41421356237309503
10
672.01373308764892
20
-385.05109033621324
10
673.45711578209898
20
-385.05109033621358
42
0.41421356237309503
10
673.95711578209909
20
-384.55109033621369
10
673.95711578210194
20
-371.55179033621255
42
0.41421356237309503
10
673.45711578210216
20
-371.05179033621249
10
672.01373308765199
20
-371.05179033621209
42
0.41421356237309503
10
671.51373308765187
20
-371.55179033621198
0
LWPOLYLINE
5
107
100
AcDbEntity
8
0
100
AcDbPolyline
90
8
70
1
43
0.0
10
440.09501578209318
20
-366.00109033616127
42
0.41421356237309503
10
440.5950157820933
20
-365.50109033616133
10
440.5950157820962
20
-352.50179033616212
42
0.41421356237313667
10
440.09501578209631
20
-352.00179033616109
10
438.65163308765631
20
-352.00179033616166
42
0.4142135623730534
10
438.15163308765625
20
-352.50179033616155
10
438.15163308765335
20
-365.50109033616076
42
0.41421356237309503
10
438.65163308765318
20
-366.00109033616172
0
LWPOLYLINE
5
108
100
AcDbEntity
8
0
100
AcDbPolyline
90
16
70
1
43
0.0
10
444.25856765990898
20
-384.60505583616117
10
444.25856765990886
20
-385.59096066027348
42
-0.4142135623730534
10
443.75856765990869
20
-386.09096066027348
10
442.15856765990873
20
-386.09096066027297
42
-0.41421356237313667
10
441.65856765990884
20
-385.59096066027286
10
441.65856765990901
20
-384.60505583616055
42
0.4142135623730534
10
441.15856765990918
20
-384.10505583616043
10
439.55856765990916
20
-384.10505583616128
42
-0.41421356237309503
10
439.05856765990933
20
-383.60505583616117
10
439.05856765991177
20
-372.60505583616117
42
-0.41421356237309503
10
439.55856765991189
20
-372.10505583616134
10
446.35856765991184
20
-372.10505583616282
42
-0.41421356237309503
10
446.85856765991167
20
-372.60505583616293
10
446.85856765990934
20
-383.60505583616293
42
-0.41421356237309503
10
446.35856765990917
20
-384.10505583616282
10
444.75856765990909
20
-384.10505583616134
42
0.41421356237313667
0
LWPOLYLINE
5
109
100
AcDbEntity
8
0
100
AcDbPolyline
90
8
70
1
43
0.0
10
716.43076691217743
20
-346.95109033622265
42
0.41421356237309503
10
716.93076691217755
20
-346.45109033622282
10
716.93076691218039
20
-333.4517903362235
42
0.41421356237309503
10
716.43076691218062
20
-332.95179033622253
10
714.98738421774067
20
-332.95179033622298
42
0.41421356237313667
10
714.48738421774055
20
-333.45179033622293
10
714.48738421773771
20
-346.45109033622225
42
0.4142135623730534
10
714.98738421773749
20
-346.95109033622305
0
LWPOLYLINE
5
110
100
AcDbEntity
8
0
100
AcDbPolyline
90
16
70
1
43
0.0
10
687.1461676599132
20
-365.55505583621687
10
687.14616765991298
20
-366.54096066032827
42
-0.41421356237309503
10
686.64616765991286
20
-367.0409606603281
10
685.04616765991295
20
-367.04096066032776
42
-0.41421356237309503
10
684.54616765991318
20
-366.54096066032764
10
684.54616765991329
20
-365.55505583621624
42
0.4142135623730534
10
684.04616765991352
20
-365.05505583621618
10
682.4461676599135
20
-365.05505583621505
42
-0.4142135623731783
10
681.9461676599135
20
-364.55505583621493
10
681.94616765991611
20
-353.55505583621493
42
-0.41421356237309503
10
682.44616765991623
20
-353.05505583621505
10
689.24616765991618
20
-353.05505583621658
42
-0.41421356237309503
10
689.74616765991595
20
-353.5550558362167
10
689.74616765991345
20
-364.55505583621675
42
-0.41421356237301177
10
689.24616765991345
20
-365.05505583621652
10
687.64616765991354
20
-365.05505583621704
42
0.41421356237313667
0
LWPOLYLINE
5
111
100
AcDbEntity
8
0
100
AcDbPolyline
90
23
70
1
43
0.0
10
618.34250907464582
20
-398.63381359811046
10
618.34250907464491
20
-402.66127667991293
42
-0.41421356237309503
10
617.84250907464479
20
-403.16127667991287
10
611.04250907464484
20
-403.16127667991123
42
-0.41421356237309503
10
610.54250907464495
20
-402.66127667991123
10
610.54250907464495
20
-402.62706173619961
10
610.54962899224495
20
-402.6270617361987
10
610.54962899224745
20
-391.57702033619847
10
610.54965933228766
20
-391.57702033619853
42
-0.36544664616275996
10
611.04250907464757
20
-391.16127667991134
10
612.64250907464759
20
-391.16127667991185
42
0.4142135623730534
10
613.14250907464771
20
-390.66127667991213
10
613.14250907464782
20
-389.6753718558017
42
-0.41421356237313667
10
613.64250907464805
20
-389.1753718558017
10
615.24250907464807
20
-389.17537185580215
42
-0.41421356237309503
10
615.74250907464784
20
-389.67537185580227
10
615.74250907464773
20
-390.6612766799127
42
0.41421356237313667
10
616.24250907464761
20
-391.1612766799127
10
617.84250907464752
20
-391.16127667991293
42
-0.4142135623730534
10
618.3425090746473
20
-391.66127667991299
10
618.34250907464661
20
-395.5702684742912
10
618.34252928392652
20
-395.5702684742912
10
618.34252928392584
20
-398.63381359811143
0
LWPOLYLINE
5
112
100
AcDbEntity
8
0
100
AcDbPolyline
90
8
70
1
43
0.0
10
436.50067499992497
20
-313.90179033615948
42
0.41421356237313667
10
436.00067499992485
20
-314.40179033615942
10
436.0006749999219
20
-327.4010903361596
42
0.41421356237309503
10
436.50067499992184
20
-327.90109033615954
10
449.50022499992178
20
-327.90109033616267
42
0.4142135623730534
10
450.00022499992184
20
-327.40109033616284
10
450.00022499992474
20
-314.40179033616266
42
0.41421356237309503
10
449.50022499992491
20
-313.90179033616266
0
LWPOLYLINE
5
113
100
AcDbEntity
8
0
100
AcDbPolyline
90
8
70
1
43
0.0
10
441.26317499992064
20
-332.9517903361608
42
0.41421356237313667
10
440.76317499992052
20
-333.45179033616085
10
440.76317499991762
20
-346.45109033616217
42
0.4142135623730534
10
441.2631749999174
20
-346.95109033616188
10
454.26272499991745
20
-346.95109033616416
42
0.41421356237309503
10
454.76272499991757
20
-346.45109033616427
10
454.76272499992047
20
-333.45179033616404
42
0.41421356237309503
10
454.26272499992069
20
-332.95179033616409
0
LWPOLYLINE
5
114
100
AcDbEntity
8
0
100
AcDbPolyline
90
8
70
1
43
0.0
10
464.57547499991762
20
-346.45109033616649
10
464.57547499992046
20
-333.45179033616625
42
-0.41421356237313667
10
465.07547499992063
20
-332.95179033616625
10
478.07502499992063
20
-332.95179033616927
42
-0.41421356237309503
10
478.57502499992046
20
-333.45179033616938
10
478.57502499991762
20
-346.45109033616961
42
-0.41421356237309503
10
478.07502499991745
20
-346.9510903361695
10
465.07547499991745
20
-346.95109033616654
42
-0.4142135623730534
0
LWPOLYLINE
5
115
100
AcDbEntity
8
0
100
AcDbPolyline
90
8
70
1
43
0.0
10
484.12527499992063
20
-332.95179033617057
42
0.41421356237309503
10
483.62527499992052
20
-333.45179033617052
10
483.62527499991762
20
-346.45109033617075
42
0.41421356237309503
10
484.12527499991745
20
-346.95109033617166
10
497.12482499991745
20
-346.95109033617393
42
0.41421356237313667
10
497.62482499991762
20
-346.45109033617405
10
497.62482499992046
20
-333.45179033617376
42
0.4142135623730534
10
497.12482499992063
20
-332.95179033617279
0
LWPOLYLINE
5
116
100
AcDbEntity
8
0
100
AcDbPolyline
90
8
70
1
43
0.0
10
493.15047499992181
20
-327.40109033617262
10
493.15047499992477
20
-314.40179033617244
42
-0.41421356237309503
10
493.65047499992494
20
-313.90179033617255
10
506.65002499992499
20
-313.90179033617551
42
-0.4142135623730534
10
507.15002499992477
20
-314.40179033617551
10
507.15002499992192
20
-327.40109033617568
42
-0.41421356237309503
10
506.65002499992181
20
-327.90109033617568
10
493.65047499992181
20
-327.90109033617279
42
-0.41421356237313667
0
LWPOLYLINE
5
117
100
AcDbEntity
8
0
100
AcDbPolyline
90
8
70
1
43
0.0
10
502.67527499991758
20
-346.45109033617518
10
502.67527499992042
20
-333.45179033617489
42
-0.41421356237309503
10
503.1752749999207
20
-332.95179033617495
10
516.1748249999207
20
-332.95179033617796
42
-0.4142135623730534
10
516.67482499992059
20
-333.45179033617802
10
516.67482499991763
20
-346.45109033617825
42
-0.41421356237313667
10
516.17482499991752
20
-346.9510903361782
10
503.17527499991746
20
-346.95109033617535
42
-0.41421356237309503
0
LWPOLYLINE
5
118
100
AcDbEntity
8
0
100
AcDbPolyline
90
8
70
1
43
0.0
10
521.72527499991759
20
-346.45109033617939
10
521.72527499992043
20
-333.45179033617916
42
-0.41421356237309503
10
522.22527499992066
20
-332.95179033617922
10
535.22482499992066
20
-332.95179033618126
42
-0.4142135623730534
10
535.72482499992043
20
-333.45179033618132
10
535.72482499991759
20
-346.45109033618257
42
-0.41421356237313667
10
535.22482499991747
20
-346.95109033618246
10
522.22527499991747
20
-346.95109033617962
42
-0.41421356237309503
0
LWPOLYLINE
5
119
100
AcDbEntity
8
0
100
AcDbPolyline
90
8
70
1
43
0.0
10
541.27504999992061
20
-332.95179033618263
42
0.41421356237309503
10
540.7750499999205
20
-333.45179033618246
10
540.77504999991766
20
-346.45179033618388
42
0.41421356237309503
10
541.27504999991743
20
-346.95179033618399
10
554.27504999991743
20
-346.95179033618706
42
0.41421356237309503
10
554.77504999991754
20
-346.45179033618712
10
554.77504999992038
20
-333.45179033618564
42
0.41421356237309503
10
554.27504999992061
20
-332.95179033618575
0
LWPOLYLINE
5
120
100
AcDbEntity
8
0
100
AcDbPolyline
90
8
70
1
43
0.0
10
559.82504999991761
20
-346.45179033618825
10
559.82504999992057
20
-333.45179033618678
42
-0.41421356237313667
10
560.32504999992068
20
-332.95179033618689
10
573.32504999992068
20
-332.95179033618979
42
-0.41421356237309503
10
573.82504999992057
20
-333.4517903361899
10
573.82504999991772
20
-346.45179033619138
42
-0.41421356237309503
10
573.3250499999175
20
-346.95179033619132
10
560.3250499999175
20
-346.95179033618837
42
-0.4142135623730534
0
LWPOLYLINE
5
121
100
AcDbEntity
8
0
100
AcDbPolyline
90
8
70
1
43
0.0
10
578.87504999991756
20
-346.45179033619263
10
578.87504999992041
20
-333.45179033619223
42
-0.41421356237313667
10
579.37504999992063
20
-332.95179033619218
10
592.37504999992063
20
-332.95179033619422
42
-0.41421356237309503
10
592.87504999992041
20
-333.45179033619434
10
592.87504999991756
20
-346.45179033619576
42
-0.41421356237309503
10
592.37504999991745
20
-346.9517903361957
10
579.37504999991745
20
-346.95179033619269
42
-0.4142135623730534
0
LWPOLYLINE
5
122
100
AcDbEntity
8
0
100
AcDbPolyline
90
8
70
1
43
0.0
10
620.95002499992177
20
-327.90109033620064
42
0.41421356237309503
10
621.45002499992177
20
-327.4010903362007
10
621.45002499992472
20
-314.40179033620149
42
0.4142135623730534
10
620.95002499992484
20
-313.90179033620052
10
607.95047499992495
20
-313.90179033619836
42
0.41421356237313667
10
607.45047499992472
20
-314.40179033619825
10
607.45047499992188
20
-327.40109033619842
42
0.41421356237309503
10
607.95047499992177
20
-327.90109033619842
0
LWPOLYLINE
5
123
100
AcDbEntity
8
0
100
AcDbPolyline
90
8
70
1
43
0.0
10
640.00002499992183
20
-327.90109033620581
10
627.00047499992274
20
-327.90109033620195
42
-0.41421356237313667
10
626.50047499992286
20
-327.40109033620183
10
626.5004749999257
20
-314.40179033620262
42
-0.41421356237309503
10
627.00047499992581
20
-313.90179033620279
10
640.0000249999249
20
-313.90179033620575
42
-0.41421356237313667
10
640.5000249999249
20
-314.40179033620575
10
640.50002499992274
20
-327.40109033620502
42
-0.41421356237313667
0
LWPOLYLINE
5
124
100
AcDbEntity
8
0
100
AcDbPolyline
90
8
70
1
43
0.0
10
650.02504999992141
20
-333.45179033620718
10
650.02504999991868
20
-346.45179033620866
42
-0.41421356237313667
10
649.52504999991845
20
-346.95179033620866
10
636.52504999991743
20
-346.95179033620559
42
-0.41421356237309503
10
636.02504999991754
20
-346.45179033620548
10
636.02504999992038
20
-333.45179033620514
42
-0.41421356237309503
10
636.52504999992061
20
-332.95179033620519
10
649.52504999992152
20
-332.95179033620713
42
-0.4142135623730534
0
LWPOLYLINE
5
125
100
AcDbEntity
8
0
100
AcDbPolyline
90
8
70
1
43
0.0
10
655.07527499991761
20
-346.45109033620963
10
655.07527499992057
20
-333.45179033620832
42
-0.41421356237309503
10
655.57527499992057
20
-332.95179033620849
10
668.57482499992045
20
-332.9517903362115
42
-0.4142135623730534
10
669.07482499992045
20
-333.45179033621156
10
669.07482499991772
20
-346.45109033621281
42
-0.41421356237313667
10
668.5748249999175
20
-346.95109033621281
10
655.5752749999175
20
-346.95109033620975
42
-0.41421356237309503
0
LWPOLYLINE
5
126
100
AcDbEntity
8
0
100
AcDbPolyline
90
8
70
1
43
0.0
10
697.93847499991773
20
-346.45109033621935
42
0.4142135623730534
10
698.4384749999175
20
-346.95109033621947
10
711.4380249999175
20
-346.95109033622248
42
0.41421356237309503
10
711.93802499991762
20
-346.45109033622259
10
711.93802499992046
20
-333.45179033622128
42
0.41421356237309503
10
711.43802499992057
20
-332.95179033622139
10
698.43847499992069
20
-332.95179033621815
42
0.41421356237313667
10
697.93847499992057
20
-333.4517903362181
0
LWPOLYLINE
5
127
100
AcDbEntity
8
0
100
AcDbPolyline
90
24
70
1
43
0.0
10
689.52716765992159
20
-328.40109033621775
10
689.52716765992159
20
-328.44096066032796
42
-0.41421356237301177
10
689.0271676599217
20
-328.94096066032785
10
687.42716765992157
20
-328.94096066032745
42
-0.41421356237313667
10
686.92716765992157
20
-328.44096066032739
10
686.92716765992157
20
-328.40109033621718
42
0.41421356237309503
10
686.42716765992179
20
-327.90109033621707
10
684.1504749999217
20
-327.90109033621485
42
-0.41421356237309503
10
683.65047499992193
20
-327.40109033621474
10
683.65047499992488
20
-314.40179033621553
42
-0.41421356237301177
10
684.15047499992488
20
-313.9017903362157
10
716.20002499992484
20
-313.90179033622201
42
-0.4142135623731783
10
716.70002499992484
20
-314.40179033622212
10
716.70002499992177
20
-327.4010903362223
42
-0.41421356237309503
10
716.20002499992165
20
-327.90109033622218
10
713.82616765992168
20
-327.90109033622258
42
0.41421356237309503
10
713.32616765992157
20
-328.40109033622218
10
713.32616765992168
20
-328.44096066033336
42
-0.4142135623730534
10
712.82616765992157
20
-328.94096066033342
10
711.22616765992166
20
-328.94096066033291
42
-0.4142135623731783
10
710.72616765992166
20
-328.44096066033279
10
710.72616765992154
20
-328.40109033622161
42
0.41421356237309503
10
710.22616765992166
20
-327.9010903362215
10
690.02716765992182
20
-327.90109033621712
42
0.41421356237309503
0
LWPOLYLINE
5
128
100
AcDbEntity
8
0
100
AcDbPolyline
90
8
70
1
43
0.0
10
673.83753221991606
20
-352.50181319621356
42
0.4142135623730534
10
673.33753221991628
20
-352.00181319621333
10
660.33753221991628
20
-352.00181319621038
42
0.41421356237309503
10
659.83753221991617
20
-352.50181319621026
10
659.83753221991333
20
-365.50181319621174
42
0.41421356237309503
10
660.33753221991321
20
-366.0018131962118
10
673.3375322199131
20
-366.00181319621493
42
0.41421356237313667
10
673.83753221991333
20
-365.50181319621487
0
LWPOLYLINE
5
129
100
AcDbEntity
8
0
100
AcDbPolyline
90
8
70
1
43
0.0
10
650.8125322199121
20
-371.05181319620988
10
663.81253221991199
20
-371.05181319621266
42
-0.41421356237309503
10
664.31253221991187
20
-371.55181319621278
10
664.31253221990903
20
-384.55181319621317
42
-0.41421356237313667
10
663.81253221990892
20
-385.05181319621306
10
650.81253221990892
20
-385.05181319621016
42
-0.41421356237309503
10
650.31253221990914
20
-384.55181319621005
10
650.3125322199121
20
-371.55181319620959
42
-0.41421356237309503
0
LWPOLYLINE
5
130
100
AcDbEntity
8
0
100
AcDbPolyline
90
8
70
1
43
0.0
10
631.76253221991215
20
-371.0518131962055
42
0.4142135623730534
10
631.26253221991203
20
-371.55181319620533
10
631.26253221990919
20
-384.55181319620579
42
0.41421356237309503
10
631.76253221990896
20
-385.05181319620681
10
644.76253221990896
20
-385.0518131962088
42
0.41421356237313667
10
645.26253221990919
20
-384.55181319620891
10
645.26253221991192
20
-371.55181319620851
42
0.41421356237309503
10
644.76253221991215
20
-371.05181319620851
0
LWPOLYLINE
5
131
100
AcDbEntity
8
0
100
AcDbPolyline
90
8
70
1
43
0.0
10
612.71253221991196
20
-371.05181319620101
42
0.41421356237309503
10
612.21253221991196
20
-371.55181319620101
10
612.21253221990901
20
-384.55181319620237
42
0.4142135623730534
10
612.71253221990889
20
-385.05181319620237
10
625.71253221990889
20
-385.05181319620544
42
0.41421356237313667
10
626.21253221990901
20
-384.5518131962055
10
626.21253221991185
20
-371.55181319620408
42
0.41421356237309503
10
625.71253221991196
20
-371.05181319620414
0
LWPOLYLINE
5
132
100
AcDbEntity
8
0
100
AcDbPolyline
90
8
70
1
43
0.0
10
597.63753221991624
20
-352.50181319619628
42
0.41421356237313667
10
597.13753221991635
20
-352.00181319619605
10
584.13753221991635
20
-352.0018131961931
42
0.41421356237309503
10
583.63753221991624
20
-352.50181319619315
10
583.6375322199134
20
-365.50181319619463
42
0.4142135623730534
10
584.13753221991317
20
-366.00181319619452
10
597.13753221991328
20
-366.00181319619765
42
0.41421356237309503
10
597.6375322199134
20
-365.50181319619776
0
LWPOLYLINE
5
133
100
AcDbEntity
8
0
100
AcDbPolyline
90
8
70
1
43
0.0
10
697.93847499990488
20
-403.60112033621868
42
0.4142135623730534
10
698.43847499990477
20
-404.10112033621886
10
713.81902499990474
20
-404.10112033622232
42
0.41421356237313667
10
714.31902499990485
20
-403.60112033622227
10
714.3190249999077
20
-390.60182033622419
42
0.4142135623730534
10
713.81902499990792
20
-390.10182033622311
10
698.43847499990784
20
-390.10182033621959
42
0.41421356237313667
10
697.93847499990773
20
-390.60182033621948
0
LWPOLYLINE
5
134
100
AcDbEntity
8
0
100
AcDbPolyline
90
8
70
1
43
0.0
10
650.81292499990786
20
-390.10205033620787
42
0.41421356237309503
10
650.31292499990764
20
-390.6020503362077
10
650.31292499990491
20
-403.60135033620895
42
0.41421356237309503
10
650.81292499990468
20
-404.1013503362089
10
666.19402499990474
20
-404.10135033621259
42
0.41421356237309503
10
666.69402499990485
20
-403.60135033621259
10
666.6940249999077
20
-390.60205033621139
42
0.41421356237309503
10
666.19402499990781
20
-390.10205033621043
0
LWPOLYLINE
5
135
100
AcDbEntity
8
0
100
AcDbPolyline
90
8
70
1
43
0.0
10
578.58753221991617
20
-352.50181319619293
10
578.58753221991344
20
-365.50181319619332
42
-0.41421356237309503
10
578.08753221991321
20
-366.00181319619332
10
565.0875322199131
20
-366.00181319619026
42
-0.4142135623730534
10
564.58753221991333
20
-365.5018131961902
10
564.58753221991617
20
-352.5018131961898
42
-0.41421356237309503
10
565.08753221991628
20
-352.00181319618986
10
578.08753221991628
20
-352.00181319619281
42
-0.41421356237313667
0
LWPOLYLINE
5
136
100
AcDbEntity
8
0
100
AcDbPolyline
90
8
70
1
43
0.0
10
555.5625322199121
20
-371.05181319618816
42
0.41421356237301177
10
555.06253221991199
20
-371.55181319618799
10
555.06253221990914
20
-384.55181319618941
42
0.41421356237309503
10
555.56253221990892
20
-385.05181319618947
10
568.56253221990892
20
-385.05181319619254
42
0.41421356237309503
10
569.06253221990914
20
-384.55181319619265
10
569.06253221991187
20
-371.55181319619123
42
0.4142135623731783
10
568.56253221991199
20
-371.05181319619123
0
LWPOLYLINE
5
137
100
AcDbEntity
8
0
100
AcDbPolyline
90
8
70
1
43
0.0
10
536.51253221991215
20
-371.05181319618384
42
0.4142135623730534
10
536.01253221991203
20
-371.55181319618362
10
536.01253221990919
20
-384.55181319618504
42
0.41421356237313667
10
536.51253221990896
20
-385.05181319618509
10
549.51253221990896
20
-385.05181319618828
42
0.41421356237309503
10
550.01253221990908
20
-384.55181319618839
10
550.01253221991203
20
-371.55181319618697
42
0.4142135623731783
10
549.51253221991215
20
-371.05181319618691
0
LWPOLYLINE
5
138
100
AcDbEntity
8
0
100
AcDbPolyline
90
8
70
1
43
0.0
10
540.48730721991728
20
-352.50181319618434
10
540.48730721991342
20
-365.50111319618253
42
-0.41421356237367774
10
539.98730721991319
20
-366.00111319618344
10
526.98775721991319
20
-366.00111319618043
42
-0.41421356237309503
10
526.48775721991342
20
-365.50111319618031
10
526.48775721991615
20
-352.50181319618116
42
-0.4142135623730534
10
526.98775721991638
20
-352.00181319618116
10
539.98730721991637
20
-352.00181319618332
42
-0.41421356237309503
0
LWPOLYLINE
5
139
100
AcDbEntity
8
0
100
AcDbPolyline
90
8
70
1
43
0.0
10
521.43730721991619
20
-352.50181319618002
10
521.43730721991335
20
-365.50111319617918
42
-0.41421356237313667
10
520.93730721991324
20
-366.00111319617918
10
507.93775721991318
20
-366.00111319617616
42
-0.41421356237309503
10
507.43775721991335
20
-365.50111319617605
10
507.43775721991608
20
-352.5018131961769
42
-0.4142135623730534
10
507.93775721991631
20
-352.0018131961769
10
520.93730721991631
20
-352.00181319617997
42
-0.41421356237309503
0
LWPOLYLINE
5
140
100
AcDbEntity
8
0
100
AcDbPolyline
90
8
70
1
43
0.0
10
497.91275721990905
20
-384.55111319617424
10
497.91275721991201
20
-371.55181319617407
42
-0.4142135623730534
10
498.41275721991212
20
-371.05181319617418
10
511.41230721991207
20
-371.05181319617719
42
-0.41421356237309503
10
511.91230721991195
20
-371.55181319617725
10
511.91230721990917
20
-384.55111319617743
42
-0.41421356237313667
10
511.41230721990894
20
-385.05111319617748
10
498.41275721990894
20
-385.05111319617441
42
-0.41421356237309503
0
LWPOLYLINE
5
141
100
AcDbEntity
8
0
100
AcDbPolyline
90
8
70
1
43
0.0
10
479.36295721991206
20
-371.05181319617003
10
492.36250721991206
20
-371.05181319617287
42
-0.41421356237309503
10
492.86250721991195
20
-371.55181319617293
10
492.86250721990911
20
-384.55111319617311
42
-0.41421356237313667
10
492.36250721990893
20
-385.05111319617305
10
479.36295721990894
20
-385.05111319617004
42
-0.4142135623730534
10
478.86295721990911
20
-384.55111319616998
10
478.86295721991218
20
-371.5518131961698
42
-0.41421356237309503
0
LWPOLYLINE
5
142
100
AcDbEntity
8
0
100
AcDbPolyline
90
8
70
1
43
0.0
10
462.19302499990476
20
-403.6011203361652
10
462.19302499990772
20
-390.60182033616593
42
-0.4142135623730534
10
462.69302499990778
20
-390.1018203361661
10
478.07502499990778
20
-390.10182033616962
42
-0.41421356237313667
10
478.57502499990767
20
-390.60182033616974
10
478.57502499990488
20
-403.60112033616895
42
-0.41421356237309503
10
478.0750249999046
20
-404.10112033616889
10
462.69302499990465
20
-404.10112033616537
42
-0.41421356237309503
0
LWPOLYLINE
5
143
100
AcDbEntity
8
0
100
AcDbPolyline
90
8
70
1
43
0.0
10
438.38193499990484
20
-403.60112033615985
10
438.38193499990774
20
-390.60182033616059
42
-0.4142135623730534
10
438.8819349999078
20
-390.10182033616076
10
454.26272499990779
20
-390.10182033616417
42
-0.41421356237313667
10
454.76272499990773
20
-390.60182033616428
10
454.76272499990489
20
-403.60112033616355
42
-0.41421356237309503
10
454.26272499990466
20
-404.10112033616343
10
438.88193499990462
20
-404.10112033615997
42
-0.41421356237309503
0
LWPOLYLINE
5
144
100
AcDbEntity
8
0
100
AcDbPolyline
90
8
70
1
43
0.0
10
448.40687499991202
20
-371.05179033616133
42
0.4142135623730534
10
447.90687499991202
20
-371.55179033616116
10
447.90687499990906
20
-384.55109033616145
42
0.41421356237309503
10
448.40687499990895
20
-385.05109033616134
10
461.40642499990895
20
-385.05109033616463
42
0.41421356237313667
10
461.90642499990906
20
-384.55109033616463
10
461.90642499991202
20
-371.5517903361644
42
0.41421356237309503
10
461.40642499991208
20
-371.05179033616446
0
LWPOLYLINE
5
145
100
AcDbEntity
8
0
100
AcDbPolyline
90
8
70
1
43
0.0
10
486.00702499990484
20
-403.60112033617054
10
486.00702499990769
20
-390.60182033617139
42
-0.4142135623730534
10
486.5070249999078
20
-390.1018203361715
10
501.88752499990778
20
-390.10182033617502
42
-0.41421356237309503
10
502.38752499990767
20
-390.60182033617508
10
502.38752499990488
20
-403.60112033617526
42
-0.41421356237313667
10
501.88752499990466
20
-404.10112033617531
10
486.50702499990467
20
-404.10112033617065
42
-0.41421356237309503
0
LWPOLYLINE
5
146
100
AcDbEntity
8
0
100
AcDbPolyline
90
8
70
1
43
0.0
10
502.38730721991629
20
-352.50181319617576
10
502.3873072199134
20
-365.50111319617491
42
-0.41421356237313667
10
501.88730721991317
20
-366.00111319617491
10
488.88775721991323
20
-366.00111319617184
42
-0.41421356237309503
10
488.3877572199134
20
-365.50111319617173
10
488.38775721991624
20
-352.50181319617246
42
-0.4142135623730534
10
488.88775721991635
20
-352.00181319617258
10
501.88730721991635
20
-352.00181319617565
42
-0.41421356237309503
0
LWPOLYLINE
5
147
100
AcDbEntity
8
0
100
AcDbPolyline
90
8
70
1
43
0.0
10
516.96275721990901
20
-384.55111319617856
10
516.96275721991196
20
-371.55181319617839
42
-0.4142135623730534
10
517.46275721991208
20
-371.05181319617856
10
530.46230721991196
20
-371.05181319618146
42
-0.41421356237309503
10
530.96230721991196
20
-371.55181319618151
10
530.96230721990912
20
-384.55111319618169
42
-0.41421356237313667
10
530.46230721990889
20
-385.05111319618175
10
517.46275721990889
20
-385.05111319617873
42
-0.41421356237309503
0
LWPOLYLINE
5
148
100
AcDbEntity
8
0
100
AcDbPolyline
90
8
70
1
43
0.0
10
582.85002499990458
20
-404.10112033619362
42
0.41421356237309503
10
583.35002499990469
20
-403.60112033619367
10
583.35002499990765
20
-390.6018203361935
42
0.41421356237313667
10
582.85002499990776
20
-390.10182033619344
10
557.94302499990783
20
-390.10182033618776
42
0.4142135623730534
10
557.44302499990772
20
-390.60182033618764
10
557.44302499990488
20
-403.60112033618685
42
0.41421356237309503
10
557.94302499990476
20
-404.10112033618691
0
LWPOLYLINE
5
149
100
AcDbEntity
8
0
100
AcDbPolyline
90
8
70
1
43
0.0
10
559.53753221991622
20
-352.50181319618866
42
0.41421356237313667
10
559.03753221991633
20
-352.00181319618849
10
546.03753221991633
20
-352.00181319618559
42
0.4142135623730534
10
545.53753221991633
20
-352.50181319618548
10
545.53753221991337
20
-365.50181319618588
42
0.41421356237309503
10
546.03753221991315
20
-366.00181319618594
10
559.03753221991326
20
-366.00181319618906
42
0.41421356237309503
10
559.53753221991337
20
-365.50181319618906
0
LWPOLYLINE
5
150
100
AcDbEntity
8
0
100
AcDbPolyline
90
8
70
1
43
0.0
10
574.1125322199091
20
-384.55181319619379
10
574.11253221991285
20
-371.55181319619231
42
-0.4142135623730534
10
574.61253221991296
20
-371.05181319619243
10
587.61253221991205
20
-371.05181319619544
42
-0.41421356237313667
10
588.11253221991205
20
-371.55181319619555
10
588.11253221990921
20
-384.55181319619697
42
-0.41421356237309503
10
587.61253221990899
20
-385.05181319619686
10
574.61253221990989
20
-385.05181319619476
42
-0.4142135623730534
0
LWPOLYLINE
5
151
100
AcDbEntity
8
0
100
AcDbPolyline
90
14
70
1
43
0.0
10
632.69935907464799
20
-389.17537439580576
10
634.29935907464801
20
-389.17537439580593
42
-0.39272454420585395
10
634.79799360460959
20
-389.63844736600504
42
0.39272454420641134
10
635.29662813457082
20
-390.10152033620523
10
642.38102499990782
20
-390.10152033620659
42
-0.41421356237309503
10
642.88102499990771
20
-390.6015203362067
10
642.88102499990487
20
-403.60152033620705
42
-0.41421356237309503
10
642.38102499990475
20
-404.10152033620699
10
629.38102499990475
20
-404.10152033620392
42
-0.4142135623730534
10
628.88102499990487
20
-403.60152033620386
10
628.88102499990782
20
-390.60152033620341
42
-0.41421356237309503
10
629.38102499990782
20
-390.10152033620352
10
631.70209001472483
20
-390.1015203362042
42
0.39272454420642694
10
632.20072454468641
20
-389.63844736600447
42
-0.39272454420587105
0
LWPOLYLINE
5
152
100
AcDbEntity
8
0
100
AcDbPolyline
90
8
70
1
43
0.0
10
674.1254749999058
20
-403.60112033621317
10
674.12547499990774
20
-390.60182033621408
42
-0.41421356237309503
10
674.62547499990796
20
-390.10182033621425
10
690.00602499990782
20
-390.10182033621777
42
-0.4142135623730534
10
690.50602499990759
20
-390.60182033621777
10
690.50602499990487
20
-403.60112033621698
42
-0.41421356237313667
10
690.00602499990464
20
-404.10112033621704
10
674.62547499990569
20
-404.10112033621328
42
-0.41421356237309503
0
LWPOLYLINE
5
153
100
AcDbEntity
8
0
100
AcDbPolyline
90
8
70
1
43
0.0
10
593.16253221990917
20
-384.55181319619811
42
0.4142135623730534
10
593.66253221990894
20
-385.05181319619822
10
606.66253221990894
20
-385.05181319620112
42
0.41421356237309503
10
607.16253221990905
20
-384.55181319620124
10
607.16253221991201
20
-371.55181319619987
42
0.41421356237313667
10
606.66253221991201
20
-371.05181319619982
10
593.66253221991212
20
-371.05181319619675
42
0.41421356237309503
10
593.16253221991201
20
-371.55181319619669
0
LWPOLYLINE
5
154
100
AcDbEntity
8
0
100
AcDbPolyline
90
8
70
1
43
0.0
10
616.68753221991619
20
-352.50181319620054
42
0.41421356237313667
10
616.18753221991631
20
-352.00181319620026
10
603.18753221991631
20
-352.00181319619736
42
0.41421356237309503
10
602.68753221991619
20
-352.50181319619742
10
602.68753221991335
20
-365.5018131961989
42
0.4142135623730534
10
603.18753221991312
20
-366.00181319619878
10
616.18753221991324
20
-366.00181319620191
42
0.41421356237309503
10
616.68753221991335
20
-365.50181319620202
0
LWPOLYLINE
5
155
100
AcDbEntity
8
0
100
AcDbPolyline
90
8
70
1
43
0.0
10
622.23753221991637
20
-352.00181319620197
10
635.23753221991728
20
-352.00181319620481
42
-0.41421356237309503
10
635.73753221991717
20
-352.50181319620486
10
635.73753221991433
20
-365.50181319620634
42
-0.41421356237313667
10
635.2375322199141
20
-366.0018131962064
10
622.23753221991319
20
-366.00181319620327
42
-0.41421356237309503
10
621.73753221991342
20
-365.50181319620316
10
621.73753221991637
20
-352.50181319620168
42
-0.41421356237301177
0
LWPOLYLINE
5
156
100
AcDbEntity
8
0
100
AcDbPolyline
90
24
70
1
43
0.0
10
679.78516765990878
20
-385.5909574282262
10
679.78516765990878
20
-385.55109033621278
42
0.4142135623730534
10
679.28516765990889
20
-385.05109033621267
10
677.00647499990907
20
-385.05109033621233
42
-0.4142135623730534
10
676.50647499990907
20
-384.55109033621227
10
676.5064749999118
20
-371.55179033621408
42
-0.41421356237313667
10
677.00647499991203
20
-371.05179033621414
10
716.20002499991199
20
-371.05179033622312
42
-0.41421356237309503
10
716.70002499991188
20
-371.55179033622323
10
716.70002499990903
20
-384.55109033622142
42
-0.41421356237309503
10
716.20002499990892
20
-385.05109033622125
10
706.68416765990878
20
-385.05109033621892
42
0.41421356237313667
10
706.18416765990878
20
-385.55109033621977
10
706.18416765990878
20
-385.59095742823217
42
-0.41421356237309503
10
705.68416765990855
20
-386.09095742823206
10
704.08416765990864
20
-386.09095742823166
42
-0.41421356237309503
10
703.58416765990887
20
-385.59095742823155
10
703.58416765990887
20
-385.55109033621812
42
0.4142135623730534
10
703.08416765990899
20
-385.05109033621801
10
682.88516765990892
20
-385.05109033621358
42
0.41421356237309503
10
682.3851676599088
20
-385.55109033621432
10
682.3851676599088
20
-385.59095742822677
42
-0.41421356237313667
10
681.88516765990869
20
-386.09095742822672
10
680.28516765990855
20
-386.09095742822632
42
-0.41421356237309503
0
LWPOLYLINE
5
157
100
AcDbEntity
8
0
100
AcDbPolyline
90
8
70
1
43
0.0
10
641.28753221991633
20
-352.00181319620629
10
654.28753221991633
20
-352.00181319620913
42
-0.4142135623730534
10
654.7875322199161
20
-352.50181319620913
10
654.78753221991337
20
-365.50181319621061
42
-0.41421356237313667
10
654.28753221991315
20
-366.00181319621066
10
641.28753221991315
20
-366.00181319620759
42
-0.41421356237309503
10
640.78753221991337
20
-365.50181319620748
10
640.78753221991633
20
-352.501813196206
42
-0.41421356237309503
0
LWPOLYLINE
5
158
100
AcDbEntity
8
0
100
AcDbPolyline
90
8
70
1
43
0.0
10
704.79402499991625
20
-352.50179033622004
10
704.79402499991352
20
-365.50109033622118
42
-0.41421356237313667
10
704.29402499991329
20
-366.00109033622124
10
691.29447499991329
20
-366.00109033621823
42
-0.41421356237309503
10
690.79447499991352
20
-365.50109033621811
10
690.79447499991625
20
-352.50179033621691
42
-0.41421356237309503
10
691.29447499991647
20
-352.00179033621703
10
704.29402499991625
20
-352.00179033621998
42
-0.4142135623730534
0
LWPOLYLINE
5
159
100
AcDbEntity
8
0
100
AcDbPolyline
90
8
70
1
43
0.0
10
674.12527499991756
20
-346.45109033621395
10
674.12527499992052
20
-333.4517903362127
42
-0.41421356237309503
10
674.62527499992063
20
-332.95179033621281
10
687.62482499992063
20
-332.95179033621582
42
-0.41421356237309503
10
688.12482499992041
20
-333.45179033621594
10
688.12482499991779
20
-346.45109033621713
42
-0.41421356237309503
10
687.62482499991745
20
-346.95109033621702
10
674.62527499991756
20
-346.95109033621418
42
-0.41421356237309503
0
LWPOLYLINE
5
160
100
AcDbEntity
8
0
100
AcDbPolyline
90
8
70
1
43
0.0
10
678.6000249999247
20
-314.4017903362145
10
678.60002499992197
20
-327.40109033621366
42
-0.41421356237309503
10
678.10002499992163
20
-327.90109033621354
10
665.10047499992174
20
-327.90109033621059
42
-0.41421356237309503
10
664.60047499992186
20
-327.40109033621047
10
664.60047499992481
20
-314.40179033621126
42
-0.41421356237301177
10
665.10047499992481
20
-313.90179033621143
10
678.10002499992481
20
-313.90179033621439
42
-0.4142135623731783
0
LWPOLYLINE
5
161
100
AcDbEntity
8
0
100
AcDbPolyline
90
8
70
1
43
0.0
10
659.55002499992486
20
-314.40179033621013
42
0.41421356237313667
10
659.05002499992497
20
-313.90179033621007
10
646.05047499992475
20
-313.90179033620706
42
0.41421356237301177
10
645.55047499992486
20
-314.40179033620689
10
645.55047499992179
20
-327.40109033620615
42
0.41421356237309503
10
646.05047499992168
20
-327.90109033620718
10
659.05002499992179
20
-327.90109033620928
42
0.41421356237313667
10
659.5500249999219
20
-327.40109033620934
0
LWPOLYLINE
5
162
100
AcDbEntity
8
0
100
AcDbPolyline
90
8
70
1
43
0.0
10
630.47504999991747
20
-346.95179033620428
10
617.47504999991747
20
-346.95179033620127
42
-0.41421356237309503
10
616.9750499999177
20
-346.45179033620116
10
616.97504999992043
20
-333.45179033619968
42
-0.41421356237309503
10
617.47504999992066
20
-332.95179033619979
10
630.47504999992066
20
-332.95179033620286
42
-0.4142135623730534
10
630.97504999992043
20
-333.45179033620292
10
630.97504999991759
20
-346.45179033620434
42
-0.41421356237313667
0
LWPOLYLINE
5
163
100
AcDbEntity
8
0
100
AcDbPolyline
90
8
70
1
43
0.0
10
611.42504999991752
20
-346.95179033619991
42
0.41421356237309503
10
611.92504999991763
20
-346.45179033620002
10
611.92504999992047
20
-333.45179033619854
42
0.41421356237309503
10
611.4250499999207
20
-332.9517903361986
10
598.42504999992161
20
-332.9517903361965
42
0.41421356237313667
10
597.92504999992059
20
-333.4517903361965
10
597.92504999991866
20
-346.45179033619689
42
0.4142135623730534
10
598.42504999991843
20
-346.95179033619689
0
LWPOLYLINE
5
164
100
AcDbEntity
8
0
100
AcDbPolyline
90
8
70
1
43
0.0
10
602.40002499992477
20
-314.40179033619711
42
0.41421356237309503
10
601.90002499992499
20
-313.901790336197
10
588.900474999925
20
-313.9017903361941
42
0.41421356237313667
10
588.40047499992477
20
-314.40179033619404
10
588.40047499992193
20
-327.40109033619422
42
0.41421356237309503
10
588.90047499992181
20
-327.90109033619416
10
601.90002499992181
20
-327.90109033619723
42
0.4142135623730534
10
602.40002499992192
20
-327.40109033619729
0
LWPOLYLINE
5
165
100
AcDbEntity
8
0
100
AcDbPolyline
90
8
70
1
43
0.0
10
569.35047499992186
20
-327.40109033618984
42
0.41421356237309503
10
569.85047499992174
20
-327.9010903361899
10
582.85002499992174
20
-327.90109033619296
42
0.4142135623730534
10
583.35002499992186
20
-327.40109033619308
10
583.3500249999247
20
-314.4017903361929
42
0.41421356237309503
10
582.85002499992493
20
-313.90179033619285
10
569.85047499992493
20
-313.90179033618972
42
0.41421356237313667
10
569.3504749999247
20
-314.40179033618966
0
LWPOLYLINE
5
166
100
AcDbEntity
8
0
100
AcDbPolyline
90
8
70
1
43
0.0
10
550.3004749999219
20
-327.40109033618552
42
0.41421356237313667
10
550.80047499992179
20
-327.90109033618563
10
563.80002499992179
20
-327.90109033618853
42
0.4142135623730534
10
564.30002499992179
20
-327.4010903361887
10
564.30002499992474
20
-314.40179033618853
42
0.41421356237309503
10
563.80002499992497
20
-313.90179033618847
10
550.80047499992497
20
-313.90179033618546
42
0.41421356237309503
10
550.30047499992475
20
-314.40179033618529
0
LWPOLYLINE
5
167
100
AcDbEntity
8
0
100
AcDbPolyline
90
8
70
1
43
0.0
10
544.75002499992183
20
-327.90109033618421
10
531.75047499992183
20
-327.90109033618137
42
-0.4142135623731783
10
531.25047499992195
20
-327.4010903361812
10
531.25047499992479
20
-314.40179033618102
42
-0.41421356237309503
10
531.7504749999249
20
-313.90179033618119
10
544.75002499992502
20
-313.90179033618415
42
-0.41421356237309503
10
545.25002499992479
20
-314.40179033618426
10
545.25002499992183
20
-327.40109033618444
42
-0.4142135623730534
0
LWPOLYLINE
5
168
100
AcDbEntity
8
0
100
AcDbPolyline
90
8
70
1
43
0.0
10
512.20047499992188
20
-327.40109033617682
10
512.20047499992472
20
-314.40179033617665
42
-0.41421356237309503
10
512.70047499992495
20
-313.90179033617682
10
525.70002499992495
20
-313.90179033617977
42
-0.4142135623730534
10
526.20002499992472
20
-314.40179033617983
10
526.20002499992188
20
-327.40109033618
42
-0.41421356237309503
10
525.70002499992177
20
-327.90109033617995
10
512.70047499992177
20
-327.90109033617705
42
-0.41421356237313667
0
LWPOLYLINE
5
169
100
AcDbEntity
8
0
100
AcDbPolyline
90
8
70
1
43
0.0
10
483.33750721991629
20
-352.50181319617133
42
0.41421356237313667
10
482.83750721991635
20
-352.00181319617116
10
469.83795721991635
20
-352.00181319616826
42
0.41421356237309503
10
469.33795721991629
20
-352.5018131961682
10
469.33795721991339
20
-365.50111319616747
42
0.4142135623730534
10
469.83795721991322
20
-366.0011131961673
10
482.83750721991328
20
-366.00111319617042
42
0.41421356237309503
10
483.33750721991339
20
-365.50111319617059
0
LWPOLYLINE
5
170
100
AcDbEntity
8
0
100
AcDbPolyline
90
8
70
1
43
0.0
10
487.60002499992186
20
-327.90109033617119
42
0.4142135623730534
10
488.10002499992186
20
-327.40109033617136
10
488.10002499992481
20
-314.4017903361713
42
0.41421356237309503
10
487.60002499992493
20
-313.90179033617125
10
474.60047499992493
20
-313.90179033616812
42
0.41421356237313667
10
474.10047499992481
20
-314.40179033616806
10
474.10047499992186
20
-327.40109033616824
42
0.41421356237309503
10
474.6004749999218
20
-327.90109033616824
0
LWPOLYLINE
5
171
100
AcDbEntity
8
0
100
AcDbPolyline
90
8
70
1
43
0.0
10
443.64437499991641
20
-352.00179033616081
42
0.4142135623730534
10
443.14437499991635
20
-352.5017903361607
10
443.14437499991345
20
-365.50109033616189
42
0.41421356237309503
10
443.64437499991323
20
-366.00109033616201
10
456.64392499991322
20
-366.00109033616502
42
0.4142135623730534
10
457.14392499991334
20
-365.50109033616513
10
457.14392499991624
20
-352.50179033616394
42
0.4142135623730534
10
456.64392499991635
20
-352.00179033616399
0
LWPOLYLINE
5
172
100
AcDbEntity
8
0
100
AcDbPolyline
90
8
70
1
43
0.0
10
455.0504749999219
20
-327.40109033616397
10
455.05047499992475
20
-314.4017903361638
42
-0.41421356237313667
10
455.55047499992492
20
-313.90179033616386
10
468.55002499992497
20
-313.90179033616681
42
-0.41421356237309503
10
469.05002499992474
20
-314.40179033616693
10
469.05002499992185
20
-327.4010903361671
42
-0.4142135623730534
10
468.55002499992179
20
-327.90109033616693
10
455.55047499992179
20
-327.90109033616403
42
-0.41421356237309503
0
LWPOLYLINE
5
173
100
AcDbEntity
8
0
100
AcDbPolyline
90
24
70
1
43
0.0
10
516.24230907464755
20
-391.16127667989008
10
517.39935907464758
20
-391.16127667989235
42
0.41421356237309503
10
517.89935907464769
20
-390.66127667989059
10
517.8993590746478
20
-389.67537185577908
42
-0.41421356237309503
10
518.39935907464803
20
-389.17537185577919
10
519.99935907464805
20
-389.17537185577964
42
-0.4142135623730534
10
520.49935907464783
20
-389.67537185577964
10
520.49935907464771
20
-390.66127667989116
42
0.41421356237313667
10
520.9993590746476
20
-391.16127667989133
10
522.59935907464853
20
-391.16127667989224
42
-0.41421356237309503
10
523.09935907464842
20
-391.66127667989235
10
523.09935907464603
20
-402.66127667989247
42
-0.4142135623730534
10
522.59935907464592
20
-403.16127667989235
10
511.04230907464489
20
-403.16127667988962
42
-0.41421356237309503
10
510.542309074645
20
-402.66127667988962
10
510.54230907464751
20
-391.66127667988951
42
-0.41421356237313667
10
511.04230907464762
20
-391.16127667988962
10
512.64230907464753
20
-391.16127667988928
42
0.41421356237309503
10
513.14230907464764
20
-390.66127667988951
10
513.14230907464776
20
-389.67537185577902
42
-0.41421356237309503
10
513.64230907464798
20
-389.17537185577913
10
515.24230907464801
20
-389.17537185577953
42
-0.4142135623730534
10
515.74230907464778
20
-389.67537185577959
10
515.74230907464766
20
-390.66127667989008
42
0.41421356237313667
0
LWPOLYLINE
5
174
100
AcDbEntity
8
0
100
AcDbPolyline
90
16
70
1
43
0.0
10
707.9461676599135
20
-365.05505583622158
10
706.34616765991359
20
-365.05505583622039
42
-0.41421356237313667
10
705.84616765991359
20
-364.55505583622033
10
705.84616765991598
20
-353.55505583622033
42
-0.41421356237313667
10
706.3461676599162
20
-353.05505583622039
10
713.14616765991616
20
-353.0550558362221
42
-0.4142135623730534
10
713.64616765991605
20
-353.5550558362221
10
713.64616765991343
20
-364.5550558362221
42
-0.4142135623730534
10
713.14616765991343
20
-365.0550558362221
10
711.54616765991352
20
-365.05505583622261
42
0.4142135623730534
10
711.04616765991341
20
-365.55505583622227
10
711.04616765991307
20
-366.54096066033361
42
-0.41421356237309503
10
710.54616765991295
20
-367.04096066033344
10
708.94616765991282
20
-367.0409606603331
42
-0.4142135623730534
10
708.44616765991304
20
-366.54096066033304
10
708.44616765991327
20
-365.55505583622164
42
0.41421356237309503
0
LWPOLYLINE
5
175
100
AcDbEntity
8
0
100
AcDbPolyline
90
8
70
1
43
0.0
10
437.71381578209747
20
-346.95109033616035
42
0.41421356237309503
10
438.21381578209758
20
-346.45109033616052
10
438.21381578210048
20
-333.45179033616125
42
0.41421356237309503
10
437.71381578210071
20
-332.95179033616029
10
436.27043308766071
20
-332.95179033616068
42
0.41421356237313667
10
435.77043308766054
20
-333.45179033616068
10
435.77043308765769
20
-346.45109033615995
42
0.4142135623730534
10
436.27043308765747
20
-346.95109033616075
0
LWPOLYLINE
5
176
100
AcDbEntity
8
0
100
AcDbPolyline
90
16
70
1
43
0.0
10
465.05856765990916
20
-384.105055836166
10
463.45856765990914
20
-384.10505583616668
42
-0.4142135623730534
10
462.95856765990936
20
-383.60505583616663
10
462.95856765991169
20
-372.60505583616668
42
-0.41421356237313667
10
463.45856765991186
20
-372.10505583616674
10
470.25856765991188
20
-372.10505583616839
42
-0.4142135623730534
10
470.75856765991171
20
-372.60505583616839
10
470.75856765990932
20
-383.60505583616833
42
-0.41421356237313667
10
470.25856765990915
20
-384.10505583616833
10
468.65856765990918
20
-384.1050558361668
42
0.41421356237309503
10
468.15856765990907
20
-384.60505583616657
10
468.15856765990884
20
-385.59096066027894
42
-0.41421356237313667
10
467.65856765990873
20
-386.09096066027894
10
466.0585676599087
20
-386.09096066027848
42
-0.41421356237313667
10
465.55856765990882
20
-385.59096066027837
10
465.55856765990904
20
-384.605055836166
42
0.41421356237309503
0
LWPOLYLINE
5
177
100
AcDbEntity
8
0
100
AcDbPolyline
90
8
70
1
43
0.0
10
459.69328421773332
20
-365.50109033616468
10
459.69328421773633
20
-352.50179033616644
42
-0.4142135623730534
10
460.19328421773639
20
-352.00179033616666
10
461.63666691217634
20
-352.00179033616706
42
-0.4142135623730534
10
462.13666691217622
20
-352.50179033616701
10
462.13666691217338
20
-365.50109033616525
42
-0.41421356237313667
10
461.63666691217321
20
-366.00109033616519
10
460.19328421773321
20
-366.00109033616485
42
-0.41421356237309503
0
LWPOLYLINE
5
178
100
AcDbEntity
8
0
100
AcDbPolyline
90
4
70
1
43
0.0
10
566.32544999991774
20
-349.97679033618954
10
510.1754499999177
20
-349.97679033617715
42
-0.99999999999999989
10
510.17544999991799
20
-348.97679033617703
10
566.32544999991796
20
-348.97679033618999
42
-0.99999999999999989
0
LWPOLYLINE
5
179
100
AcDbEntity
8
0
100
AcDbPolyline
90
4
70
1
43
0.0
10
662.57544999991615
20
-348.97679033621165
10
680.12544999991803
20
-348.97679033621546
42
-0.99999999999999989
10
680.12544999991769
20
-349.97679033621569
10
662.5754499999158
20
-349.97679033621148
42
-0.99999999999999989
0
LWPOLYLINE
5
180
100
AcDbEntity
8
0
100
AcDbPolyline
90
4
70
1
43
0.0
10
518.70044999992206
20
-330.92679033617941
10
462.55044999992214
20
-330.92679033616685
42
-0.99999999999999989
10
462.55044999992231
20
-329.92679033616673
10
518.70044999992228
20
-329.92679033617958
42
-0.99999999999999989
0
LWPOLYLINE
5
181
100
AcDbEntity
8
0
100
AcDbPolyline
90
4
70
1
43
0.0
10
532.98794999991355
20
-369.02679033618244
10
476.83794999991153
20
-369.02679033616982
42
-0.99999999999999989
10
476.83794999991176
20
-368.02679033616977
10
532.98794999991367
20
-368.02679033618244
42
-0.99999999999999989
0
LWPOLYLINE
5
182
100
AcDbEntity
8
0
100
AcDbPolyline
90
4
70
1
43
0.0
10
472.07544999991705
20
-348.97679033616845
10
489.62544999991701
20
-348.97679033617226
42
-0.99999999999999989
10
489.62544999991684
20
-349.97679033617248
10
472.07544999991677
20
-349.97679033616828
42
-0.99999999999999989
0
ENDSEC
0
SECTION
2
OBJECTS
0
DICTIONARY
5
C
100
AcDbDictionary
3
ACAD_GROUP
350
D
3
ACAD_MLINESTYLE
350
17
0
DICTIONARY
5
D
100
AcDbDictionary
0
DICTIONARY
5
1A
330
C
100
AcDbDictionary
0
DICTIONARY
5
17
100
AcDbDictionary
0
ENDSEC
0
EOF
