  0
SECTION
  2
HEADER
  9
$ACADVER
  1
AC1027
  9
$ACADMAINTVER
 70
   125
  9
$DWGCODEPAGE
  3
ANSI_1252
  9
$LASTSAVEDBY
  1
zz000
  9
$REQUIREDVERSIONS
160
                 0
  9
$INSBASE
 10
0.0
 20
0.0
 30
0.0
  9
$EXTMIN
 10
-671.2383493998284
 20
-105.857080536249
 30
-0.0000007159232152
  9
$EXTMAX
 10
-0.5000016562642172
 20
203.4443787591601
 30
0.0
  9
$LIMMIN
 10
0.0
 20
0.0
  9
$LIMMAX
 10
12.0
 20
9.0
  9
$ORTHOMODE
 70
     0
  9
$REGENMODE
 70
     1
  9
$FILLMODE
 70
     1
  9
$QTEXTMODE
 70
     0
  9
$MIRRTEXT
 70
     0
  9
$LTSCALE
 40
1.0
  9
$ATTMODE
 70
     1
  9
$TEXTSIZE
 40
0.2
  9
$TRACEWID
 40
0.05
  9
$TEXTSTYLE
  7
STANDARD
  9
$CLAYER
  8
0
  9
$CELTYPE
  6
Continuous
  9
$CECOLOR
 62
   256
  9
$CELTSCALE
 40
1.0
  9
$DISPSILH
 70
     0
  9
$DIMSCALE
 40
1.0
  9
$DIMASZ
 40
0.18
  9
$DIMEXO
 40
0.0625
  9
$DIMDLI
 40
0.38
  9
$DIMRND
 40
0.0
  9
$DIMDLE
 40
0.0
  9
$DIMEXE
 40
0.18
  9
$DIMTP
 40
0.0
  9
$DIMTM
 40
0.0
  9
$DIMTXT
 40
0.18
  9
$DIMCEN
 40
0.09
  9
$DIMTSZ
 40
0.0
  9
$DIMTOL
 70
     0
  9
$DIMLIM
 70
     0
  9
$DIMTIH
 70
     1
  9
$DIMTOH
 70
     1
  9
$DIMSE1
 70
     0
  9
$DIMSE2
 70
     0
  9
$DIMTAD
 70
     0
  9
$DIMZIN
 70
     0
  9
$DIMBLK
  1

  9
$DIMASO
 70
     1
  9
$DIMSHO
 70
     1
  9
$DIMPOST
  1

  9
$DIMAPOST
  1

  9
$DIMALT
 70
     0
  9
$DIMALTD
 70
     2
  9
$DIMALTF
 40
25.4
  9
$DIMLFAC
 40
1.0
  9
$DIMTOFL
 70
     0
  9
$DIMTVP
 40
0.0
  9
$DIMTIX
 70
     0
  9
$DIMSOXD
 70
     0
  9
$DIMSAH
 70
     0
  9
$DIMBLK1
  1

  9
$DIMBLK2
  1

  9
$DIMSTYLE
  2
Standard
  9
$DIMCLRD
 70
     0
  9
$DIMCLRE
 70
     0
  9
$DIMCLRT
 70
     0
  9
$DIMTFAC
 40
1.0
  9
$DIMGAP
 40
0.09
  9
$DIMJUST
 70
     0
  9
$DIMSD1
 70
     0
  9
$DIMSD2
 70
     0
  9
$DIMTOLJ
 70
     1
  9
$DIMTZIN
 70
     0
  9
$DIMALTZ
 70
     0
  9
$DIMALTTZ
 70
     0
  9
$DIMUPT
 70
     0
  9
$DIMDEC
 70
     4
  9
$DIMTDEC
 70
     4
  9
$DIMALTU
 70
     2
  9
$DIMALTTD
 70
     2
  9
$DIMTXSTY
  7
STANDARD
  9
$DIMAUNIT
 70
     0
  9
$DIMADEC
 70
     0
  9
$DIMALTRND
 40
0.0
  9
$DIMAZIN
 70
     0
  9
$DIMDSEP
 70
    46
  9
$DIMATFIT
 70
     3
  9
$DIMFRAC
 70
     0
  9
$DIMLDRBLK
  1

  9
$DIMLUNIT
 70
     2
  9
$DIMLWD
 70
    -2
  9
$DIMLWE
 70
    -2
  9
$DIMTMOVE
 70
     0
  9
$DIMFXL
 40
1.0
  9
$DIMFXLON
 70
     0
  9
$DIMJOGANG
 40
0.7853981633974483
  9
$DIMTFILL
 70
     0
  9
$DIMTFILLCLR
 70
     0
  9
$DIMARCSYM
 70
     0
  9
$DIMLTYPE
  6

  9
$DIMLTEX1
  6

  9
$DIMLTEX2
  6

  9
$DIMTXTDIRECTION
 70
     0
  9
$LUNITS
 70
     2
  9
$LUPREC
 70
     4
  9
$SKETCHINC
 40
0.1
  9
$FILLETRAD
 40
0.0
  9
$AUNITS
 70
     0
  9
$AUPREC
 70
     0
  9
$MENU
  1
.
  9
$ELEVATION
 40
0.0
  9
$PELEVATION
 40
0.0
  9
$THICKNESS
 40
0.0
  9
$LIMCHECK
 70
     0
  9
$CHAMFERA
 40
0.0
  9
$CHAMFERB
 40
0.0
  9
$CHAMFERC
 40
0.0
  9
$CHAMFERD
 40
0.0
  9
$SKPOLY
 70
     0
  9
$TDCREATE
 40
2459828.797361111
  9
$TDUCREATE
 40
2459829.089027778
  9
$TDUPDATE
 40
2459828.798240741
  9
$TDUUPDATE
 40
2459829.089907408
  9
$TDINDWG
 40
0.0008796296
  9
$TDUSRTIMER
 40
0.0008796296
  9
$USRTIMER
 70
     1
  9
$ANGBASE
 50
0.0
  9
$ANGDIR
 70
     0
  9
$PDMODE
 70
     0
  9
$PDSIZE
 40
0.0
  9
$PLINEWID
 40
0.0
  9
$SPLFRAME
 70
     0
  9
$SPLINETYPE
 70
     6
  9
$SPLINESEGS
 70
     8
  9
$HANDSEED
  5
10080
  9
$SURFTAB1
 70
     6
  9
$SURFTAB2
 70
     6
  9
$SURFTYPE
 70
     6
  9
$SURFU
 70
     6
  9
$SURFV
 70
     6
  9
$UCSBASE
  2

  9
$UCSNAME
  2

  9
$UCSORG
 10
0.0
 20
0.0
 30
0.0
  9
$UCSXDIR
 10
1.0
 20
0.0
 30
0.0
  9
$UCSYDIR
 10
0.0
 20
1.0
 30
0.0
  9
$UCSORTHOREF
  2

  9
$UCSORTHOVIEW
 70
     0
  9
$UCSORGTOP
 10
0.0
 20
0.0
 30
0.0
  9
$UCSORGBOTTOM
 10
0.0
 20
0.0
 30
0.0
  9
$UCSORGLEFT
 10
0.0
 20
0.0
 30
0.0
  9
$UCSORGRIGHT
 10
0.0
 20
0.0
 30
0.0
  9
$UCSORGFRONT
 10
0.0
 20
0.0
 30
0.0
  9
$UCSORGBACK
 10
0.0
 20
0.0
 30
0.0
  9
$PUCSBASE
  2

  9
$PUCSNAME
  2

  9
$PUCSORG
 10
0.0
 20
0.0
 30
0.0
  9
$PUCSXDIR
 10
1.0
 20
0.0
 30
0.0
  9
$PUCSYDIR
 10
0.0
 20
1.0
 30
0.0
  9
$PUCSORTHOREF
  2

  9
$PUCSORTHOVIEW
 70
     0
  9
$PUCSORGTOP
 10
0.0
 20
0.0
 30
0.0
  9
$PUCSORGBOTTOM
 10
0.0
 20
0.0
 30
0.0
  9
$PUCSORGLEFT
 10
0.0
 20
0.0
 30
0.0
  9
$PUCSORGRIGHT
 10
0.0
 20
0.0
 30
0.0
  9
$PUCSORGFRONT
 10
0.0
 20
0.0
 30
0.0
  9
$PUCSORGBACK
 10
0.0
 20
0.0
 30
0.0
  9
$USERI1
 70
     0
  9
$USERI2
 70
     0
  9
$USERI3
 70
     0
  9
$USERI4
 70
     0
  9
$USERI5
 70
     0
  9
$USERR1
 40
0.0
  9
$USERR2
 40
0.0
  9
$USERR3
 40
0.0
  9
$USERR4
 40
0.0
  9
$USERR5
 40
0.0
  9
$WORLDVIEW
 70
     1
  9
$SHADEDGE
 70
     3
  9
$SHADEDIF
 70
    70
  9
$TILEMODE
 70
     1
  9
$MAXACTVP
 70
    64
  9
$PINSBASE
 10
0.0
 20
0.0
 30
0.0
  9
$PLIMCHECK
 70
     0
  9
$PEXTMIN
 10
1.000000000000000E+20
 20
1.000000000000000E+20
 30
1.000000000000000E+20
  9
$PEXTMAX
 10
-1.000000000000000E+20
 20
-1.000000000000000E+20
 30
-1.000000000000000E+20
  9
$PLIMMIN
 10
0.0
 20
0.0
  9
$PLIMMAX
 10
12.0
 20
9.0
  9
$UNITMODE
 70
     0
  9
$VISRETAIN
 70
     1
  9
$PLINEGEN
 70
     0
  9
$PSLTSCALE
 70
     1
  9
$TREEDEPTH
 70
  3020
  9
$CMLSTYLE
  2
Standard
  9
$CMLJUST
 70
     0
  9
$CMLSCALE
 40
1.0
  9
$PROXYGRAPHICS
 70
     1
  9
$MEASUREMENT
 70
     0
  9
$CELWEIGHT
370
    -1
  9
$ENDCAPS
280
     0
  9
$JOINSTYLE
280
     0
  9
$LWDISPLAY
290
     0
  9
$INSUNITS
 70
     4
  9
$HYPERLINKBASE
  1

  9
$STYLESHEET
  1

  9
$XEDIT
290
     1
  9
$CEPSNTYPE
380
     0
  9
$PSTYLEMODE
290
     1
  9
$FINGERPRINTGUID
  2
{A70D42C8-F6B3-C94B-93E0-88BED5832B5C}
  9
$VERSIONGUID
  2
{E745DEEF-9D45-4049-942B-5EAC67FDDB3A}
  9
$EXTNAMES
290
     1
  9
$PSVPSCALE
 40
0.0
  9
$OLESTARTUP
290
     0
  9
$SORTENTS
280
   127
  9
$INDEXCTL
280
     0
  9
$HIDETEXT
280
     0
  9
$XCLIPFRAME
280
     2
  9
$HALOGAP
280
     0
  9
$OBSCOLOR
 70
   257
  9
$OBSLTYPE
280
     0
  9
$INTERSECTIONDISPLAY
280
     0
  9
$INTERSECTIONCOLOR
 70
   257
  9
$DIMASSOC
280
     1
  9
$PROJECTNAME
  1

  9
$CAMERADISPLAY
290
     0
  9
$LENSLENGTH
 40
50.0
  9
$CAMERAHEIGHT
 40
0.0
  9
$STEPSPERSEC
 40
2.0
  9
$STEPSIZE
 40
6.0
  9
$3DDWFPREC
 40
2.0
  9
$PSOLWIDTH
 40
0.25
  9
$PSOLHEIGHT
 40
4.0
  9
$LOFTANG1
 40
1.570796326794896
  9
$LOFTANG2
 40
1.570796326794896
  9
$LOFTMAG1
 40
0.0
  9
$LOFTMAG2
 40
0.0
  9
$LOFTPARAM
 70
     7
  9
$LOFTNORMALS
280
     1
  9
$LATITUDE
 40
37.795
  9
$LONGITUDE
 40
-122.394
  9
$NORTHDIRECTION
 40
0.0
  9
$TIMEZONE
 70
 -8000
  9
$LIGHTGLYPHDISPLAY
280
     1
  9
$TILEMODELIGHTSYNCH
280
     1
  9
$CMATERIAL
347
10005
  9
$SOLIDHIST
280
     0
  9
$SHOWHIST
280
     1
  9
$DWFFRAME
280
     2
  9
$DGNFRAME
280
     0
  9
$REALWORLDSCALE
290
     1
  9
$INTERFERECOLOR
 62
     1
  9
$INTERFEREOBJVS
345
10027
  9
$INTERFEREVPVS
346
10024
  9
$CSHADOW
280
     0
  9
$SHADOWPLANELOCATION
 40
0.0
  0
ENDSEC
  0
SECTION
  2
CLASSES
  0
CLASS
  1
ACDBDICTIONARYWDFLT
  2
AcDbDictionaryWithDefault
  3
ObjectDBX Classes
 90
        0
 91
        1
280
     0
281
     0
  0
CLASS
  1
MATERIAL
  2
AcDbMaterial
  3
ObjectDBX Classes
 90
     1153
 91
        3
280
     0
281
     0
  0
CLASS
  1
VISUALSTYLE
  2
AcDbVisualStyle
  3
ObjectDBX Classes
 90
     4095
 91
       24
280
     0
281
     0
  0
CLASS
  1
TABLESTYLE
  2
AcDbTableStyle
  3
ObjectDBX Classes
 90
     4095
 91
        1
280
     0
281
     0
  0
CLASS
  1
SCALE
  2
AcDbScale
  3
ObjectDBX Classes
 90
     1153
 91
       17
280
     0
281
     0
  0
CLASS
  1
MLEADERSTYLE
  2
AcDbMLeaderStyle
  3
ACDB_MLEADERSTYLE_CLASS
 90
     4095
 91
        1
280
     0
281
     0
  0
CLASS
  1
ACDBSECTIONVIEWSTYLE
  2
AcDbSectionViewStyle
  3
ObjectDBX Classes
 90
     1025
 91
        1
280
     0
281
     0
  0
CLASS
  1
ACDBDETAILVIEWSTYLE
  2
AcDbDetailViewStyle
  3
ObjectDBX Classes
 90
     1025
 91
        1
280
     0
281
     0
  0
CLASS
  1
SOLID_BACKGROUND
  2
AcDbSolidBackground
  3
SCENEOE
 90
     4095
 91
        1
280
     0
281
     0
  0
CLASS
  1
NPOCOLLECTION
  2
AcDbImpNonPersistentObjectsCollection
  3
ObjectDBX Classes
 90
     1153
 91
        1
280
     0
281
     0
  0
CLASS
  1
GROUND_PLANE_BACKGROUND
  2
AcDbGroundPlaneBackground
  3
SCENEOE
 90
     4095
 91
        1
280
     0
281
     0
  0
CLASS
  1
DICTIONARYVAR
  2
AcDbDictionaryVar
  3
ObjectDBX Classes
 90
        0
 91
        9
280
     0
281
     0
  0
CLASS
  1
CELLSTYLEMAP
  2
AcDbCellStyleMap
  3
ObjectDBX Classes
 90
     1152
 91
        2
280
     0
281
     0
  0
ENDSEC
  0
SECTION
  2
TABLES
  0
TABLE
  2
VPORT
  5
8
330
0
100
AcDbSymbolTable
 70
     1
1001
ACAD
1000
DbSaveVer
1071
      247
  0
VPORT
  5
10059
330
8
100
AcDbSymbolTableRecord
100
AcDbViewportTableRecord
  2
*Active
 70
     0
 10
0.0
 20
0.0
 11
1.0
 21
1.0
 12
-13.426270526965
 22
-209.8907599673686
 13
0.0
 23
0.0
 14
1.0
 24
1.0
 15
0.0
 25
0.0
 16
-0.000000000000199
 26
0.0
 36
900.2714970157452
 17
-156.3999947309494
 27
150.6693916320801
 37
-0.0000003579615964
 40
206.9189877976203
 41
2.025141930251419
 42
50.0
 43
0.0
 44
0.0
 50
0.0
 51
0.0
 71
     0
 72
  1000
 73
     1
 74
     3
 75
     0
 76
     0
 77
     0
 78
     0
281
     0
 65
     1
110
0.0
120
0.0
130
0.0
111
1.0
121
0.0
131
0.0
112
0.0
122
1.0
132
0.0
 79
     0
146
0.0
348
10023
 60
     3
 61
     5
292
     1
282
     1
141
0.0
142
0.0
 63
   250
421
  3355443
1001
ACAD_NAV_VCDISPLAY
1070
     3
  0
ENDTAB
  0
TABLE
  2
LTYPE
  5
5
330
0
100
AcDbSymbolTable
 70
     2
  0
LTYPE
  5
14
330
5
100
AcDbSymbolTableRecord
100
AcDbLinetypeTableRecord
  2
BYBLOCK
 70
     0
  3

 72
    65
 73
     0
 40
0.0
  0
LTYPE
  5
15
330
5
100
AcDbSymbolTableRecord
100
AcDbLinetypeTableRecord
  2
BYLAYER
 70
     0
  3

 72
    65
 73
     0
 40
0.0
  0
LTYPE
  5
10001
330
5
100
AcDbSymbolTableRecord
100
AcDbLinetypeTableRecord
  2
Continuous
 70
     0
  3
Solid line
 72
    65
 73
     0
 40
0.0
  0
ENDTAB
  0
TABLE
  2
LAYER
  5
2
330
0
100
AcDbSymbolTable
 70
     1
  0
LAYER
  5
50
102
{ACAD_XDICTIONARY
360
1005F
102
}
330
2
100
AcDbSymbolTableRecord
100
AcDbLayerTableRecord
  2
0
 70
     0
 62
     7
  6
Continuous
370
    -3
390
10003
347
10015
348
0
  0
ENDTAB
  0
TABLE
  2
STYLE
  5
3
330
0
100
AcDbSymbolTable
 70
     1
  0
STYLE
  5
11
330
3
100
AcDbSymbolTableRecord
100
AcDbTextStyleTableRecord
  2
STANDARD
 70
     0
 40
0.0
 41
1.0
 50
0.0
 71
     0
 42
0.2
  3

  4

  0
ENDTAB
  0
TABLE
  2
VIEW
  5
6
330
0
100
AcDbSymbolTable
 70
     0
  0
ENDTAB
  0
TABLE
  2
UCS
  5
7
330
0
100
AcDbSymbolTable
 70
     0
  0
ENDTAB
  0
TABLE
  2
APPID
  5
9
330
0
100
AcDbSymbolTable
 70
     3
  0
APPID
  5
12
330
9
100
AcDbSymbolTableRecord
100
AcDbRegAppTableRecord
  2
ACAD
 70
     0
  0
APPID
  5
10058
330
9
100
AcDbSymbolTableRecord
100
AcDbRegAppTableRecord
  2
ACAD_NAV_VCDISPLAY
 70
     0
  0
APPID
  5
10072
330
9
100
AcDbSymbolTableRecord
100
AcDbRegAppTableRecord
  2
ACAD_EXEMPT_FROM_CAD_STANDARDS
 70
     0
  0
ENDTAB
  0
TABLE
  2
DIMSTYLE
  5
A
330
0
100
AcDbSymbolTable
 70
     2
100
AcDbDimStyleTable
 71
     0
  0
DIMSTYLE
105
10053
330
A
100
AcDbSymbolTableRecord
100
AcDbDimStyleTableRecord
  2
Standard
 70
     0
340
11
  0
ENDTAB
  0
TABLE
  2
BLOCK_RECORD
  5
1
330
0
100
AcDbSymbolTable
 70
     1
  0
BLOCK_RECORD
  5
1F
330
1
100
AcDbSymbolTableRecord
100
AcDbBlockTableRecord
  2
*MODEL_SPACE
340
10055
 70
     0
280
     1
281
     0
  0
BLOCK_RECORD
  5
1B
330
1
100
AcDbSymbolTableRecord
100
AcDbBlockTableRecord
  2
*PAPER_SPACE
340
10056
 70
     0
280
     1
281
     0
  0
ENDTAB
  0
ENDSEC
  0
SECTION
  2
BLOCKS
  0
BLOCK
  5
20
330
1F
100
AcDbEntity
  8
0
100
AcDbBlockBegin
  2
*MODEL_SPACE
 70
     0
 10
0.0
 20
0.0
 30
0.0
  3
*MODEL_SPACE
  1

  0
ENDBLK
  5
21
330
1F
100
AcDbEntity
  8
0
100
AcDbBlockEnd
  0
BLOCK
  5
1C
330
1B
100
AcDbEntity
 67
     1
  8
0
100
AcDbBlockBegin
  2
*PAPER_SPACE
 70
     0
 10
0.0
 20
0.0
 30
0.0
  3
*PAPER_SPACE
  1

  0
ENDBLK
  5
1D
330
1B
100
AcDbEntity
 67
     1
  8
0
100
AcDbBlockEnd
  0
ENDSEC
  0
SECTION
  2
ENTITIES
  0
LWPOLYLINE
  5
100
330
1F
100
AcDbEntity
  8
0
100
AcDbPolyline
 90
       78
 70
     1
 43
0.0
 10
-81.99936707453753
 20
-104.853663180875
 42
-0.4152148391114503
 10
-82.99936123536156
 20
-105.857080536249
 10
-86.54711591950553
 20
-105.857080536249
 42
-0.4142135623730951
 10
-88.54711591950552
 20
-103.857080536249
 10
-88.54711591950559
 20
-103.307100858453
 42
0.4142135623730951
 10
-90.54711591950558
 20
-101.307100858453
 10
-119.3254267281585
 20
-101.307100858453
 10
-119.3971177597985
 20
-101.235409826812
 10
-119.4688087914386
 20
-101.307100858453
 10
-128.0203138233025
 20
-101.307100858453
 42
0.4142135623730951
 10
-130.0203138233025
 20
-103.307100858453
 10
-130.0203138233025
 20
-103.857080536249
 42
-0.4142135623730951
 10
-132.0203138233025
 20
-105.857080536249
 10
-188.0471159195056
 20
-105.857080536249
 42
-0.4142135623730951
 10
-190.0471159195056
 20
-103.857080536249
 10
-190.0471159195056
 20
-103.307100858453
 42
0.4142135623730951
 10
-192.0471159195056
 20
-101.307100858453
 10
-221.7754267281585
 20
-101.307100858453
 10
-221.8471177597986
 20
-101.235409826812
 10
-221.9188087914385
 20
-101.307100858453
 10
-229.4403138233021
 20
-101.307100858453
 42
0.4142135623730951
 10
-231.4403138233021
 20
-103.307100858453
 10
-231.4403138233021
 20
-103.857080536249
 42
-0.4142135623730951
 10
-233.4403138233021
 20
-105.857080536249
 10
-289.5471159195052
 20
-105.857080536249
 42
-0.4142135623730951
 10
-291.5471159195051
 20
-103.857080536249
 10
-291.5471159195051
 20
-103.307100858453
 42
0.4142135623730951
 10
-293.5471159195051
 20
-101.307100858453
 10
-321.4971129318223
 20
-101.307100858453
 42
-0.4142135623730952
 10
-323.4971129318223
 20
-99.30710085845303
 10
-323.4971129318225
 20
-82.30925323496101
 42
0.4142135623730951
 10
-324.9971129318224
 20
-80.80925323496101
 42
-0.4142141816885142
 10
-326.4971161035344
 20
-79.30925323496103
 10
-326.4971161035344
 20
-23.30710127140708
 42
-0.4142135623730951
 10
-324.9971161035344
 20
-21.80710127140364
 42
0.4142141816885142
 10
-323.4971129318223
 20
-20.30710127140699
 10
-323.4971129318223
 20
-7.30709978874205
 42
-0.4142135623730966
 10
-321.4971129318223
 20
-5.30709978874205
 10
-293.4871159195052
 20
-5.30709978874205
 42
0.4142135623730951
 10
-291.4871159195052
 20
-3.30709978874205
 10
-291.4871159195052
 20
-2.307100858453054
 42
-0.4142135623730951
 10
-289.4871159195052
 20
-0.3071008584529977
 10
-233.4603138233021
 20
-0.3071008584529977
 42
-0.4142135623730951
 10
-231.4603138233021
 20
-2.307100858453054
 10
-231.4603138233021
 20
-3.30709978874205
 42
0.4142135623730951
 10
-229.4603138233021
 20
-5.307099788741993
 10
-191.9871159195056
 20
-5.30709978874205
 42
0.4142135623730951
 10
-189.9871159195056
 20
-3.30709978874205
 10
-189.9871159195056
 20
-2.307100858453054
 42
-0.4142135623730951
 10
-187.9871159195056
 20
-0.3071008584529977
 10
-131.9603138233025
 20
-0.3071008584529977
 42
-0.4142135623730951
 10
-129.9603138233025
 20
-2.307100858453054
 10
-129.9603138233025
 20
-3.30709978874205
 42
0.4142135623730951
 10
-127.9603138233025
 20
-5.307099788741993
 10
-90.54711591950558
 20
-5.30709978874205
 42
0.4142135623730951
 10
-88.54711591950559
 20
-3.30709978874205
 10
-88.54711591950552
 20
-2.307100858453054
 42
-0.4142135623730951
 10
-86.54711591950553
 20
-0.3071008584529977
 10
-30.4471142356706
 20
-0.3071008584529977
 42
-0.4142135623730951
 10
-28.4471142356706
 20
-2.307100858453054
 10
-28.44711423567048
 20
-3.30709978874205
 42
0.4142135623730951
 10
-26.4471142356706
 20
-5.307099788741993
 10
-19.66245075464565
 20
-5.30709978874205
 42
-0.4142135623730951
 10
-17.66245075464565
 20
-7.30709978874205
 10
-17.66245075464553
 20
-20.30730162090808
 42
0.4108325870727186
 10
-16.1797861004955
 20
-21.80720144615782
 42
-0.4108325870727176
 10
-14.69712144634565
 20
-23.30710127140708
 10
-14.69712144634565
 20
-79.30945358446099
 42
-0.4108325870727187
 10
-16.1797861004955
 20
-80.80935340971125
 42
0.4108325870727198
 10
-17.66245075464553
 20
-82.30925323496101
 10
-17.66245075464565
 20
-99.307098800487
 42
-0.4142135623730951
 10
-19.66245075464565
 20
-101.307098800487
 10
-26.45711337885757
 20
-101.307098800487
 42
0.4142135623730951
 10
-28.45711337885757
 20
-103.307098800487
 10
-28.45711337885757
 20
-103.857080536249
 42
-0.4142135623730951
 10
-30.45711337885757
 20
-105.857080536249
 10
-76.99486692306163
 20
-105.857080536249
 42
-0.4152148391114503
 10
-77.99486108388561
 20
-104.8536631808749
 42
1.003423214538181
  0
LWPOLYLINE
  5
101
330
1F
100
AcDbEntity
  8
0
100
AcDbPolyline
 90
        8
 70
     1
 43
0.0
 10
-281.6528677597985
 20
-78.69125432884904
 10
-281.6528677597985
 20
-65.69125432885005
 42
0.4142135623730951
 10
-282.1528677597985
 20
-65.19125432885002
 10
-283.6528677597985
 20
-65.19125432885002
 42
0.4142135623730951
 10
-284.1528677597985
 20
-65.69125432885005
 10
-284.1528677597985
 20
-78.69125432884904
 42
0.4142135623730951
 10
-283.6528677597985
 20
-79.19125432884904
 10
-282.1528677597985
 20
-79.19125432884904
 42
0.4142135623730951
  0
LWPOLYLINE
  5
102
330
1F
100
AcDbEntity
  8
0
100
AcDbPolyline
 90
        8
 70
     1
 43
0.0
 10
-319.0288677597986
 20
-78.69125432884904
 10
-319.0288677597986
 20
-65.69125432885005
 42
0.4142135623730951
 10
-319.5288677597986
 20
-65.19125432885002
 10
-321.0288677597986
 20
-65.19125432885002
 42
0.4142135623731003
 10
-321.5288677597986
 20
-65.69125432885005
 10
-321.5288677597986
 20
-78.69125432884904
 42
0.4142135623731003
 10
-321.0288677597986
 20
-79.19125432884904
 10
-319.5288677597986
 20
-79.19125432884904
 42
0.4142135623730951
  0
LWPOLYLINE
  5
103
330
1F
100
AcDbEntity
  8
0
100
AcDbPolyline
 90
        8
 70
     1
 43
0.0
 10
-81.99086775979855
 20
-78.69125432884904
 10
-81.99086775979855
 20
-65.69125432885005
 42
0.4142135623730951
 10
-82.49086775979856
 20
-65.19125432885002
 10
-83.99086775979856
 20
-65.19125432885002
 42
0.4142135623730951
 10
-84.49086775979855
 20
-65.69125432885005
 10
-84.49086775979855
 20
-78.69125432884904
 42
0.4142135623730951
 10
-83.99086775979856
 20
-79.19125432884904
 10
-82.49086775979856
 20
-79.19125432884903
 42
0.4142135623730951
  0
LWPOLYLINE
  5
104
330
1F
100
AcDbEntity
  8
0
100
AcDbPolyline
 90
        8
 70
     1
 43
0.0
 10
-317.7346177597986
 20
-40.59125432885003
 10
-317.7346177597986
 20
-27.591254328849
 42
0.4142135623730893
 10
-318.2346177597985
 20
-27.09125432884901
 10
-319.7346177597986
 20
-27.09125432884901
 42
0.4142135623730951
 10
-320.2346177597986
 20
-27.591254328849
 10
-320.2346177597986
 20
-40.59125432885003
 42
0.4142135623730951
 10
-319.7346177597986
 20
-41.09125432885003
 10
-318.2346177597985
 20
-41.09125432885003
 42
0.4142135623730893
  0
LWPOLYLINE
  5
105
330
1F
100
AcDbEntity
  8
0
100
AcDbPolyline
 90
        8
 70
     1
 43
0.0
 10
-77.89711775979856
 20
-97.74125432885
 10
-77.89711775979856
 20
-84.74125432884902
 42
0.4142135623730951
 10
-78.39711775979856
 20
-84.24125432884901
 10
-81.87211775979859
 20
-84.24125432884901
 42
0.4142135623730951
 10
-82.37211775979858
 20
-84.74125432884902
 10
-82.37211775979858
 20
-97.74125432885
 42
0.4142135623730951
 10
-81.87211775979859
 20
-98.24125432885004
 10
-78.39711775979856
 20
-98.24125432885004
 42
0.4142135623730951
  0
LWPOLYLINE
  5
106
330
1F
100
AcDbEntity
  8
0
100
AcDbPolyline
 90
        8
 70
     1
 43
0.0
 10
-61.49086775979856
 20
-78.69125432884904
 10
-61.49086775979856
 20
-65.69125432885005
 42
0.4142135623730951
 10
-61.99086775979856
 20
-65.19125432885002
 10
-63.49086775979856
 20
-65.19125432885002
 42
0.4142135623730951
 10
-63.99086775979856
 20
-65.69125432885005
 10
-63.99086775979856
 20
-78.69125432884904
 42
0.4142135623730951
 10
-63.49086775979856
 20
-79.19125432884904
 10
-61.99086775979856
 20
-79.19125432884904
 42
0.4142135623730951
  0
LWPOLYLINE
  5
107
330
1F
100
AcDbEntity
  8
0
100
AcDbPolyline
 90
        8
 70
     1
 43
0.0
 10
-294.8533677597985
 20
-59.64125432885001
 10
-294.8533677597985
 20
-46.64125432885007
 42
0.4142135623730951
 10
-295.3533677597985
 20
-46.14125432885001
 10
-296.8533677597985
 20
-46.14125432885001
 42
0.4142135623730951
 10
-297.3533677597985
 20
-46.64125432885007
 10
-297.3533677597985
 20
-59.64125432885001
 42
0.4142135623730951
 10
-296.8533677597985
 20
-60.14125432885001
 10
-295.3533677597985
 20
-60.14125432885001
 42
0.4142135623730951
  0
LWPOLYLINE
  5
108
330
1F
100
AcDbEntity
  8
0
100
AcDbPolyline
 90
        8
 70
     1
 43
0.0
 10
-67.14136775979858
 20
-58.64125432884899
 10
-67.14136775979864
 20
-44.64125432885
 42
0.4142135623730951
 10
-67.64136775979858
 20
-44.14125432885007
 10
-73.64136775979853
 20
-44.14125432885001
 42
0.4142135623730951
 10
-74.14136775979859
 20
-44.64125432885
 10
-74.14136775979859
 20
-58.64125432884899
 42
0.4142135623730951
 10
-73.64136775979853
 20
-59.14125432884898
 10
-67.64136775979858
 20
-59.14125432884898
 42
0.4142135623730951
  0
LWPOLYLINE
  5
109
330
1F
100
AcDbEntity
  8
0
100
AcDbPolyline
 90
        8
 70
     1
 43
0.0
 10
-21.24711775979859
 20
-84.24125432885
 10
-34.24711775979858
 20
-84.24125432884904
 42
0.4142135623730951
 10
-34.74711775979853
 20
-84.74125432884902
 10
-34.74711775979853
 20
-97.74125432885
 42
0.4142135623730951
 10
-34.24711775979858
 20
-98.24125432885001
 10
-21.24711775979859
 20
-98.24125432885004
 42
0.4142135623730951
 10
-20.74711775979853
 20
-97.74125432885
 10
-20.74711775979955
 20
-84.74125432884902
 42
0.4142135623730951
  0
LWPOLYLINE
  5
110
330
1F
100
AcDbEntity
  8
0
100
AcDbPolyline
 90
        8
 70
     1
 43
0.0
 10
-301.7346177597985
 20
-40.59125432885003
 10
-301.7346177597985
 20
-27.591254328849
 42
0.4142135623730951
 10
-302.2346177597984
 20
-27.09125432884906
 10
-315.2346177597985
 20
-27.09125432884906
 42
0.4142135623730951
 10
-315.7346177597984
 20
-27.591254328849
 10
-315.7346177597986
 20
-40.59125432885003
 42
0.4142135623730951
 10
-315.2346177597985
 20
-41.09125432885003
 10
-302.2346177597984
 20
-41.09125432885003
 42
0.4142135623730951
  0
LWPOLYLINE
  5
111
330
1F
100
AcDbEntity
  8
0
100
AcDbPolyline
 90
        8
 70
     1
 43
0.0
 10
-130.7846177597985
 20
-65.19125432885002
 10
-143.7846177597985
 20
-65.19125432885005
 42
0.4142135623730951
 10
-144.2846177597985
 20
-65.69125432885005
 10
-144.2846177597985
 20
-78.69125432884904
 42
0.4142135623730951
 10
-143.7846177597985
 20
-79.19125432884904
 10
-130.7846177597985
 20
-79.19125432884903
 42
0.4142135623730951
 10
-130.2846177597986
 20
-78.69125432884904
 10
-130.2846177597985
 20
-65.69125432885005
 42
0.4142135623730951
  0
LWPOLYLINE
  5
112
330
1F
100
AcDbEntity
  8
0
100
AcDbPolyline
 90
        8
 70
     1
 43
0.0
 10
-121.2596177597985
 20
-46.14125432885001
 10
-134.2596177597985
 20
-46.14125432885006
 42
0.4142135623730951
 10
-134.7596177597985
 20
-46.64125432885007
 10
-134.7596177597985
 20
-59.64125432885001
 42
0.4142135623730951
 10
-134.2596177597985
 20
-60.14125432885001
 10
-121.2596177597985
 20
-60.14125432885001
 42
0.4142135623730951
 10
-120.7596177597985
 20
-59.64125432885001
 10
-120.7596177597985
 20
-46.64125432885007
 42
0.4142135623730951
  0
LWPOLYLINE
  5
113
330
1F
100
AcDbEntity
  8
0
100
AcDbPolyline
 90
        8
 70
     1
 43
0.0
 10
-249.0596177597985
 20
-46.64125432885007
 42
-0.4142135623730951
 10
-248.5596177597985
 20
-46.14125432885001
 10
-235.5596177597985
 20
-46.14125432885001
 42
-0.4142135623730951
 10
-235.0596177597985
 20
-46.64125432885007
 10
-235.0596177597985
 20
-59.64125432885001
 42
-0.4142135623730951
 10
-235.5596177597985
 20
-60.14125432885001
 10
-248.5596177597985
 20
-60.14125432885001
 42
-0.4142135623730951
 10
-249.0596177597985
 20
-59.64125432885001
  0
LWPOLYLINE
  5
114
330
1F
100
AcDbEntity
  8
0
100
AcDbPolyline
 90
        8
 70
     1
 43
0.0
 10
-21.24711775979859
 20
-65.19125432885002
 10
-34.24711775979858
 20
-65.19125432885005
 42
0.4142135623730951
 10
-34.74711775979853
 20
-65.69125432885005
 10
-34.74711775979859
 20
-78.69125432884904
 42
0.4142135623730951
 10
-34.24711775979858
 20
-79.19125432884904
 10
-21.24711775979859
 20
-79.19125432884903
 42
0.4142135623730951
 10
-20.74711775979858
 20
-78.69125432884904
 10
-20.74711775979853
 20
-65.69125432885005
 42
0.4142135623730951
  0
LWPOLYLINE
  5
115
330
1F
100
AcDbEntity
  8
0
100
AcDbPolyline
 90
        8
 70
     1
 43
0.0
 10
-239.8221177597985
 20
-40.59125432885003
 10
-239.8221177597985
 20
-27.591254328849
 42
0.4142135623730951
 10
-240.3221177597985
 20
-27.09125432884906
 10
-253.3221177597985
 20
-27.09125432884906
 42
0.4142135623730951
 10
-253.8221177597985
 20
-27.591254328849
 10
-253.8221177597985
 20
-40.59125432885003
 42
0.4142135623730951
 10
-253.3221177597985
 20
-41.09125432885003
 10
-240.3221177597985
 20
-41.09125432885003
 42
0.4142135623730951
  0
LWPOLYLINE
  5
116
330
1F
100
AcDbEntity
  8
0
100
AcDbPolyline
 90
        8
 70
     1
 43
0.0
 10
-221.2721177597986
 20
-27.09125432884906
 10
-234.2721177597984
 20
-27.09125432884906
 42
0.4142135623730951
 10
-234.7721177597985
 20
-27.591254328849
 10
-234.7721177597985
 20
-40.59125432885003
 42
0.4142135623730951
 10
-234.2721177597984
 20
-41.09125432885003
 10
-221.2721177597986
 20
-41.09125432885003
 42
0.4142135623730951
 10
-220.7721177597985
 20
-40.59125432885003
 10
-220.7721177597987
 20
-27.591254328849
 42
0.4142135623730951
  0
LWPOLYLINE
  5
117
330
1F
100
AcDbEntity
  8
0
100
AcDbPolyline
 90
        8
 70
     1
 43
0.0
 10
-278.4221177597985
 20
-27.09125432884906
 10
-291.4221177597985
 20
-27.09125432884906
 42
0.4142135623730951
 10
-291.9221177597984
 20
-27.591254328849
 10
-291.9221177597986
 20
-40.59125432885003
 42
0.4142135623730951
 10
-291.4221177597985
 20
-41.09125432885003
 10
-278.4221177597985
 20
-41.09125432885003
 42
0.4142135623730951
 10
-277.9221177597985
 20
-40.59125432885003
 10
-277.9221177597985
 20
-27.591254328849
 42
0.4142135623730951
  0
LWPOLYLINE
  5
118
330
1F
100
AcDbEntity
  8
0
100
AcDbPolyline
 90
        8
 70
     1
 43
0.0
 10
-164.1221177597986
 20
-27.09125432884906
 10
-177.1221177597985
 20
-27.09125432884901
 42
0.4142135623730951
 10
-177.6221177597986
 20
-27.591254328849
 10
-177.6221177597986
 20
-40.59125432885003
 42
0.4142135623730951
 10
-177.1221177597985
 20
-41.09125432885003
 10
-164.1221177597986
 20
-41.09125432885003
 42
0.4142135623730951
 10
-163.6221177597986
 20
-40.59125432885003
 10
-163.6221177597986
 20
-27.591254328849
 42
0.4142135623730951
  0
LWPOLYLINE
  5
119
330
1F
100
AcDbEntity
  8
0
100
AcDbPolyline
 90
        8
 70
     1
 43
0.0
 10
-287.1596177597985
 20
-46.64125432885007
 42
-0.4142135623730951
 10
-286.6596177597985
 20
-46.14125432885001
 10
-273.6596177597985
 20
-46.14125432885001
 42
-0.4142135623730951
 10
-273.1596177597985
 20
-46.64125432885007
 10
-273.1596177597985
 20
-59.64125432885001
 42
-0.4142135623730951
 10
-273.6596177597985
 20
-60.14125432885001
 10
-286.6596177597985
 20
-60.14125432885001
 42
-0.4142135623730951
 10
-287.1596177597985
 20
-59.64125432885001
  0
LWPOLYLINE
  5
120
330
1F
100
AcDbEntity
  8
0
100
AcDbPolyline
 90
        8
 70
     1
 43
0.0
 10
-154.5971177597985
 20
-8.041254328849987
 10
-167.5971177597986
 20
-8.041254328849987
 42
0.4142135623730951
 10
-168.0971177597985
 20
-8.541254328850044
 10
-168.0971177597985
 20
-21.54125432884905
 42
0.4142135623730951
 10
-167.5971177597986
 20
-22.04125432884902
 10
-154.5971177597985
 20
-22.04125432884905
 42
0.4142135623730951
 10
-154.0971177597985
 20
-21.54125432884905
 10
-154.0971177597985
 20
-8.541254328850044
 42
0.4142135623730951
  0
LWPOLYLINE
  5
121
330
1F
100
AcDbEntity
  8
0
100
AcDbPolyline
 90
        8
 70
     1
 43
0.0
 10
-116.4971177597986
 20
-8.041254328849987
 10
-129.4971177597986
 20
-8.041254328849987
 42
0.4142135623730951
 10
-129.9971177597986
 20
-8.541254328850044
 10
-129.9971177597986
 20
-21.54125432884905
 42
0.4142135623730951
 10
-129.4971177597986
 20
-22.04125432884902
 10
-116.4971177597986
 20
-22.04125432884905
 42
0.4142135623730951
 10
-115.9971177597986
 20
-21.54125432884905
 10
-115.9971177597986
 20
-8.541254328850044
 42
0.4142135623730951
  0
LWPOLYLINE
  5
122
330
1F
100
AcDbEntity
  8
0
100
AcDbPolyline
 90
        8
 70
     1
 43
0.0
 10
-230.2971177597985
 20
-21.54125432884905
 10
-230.2971177597984
 20
-8.541254328850044
 42
0.4142135623730951
 10
-230.7971177597984
 20
-8.041254328849987
 10
-243.7971177597985
 20
-8.041254328849987
 42
0.4142135623730951
 10
-244.2971177597986
 20
-8.541254328850044
 10
-244.2971177597984
 20
-21.54125432884905
 42
0.4142135623730951
 10
-243.7971177597985
 20
-22.04125432884902
 10
-230.7971177597984
 20
-22.04125432884902
 42
0.4142135623730951
  0
LWPOLYLINE
  5
123
330
1F
100
AcDbEntity
  8
0
100
AcDbPolyline
 90
        8
 70
     1
 43
0.0
 10
-140.3096177597985
 20
-46.14125432885001
 10
-153.3096177597986
 20
-46.14125432885001
 42
0.4142135623730951
 10
-153.8096177597986
 20
-46.64125432885007
 10
-153.8096177597986
 20
-59.64125432885001
 42
0.4142135623730951
 10
-153.3096177597986
 20
-60.14125432885001
 10
-140.3096177597985
 20
-60.14125432885001
 42
0.4142135623730951
 10
-139.8096177597986
 20
-59.64125432885001
 10
-139.8096177597986
 20
-46.64125432885007
 42
0.4142135623730951
  0
LWPOLYLINE
  5
124
330
1F
100
AcDbEntity
  8
0
100
AcDbPolyline
 90
        8
 70
     1
 43
0.0
 10
-306.9971177597985
 20
-8.041254328849987
 10
-319.9971177597985
 20
-8.041254328849987
 42
0.4142135623730827
 10
-320.4971177597985
 20
-8.541254328850044
 10
-320.4971177597985
 20
-21.54125432884905
 42
0.4142135623730833
 10
-319.9971177597985
 20
-22.04125432884902
 10
-306.9971177597985
 20
-22.04125432884902
 42
0.4142135623730951
 10
-306.4971177597985
 20
-21.54125432884905
 10
-306.4971177597985
 20
-8.541254328850044
 42
0.4142135623730951
  0
LWPOLYLINE
  5
125
330
1F
100
AcDbEntity
  8
0
100
AcDbPolyline
 90
        8
 70
     1
 43
0.0
 10
-206.4846177597985
 20
-78.69125432884904
 10
-206.4846177597985
 20
-65.69125432885005
 42
0.4142135623730951
 10
-206.9846177597985
 20
-65.19125432885002
 10
-219.9846177597986
 20
-65.19125432885005
 42
0.4142135623730951
 10
-220.4846177597985
 20
-65.69125432885005
 10
-220.4846177597985
 20
-78.69125432884904
 42
0.4142135623730951
 10
-219.9846177597986
 20
-79.19125432884904
 10
-206.9846177597985
 20
-79.19125432884904
 42
0.4142135623730951
  0
LWPOLYLINE
  5
126
330
1F
100
AcDbEntity
  8
0
100
AcDbPolyline
 90
        8
 70
     1
 43
0.0
 10
-287.9471177597985
 20
-8.041254328849987
 10
-300.9471177597985
 20
-8.041254328849987
 42
0.4142135623730951
 10
-301.4471177597985
 20
-8.541254328850044
 10
-301.4471177597984
 20
-21.54125432884905
 42
0.4142135623730951
 10
-300.9471177597985
 20
-22.04125432884902
 10
-287.9471177597985
 20
-22.04125432884902
 42
0.4142135623730951
 10
-287.4471177597985
 20
-21.54125432884905
 10
-287.4471177597985
 20
-8.541254328850044
 42
0.4142135623730951
  0
LWPOLYLINE
  5
127
330
1F
100
AcDbEntity
  8
0
100
AcDbPolyline
 90
        8
 70
     1
 43
0.0
 10
-21.24711775979859
 20
-27.09125432884906
 10
-34.24711775979858
 20
-27.09125432884906
 42
0.4142135623730951
 10
-34.74711775979853
 20
-27.591254328849
 10
-34.74711775979853
 20
-40.59125432885003
 42
0.4142135623730951
 10
-34.24711775979858
 20
-41.09125432885
 10
-21.24711775979859
 20
-41.09125432885
 42
0.4142135623730951
 10
-20.74711775979858
 20
-40.59125432885003
 10
-20.74711775979858
 20
-27.591254328849
 42
0.4142135623730951
  0
LWPOLYLINE
  5
128
330
1F
100
AcDbEntity
  8
0
100
AcDbPolyline
 90
        8
 70
     1
 43
0.0
 10
-198.5533677597985
 20
-98.24125432885004
 10
-185.5533677597985
 20
-98.24125432885001
 42
0.4142135623730951
 10
-185.0533677597985
 20
-97.74125432885
 10
-185.0533677597987
 20
-84.74125432885001
 42
0.4142135623730951
 10
-185.5533677597985
 20
-84.24125432885004
 10
-198.5533677597985
 20
-84.24125432885
 42
0.4142135623730951
 10
-199.0533677597985
 20
-84.74125432885001
 10
-199.0533677597985
 20
-97.74125432885
 42
0.4142135623730951
  0
LWPOLYLINE
  5
129
330
1F
100
AcDbEntity
  8
0
100
AcDbPolyline
 90
        8
 70
     1
 43
0.0
 10
-168.8846177597986
 20
-65.19125432885002
 10
-181.8846177597986
 20
-65.19125432885002
 42
0.4142135623730951
 10
-182.3846177597986
 20
-65.69125432885005
 10
-182.3846177597986
 20
-78.69125432884904
 42
0.4142135623730951
 10
-181.8846177597986
 20
-79.19125432884904
 10
-168.8846177597986
 20
-79.19125432884904
 42
0.4142135623730951
 10
-168.3846177597986
 20
-78.69125432884904
 10
-168.3846177597986
 20
-65.69125432885005
 42
0.4142135623730951
  0
LWPOLYLINE
  5
130
330
1F
100
AcDbEntity
  8
0
100
AcDbPolyline
 90
        8
 70
     1
 43
0.0
 10
-197.4596177597985
 20
-46.14125432885001
 10
-210.4596177597986
 20
-46.14125432885001
 42
0.4142135623730951
 10
-210.9596177597985
 20
-46.64125432885007
 10
-210.9596177597985
 20
-59.64125432885001
 42
0.4142135623730951
 10
-210.4596177597986
 20
-60.14125432885001
 10
-197.4596177597985
 20
-60.14125432885001
 42
0.4142135623730951
 10
-196.9596177597985
 20
-59.64125432885001
 10
-196.9596177597985
 20
-46.64125432885007
 42
0.4142135623730951
  0
LWPOLYLINE
  5
131
330
1F
100
AcDbEntity
  8
0
100
AcDbPolyline
 90
        8
 70
     1
 43
0.0
 10
-263.6346177597985
 20
-78.69125432884904
 10
-263.6346177597985
 20
-65.69125432885005
 42
0.4142135623730951
 10
-264.1346177597985
 20
-65.19125432885002
 10
-277.1346177597985
 20
-65.19125432885005
 42
0.4142135623730951
 10
-277.6346177597985
 20
-65.69125432885005
 10
-277.6346177597985
 20
-78.69125432884904
 42
0.4142135623730951
 10
-277.1346177597985
 20
-79.19125432884904
 10
-264.1346177597985
 20
-79.19125432884904
 42
0.4142135623730951
  0
LWPOLYLINE
  5
132
330
1F
100
AcDbEntity
  8
0
100
AcDbPolyline
 90
        8
 70
     1
 43
0.0
 10
-135.5471177597986
 20
-8.041254328849987
 10
-148.5471177597986
 20
-8.041254328849987
 42
0.4142135623730951
 10
-149.0471177597986
 20
-8.541254328850044
 10
-149.0471177597985
 20
-21.54125432884905
 42
0.4142135623730951
 10
-148.5471177597986
 20
-22.04125432884902
 10
-135.5471177597986
 20
-22.04125432884905
 42
0.4142135623730951
 10
-135.0471177597986
 20
-21.54125432884905
 10
-135.0471177597986
 20
-8.541254328850044
 42
0.4142135623730951
  0
LWPOLYLINE
  5
133
330
1F
100
AcDbEntity
  8
0
100
AcDbPolyline
 90
        8
 70
     1
 43
0.0
 10
-187.9346177597986
 20
-65.19125432885002
 10
-200.9346177597986
 20
-65.19125432885005
 42
0.4142135623730951
 10
-201.4346177597986
 20
-65.69125432885005
 10
-201.4346177597986
 20
-78.69125432884904
 42
0.4142135623730951
 10
-200.9346177597986
 20
-79.19125432884904
 10
-187.9346177597986
 20
-79.19125432884904
 42
0.4142135623730951
 10
-187.4346177597986
 20
-78.69125432884904
 10
-187.4346177597986
 20
-65.69125432885005
 42
0.4142135623730951
  0
LWPOLYLINE
  5
134
330
1F
100
AcDbEntity
  8
0
100
AcDbPolyline
 90
        8
 70
     1
 43
0.0
 10
-225.5346177597986
 20
-78.69125432884904
 10
-225.5346177597986
 20
-65.69125432885005
 42
0.4142135623730951
 10
-226.0346177597986
 20
-65.19125432885002
 10
-239.0346177597985
 20
-65.19125432885005
 42
0.4142135623730951
 10
-239.5346177597985
 20
-65.69125432885005
 10
-239.5346177597985
 20
-78.69125432884904
 42
0.4142135623730951
 10
-239.0346177597985
 20
-79.19125432884904
 10
-226.0346177597986
 20
-79.19125432884904
 42
0.4142135623730951
  0
LWPOLYLINE
  5
135
330
1F
100
AcDbEntity
  8
0
100
AcDbPolyline
 90
        8
 70
     1
 43
0.0
 10
-114.1158677597985
 20
-84.24125432885
 10
-127.1158677597985
 20
-84.24125432884904
 42
0.4142135623730951
 10
-127.6158677597985
 20
-84.74125432884902
 10
-127.6158677597985
 20
-97.74125432885
 42
0.4142135623730951
 10
-127.1158677597985
 20
-98.24125432885004
 10
-114.1158677597985
 20
-98.24125432885001
 42
0.4142135623730951
 10
-113.6158677597985
 20
-97.74125432885
 10
-113.6158677597995
 20
-84.74125432884902
 42
0.4142135623730951
  0
LWPOLYLINE
  5
136
330
1F
100
AcDbEntity
  8
0
100
AcDbPolyline
 90
        8
 70
     1
 43
0.0
 10
-90.30336775979856
 20
-84.24125432885
 10
-103.3033677597985
 20
-84.24125432884904
 42
0.4142135623730951
 10
-103.8033677597985
 20
-84.74125432884902
 10
-103.8033677597985
 20
-97.74125432885
 42
0.4142135623730951
 10
-103.3033677597985
 20
-98.24125432885004
 10
-90.30336775979856
 20
-98.24125432885001
 42
0.4142135623730951
 10
-89.80336775979855
 20
-97.74125432885
 10
-89.80336775979953
 20
-84.74125432884902
 42
0.4142135623730951
  0
LWPOLYLINE
  5
137
330
1F
100
AcDbEntity
  8
0
100
AcDbPolyline
 90
        8
 70
     1
 43
0.0
 10
-58.84711775979861
 20
-97.74125432885
 10
-58.84711775979855
 20
-84.74125432884902
 42
0.4142135623730951
 10
-59.3471177597986
 20
-84.24125432884901
 10
-72.34711775979855
 20
-84.24125432884904
 42
0.4142135623730951
 10
-72.84711775979849
 20
-84.74125432884902
 10
-72.84711775979855
 20
-97.74125432885
 42
0.4142135623730951
 10
-72.34711775979855
 20
-98.24125432885004
 10
-59.3471177597986
 20
-98.24125432885001
 42
0.4142135623730951
  0
LWPOLYLINE
  5
138
330
1F
100
AcDbEntity
  8
0
100
AcDbPolyline
 90
        8
 70
     1
 43
0.0
 10
-21.24711775979859
 20
-8.041254328849987
 10
-34.24711775979858
 20
-8.041254328849987
 42
0.4142135623730951
 10
-34.74711775979859
 20
-8.541254328850044
 10
-34.74711775979853
 20
-21.54125432884905
 42
0.4142135623730951
 10
-34.24711775979858
 20
-22.04125432884902
 10
-21.24711775979859
 20
-22.04125432884905
 42
0.4142135623730951
 10
-20.74711775979853
 20
-21.54125432884905
 10
-20.74711775979853
 20
-8.541254328850044
 42
0.4142135623730951
  0
LWPOLYLINE
  5
139
330
1F
100
AcDbEntity
  8
0
100
AcDbPolyline
 90
        8
 70
     1
 43
0.0
 10
-196.6721177597985
 20
-27.591254328849
 42
-0.4142135623730951
 10
-196.1721177597985
 20
-27.09125432884901
 10
-183.1721177597985
 20
-27.09125432884901
 42
-0.4142135623730951
 10
-182.6721177597985
 20
-27.591254328849
 10
-182.6721177597985
 20
-40.59125432885003
 42
-0.4142135623730951
 10
-183.1721177597985
 20
-41.09125432885003
 10
-196.1721177597985
 20
-41.09125432885003
 42
-0.4142135623730951
 10
-196.6721177597985
 20
-40.59125432885003
  0
LWPOLYLINE
  5
140
330
1F
100
AcDbEntity
  8
0
100
AcDbPolyline
 90
        8
 70
     1
 43
0.0
 10
-272.8721177597985
 20
-27.591254328849
 42
-0.4142135623730951
 10
-272.3721177597985
 20
-27.09125432884901
 10
-259.3721177597985
 20
-27.09125432884901
 42
-0.4142135623730951
 10
-258.8721177597985
 20
-27.591254328849
 10
-258.8721177597985
 20
-40.59125432885003
 42
-0.4142135623730951
 10
-259.3721177597985
 20
-41.09125432885003
 10
-272.3721177597985
 20
-41.09125432885003
 42
-0.4142135623730951
 10
-272.8721177597985
 20
-40.59125432885003
  0
LWPOLYLINE
  5
141
330
1F
100
AcDbEntity
  8
0
100
AcDbPolyline
 90
        8
 70
     1
 43
0.0
 10
-177.9096177597986
 20
-59.64125432885001
 10
-177.9096177597986
 20
-46.64125432885007
 42
0.4142135623730951
 10
-178.4096177597986
 20
-46.14125432885001
 10
-191.4096177597986
 20
-46.14125432885006
 42
0.4142135623730951
 10
-191.9096177597985
 20
-46.64125432885007
 10
-191.9096177597986
 20
-59.64125432885001
 42
0.4142135623730951
 10
-191.4096177597986
 20
-60.14125432885001
 10
-178.4096177597986
 20
-60.14125432885001
 42
0.4142135623730951
  0
LWPOLYLINE
  5
142
330
1F
100
AcDbEntity
  8
0
100
AcDbPolyline
 90
        8
 70
     1
 43
0.0
 10
-144.5721177597985
 20
-40.59125432885003
 10
-144.5721177597985
 20
-27.591254328849
 42
0.4142135623730951
 10
-145.0721177597985
 20
-27.09125432884901
 10
-158.0721177597985
 20
-27.09125432884906
 42
0.4142135623730951
 10
-158.5721177597985
 20
-27.591254328849
 10
-158.5721177597986
 20
-40.59125432885003
 42
0.4142135623730951
 10
-158.0721177597985
 20
-41.09125432885003
 10
-145.0721177597985
 20
-41.09125432885003
 42
0.4142135623730951
  0
LWPOLYLINE
  5
143
330
1F
100
AcDbEntity
  8
0
100
AcDbPolyline
 90
        8
 70
     1
 43
0.0
 10
-111.7346177597986
 20
-65.19125432885002
 10
-124.7346177597986
 20
-65.19125432885005
 42
0.4142135623730951
 10
-125.2346177597985
 20
-65.69125432885005
 10
-125.2346177597985
 20
-78.69125432884904
 42
0.4142135623730951
 10
-124.7346177597986
 20
-79.19125432884903
 10
-111.7346177597986
 20
-79.19125432884903
 42
0.4142135623730951
 10
-111.2346177597986
 20
-78.69125432884904
 10
-111.2346177597986
 20
-65.69125432885005
 42
0.4142135623730951
  0
LWPOLYLINE
  5
144
330
1F
100
AcDbEntity
  8
0
100
AcDbPolyline
 90
        8
 70
     1
 43
0.0
 10
-78.39711775979856
 20
-8.041254328849987
 10
-91.39711775979856
 20
-8.041254328849987
 42
0.4142135623730951
 10
-91.89711775979857
 20
-8.541254328850044
 10
-91.89711775979857
 20
-21.54125432884905
 42
0.4142135623730951
 10
-91.39711775979856
 20
-22.04125432884902
 10
-78.39711775979856
 20
-22.04125432884905
 42
0.4142135623730951
 10
-77.89711775979856
 20
-21.54125432884905
 10
-77.89711775979856
 20
-8.541254328850044
 42
0.4142135623730951
  0
LWPOLYLINE
  5
145
330
1F
100
AcDbEntity
  8
0
100
AcDbPolyline
 90
        8
 70
     1
 43
0.0
 10
-149.8346177597985
 20
-65.19125432885002
 10
-162.8346177597985
 20
-65.19125432885002
 42
0.4142135623730951
 10
-163.3346177597985
 20
-65.69125432885005
 10
-163.3346177597985
 20
-78.69125432884904
 42
0.4142135623730951
 10
-162.8346177597985
 20
-79.19125432884904
 10
-149.8346177597985
 20
-79.19125432884903
 42
0.4142135623730951
 10
-149.3346177597986
 20
-78.69125432884904
 10
-149.3346177597985
 20
-65.69125432885005
 42
0.4142135623730951
  0
LWPOLYLINE
  5
146
330
1F
100
AcDbEntity
  8
0
100
AcDbPolyline
 90
        8
 70
     1
 43
0.0
 10
-245.0846177597985
 20
-65.19125432885002
 10
-258.0846177597984
 20
-65.19125432885002
 42
0.4142135623730951
 10
-258.5846177597984
 20
-65.69125432885005
 10
-258.5846177597984
 20
-78.69125432884904
 42
0.4142135623730951
 10
-258.0846177597984
 20
-79.19125432884904
 10
-245.0846177597985
 20
-79.19125432884904
 42
0.4142135623730951
 10
-244.5846177597985
 20
-78.69125432884904
 10
-244.5846177597985
 20
-65.69125432885005
 42
0.4142135623730951
  0
LWPOLYLINE
  5
147
330
1F
100
AcDbEntity
  8
0
100
AcDbPolyline
 90
        8
 70
     1
 43
0.0
 10
-304.1158677597985
 20
-97.74125432885
 10
-304.1158677597985
 20
-84.74125432884902
 42
0.4142135623730951
 10
-304.6158677597984
 20
-84.24125432884901
 10
-317.6158677597986
 20
-84.24125432884903
 42
0.4142135623730893
 10
-318.1158677597985
 20
-84.74125432884902
 10
-318.1158677597986
 20
-97.74125432885
 42
0.4142135623730898
 10
-317.6158677597986
 20
-98.24125432885004
 10
-304.6158677597984
 20
-98.24125432885004
 42
0.4142135623730951
  0
LWPOLYLINE
  5
148
330
1F
100
AcDbEntity
  8
0
100
AcDbPolyline
 90
        8
 70
     1
 43
0.0
 10
-34.74711775979859
 20
-46.64125432885007
 42
-0.4142135623730951
 10
-34.24711775979858
 20
-46.14125432885001
 10
-21.24711775979859
 20
-46.14125432885001
 42
-0.4142135623730951
 10
-20.74711775979858
 20
-46.64125432885007
 10
-20.74711775979853
 20
-59.64125432885001
 42
-0.4142135623730951
 10
-21.24711775979859
 20
-60.14125432885001
 10
-34.24711775979858
 20
-60.14125432885001
 42
-0.4142135623730951
 10
-34.74711775979859
 20
-59.64125432885001
  0
LWPOLYLINE
  5
149
330
1F
100
AcDbEntity
  8
0
100
AcDbPolyline
 90
        8
 70
     1
 43
0.0
 10
-83.15961775979856
 20
-46.14125432885001
 10
-96.15961775979855
 20
-46.14125432885006
 42
0.4142135623730951
 10
-96.65961775979855
 20
-46.64125432885007
 10
-96.65961775979861
 20
-59.64125432885001
 42
0.4142135623730951
 10
-96.15961775979855
 20
-60.14125432885001
 10
-83.15961775979856
 20
-60.14125432885001
 42
0.4142135623730951
 10
-82.65961775979855
 20
-59.64125432885001
 10
-82.65961775979855
 20
-46.64125432885007
 42
0.4142135623730951
  0
LWPOLYLINE
  5
150
330
1F
100
AcDbEntity
  8
0
100
AcDbPolyline
 90
        8
 70
     1
 43
0.0
 10
-256.9908677597985
 20
-84.24125432885
 10
-269.9908677597985
 20
-84.24125432884901
 42
0.4142135623730951
 10
-270.4908677597984
 20
-84.74125432884902
 10
-270.4908677597984
 20
-97.74125432885
 42
0.4142135623730951
 10
-269.9908677597985
 20
-98.24125432885004
 10
-256.9908677597985
 20
-98.24125432885001
 42
0.4142135623730951
 10
-256.4908677597984
 20
-97.74125432885
 10
-256.4908677597995
 20
-84.74125432884902
 42
0.4142135623730951
  0
LWPOLYLINE
  5
151
330
1F
100
AcDbEntity
  8
0
100
AcDbPolyline
 90
        8
 70
     1
 43
0.0
 10
-216.5096177597986
 20
-46.14125432885001
 10
-229.5096177597985
 20
-46.14125432885006
 42
0.4142135623730951
 10
-230.0096177597984
 20
-46.64125432885007
 10
-230.0096177597985
 20
-59.64125432885001
 42
0.4142135623730951
 10
-229.5096177597985
 20
-60.14125432885001
 10
-216.5096177597986
 20
-60.14125432885001
 42
0.4142135623730951
 10
-216.0096177597986
 20
-59.64125432885001
 10
-216.0096177597986
 20
-46.64125432885007
 42
0.4142135623730951
  0
LWPOLYLINE
  5
152
330
1F
100
AcDbEntity
  8
0
100
AcDbPolyline
 90
        8
 70
     1
 43
0.0
 10
-294.3033677597984
 20
-84.74125432884902
 42
-0.4142135623730951
 10
-293.8033677597985
 20
-84.24125432884901
 10
-280.8033677597984
 20
-84.24125432884901
 42
-0.4142135623730951
 10
-280.3033677597984
 20
-84.74125432884902
 10
-280.3033677597984
 20
-97.74125432885
 42
-0.4142135623730951
 10
-280.8033677597984
 20
-98.24125432885004
 10
-293.8033677597985
 20
-98.24125432885004
 42
-0.4142135623730951
 10
-294.3033677597984
 20
-97.74125432885
  0
LWPOLYLINE
  5
153
330
1F
100
AcDbEntity
  8
0
100
AcDbPolyline
 90
        8
 70
     1
 43
0.0
 10
-68.87211775979858
 20
-27.09125432884906
 10
-81.87211775979859
 20
-27.09125432884901
 42
0.4142135623730951
 10
-82.37211775979858
 20
-27.591254328849
 10
-82.37211775979858
 20
-40.59125432885003
 42
0.4142135623730951
 10
-81.87211775979859
 20
-41.09125432885003
 10
-68.87211775979858
 20
-41.09125432885003
 42
0.4142135623730951
 10
-68.37211775979858
 20
-40.59125432885003
 10
-68.37211775979858
 20
-27.591254328849
 42
0.4142135623730951
  0
LWPOLYLINE
  5
154
330
1F
100
AcDbEntity
  8
0
100
AcDbPolyline
 90
        8
 70
     1
 43
0.0
 10
-254.6096177597986
 20
-46.14125432885001
 10
-267.6096177597985
 20
-46.14125432885001
 42
0.4142135623730951
 10
-268.1096177597985
 20
-46.64125432885007
 10
-268.1096177597985
 20
-59.64125432885001
 42
0.4142135623730951
 10
-267.6096177597985
 20
-60.14125432885001
 10
-254.6096177597986
 20
-60.14125432885001
 42
0.4142135623730951
 10
-254.1096177597985
 20
-59.64125432885001
 10
-254.1096177597985
 20
-46.64125432885007
 42
0.4142135623730951
  0
LWPOLYLINE
  5
155
330
1F
100
AcDbEntity
  8
0
100
AcDbPolyline
 90
        8
 70
     1
 43
0.0
 10
-202.2221177597986
 20
-27.09125432884906
 10
-215.2221177597986
 20
-27.09125432884906
 42
0.4142135623730951
 10
-215.7221177597985
 20
-27.591254328849
 10
-215.7221177597986
 20
-40.59125432885003
 42
0.4142135623730951
 10
-215.2221177597986
 20
-41.09125432885003
 10
-202.2221177597986
 20
-41.09125432885003
 42
0.4142135623730951
 10
-201.7221177597986
 20
-40.59125432885003
 10
-201.7221177597986
 20
-27.591254328849
 42
0.4142135623730951
  0
LWPOLYLINE
  5
156
330
1F
100
AcDbEntity
  8
0
100
AcDbPolyline
 90
        8
 70
     1
 43
0.0
 10
-106.1846177597986
 20
-65.69125432885005
 42
-0.4142135623730951
 10
-105.6846177597986
 20
-65.19125432885002
 10
-92.68461775979858
 20
-65.19125432885002
 42
-0.4142135623730951
 10
-92.18461775979859
 20
-65.69125432885005
 10
-92.18461775979859
 20
-78.69125432884904
 42
-0.4142135623730951
 10
-92.68461775979858
 20
-79.19125432884903
 10
-105.6846177597986
 20
-79.19125432884904
 42
-0.4142135623730951
 10
-106.1846177597986
 20
-78.69125432884904
  0
LWPOLYLINE
  5
157
330
1F
100
AcDbEntity
  8
0
100
AcDbPolyline
 90
        8
 70
     1
 43
0.0
 10
-159.3596177597986
 20
-46.14125432885001
 10
-172.3596177597985
 20
-46.14125432885006
 42
0.4142135623730951
 10
-172.8596177597985
 20
-46.64125432885007
 10
-172.8596177597985
 20
-59.64125432885001
 42
0.4142135623730951
 10
-172.3596177597985
 20
-60.14125432885001
 10
-159.3596177597986
 20
-60.14125432885001
 42
0.4142135623730951
 10
-158.8596177597986
 20
-59.64125432885001
 10
-158.8596177597986
 20
-46.64125432885007
 42
0.4142135623730951
  0
LWPOLYLINE
  5
158
330
1F
100
AcDbEntity
  8
0
100
AcDbPolyline
 90
        8
 70
     1
 43
0.0
 10
-115.7096177597985
 20
-46.64125432885007
 42
-0.4142135623730951
 10
-115.2096177597985
 20
-46.14125432885001
 10
-102.2096177597985
 20
-46.14125432885001
 42
-0.4142135623730951
 10
-101.7096177597985
 20
-46.64125432885007
 10
-101.7096177597985
 20
-59.64125432885001
 42
-0.4142135623730951
 10
-102.2096177597985
 20
-60.14125432885001
 10
-115.2096177597985
 20
-60.14125432885001
 42
-0.4142135623730951
 10
-115.7096177597985
 20
-59.64125432885001
  0
LWPOLYLINE
  5
159
330
1F
100
AcDbEntity
  8
0
100
AcDbPolyline
 90
        8
 70
     1
 43
0.0
 10
-106.9721177597986
 20
-27.09125432884906
 10
-119.9721177597986
 20
-27.09125432884906
 42
0.4142135623730951
 10
-120.4721177597985
 20
-27.591254328849
 10
-120.4721177597986
 20
-40.59125432885003
 42
0.4142135623730951
 10
-119.9721177597986
 20
-41.09125432885003
 10
-106.9721177597986
 20
-41.09125432885
 42
0.4142135623730951
 10
-106.4721177597986
 20
-40.59125432885003
 10
-106.4721177597986
 20
-27.591254328849
 42
0.4142135623730951
  0
LWPOLYLINE
  5
160
330
1F
100
AcDbEntity
  8
0
100
AcDbPolyline
 90
        8
 70
     1
 43
0.0
 10
-125.5221177597985
 20
-40.59125432885003
 10
-125.5221177597985
 20
-27.591254328849
 42
0.4142135623730951
 10
-126.0221177597985
 20
-27.09125432884906
 10
-139.0221177597985
 20
-27.09125432884906
 42
0.4142135623730951
 10
-139.5221177597985
 20
-27.591254328849
 10
-139.5221177597985
 20
-40.59125432885003
 42
0.4142135623730951
 10
-139.0221177597985
 20
-41.09125432885003
 10
-126.0221177597985
 20
-41.09125432885003
 42
0.4142135623730951
  0
LWPOLYLINE
  5
161
330
1F
100
AcDbEntity
  8
0
100
AcDbPolyline
 90
        8
 70
     1
 43
0.0
 10
-249.3471177597985
 20
-21.54125432884905
 10
-249.3471177597985
 20
-8.541254328850044
 42
0.4142135623730951
 10
-249.8471177597985
 20
-8.041254328849987
 10
-262.8471177597985
 20
-8.041254328849987
 42
0.4142135623730951
 10
-263.3471177597985
 20
-8.541254328850044
 10
-263.3471177597985
 20
-21.54125432884905
 42
0.4142135623730951
 10
-262.8471177597985
 20
-22.04125432884902
 10
-249.8471177597985
 20
-22.04125432884905
 42
0.4142135623730951
  0
LWPOLYLINE
  5
162
330
1F
100
AcDbEntity
  8
0
100
AcDbPolyline
 90
        8
 70
     1
 43
0.0
 10
-87.92211775979859
 20
-27.09125432884906
 10
-100.9221177597986
 20
-27.09125432884901
 42
0.4142135623730951
 10
-101.4221177597986
 20
-27.591254328849
 10
-101.4221177597986
 20
-40.59125432885003
 42
0.4142135623730951
 10
-100.9221177597986
 20
-41.09125432885003
 10
-87.92211775979859
 20
-41.09125432885003
 42
0.4142135623730951
 10
-87.42211775979859
 20
-40.59125432885003
 10
-87.42211775979859
 20
-27.591254328849
 42
0.4142135623730951
  0
LWPOLYLINE
  5
163
330
1F
100
AcDbEntity
  8
0
100
AcDbPolyline
 90
        8
 70
     1
 43
0.0
 10
-53.7971177597986
 20
-65.69125432885005
 42
-0.4142135623730951
 10
-53.29711775979859
 20
-65.19125432885002
 10
-40.29711775979848
 20
-65.19125432885002
 42
-0.4142135623730951
 10
-39.7971177597986
 20
-65.69125432885005
 10
-39.7971177597986
 20
-78.69125432884904
 42
-0.4142135623730951
 10
-40.29711775979848
 20
-79.19125432884903
 10
-53.29711775979859
 20
-79.19125432884904
 42
-0.4142135623730951
 10
-53.7971177597986
 20
-78.69125432884904
  0
LWPOLYLINE
  5
164
330
1F
100
AcDbEntity
  8
0
100
AcDbPolyline
 90
        8
 70
     1
 43
0.0
 10
-268.8971177597984
 20
-8.041254328849987
 10
-281.8971177597985
 20
-8.041254328849987
 42
0.4142135623730951
 10
-282.3971177597984
 20
-8.541254328850044
 10
-282.3971177597984
 20
-21.54125432884905
 42
0.4142135623730951
 10
-281.8971177597985
 20
-22.04125432884902
 10
-268.8971177597984
 20
-22.04125432884902
 42
0.4142135623730951
 10
-268.3971177597984
 20
-21.54125432884905
 10
-268.3971177597984
 20
-8.541254328850044
 42
0.4142135623730951
  0
LWPOLYLINE
  5
165
330
1F
100
AcDbEntity
  8
0
100
AcDbPolyline
 90
        8
 70
     1
 43
0.0
 10
-211.7471177597986
 20
-8.041254328849987
 10
-224.7471177597986
 20
-8.041254328849987
 42
0.4142135623730951
 10
-225.2471177597986
 20
-8.541254328850044
 10
-225.2471177597986
 20
-21.54125432884905
 42
0.4142135623730951
 10
-224.7471177597986
 20
-22.04125432884902
 10
-211.7471177597986
 20
-22.04125432884902
 42
0.4142135623730951
 10
-211.2471177597986
 20
-21.54125432884905
 10
-211.2471177597986
 20
-8.541254328850044
 42
0.4142135623730951
  0
LWPOLYLINE
  5
166
330
1F
100
AcDbEntity
  8
0
100
AcDbPolyline
 90
        8
 70
     1
 43
0.0
 10
-312.8533677597986
 20
-60.14125432885001
 10
-299.8533677597985
 20
-60.14125432885001
 42
0.4142135623730951
 10
-299.3533677597985
 20
-59.64125432885001
 10
-299.3533677597985
 20
-46.64125432885007
 42
0.4142135623730951
 10
-299.8533677597985
 20
-46.14125432885001
 10
-312.8533677597986
 20
-46.14125432885001
 42
0.4142135623730951
 10
-313.3533677597986
 20
-46.64125432885007
 10
-313.3533677597986
 20
-59.64125432885001
 42
0.4142135623730951
  0
LWPOLYLINE
  5
167
330
1F
100
AcDbEntity
  8
0
100
AcDbPolyline
 90
        8
 70
     1
 43
0.0
 10
-97.44711775979858
 20
-8.041254328849987
 10
-110.4471177597986
 20
-8.041254328849987
 42
0.4142135623730951
 10
-110.9471177597985
 20
-8.541254328850044
 10
-110.9471177597985
 20
-21.54125432884905
 42
0.4142135623730951
 10
-110.4471177597986
 20
-22.04125432884902
 10
-97.44711775979858
 20
-22.04125432884902
 42
0.4142135623730951
 10
-96.94711775979858
 20
-21.54125432884905
 10
-96.94711775979858
 20
-8.541254328850044
 42
0.4142135623730951
  0
LWPOLYLINE
  5
168
330
1F
100
AcDbEntity
  8
0
100
AcDbPolyline
 90
        8
 70
     1
 43
0.0
 10
-66.49086775979856
 20
-65.19125432885002
 10
-79.49086775979856
 20
-65.19125432885002
 42
0.4142135623730951
 10
-79.99086775979856
 20
-65.69125432885005
 10
-79.99086775979856
 20
-78.69125432884904
 42
0.4142135623730951
 10
-79.49086775979856
 20
-79.19125432884904
 10
-66.49086775979856
 20
-79.19125432884904
 42
0.4142135623730951
 10
-65.99086775979856
 20
-78.69125432884904
 10
-65.99086775979856
 20
-65.69125432885005
 42
0.4142135623730951
  0
LWPOLYLINE
  5
169
330
1F
100
AcDbEntity
  8
0
100
AcDbPolyline
 90
        8
 70
     1
 43
0.0
 10
-40.29711775979848
 20
-84.24125432885
 10
-53.29711775979859
 20
-84.24125432884901
 42
0.4142135623730951
 10
-53.7971177597986
 20
-84.74125432884902
 10
-53.7971177597986
 20
-97.74125432885
 42
0.4142135623730951
 10
-53.29711775979859
 20
-98.24125432885004
 10
-40.29711775979848
 20
-98.24125432885001
 42
0.4142135623730951
 10
-39.7971177597986
 20
-97.74125432885
 10
-39.79711775979956
 20
-84.74125432884902
 42
0.4142135623730951
  0
LWPOLYLINE
  5
170
330
1F
100
AcDbEntity
  8
0
100
AcDbPolyline
 90
        8
 70
     1
 43
0.0
 10
-173.6471177597985
 20
-8.041254328849987
 10
-186.6471177597985
 20
-8.041254328849987
 42
0.4142135623730951
 10
-187.1471177597985
 20
-8.541254328850044
 10
-187.1471177597985
 20
-21.54125432884905
 42
0.4142135623730951
 10
-186.6471177597985
 20
-22.04125432884902
 10
-173.6471177597985
 20
-22.04125432884905
 42
0.4142135623730951
 10
-173.1471177597985
 20
-21.54125432884905
 10
-173.1471177597985
 20
-8.541254328850044
 42
0.4142135623730951
  0
LWPOLYLINE
  5
171
330
1F
100
AcDbEntity
  8
0
100
AcDbPolyline
 90
        8
 70
     1
 43
0.0
 10
-192.6971177597986
 20
-8.041254328849987
 10
-205.6971177597986
 20
-8.041254328849987
 42
0.4142135623730951
 10
-206.1971177597986
 20
-8.541254328850044
 10
-206.1971177597985
 20
-21.54125432884905
 42
0.4142135623730951
 10
-205.6971177597986
 20
-22.04125432884902
 10
-192.6971177597986
 20
-22.04125432884902
 42
0.4142135623730951
 10
-192.1971177597986
 20
-21.54125432884905
 10
-192.1971177597986
 20
-8.541254328850044
 42
0.4142135623730951
  0
LWPOLYLINE
  5
172
330
1F
100
AcDbEntity
  8
0
100
AcDbPolyline
 90
        8
 70
     1
 43
0.0
 10
-40.88411775979858
 20
-23.54125432885004
 10
-40.88411775979858
 20
-9.541254328849987
 42
0.4142135623730951
 10
-41.38411775979853
 20
-9.041254328850044
 10
-47.38411775979858
 20
-9.041254328849987
 42
0.4142135623730951
 10
-47.88411775979859
 20
-9.541254328849987
 10
-47.88411775979859
 20
-23.54125432885004
 42
0.4142135623730951
 10
-47.38411775979858
 20
-24.04125432885005
 10
-41.38411775979853
 20
-24.04125432884999
 42
0.4142135623730951
  0
LWPOLYLINE
  5
173
330
1F
100
AcDbEntity
  8
0
100
AcDbPolyline
 90
        8
 70
     1
 43
0.0
 10
-145.0533677597985
 20
-97.24125432885001
 10
-139.0153677597985
 20
-97.24125432885001
 42
0.4142135623730951
 10
-138.5153677597985
 20
-96.74125432885
 10
-138.5153677597985
 20
-82.74125432885
 42
0.4142135623730951
 10
-139.0153677597985
 20
-82.24125432885003
 10
-145.0533677597985
 20
-82.24125432885001
 42
0.4142135623730951
 10
-145.5533677597985
 20
-82.74125432885
 10
-145.5533677597985
 20
-96.74125432885
 42
0.4142135623730951
  0
LWPOLYLINE
  5
174
330
1F
100
AcDbEntity
  8
0
100
AcDbPolyline
 90
        8
 70
     1
 43
0.0
 10
-239.0533677597986
 20
-82.24125432885001
 10
-245.0913677597985
 20
-82.24125432885001
 42
0.4142135623730951
 10
-245.5913677597985
 20
-82.74125432885
 10
-245.5913677597985
 20
-96.74125432885
 42
0.4142135623730951
 10
-245.0913677597985
 20
-97.24125432885001
 10
-239.0533677597986
 20
-97.24125432885001
 42
0.4142135623730951
 10
-238.5533677597986
 20
-96.74125432885
 10
-238.5533677597986
 20
-82.74125432885
 42
0.4142135623730951
  0
LWPOLYLINE
  5
175
330
1F
100
AcDbEntity
  8
0
100
AcDbPolyline
 90
        8
 70
     1
 43
0.0
 10
-310.0288677597985
 20
-80.69125432885003
 10
-310.0288677597986
 20
-66.69125432885002
 42
0.4142135623730951
 10
-310.5288677597986
 20
-66.19125432884999
 10
-316.5288677597986
 20
-66.19125432884999
 42
0.4142135623730951
 10
-317.0288677597986
 20
-66.69125432885002
 10
-317.0288677597985
 20
-80.69125432885003
 42
0.4142135623730951
 10
-316.5288677597985
 20
-81.19125432885004
 10
-310.5288677597985
 20
-81.19125432885004
 42
0.4142135623730951
  0
LWPOLYLINE
  5
176
330
1F
100
AcDbEntity
  8
0
100
AcDbPolyline
 90
        8
 70
     1
 43
0.0
 10
-64.76011775979856
 20
-23.54125432885004
 10
-64.76011775979856
 20
-9.541254328849987
 42
0.4142135623730951
 10
-65.26011775979856
 20
-9.041254328850044
 10
-71.26011775979861
 20
-9.041254328849987
 42
0.4142135623730951
 10
-71.76011775979862
 20
-9.541254328849987
 10
-71.76011775979862
 20
-23.54125432885004
 42
0.4142135623730951
 10
-71.26011775979861
 20
-24.04125432885005
 10
-65.26011775979856
 20
-24.04125432885005
 42
0.4142135623730951
  0
LWPOLYLINE
  5
177
330
1F
100
AcDbEntity
  8
0
100
AcDbPolyline
 90
        8
 70
     1
 43
0.0
 10
-286.1528677597985
 20
-80.69125432885003
 10
-286.1528677597986
 20
-66.69125432885002
 42
0.4142135623730951
 10
-286.6528677597986
 20
-66.19125432884999
 10
-292.6528677597986
 20
-66.19125432884999
 42
0.4142135623730951
 10
-293.1528677597986
 20
-66.69125432885002
 10
-293.1528677597985
 20
-80.69125432885003
 42
0.4142135623730951
 10
-292.6528677597985
 20
-81.19125432885004
 10
-286.6528677597985
 20
-81.19125432885004
 42
0.4142135623730951
  0
LWPOLYLINE
  5
178
330
1F
100
AcDbEntity
  8
0
100
AcDbPolyline
 90
        8
 70
     1
 43
0.0
 10
-62.82211775979852
 20
-22.04125432884999
 10
-49.82211775979857
 20
-22.04125432885005
 42
0.4142135623730951
 10
-49.32211775979857
 20
-21.54125432885004
 10
-49.32211775979851
 20
-8.541254328850044
 42
0.4142135623730951
 10
-49.82211775979857
 20
-8.041254328849987
 10
-62.82211775979852
 20
-8.041254328849987
 42
0.4142135623730951
 10
-63.32211775979857
 20
-8.541254328850044
 10
-63.32211775979851
 20
-21.54125432885004
 42
0.4142135623730951
  0
LWPOLYLINE
  5
179
330
1F
100
AcDbEntity
  8
0
100
AcDbPolyline
 90
        8
 70
     1
 43
0.0
 10
-45.05961775979858
 20
-27.09125432885003
 10
-58.05961775979858
 20
-27.09125432884906
 42
0.4142135623730951
 10
-58.55961775979853
 20
-27.591254328849
 10
-58.55961775979858
 20
-40.59125432885003
 42
0.4142135623730951
 10
-58.05961775979858
 20
-41.09125432885003
 10
-45.05961775979858
 20
-41.09125432885003
 42
0.4142135623730951
 10
-44.55961775979858
 20
-40.59125432885003
 10
-44.55961775979858
 20
-27.59125432885003
 42
0.4142135623730951
  0
LWPOLYLINE
  5
180
330
1F
100
AcDbEntity
  8
0
100
AcDbPolyline
 90
        8
 70
     1
 43
0.0
 10
-50.26536775979855
 20
-44.64125432885
 10
-50.2653677597986
 20
-58.64125432884899
 42
0.4142135623730951
 10
-49.76536775979861
 20
-59.14125432884898
 10
-43.7653677597986
 20
-59.14125432885007
 42
0.4142135623730951
 10
-43.2653677597986
 20
-58.64125432885001
 10
-43.2653677597986
 20
-44.64125432885
 42
0.4142135623730951
 10
-43.7653677597986
 20
-44.14125432885007
 10
-49.76536775979861
 20
-44.14125432885007
 42
0.4142135623730951
  0
LWPOLYLINE
  5
181
330
1F
100
AcDbEntity
  8
0
100
AcDbPolyline
 90
        8
 70
     1
 43
0.0
 10
-295.0908677597986
 20
-65.19125432885002
 10
-308.0908677597986
 20
-65.19125432885002
 42
0.4142135623730951
 10
-308.5908677597986
 20
-65.69125432885005
 10
-308.5908677597986
 20
-78.69125432884904
 42
0.4142135623730951
 10
-308.0908677597986
 20
-79.19125432884904
 10
-295.0908677597986
 20
-79.19125432884904
 42
0.4142135623730951
 10
-294.5908677597986
 20
-78.69125432884904
 10
-294.5908677597986
 20
-65.69125432885005
 42
0.4142135623730951
  0
LWPOLYLINE
  5
182
330
1F
100
AcDbEntity
  8
0
100
AcDbPolyline
 90
        8
 70
     1
 43
0.0
 10
-65.2033677597986
 20
-60.14125432885001
 10
-52.20336775979859
 20
-60.14125432885001
 42
0.4142135623730951
 10
-51.70336775979854
 20
-59.64125432885001
 10
-51.70336775979854
 20
-46.64125432885007
 42
0.4142135623730951
 10
-52.20336775979859
 20
-46.14125432885001
 10
-65.2033677597986
 20
-46.14125432885001
 42
0.4142135623730951
 10
-65.7033677597986
 20
-46.64125432885007
 10
-65.7033677597986
 20
-59.64125432885001
 42
0.4142135623730951
  0
LWPOLYLINE
  5
183
330
1F
100
AcDbEntity
  8
0
100
AcDbPolyline
 90
        8
 70
     1
 43
0.0
 10
-315.3533677597986
 20
-59.64125432885001
 10
-315.3533677597986
 20
-46.64125432885007
 42
0.4142135623730951
 10
-315.8533677597986
 20
-46.14125432885001
 10
-317.3533677597985
 20
-46.14125432885001
 42
0.4142135623730951
 10
-317.8533677597985
 20
-46.64125432885007
 10
-317.8533677597985
 20
-59.64125432885001
 42
0.4142135623730951
 10
-317.3533677597985
 20
-60.14125432885001
 10
-315.8533677597986
 20
-60.14125432885001
 42
0.4142135623730951
  0
LWPOLYLINE
  5
184
330
1F
100
AcDbEntity
  8
0
100
AcDbPolyline
 90
        8
 70
     1
 43
0.0
 10
-76.14136775979853
 20
-59.64125432885001
 10
-76.14136775979853
 20
-46.64125432885007
 42
0.4142135623730951
 10
-76.64136775979859
 20
-46.14125432885001
 10
-78.14136775979853
 20
-46.14125432885001
 42
0.4142135623730951
 10
-78.64136775979853
 20
-46.64125432885007
 10
-78.64136775979853
 20
-59.64125432885001
 42
0.4142135623730951
 10
-78.14136775979853
 20
-60.14125432885001
 10
-76.64136775979859
 20
-60.14125432885001
 42
0.4142135623730951
  0
LWPOLYLINE
  5
185
330
1F
100
AcDbEntity
  8
0
100
AcDbPolyline
 90
        8
 70
     1
 43
0.0
 10
-38.76536775979861
 20
-59.64125432885001
 10
-38.76536775979861
 20
-46.64125432885007
 42
0.4142135623730951
 10
-39.26536775979861
 20
-46.14125432885001
 10
-40.7653677597986
 20
-46.14125432885001
 42
0.4142135623730951
 10
-41.2653677597986
 20
-46.64125432885007
 10
-41.2653677597986
 20
-59.64125432885001
 42
0.4142135623730951
 10
-40.7653677597986
 20
-60.14125432885001
 10
-39.26536775979861
 20
-60.14125432885001
 42
0.4142135623730951
  0
ENDSEC
  0
SECTION
  2
OBJECTS
  0
DICTIONARY
  5
C
330
0
100
AcDbDictionary
281
     1
  3
ACAD_BACKGROUND
350
1005B
  3
ACAD_CIP_PREVIOUS_PRODUCT_INFO
350
1005A
  3
ACAD_COLOR
350
10036
  3
ACAD_DETAILVIEWSTYLE
350
10051
  3
ACAD_GROUP
350
D
  3
ACAD_LAYOUT
350
10037
  3
ACAD_MATERIAL
350
10004
  3
ACAD_MLEADERSTYLE
350
1004D
  3
ACAD_MLINESTYLE
350
17
  3
ACAD_PLOTSETTINGS
350
10054
  3
ACAD_PLOTSTYLENAME
350
10002
  3
ACAD_SCALELIST
350
1003B
  3
ACAD_SECTIONVIEWSTYLE
350
1004F
  3
ACAD_TABLESTYLE
350
10038
  3
ACAD_VISUALSTYLE
350
1001D
  3
ACDB_RECOMPOSE_DATA
350
1007B
  3
AcDbVariableDictionary
350
10061
  0
DICTIONARY
  5
1005F
330
50
100
AcDbDictionary
280
     1
281
     1
  3
ADSK_XREC_LAYER_RECONCILED
360
10060
  0
DICTIONARY
  5
1005B
102
{ACAD_REACTORS
330
C
102
}
330
C
100
AcDbDictionary
281
     1
  0
XRECORD
  5
1005A
102
{ACAD_REACTORS
330
C
102
}
330
C
100
AcDbXrecord
280
     1
300
ACD
300
2022
300

  0
DICTIONARY
  5
10036
102
{ACAD_REACTORS
330
C
102
}
330
C
100
AcDbDictionary
281
     1
  0
DICTIONARY
  5
10051
102
{ACAD_REACTORS
330
C
102
}
330
C
100
AcDbDictionary
281
     1
  3
Imperial24
350
10052
  0
DICTIONARY
  5
D
330
C
100
AcDbDictionary
281
     1
  0
DICTIONARY
  5
10037
102
{ACAD_REACTORS
330
C
102
}
330
C
100
AcDbDictionary
281
     1
  3
Layout1
350
10056
  3
Model
350
10055
  0
DICTIONARY
  5
10004
102
{ACAD_REACTORS
330
C
102
}
330
C
100
AcDbDictionary
281
     1
  3
ByBlock
350
1000D
  3
ByLayer
350
10005
  3
Global
350
10015
  0
DICTIONARY
  5
1004D
102
{ACAD_REACTORS
330
C
102
}
330
C
100
AcDbDictionary
281
     1
  3
Standard
350
1004E
  0
DICTIONARY
  5
17
330
C
100
AcDbDictionary
281
     1
  3
Standard
350
1003A
  0
DICTIONARY
  5
10054
102
{ACAD_REACTORS
330
C
102
}
330
C
100
AcDbDictionary
281
     1
  0
ACDBDICTIONARYWDFLT
  5
10002
102
{ACAD_REACTORS
330
C
102
}
330
C
100
AcDbDictionary
281
     1
  3
Normal
350
10003
100
AcDbDictionaryWithDefault
340
10003
  0
DICTIONARY
  5
1003B
102
{ACAD_REACTORS
330
C
102
}
330
C
100
AcDbDictionary
281
     1
  3
A0
350
1003C
  3
A1
350
1003D
  3
A2
350
1003E
  3
A3
350
1003F
  3
A4
350
10040
  3
A5
350
10041
  3
A6
350
10042
  3
A7
350
10043
  3
A8
350
10044
  3
A9
350
10045
  3
B0
350
10046
  3
B1
350
10047
  3
B2
350
10048
  3
B3
350
10049
  3
B4
350
1004A
  3
B5
350
1004B
  3
B6
350
1004C
  0
DICTIONARY
  5
1004F
102
{ACAD_REACTORS
330
C
102
}
330
C
100
AcDbDictionary
281
     1
  3
Imperial24
350
10050
  0
DICTIONARY
  5
10038
102
{ACAD_REACTORS
330
C
102
}
330
C
100
AcDbDictionary
281
     1
  3
Standard
350
10039
  0
DICTIONARY
  5
1001D
102
{ACAD_REACTORS
330
C
102
}
330
C
100
AcDbDictionary
281
     1
  3
2dWireframe
350
10023
  3
Basic
350
10022
  3
Brighten
350
10029
  3
ColorChange
350
1002D
  3
Conceptual
350
10026
  3
Dim
350
10028
  3
EdgeColorOff
350
10035
  3
Facepattern
350
1002C
  3
Flat
350
1001E
  3
FlatWithEdges
350
1001F
  3
Gouraud
350
10020
  3
GouraudWithEdges
350
10021
  3
Hidden
350
10025
  3
JitterOff
350
10033
  3
Linepattern
350
1002B
  3
OverhangOff
350
10034
  3
Realistic
350
10027
  3
Shaded
350
10032
  3
Shaded with edges
350
10031
  3
Shades of Gray
350
1002E
  3
Sketchy
350
1002F
  3
Thicken
350
1002A
  3
Wireframe
350
10024
  3
X-Ray
350
10030
  0
XRECORD
  5
1007B
102
{ACAD_REACTORS
330
C
102
}
330
C
100
AcDbXrecord
280
     1
 90
        1
330
10039
  0
DICTIONARY
  5
10061
102
{ACAD_REACTORS
330
C
102
}
330
C
100
AcDbDictionary
281
     1
  3
CANNOSCALE
350
10067
  3
CMLEADERSTYLE
350
10063
  3
CTABLESTYLE
350
10062
  3
CVIEWDETAILSTYLE
350
10064
  3
CVIEWSECTIONSTYLE
350
10065
  3
LAYEREVAL
350
10069
  3
LAYERNOTIFY
350
1006A
  3
LIGHTINGUNITS
350
10068
  3
MSLTSCALE
350
10066
  0
XRECORD
  5
10060
102
{ACAD_REACTORS
330
1005F
102
}
330
1005F
100
AcDbXrecord
280
     1
290
     1
  0
ACDBDETAILVIEWSTYLE
  5
10052
102
{ACAD_XDICTIONARY
360
1007E
102
}
102
{ACAD_REACTORS
330
10051
102
}
330
10051
100
AcDbModelDocViewStyle
 70
     0
  3
Imperial24
290
     0
100
AcDbDetailViewStyle
 70
     0
 71
     0
 90
        3
 71
     1
340
11
 62
   256
 40
0.24
340
0
 62
   256
 40
0.24
300

 40
0.36
280
     3
 71
     2
340
0
 90
       25
 62
   256
 71
     3
340
11
 62
   256
 40
0.24
 90
        1
 40
0.75
 90
        1
300
%<\AcVar ViewType \f "%tc1">% %<\AcVar ViewDetailId>%\PSCALE %<\AcVar ViewScale \f "%sn">%
 71
     4
340
0
 90
       25
 62
   256
340
0
 90
       25
 62
   256
280
     0
  0
LAYOUT
  5
10056
102
{ACAD_REACTORS
330
10037
102
}
330
10037
100
AcDbPlotSettings
  1

  2
Canon iP110 series WS
  4

  6

 40
0.0
 41
0.0
 42
0.0
 43
0.0
 44
0.0
 45
0.0
 46
0.0
 47
0.0
 48
0.0
 49
0.0
140
0.0
141
0.0
142
1.0
143
1.0
 70
   688
 72
     0
 73
     0
 74
     5
  7

 75
    16
147
1.0
 76
     0
 77
     2
 78
   300
148
0.0
149
0.0
100
AcDbLayout
  1
Layout1
 70
     1
 71
     1
 10
0.0
 20
0.0
 11
12.0
 21
9.0
 12
0.0
 22
0.0
 32
0.0
 14
1.000000000000000E+20
 24
1.000000000000000E+20
 34
1.000000000000000E+20
 15
-1.000000000000000E+20
 25
-1.000000000000000E+20
 35
-1.000000000000000E+20
146
0.0
 13
0.0
 23
0.0
 33
0.0
 16
1.0
 26
0.0
 36
0.0
 17
0.0
 27
1.0
 37
0.0
 76
     0
330
1B
  0
LAYOUT
  5
10055
102
{ACAD_REACTORS
330
10037
102
}
330
10037
100
AcDbPlotSettings
  1

  2
Canon iP110 series WS
  4

  6

 40
0.0
 41
0.0
 42
0.0
 43
0.0
 44
0.0
 45
0.0
 46
0.0
 47
0.0
 48
0.0
 49
0.0
140
0.0
141
0.0
142
1.0
143
1.0
 70
  1712
 72
     0
 73
     0
 74
     0
  7

 75
     0
147
1.0
 76
     0
 77
     2
 78
   300
148
0.0
149
0.0
100
AcDbLayout
  1
Model
 70
     1
 71
     0
 10
0.0
 20
0.0
 11
12.0
 21
9.0
 12
0.0
 22
0.0
 32
0.0
 14
0.0
 24
0.0
 34
0.0
 15
0.0
 25
0.0
 35
0.0
146
0.0
 13
0.0
 23
0.0
 33
0.0
 16
1.0
 26
0.0
 36
0.0
 17
0.0
 27
1.0
 37
0.0
 76
     0
330
1F
331
10059
  0
MATERIAL
  5
1000D
102
{ACAD_XDICTIONARY
360
1000E
102
}
102
{ACAD_REACTORS
330
10004
102
}
330
10004
100
AcDbMaterial
  1
ByBlock
 72
     0
 43
0.0008202099737533
 43
0.0
 43
0.0
 43
0.0
 43
0.0
 43
0.0008202099737533
 43
0.0
 43
0.0
 43
0.0
 43
0.0
 43
1.0
 43
0.0
 43
0.0
 43
0.0
 43
0.0
 43
1.0
 77
     0
 47
0.0008202099737533
 47
0.0
 47
0.0
 47
0.0
 47
0.0
 47
0.0008202099737533
 47
0.0
 47
0.0
 47
0.0
 47
0.0
 47
1.0
 47
0.0
 47
0.0
 47
0.0
 47
0.0
 47
1.0
171
     0
 49
0.0008202099737533
 49
0.0
 49
0.0
 49
0.0
 49
0.0
 49
0.0008202099737533
 49
0.0
 49
0.0
 49
0.0
 49
0.0
 49
1.0
 49
0.0
 49
0.0
 49
0.0
 49
0.0
 49
1.0
175
     0
142
0.0008202099737533
142
0.0
142
0.0
142
0.0
142
0.0
142
0.0008202099737533
142
0.0
142
0.0
142
0.0
142
0.0
142
1.0
142
0.0
142
0.0
142
0.0
142
0.0
142
1.0
179
     0
144
0.0008202099737533
144
0.0
144
0.0
144
0.0
144
0.0
144
0.0008202099737533
144
0.0
144
0.0
144
0.0
144
0.0
144
1.0
144
0.0
144
0.0
144
0.0
144
0.0
144
1.0
147
0.0008202099737533
147
0.0
147
0.0
147
0.0
147
0.0
147
0.0008202099737533
147
0.0
147
0.0
147
0.0
147
0.0
147
1.0
147
0.0
147
0.0
147
0.0
147
0.0
147
1.0
  0
MATERIAL
  5
10005
102
{ACAD_XDICTIONARY
360
10006
102
}
102
{ACAD_REACTORS
330
10004
102
}
330
10004
100
AcDbMaterial
  1
ByLayer
 72
     0
 43
0.0008202099737533
 43
0.0
 43
0.0
 43
0.0
 43
0.0
 43
0.0008202099737533
 43
0.0
 43
0.0
 43
0.0
 43
0.0
 43
1.0
 43
0.0
 43
0.0
 43
0.0
 43
0.0
 43
1.0
 77
     0
 47
0.0008202099737533
 47
0.0
 47
0.0
 47
0.0
 47
0.0
 47
0.0008202099737533
 47
0.0
 47
0.0
 47
0.0
 47
0.0
 47
1.0
 47
0.0
 47
0.0
 47
0.0
 47
0.0
 47
1.0
171
     0
 49
0.0008202099737533
 49
0.0
 49
0.0
 49
0.0
 49
0.0
 49
0.0008202099737533
 49
0.0
 49
0.0
 49
0.0
 49
0.0
 49
1.0
 49
0.0
 49
0.0
 49
0.0
 49
0.0
 49
1.0
175
     0
142
0.0008202099737533
142
0.0
142
0.0
142
0.0
142
0.0
142
0.0008202099737533
142
0.0
142
0.0
142
0.0
142
0.0
142
1.0
142
0.0
142
0.0
142
0.0
142
0.0
142
1.0
179
     0
144
0.0008202099737533
144
0.0
144
0.0
144
0.0
144
0.0
144
0.0008202099737533
144
0.0
144
0.0
144
0.0
144
0.0
144
1.0
144
0.0
144
0.0
144
0.0
144
0.0
144
1.0
147
0.0008202099737533
147
0.0
147
0.0
147
0.0
147
0.0
147
0.0008202099737533
147
0.0
147
0.0
147
0.0
147
0.0
147
1.0
147
0.0
147
0.0
147
0.0
147
0.0
147
1.0
  0
MATERIAL
  5
10015
102
{ACAD_XDICTIONARY
360
10016
102
}
102
{ACAD_REACTORS
330
10004
102
}
330
10004
100
AcDbMaterial
  1
Global
 72
     0
 43
0.0008202099737533
 43
0.0
 43
0.0
 43
0.0
 43
0.0
 43
0.0008202099737533
 43
0.0
 43
0.0
 43
0.0
 43
0.0
 43
1.0
 43
0.0
 43
0.0
 43
0.0
 43
0.0
 43
1.0
 77
     0
 47
0.0008202099737533
 47
0.0
 47
0.0
 47
0.0
 47
0.0
 47
0.0008202099737533
 47
0.0
 47
0.0
 47
0.0
 47
0.0
 47
1.0
 47
0.0
 47
0.0
 47
0.0
 47
0.0
 47
1.0
171
     0
 49
0.0008202099737533
 49
0.0
 49
0.0
 49
0.0
 49
0.0
 49
0.0008202099737533
 49
0.0
 49
0.0
 49
0.0
 49
0.0
 49
1.0
 49
0.0
 49
0.0
 49
0.0
 49
0.0
 49
1.0
175
     0
142
0.0008202099737533
142
0.0
142
0.0
142
0.0
142
0.0
142
0.0008202099737533
142
0.0
142
0.0
142
0.0
142
0.0
142
1.0
142
0.0
142
0.0
142
0.0
142
0.0
142
1.0
179
     0
144
0.0008202099737533
144
0.0
144
0.0
144
0.0
144
0.0
144
0.0008202099737533
144
0.0
144
0.0
144
0.0
144
0.0
144
1.0
144
0.0
144
0.0
144
0.0
144
0.0
144
1.0
147
0.0008202099737533
147
0.0
147
0.0
147
0.0
147
0.0
147
0.0008202099737533
147
0.0
147
0.0
147
0.0
147
0.0
147
1.0
147
0.0
147
0.0
147
0.0
147
0.0
147
1.0
  0
MLEADERSTYLE
  5
1004E
102
{ACAD_REACTORS
330
1004D
102
}
330
1004D
100
AcDbMLeaderStyle
179
     2
170
     2
171
     1
172
     0
 90
        2
 40
0.0
 41
0.0
173
     1
 91
-1056964608
340
14
 92
       -2
290
     1
 42
0.09
291
     1
 43
0.36
  3
Standard
 44
0.18
300

342
11
174
     1
178
     6
175
     1
176
     0
 93
-1056964608
 45
0.18
292
     0
297
     0
 46
0.18
 94
-1056964608
 47
1.0
 49
1.0
140
1.0
293
     1
141
0.0
294
     1
177
     0
142
1.0
295
     0
296
     0
143
0.125
271
     0
272
     9
273
     9
298
     0
  0
MLINESTYLE
  5
1003A
102
{ACAD_REACTORS
330
17
102
}
330
17
100
AcDbMlineStyle
  2
STANDARD
 70
     0
  3

 62
   256
 51
90.0
 52
90.0
 71
     2
 49
0.5
 62
   256
  6
BYLAYER
 49
-0.5
 62
   256
  6
BYLAYER
  0
ACDBPLACEHOLDER
  5
10003
102
{ACAD_REACTORS
330
10002
102
}
330
10002
  0
SCALE
  5
1003C
102
{ACAD_REACTORS
330
1003B
102
}
330
1003B
100
AcDbScale
 70
     0
300
1:1
140
1.0
141
1.0
290
     1
  0
SCALE
  5
1003D
102
{ACAD_REACTORS
330
1003B
102
}
330
1003B
100
AcDbScale
 70
     0
300
1/128" = 1'-0"
140
0.0078125
141
12.0
290
     0
  0
SCALE
  5
1003E
102
{ACAD_REACTORS
330
1003B
102
}
330
1003B
100
AcDbScale
 70
     0
300
1/64" = 1'-0"
140
0.015625
141
12.0
290
     0
  0
SCALE
  5
1003F
102
{ACAD_REACTORS
330
1003B
102
}
330
1003B
100
AcDbScale
 70
     0
300
1/32" = 1'-0"
140
0.03125
141
12.0
290
     0
  0
SCALE
  5
10040
102
{ACAD_REACTORS
330
1003B
102
}
330
1003B
100
AcDbScale
 70
     0
300
1/16" = 1'-0"
140
0.0625
141
12.0
290
     0
  0
SCALE
  5
10041
102
{ACAD_REACTORS
330
1003B
102
}
330
1003B
100
AcDbScale
 70
     0
300
3/32" = 1'-0"
140
0.09375
141
12.0
290
     0
  0
SCALE
  5
10042
102
{ACAD_REACTORS
330
1003B
102
}
330
1003B
100
AcDbScale
 70
     0
300
1/8" = 1'-0"
140
0.125
141
12.0
290
     0
  0
SCALE
  5
10043
102
{ACAD_REACTORS
330
1003B
102
}
330
1003B
100
AcDbScale
 70
     0
300
3/16" = 1'-0"
140
0.1875
141
12.0
290
     0
  0
SCALE
  5
10044
102
{ACAD_REACTORS
330
1003B
102
}
330
1003B
100
AcDbScale
 70
     0
300
1/4" = 1'-0"
140
0.25
141
12.0
290
     0
  0
SCALE
  5
10045
102
{ACAD_REACTORS
330
1003B
102
}
330
1003B
100
AcDbScale
 70
     0
300
3/8" = 1'-0"
140
0.375
141
12.0
290
     0
  0
SCALE
  5
10046
102
{ACAD_REACTORS
330
1003B
102
}
330
1003B
100
AcDbScale
 70
     0
300
1/2" = 1'-0"
140
0.5
141
12.0
290
     0
  0
SCALE
  5
10047
102
{ACAD_REACTORS
330
1003B
102
}
330
1003B
100
AcDbScale
 70
     0
300
3/4" = 1'-0"
140
0.75
141
12.0
290
     0
  0
SCALE
  5
10048
102
{ACAD_REACTORS
330
1003B
102
}
330
1003B
100
AcDbScale
 70
     0
300
1" = 1'-0"
140
1.0
141
12.0
290
     0
  0
SCALE
  5
10049
102
{ACAD_REACTORS
330
1003B
102
}
330
1003B
100
AcDbScale
 70
     0
300
1-1/2" = 1'-0"
140
1.5
141
12.0
290
     0
  0
SCALE
  5
1004A
102
{ACAD_REACTORS
330
1003B
102
}
330
1003B
100
AcDbScale
 70
     0
300
3" = 1'-0"
140
3.0
141
12.0
290
     0
  0
SCALE
  5
1004B
102
{ACAD_REACTORS
330
1003B
102
}
330
1003B
100
AcDbScale
 70
     0
300
6" = 1'-0"
140
6.0
141
12.0
290
     0
  0
SCALE
  5
1004C
102
{ACAD_REACTORS
330
1003B
102
}
330
1003B
100
AcDbScale
 70
     0
300
1'-0" = 1'-0"
140
12.0
141
12.0
290
     0
  0
ACDBSECTIONVIEWSTYLE
  5
10050
102
{ACAD_XDICTIONARY
360
1007C
102
}
102
{ACAD_REACTORS
330
1004F
102
}
330
1004F
100
AcDbModelDocViewStyle
 70
     0
  3
Imperial24
290
     0
100
AcDbSectionViewStyle
 70
     0
 71
     0
 90
       78
 71
     1
340
11
 62
   256
 40
0.24
340
0
340
0
 62
   256
 40
0.24
300
I, O, Q, S, X, Z
 40
0.48
 90
        3
 40
0.18
 90
        1
 71
     2
340
0
 90
       25
 62
   256
340
0
 90
       50
 62
   256
 40
0.24
 40
0.0
 40
0.24
 71
     3
340
11
 62
   256
 40
0.24
 90
        1
 40
0.75
 90
        1
300
%<\AcVar ViewType \f "%tc1">% %<\AcVar ViewSectionStartId>%-%<\AcVar ViewSectionEndId>%\PSCALE %<\AcVar ViewScale \f "%sn">%
 71
     4
 62
   256
 62
   257
300
ANSI31
 40
1.0
 90
        0
290
     0
290
     0
 90
        6
 40
0.0
 40
1.570796326794896
 40
0.2617993877991494
 40
1.308996938995747
 40
-0.2617993877991494
 40
1.832595714594046
  0
TABLESTYLE
  5
10039
102
{ACAD_XDICTIONARY
360
10079
102
}
102
{ACAD_REACTORS
330
10038
102
}
330
10038
100
AcDbTableStyle
280
     0
  3
Standard
 70
     0
 71
     0
 40
0.06
 41
0.06
280
     0
281
     0
  7
STANDARD
140
0.18
170
     2
 62
     0
 63
     7
283
     0
 90
      512
 91
        0
  1

274
    -2
284
     1
 64
     0
275
    -2
285
     1
 65
     0
276
    -2
286
     1
 66
     0
277
    -2
287
     1
 67
     0
278
    -2
288
     1
 68
     0
279
    -2
289
     1
 69
     0
  7
STANDARD
140
0.25
170
     5
 62
     0
 63
     7
283
     0
 90
      512
 91
        0
  1

274
    -2
284
     1
 64
     0
275
    -2
285
     1
 65
     0
276
    -2
286
     1
 66
     0
277
    -2
287
     1
 67
     0
278
    -2
288
     1
 68
     0
279
    -2
289
     1
 69
     0
  7
STANDARD
140
0.18
170
     5
 62
     0
 63
     7
283
     0
 90
      512
 91
        0
  1

274
    -2
284
     1
 64
     0
275
    -2
285
     1
 65
     0
276
    -2
286
     1
 66
     0
277
    -2
287
     1
 67
     0
278
    -2
288
     1
 68
     0
279
    -2
289
     1
 69
     0
  0
VISUALSTYLE
  5
10023
102
{ACAD_REACTORS
330
1001D
102
}
330
1001D
100
AcDbVisualStyle
  2
2dWireframe
 70
     4
177
     3
291
     0
 70
    58
 90
        0
176
     1
 90
        2
176
     1
 90
        0
176
     1
 90
        0
176
     1
 40
0.6
176
     1
 40
30.0
176
     1
 62
     7
420
 16777215
176
     1
 90
        1
176
     1
 90
        4
176
     1
 62
     7
176
     1
 62
   257
176
     1
 90
        1
176
     1
 90
        1
176
     1
 40
1.0
176
     1
 90
        0
176
     1
 62
   257
176
     1
 40
1.0
176
     1
 90
        1
176
     1
 90
        6
176
     1
 90
        2
176
     1
 62
     7
176
     1
 90
        5
176
     1
 90
        0
176
     1
 90
        0
176
     1
290
     0
176
     1
 90
        1
176
     1
 40
0.0
176
     1
 90
        0
176
     1
290
     1
176
     1
290
     1
176
     1
290
     0
176
     1
290
     0
176
     1
290
     0
176
     1
290
     0
176
     1
290
     0
176
     1
290
     0
176
     1
290
     0
176
     1
 90
       50
176
     1
 40
0.0
176
     1
 40
1.0
176
     1
 90
        0
176
     1
 62
    18
420
        0
176
     1
 90
       50
176
     1
 90
        3
176
     1
 62
     5
420
      255
176
     1
290
     0
176
     1
 90
       50
176
     1
 90
       50
176
     1
 90
       50
176
     1
290
     0
176
     1
 90
       50
176
     1
 62
   256
176
     0
 40
1.0
176
     0
 90
        2
176
     1
  1
strokes_ogs.tif
176
     1
290
     0
176
     1
 40
1.0
176
     1
 40
1.0
176
     1
1001
ACAD
1000
AcDbSavedByObjectVersion
1070
     0
  0
VISUALSTYLE
  5
10022
102
{ACAD_REACTORS
330
1001D
102
}
330
1001D
100
AcDbVisualStyle
  2
Basic
 70
     7
177
     3
291
     1
 70
    58
 90
        1
176
     1
 90
        0
176
     1
 90
        1
176
     1
 90
        0
176
     1
 40
0.6
176
     1
 40
30.0
176
     1
 62
     7
420
 16777215
176
     1
 90
        0
176
     1
 90
        4
176
     1
 62
     7
176
     1
 62
   257
176
     1
 90
        1
176
     1
 90
        1
176
     1
 40
1.0
176
     1
 90
        8
176
     1
 62
     7
176
     1
 40
1.0
176
     1
 90
        1
176
     1
 90
        6
176
     1
 90
        2
176
     1
 62
     7
176
     1
 90
        5
176
     1
 90
        0
176
     1
 90
        0
176
     1
290
     0
176
     1
 90
        1
176
     1
 40
0.0
176
     1
 90
        0
176
     1
290
     0
176
     1
290
     1
176
     1
290
     1
176
     1
290
     0
176
     1
290
     0
176
     1
290
     0
176
     1
290
     0
176
     1
290
     0
176
     1
290
     0
176
     1
 90
       50
176
     1
 40
0.0
176
     1
 40
1.0
176
     1
 90
        0
176
     1
 62
    18
420
        0
176
     1
 90
       50
176
     1
 90
        3
176
     1
 62
     5
420
      255
176
     1
290
     0
176
     1
 90
       50
176
     1
 90
       50
176
     1
 90
       50
176
     1
290
     0
176
     1
 90
       50
176
     1
 62
   256
176
     0
 40
1.0
176
     0
 90
        2
176
     1
  1
strokes_ogs.tif
176
     1
290
     0
176
     1
 40
1.0
176
     1
 40
1.0
176
     1
1001
ACAD
1000
AcDbSavedByObjectVersion
1070
     0
  0
VISUALSTYLE
  5
10029
102
{ACAD_REACTORS
330
1001D
102
}
330
1001D
100
AcDbVisualStyle
  2
Brighten
 70
    12
177
     3
291
     1
 70
    58
 90
        2
176
     1
 90
        2
176
     1
 90
        0
176
     1
 90
        0
176
     1
 40
0.6
176
     1
 40
30.0
176
     1
 62
     7
420
 16777215
176
     1
 90
        1
176
     1
 90
        4
176
     1
 62
     7
176
     1
 62
   257
176
     1
 90
        1
176
     1
 90
        1
176
     1
 40
1.0
176
     1
 90
        8
176
     1
 62
     7
176
     1
 40
1.0
176
     1
 90
        1
176
     1
 90
        6
176
     1
 90
        2
176
     1
 62
     7
176
     1
 90
        5
176
     1
 90
        0
176
     1
 90
        0
176
     1
290
     0
176
     1
 90
        1
176
     1
 40
50.0
176
     1
 90
        0
176
     1
290
     0
176
     1
290
     1
176
     1
290
     1
176
     1
290
     0
176
     1
290
     0
176
     1
290
     0
176
     1
290
     0
176
     1
290
     0
176
     1
290
     0
176
     1
 90
       50
176
     1
 40
0.0
176
     1
 40
1.0
176
     1
 90
        0
176
     1
 62
    18
420
        0
176
     1
 90
       50
176
     1
 90
        3
176
     1
 62
     5
420
      255
176
     1
290
     0
176
     1
 90
       50
176
     1
 90
       50
176
     1
 90
       50
176
     1
290
     0
176
     1
 90
       50
176
     1
 62
   256
176
     0
 40
1.0
176
     0
 90
        2
176
     1
  1
strokes_ogs.tif
176
     1
290
     0
176
     1
 40
1.0
176
     1
 40
1.0
176
     1
1001
ACAD
1000
AcDbSavedByObjectVersion
1070
     0
  0
VISUALSTYLE
  5
1002D
102
{ACAD_REACTORS
330
1001D
102
}
330
1001D
100
AcDbVisualStyle
  2
ColorChange
 70
    16
177
     3
291
     1
 70
    58
 90
        2
176
     1
 90
        2
176
     1
 90
        3
176
     1
 90
        0
176
     1
 40
0.6
176
     1
 40
30.0
176
     1
 62
     8
420
  8421504
176
     1
 90
        1
176
     1
 90
        4
176
     1
 62
     7
176
     1
 62
   257
176
     1
 90
        1
176
     1
 90
        1
176
     1
 40
1.0
176
     1
 90
        8
176
     1
 62
     8
420
  8421504
176
     1
 40
1.0
176
     1
 90
        1
176
     1
 90
        6
176
     1
 90
        2
176
     1
 62
     7
176
     1
 90
        5
176
     1
 90
        0
176
     1
 90
        0
176
     1
290
     0
176
     1
 90
        1
176
     1
 40
0.0
176
     1
 90
        0
176
     1
290
     0
176
     1
290
     1
176
     1
290
     1
176
     1
290
     0
176
     1
290
     0
176
     1
290
     0
176
     1
290
     0
176
     1
290
     0
176
     1
290
     0
176
     1
 90
       50
176
     1
 40
0.0
176
     1
 40
1.0
176
     1
 90
        0
176
     1
 62
    18
420
        0
176
     1
 90
       50
176
     1
 90
        3
176
     1
 62
     5
420
      255
176
     1
290
     0
176
     1
 90
       50
176
     1
 90
       50
176
     1
 90
       50
176
     1
290
     0
176
     1
 90
       50
176
     1
 62
   256
176
     0
 40
1.0
176
     0
 90
        2
176
     1
  1
strokes_ogs.tif
176
     1
290
     0
176
     1
 40
1.0
176
     1
 40
1.0
176
     1
1001
ACAD
1000
AcDbSavedByObjectVersion
1070
     0
  0
VISUALSTYLE
  5
10026
102
{ACAD_REACTORS
330
1001D
102
}
330
1001D
100
AcDbVisualStyle
  2
Conceptual
 70
     9
177
     3
291
     0
 70
    58
 90
        3
176
     1
 90
        2
176
     1
 90
        0
176
     1
 90
        0
176
     1
 40
0.6
176
     1
 40
30.0
176
     1
 62
     7
420
 16777215
176
     1
 90
        2
176
     1
 90
        2
176
     1
 62
     7
176
     1
 62
   257
176
     1
 90
        1
176
     1
 90
        1
176
     1
 40
179.0
176
     1
 90
        8
176
     1
 62
     7
176
     1
 40
1.0
176
     1
 90
        1
176
     1
 90
        6
176
     1
 90
        2
176
     1
 62
     7
176
     1
 90
        3
176
     1
 90
        0
176
     1
 90
        0
176
     1
290
     0
176
     1
 90
        1
176
     1
 40
0.0
176
     1
 90
        0
176
     1
290
     0
176
     1
290
     1
176
     1
290
     1
176
     1
290
     0
176
     1
290
     0
176
     1
290
     0
176
     1
290
     0
176
     1
290
     0
176
     1
290
     0
176
     1
 90
       50
176
     1
 40
0.0
176
     1
 40
1.0
176
     1
 90
        0
176
     1
 62
    18
420
        0
176
     1
 90
       50
176
     1
 90
        3
176
     1
 62
     5
420
      255
176
     1
290
     0
176
     1
 90
       50
176
     1
 90
       50
176
     1
 90
       50
176
     1
290
     0
176
     1
 90
       50
176
     1
 62
   256
176
     0
 40
1.0
176
     0
 90
        2
176
     1
  1
strokes_ogs.tif
176
     1
290
     0
176
     1
 40
1.0
176
     1
 40
1.0
176
     1
1001
ACAD
1000
AcDbSavedByObjectVersion
1070
     0
  0
VISUALSTYLE
  5
10028
102
{ACAD_REACTORS
330
1001D
102
}
330
1001D
100
AcDbVisualStyle
  2
Dim
 70
    11
177
     3
291
     1
 70
    58
 90
        2
176
     1
 90
        2
176
     1
 90
        0
176
     1
 90
        0
176
     1
 40
0.6
176
     1
 40
30.0
176
     1
 62
     7
420
 16777215
176
     1
 90
        1
176
     1
 90
        4
176
     1
 62
     7
176
     1
 62
   257
176
     1
 90
        1
176
     1
 90
        1
176
     1
 40
1.0
176
     1
 90
        8
176
     1
 62
     7
176
     1
 40
1.0
176
     1
 90
        1
176
     1
 90
        6
176
     1
 90
        2
176
     1
 62
     7
176
     1
 90
        5
176
     1
 90
        0
176
     1
 90
        0
176
     1
290
     0
176
     1
 90
        1
176
     1
 40
-50.0
176
     1
 90
        0
176
     1
290
     0
176
     1
290
     1
176
     1
290
     1
176
     1
290
     0
176
     1
290
     0
176
     1
290
     0
176
     1
290
     0
176
     1
290
     0
176
     1
290
     0
176
     1
 90
       50
176
     1
 40
0.0
176
     1
 40
1.0
176
     1
 90
        0
176
     1
 62
    18
420
        0
176
     1
 90
       50
176
     1
 90
        3
176
     1
 62
     5
420
      255
176
     1
290
     0
176
     1
 90
       50
176
     1
 90
       50
176
     1
 90
       50
176
     1
290
     0
176
     1
 90
       50
176
     1
 62
   256
176
     0
 40
1.0
176
     0
 90
        2
176
     1
  1
strokes_ogs.tif
176
     1
290
     0
176
     1
 40
1.0
176
     1
 40
1.0
176
     1
1001
ACAD
1000
AcDbSavedByObjectVersion
1070
     0
  0
VISUALSTYLE
  5
10035
102
{ACAD_REACTORS
330
1001D
102
}
330
1001D
100
AcDbVisualStyle
  2
EdgeColorOff
 70
    22
177
     3
291
     1
 70
    58
 90
        2
176
     0
 90
        2
176
     0
 90
        0
176
     0
 90
        0
176
     0
 40
0.6
176
     0
 40
30.0
176
     0
 62
     7
420
 16777215
176
     0
 90
        1
176
     0
 90
        4
176
     0
 62
     7
176
     0
 62
   257
176
     0
 90
        1
176
     0
 90
        1
176
     0
 40
1.0
176
     0
 90
        8
176
     2
 62
     7
176
     0
 40
1.0
176
     0
 90
        1
176
     0
 90
        6
176
     0
 90
        2
176
     0
 62
     7
176
     0
 90
        5
176
     0
 90
        0
176
     0
 90
        0
176
     0
290
     0
176
     0
 90
        1
176
     0
 40
0.0
176
     0
 90
        0
176
     0
290
     0
176
     1
290
     1
176
     1
290
     1
176
     1
290
     0
176
     1
290
     0
176
     1
290
     0
176
     1
290
     0
176
     1
290
     0
176
     1
290
     0
176
     1
 90
       50
176
     0
 40
0.0
176
     0
 40
1.0
176
     0
 90
        0
176
     0
 62
    18
420
        0
176
     0
 90
       50
176
     0
 90
        3
176
     0
 62
     5
420
      255
176
     0
290
     0
176
     1
 90
       50
176
     0
 90
       50
176
     0
 90
       50
176
     0
290
     0
176
     1
 90
       50
176
     0
 62
   256
176
     0
 40
1.0
176
     0
 90
        2
176
     0
  1
strokes_ogs.tif
176
     0
290
     0
176
     1
 40
1.0
176
     0
 40
1.0
176
     0
1001
ACAD
1000
AcDbSavedByObjectVersion
1070
     0
  0
VISUALSTYLE
  5
1002C
102
{ACAD_REACTORS
330
1001D
102
}
330
1001D
100
AcDbVisualStyle
  2
Facepattern
 70
    15
177
     3
291
     1
 70
    58
 90
        2
176
     1
 90
        2
176
     1
 90
        0
176
     1
 90
        0
176
     1
 40
0.6
176
     1
 40
30.0
176
     1
 62
     7
420
 16777215
176
     1
 90
        1
176
     1
 90
        4
176
     1
 62
     7
176
     1
 62
   257
176
     1
 90
        1
176
     1
 90
        1
176
     1
 40
1.0
176
     1
 90
        8
176
     1
 62
     7
176
     1
 40
1.0
176
     1
 90
        1
176
     1
 90
        6
176
     1
 90
        2
176
     1
 62
     7
176
     1
 90
        5
176
     1
 90
        0
176
     1
 90
        0
176
     1
290
     0
176
     1
 90
        1
176
     1
 40
0.0
176
     1
 90
        0
176
     1
290
     0
176
     1
290
     1
176
     1
290
     1
176
     1
290
     0
176
     1
290
     0
176
     1
290
     0
176
     1
290
     0
176
     1
290
     0
176
     1
290
     0
176
     1
 90
       50
176
     1
 40
0.0
176
     1
 40
1.0
176
     1
 90
        0
176
     1
 62
    18
420
        0
176
     1
 90
       50
176
     1
 90
        3
176
     1
 62
     5
420
      255
176
     1
290
     0
176
     1
 90
       50
176
     1
 90
       50
176
     1
 90
       50
176
     1
290
     0
176
     1
 90
       50
176
     1
 62
   256
176
     0
 40
1.0
176
     0
 90
        2
176
     1
  1
strokes_ogs.tif
176
     1
290
     0
176
     1
 40
1.0
176
     1
 40
1.0
176
     1
1001
ACAD
1000
AcDbSavedByObjectVersion
1070
     0
  0
VISUALSTYLE
  5
1001E
102
{ACAD_REACTORS
330
1001D
102
}
330
1001D
100
AcDbVisualStyle
  2
Flat
 70
     0
177
     3
291
     1
 70
    58
 90
        2
176
     1
 90
        1
176
     1
 90
        1
176
     1
 90
        2
176
     1
 40
0.6
176
     1
 40
30.0
176
     1
 62
     7
420
 16777215
176
     1
 90
        0
176
     1
 90
        0
176
     1
 62
     7
176
     1
 62
   257
176
     1
 90
        1
176
     1
 90
        1
176
     1
 40
1.0
176
     1
 90
        8
176
     1
 62
     7
176
     1
 40
1.0
176
     1
 90
        1
176
     1
 90
        6
176
     1
 90
        2
176
     1
 62
     7
176
     1
 90
        5
176
     1
 90
        0
176
     1
 90
        0
176
     1
290
     0
176
     1
 90
       13
176
     1
 40
0.0
176
     1
 90
        0
176
     1
290
     0
176
     1
290
     1
176
     1
290
     1
176
     1
290
     0
176
     1
290
     0
176
     1
290
     0
176
     1
290
     0
176
     1
290
     0
176
     1
290
     0
176
     1
 90
       50
176
     1
 40
0.0
176
     1
 40
1.0
176
     1
 90
        0
176
     1
 62
    18
420
        0
176
     1
 90
       50
176
     1
 90
        3
176
     1
 62
     5
420
      255
176
     1
290
     0
176
     1
 90
       50
176
     1
 90
       50
176
     1
 90
       50
176
     1
290
     0
176
     1
 90
       50
176
     1
 62
   256
176
     0
 40
1.0
176
     0
 90
        2
176
     1
  1
strokes_ogs.tif
176
     1
290
     0
176
     1
 40
1.0
176
     1
 40
1.0
176
     1
1001
ACAD
1000
AcDbSavedByObjectVersion
1070
     0
  0
VISUALSTYLE
  5
1001F
102
{ACAD_REACTORS
330
1001D
102
}
330
1001D
100
AcDbVisualStyle
  2
FlatWithEdges
 70
     1
177
     3
291
     1
 70
    58
 90
        2
176
     1
 90
        1
176
     1
 90
        1
176
     1
 90
        2
176
     1
 40
0.6
176
     1
 40
30.0
176
     1
 62
     7
420
 16777215
176
     1
 90
        1
176
     1
 90
        0
176
     1
 62
     7
176
     1
 62
   257
176
     1
 90
        1
176
     1
 90
        1
176
     1
 40
1.0
176
     1
 90
        0
176
     1
 62
   257
176
     1
 40
1.0
176
     1
 90
        1
176
     1
 90
        6
176
     1
 90
        2
176
     1
 62
     7
176
     1
 90
        5
176
     1
 90
        0
176
     1
 90
        0
176
     1
290
     0
176
     1
 90
       13
176
     1
 40
0.0
176
     1
 90
        0
176
     1
290
     0
176
     1
290
     1
176
     1
290
     1
176
     1
290
     0
176
     1
290
     0
176
     1
290
     0
176
     1
290
     0
176
     1
290
     0
176
     1
290
     0
176
     1
 90
       50
176
     1
 40
0.0
176
     1
 40
1.0
176
     1
 90
        0
176
     1
 62
    18
420
        0
176
     1
 90
       50
176
     1
 90
        3
176
     1
 62
     5
420
      255
176
     1
290
     0
176
     1
 90
       50
176
     1
 90
       50
176
     1
 90
       50
176
     1
290
     0
176
     1
 90
       50
176
     1
 62
   256
176
     0
 40
1.0
176
     0
 90
        2
176
     1
  1
strokes_ogs.tif
176
     1
290
     0
176
     1
 40
1.0
176
     1
 40
1.0
176
     1
1001
ACAD
1000
AcDbSavedByObjectVersion
1070
     0
  0
VISUALSTYLE
  5
10020
102
{ACAD_REACTORS
330
1001D
102
}
330
1001D
100
AcDbVisualStyle
  2
Gouraud
 70
     2
177
     3
291
     1
 70
    58
 90
        2
176
     1
 90
        2
176
     1
 90
        1
176
     1
 90
        2
176
     1
 40
0.6
176
     1
 40
30.0
176
     1
 62
     7
420
 16777215
176
     1
 90
        0
176
     1
 90
        0
176
     1
 62
     7
176
     1
 62
   257
176
     1
 90
        1
176
     1
 90
        1
176
     1
 40
1.0
176
     1
 90
        0
176
     1
 62
     7
176
     1
 40
1.0
176
     1
 90
        1
176
     1
 90
        6
176
     1
 90
        2
176
     1
 62
     7
176
     1
 90
        5
176
     1
 90
        0
176
     1
 90
        0
176
     1
290
     0
176
     1
 90
       13
176
     1
 40
0.0
176
     1
 90
        0
176
     1
290
     0
176
     1
290
     1
176
     1
290
     1
176
     1
290
     0
176
     1
290
     0
176
     1
290
     0
176
     1
290
     0
176
     1
290
     0
176
     1
290
     0
176
     1
 90
       50
176
     1
 40
0.0
176
     1
 40
1.0
176
     1
 90
        0
176
     1
 62
    18
420
        0
176
     1
 90
       50
176
     1
 90
        3
176
     1
 62
     5
420
      255
176
     1
290
     0
176
     1
 90
       50
176
     1
 90
       50
176
     1
 90
       50
176
     1
290
     0
176
     1
 90
       50
176
     1
 62
   256
176
     0
 40
1.0
176
     0
 90
        2
176
     1
  1
strokes_ogs.tif
176
     1
290
     0
176
     1
 40
1.0
176
     1
 40
1.0
176
     1
1001
ACAD
1000
AcDbSavedByObjectVersion
1070
     0
  0
VISUALSTYLE
  5
10021
102
{ACAD_REACTORS
330
1001D
102
}
330
1001D
100
AcDbVisualStyle
  2
GouraudWithEdges
 70
     3
177
     3
291
     1
 70
    58
 90
        2
176
     1
 90
        2
176
     1
 90
        1
176
     1
 90
        2
176
     1
 40
0.6
176
     1
 40
30.0
176
     1
 62
     7
420
 16777215
176
     1
 90
        1
176
     1
 90
        0
176
     1
 62
     7
176
     1
 62
   257
176
     1
 90
        1
176
     1
 90
        1
176
     1
 40
1.0
176
     1
 90
        0
176
     1
 62
   257
176
     1
 40
1.0
176
     1
 90
        1
176
     1
 90
        6
176
     1
 90
        2
176
     1
 62
     7
176
     1
 90
        5
176
     1
 90
        0
176
     1
 90
        0
176
     1
290
     0
176
     1
 90
       13
176
     1
 40
0.0
176
     1
 90
        0
176
     1
290
     0
176
     1
290
     1
176
     1
290
     1
176
     1
290
     0
176
     1
290
     0
176
     1
290
     0
176
     1
290
     0
176
     1
290
     0
176
     1
290
     0
176
     1
 90
       50
176
     1
 40
0.0
176
     1
 40
1.0
176
     1
 90
        0
176
     1
 62
    18
420
        0
176
     1
 90
       50
176
     1
 90
        3
176
     1
 62
     5
420
      255
176
     1
290
     0
176
     1
 90
       50
176
     1
 90
       50
176
     1
 90
       50
176
     1
290
     0
176
     1
 90
       50
176
     1
 62
   256
176
     0
 40
1.0
176
     0
 90
        2
176
     1
  1
strokes_ogs.tif
176
     1
290
     0
176
     1
 40
1.0
176
     1
 40
1.0
176
     1
1001
ACAD
1000
AcDbSavedByObjectVersion
1070
     0
  0
VISUALSTYLE
  5
10025
102
{ACAD_REACTORS
330
1001D
102
}
330
1001D
100
AcDbVisualStyle
  2
Hidden
 70
     6
177
     3
291
     0
 70
    58
 90
        1
176
     1
 90
        2
176
     1
 90
        2
176
     1
 90
        0
176
     1
 40
0.6
176
     1
 40
30.0
176
     1
 62
     7
420
 16777215
176
     1
 90
        2
176
     1
 90
        2
176
     1
 62
     7
176
     1
 62
   257
176
     1
 90
        2
176
     1
 90
        1
176
     1
 40
40.0
176
     1
 90
        0
176
     1
 62
   257
176
     1
 40
1.0
176
     1
 90
        1
176
     1
 90
        6
176
     1
 90
        2
176
     1
 62
     7
176
     1
 90
        3
176
     1
 90
        0
176
     1
 90
        0
176
     1
290
     0
176
     1
 90
        1
176
     1
 40
0.0
176
     1
 90
        0
176
     1
290
     0
176
     1
290
     1
176
     1
290
     1
176
     1
290
     0
176
     1
290
     0
176
     1
290
     0
176
     1
290
     0
176
     1
290
     0
176
     1
290
     0
176
     1
 90
       50
176
     1
 40
0.0
176
     1
 40
1.0
176
     1
 90
        0
176
     1
 62
    18
420
        0
176
     1
 90
       50
176
     1
 90
        3
176
     1
 62
     5
420
      255
176
     1
290
     0
176
     1
 90
       50
176
     1
 90
       50
176
     1
 90
       50
176
     1
290
     0
176
     1
 90
       50
176
     1
 62
   256
176
     0
 40
1.0
176
     0
 90
        2
176
     1
  1
strokes_ogs.tif
176
     1
290
     0
176
     1
 40
1.0
176
     1
 40
1.0
176
     1
1001
ACAD
1000
AcDbSavedByObjectVersion
1070
     0
  0
VISUALSTYLE
  5
10033
102
{ACAD_REACTORS
330
1001D
102
}
330
1001D
100
AcDbVisualStyle
  2
JitterOff
 70
    20
177
     3
291
     1
 70
    58
 90
        2
176
     0
 90
        2
176
     0
 90
        0
176
     0
 90
        0
176
     0
 40
0.6
176
     0
 40
30.0
176
     0
 62
     7
420
 16777215
176
     0
 90
        1
176
     0
 90
        4
176
     0
 62
     7
176
     0
 62
   257
176
     0
 90
        1
176
     0
 90
        1
176
     0
 40
1.0
176
     0
 90
       10
176
     2
 62
     7
176
     0
 40
1.0
176
     0
 90
        1
176
     0
 90
        6
176
     0
 90
        2
176
     0
 62
     7
176
     0
 90
        5
176
     0
 90
        0
176
     0
 90
        0
176
     0
290
     0
176
     0
 90
        1
176
     0
 40
0.0
176
     0
 90
        0
176
     0
290
     0
176
     1
290
     1
176
     1
290
     1
176
     1
290
     0
176
     1
290
     0
176
     1
290
     0
176
     1
290
     0
176
     1
290
     0
176
     1
290
     0
176
     1
 90
       50
176
     0
 40
0.0
176
     0
 40
1.0
176
     0
 90
        0
176
     0
 62
    18
420
        0
176
     0
 90
       50
176
     0
 90
        3
176
     0
 62
     5
420
      255
176
     0
290
     0
176
     1
 90
       50
176
     0
 90
       50
176
     0
 90
       50
176
     0
290
     0
176
     1
 90
       50
176
     0
 62
   256
176
     0
 40
1.0
176
     0
 90
        2
176
     0
  1
strokes_ogs.tif
176
     0
290
     0
176
     1
 40
1.0
176
     0
 40
1.0
176
     0
1001
ACAD
1000
AcDbSavedByObjectVersion
1070
     0
  0
VISUALSTYLE
  5
1002B
102
{ACAD_REACTORS
330
1001D
102
}
330
1001D
100
AcDbVisualStyle
  2
Linepattern
 70
    14
177
     3
291
     1
 70
    58
 90
        2
176
     1
 90
        2
176
     1
 90
        0
176
     1
 90
        0
176
     1
 40
0.6
176
     1
 40
30.0
176
     1
 62
     7
420
 16777215
176
     1
 90
        1
176
     1
 90
        4
176
     1
 62
     7
176
     1
 62
   257
176
     1
 90
        7
176
     1
 90
        7
176
     1
 40
1.0
176
     1
 90
        8
176
     1
 62
     7
176
     1
 40
1.0
176
     1
 90
        1
176
     1
 90
        6
176
     1
 90
        2
176
     1
 62
     7
176
     1
 90
        5
176
     1
 90
        0
176
     1
 90
        0
176
     1
290
     0
176
     1
 90
        1
176
     1
 40
0.0
176
     1
 90
        0
176
     1
290
     0
176
     1
290
     1
176
     1
290
     1
176
     1
290
     0
176
     1
290
     0
176
     1
290
     0
176
     1
290
     0
176
     1
290
     0
176
     1
290
     0
176
     1
 90
       50
176
     1
 40
0.0
176
     1
 40
1.0
176
     1
 90
        0
176
     1
 62
    18
420
        0
176
     1
 90
       50
176
     1
 90
        3
176
     1
 62
     5
420
      255
176
     1
290
     0
176
     1
 90
       50
176
     1
 90
       50
176
     1
 90
       50
176
     1
290
     0
176
     1
 90
       50
176
     1
 62
   256
176
     0
 40
1.0
176
     0
 90
        2
176
     1
  1
strokes_ogs.tif
176
     1
290
     0
176
     1
 40
1.0
176
     1
 40
1.0
176
     1
1001
ACAD
1000
AcDbSavedByObjectVersion
1070
     0
  0
VISUALSTYLE
  5
10034
102
{ACAD_REACTORS
330
1001D
102
}
330
1001D
100
AcDbVisualStyle
  2
OverhangOff
 70
    21
177
     3
291
     1
 70
    58
 90
        2
176
     0
 90
        2
176
     0
 90
        0
176
     0
 90
        0
176
     0
 40
0.6
176
     0
 40
30.0
176
     0
 62
     7
420
 16777215
176
     0
 90
        1
176
     0
 90
        4
176
     0
 62
     7
176
     0
 62
   257
176
     0
 90
        1
176
     0
 90
        1
176
     0
 40
1.0
176
     0
 90
        9
176
     2
 62
     7
176
     0
 40
1.0
176
     0
 90
        1
176
     0
 90
        6
176
     0
 90
        2
176
     0
 62
     7
176
     0
 90
        5
176
     0
 90
        0
176
     0
 90
        0
176
     0
290
     0
176
     0
 90
        1
176
     0
 40
0.0
176
     0
 90
        0
176
     0
290
     0
176
     1
290
     1
176
     1
290
     1
176
     1
290
     0
176
     1
290
     0
176
     1
290
     0
176
     1
290
     0
176
     1
290
     0
176
     1
290
     0
176
     1
 90
       50
176
     0
 40
0.0
176
     0
 40
1.0
176
     0
 90
        0
176
     0
 62
    18
420
        0
176
     0
 90
       50
176
     0
 90
        3
176
     0
 62
     5
420
      255
176
     0
290
     0
176
     1
 90
       50
176
     0
 90
       50
176
     0
 90
       50
176
     0
290
     0
176
     1
 90
       50
176
     0
 62
   256
176
     0
 40
1.0
176
     0
 90
        2
176
     0
  1
strokes_ogs.tif
176
     0
290
     0
176
     1
 40
1.0
176
     0
 40
1.0
176
     0
1001
ACAD
1000
AcDbSavedByObjectVersion
1070
     0
  0
VISUALSTYLE
  5
10027
102
{ACAD_REACTORS
330
1001D
102
}
330
1001D
100
AcDbVisualStyle
  2
Realistic
 70
     8
177
     3
291
     0
 70
    58
 90
        2
176
     1
 90
        3
176
     1
 90
        0
176
     1
 90
        2
176
     1
 40
0.6
176
     1
 40
30.0
176
     1
 62
     7
420
 16777215
176
     1
 90
        0
176
     1
 90
        0
176
     1
 62
     7
176
     1
 62
   257
176
     1
 90
        1
176
     1
 90
        1
176
     1
 40
1.0
176
     1
 90
        8
176
     1
 62
   257
176
     1
 40
1.0
176
     1
 90
        1
176
     1
 90
        6
176
     1
 90
        2
176
     1
 62
     7
176
     1
 90
        3
176
     1
 90
        0
176
     1
 90
        0
176
     1
290
     0
176
     1
 90
       13
176
     1
 40
0.0
176
     1
 90
        0
176
     1
290
     0
176
     1
290
     1
176
     1
290
     1
176
     1
290
     0
176
     1
290
     0
176
     1
290
     0
176
     1
290
     0
176
     1
290
     0
176
     1
290
     0
176
     1
 90
       50
176
     1
 40
0.0
176
     1
 40
1.0
176
     1
 90
        0
176
     1
 62
    18
420
        0
176
     1
 90
       50
176
     1
 90
        3
176
     1
 62
     5
420
      255
176
     1
290
     0
176
     1
 90
       50
176
     1
 90
       50
176
     1
 90
       50
176
     1
290
     0
176
     1
 90
       50
176
     1
 62
   256
176
     0
 40
1.0
176
     0
 90
        2
176
     1
  1
strokes_ogs.tif
176
     1
290
     0
176
     1
 40
1.0
176
     1
 40
1.0
176
     1
1001
ACAD
1000
AcDbSavedByObjectVersion
1070
     0
  0
VISUALSTYLE
  5
10032
102
{ACAD_REACTORS
330
1001D
102
}
330
1001D
100
AcDbVisualStyle
  2
Shaded
 70
    27
177
     3
291
     0
 70
    58
 90
        2
176
     1
 90
        2
176
     1
 90
        1
176
     1
 90
        2
176
     1
 40
0.6
176
     1
 40
30.0
176
     1
 62
     7
420
 16777215
176
     1
 90
        0
176
     1
 90
        4
176
     1
 62
     7
176
     1
 62
   257
176
     1
 90
        1
176
     1
 90
        1
176
     1
 40
1.0
176
     1
 90
        8
176
     1
 62
   257
176
     1
 40
1.0
176
     1
 90
        1
176
     1
 90
        6
176
     1
 90
        2
176
     1
 62
     8
420
  7895160
176
     1
 90
        3
176
     1
 90
        0
176
     1
 90
        0
176
     1
290
     0
176
     1
 90
        5
176
     1
 40
0.0
176
     1
 90
        0
176
     1
290
     0
176
     1
290
     1
176
     1
290
     1
176
     1
290
     0
176
     1
290
     0
176
     1
290
     0
176
     1
290
     0
176
     1
290
     0
176
     1
290
     0
176
     1
 90
       50
176
     1
 40
0.0
176
     1
 40
1.0
176
     1
 90
        0
176
     1
 62
    18
420
        0
176
     1
 90
       50
176
     1
 90
        3
176
     1
 62
     5
420
      255
176
     1
290
     0
176
     1
 90
       50
176
     1
 90
       50
176
     1
 90
       50
176
     1
290
     0
176
     1
 90
       50
176
     1
 62
   256
176
     0
 40
1.0
176
     0
 90
        2
176
     1
  1
strokes_ogs.tif
176
     1
290
     0
176
     1
 40
1.0
176
     1
 40
1.0
176
     1
1001
ACAD
1000
AcDbSavedByObjectVersion
1070
     0
  0
VISUALSTYLE
  5
10031
102
{ACAD_REACTORS
330
1001D
102
}
330
1001D
100
AcDbVisualStyle
  2
Shaded with edges
 70
    26
177
     3
291
     0
 70
    58
 90
        2
176
     1
 90
        2
176
     1
 90
        1
176
     1
 90
        2
176
     1
 40
0.6
176
     1
 40
30.0
176
     1
 62
     7
420
 16777215
176
     1
 90
        1
176
     1
 90
        2
176
     1
 62
     7
176
     1
 62
   257
176
     1
 90
        2
176
     1
 90
        1
176
     1
 40
1.0
176
     1
 90
        8
176
     1
 62
   257
176
     1
 40
1.0
176
     1
 90
        1
176
     1
 90
        6
176
     1
 90
        2
176
     1
 62
     7
176
     1
 90
        3
176
     1
 90
        0
176
     1
 90
        0
176
     1
290
     0
176
     1
 90
        5
176
     1
 40
0.0
176
     1
 90
        0
176
     1
290
     0
176
     1
290
     1
176
     1
290
     1
176
     1
290
     0
176
     1
290
     0
176
     1
290
     0
176
     1
290
     0
176
     1
290
     0
176
     1
290
     0
176
     1
 90
       50
176
     1
 40
0.0
176
     1
 40
1.0
176
     1
 90
        0
176
     1
 62
    18
420
        0
176
     1
 90
       50
176
     1
 90
        3
176
     1
 62
     5
420
      255
176
     1
290
     0
176
     1
 90
       50
176
     1
 90
       50
176
     1
 90
       50
176
     1
290
     0
176
     1
 90
       50
176
     1
 62
   256
176
     0
 40
1.0
176
     0
 90
        2
176
     1
  1
strokes_ogs.tif
176
     1
290
     0
176
     1
 40
1.0
176
     1
 40
1.0
176
     1
1001
ACAD
1000
AcDbSavedByObjectVersion
1070
     0
  0
VISUALSTYLE
  5
1002E
102
{ACAD_REACTORS
330
1001D
102
}
330
1001D
100
AcDbVisualStyle
  2
Shades of Gray
 70
    23
177
     3
291
     0
 70
    58
 90
        2
176
     1
 90
        2
176
     1
 90
        3
176
     1
 90
        0
176
     1
 40
0.6
176
     1
 40
30.0
176
     1
 62
     7
420
 16777215
176
     1
 90
        2
176
     1
 90
        2
176
     1
 62
     7
176
     1
 62
     7
176
     1
 90
        1
176
     1
 90
        1
176
     1
 40
40.0
176
     1
 90
        8
176
     1
 62
     7
176
     1
 40
1.0
176
     1
 90
        1
176
     1
 90
        6
176
     1
 90
        2
176
     1
 62
     7
176
     1
 90
        3
176
     1
 90
        0
176
     1
 90
        0
176
     1
290
     0
176
     1
 90
        1
176
     1
 40
0.0
176
     1
 90
        0
176
     1
290
     0
176
     1
290
     1
176
     1
290
     1
176
     1
290
     0
176
     1
290
     0
176
     1
290
     0
176
     1
290
     0
176
     1
290
     0
176
     1
290
     0
176
     1
 90
       50
176
     1
 40
0.0
176
     1
 40
1.0
176
     1
 90
        0
176
     1
 62
    18
420
        0
176
     1
 90
       50
176
     1
 90
        3
176
     1
 62
     5
420
      255
176
     1
290
     0
176
     1
 90
       50
176
     1
 90
       50
176
     1
 90
       50
176
     1
290
     0
176
     1
 90
       50
176
     1
 62
   256
176
     0
 40
1.0
176
     0
 90
        2
176
     1
  1
strokes_ogs.tif
176
     1
290
     0
176
     1
 40
1.0
176
     1
 40
1.0
176
     1
1001
ACAD
1000
AcDbSavedByObjectVersion
1070
     0
  0
VISUALSTYLE
  5
1002F
102
{ACAD_REACTORS
330
1001D
102
}
330
1001D
100
AcDbVisualStyle
  2
Sketchy
 70
    24
177
     3
291
     0
 70
    58
 90
        1
176
     1
 90
        2
176
     1
 90
        2
176
     1
 90
        0
176
     1
 40
0.6
176
     1
 40
30.0
176
     1
 62
     7
420
 16777215
176
     1
 90
        2
176
     1
 90
        2
176
     1
 62
     7
176
     1
 62
     7
176
     1
 90
        1
176
     1
 90
        1
176
     1
 40
40.0
176
     1
 90
       11
176
     1
 62
     7
176
     1
 40
1.0
176
     1
 90
        1
176
     1
 90
        6
176
     1
 90
        2
176
     1
 62
     7
176
     1
 90
        6
176
     1
 90
        0
176
     1
 90
        0
176
     1
290
     0
176
     1
 90
        1
176
     1
 40
0.0
176
     1
 90
        0
176
     1
290
     0
176
     1
290
     1
176
     1
290
     1
176
     1
290
     0
176
     1
290
     0
176
     1
290
     0
176
     1
290
     0
176
     1
290
     0
176
     1
290
     0
176
     1
 90
       50
176
     1
 40
0.0
176
     1
 40
1.0
176
     1
 90
        0
176
     1
 62
    18
420
        0
176
     1
 90
       50
176
     1
 90
        3
176
     1
 62
     5
420
      255
176
     1
290
     0
176
     1
 90
       50
176
     1
 90
       50
176
     1
 90
       50
176
     1
290
     0
176
     1
 90
       50
176
     1
 62
   256
176
     0
 40
1.0
176
     0
 90
        2
176
     1
  1
strokes_ogs.tif
176
     1
290
     0
176
     1
 40
1.0
176
     1
 40
1.0
176
     1
1001
ACAD
1000
AcDbSavedByObjectVersion
1070
     0
  0
VISUALSTYLE
  5
1002A
102
{ACAD_REACTORS
330
1001D
102
}
330
1001D
100
AcDbVisualStyle
  2
Thicken
 70
    13
177
     3
291
     1
 70
    58
 90
        2
176
     1
 90
        2
176
     1
 90
        0
176
     1
 90
        0
176
     1
 40
0.6
176
     1
 40
30.0
176
     1
 62
     7
420
 16777215
176
     1
 90
        1
176
     1
 90
        4
176
     1
 62
     7
176
     1
 62
   257
176
     1
 90
        1
176
     1
 90
        1
176
     1
 40
1.0
176
     1
 90
       12
176
     1
 62
     7
176
     1
 40
1.0
176
     1
 90
        1
176
     1
 90
        6
176
     1
 90
        2
176
     1
 62
     7
176
     1
 90
        5
176
     1
 90
        0
176
     1
 90
        0
176
     1
290
     0
176
     1
 90
        1
176
     1
 40
0.0
176
     1
 90
        0
176
     1
290
     0
176
     1
290
     1
176
     1
290
     1
176
     1
290
     0
176
     1
290
     0
176
     1
290
     0
176
     1
290
     0
176
     1
290
     0
176
     1
290
     0
176
     1
 90
       50
176
     1
 40
0.0
176
     1
 40
1.0
176
     1
 90
        0
176
     1
 62
    18
420
        0
176
     1
 90
       50
176
     1
 90
        3
176
     1
 62
     5
420
      255
176
     1
290
     0
176
     1
 90
       50
176
     1
 90
       50
176
     1
 90
       50
176
     1
290
     0
176
     1
 90
       50
176
     1
 62
   256
176
     0
 40
1.0
176
     0
 90
        2
176
     1
  1
strokes_ogs.tif
176
     1
290
     0
176
     1
 40
1.0
176
     1
 40
1.0
176
     1
1001
ACAD
1000
AcDbSavedByObjectVersion
1070
     0
  0
VISUALSTYLE
  5
10024
102
{ACAD_REACTORS
330
1001D
102
}
330
1001D
100
AcDbVisualStyle
  2
Wireframe
 70
     5
177
     3
291
     0
 70
    58
 90
        0
176
     1
 90
        2
176
     1
 90
        0
176
     1
 90
        0
176
     1
 40
0.6
176
     1
 40
30.0
176
     1
 62
     7
420
 16777215
176
     1
 90
        1
176
     1
 90
        4
176
     1
 62
     7
176
     1
 62
   257
176
     1
 90
        1
176
     1
 90
        1
176
     1
 40
1.0
176
     1
 90
        0
176
     1
 62
   257
176
     1
 40
1.0
176
     1
 90
        1
176
     1
 90
        6
176
     1
 90
        2
176
     1
 62
     7
176
     1
 90
        3
176
     1
 90
        0
176
     1
 90
        0
176
     1
290
     0
176
     1
 90
        1
176
     1
 40
0.0
176
     1
 90
        0
176
     1
290
     0
176
     1
290
     1
176
     1
290
     1
176
     1
290
     0
176
     1
290
     0
176
     1
290
     0
176
     1
290
     0
176
     1
290
     0
176
     1
290
     0
176
     1
 90
       50
176
     1
 40
0.0
176
     1
 40
1.0
176
     1
 90
        0
176
     1
 62
    18
420
        0
176
     1
 90
       50
176
     1
 90
        3
176
     1
 62
     5
420
      255
176
     1
290
     0
176
     1
 90
       50
176
     1
 90
       50
176
     1
 90
       50
176
     1
290
     0
176
     1
 90
       50
176
     1
 62
   256
176
     0
 40
1.0
176
     0
 90
        2
176
     1
  1
strokes_ogs.tif
176
     1
290
     0
176
     1
 40
1.0
176
     1
 40
1.0
176
     1
1001
ACAD
1000
AcDbSavedByObjectVersion
1070
     0
  0
VISUALSTYLE
  5
10030
102
{ACAD_REACTORS
330
1001D
102
}
330
1001D
100
AcDbVisualStyle
  2
X-Ray
 70
    25
177
     3
291
     0
 70
    58
 90
        2
176
     1
 90
        2
176
     1
 90
        1
176
     1
 90
        1
176
     1
 40
0.5
176
     1
 40
30.0
176
     1
 62
     7
420
 16777215
176
     1
 90
        1
176
     1
 90
        0
176
     1
 62
     7
176
     1
 62
   257
176
     1
 90
        1
176
     1
 90
        1
176
     1
 40
1.0
176
     1
 90
        8
176
     1
 62
     7
176
     1
 40
1.0
176
     1
 90
        1
176
     1
 90
        6
176
     1
 90
        2
176
     1
 62
     7
176
     1
 90
        3
176
     1
 90
        0
176
     1
 90
        0
176
     1
290
     0
176
     1
 90
       13
176
     1
 40
0.0
176
     1
 90
        0
176
     1
290
     0
176
     1
290
     1
176
     1
290
     1
176
     1
290
     0
176
     1
290
     0
176
     1
290
     0
176
     1
290
     0
176
     1
290
     0
176
     1
290
     0
176
     1
 90
       50
176
     1
 40
0.0
176
     1
 40
1.0
176
     1
 90
        0
176
     1
 62
    18
420
        0
176
     1
 90
       50
176
     1
 90
        3
176
     1
 62
     5
420
      255
176
     1
290
     0
176
     1
 90
       50
176
     1
 90
       50
176
     1
 90
       50
176
     1
290
     0
176
     1
 90
       50
176
     1
 62
   256
176
     0
 40
1.0
176
     0
 90
        2
176
     1
  1
strokes_ogs.tif
176
     1
290
     0
176
     1
 40
1.0
176
     1
 40
1.0
176
     1
1001
ACAD
1000
AcDbSavedByObjectVersion
1070
     0
  0
DICTIONARYVAR
  5
10067
102
{ACAD_REACTORS
330
10061
102
}
330
10061
100
DictionaryVariables
280
     0
  1
1:1
  0
DICTIONARYVAR
  5
10063
102
{ACAD_REACTORS
330
10061
102
}
330
10061
100
DictionaryVariables
280
     0
  1
STANDARD
  0
DICTIONARYVAR
  5
10062
102
{ACAD_REACTORS
330
10061
102
}
330
10061
100
DictionaryVariables
280
     0
  1
STANDARD
  0
DICTIONARYVAR
  5
10064
102
{ACAD_REACTORS
330
10061
102
}
330
10061
100
DictionaryVariables
280
     0
  1
Imperial24
  0
DICTIONARYVAR
  5
10065
102
{ACAD_REACTORS
330
10061
102
}
330
10061
100
DictionaryVariables
280
     0
  1
Imperial24
  0
DICTIONARYVAR
  5
10069
102
{ACAD_REACTORS
330
10061
102
}
330
10061
100
DictionaryVariables
280
     0
  1
1
  0
DICTIONARYVAR
  5
1006A
102
{ACAD_REACTORS
330
10061
102
}
330
10061
100
DictionaryVariables
280
     0
  1
15
  0
DICTIONARYVAR
  5
10068
102
{ACAD_REACTORS
330
10061
102
}
330
10061
100
DictionaryVariables
280
     0
  1
0
  0
DICTIONARYVAR
  5
10066
102
{ACAD_REACTORS
330
10061
102
}
330
10061
100
DictionaryVariables
280
     0
  1
0
  0
DICTIONARY
  5
1007E
330
10052
100
AcDbDictionary
280
     1
281
     1
  3
ACAD_XREC_ROUNDTRIP
360
1007F
  0
DICTIONARY
  5
1000E
330
1000D
100
AcDbDictionary
280
     1
281
     1
  3
BUMPTILE
360
10010
  3
DIFFUSETILE
360
1000F
  3
OPACITYTILE
360
10013
  3
REFLECTIONTILE
360
10012
  3
REFRACTIONTILE
360
10014
  3
SPECULARTILE
360
10011
  0
DICTIONARY
  5
10006
330
10005
100
AcDbDictionary
280
     1
281
     1
  3
BUMPTILE
360
10008
  3
DIFFUSETILE
360
10007
  3
OPACITYTILE
360
1000B
  3
REFLECTIONTILE
360
1000A
  3
REFRACTIONTILE
360
1000C
  3
SPECULARTILE
360
10009
  0
DICTIONARY
  5
10016
330
10015
100
AcDbDictionary
280
     1
281
     1
  3
BUMPTILE
360
10018
  3
DIFFUSETILE
360
10017
  3
OPACITYTILE
360
1001B
  3
REFLECTIONTILE
360
1001A
  3
REFRACTIONTILE
360
1001C
  3
SPECULARTILE
360
10019
  0
DICTIONARY
  5
1007C
330
10050
100
AcDbDictionary
280
     1
281
     1
  3
ACAD_XREC_ROUNDTRIP
360
1007D
  0
DICTIONARY
  5
10079
330
10039
100
AcDbDictionary
280
     1
281
     1
  3
ACAD_ROUNDTRIP_2008_TABLESTYLE_CELLSTYLEMAP
360
1007A
  0
XRECORD
  5
1007F
102
{ACAD_REACTORS
330
1007E
102
}
330
1007E
100
AcDbXrecord
280
     1
102
DISPLAYNAME
  1
Imperial24
102
FLAGS
 90
        0
  0
XRECORD
  5
10010
102
{ACAD_REACTORS
330
1000E
102
}
330
1000E
100
AcDbXrecord
280
     1
270
     1
271
     1
  0
XRECORD
  5
1000F
102
{ACAD_REACTORS
330
1000E
102
}
330
1000E
100
AcDbXrecord
280
     1
270
     1
271
     1
  0
XRECORD
  5
10013
102
{ACAD_REACTORS
330
1000E
102
}
330
1000E
100
AcDbXrecord
280
     1
270
     1
271
     1
  0
XRECORD
  5
10012
102
{ACAD_REACTORS
330
1000E
102
}
330
1000E
100
AcDbXrecord
280
     1
270
     1
271
     1
  0
XRECORD
  5
10014
102
{ACAD_REACTORS
330
1000E
102
}
330
1000E
100
AcDbXrecord
280
     1
270
     1
271
     1
  0
XRECORD
  5
10011
102
{ACAD_REACTORS
330
1000E
102
}
330
1000E
100
AcDbXrecord
280
     1
270
     1
271
     1
  0
XRECORD
  5
10008
102
{ACAD_REACTORS
330
10006
102
}
330
10006
100
AcDbXrecord
280
     1
270
     1
271
     1
  0
XRECORD
  5
10007
102
{ACAD_REACTORS
330
10006
102
}
330
10006
100
AcDbXrecord
280
     1
270
     1
271
     1
  0
XRECORD
  5
1000B
102
{ACAD_REACTORS
330
10006
102
}
330
10006
100
AcDbXrecord
280
     1
270
     1
271
     1
  0
XRECORD
  5
1000A
102
{ACAD_REACTORS
330
10006
102
}
330
10006
100
AcDbXrecord
280
     1
270
     1
271
     1
  0
XRECORD
  5
1000C
102
{ACAD_REACTORS
330
10006
102
}
330
10006
100
AcDbXrecord
280
     1
270
     1
271
     1
  0
XRECORD
  5
10009
102
{ACAD_REACTORS
330
10006
102
}
330
10006
100
AcDbXrecord
280
     1
270
     1
271
     1
  0
XRECORD
  5
10018
102
{ACAD_REACTORS
330
10016
102
}
330
10016
100
AcDbXrecord
280
     1
270
     1
271
     1
  0
XRECORD
  5
10017
102
{ACAD_REACTORS
330
10016
102
}
330
10016
100
AcDbXrecord
280
     1
270
     1
271
     1
  0
XRECORD
  5
1001B
102
{ACAD_REACTORS
330
10016
102
}
330
10016
100
AcDbXrecord
280
     1
270
     1
271
     1
  0
XRECORD
  5
1001A
102
{ACAD_REACTORS
330
10016
102
}
330
10016
100
AcDbXrecord
280
     1
270
     1
271
     1
  0
XRECORD
  5
1001C
102
{ACAD_REACTORS
330
10016
102
}
330
10016
100
AcDbXrecord
280
     1
270
     1
271
     1
  0
XRECORD
  5
10019
102
{ACAD_REACTORS
330
10016
102
}
330
10016
100
AcDbXrecord
280
     1
270
     1
271
     1
  0
XRECORD
  5
1007D
102
{ACAD_REACTORS
330
1007C
102
}
330
1007C
100
AcDbXrecord
280
     1
102
DISPLAYNAME
  1
Imperial24
102
FLAGS
 90
        0
  0
CELLSTYLEMAP
  5
1007A
102
{ACAD_REACTORS
330
10079
102
}
330
10079
100
AcDbCellStyleMap
 90
        3
300
CELLSTYLE
  1
TABLEFORMAT_BEGIN
 90
        5
170
     1
 91
        0
 92
    32768
 62
   257
 93
        1
300
CONTENTFORMAT
  1
CONTENTFORMAT_BEGIN
 90
        0
 91
        0
 92
      512
 93
        0
300

 40
0.0
140
1.0
 94
        5
 62
     0
340
11
144
0.25
309
CONTENTFORMAT_END
171
     0
 94
        0
309
TABLEFORMAT_END
  1
CELLSTYLE_BEGIN
 90
        1
 91
        1
300
_TITLE
309
CELLSTYLE_END
300
CELLSTYLE
  1
TABLEFORMAT_BEGIN
 90
        5
170
     1
 91
        0
 92
        0
 62
   257
 93
        1
300
CONTENTFORMAT
  1
CONTENTFORMAT_BEGIN
 90
        0
 91
        0
 92
      512
 93
        0
300

 40
0.0
140
1.0
 94
        5
 62
     0
340
11
144
0.18
309
CONTENTFORMAT_END
171
     0
 94
        0
309
TABLEFORMAT_END
  1
CELLSTYLE_BEGIN
 90
        2
 91
        1
300
_HEADER
309
CELLSTYLE_END
300
CELLSTYLE
  1
TABLEFORMAT_BEGIN
 90
        5
170
     1
 91
        0
 92
        0
 62
   257
 93
        1
300
CONTENTFORMAT
  1
CONTENTFORMAT_BEGIN
 90
        0
 91
        0
 92
      512
 93
        0
300

 40
0.0
140
1.0
 94
        2
 62
     0
340
11
144
0.18
309
CONTENTFORMAT_END
171
     0
 94
        0
309
TABLEFORMAT_END
  1
CELLSTYLE_BEGIN
 90
        3
 91
        2
300
_DATA
309
CELLSTYLE_END
  0
ENDSEC
  0
EOF
