0
SECTION
2
HEADER
9
$INSUNITS
70
4
9
$ACADVER
1
AC1014
9
$HANDSEED
5
FFFF
0
ENDSEC
0
SECTION
2
TABLES
0
TABLE
2
VPORT
5
8
100
AcDbSymbolTable
0
ENDTAB
0
TABLE
2
LTYPE
5
5
100
AcDbSymbolTable
0
LTYPE
5
14
100
AcDbSymbolTableRecord
100
AcDbLinetypeTableRecord
2
BYBLOCK
70
0
0
LTYPE
5
15
100
AcDbSymbolTableRecord
100
AcDbLinetypeTableRecord
2
BYLAYER
70
0
0
ENDTAB
0
TABLE
2
LAYER
5
2
100
AcDbSymbolTable
70
2
0
LAYER
5
50
100
AcDbSymbolTableRecord
100
AcDbLayerTableRecord
2
0
70
0
6
CONTINUOUS
0
ENDTAB
0
TABLE
2
STYLE
5
3
100
AcDbSymbolTable
70
1
0
STYLE
5
11
100
AcDbSymbolTableRecord
100
AcDbTextStyleTableRecord
2
STANDARD
70
0
0
ENDTAB
0
TABLE
2
VIEW
5
6
100
AcDbSymbolTable
70
0
0
ENDTAB
0
TABLE
2
UCS
5
7
100
AcDbSymbolTable
70
0
0
ENDTAB
0
TABLE
2
APPID
5
9
100
AcDbSymbolTable
70
2
0
APPID
5
12
100
AcDbSymbolTableRecord
100
AcDbRegAppTableRecord
2
ACAD
70
0
0
ENDTAB
0
TABLE
2
DIMSTYLE
5
A
100
AcDbSymbolTable
70
1
0
ENDTAB
0
TABLE
2
BLOCK_RECORD
5
1
100
AcDbSymbolTable
70
1
0
BLOCK_RECORD
5
1F
100
AcDbSymbolTableRecord
100
AcDbBlockTableRecord
2
*MODEL_SPACE
0
BLOCK_RECORD
5
1B
100
AcDbSymbolTableRecord
100
AcDbBlockTableRecord
2
*PAPER_SPACE
0
ENDTAB
0
ENDSEC
0
SECTION
2
BLOCKS
0
BLOCK
5
20
100
AcDbEntity
100
AcDbBlockBegin
2
*MODEL_SPACE
0
ENDBLK
5
21
100
AcDbEntity
100
AcDbBlockEnd
0
BLOCK
5
1C
100
AcDbEntity
100
AcDbBlockBegin
2
*PAPER_SPACE
0
ENDBLK
5
1D
100
AcDbEntity
100
AcDbBlockEnd
0
ENDSEC
0
SECTION
2
ENTITIES
0
LWPOLYLINE
5
100
100
AcDbEntity
8
0
100
AcDbPolyline
90
72
70
1
43
0.0
10
249.00225738470755
20
-21.102186163918617
42
0.41521483911143986
10
250.00225154553164
20
-22.1056035192926
10
296.5400050897357
20
-22.1056035192926
42
0.41421356237309503
10
298.5400050897357
20
-20.105603519292572
10
298.54000508973564
20
-19.55563098660356
42
-0.41421356237309503
10
300.54000508973564
20
-17.555630986603568
10
307.33466771394768
20
-17.555630986603568
42
0.41421356237309503
10
309.33466771394768
20
-15.555630986603575
10
309.33466771394757
20
1.4422237819954373
42
-0.41083258707271875
10
310.8173323680976
20
2.9421236072452217
42
0.41083258707271975
10
312.29999702224757
20
4.4420234324954322
10
312.29999702224768
20
60.444375745549479
42
0.41083258707271875
10
310.8173323680976
20
61.944275570798659
42
-0.4108325870727173
10
309.33466771394762
20
63.444175396048408
10
309.3346677139466
20
76.444377228214435
42
0.41421356237309503
10
307.33466771394768
20
78.444377228214464
10
300.55000423292165
20
78.444377228214393
42
-0.41421356237309503
10
298.55000423292159
20
80.444377228214421
10
298.55000423292262
20
81.444376158503431
42
0.41421356237309503
10
296.55000423292267
20
83.444376158503459
10
240.45000254908661
20
83.444376158503388
42
0.41421356237309503
10
238.45000254908661
20
81.444376158503431
10
238.45000254908666
20
80.444377228214421
42
-0.41421356237309503
10
236.45000254908663
20
78.444377228214393
10
199.03680464529063
20
78.444377228214421
42
-0.41421356237309503
10
197.03680464529066
20
80.444377228214421
10
197.03680464529066
20
81.444376158503431
42
0.41421356237309503
10
195.03680464529066
20
83.444376158503459
10
139.01000254908763
20
83.444376158503388
42
0.41421356237309503
10
137.01000254908763
20
81.444376158503431
10
137.01000254908766
20
80.444377228214421
42
-0.41421356237309503
10
135.01000254908763
20
78.444377228214393
10
97.536804645290616
20
78.444377228214421
42
-0.41421356237309503
10
95.53680464529063
20
80.444377228214421
10
95.53680464529063
20
81.444376158503431
42
0.41421356237309503
10
93.536804645290616
20
83.444376158503459
10
37.510002549087496
20
83.444376158503388
42
0.41421356237309503
10
35.510002549087503
20
81.444376158503431
10
35.510002549087538
20
80.444377228214421
42
-0.41421356237309503
10
33.51000254908751
20
78.444377228214393
10
5.5000055367703116
20
78.444377228214393
42
0.41421356237309503
10
3.5000055367703098
20
76.444377228214435
10
3.5000055367703142
20
63.444375745549451
42
-0.4142141816885227
10
2.000002365058311
20
61.944375745552804
42
0.41421356237309503
10
0.50000236505830742
20
60.444375745549479
10
0.50000236505830742
20
4.4422237819954091
42
0.4142141816885227
10
2.0000055367703151
20
2.9422237819954411
42
-0.41421356237309503
10
3.5000055367703187
20
1.4422237819954375
10
3.5000055367703098
20
-15.555623841496597
42
0.41421356237309503
10
5.5000055367703116
20
-17.55562384149659
10
33.450002549087529
20
-17.55562384149659
42
-0.41421356237309503
10
35.450002549087515
20
-19.555623841496583
10
35.450002549087515
20
-20.105603519292572
42
0.41421356237309503
10
37.450002549087515
20
-22.105603519292565
10
93.556804645290612
20
-22.1056035192926
42
0.41421356237309503
10
95.556804645290612
20
-20.105603519292572
10
95.556804645290626
20
-19.555623841496583
42
-0.41421356237309503
10
97.556804645290626
20
-17.55562384149659
10
134.95000254908763
20
-17.55562384149659
42
-0.41421356237309503
10
136.95000254908763
20
-19.555623841496583
10
136.95000254908661
20
-20.105603519292572
42
0.41421356237309503
10
138.95000254908663
20
-22.105603519292565
10
194.97680464529066
20
-22.1056035192926
42
0.41421356237309503
10
196.97680464529066
20
-20.105603519292572
10
196.97680464529066
20
-19.555623841496583
42
-0.41421356237309503
10
198.97680464529063
20
-17.55562384149659
10
236.45000254908663
20
-17.55562384149659
42
-0.41421356237309503
10
238.45000254908661
20
-19.555623841496583
10
238.45000254908766
20
-20.105603519292572
42
0.41421356237309503
10
240.45000254908661
20
-22.105603519292565
10
243.99775723323063
20
-22.1056035192926
42
0.41521483911143986
10
244.99775139405369
20
-21.102186163918585
42
-1.0034232145381983
0
LWPOLYLINE
5
101
100
AcDbEntity
8
0
100
AcDbPolyline
90
8
70
1
43
0.0
10
20.500000708794612
20
75.210222688105404
42
0.41421356237309503
10
20.000000708794616
20
75.710222688105375
10
7.0000007087942162
20
75.710222688107365
42
0.41421356237309503
10
6.5000007087942091
20
75.210222688107393
10
6.500000708794218
20
62.210222688106427
42
0.41421356237309503
10
7.0000007087942162
20
61.710222688106455
10
20.000000708794616
20
61.710222688105461
42
0.41421356237309503
10
20.500000708794708
20
62.210222688105432
0
LWPOLYLINE
5
102
100
AcDbEntity
8
0
100
AcDbPolyline
90
34
70
1
43
0.0
10
268.9375007087956
20
56.660222688105364
42
0.41421356237309503
10
268.43750070879565
20
56.160222688105392
10
268.43750070879565
20
43.160222688105421
42
0.41421356237309503
10
268.9375007087956
20
42.660222688105378
10
270.31875070879562
20
42.660222688104383
42
-0.41421356237309503
10
270.8187507087946
20
42.160222688105407
10
270.81875070879568
20
38.110222688105466
42
-0.41421356237309503
10
270.31875070879562
20
37.610222688105424
10
249.88750070879564
20
37.610222688105424
42
0.41421356237309503
10
249.38750070879564
20
37.110222688105452
10
249.38750070879564
20
24.11022268810548
42
0.41421356237309503
10
249.88750070879564
20
23.610222688105438
10
252.35575070879563
20
23.610222688105438
42
-0.41421356237309503
10
252.8557507087956
20
23.110222688105466
10
252.8557507087956
20
22.110222688105452
42
0.41421356237309503
10
253.3557507087956
20
21.61022268810548
10
259.3557507087956
20
21.61022268810548
42
0.41421356237309503
10
259.85575070879565
20
22.110222688105452
10
259.85575070879565
20
23.110222688105466
42
-0.41421356237309503
10
260.3557507087956
20
23.610222688105438
10
276.23175070879461
20
23.610222688105438
42
-0.41421356237309503
10
276.73175070879461
20
23.110222688105466
10
276.73175070879466
20
22.110222688105452
42
0.41421356237309503
10
277.23175070879461
20
21.61022268810548
10
283.3187507087946
20
21.61022268810548
42
0.41421356237309503
10
283.81875070879568
20
22.110222688105452
10
283.81875070879568
20
32.635222688105401
42
-0.41421356237309503
10
284.31875070879562
20
33.135222688105372
42
0.41421356237309503
10
284.81875070879562
20
33.635222688105415
10
284.81875070879562
20
46.635222688105458
42
0.41421356237309503
10
284.31875070879562
20
47.1352226881055
42
-0.41421356237309503
10
283.81875070879568
20
47.635222688105472
10
283.8187507087946
20
56.160222688105392
42
0.41421358138947578
10
283.31875067633166
20
56.660222688105435
0
LWPOLYLINE
5
103
100
AcDbEntity
8
0
100
AcDbPolyline
90
8
70
1
43
0.0
10
11.262500708794709
20
43.160222688105421
10
11.262500708794745
20
56.160222688105392
42
-0.41421356237309503
10
11.762500708794716
20
56.660222688105364
10
24.762500708794715
20
56.660222688105392
42
-0.41421356237309503
10
25.262500708794711
20
56.160222688105392
10
25.262500708794686
20
43.160222688105421
42
-0.41421356237309503
10
24.762500708794715
20
42.660222688105449
10
11.762500708794716
20
42.660222688105414
42
-0.41421356237309503
0
LWPOLYLINE
5
104
100
AcDbEntity
8
0
100
AcDbPolyline
90
8
70
1
43
0.0
10
196.21250070879461
20
4.5602226881054264
10
183.21250070879563
20
4.5602226881054619
42
-0.41421356237309503
10
182.71250070879563
20
5.060222688105469
10
182.71250070879569
20
18.060222688105441
42
-0.41421356237309503
10
183.21250070879563
20
18.560222688105412
10
196.21250070879461
20
18.560222688105448
42
-0.41421356237309503
10
196.71250070879464
20
18.060222688105441
10
196.71250070879466
20
5.060222688105469
42
-0.41421356237309503
0
LWPOLYLINE
5
105
100
AcDbEntity
8
0
100
AcDbPolyline
90
8
70
1
43
0.0
10
205.73750070879467
20
23.610222688105438
10
192.73750070879561
20
23.610222688105473
42
-0.41421356237309503
10
192.23750070879561
20
24.11022268810548
10
192.23750070879564
20
37.110222688105452
42
-0.41421356237309503
10
192.73750070879561
20
37.610222688105424
10
205.73750070879467
20
37.610222688105459
42
-0.41421356237309503
10
206.23750070879467
20
37.110222688105452
10
206.2375007087947
20
24.11022268810548
42
-0.41421356237309503
0
LWPOLYLINE
5
106
100
AcDbEntity
8
0
100
AcDbPolyline
90
8
70
1
43
0.0
10
91.437500708794616
20
23.610222688105509
42
0.41421356237309503
10
91.937500708794616
20
24.11022268810548
10
91.937500708794616
20
37.110222688105452
42
0.41421356237309503
10
91.437500708794616
20
37.610222688105424
10
78.43750070879463
20
37.610222688105424
42
0.41421356237309503
10
77.937500708794616
20
37.110222688105452
10
77.937500708794616
20
24.11022268810548
42
0.41421356237309503
10
78.43750070879463
20
23.610222688105438
0
LWPOLYLINE
5
107
100
AcDbEntity
8
0
100
AcDbPolyline
90
8
70
1
43
0.0
10
73.175000708794599
20
43.160222688105421
10
73.175000708794627
20
56.160222688105392
42
-0.41421356237309503
10
73.675000708794599
20
56.660222688105364
10
86.675000708794613
20
56.660222688105378
42
-0.41421356237309503
10
87.175000708794599
20
56.160222688105392
10
87.175000708794585
20
43.160222688105421
42
-0.41421356237309503
10
86.675000708794613
20
42.660222688105449
10
73.675000708794599
20
42.660222688105414
42
-0.41421356237309503
0
LWPOLYLINE
5
108
100
AcDbEntity
8
0
100
AcDbPolyline
90
8
70
1
43
0.0
10
105.72500070879562
20
42.660222688105378
10
92.72500070879461
20
42.660222688105414
42
-0.41421356237309503
10
92.22500070879461
20
43.160222688105421
10
92.225000708794639
20
56.160222688105392
42
-0.41421356237309503
10
92.72500070879461
20
56.660222688105364
10
105.72500070879562
20
56.660222688105399
42
-0.41421356237309503
10
106.22500070879562
20
56.160222688105392
10
106.22500070879566
20
43.160222688105421
42
-0.41421356237309503
0
LWPOLYLINE
5
109
100
AcDbEntity
8
0
100
AcDbPolyline
90
8
70
1
43
0.0
10
48.575000708794605
20
42.660222688105378
10
35.575000708794704
20
42.660222688105414
42
-0.41421356237309503
10
35.075000708794697
20
43.160222688105421
10
35.075000708794732
20
56.160222688105392
42
-0.41421356237309503
10
35.575000708794704
20
56.660222688105364
10
48.575000708794605
20
56.660222688105399
42
-0.41421356237309503
10
49.075000708794612
20
56.160222688105392
10
49.075000708794647
20
43.160222688105421
42
-0.41421356237309503
0
LWPOLYLINE
5
110
100
AcDbEntity
8
0
100
AcDbPolyline
90
8
70
1
43
0.0
10
162.87500070879562
20
42.660222688105378
10
149.87500070879463
20
42.660222688105414
42
-0.41421356237309503
10
149.37500070879463
20
43.160222688105421
10
149.37500070879466
20
56.160222688105392
42
-0.41421356237309503
10
149.87500070879463
20
56.660222688105364
10
162.87500070879562
20
56.660222688105399
42
-0.41421356237309503
10
163.37500070879565
20
56.160222688105392
10
163.37500070879568
20
43.160222688105421
42
-0.41421356237309503
0
LWPOLYLINE
5
111
100
AcDbEntity
8
0
100
AcDbPolyline
90
8
70
1
43
0.0
10
53.337500708794607
20
23.610222688105509
42
0.41421356237309503
10
53.837500708794614
20
24.11022268810548
10
53.837500708794614
20
37.110222688105452
42
0.41421356237309503
10
53.337500708794607
20
37.610222688105424
10
40.3375007087946
20
37.610222688105424
42
0.41421356237309503
10
39.837500708794607
20
37.110222688105452
10
39.837500708794593
20
24.11022268810548
42
0.41421356237309503
10
40.3375007087946
20
23.610222688105438
0
LWPOLYLINE
5
112
100
AcDbEntity
8
0
100
AcDbPolyline
90
8
70
1
43
0.0
10
186.68750070879466
20
23.610222688105438
10
173.68750070879565
20
23.610222688105473
42
-0.41421356237309503
10
173.18750070879562
20
24.11022268810548
10
173.18750070879565
20
37.110222688105452
42
-0.41421356237309503
10
173.68750070879565
20
37.610222688105424
10
186.68750070879466
20
37.610222688105459
42
-0.41421356237309503
10
187.18750070879466
20
37.110222688105452
10
187.18750070879469
20
24.11022268810548
42
-0.41421356237309503
0
LWPOLYLINE
5
113
100
AcDbEntity
8
0
100
AcDbPolyline
90
24
70
1
43
0.0
10
44.312500708794715
20
18.060222688105441
42
0.41421356237309503
10
43.812500708794708
20
18.560222688105412
10
9.381250708794715
20
18.560222688105412
42
0.41421356237309503
10
8.8812507087946102
20
18.060222688105441
10
8.8812507087947168
20
5.060222688105469
42
0.41421356237309503
10
9.381250708794715
20
4.5602226881054264
10
9.4682507087947165
20
4.5602226881053554
42
-0.41421356237309503
10
9.9682507087946171
20
4.0602226881054548
10
9.9682507087947148
20
3.0602226881054406
42
0.41421356237309503
10
10.468250708794713
20
2.560222688105469
10
16.468250708794709
20
2.560222688105469
42
0.41421356237309503
10
16.968250708794706
20
3.0602226881054406
10
16.968250708794635
20
4.0602226881054548
42
-0.41421356237309503
10
17.468250708794606
20
4.5602226881054264
10
33.344250708794704
20
4.5602226881053554
42
-0.41421356237309503
10
33.844250708794604
20
4.0602226881054548
10
33.844250708794718
20
3.0602226881054406
42
0.41421356237309503
10
34.344250708794704
20
2.560222688105469
10
40.344250708794611
20
2.560222688105469
42
0.41421356237309503
10
40.844250708794704
20
3.0602226881054406
10
40.844250708794632
20
4.0602226881054548
42
-0.41421356237309503
10
41.344250708794604
20
4.5602226881054264
10
43.812500708794708
20
4.5602226881054975
42
0.41421356237309503
10
44.312500708794701
20
5.060222688105469
0
LWPOLYLINE
5
114
100
AcDbEntity
8
0
100
AcDbPolyline
90
8
70
1
43
0.0
10
106.51250070879561
20
5.060222688105469
10
106.51250070879563
20
18.060222688105441
42
-0.41421356237309503
10
107.0125007087956
20
18.560222688105412
10
120.01250070879561
20
18.560222688105448
42
-0.41421356237309503
10
120.51250070879561
20
18.060222688105441
10
120.51250070879559
20
5.060222688105469
42
-0.41421356237309503
10
120.01250070879561
20
4.5602226881054975
10
107.0125007087956
20
4.5602226881054797
42
-0.41421356237309503
0
LWPOLYLINE
5
115
100
AcDbEntity
8
0
100
AcDbPolyline
90
8
70
1
43
0.0
10
158.11250070879564
20
4.5602226881054264
10
145.11250070879464
20
4.5602226881054619
42
-0.41421356237309503
10
144.61250070879461
20
5.060222688105469
10
144.61250070879464
20
18.060222688105441
42
-0.41421356237309503
10
145.11250070879464
20
18.560222688105412
10
158.11250070879564
20
18.560222688105412
42
-0.41421356237309503
10
158.61250070879561
20
18.060222688105441
10
158.61250070879566
20
5.060222688105469
42
-0.41421356237309503
0
LWPOLYLINE
5
116
100
AcDbEntity
8
0
100
AcDbPolyline
90
8
70
1
43
0.0
10
129.53750070879363
20
23.610222688105438
10
116.53750070879565
20
23.610222688105473
42
-0.41421356237309503
10
116.03750070879563
20
24.11022268810548
10
116.03750070879568
20
37.110222688105452
42
-0.41421356237309503
10
116.53750070879565
20
37.610222688105424
10
129.53750070879363
20
37.610222688105459
42
-0.41421356237309503
10
130.03750070879363
20
37.110222688105452
10
130.03750070879366
20
24.11022268810548
42
-0.41421356237309503
0
LWPOLYLINE
5
117
100
AcDbEntity
8
0
100
AcDbPolyline
90
8
70
1
43
0.0
10
49.362500708794599
20
5.060222688105469
10
49.362500708794634
20
18.060222688105441
42
-0.41421356237309503
10
49.862500708794606
20
18.560222688105412
10
62.862500708794599
20
18.560222688105448
42
-0.41421356237309503
10
63.362500708794599
20
18.060222688105441
10
63.36250070879457
20
5.060222688105469
42
-0.41421356237309503
10
62.862500708794599
20
4.5602226881054975
10
49.862500708794606
20
4.5602226881054619
42
-0.41421356237309503
0
LWPOLYLINE
5
118
100
AcDbEntity
8
0
100
AcDbPolyline
90
8
70
1
43
0.0
10
139.06250070879463
20
4.5602226881054264
10
126.06250070879565
20
4.5602226881054619
42
-0.41421356237309503
10
125.56250070879564
20
5.060222688105469
10
125.56250070879568
20
18.060222688105441
42
-0.41421356237309503
10
126.06250070879565
20
18.560222688105412
10
139.06250070879463
20
18.560222688105448
42
-0.41421356237309503
10
139.56250070879463
20
18.060222688105441
10
139.56250070879466
20
5.060222688105469
42
-0.41421356237309503
0
LWPOLYLINE
5
119
100
AcDbEntity
8
0
100
AcDbPolyline
90
8
70
1
43
0.0
10
87.462500708794607
20
5.060222688105469
10
87.462500708794622
20
18.060222688105441
42
-0.41421356237309503
10
87.962500708794593
20
18.560222688105412
10
100.96250070879562
20
18.560222688105448
42
-0.41421356237309503
10
101.46250070879562
20
18.060222688105441
10
101.46250070879559
20
5.060222688105469
42
-0.41421356237309503
10
100.96250070879562
20
4.5602226881054975
10
87.962500708794593
20
4.5602226881054797
42
-0.41421356237309503
0
LWPOLYLINE
5
120
100
AcDbEntity
8
0
100
AcDbPolyline
90
8
70
1
43
0.0
10
143.82500070879561
20
42.660222688105449
42
0.41421356237309503
10
144.32500070879559
20
43.160222688105421
10
144.32500070879564
20
56.160222688105392
42
0.41421356237309503
10
143.82500070879561
20
56.660222688105435
10
130.82500070879561
20
56.660222688105364
42
0.41421356237309503
10
130.32500070879561
20
56.160222688105392
10
130.32500070879561
20
43.160222688105421
42
0.41421356237309503
10
130.82500070879561
20
42.660222688105378
0
LWPOLYLINE
5
121
100
AcDbEntity
8
0
100
AcDbPolyline
90
8
70
1
43
0.0
10
67.625000708794602
20
42.660222688105449
42
0.41421356237309503
10
68.125000708794587
20
43.160222688105421
10
68.125000708794602
20
56.160222688105392
42
0.41421356237309503
10
67.625000708794602
20
56.660222688105435
10
54.625000708794609
20
56.660222688105364
42
0.41421356237309503
10
54.125000708794602
20
56.160222688105392
10
54.125000708794602
20
43.160222688105421
42
0.41421356237309503
10
54.625000708794609
20
42.660222688105378
0
LWPOLYLINE
5
122
100
AcDbEntity
8
0
100
AcDbPolyline
90
8
70
1
43
0.0
10
135.08750070879563
20
24.11022268810548
10
135.08750070879569
20
37.110222688105452
42
-0.41421356237309503
10
135.58750070879566
20
37.610222688105424
10
148.58750070879566
20
37.610222688105459
42
-0.41421356237309503
10
149.08750070879566
20
37.110222688105452
10
149.08750070879563
20
24.11022268810548
42
-0.41421356237309503
10
148.58750070879566
20
23.610222688105509
10
135.58750070879566
20
23.610222688105473
42
-0.41421356237309503
0
LWPOLYLINE
5
123
100
AcDbEntity
8
0
100
AcDbPolyline
90
8
70
1
43
0.0
10
168.42500070879564
20
43.160222688105421
10
168.42500070879566
20
56.160222688105392
42
-0.41421356237309503
10
168.92500070879564
20
56.660222688105364
10
181.92500070879561
20
56.660222688105399
42
-0.41421356237309503
10
182.42500070879561
20
56.160222688105392
10
182.42500070879558
20
43.160222688105421
42
-0.41421356237309503
10
181.92500070879561
20
42.660222688105449
10
168.92500070879564
20
42.660222688105414
42
-0.41421356237309503
0
LWPOLYLINE
5
124
100
AcDbEntity
8
0
100
AcDbPolyline
90
8
70
1
43
0.0
10
215.26250070879567
20
4.5602226881054264
10
202.26250070879561
20
4.5602226881054975
42
-0.41421356237309503
10
201.76250070879564
20
5.060222688105469
10
201.76250070879564
20
18.060222688105441
42
-0.41421356237309503
10
202.26250070879561
20
18.560222688105412
10
215.26250070879567
20
18.560222688105448
42
-0.41421356237309503
10
215.76250070879567
20
18.060222688105441
10
215.7625007087957
20
5.060222688105469
42
-0.41421356237309503
0
LWPOLYLINE
5
125
100
AcDbEntity
8
0
100
AcDbPolyline
90
8
70
1
43
0.0
10
177.16250070879465
20
4.5602226881054264
10
164.16250070879562
20
4.5602226881054619
42
-0.41421356237309503
10
163.66250070879562
20
5.060222688105469
10
163.66250070879568
20
18.060222688105441
42
-0.41421356237309503
10
164.16250070879562
20
18.560222688105412
10
177.16250070879465
20
18.560222688105448
42
-0.41421356237309503
10
177.66250070879465
20
18.060222688105441
10
177.66250070879468
20
5.060222688105469
42
-0.41421356237309503
0
LWPOLYLINE
5
126
100
AcDbEntity
8
0
100
AcDbPolyline
90
8
70
1
43
0.0
10
81.91250070879461
20
4.5602226881054264
10
68.912500708794596
20
4.5602226881054797
42
-0.41421356237309503
10
68.41250070879461
20
5.060222688105469
10
68.412500708794624
20
18.060222688105441
42
-0.41421356237309503
10
68.912500708794596
20
18.560222688105412
10
81.91250070879461
20
18.560222688105448
42
-0.41421356237309503
10
82.41250070879461
20
18.060222688105441
10
82.412500708794653
20
5.060222688105469
42
-0.41421356237309503
0
LWPOLYLINE
5
127
100
AcDbEntity
8
0
100
AcDbPolyline
90
8
70
1
43
0.0
10
243.83750070879461
20
23.610222688105438
10
230.83750070879563
20
23.610222688105473
42
-0.41421356237309503
10
230.33750070879563
20
24.11022268810548
10
230.33750070879566
20
37.110222688105452
42
-0.41421356237309503
10
230.83750070879563
20
37.610222688105424
10
243.83750070879461
20
37.610222688105459
42
-0.41421356237309503
10
244.33750070879461
20
37.110222688105452
10
244.33750070879466
20
24.11022268810548
42
-0.41421356237309503
0
LWPOLYLINE
5
128
100
AcDbEntity
8
0
100
AcDbPolyline
90
8
70
1
43
0.0
10
110.48750070879461
20
23.610222688105438
10
97.487500708794599
20
23.610222688105473
42
-0.41421356237309503
10
96.987500708794585
20
24.11022268810548
10
96.987500708794627
20
37.110222688105452
42
-0.41421356237309503
10
97.487500708794599
20
37.610222688105424
10
110.48750070879461
20
37.610222688105459
42
-0.41421356237309503
10
110.98750070879461
20
37.110222688105452
10
110.98750070879464
20
24.11022268810548
42
-0.41421356237309503
0
LWPOLYLINE
5
129
100
AcDbEntity
8
0
100
AcDbPolyline
90
8
70
1
43
0.0
10
258.1250007087956
20
42.660222688105378
10
245.1250007087956
20
42.660222688105414
42
-0.41421356237309503
10
244.6250007087956
20
43.160222688105421
10
244.62500070879565
20
56.160222688105392
42
-0.41421356237309503
10
245.1250007087956
20
56.660222688105364
10
258.1250007087956
20
56.660222688105399
42
-0.41421356237309503
10
258.6250007087956
20
56.160222688105392
10
258.62500070879565
20
43.160222688105421
42
-0.41421356237309503
0
LWPOLYLINE
5
130
100
AcDbEntity
8
0
100
AcDbPolyline
90
8
70
1
43
0.0
10
72.387500708794605
20
23.610222688105438
10
59.387500708794612
20
23.610222688105473
42
-0.41421356237309503
10
58.887500708794605
20
24.11022268810548
10
58.88750070879464
20
37.110222688105452
42
-0.41421356237309503
10
59.387500708794612
20
37.610222688105424
10
72.387500708794605
20
37.610222688105459
42
-0.41421356237309503
10
72.887500708794605
20
37.110222688105452
10
72.887500708794647
20
24.11022268810548
42
-0.41421356237309503
0
LWPOLYLINE
5
131
100
AcDbEntity
8
0
100
AcDbPolyline
90
8
70
1
43
0.0
10
124.77500070879564
20
42.660222688105378
10
111.77500070879461
20
42.660222688105414
42
-0.41421356237309503
10
111.27500070879461
20
43.160222688105421
10
111.27500070879464
20
56.160222688105392
42
-0.41421356237309503
10
111.77500070879461
20
56.660222688105364
10
124.77500070879564
20
56.660222688105399
42
-0.41421356237309503
10
125.27500070879566
20
56.160222688105392
10
125.27500070879569
20
43.160222688105421
42
-0.41421356237309503
0
LWPOLYLINE
5
132
100
AcDbEntity
8
0
100
AcDbPolyline
90
8
70
1
43
0.0
10
234.3125007087956
20
4.5602226881054975
42
0.41421356237309503
10
234.8125007087956
20
5.060222688105469
10
234.8125007087956
20
18.060222688105441
42
0.41421356237309503
10
234.3125007087956
20
18.560222688105412
10
221.3125007087956
20
18.560222688105412
42
0.41421356237309503
10
220.81250070879562
20
18.060222688105441
10
220.8125007087956
20
5.060222688105469
42
0.41421356237309503
10
221.3125007087956
20
4.5602226881054264
0
LWPOLYLINE
5
133
100
AcDbEntity
8
0
100
AcDbPolyline
90
8
70
1
43
0.0
10
167.63750070879564
20
23.610222688105438
10
154.63750070879564
20
23.610222688105473
42
-0.41421356237309503
10
154.13750070879561
20
24.11022268810548
10
154.13750070879564
20
37.110222688105452
42
-0.41421356237309503
10
154.63750070879564
20
37.610222688105424
10
167.63750070879564
20
37.610222688105459
42
-0.41421356237309503
10
168.13750070879564
20
37.110222688105452
10
168.13750070879567
20
24.11022268810548
42
-0.41421356237309503
0
LWPOLYLINE
5
134
100
AcDbEntity
8
0
100
AcDbPolyline
90
8
70
1
43
0.0
10
224.78750070879562
20
23.610222688105509
42
0.41421356237309503
10
225.28750070879565
20
24.11022268810548
10
225.28750070879565
20
37.110222688105452
42
0.41421356237309503
10
224.78750070879562
20
37.610222688105424
10
211.7875007087946
20
37.610222688105424
42
0.41421356237309503
10
211.28750070879462
20
37.110222688105452
10
211.28750070879462
20
24.11022268810548
42
0.41421356237309503
10
211.7875007087946
20
23.610222688105438
0
LWPOLYLINE
5
135
100
AcDbEntity
8
0
100
AcDbPolyline
90
8
70
1
43
0.0
10
220.02500070879563
20
42.660222688105378
10
207.02500070879464
20
42.660222688105414
42
-0.41421356237309503
10
206.52500070879461
20
43.160222688105421
10
206.52500070879466
20
56.160222688105392
42
-0.41421356237309503
10
207.02500070879464
20
56.660222688105364
10
220.02500070879563
20
56.660222688105364
42
-0.41421356237309503
10
220.5250007087956
20
56.160222688105392
10
220.52500070879569
20
43.160222688105421
42
-0.41421356237309503
0
LWPOLYLINE
5
136
100
AcDbEntity
8
0
100
AcDbPolyline
90
8
70
1
43
0.0
10
187.47500070879465
20
43.160222688105421
10
187.47500070879468
20
56.160222688105392
42
-0.41421356237309503
10
187.97500070879465
20
56.660222688105364
10
200.97500070879462
20
56.660222688105364
42
-0.41421356237309503
10
201.4750007087946
20
56.160222688105392
10
201.4750007087946
20
43.160222688105421
42
-0.41421356237309503
10
200.97500070879462
20
42.660222688105449
10
187.97500070879465
20
42.660222688105414
42
-0.41421356237309503
0
LWPOLYLINE
5
137
100
AcDbEntity
8
0
100
AcDbPolyline
90
8
70
1
43
0.0
10
239.07500070879564
20
42.660222688105378
10
226.07500070879567
20
42.660222688105414
42
-0.41421356237309503
10
225.57500070879567
20
43.160222688105421
10
225.5750007087957
20
56.160222688105392
42
-0.41421356237309503
10
226.07500070879567
20
56.660222688105364
10
239.07500070879564
20
56.660222688105399
42
-0.41421356237309503
10
239.57500070879564
20
56.160222688105392
10
239.5750007087957
20
43.160222688105421
42
-0.41421356237309503
0
LWPOLYLINE
5
138
100
AcDbEntity
8
0
100
AcDbPolyline
90
8
70
1
43
0.0
10
286.70000070879564
20
4.5602226881054975
42
0.41421356237309503
10
287.20000070879564
20
5.060222688105469
10
287.20000070879564
20
18.060222688105441
42
0.41421356237309503
10
286.70000070879564
20
18.560222688105412
10
273.70000070879564
20
18.560222688105412
42
0.41421356237309503
10
273.20000070879564
20
18.060222688105441
10
273.20000070879564
20
5.060222688105469
42
0.41421356237309503
10
273.70000070879564
20
4.5602226881054264
0
LWPOLYLINE
5
139
100
AcDbEntity
8
0
100
AcDbPolyline
90
8
70
1
43
0.0
10
27.143750708794609
20
23.610222688105438
10
9.381250708794715
20
23.61022268810548
42
-0.41421356237309503
10
8.8812507087947168
20
24.11022268810548
10
8.8812507087947434
20
37.110222688105452
42
-0.41421356237309503
10
9.381250708794715
20
37.610222688105424
10
27.143750708794609
20
37.610222688105438
42
-0.41421356237309503
10
27.643750708794599
20
37.110222688105452
10
27.643750708794652
20
24.11022268810548
42
-0.41421356237309503
0
LWPOLYLINE
5
140
100
AcDbEntity
8
0
100
AcDbPolyline
90
8
70
1
43
0.0
10
260.5062507087946
20
4.5602226881054264
10
247.50625070879462
20
4.5602226881054619
42
-0.41421356237309503
10
247.0062507087946
20
5.060222688105469
10
247.00625070879465
20
18.060222688105441
42
-0.41421356237309503
10
247.50625070879462
20
18.560222688105412
10
260.5062507087946
20
18.560222688105412
42
-0.41421356237309503
10
261.0062507087946
20
18.060222688105441
10
261.00625070879465
20
5.060222688105469
42
-0.41421356237309503
0
LWPOLYLINE
5
141
100
AcDbEntity
8
0
100
AcDbPolyline
90
8
70
1
43
0.0
10
263.9375007087956
20
43.160222688105421
10
263.9375007087956
20
56.160222688105392
42
-0.41421356237309503
10
264.4375007087956
20
56.660222688105364
10
265.9375007087956
20
56.660222688105399
42
-0.41421356237309503
10
266.4375007087956
20
56.160222688105392
10
266.4375007087956
20
43.160222688105421
42
-0.41421356237309503
10
265.9375007087956
20
42.660222688105449
10
264.4375007087956
20
42.660222688105449
42
-0.41421356237309503
0
LWPOLYLINE
5
142
100
AcDbEntity
8
0
100
AcDbPolyline
90
8
70
1
43
0.0
10
27.262500708794715
20
43.160222688105421
10
27.262500708794732
20
56.160222688105392
42
-0.41421356237309503
10
27.762500708794704
20
56.660222688105364
10
29.262500708794708
20
56.660222688105399
42
-0.41421356237309503
10
29.762500708794715
20
56.160222688105392
10
29.762500708794679
20
43.160222688105421
42
-0.41421356237309503
10
29.262500708794708
20
42.660222688105449
10
27.762500708794704
20
42.660222688105435
42
-0.41421356237309503
0
LWPOLYLINE
5
143
100
AcDbEntity
8
0
100
AcDbPolyline
90
8
70
1
43
0.0
10
263.0062507087946
20
5.060222688105469
10
263.0062507087946
20
18.060222688105441
42
-0.41421356237309503
10
263.5062507087946
20
18.560222688105412
10
265.0062507087946
20
18.560222688105448
42
-0.41421356237309503
10
265.5062507087946
20
18.060222688105441
10
265.5062507087946
20
5.060222688105469
42
-0.41421356237309503
10
265.0062507087946
20
4.5602226881054975
10
263.5062507087946
20
4.5602226881054975
42
-0.41421356237309503
0
LWPOLYLINE
5
144
100
AcDbEntity
8
0
100
AcDbPolyline
90
8
70
1
43
0.0
10
242.50625070879462
20
5.060222688105469
10
242.50625070879465
20
18.060222688105441
42
-0.41421356237309503
10
243.00625070879462
20
18.560222688105412
10
244.50625070879565
20
18.560222688105448
42
-0.41421356237309503
10
245.00625070879565
20
18.060222688105441
10
245.00625070879562
20
5.060222688105469
42
-0.41421356237309503
10
244.50625070879565
20
4.5602226881054975
10
243.00625070879462
20
4.5602226881054619
42
-0.41421356237309503
0
LWPOLYLINE
5
145
100
AcDbEntity
8
0
100
AcDbPolyline
90
8
70
1
43
0.0
10
29.643750708794592
20
24.11022268810548
10
29.643750708794627
20
37.110222688105452
42
-0.41421356237309503
10
30.143750708794599
20
37.610222688105424
10
31.643750708794602
20
37.610222688105459
42
-0.41421356237309503
10
32.143750708794613
20
37.110222688105452
10
32.14375070879457
20
24.11022268810548
42
-0.41421356237309503
10
31.643750708794602
20
23.610222688105509
10
30.143750708794599
20
23.610222688105473
42
-0.41421356237309503
0
LWPOLYLINE
5
146
100
AcDbEntity
8
0
100
AcDbPolyline
90
8
70
1
43
0.0
10
6.7625007087947164
20
43.16022268810741
42
0.41421356237426049
10
7.2625007087947147
20
42.660222688105449
10
8.7625007087947093
20
42.660222688105449
42
0.41421356237309503
10
9.2625007087947164
20
43.160222688105421
10
9.2625007087947075
20
56.160222688105392
42
0.41421356237309503
10
8.7625007087947093
20
56.660222688105435
10
7.2625007087947147
20
56.66022268810643
42
0.41421356237339158
10
6.7625007087942102
20
56.160222688106458
0
LWPOLYLINE
5
147
100
AcDbEntity
8
0
100
AcDbPolyline
90
8
70
1
43
0.0
10
22.381250708794724
20
-14.489777311894585
10
9.381250708794715
20
-14.489777311894541
42
-0.41421356237309503
10
8.8812507087947168
20
-13.989777311894542
10
8.8812507087947434
20
-0.98977731189457074
42
-0.41421356237309503
10
9.381250708794715
20
-0.48977731189459917
10
22.381250708794724
20
-0.48977731189457252
42
-0.41421356237309503
10
22.88125070879472
20
-0.98977731189457074
10
22.881250708794767
20
-13.989777311894542
42
-0.41421356237309503
0
LWPOLYLINE
5
148
100
AcDbEntity
8
0
100
AcDbPolyline
90
8
70
1
43
0.0
10
46.19375070879471
20
-14.489777311894585
10
33.193750708794703
20
-14.489777311894532
42
-0.41421356237309503
10
32.69375070879471
20
-13.989777311894542
10
32.693750708794731
20
-0.98977731189457074
42
-0.41421356237309503
10
33.193750708794703
20
-0.48977731189459917
10
46.19375070879471
20
-0.4897773118945814
42
-0.41421356237309503
10
46.693750708794695
20
-0.98977731189457074
10
46.693750708794752
20
-13.989777311894542
42
-0.41421356237309503
0
LWPOLYLINE
5
149
100
AcDbEntity
8
0
100
AcDbPolyline
90
8
70
1
43
0.0
10
305.75000070879463
20
42.660222688106444
10
292.75000070879565
20
42.660222688105449
42
-0.41421356237309503
10
292.25000070879565
20
43.160222688105421
10
292.25000070879565
20
56.160222688105392
42
-0.41421356237309503
10
292.75000070879565
20
56.660222688105364
10
305.75000070879463
20
56.66022268810643
42
-0.41421356237309503
10
306.25000070879457
20
56.160222688106458
10
306.2500007087956
20
43.16022268810741
42
-0.41421356237309503
0
LWPOLYLINE
5
150
100
AcDbEntity
8
0
100
AcDbPolyline
90
8
70
1
43
0.0
10
70.006250708794596
20
-14.489777311894585
10
57.006250708794596
20
-14.489777311894532
42
-0.41421356237309503
10
56.506250708794603
20
-13.989777311894542
10
56.506250708794624
20
-0.98977731189457074
42
-0.41421356237309503
10
57.006250708794596
20
-0.48977731189459917
10
70.006250708794596
20
-0.4897773118945814
42
-0.41421356237309503
10
70.506250708794596
20
-0.98977731189457074
10
70.506250708794639
20
-13.989777311894542
42
-0.41421356237309503
0
LWPOLYLINE
5
151
100
AcDbEntity
8
0
100
AcDbPolyline
90
22
70
1
43
0.0
10
108.10625070879564
20
-14.489777311894585
10
90.343750708794616
20
-14.489777311894549
42
-0.41421356237309503
10
89.843750708794602
20
-13.989777311894542
42
0.41421356237309503
10
89.343750708794616
20
-13.489777311894571
10
81.905750708794599
20
-13.489777311894606
42
-0.41421356237309503
10
81.405750708794585
20
-12.989777311894599
10
81.405750708794628
20
1.0102226881054577
42
-0.41421356237309503
10
81.905750708794599
20
1.5102226881054293
10
92.668250708794616
20
1.5102226881054648
42
-0.41421356237309503
10
93.168250708794616
20
1.0102226881054577
10
93.168250708794616
20
0.010222688105443467
42
0.41421356237309503
10
93.668250708794631
20
-0.48977731189452811
10
104.7817507087956
20
-0.48977731189459917
42
0.41421356237309503
10
105.28175070879561
20
0.010222688105443467
10
105.28175070879563
20
1.0102226881054577
42
-0.41421356237309503
10
105.7817507087956
20
1.5102226881054293
10
116.54425070879566
20
1.5102226881054648
42
-0.41421356237309503
10
117.04425070879566
20
1.0102226881054577
10
117.04425070879563
20
-12.989777311894599
42
-0.41421356237309503
10
116.54425070879566
20
-13.489777311894571
10
109.10625070879561
20
-13.489777311894571
42
0.41421356237309503
10
108.60625070879567
20
-13.989777311894542
42
-0.41421356237309503
0
LWPOLYLINE
5
152
100
AcDbEntity
8
0
100
AcDbPolyline
90
8
70
1
43
0.0
10
305.75000070879463
20
23.610222688107427
10
292.75000070879565
20
23.610222688105509
42
-0.41421356237309503
10
292.25000070879565
20
24.11022268810548
10
292.25000070879565
20
37.110222688105452
42
-0.41421356237309503
10
292.75000070879565
20
37.610222688105424
10
305.75000070879463
20
37.610222688107413
42
-0.41421356237309503
10
306.25000070879457
20
37.110222688107442
10
306.25000070879361
20
24.110222688106404
42
-0.41421356237309503
0
LWPOLYLINE
5
153
100
AcDbEntity
8
0
100
AcDbPolyline
90
8
70
1
43
0.0
10
146.20625070879464
20
-14.489777311894585
10
123.68125070879564
20
-14.489777311894549
42
-0.41421356237309503
10
123.18125070879563
20
-13.989777311894542
10
123.18125070879567
20
-0.98977731189457074
42
-0.41421356237309503
10
123.68125070879564
20
-0.48977731189459917
10
146.20625070879464
20
-0.48977731189456364
42
-0.41421356237309503
10
146.70625070879464
20
-0.98977731189457074
10
146.70625070879467
20
-13.989777311894542
42
-0.41421356237309503
0
LWPOLYLINE
5
154
100
AcDbEntity
8
0
100
AcDbPolyline
90
22
70
1
43
0.0
10
179.54375070879564
20
-14.489777311894585
10
161.78125070879562
20
-14.489777311894549
42
-0.41421356237309503
10
161.28125070879562
20
-13.989777311894542
42
0.41421356237309503
10
160.78125070879466
20
-13.489777311894571
10
153.34325070879561
20
-13.489777311894571
42
-0.41421356237309503
10
152.84325070879564
20
-12.989777311894599
10
152.84325070879564
20
1.0102226881054577
42
-0.41421356237309503
10
153.34325070879561
20
1.5102226881054293
10
164.10575070879563
20
1.5102226881054648
42
-0.41421356237309503
10
164.60575070879565
20
1.0102226881054577
10
164.60575070879565
20
0.010222688105443467
42
0.41421356237309503
10
165.10575070879466
20
-0.48977731189452811
10
176.21925070879462
20
-0.48977731189459917
42
0.41421356237309503
10
176.71925070879465
20
0.010222688105443467
10
176.71925070879567
20
1.0102226881054577
42
-0.41421356237309503
10
177.21925070879564
20
1.5102226881054293
10
187.98175070879464
20
1.5102226881054293
42
-0.41421356237309503
10
188.48175070879461
20
1.0102226881054577
10
188.48175070879461
20
-12.989777311894599
42
-0.41421356237309503
10
187.98175070879464
20
-13.489777311894571
10
180.54375070879561
20
-13.489777311894571
42
0.41421356237309503
10
180.0437507087957
20
-13.989777311894542
42
-0.41421356237309503
0
LWPOLYLINE
5
155
100
AcDbEntity
8
0
100
AcDbPolyline
90
8
70
1
43
0.0
10
305.75000070879463
20
4.5602226881064212
10
292.75000070879565
20
4.5602226881054975
42
-0.41421356237309503
10
292.25000070879565
20
5.060222688105469
10
292.25000070879565
20
18.060222688105441
42
-0.41421356237309503
10
292.75000070879565
20
18.560222688105412
10
305.75000070879463
20
18.560222688107402
42
-0.41421356237309503
10
306.25000070879457
20
18.06022268810743
10
306.25000070879457
20
5.0602226881063928
42
-0.41421356237309503
0
LWPOLYLINE
5
156
100
AcDbEntity
8
0
100
AcDbPolyline
90
8
70
1
43
0.0
10
212.8812507087946
20
-14.489777311894585
10
199.88125070879462
20
-14.489777311894549
42
-0.41421356237309503
10
199.38125070879462
20
-13.989777311894542
10
199.38125070879465
20
-0.98977731189457074
42
-0.41421356237309503
10
199.88125070879462
20
-0.48977731189459917
10
212.8812507087946
20
-0.48977731189456364
42
-0.41421356237309503
10
213.3812507087946
20
-0.98977731189457074
10
213.38125070879465
20
-13.989777311894542
42
-0.41421356237309503
0
LWPOLYLINE
5
157
100
AcDbEntity
8
0
100
AcDbPolyline
90
8
70
1
43
0.0
10
236.69375070879565
20
-14.489777311894585
10
223.69375070879562
20
-14.489777311894549
42
-0.41421356237309503
10
223.19375070879562
20
-13.989777311894542
10
223.19375070879568
20
-0.98977731189457074
42
-0.41421356237309503
10
223.69375070879562
20
-0.48977731189459917
10
236.69375070879565
20
-0.48977731189456364
42
-0.41421356237309503
10
237.19375070879565
20
-0.98977731189457074
10
237.19375070879568
20
-13.989777311894542
42
-0.41421356237309503
0
LWPOLYLINE
5
158
100
AcDbEntity
8
0
100
AcDbPolyline
90
8
70
1
43
0.0
10
292.25000070879565
20
-13.989777311894542
42
0.41421356237309503
10
292.75000070879565
20
-14.489777311894514
10
305.75000070879463
20
-14.489777311892524
42
0.41421356237309503
10
306.25000070879469
20
-13.989777311892553
10
306.25000070879457
20
-0.98977731189357598
42
0.41421356237309503
10
305.75000070879463
20
-0.48977731189353335
10
292.75000070879565
20
-0.48977731189459917
42
0.41421356237309503
10
292.2500007087956
20
-0.98977731189457074
0
LWPOLYLINE
5
159
100
AcDbEntity
8
0
100
AcDbPolyline
90
8
70
1
43
0.0
10
248.60000070879462
20
-14.489777311894585
10
245.1250007087956
20
-14.489777311894549
42
-0.41421356237309503
10
244.6250007087956
20
-13.989777311894542
10
244.62500070879565
20
-0.98977731189457074
42
-0.41421356237309503
10
245.1250007087956
20
-0.48977731189459917
10
248.60000070879462
20
-0.48977731189456364
42
-0.41421356237309503
10
249.10000070879462
20
-0.98977731189457074
10
249.10000070879465
20
-13.989777311894542
42
-0.41421356237309503
0
LWPOLYLINE
5
160
100
AcDbEntity
8
0
100
AcDbPolyline
90
8
70
1
43
0.0
10
267.65000070879461
20
-14.489777311894585
10
254.65000070879461
20
-14.489777311894549
42
-0.41421356237309503
10
254.15000070879461
20
-13.989777311894542
10
254.15000070879466
20
-0.98977731189457074
42
-0.41421356237309503
10
254.65000070879461
20
-0.48977731189459917
10
267.65000070879461
20
-0.48977731189459917
42
-0.41421356237309503
10
268.15000070879455
20
-0.98977731189457074
10
268.15000070879466
20
-13.989777311894542
42
-0.41421356237309503
0
LWPOLYLINE
5
161
100
AcDbEntity
8
0
100
AcDbPolyline
90
8
70
1
43
0.0
10
286.70000070879564
20
-14.489777311894585
10
273.70000070879564
20
-14.489777311894514
42
-0.41421356237309503
10
273.20000070879564
20
-13.989777311894542
10
273.20000070879564
20
-0.98977731189457074
42
-0.41421356237309503
10
273.70000070879564
20
-0.48977731189459917
10
286.70000070879564
20
-0.48977731189459917
42
-0.41421356237309503
10
287.20000070879564
20
-0.98977731189457074
10
287.2000007087957
20
-13.989777311894542
42
-0.41421356237309503
0
LWPOLYLINE
5
162
100
AcDbEntity
8
0
100
AcDbPolyline
90
8
70
1
43
0.0
10
292.75000070879565
20
75.710222688105446
10
305.75000070879463
20
75.710222688107365
42
-0.41421356237309503
10
306.25000070879457
20
75.210222688107393
10
306.25000070879457
20
62.210222688106427
42
-0.41421356237309503
10
305.75000070879463
20
61.710222688106455
10
292.75000070879565
20
61.710222688105461
42
-0.41421356237309503
10
292.25000070879565
20
62.210222688105432
10
292.2500007087956
20
75.210222688105404
42
-0.41421356237309503
0
LWPOLYLINE
5
163
100
AcDbEntity
8
0
100
AcDbPolyline
90
24
70
1
43
0.0
10
254.65000070879461
20
75.710222688105446
10
286.70000070879564
20
75.710222688105375
42
-0.41421356237309503
10
287.20000070879564
20
75.210222688105404
10
287.20000070879564
20
62.210222688105432
42
-0.41421356237309503
10
286.70000070879564
20
61.710222688105461
10
286.61300070879565
20
61.710222688105461
42
0.41421356237309503
10
286.11300070879565
20
61.210222688105418
10
286.1130007087956
20
60.210222688105404
42
-0.41421356237309503
10
285.6130007087956
20
59.710222688105432
10
279.6130007087956
20
59.710222688105432
42
-0.41421356237309503
10
279.11300070879565
20
60.210222688105404
10
279.11300070879565
20
61.210222688105418
42
0.41421356237309503
10
278.6130007087956
20
61.710222688105389
10
262.7370007087946
20
61.710222688105461
42
0.41421356237309503
10
262.2370007087946
20
61.210222688105418
10
262.2370007087946
20
60.210222688105404
42
-0.41421356237309503
10
261.73700070879465
20
59.710222688105432
10
255.73700070879565
20
59.710222688105397
42
-0.41421356237309503
10
255.23700070879562
20
60.210222688105404
10
255.2370007087946
20
61.210222688105418
42
0.41421356237309503
10
254.7370007087946
20
61.710222688105389
10
254.65000070879461
20
61.710222688105425
42
-0.41421356237309503
10
254.15000070879461
20
62.210222688105432
10
254.15000070879458
20
75.210222688105404
42
-0.41421356237309503
0
LWPOLYLINE
5
164
100
AcDbEntity
8
0
100
AcDbPolyline
90
8
70
1
43
0.0
10
235.60000070879565
20
75.710222688105446
10
248.60000070879462
20
75.710222688105404
42
-0.41421356237309503
10
249.10000070879462
20
75.210222688105404
10
249.1000007087946
20
62.210222688105432
42
-0.41421356237309503
10
248.60000070879462
20
61.710222688105461
10
235.60000070879565
20
61.710222688105425
42
-0.41421356237309503
10
235.10000070879562
20
62.210222688105432
10
235.10000070879559
20
75.210222688105404
42
-0.41421356237309503
0
LWPOLYLINE
5
165
100
AcDbEntity
8
0
100
AcDbPolyline
90
8
70
1
43
0.0
10
216.55000070879564
20
75.710222688105446
10
229.55000070879564
20
75.710222688105404
42
-0.41421356237309503
10
230.05000070879564
20
75.210222688105404
10
230.05000070879561
20
62.210222688105432
42
-0.41421356237309503
10
229.55000070879564
20
61.710222688105461
10
216.55000070879564
20
61.710222688105425
42
-0.41421356237309503
10
216.05000070879561
20
62.210222688105432
10
216.05000070879558
20
75.210222688105404
42
-0.41421356237309503
0
LWPOLYLINE
5
166
100
AcDbEntity
8
0
100
AcDbPolyline
90
8
70
1
43
0.0
10
197.50000070879466
20
75.710222688105446
10
210.50000070879562
20
75.710222688105375
42
-0.41421356237309503
10
211.0000007087956
20
75.210222688105404
10
211.0000007087956
20
62.210222688105432
42
-0.41421356237309503
10
210.50000070879562
20
61.710222688105461
10
197.50000070879466
20
61.710222688105425
42
-0.41421356237309503
10
197.00000070879466
20
62.210222688105432
10
197.00000070879463
20
75.210222688105404
42
-0.41421356237309503
0
LWPOLYLINE
5
167
100
AcDbEntity
8
0
100
AcDbPolyline
90
8
70
1
43
0.0
10
178.45000070879564
20
75.710222688105446
10
191.45000070879561
20
75.710222688105404
42
-0.41421356237309503
10
191.95000070879561
20
75.210222688105404
10
191.95000070879559
20
62.210222688105432
42
-0.41421356237309503
10
191.45000070879561
20
61.710222688105461
10
178.45000070879564
20
61.710222688105425
42
-0.41421356237309503
10
177.95000070879564
20
62.210222688105432
10
177.95000070879559
20
75.210222688105404
42
-0.41421356237309503
0
LWPOLYLINE
5
168
100
AcDbEntity
8
0
100
AcDbPolyline
90
8
70
1
43
0.0
10
159.40000070879563
20
75.710222688105446
10
172.40000070879563
20
75.710222688105404
42
-0.41421356237309503
10
172.90000070879563
20
75.210222688105404
10
172.9000007087956
20
62.210222688105432
42
-0.41421356237309503
10
172.40000070879563
20
61.710222688105461
10
159.40000070879563
20
61.710222688105425
42
-0.41421356237309503
10
158.90000070879563
20
62.210222688105432
10
158.90000070879557
20
75.210222688105404
42
-0.41421356237309503
0
LWPOLYLINE
5
169
100
AcDbEntity
8
0
100
AcDbPolyline
90
8
70
1
43
0.0
10
140.35000070879462
20
75.710222688105446
10
153.35000070879562
20
75.710222688105404
42
-0.41421356237309503
10
153.85000070879562
20
75.210222688105404
10
153.85000070879559
20
62.210222688105432
42
-0.41421356237309503
10
153.35000070879562
20
61.710222688105461
10
140.35000070879462
20
61.710222688105425
42
-0.41421356237309503
10
139.85000070879462
20
62.210222688105432
10
139.8500007087946
20
75.210222688105404
42
-0.41421356237309503
0
LWPOLYLINE
5
170
100
AcDbEntity
8
0
100
AcDbPolyline
90
8
70
1
43
0.0
10
121.30000070879561
20
75.710222688105446
10
134.30000070879461
20
75.710222688105404
42
-0.41421356237309503
10
134.80000070879464
20
75.210222688105404
10
134.80000070879458
20
62.210222688105432
42
-0.41421356237309503
10
134.30000070879461
20
61.710222688105461
10
121.30000070879561
20
61.710222688105425
42
-0.41421356237309503
10
120.80000070879561
20
62.210222688105432
10
120.80000070879557
20
75.210222688105404
42
-0.41421356237309503
0
LWPOLYLINE
5
171
100
AcDbEntity
8
0
100
AcDbPolyline
90
8
70
1
43
0.0
10
102.25000070879561
20
75.710222688105446
10
115.25000070879564
20
75.710222688105404
42
-0.41421356237309503
10
115.75000070879565
20
75.210222688105404
10
115.75000070879561
20
62.210222688105432
42
-0.41421356237309503
10
115.25000070879564
20
61.710222688105461
10
102.25000070879561
20
61.710222688105446
42
-0.41421356237309503
10
101.75000070879562
20
62.210222688105432
10
101.75000070879557
20
75.210222688105404
42
-0.41421356237309503
0
LWPOLYLINE
5
172
100
AcDbEntity
8
0
100
AcDbPolyline
90
8
70
1
43
0.0
10
83.200000708794605
20
75.710222688105446
10
96.200000708794619
20
75.710222688105404
42
-0.41421356237309503
10
96.700000708794619
20
75.210222688105404
10
96.70000070879459
20
62.210222688105432
42
-0.41421356237309503
10
96.200000708794619
20
61.710222688105461
10
83.200000708794605
20
61.710222688105425
42
-0.41421356237309503
10
82.700000708794605
20
62.210222688105432
10
82.700000708794562
20
75.210222688105404
42
-0.41421356237309503
0
LWPOLYLINE
5
173
100
AcDbEntity
8
0
100
AcDbPolyline
90
8
70
1
43
0.0
10
64.150000708794607
20
75.710222688105446
10
77.150000708794607
20
75.710222688105404
42
-0.41421356237309503
10
77.650000708794607
20
75.210222688105404
10
77.650000708794579
20
62.210222688105432
42
-0.41421356237309503
10
77.150000708794607
20
61.710222688105461
10
64.150000708794607
20
61.710222688105425
42
-0.41421356237309503
10
63.650000708794607
20
62.210222688105432
10
63.650000708794572
20
75.210222688105404
42
-0.41421356237309503
0
LWPOLYLINE
5
174
100
AcDbEntity
8
0
100
AcDbPolyline
90
8
70
1
43
0.0
10
45.10000070879471
20
75.710222688105446
10
58.100000708794596
20
75.710222688105404
42
-0.41421356237309503
10
58.600000708794596
20
75.210222688105404
10
58.600000708794568
20
62.210222688105432
42
-0.41421356237309503
10
58.100000708794596
20
61.710222688105461
10
45.10000070879471
20
61.710222688105425
42
-0.41421356237309503
10
44.600000708794703
20
62.210222688105432
10
44.600000708794667
20
75.210222688105404
42
-0.41421356237309503
0
LWPOLYLINE
5
175
100
AcDbEntity
8
0
100
AcDbPolyline
90
8
70
1
43
0.0
10
26.050000708794609
20
75.710222688105446
10
39.050000708794599
20
75.710222688105404
42
-0.41421356237309503
10
39.550000708794606
20
75.210222688105404
10
39.55000070879457
20
62.210222688105432
42
-0.41421356237309503
10
39.050000708794599
20
61.710222688105461
10
26.050000708794609
20
61.710222688105432
42
-0.41421356237309503
10
25.550000708794613
20
62.210222688105432
10
25.550000708794567
20
75.210222688105404
42
-0.41421356237309503
0
ENDSEC
0
SECTION
2
OBJECTS
0
DICTIONARY
5
C
100
AcDbDictionary
3
ACAD_GROUP
350
D
3
ACAD_MLINESTYLE
350
17
0
DICTIONARY
5
D
100
AcDbDictionary
0
DICTIONARY
5
1A
330
C
100
AcDbDictionary
0
DICTIONARY
5
17
100
AcDbDictionary
0
ENDSEC
0
EOF
