  0
SECTION
  2
HEADER
  9
$ACADVER
  1
AC1027
  9
$ACADMAINTVER
 70
   125
  9
$DWGCODEPAGE
  3
ANSI_1252
  9
$LASTSAVEDBY
  1
zz000
  9
$REQUIREDVERSIONS
160
                 0
  9
$INSBASE
 10
0.0
 20
0.0
 30
0.0
  9
$EXTMIN
 10
-313.9446387410286
 20
-140.2817269053143
 30
0.0
  9
$EXTMAX
 10
11.59522323154592
 20
20.00943896676617
 30
0.0000005514653634
  9
$LIMMIN
 10
0.0
 20
0.0
  9
$LIMMAX
 10
12.0
 20
9.0
  9
$ORTHOMODE
 70
     0
  9
$REGENMODE
 70
     1
  9
$FILLMODE
 70
     1
  9
$QTEXTMODE
 70
     0
  9
$MIRRTEXT
 70
     0
  9
$LTSCALE
 40
1.0
  9
$ATTMODE
 70
     1
  9
$TEXTSIZE
 40
0.2
  9
$TRACEWID
 40
0.05
  9
$TEXTSTYLE
  7
STANDARD
  9
$CLAYER
  8
0
  9
$CELTYPE
  6
Continuous
  9
$CECOLOR
 62
   256
  9
$CELTSCALE
 40
1.0
  9
$DISPSILH
 70
     0
  9
$DIMSCALE
 40
1.0
  9
$DIMASZ
 40
0.18
  9
$DIMEXO
 40
0.0625
  9
$DIMDLI
 40
0.38
  9
$DIMRND
 40
0.0
  9
$DIMDLE
 40
0.0
  9
$DIMEXE
 40
0.18
  9
$DIMTP
 40
0.0
  9
$DIMTM
 40
0.0
  9
$DIMTXT
 40
0.18
  9
$DIMCEN
 40
0.09
  9
$DIMTSZ
 40
0.0
  9
$DIMTOL
 70
     0
  9
$DIMLIM
 70
     0
  9
$DIMTIH
 70
     1
  9
$DIMTOH
 70
     1
  9
$DIMSE1
 70
     0
  9
$DIMSE2
 70
     0
  9
$DIMTAD
 70
     0
  9
$DIMZIN
 70
     0
  9
$DIMBLK
  1

  9
$DIMASO
 70
     1
  9
$DIMSHO
 70
     1
  9
$DIMPOST
  1

  9
$DIMAPOST
  1

  9
$DIMALT
 70
     0
  9
$DIMALTD
 70
     2
  9
$DIMALTF
 40
25.4
  9
$DIMLFAC
 40
1.0
  9
$DIMTOFL
 70
     0
  9
$DIMTVP
 40
0.0
  9
$DIMTIX
 70
     0
  9
$DIMSOXD
 70
     0
  9
$DIMSAH
 70
     0
  9
$DIMBLK1
  1

  9
$DIMBLK2
  1

  9
$DIMSTYLE
  2
Standard
  9
$DIMCLRD
 70
     0
  9
$DIMCLRE
 70
     0
  9
$DIMCLRT
 70
     0
  9
$DIMTFAC
 40
1.0
  9
$DIMGAP
 40
0.09
  9
$DIMJUST
 70
     0
  9
$DIMSD1
 70
     0
  9
$DIMSD2
 70
     0
  9
$DIMTOLJ
 70
     1
  9
$DIMTZIN
 70
     0
  9
$DIMALTZ
 70
     0
  9
$DIMALTTZ
 70
     0
  9
$DIMUPT
 70
     0
  9
$DIMDEC
 70
     4
  9
$DIMTDEC
 70
     4
  9
$DIMALTU
 70
     2
  9
$DIMALTTD
 70
     2
  9
$DIMTXSTY
  7
STANDARD
  9
$DIMAUNIT
 70
     0
  9
$DIMADEC
 70
     0
  9
$DIMALTRND
 40
0.0
  9
$DIMAZIN
 70
     0
  9
$DIMDSEP
 70
    46
  9
$DIMATFIT
 70
     3
  9
$DIMFRAC
 70
     0
  9
$DIMLDRBLK
  1

  9
$DIMLUNIT
 70
     2
  9
$DIMLWD
 70
    -2
  9
$DIMLWE
 70
    -2
  9
$DIMTMOVE
 70
     0
  9
$DIMFXL
 40
1.0
  9
$DIMFXLON
 70
     0
  9
$DIMJOGANG
 40
0.7853981633974483
  9
$DIMTFILL
 70
     0
  9
$DIMTFILLCLR
 70
     0
  9
$DIMARCSYM
 70
     0
  9
$DIMLTYPE
  6

  9
$DIMLTEX1
  6

  9
$DIMLTEX2
  6

  9
$DIMTXTDIRECTION
 70
     0
  9
$LUNITS
 70
     2
  9
$LUPREC
 70
     4
  9
$SKETCHINC
 40
0.1
  9
$FILLETRAD
 40
0.0
  9
$AUNITS
 70
     0
  9
$AUPREC
 70
     0
  9
$MENU
  1
.
  9
$ELEVATION
 40
0.0
  9
$PELEVATION
 40
0.0
  9
$THICKNESS
 40
0.0
  9
$LIMCHECK
 70
     0
  9
$CHAMFERA
 40
0.0
  9
$CHAMFERB
 40
0.0
  9
$CHAMFERC
 40
0.0
  9
$CHAMFERD
 40
0.0
  9
$SKPOLY
 70
     0
  9
$TDCREATE
 40
2459828.793888889
  9
$TDUCREATE
 40
2459829.085555556
  9
$TDUPDATE
 40
2459828.795439815
  9
$TDUUPDATE
 40
2459829.087106482
  9
$TDINDWG
 40
0.0015509259
  9
$TDUSRTIMER
 40
0.0015509259
  9
$USRTIMER
 70
     1
  9
$ANGBASE
 50
0.0
  9
$ANGDIR
 70
     0
  9
$PDMODE
 70
     0
  9
$PDSIZE
 40
0.0
  9
$PLINEWID
 40
0.0
  9
$SPLFRAME
 70
     0
  9
$SPLINETYPE
 70
     6
  9
$SPLINESEGS
 70
     8
  9
$HANDSEED
  5
100C4
  9
$SURFTAB1
 70
     6
  9
$SURFTAB2
 70
     6
  9
$SURFTYPE
 70
     6
  9
$SURFU
 70
     6
  9
$SURFV
 70
     6
  9
$UCSBASE
  2

  9
$UCSNAME
  2

  9
$UCSORG
 10
0.0
 20
0.0
 30
0.0
  9
$UCSXDIR
 10
1.0
 20
0.0
 30
0.0
  9
$UCSYDIR
 10
0.0
 20
1.0
 30
0.0
  9
$UCSORTHOREF
  2

  9
$UCSORTHOVIEW
 70
     0
  9
$UCSORGTOP
 10
0.0
 20
0.0
 30
0.0
  9
$UCSORGBOTTOM
 10
0.0
 20
0.0
 30
0.0
  9
$UCSORGLEFT
 10
0.0
 20
0.0
 30
0.0
  9
$UCSORGRIGHT
 10
0.0
 20
0.0
 30
0.0
  9
$UCSORGFRONT
 10
0.0
 20
0.0
 30
0.0
  9
$UCSORGBACK
 10
0.0
 20
0.0
 30
0.0
  9
$PUCSBASE
  2

  9
$PUCSNAME
  2

  9
$PUCSORG
 10
0.0
 20
0.0
 30
0.0
  9
$PUCSXDIR
 10
1.0
 20
0.0
 30
0.0
  9
$PUCSYDIR
 10
0.0
 20
1.0
 30
0.0
  9
$PUCSORTHOREF
  2

  9
$PUCSORTHOVIEW
 70
     0
  9
$PUCSORGTOP
 10
0.0
 20
0.0
 30
0.0
  9
$PUCSORGBOTTOM
 10
0.0
 20
0.0
 30
0.0
  9
$PUCSORGLEFT
 10
0.0
 20
0.0
 30
0.0
  9
$PUCSORGRIGHT
 10
0.0
 20
0.0
 30
0.0
  9
$PUCSORGFRONT
 10
0.0
 20
0.0
 30
0.0
  9
$PUCSORGBACK
 10
0.0
 20
0.0
 30
0.0
  9
$USERI1
 70
     0
  9
$USERI2
 70
     0
  9
$USERI3
 70
     0
  9
$USERI4
 70
     0
  9
$USERI5
 70
     0
  9
$USERR1
 40
0.0
  9
$USERR2
 40
0.0
  9
$USERR3
 40
0.0
  9
$USERR4
 40
0.0
  9
$USERR5
 40
0.0
  9
$WORLDVIEW
 70
     1
  9
$SHADEDGE
 70
     3
  9
$SHADEDIF
 70
    70
  9
$TILEMODE
 70
     1
  9
$MAXACTVP
 70
    64
  9
$PINSBASE
 10
0.0
 20
0.0
 30
0.0
  9
$PLIMCHECK
 70
     0
  9
$PEXTMIN
 10
1.000000000000000E+20
 20
1.000000000000000E+20
 30
1.000000000000000E+20
  9
$PEXTMAX
 10
-1.000000000000000E+20
 20
-1.000000000000000E+20
 30
-1.000000000000000E+20
  9
$PLIMMIN
 10
0.0
 20
0.0
  9
$PLIMMAX
 10
12.0
 20
9.0
  9
$UNITMODE
 70
     0
  9
$VISRETAIN
 70
     1
  9
$PLINEGEN
 70
     0
  9
$PSLTSCALE
 70
     1
  9
$TREEDEPTH
 70
  3020
  9
$CMLSTYLE
  2
Standard
  9
$CMLJUST
 70
     0
  9
$CMLSCALE
 40
1.0
  9
$PROXYGRAPHICS
 70
     1
  9
$MEASUREMENT
 70
     0
  9
$CELWEIGHT
370
    -1
  9
$ENDCAPS
280
     0
  9
$JOINSTYLE
280
     0
  9
$LWDISPLAY
290
     0
  9
$INSUNITS
 70
     4
  9
$HYPERLINKBASE
  1

  9
$STYLESHEET
  1

  9
$XEDIT
290
     1
  9
$CEPSNTYPE
380
     0
  9
$PSTYLEMODE
290
     1
  9
$FINGERPRINTGUID
  2
{D49C6695-5084-194E-A63D-710F9B8AD7AC}
  9
$VERSIONGUID
  2
{1064B948-84CA-BB41-8400-F118C54F2CD9}
  9
$EXTNAMES
290
     1
  9
$PSVPSCALE
 40
0.0
  9
$OLESTARTUP
290
     0
  9
$SORTENTS
280
   127
  9
$INDEXCTL
280
     0
  9
$HIDETEXT
280
     0
  9
$XCLIPFRAME
280
     2
  9
$HALOGAP
280
     0
  9
$OBSCOLOR
 70
   257
  9
$OBSLTYPE
280
     0
  9
$INTERSECTIONDISPLAY
280
     0
  9
$INTERSECTIONCOLOR
 70
   257
  9
$DIMASSOC
280
     1
  9
$PROJECTNAME
  1

  9
$CAMERADISPLAY
290
     0
  9
$LENSLENGTH
 40
50.0
  9
$CAMERAHEIGHT
 40
0.0
  9
$STEPSPERSEC
 40
2.0
  9
$STEPSIZE
 40
6.0
  9
$3DDWFPREC
 40
2.0
  9
$PSOLWIDTH
 40
0.25
  9
$PSOLHEIGHT
 40
4.0
  9
$LOFTANG1
 40
1.570796326794896
  9
$LOFTANG2
 40
1.570796326794896
  9
$LOFTMAG1
 40
0.0
  9
$LOFTMAG2
 40
0.0
  9
$LOFTPARAM
 70
     7
  9
$LOFTNORMALS
280
     1
  9
$LATITUDE
 40
37.795
  9
$LONGITUDE
 40
-122.394
  9
$NORTHDIRECTION
 40
0.0
  9
$TIMEZONE
 70
 -8000
  9
$LIGHTGLYPHDISPLAY
280
     1
  9
$TILEMODELIGHTSYNCH
280
     1
  9
$CMATERIAL
347
10005
  9
$SOLIDHIST
280
     0
  9
$SHOWHIST
280
     1
  9
$DWFFRAME
280
     2
  9
$DGNFRAME
280
     0
  9
$REALWORLDSCALE
290
     1
  9
$INTERFERECOLOR
 62
     1
  9
$INTERFEREOBJVS
345
10027
  9
$INTERFEREVPVS
346
10024
  9
$CSHADOW
280
     0
  9
$SHADOWPLANELOCATION
 40
0.0
  0
ENDSEC
  0
SECTION
  2
CLASSES
  0
CLASS
  1
ACDBDICTIONARYWDFLT
  2
AcDbDictionaryWithDefault
  3
ObjectDBX Classes
 90
        0
 91
        1
280
     0
281
     0
  0
CLASS
  1
MATERIAL
  2
AcDbMaterial
  3
ObjectDBX Classes
 90
     1153
 91
        3
280
     0
281
     0
  0
CLASS
  1
VISUALSTYLE
  2
AcDbVisualStyle
  3
ObjectDBX Classes
 90
     4095
 91
       24
280
     0
281
     0
  0
CLASS
  1
TABLESTYLE
  2
AcDbTableStyle
  3
ObjectDBX Classes
 90
     4095
 91
        1
280
     0
281
     0
  0
CLASS
  1
SCALE
  2
AcDbScale
  3
ObjectDBX Classes
 90
     1153
 91
       17
280
     0
281
     0
  0
CLASS
  1
MLEADERSTYLE
  2
AcDbMLeaderStyle
  3
ACDB_MLEADERSTYLE_CLASS
 90
     4095
 91
        1
280
     0
281
     0
  0
CLASS
  1
ACDBSECTIONVIEWSTYLE
  2
AcDbSectionViewStyle
  3
ObjectDBX Classes
 90
     1025
 91
        1
280
     0
281
     0
  0
CLASS
  1
ACDBDETAILVIEWSTYLE
  2
AcDbDetailViewStyle
  3
ObjectDBX Classes
 90
     1025
 91
        1
280
     0
281
     0
  0
CLASS
  1
SOLID_BACKGROUND
  2
AcDbSolidBackground
  3
SCENEOE
 90
     4095
 91
        1
280
     0
281
     0
  0
CLASS
  1
NPOCOLLECTION
  2
AcDbImpNonPersistentObjectsCollection
  3
ObjectDBX Classes
 90
     1153
 91
        1
280
     0
281
     0
  0
CLASS
  1
GROUND_PLANE_BACKGROUND
  2
AcDbGroundPlaneBackground
  3
SCENEOE
 90
     4095
 91
        1
280
     0
281
     0
  0
CLASS
  1
DICTIONARYVAR
  2
AcDbDictionaryVar
  3
ObjectDBX Classes
 90
        0
 91
       18
280
     0
281
     0
  0
CLASS
  1
CELLSTYLEMAP
  2
AcDbCellStyleMap
  3
ObjectDBX Classes
 90
     1152
 91
        4
280
     0
281
     0
  0
ENDSEC
  0
SECTION
  2
TABLES
  0
TABLE
  2
VPORT
  5
8
330
0
100
AcDbSymbolTable
 70
     1
1001
ACAD
1000
DbSaveVer
1071
      247
  0
VPORT
  5
10059
330
8
100
AcDbSymbolTableRecord
100
AcDbViewportTableRecord
  2
*Active
 70
     0
 10
0.0
 20
0.0
 11
1.0
 21
1.0
 12
-39.93297347610436
 22
-3.511268164654836
 13
0.0
 23
0.0
 14
1.0
 24
1.0
 15
0.0
 25
0.0
 16
-0.000000000000199
 26
0.0
 36
923.9462900389003
 17
-150.7622406482696
 27
-60.04666459560394
 37
0.000000275732674
 40
211.9900071383134
 41
2.025141930251419
 42
50.0
 43
0.0
 44
0.0
 50
0.0
 51
0.0
 71
     0
 72
  1000
 73
     1
 74
     3
 75
     0
 76
     0
 77
     0
 78
     0
281
     0
 65
     1
110
0.0
120
0.0
130
0.0
111
1.0
121
0.0
131
0.0
112
0.0
122
1.0
132
0.0
 79
     0
146
0.0
348
10023
 60
     3
 61
     5
292
     1
282
     1
141
0.0
142
0.0
 63
   250
421
  3355443
1001
ACAD_NAV_VCDISPLAY
1070
     3
  0
ENDTAB
  0
TABLE
  2
LTYPE
  5
5
330
0
100
AcDbSymbolTable
 70
     2
  0
LTYPE
  5
14
330
5
100
AcDbSymbolTableRecord
100
AcDbLinetypeTableRecord
  2
BYBLOCK
 70
     0
  3

 72
    65
 73
     0
 40
0.0
  0
LTYPE
  5
15
330
5
100
AcDbSymbolTableRecord
100
AcDbLinetypeTableRecord
  2
BYLAYER
 70
     0
  3

 72
    65
 73
     0
 40
0.0
  0
LTYPE
  5
10001
330
5
100
AcDbSymbolTableRecord
100
AcDbLinetypeTableRecord
  2
Continuous
 70
     0
  3
Solid line
 72
    65
 73
     0
 40
0.0
  0
ENDTAB
  0
TABLE
  2
LAYER
  5
2
102
{ACAD_XDICTIONARY
360
10096
102
}
330
0
100
AcDbSymbolTable
 70
     1
  0
LAYER
  5
50
102
{ACAD_XDICTIONARY
360
10091
102
}
330
2
100
AcDbSymbolTableRecord
100
AcDbLayerTableRecord
  2
0
 70
     0
 62
     7
  6
Continuous
370
    -3
390
10003
347
10015
348
0
  0
ENDTAB
  0
TABLE
  2
STYLE
  5
3
330
0
100
AcDbSymbolTable
 70
     1
  0
STYLE
  5
11
330
3
100
AcDbSymbolTableRecord
100
AcDbTextStyleTableRecord
  2
STANDARD
 70
     0
 40
0.0
 41
1.0
 50
0.0
 71
     0
 42
0.2
  3

  4

  0
ENDTAB
  0
TABLE
  2
VIEW
  5
6
330
0
100
AcDbSymbolTable
 70
     1
  0
ENDTAB
  0
TABLE
  2
UCS
  5
7
330
0
100
AcDbSymbolTable
 70
     0
  0
ENDTAB
  0
TABLE
  2
APPID
  5
9
330
0
100
AcDbSymbolTable
 70
     3
  0
APPID
  5
12
330
9
100
AcDbSymbolTableRecord
100
AcDbRegAppTableRecord
  2
ACAD
 70
     0
  0
APPID
  5
10058
330
9
100
AcDbSymbolTableRecord
100
AcDbRegAppTableRecord
  2
ACAD_NAV_VCDISPLAY
 70
     0
  0
APPID
  5
10072
330
9
100
AcDbSymbolTableRecord
100
AcDbRegAppTableRecord
  2
ACAD_EXEMPT_FROM_CAD_STANDARDS
 70
     0
  0
ENDTAB
  0
TABLE
  2
DIMSTYLE
  5
A
330
0
100
AcDbSymbolTable
 70
     2
100
AcDbDimStyleTable
 71
     0
  0
DIMSTYLE
105
10053
330
A
100
AcDbSymbolTableRecord
100
AcDbDimStyleTableRecord
  2
Standard
 70
     0
340
11
  0
ENDTAB
  0
TABLE
  2
BLOCK_RECORD
  5
1
330
0
100
AcDbSymbolTable
 70
     1
  0
BLOCK_RECORD
  5
1F
330
1
100
AcDbSymbolTableRecord
100
AcDbBlockTableRecord
  2
*MODEL_SPACE
340
10055
 70
     0
280
     1
281
     0
  0
BLOCK_RECORD
  5
1B
330
1
100
AcDbSymbolTableRecord
100
AcDbBlockTableRecord
  2
*PAPER_SPACE
340
10056
 70
     0
280
     1
281
     0
  0
ENDTAB
  0
ENDSEC
  0
SECTION
  2
BLOCKS
  0
BLOCK
  5
20
330
1F
100
AcDbEntity
  8
0
100
AcDbBlockBegin
  2
*MODEL_SPACE
 70
     0
 10
0.0
 20
0.0
 30
0.0
  3
*MODEL_SPACE
  1

  0
ENDBLK
  5
21
330
1F
100
AcDbEntity
  8
0
100
AcDbBlockEnd
  0
BLOCK
  5
1C
330
1B
100
AcDbEntity
 67
     1
  8
0
100
AcDbBlockBegin
  2
*PAPER_SPACE
 70
     0
 10
0.0
 20
0.0
 30
0.0
  3
*PAPER_SPACE
  1

  0
ENDBLK
  5
1D
330
1B
100
AcDbEntity
 67
     1
  8
0
100
AcDbBlockEnd
  0
ENDSEC
  0
SECTION
  2
ENTITIES
  0
LWPOLYLINE
  5
100
330
1F
100
AcDbEntity
  8
0
100
AcDbPolyline
 90
       72
 70
     1
 43
0.0
 10
-69.68163956804348
 20
-15.033667716938
 10
-13.68163956804347
 20
-15.03366771693791
 42
-0.4142135623730936
 10
-11.68163956804348
 20
-17.033667716938
 10
-11.68163956804345
 20
-18.52545055998999
 42
0.4142135623730937
 10
-9.681639568043468
 20
-20.52545055998999
 10
-6.68190159550095
 20
-20.52545055998999
 42
-0.4142135623730965
 10
-4.68190159550094
 20
-22.52545055998999
 10
-4.681901595500942
 20
-46.6576973111257
 42
0.4142135623731159
 10
-3.181901595500939
 20
-48.15769731112578
 10
-1.681902422515157
 20
-48.15769731112576
 42
-0.4142135623730811
 10
-0.181902422515158
 20
-49.65769731112573
 10
-0.1819024225149874
 20
-105.6576973111258
 42
-0.4142135623730951
 10
-1.681902422514982
 20
-107.1576973111258
 10
-3.18190159550094
 20
-107.1576973111258
 42
0.4142135623730951
 10
-4.68190159550094
 20
-108.6576973111258
 10
-4.681901595500942
 20
-132.7899440622614
 42
-0.4142135623730937
 10
-6.681901595500936
 20
-134.7899440622614
 10
-8.918901595500802
 20
-134.7899440622614
 42
0.4142135623730966
 10
-10.91890159550081
 20
-136.7899440622614
 10
-10.91890159550081
 20
-138.2817269053141
 42
-0.4142135623730955
 10
-12.9189015955008
 20
-140.2817269053141
 10
-68.91890159550086
 20
-140.2817269053142
 42
-0.4142135623730937
 10
-70.91890159550084
 20
-138.2817269053142
 10
-70.91890159550084
 20
-136.7899440622614
 42
0.4142135623730952
 10
-72.91890159550089
 20
-134.7899440622614
 10
-125.6819015955005
 20
-134.7899440622614
 42
0.4142135623730951
 10
-127.6819015955005
 20
-136.7899440622614
 10
-127.6819015955005
 20
-138.2817269053141
 42
-0.4142135623730925
 10
-129.6819015955005
 20
-140.2817269053141
 10
-185.6819015955005
 20
-140.2817269053143
 42
-0.4142135623730951
 10
-187.6819015955005
 20
-138.2817269053143
 10
-187.6819015955005
 20
-136.7899440622614
 42
0.4142135623730952
 10
-189.6819015955005
 20
-134.7899440622614
 10
-240.4449015955006
 20
-134.7899440622614
 42
0.4142135623730951
 10
-242.4449015955006
 20
-136.7899440622614
 10
-242.4449015955003
 20
-138.2817269053142
 42
-0.4142135623732407
 10
-244.4449015955006
 20
-140.2817269053142
 10
-300.4449015954997
 20
-140.2817269053143
 42
-0.4142135623730951
 10
-302.4449015954996
 20
-138.2817269053143
 10
-302.4449015955005
 20
-136.7899440622614
 42
0.4142135623729545
 10
-304.4449015954996
 20
-134.7899440622614
 10
-307.4446395680426
 20
-134.7899440622614
 42
-0.4142135623730951
 10
-309.4446395680426
 20
-132.7899440622614
 10
-309.4446395680426
 20
-108.8144900060273
 42
0.4142135623730951
 10
-310.9446395680426
 20
-107.3144900060273
 10
-312.4446387410285
 20
-107.3144900060273
 42
-0.4142135623730909
 10
-313.9446387410286
 20
-105.8144900060273
 10
-313.9446387410286
 20
-49.81449000602728
 42
-0.4142135623730951
 10
-312.4446387410285
 20
-48.31449000602728
 10
-310.9446395680426
 20
-48.31449000602717
 42
0.4142135623730951
 10
-309.4446395680426
 20
-46.8144900060272
 10
-309.4446395680426
 20
-22.52545055998997
 42
-0.4142135623730951
 10
-307.4446395680426
 20
-20.52545055998999
 10
-281.6816395680426
 20
-20.52545055998999
 42
0.4142135623730951
 10
-279.6816395680425
 20
-18.52545055998999
 10
-279.6816395680425
 20
-17.033667716938
 42
-0.4142135623730951
 10
-277.6816395680425
 20
-15.033667716938
 10
-221.6816395680426
 20
-15.03366771693791
 42
-0.4142135623731003
 10
-219.6816395680426
 20
-17.033667716938
 10
-219.6816395680425
 20
-18.52545055998999
 42
0.4142135623730951
 10
-217.6816395680425
 20
-20.52545055998999
 10
-189.6816395680435
 20
-20.52545055998999
 42
0.4142135623730951
 10
-187.6816395680435
 20
-18.52545055998999
 10
-187.6816395680435
 20
-17.033667716938
 42
-0.4142135623730951
 10
-185.6816395680435
 20
-15.033667716938
 10
-129.6816395680435
 20
-15.03366771693791
 42
-0.4142135623730976
 10
-127.6816395680435
 20
-17.033667716938
 10
-127.6816395680435
 20
-18.52545055998999
 42
0.4142135623730951
 10
-125.6816395680435
 20
-20.52545055998999
 10
-73.68163956804346
 20
-20.52545055999005
 42
0.4142135623730951
 10
-71.68163956804345
 20
-18.52545055998999
 10
-71.68163956804349
 20
-17.033667716938
 42
-0.4142135623730937
  0
LWPOLYLINE
  5
101
330
1F
100
AcDbEntity
  8
0
100
AcDbPolyline
 90
        8
 70
     1
 43
0.0
 10
-36.76894143909275
 20
-41.57589460904069
 10
-48.76894093989264
 20
-41.57589460904057
 42
0.4142135623730951
 10
-49.76894093989278
 20
-42.57589460904068
 10
-49.76894093989272
 20
-54.5748948007407
 42
0.4142135623730951
 10
-48.76894093989264
 20
-55.57489480074082
 10
-36.76894143909275
 20
-55.57489480074065
 42
0.4142135623730951
 10
-35.76894143909281
 20
-54.5748948007407
 10
-35.76894143909276
 20
-42.57589460904068
 42
0.4142135623730951
  0
LWPOLYLINE
  5
102
330
1F
100
AcDbEntity
  8
0
100
AcDbPolyline
 90
        8
 70
     1
 43
0.0
 10
-51.88731817134225
 20
-40.090703858891
 10
-57.53131770324226
 20
-40.09070385889095
 42
0.4142135623730951
 10
-58.53131770324228
 20
-41.090703858891
 10
-58.53131770324217
 20
-55.12000284989094
 42
0.4142135623730951
 10
-57.53131770324226
 20
-56.12000284989079
 10
-51.88731817134225
 20
-56.12000284989085
 42
0.4142135623730951
 10
-50.88731817134231
 20
-55.12000284989094
 10
-50.88731817134224
 20
-41.090703858891
 42
0.4142135623730951
  0
LWPOLYLINE
  5
103
330
1F
100
AcDbEntity
  8
0
100
AcDbPolyline
 90
        8
 70
     1
 43
0.0
 10
-28.01131817134224
 20
-40.090703858891
 10
-33.65531770324225
 20
-40.09070385889095
 42
0.4142135623730951
 10
-34.65531770324229
 20
-41.090703858891
 10
-34.65531770324216
 20
-55.12000284989094
 42
0.4142135623730951
 10
-33.65531770324225
 20
-56.12000284989079
 10
-28.01131817134224
 20
-56.12000284989085
 42
0.4142135623730951
 10
-27.01131817134231
 20
-55.12000284989094
 10
-27.01131817134225
 20
-41.090703858891
 42
0.4142135623730951
  0
LWPOLYLINE
  5
104
330
1F
100
AcDbEntity
  8
0
100
AcDbPolyline
 90
        8
 70
     1
 43
0.0
 10
-27.14196616969305
 20
-68.0320777699404
 10
-27.14196616969302
 20
-62.38807823804041
 42
0.4142135623730951
 10
-28.14196616969305
 20
-61.38807823804035
 10
-42.17126516069304
 20
-61.38807823804049
 42
0.4142135623730951
 10
-43.17126516069296
 20
-62.38807823804041
 10
-43.17126516069299
 20
-68.0320777699404
 42
0.4142135623730951
 10
-42.17126516069304
 20
-69.03207776994034
 10
-28.14196616969305
 20
-69.03207776994037
 42
0.4142135623730951
  0
LWPOLYLINE
  5
105
330
1F
100
AcDbEntity
  8
0
100
AcDbPolyline
 90
        8
 70
     1
 43
0.0
 10
-27.14196616969306
 20
-91.9080777699404
 10
-27.14196616969303
 20
-86.26407823804038
 42
0.4142135623730951
 10
-28.14196616969305
 20
-85.26407823804035
 10
-42.17126516069304
 20
-85.26407823804049
 42
0.4142135623730951
 10
-43.17126516069296
 20
-86.26407823804038
 10
-43.17126516069299
 20
-91.9080777699404
 42
0.4142135623730951
 10
-42.17126516069304
 20
-92.90807776994034
 10
-28.14196616969305
 20
-92.90807776994041
 42
0.4142135623730951
  0
LWPOLYLINE
  5
106
330
1F
100
AcDbEntity
  8
0
100
AcDbPolyline
 90
        8
 70
     1
 43
0.0
 10
-28.62715691984276
 20
-83.15045450218969
 10
-28.62715691984263
 20
-71.15045500138979
 42
0.4142135623730951
 10
-29.62715691984276
 20
-70.15045500138967
 10
-41.62615711154276
 20
-70.1504550013897
 42
0.4142135623730951
 10
-42.62615711154285
 20
-71.15045500138979
 10
-42.6261571115427
 20
-83.15045450218969
 42
0.4142135623730951
 10
-41.62615711154276
 20
-84.15045450218963
 10
-29.62715691984276
 20
-84.15045450218968
 42
0.4142135623730951
  0
LWPOLYLINE
  5
107
330
1F
100
AcDbEntity
  8
0
100
AcDbPolyline
 90
        4
 70
     1
 43
0.0
 10
-4.681901595500989
 20
-50.4076973111257
 10
-4.681901595500961
 20
-104.9076973111258
 42
1.0
 10
-3.18190159550096
 20
-104.9076973111258
 10
-3.18190159550101
 20
-50.4076973111257
 42
1.0
  0
LWPOLYLINE
  5
108
330
1F
100
AcDbEntity
  8
0
100
AcDbPolyline
 90
        8
 70
     1
 43
0.0
 10
-7.194392745242804
 20
-73.62545196218992
 10
-7.194392745242593
 20
-61.62545246139001
 42
0.4142135623730951
 10
-8.194392745242749
 20
-60.62545246138984
 10
-20.19339293694265
 20
-60.62545246139001
 42
0.4142135623730951
 10
-21.19339293694263
 20
-61.62545246139001
 10
-21.19339293694253
 20
-73.62545196218992
 42
0.4142135623730951
 10
-20.19339293694265
 20
-74.62545196218977
 10
-8.194392745242749
 20
-74.62545196218986
 42
0.4142135623730949
  0
LWPOLYLINE
  5
109
330
1F
100
AcDbEntity
  8
0
100
AcDbPolyline
 90
        8
 70
     1
 43
0.0
 10
-21.19339293694265
 20
-80.67545199838999
 10
-21.1933929369426
 20
-92.67535254608999
 42
0.4142135623730951
 10
-20.19339293694265
 20
-93.67535254608995
 10
-8.194392745242751
 20
-93.67535254608995
 42
0.414213562373095
 10
-7.194392745242789
 20
-92.67535254608999
 10
-7.194392745242629
 20
-80.67545199838999
 42
0.4142135623730951
 10
-8.194392745242751
 20
-79.67545199838986
 10
-20.19339293694265
 20
-79.67545199839
 42
0.4142135623730951
  0
LWPOLYLINE
  5
110
330
1F
100
AcDbEntity
  8
0
100
AcDbPolyline
 90
        8
 70
     1
 43
0.0
 10
-39.24339503504274
 20
-36.5254505599898
 10
-27.24439484334275
 20
-36.52545055998994
 42
0.4142135623730951
 10
-26.2443948433428
 20
-35.52545055998999
 10
-26.24439484334259
 20
-23.52545199049001
 42
0.4142135623730951
 10
-27.24439484334275
 20
-22.52545199048984
 10
-39.24339503504274
 20
-22.52545199048987
 42
0.4142135623730951
 10
-40.24339503504286
 20
-23.52545199049001
 10
-40.24339503504253
 20
-35.52545055998999
 42
0.4142135623730951
  0
LWPOLYLINE
  5
111
330
1F
100
AcDbEntity
  8
0
100
AcDbPolyline
 90
        8
 70
     1
 43
0.0
 10
-59.29339713304284
 20
-23.52545199049001
 10
-59.2933971330425
 20
-35.52545055998999
 42
0.4142135623730951
 10
-58.29339713304266
 20
-36.52545055998985
 10
-46.29439694134275
 20
-36.52545055998999
 42
0.4142135623730951
 10
-45.29439694134278
 20
-35.52545055998999
 10
-45.29439694134266
 20
-23.52545199049001
 42
0.4142135623730951
 10
-46.29439694134275
 20
-22.5254519904899
 10
-58.29339713304266
 20
-22.52545199048979
 42
0.4142135623730951
  0
LWPOLYLINE
  5
112
330
1F
100
AcDbEntity
  8
0
100
AcDbPolyline
 90
        4
 70
     1
 43
0.0
 10
-68.93163956804376
 20
-20.533667716938
 10
-14.43163956804365
 20
-20.533667716938
 42
1.0
 10
-14.43163956804365
 20
-19.033667716938
 10
-68.93163956804376
 20
-19.033667716938
 42
1.0
  0
LWPOLYLINE
  5
113
330
1F
100
AcDbEntity
  8
0
100
AcDbPolyline
 90
        8
 70
     1
 43
0.0
 10
-290.5634601379425
 20
-111.7256551621899
 10
-290.5634601379424
 20
-99.72565566138989
 42
0.4142135623730951
 10
-291.5634601379425
 20
-98.72565566138977
 10
-303.5624603296426
 20
-98.72565566138986
 42
0.4142135623730951
 10
-304.5624603296426
 20
-99.72565566139
 10
-304.5624603296425
 20
-111.7256551621899
 42
0.4142135623730951
 10
-303.5624603296426
 20
-112.7256551621898
 10
-291.5634601379425
 20
-112.7256551621899
 42
0.4142135623730951
  0
LWPOLYLINE
  5
114
330
1F
100
AcDbEntity
  8
0
100
AcDbPolyline
 90
        8
 70
     1
 43
0.0
 10
-269.1321694979425
 20
-111.7256551621899
 10
-269.1321694979424
 20
-99.72565566138989
 42
0.4142135623730951
 10
-270.1321694979425
 20
-98.72565566138977
 10
-282.1311696896426
 20
-98.72565566138977
 42
0.4142135623730951
 10
-283.1311696896427
 20
-99.72565566138989
 10
-283.1311696896425
 20
-111.7256551621899
 42
0.4142135623730951
 10
-282.1311696896426
 20
-112.7256551621898
 10
-270.1321694979425
 20
-112.7256551621898
 42
0.4142135623730951
  0
LWPOLYLINE
  5
115
330
1F
100
AcDbEntity
  8
0
100
AcDbPolyline
 90
        8
 70
     1
 43
0.0
 10
-50.27673979794276
 20
-92.89481906218989
 10
-50.27673979794264
 20
-80.89481956138987
 42
0.4142135623730951
 10
-51.27673979794276
 20
-79.89481956138977
 10
-63.27573998964275
 20
-79.89481956138977
 42
0.4142135623730951
 10
-64.27573998964288
 20
-80.89481956138987
 10
-64.27573998964269
 20
-92.89481906218989
 42
0.4142135623730951
 10
-63.27573998964275
 20
-93.8948190621898
 10
-51.27673979794276
 20
-93.89481906218989
 42
0.4142135623730951
  0
LWPOLYLINE
  5
116
330
1F
100
AcDbEntity
  8
0
100
AcDbPolyline
 90
        8
 70
     1
 43
0.0
 10
-20.19339293694265
 20
-112.7253509188899
 10
-8.194392745242751
 20
-112.7253509188899
 42
0.4142135623730949
 10
-7.19439274524279
 20
-111.72535091889
 10
-7.194392745242629
 20
-99.72575281818999
 42
0.4142135623730951
 10
-8.194392745242751
 20
-98.72575281818988
 10
-20.19339293694265
 20
-98.72575281819004
 42
0.4142135623730951
 10
-21.1933929369426
 20
-99.72575281818999
 10
-21.19339293694256
 20
-111.72535091889
 42
0.4142135623730951
  0
LWPOLYLINE
  5
117
330
1F
100
AcDbEntity
  8
0
100
AcDbPolyline
 90
        8
 70
     1
 43
0.0
 10
-7.194392745242803
 20
-35.52545055998999
 10
-7.194392745242591
 20
-23.52545199049001
 42
0.4142135623730951
 10
-8.194392745242748
 20
-22.52545199048984
 10
-20.19339293694265
 20
-22.52545199048995
 42
0.4142135623730951
 10
-21.1933929369427
 20
-23.52545199049001
 10
-21.19339293694249
 20
-35.52545055998999
 42
0.4142135623730951
 10
-20.19339293694265
 20
-36.52545055998985
 10
-8.194392745242748
 20
-36.52545055998994
 42
0.4142135623730949
  0
LWPOLYLINE
  5
118
330
1F
100
AcDbEntity
  8
0
100
AcDbPolyline
 90
        8
 70
     1
 43
0.0
 10
-8.194392745242748
 20
-41.5754503632898
 10
-20.19339293694265
 20
-41.57545036328997
 42
0.4142135623730951
 10
-21.19339293694266
 20
-42.57545036328997
 10
-21.19339293694253
 20
-54.57545265808988
 42
0.4142135623730951
 10
-20.19339293694265
 20
-55.57545265808977
 10
-8.194392745242748
 20
-55.57545265808983
 42
0.4142135623730949
 10
-7.194392745242806
 20
-54.57545265808988
 10
-7.194392745242557
 20
-42.57545036328997
 42
0.414213562373095
  0
LWPOLYLINE
  5
119
330
1F
100
AcDbEntity
  8
0
100
AcDbPolyline
 90
        8
 70
     1
 43
0.0
 10
-20.19339293694265
 20
-131.7753530169899
 10
-8.194392745242751
 20
-131.7753530169899
 42
0.4142135623730949
 10
-7.194392745242791
 20
-130.7753530169899
 10
-7.194392745242661
 20
-118.77575305359
 42
0.4142135623730958
 10
-8.194392745242751
 20
-117.7757530535899
 10
-20.19339293694265
 20
-117.77575305359
 42
0.4142135623730951
 10
-21.1933929369426
 20
-118.77575305359
 10
-21.19339293694264
 20
-130.7753530169899
 42
0.4142135623730951
  0
LWPOLYLINE
  5
120
330
1F
100
AcDbEntity
  8
0
100
AcDbPolyline
 90
        8
 70
     1
 43
0.0
 10
-116.4434034270425
 20
-118.77575305359
 10
-116.4434034270425
 20
-130.7757525543899
 42
0.4142135623730951
 10
-115.4434034270425
 20
-131.7757525543898
 10
-103.4444032353427
 20
-131.7757525543899
 42
0.4142135623730951
 10
-102.4444032353427
 20
-130.7757525543899
 10
-102.4444032353426
 20
-118.77575305359
 42
0.4142135623730951
 10
-103.4444032353427
 20
-117.7757530535898
 10
-115.4434034270425
 20
-117.77575305359
 42
0.4142135623730951
  0
LWPOLYLINE
  5
121
330
1F
100
AcDbEntity
  8
0
100
AcDbPolyline
 90
        8
 70
     1
 43
0.0
 10
-78.34339923104296
 20
-118.77575305359
 10
-78.3433992310428
 20
-130.7757525543899
 42
0.4142135623731231
 10
-77.34339923104275
 20
-131.7757525543898
 10
-65.34439903934276
 20
-131.7757525543899
 42
0.4142135623730951
 10
-64.34439903934276
 20
-130.7757525543899
 10
-64.34439903934263
 20
-118.77575305359
 42
0.4142135623730944
 10
-65.34439903934276
 20
-117.7757530535898
 10
-77.34339923104275
 20
-117.7757530535899
 42
0.4142135623731237
  0
LWPOLYLINE
  5
122
330
1F
100
AcDbEntity
  8
0
100
AcDbPolyline
 90
        8
 70
     1
 43
0.0
 10
-97.39340132904299
 20
-118.77575305359
 10
-97.39340132904272
 20
-130.7757525543899
 42
0.4142135623730948
 10
-96.39340132904276
 20
-131.7757525543898
 10
-84.39440113734276
 20
-131.7757525543899
 42
0.4142135623730951
 10
-83.39440113734275
 20
-130.7757525543899
 10
-83.39440113734262
 20
-118.77575305359
 42
0.4142135623730944
 10
-84.39440113734276
 20
-117.7757530535898
 10
-96.39340132904276
 20
-117.7757530535898
 42
0.4142135623730951
  0
LWPOLYLINE
  5
123
330
1F
100
AcDbEntity
  8
0
100
AcDbPolyline
 90
        8
 70
     1
 43
0.0
 10
-120.2063956901425
 20
-93.6753525460899
 10
-108.2063933953425
 20
-93.67535254609002
 42
0.4142135623730951
 10
-107.2063933953425
 20
-92.67535254608999
 10
-107.2063933953425
 20
-80.67575188418999
 42
0.4142135623730951
 10
-108.2063933953425
 20
-79.67575188418994
 10
-120.2063956901425
 20
-79.67575188418996
 42
0.4142135623730951
 10
-121.2063956901426
 20
-80.67575188418999
 10
-121.2063956901424
 20
-92.67535254608999
 42
0.4142135623730951
  0
LWPOLYLINE
  5
124
330
1F
100
AcDbEntity
  8
0
100
AcDbPolyline
 90
        8
 70
     1
 43
0.0
 10
-124.9702950612425
 20
-74.6254519621898
 10
-112.9702946290426
 20
-74.62545196218989
 42
0.4142135623730951
 10
-111.9702946290426
 20
-73.62545196218992
 10
-111.9702946290424
 20
-61.62585106748998
 42
0.4142135623730951
 10
-112.9702946290426
 20
-60.62585106748986
 10
-124.9702950612425
 20
-60.62585106749001
 42
0.4142135623730951
 10
-125.9702950612425
 20
-61.62585106748998
 10
-125.9702950612425
 20
-73.62545196218988
 42
0.4142135623730951
  0
LWPOLYLINE
  5
125
330
1F
100
AcDbEntity
  8
0
100
AcDbPolyline
 90
        8
 70
     1
 43
0.0
 10
-115.4433922514425
 20
-55.57545265808983
 42
-0.4142135623730951
 10
-116.4433922514425
 20
-54.57545265808988
 10
-116.4433922514426
 20
-42.57545036328997
 42
-0.4142135623730951
 10
-115.4433922514425
 20
-41.57545036328989
 10
-103.4443920597427
 20
-41.57545036328989
 42
-0.4142135623730951
 10
-102.4443920597426
 20
-42.57545036328997
 10
-102.4443920597427
 20
-54.57545265808988
 42
-0.4142135623730951
 10
-103.4443920597427
 20
-55.57545265808989
  0
LWPOLYLINE
  5
126
330
1F
100
AcDbEntity
  8
0
100
AcDbPolyline
 90
        8
 70
     1
 43
0.0
 10
-115.4433922514425
 20
-36.52545055998985
 42
-0.4142135623730951
 10
-116.4433922514424
 20
-35.52545055998999
 10
-116.4433922514426
 20
-23.52545199049001
 42
-0.4142135623730951
 10
-115.4433922514425
 20
-22.52545199049001
 10
-103.4443920597427
 20
-22.5254519904899
 42
-0.4142135623730951
 10
-102.4443920597426
 20
-23.52545199049001
 10
-102.4443920597427
 20
-35.52545055998999
 42
-0.4142135623730951
 10
-103.4443920597427
 20
-36.52545055998991
  0
LWPOLYLINE
  5
127
330
1F
100
AcDbEntity
  8
0
100
AcDbPolyline
 90
        8
 70
     1
 43
0.0
 10
-65.34439158894276
 20
-22.5254519904899
 42
-0.4142135623730951
 10
-64.34439158894267
 20
-23.52545199049001
 10
-64.34439158894278
 20
-35.52545055998999
 42
-0.4142135623730951
 10
-65.34439158894276
 20
-36.52545055998991
 10
-77.34339178054264
 20
-36.52545055998985
 42
-0.4142135623730951
 10
-78.34339178054257
 20
-35.52545055998999
 10
-78.34339178054278
 20
-23.52545199049001
 42
-0.4142135623730951
 10
-77.34339178054264
 20
-22.52545199049001
  0
LWPOLYLINE
  5
128
330
1F
100
AcDbEntity
  8
0
100
AcDbPolyline
 90
        8
 70
     1
 43
0.0
 10
-65.34439158894276
 20
-41.57545036328989
 42
-0.4142135623730951
 10
-64.34439158894267
 20
-42.57545036328997
 10
-64.34439158894278
 20
-54.57545265808988
 42
-0.4142135623730951
 10
-65.34439158894276
 20
-55.57545265808989
 10
-77.34339178054264
 20
-55.57545265808983
 42
-0.4142135623730951
 10
-78.34339178054264
 20
-54.57545265808988
 10
-78.34339178054278
 20
-42.57545036328997
 42
-0.4142135623730951
 10
-77.34339178054264
 20
-41.57545036328989
  0
LWPOLYLINE
  5
129
330
1F
100
AcDbEntity
  8
0
100
AcDbPolyline
 90
        8
 70
     1
 43
0.0
 10
-102.1563935920428
 20
-80.67545199838999
 10
-102.1563935920427
 20
-92.67535254608999
 42
0.4142135623730951
 10
-101.1563935920427
 20
-93.67535254608998
 10
-89.15539664484276
 20
-93.67535254609002
 42
0.4142135623730951
 10
-88.15539664484273
 20
-92.67535254608999
 10
-88.15539664484269
 20
-80.67545199838999
 42
0.4142135623730951
 10
-89.15539664484276
 20
-79.67545199838994
 10
-101.1563935920427
 20
-79.67545199838998
 42
0.4142135623730951
  0
LWPOLYLINE
  5
130
330
1F
100
AcDbEntity
  8
0
100
AcDbPolyline
 90
        8
 70
     1
 43
0.0
 10
-97.68139234634276
 20
-111.72535091889
 10
-97.68139234634272
 20
-99.72575281818999
 42
0.4142135623730951
 10
-98.68139234634275
 20
-98.72575281818996
 10
-110.6813946411425
 20
-98.72575281818996
 42
0.4142135623730951
 10
-111.6813946411426
 20
-99.72575281818999
 10
-111.6813946411425
 20
-111.72535091889
 42
0.4142135623730951
 10
-110.6813946411425
 20
-112.7253509188899
 10
-98.68139234634275
 20
-112.72535091889
 42
0.4142135623730951
  0
LWPOLYLINE
  5
131
330
1F
100
AcDbEntity
  8
0
100
AcDbPolyline
 90
        8
 70
     1
 43
0.0
 10
-87.86839282964285
 20
-61.62545246139001
 10
-87.86839282964271
 20
-73.62545196218992
 42
0.4142135623730951
 10
-86.86839282964275
 20
-74.62545196218986
 10
-74.86939263794276
 20
-74.62545196218989
 42
0.4142135623730951
 10
-73.86939263794278
 20
-73.62545196218992
 10
-73.86939263794264
 20
-61.62545246139001
 42
0.4142135623730951
 10
-74.86939263794276
 20
-60.62545246138987
 10
-86.86839282964275
 20
-60.6254524613899
 42
0.4142135623730951
  0
LWPOLYLINE
  5
132
330
1F
100
AcDbEntity
  8
0
100
AcDbPolyline
 90
        8
 70
     1
 43
0.0
 10
-84.39439368694275
 20
-41.57545036328989
 10
-96.39339387864277
 20
-41.57545036328985
 42
0.4142135623730951
 10
-97.39339387864287
 20
-42.57545036328997
 10
-97.39339387864271
 20
-54.57545265808988
 42
0.4142135623730951
 10
-96.39339387864277
 20
-55.57545265808983
 10
-84.39439368694275
 20
-55.57545265808989
 42
0.4142135623730951
 10
-83.39439368694277
 20
-54.57545265808988
 10
-83.39439368694266
 20
-42.57545036328997
 42
0.4142135623730951
  0
LWPOLYLINE
  5
133
330
1F
100
AcDbEntity
  8
0
100
AcDbPolyline
 90
        8
 70
     1
 43
0.0
 10
-84.39439368694275
 20
-22.52545199049001
 10
-96.39339387864277
 20
-22.52545199048987
 42
0.4142135623730951
 10
-97.39339387864287
 20
-23.52545199049001
 10
-97.3933938786426
 20
-35.52545055998999
 42
0.4142135623730951
 10
-96.39339387864277
 20
-36.52545055998985
 10
-84.39439368694275
 20
-36.52545055998999
 42
0.4142135623730951
 10
-83.39439368694277
 20
-35.52545055998999
 10
-83.39439368694275
 20
-23.52545199049001
 42
0.4142135623730951
  0
LWPOLYLINE
  5
134
330
1F
100
AcDbEntity
  8
0
100
AcDbPolyline
 90
        8
 70
     1
 43
0.0
 10
-93.91929787844274
 20
-60.62545246138978
 10
-105.9202948257427
 20
-60.62545246138995
 42
0.4142135623730951
 10
-106.9202948257428
 20
-61.62545246139001
 10
-106.9202948257427
 20
-73.62545196218992
 42
0.4142135623730951
 10
-105.9202948257427
 20
-74.6254519621898
 10
-93.91929787844274
 20
-74.62545196218989
 42
0.4142135623730951
 10
-92.91929787844278
 20
-73.62545196218992
 10
-92.91929787844258
 20
-61.62545246139001
 42
0.4142135623730951
  0
LWPOLYLINE
  5
135
330
1F
100
AcDbEntity
  8
0
100
AcDbPolyline
 90
        8
 70
     1
 43
0.0
 10
-92.63139254304274
 20
-99.72575281818999
 10
-92.63139254304268
 20
-111.72535091889
 42
0.4142135623730951
 10
-91.63139254304274
 20
-112.7253509188899
 10
-79.63039559574276
 20
-112.72535091889
 42
0.4142135623730951
 10
-78.63039559574274
 20
-111.72535091889
 10
-78.63039559574274
 20
-99.72575281818999
 42
0.4142135623730951
 10
-79.63039559574276
 20
-98.72575281818997
 10
-91.63139254304274
 20
-98.72575281818999
 42
0.4142135623730951
  0
LWPOLYLINE
  5
136
330
1F
100
AcDbEntity
  8
0
100
AcDbPolyline
 90
        8
 70
     1
 43
0.0
 10
-69.10539454674266
 20
-92.67535254608999
 10
-69.10539454674264
 20
-80.67545199838999
 42
0.4142135623730951
 10
-70.10539454674265
 20
-79.67545199838998
 10
-82.10639149404276
 20
-79.67545199838998
 42
0.4142135623730951
 10
-83.10639149404279
 20
-80.67545199838999
 10
-83.1063914940427
 20
-92.67535254608999
 42
0.4142135623730951
 10
-82.10639149404276
 20
-93.67535254608995
 10
-70.10539454674265
 20
-93.67535254609
 42
0.4142135623730951
  0
LWPOLYLINE
  5
137
330
1F
100
AcDbEntity
  8
0
100
AcDbPolyline
 90
        9
 70
     1
 43
0.0
 10
-45.29439347969119
 20
-125.2583674217692
 10
-45.2943969413427
 20
-118.77575305359
 42
0.4142135623730951
 10
-46.29439694134275
 20
-117.7757530535899
 10
-58.29339713304266
 20
-117.7757530535899
 42
0.4142135623730951
 10
-59.29339713304269
 20
-118.77575305359
 10
-59.29339713304258
 20
-130.7753530169899
 42
0.4142135623730954
 10
-58.29339713304266
 20
-131.7753530169899
 10
-46.29439694134275
 20
-131.7753530169898
 42
0.4142135623730951
 10
-45.29439694134284
 20
-130.7753530169899
  0
LWPOLYLINE
  5
138
330
1F
100
AcDbEntity
  8
0
100
AcDbPolyline
 90
        4
 70
     1
 43
0.0
 10
-245.1949015954996
 20
-134.7817269053144
 42
-1.0
 10
-245.1949015954996
 20
-136.2817269053144
 10
-299.6949015954996
 20
-136.2817269053144
 42
-1.0
 10
-299.6949015954996
 20
-134.7817269053144
  0
LWPOLYLINE
  5
139
330
1F
100
AcDbEntity
  8
0
100
AcDbPolyline
 90
        4
 70
     1
 43
0.0
 10
-130.4319015955005
 20
-134.7817269053143
 42
-1.0
 10
-130.4319015955005
 20
-136.2817269053143
 10
-184.9319015955005
 20
-136.2817269053143
 42
-1.0
 10
-184.9319015955005
 20
-134.7817269053143
  0
LWPOLYLINE
  5
140
330
1F
100
AcDbEntity
  8
0
100
AcDbPolyline
 90
        4
 70
     1
 43
0.0
 10
-309.4446395680426
 20
-105.0644900060272
 42
-1.0
 10
-310.9446395680426
 20
-105.0644900060272
 10
-310.9446395680426
 20
-50.5644900060272
 42
-1.0
 10
-309.4446395680426
 20
-50.5644900060272
  0
LWPOLYLINE
  5
141
330
1F
100
AcDbEntity
  8
0
100
AcDbPolyline
 90
        4
 70
     1
 43
0.0
 10
-222.4316395680436
 20
-19.033667716938
 42
-1.0
 10
-222.4316395680436
 20
-20.533667716938
 10
-276.9316395680436
 20
-20.53366771693794
 42
-1.0
 10
-276.9316395680436
 20
-19.033667716938
  0
LWPOLYLINE
  5
142
330
1F
100
AcDbEntity
  8
0
100
AcDbPolyline
 90
        4
 70
     1
 43
0.0
 10
-130.4316395680435
 20
-19.033667716938
 42
-1.0
 10
-130.4316395680435
 20
-20.533667716938
 10
-184.9316395680436
 20
-20.533667716938
 42
-1.0
 10
-184.9316395680436
 20
-19.033667716938
  0
LWPOLYLINE
  5
143
330
1F
100
AcDbEntity
  8
0
100
AcDbPolyline
 90
        8
 70
     1
 43
0.0
 10
-264.0810910508425
 20
-99.72575281818999
 10
-264.0810910508425
 20
-111.72535091889
 42
0.4142135623730951
 10
-263.0810910508425
 20
-112.72535091889
 10
-251.0803921267426
 20
-112.72535091889
 42
0.4142135623730951
 10
-250.0803921267425
 20
-111.72535091889
 10
-250.0803921267426
 20
-99.72575281818999
 42
0.4142135623730951
 10
-251.0803921267426
 20
-98.72575281818999
 10
-263.0810910508425
 20
-98.72575281818997
 42
0.4142135623730951
  0
LWPOLYLINE
  5
144
330
1F
100
AcDbEntity
  8
0
100
AcDbPolyline
 90
        8
 70
     1
 43
0.0
 10
-186.8813937202425
 20
-112.72535091889
 10
-174.8803930476425
 20
-112.7253509188899
 42
0.4142135623730951
 10
-173.8803930476426
 20
-111.72535091889
 10
-173.8803930476426
 20
-99.72575281818999
 42
0.4142135623730951
 10
-174.8803930476425
 20
-98.72575281819001
 10
-186.8813937202425
 20
-98.72575281819001
 42
0.4142135623730951
 10
-187.8813937202425
 20
-99.72575281818999
 10
-187.8813937202426
 20
-111.72535091889
 42
0.4142135623730951
  0
LWPOLYLINE
  5
145
330
1F
100
AcDbEntity
  8
0
100
AcDbPolyline
 90
        8
 70
     1
 43
0.0
 10
-127.2553933903425
 20
-79.67545199838986
 10
-139.2563940629425
 20
-79.67545199839006
 42
0.4142135623730951
 10
-140.2563940629425
 20
-80.67545199838997
 10
-140.2563940629425
 20
-92.67535254608999
 42
0.4142135623730951
 10
-139.2563940629425
 20
-93.67535254608998
 10
-127.2553933903425
 20
-93.67535254609
 42
0.4142135623730951
 10
-126.2553933903425
 20
-92.67535254608999
 10
-126.2553933903425
 20
-80.67545199838997
 42
0.4142135623730951
  0
LWPOLYLINE
  5
146
330
1F
100
AcDbEntity
  8
0
100
AcDbPolyline
 90
        8
 70
     1
 43
0.0
 10
-135.7803944394425
 20
-111.72535091889
 10
-135.7803944394425
 20
-99.72575281818999
 42
0.4142135623730951
 10
-136.7803944394425
 20
-98.72575281818996
 10
-148.7813937150425
 20
-98.7257528181901
 42
0.4142135623730951
 10
-149.7813937150424
 20
-99.72575281818999
 10
-149.7813937150426
 20
-111.72535091889
 42
0.4142135623730951
 10
-148.7813937150425
 20
-112.72535091889
 10
-136.7803944394425
 20
-112.72535091889
 42
0.4142135623730951
  0
LWPOLYLINE
  5
147
330
1F
100
AcDbEntity
  8
0
100
AcDbPolyline
 90
        8
 70
     1
 43
0.0
 10
-202.4553943321426
 20
-92.67535254608999
 10
-202.4553943321426
 20
-80.67545199838997
 42
0.4142135623730951
 10
-203.4553943321426
 20
-79.67545199839
 10
-215.4563950047426
 20
-79.67545199839
 42
0.4142135623730951
 10
-216.4563950047425
 20
-80.67545199838997
 10
-216.4563950047425
 20
-92.67535254608999
 42
0.4142135623730951
 10
-215.4563950047426
 20
-93.67535254609
 10
-203.4553943321426
 20
-93.67535254608998
 42
0.4142135623730951
  0
LWPOLYLINE
  5
148
330
1F
100
AcDbEntity
  8
0
100
AcDbPolyline
 90
        8
 70
     1
 43
0.0
 10
-165.3553938612425
 20
-79.67545199838998
 10
-177.3563945338425
 20
-79.67545199839
 42
0.4142135623730951
 10
-178.3563945338425
 20
-80.67545199838997
 10
-178.3563945338426
 20
-92.67535254608999
 42
0.4142135623730951
 10
-177.3563945338425
 20
-93.67535254609
 10
-165.3553938612425
 20
-93.67535254609
 42
0.4142135623730951
 10
-164.3553938612425
 20
-92.67535254608999
 10
-164.3553938612425
 20
-80.67545199838997
 42
0.4142135623730951
  0
LWPOLYLINE
  5
149
330
1F
100
AcDbEntity
  8
0
100
AcDbPolyline
 90
        8
 70
     1
 43
0.0
 10
-225.9813923284426
 20
-99.72575281818999
 10
-225.9813923284426
 20
-111.72535091889
 42
0.4142135623730951
 10
-224.9813923284426
 20
-112.72535091889
 10
-212.9803953811425
 20
-112.7253509188899
 42
0.4142135623730951
 10
-211.9803953811426
 20
-111.72535091889
 10
-211.9803953811426
 20
-99.72575281818999
 42
0.4142135623730951
 10
-212.9803953811425
 20
-98.72575281818999
 10
-224.9813923284426
 20
-98.72575281818997
 42
0.4142135623730951
  0
LWPOLYLINE
  5
150
330
1F
100
AcDbEntity
  8
0
100
AcDbPolyline
 90
        8
 70
     1
 43
0.0
 10
-240.5553985283425
 20
-92.67535254608999
 10
-240.5553985283425
 20
-80.67545199838997
 42
0.4142135623730951
 10
-241.5553985283426
 20
-79.67545199839
 10
-253.5563954756426
 20
-79.67545199839
 42
0.4142135623730951
 10
-254.5563954756425
 20
-80.67545199838997
 10
-254.5563954756425
 20
-92.67535254608999
 42
0.4142135623730951
 10
-253.5563954756426
 20
-93.67535254609
 10
-241.5553985283426
 20
-93.67535254609
 42
0.4142135623730951
  0
LWPOLYLINE
  5
151
330
1F
100
AcDbEntity
  8
0
100
AcDbPolyline
 90
        8
 70
     1
 43
0.0
 10
-277.3699933335425
 20
-74.62545196218989
 10
-265.3692944094426
 20
-74.62545196218986
 42
0.4142135623730951
 10
-264.3692944094426
 20
-73.62545196218988
 10
-264.3692944094425
 20
-61.62545246138996
 42
0.4142135623730951
 10
-265.3692944094426
 20
-60.62545246138992
 10
-277.3699933335425
 20
-60.62545246138995
 42
0.4142135623730951
 10
-278.3699933335426
 20
-61.62545246138996
 10
-278.3699933335425
 20
-73.62545196218988
 42
0.4142135623730951
  0
LWPOLYLINE
  5
152
330
1F
100
AcDbEntity
  8
0
100
AcDbPolyline
 90
        8
 70
     1
 43
0.0
 10
-255.8442933604426
 20
-41.57545036328989
 10
-267.8452977583425
 20
-41.57545036328992
 42
0.4142135623730951
 10
-268.8452977583427
 20
-42.57545036328997
 10
-268.8452977583425
 20
-54.57545265808988
 42
0.4142135623730951
 10
-267.8452977583425
 20
-55.57545265808983
 10
-255.8442933604426
 20
-55.57545265808989
 42
0.4142135623730951
 10
-254.8442933604425
 20
-54.57545265808988
 10
-254.8442933604424
 20
-42.57545036328997
 42
0.4142135623730951
  0
LWPOLYLINE
  5
153
330
1F
100
AcDbEntity
  8
0
100
AcDbPolyline
 90
        8
 70
     1
 43
0.0
 10
-286.7990939066426
 20
-79.67545199838998
 10
-298.7997928306425
 20
-79.67545199839
 42
0.4142135623730951
 10
-299.7997928306426
 20
-80.67545199838997
 10
-299.7997928306426
 20
-92.67535254608999
 42
0.4142135623730951
 10
-298.7997928306425
 20
-93.67535254609
 10
-286.7990939066426
 20
-93.67535254609
 42
0.4142135623730951
 10
-285.7990939066425
 20
-92.67535254608999
 10
-285.7990939066427
 20
-80.67545199838997
 42
0.4142135623730951
  0
LWPOLYLINE
  5
154
330
1F
100
AcDbEntity
  8
0
100
AcDbPolyline
 90
        8
 70
     1
 43
0.0
 10
-154.5452951815425
 20
-42.57585269468998
 10
-154.5452951815424
 20
-54.57545265808988
 42
0.4142135623730951
 10
-153.5452951815425
 20
-55.5754526580898
 10
-141.5452959135425
 20
-55.57545265808989
 42
0.4142135623730951
 10
-140.5452959135426
 20
-54.57545265808988
 10
-140.5452959135424
 20
-42.57585269468998
 42
0.4142135623730951
 10
-141.5452959135425
 20
-41.5758526946899
 10
-153.5452951815425
 20
-41.57585269468998
 42
0.4142135623730951
  0
LWPOLYLINE
  5
155
330
1F
100
AcDbEntity
  8
0
100
AcDbPolyline
 90
        8
 70
     1
 43
0.0
 10
-226.2692976639426
 20
-73.62545196218988
 10
-226.2692976639426
 20
-61.62545246138996
 42
0.4142135623730951
 10
-227.2692976639426
 20
-60.62545246138992
 10
-239.2702946111425
 20
-60.62545246138992
 42
0.4142135623730951
 10
-240.2702946111427
 20
-61.62545246138996
 10
-240.2702946111425
 20
-73.62545196218988
 42
0.4142135623730951
 10
-239.2702946111425
 20
-74.62545196218986
 10
-227.2692976639426
 20
-74.62545196218991
 42
0.4142135623730951
  0
LWPOLYLINE
  5
156
330
1F
100
AcDbEntity
  8
0
100
AcDbPolyline
 90
        8
 70
     1
 43
0.0
 10
-191.6452968165425
 20
-55.57545265808989
 10
-179.6442942813426
 20
-55.57545265808989
 42
0.4142135623730951
 10
-178.6442942813426
 20
-54.57545265808988
 10
-178.6442942813425
 20
-42.57545036328997
 42
0.4142135623730951
 10
-179.6442942813426
 20
-41.57545036328994
 10
-191.6452968165425
 20
-41.57545036328994
 42
0.4142135623730951
 10
-192.6452968165427
 20
-42.57545036328997
 10
-192.6452968165425
 20
-54.57545265808988
 42
0.4142135623730951
  0
LWPOLYLINE
  5
157
330
1F
100
AcDbEntity
  8
0
100
AcDbPolyline
 90
        8
 70
     1
 43
0.0
 10
-201.1702941403425
 20
-74.62545196218989
 10
-189.1692953303425
 20
-74.62545196218986
 42
0.4142135623730951
 10
-188.1692953303426
 20
-73.62545196218988
 10
-188.1692953303425
 20
-61.62545246138996
 42
0.4142135623730951
 10
-189.1692953303425
 20
-60.62545246138995
 10
-201.1702941403425
 20
-60.62545246138992
 42
0.4142135623730951
 10
-202.1702941403426
 20
-61.62545246138996
 10
-202.1702941403425
 20
-73.62545196218988
 42
0.4142135623730951
  0
LWPOLYLINE
  5
158
330
1F
100
AcDbEntity
  8
0
100
AcDbPolyline
 90
        8
 70
     1
 43
0.0
 10
-230.7452935621426
 20
-42.57545036328997
 10
-230.7452935621426
 20
-54.57545265808988
 42
0.4142135623730951
 10
-229.7452935621426
 20
-55.57545265808983
 10
-217.7442966148426
 20
-55.57545265808989
 42
0.4142135623730951
 10
-216.7442966148426
 20
-54.57545265808988
 10
-216.7442966148426
 20
-42.57545036328997
 42
0.4142135623730951
 10
-217.7442966148426
 20
-41.57545036328994
 10
-229.7452935621426
 20
-41.57545036328997
 42
0.4142135623730951
  0
LWPOLYLINE
  5
159
330
1F
100
AcDbEntity
  8
0
100
AcDbPolyline
 90
        8
 70
     1
 43
0.0
 10
-151.0692953251425
 20
-60.62545246138978
 10
-163.0702950664425
 20
-60.62545246138992
 42
0.4142135623730951
 10
-164.0702950664426
 20
-61.62545246138996
 10
-164.0702950664425
 20
-73.62545196218988
 42
0.4142135623730951
 10
-163.0702950664425
 20
-74.62545196218986
 10
-151.0692953251425
 20
-74.62545196218986
 42
0.4142135623730951
 10
-150.0692953251426
 20
-73.62545196218988
 10
-150.0692953251423
 20
-61.62545246138996
 42
0.4142135623730951
  0
LWPOLYLINE
  5
160
330
1F
100
AcDbEntity
  8
0
100
AcDbPolyline
 90
        8
 70
     1
 43
0.0
 10
-254.8442933604425
 20
-35.52545055998999
 10
-254.8442933604424
 20
-23.52545199048998
 42
0.4142135623730951
 10
-255.8442933604426
 20
-22.5254519904899
 10
-267.8452977583425
 20
-22.52545199048993
 42
0.4142135623730951
 10
-268.8452977583427
 20
-23.52545199048998
 10
-268.8452977583424
 20
-35.52545055998999
 42
0.4142135623730951
 10
-267.8452977583425
 20
-36.52545055998985
 10
-255.8442933604426
 20
-36.52545055998999
 42
0.4142135623730951
  0
LWPOLYLINE
  5
161
330
1F
100
AcDbEntity
  8
0
100
AcDbPolyline
 90
        8
 70
     1
 43
0.0
 10
-248.7952956602426
 20
-36.5254505599898
 10
-236.7942987129425
 20
-36.52545055998999
 42
0.4142135623730951
 10
-235.7942987129426
 20
-35.52545055998999
 10
-235.7942987129426
 20
-23.52545199049001
 42
0.4142135623730951
 10
-236.7942987129425
 20
-22.52545199048993
 10
-248.7952956602426
 20
-22.52545199048993
 42
0.4142135623730951
 10
-249.7952956602427
 20
-23.52545199048998
 10
-249.7952956602424
 20
-35.52545055998999
 42
0.4142135623730951
  0
LWPOLYLINE
  5
162
330
1F
100
AcDbEntity
  8
0
100
AcDbPolyline
 90
        8
 70
     1
 43
0.0
 10
-273.8942954585426
 20
-35.52545055998999
 10
-273.8942954585425
 20
-23.52545199048998
 42
0.4142135623730951
 10
-274.8942954585426
 20
-22.5254519904899
 10
-286.8952998563425
 20
-22.52545199048993
 42
0.4142135623730951
 10
-287.8952998563426
 20
-23.52545199048998
 10
-287.8952998563426
 20
-35.52545055998999
 42
0.4142135623730951
 10
-286.8952998563425
 20
-36.52545055998996
 10
-274.8942954585426
 20
-36.52545055998999
 42
0.4142135623730951
  0
LWPOLYLINE
  5
163
330
1F
100
AcDbEntity
  8
0
100
AcDbPolyline
 90
        8
 70
     1
 43
0.0
 10
-122.4942935750425
 20
-22.52545199049001
 10
-134.4952961102425
 20
-22.52545199048999
 42
0.4142135623730951
 10
-135.4952961102426
 20
-23.52545199049001
 10
-135.4952961102424
 20
-35.52545055998999
 42
0.4142135623730951
 10
-134.4952961102425
 20
-36.52545055998985
 10
-122.4942935750425
 20
-36.52545055998999
 42
0.4142135623730951
 10
-121.4942935750426
 20
-35.52545055998999
 10
-121.4942935750425
 20
-23.52545199049001
 42
0.4142135623730951
  0
LWPOLYLINE
  5
164
330
1F
100
AcDbEntity
  8
0
100
AcDbPolyline
 90
        8
 70
     1
 43
0.0
 10
-211.6952951893426
 20
-23.52545199049001
 10
-211.6952951893426
 20
-35.52545055998999
 42
0.4142135623730951
 10
-210.6952951893426
 20
-36.52545055998991
 10
-198.6942945167426
 20
-36.52545055998999
 42
0.4142135623730951
 10
-197.6942945167425
 20
-35.52545055998999
 10
-197.6942945167425
 20
-23.52545199049001
 42
0.4142135623730951
 10
-198.6942945167426
 20
-22.52545199048995
 10
-210.6952951893426
 20
-22.52545199049001
 42
0.4142135623730951
  0
LWPOLYLINE
  5
165
330
1F
100
AcDbEntity
  8
0
100
AcDbPolyline
 90
        8
 70
     1
 43
0.0
 10
-172.5952947184425
 20
-36.52545055998991
 10
-160.5942952100425
 20
-36.52545055998999
 42
0.4142135623730951
 10
-159.5942952100426
 20
-35.52545055998999
 10
-159.5942952100425
 20
-23.52545199049001
 42
0.4142135623730951
 10
-160.5942952100425
 20
-22.52545199048995
 10
-172.5952947184425
 20
-22.52545199048995
 42
0.4142135623730951
 10
-173.5952947184426
 20
-23.52545199049001
 10
-173.5952947184424
 20
-35.52545055998999
 42
0.4142135623730951
  0
LWPOLYLINE
  5
166
330
1F
100
AcDbEntity
  8
0
100
AcDbPolyline
 90
        8
 70
     1
 43
0.0
 10
-154.5452951815425
 20
-23.52585059658998
 10
-154.5452951815424
 20
-35.52545055998999
 42
0.4142135623730951
 10
-153.5452951815425
 20
-36.52545055998985
 10
-141.5452959135425
 20
-36.52545055998999
 42
0.4142135623730951
 10
-140.5452959135426
 20
-35.52545055998999
 10
-140.5452959135424
 20
-23.52585059658998
 42
0.4142135623730951
 10
-141.5452959135425
 20
-22.52585059658992
 10
-153.5452951815425
 20
-22.52585059658998
 42
0.4142135623730951
  0
LWPOLYLINE
  5
167
330
1F
100
AcDbEntity
  8
0
100
AcDbPolyline
 90
        8
 70
     1
 43
0.0
 10
-293.9442901060425
 20
-22.52545199048999
 10
-305.9449890300426
 20
-22.52545199048993
 42
0.4142135623730951
 10
-306.9449890300426
 20
-23.52545199048998
 10
-306.9449890300424
 20
-35.52545055998999
 42
0.4142135623730951
 10
-305.9449890300426
 20
-36.52545055998985
 10
-293.9442901060425
 20
-36.52545055998999
 42
0.4142135623730951
 10
-292.9442901060425
 20
-35.52545055998999
 10
-292.9442901060425
 20
-23.52545199048998
 42
0.4142135623730951
  0
LWPOLYLINE
  5
168
330
1F
100
AcDbEntity
  8
0
100
AcDbPolyline
 90
        8
 70
     1
 43
0.0
 10
-191.6452968165425
 20
-36.52545055998991
 10
-179.6442942813426
 20
-36.52545055998999
 42
0.4142135623730951
 10
-178.6442942813425
 20
-35.52545055998999
 10
-178.6442942813425
 20
-23.52545199049001
 42
0.4142135623730951
 10
-179.6442942813426
 20
-22.52545199048995
 10
-191.6452968165425
 20
-22.52545199048995
 42
0.4142135623730951
 10
-192.6452968165427
 20
-23.52545199049001
 10
-192.6452968165424
 20
-35.52545055998999
 42
0.4142135623730951
  0
LWPOLYLINE
  5
169
330
1F
100
AcDbEntity
  8
0
100
AcDbPolyline
 90
        8
 70
     1
 43
0.0
 10
-292.9442901060425
 20
-54.57545265808988
 10
-292.9442901060425
 20
-42.57545036328997
 42
0.4142135623730951
 10
-293.9442901060425
 20
-41.57545036328989
 10
-305.9449890300426
 20
-41.57545036328992
 42
0.4142135623730951
 10
-306.9449890300426
 20
-42.57545036328997
 10
-306.9449890300425
 20
-54.57545265808988
 42
0.4142135623730951
 10
-305.9449890300426
 20
-55.5754526580898
 10
-293.9442901060425
 20
-55.57545265808989
 42
0.4142135623730951
  0
LWPOLYLINE
  5
170
330
1F
100
AcDbEntity
  8
0
100
AcDbPolyline
 90
        8
 70
     1
 43
0.0
 10
-217.7442966148426
 20
-22.52545199049001
 10
-229.7452935621426
 20
-22.52545199048995
 42
0.4142135623730951
 10
-230.7452935621427
 20
-23.52545199049001
 10
-230.7452935621424
 20
-35.52545055998999
 42
0.4142135623730951
 10
-229.7452935621426
 20
-36.52545055998988
 10
-217.7442966148426
 20
-36.52545055998999
 42
0.4142135623730951
 10
-216.7442966148426
 20
-35.52545055998999
 10
-216.7442966148426
 20
-23.52545199049001
 42
0.4142135623730951
  0
LWPOLYLINE
  5
171
330
1F
100
AcDbEntity
  8
0
100
AcDbPolyline
 90
        8
 70
     1
 43
0.0
 10
-221.2202925131425
 20
-61.62545246138996
 10
-221.2202925131425
 20
-73.62545196218988
 42
0.4142135623730951
 10
-220.2202925131426
 20
-74.62545196218986
 10
-208.2192955658425
 20
-74.62545196218986
 42
0.4142135623730951
 10
-207.2192955658425
 20
-73.62545196218988
 10
-207.2192955658425
 20
-61.62545246138996
 42
0.4142135623730951
 10
-208.2192955658425
 20
-60.62545246138995
 10
-220.2202925131426
 20
-60.62545246139001
 42
0.4142135623730951
  0
LWPOLYLINE
  5
172
330
1F
100
AcDbEntity
  8
0
100
AcDbPolyline
 90
        8
 70
     1
 43
0.0
 10
-172.5952947184425
 20
-55.57545265808989
 10
-160.5942952100425
 20
-55.57545265808989
 42
0.4142135623730951
 10
-159.5942952100426
 20
-54.57545265808988
 10
-159.5942952100425
 20
-42.57545036328997
 42
0.4142135623730951
 10
-160.5942952100425
 20
-41.57545036328994
 10
-172.5952947184425
 20
-41.57545036328994
 42
0.4142135623730951
 10
-173.5952947184426
 20
-42.57545036328997
 10
-173.5952947184425
 20
-54.57545265808988
 42
0.4142135623730951
  0
LWPOLYLINE
  5
173
330
1F
100
AcDbEntity
  8
0
100
AcDbPolyline
 90
        8
 70
     1
 43
0.0
 10
-198.6942945167426
 20
-41.57545036328989
 10
-210.6952951893426
 20
-41.57545036328994
 42
0.4142135623730951
 10
-211.6952951893427
 20
-42.57545036328997
 10
-211.6952951893426
 20
-54.57545265808988
 42
0.4142135623730951
 10
-210.6952951893426
 20
-55.57545265808983
 10
-198.6942945167426
 20
-55.57545265808989
 42
0.4142135623730951
 10
-197.6942945167427
 20
-54.57545265808988
 10
-197.6942945167425
 20
-42.57545036328997
 42
0.4142135623730951
  0
LWPOLYLINE
  5
174
330
1F
100
AcDbEntity
  8
0
100
AcDbPolyline
 90
        8
 70
     1
 43
0.0
 10
-235.7942987129426
 20
-54.57545265808988
 10
-235.7942987129426
 20
-42.57545036328997
 42
0.4142135623730951
 10
-236.7942987129425
 20
-41.57545036328992
 10
-248.7952956602426
 20
-41.57545036328992
 42
0.4142135623730951
 10
-249.7952956602427
 20
-42.57545036328997
 10
-249.7952956602425
 20
-54.57545265808988
 42
0.4142135623730951
 10
-248.7952956602426
 20
-55.57545265808983
 10
-236.7942987129425
 20
-55.57545265808989
 42
0.4142135623730951
  0
LWPOLYLINE
  5
175
330
1F
100
AcDbEntity
  8
0
100
AcDbPolyline
 90
        8
 70
     1
 43
0.0
 10
-273.8942954585426
 20
-54.57545265808988
 10
-273.8942954585425
 20
-42.57545036328997
 42
0.4142135623730951
 10
-274.8942954585426
 20
-41.57545036328994
 10
-286.8952998563425
 20
-41.57545036328992
 42
0.4142135623730951
 10
-287.8952998563426
 20
-42.57545036328997
 10
-287.8952998563426
 20
-54.57545265808988
 42
0.4142135623730951
 10
-286.8952998563425
 20
-55.57545265808994
 10
-274.8942954585426
 20
-55.57545265808989
 42
0.4142135623730951
  0
LWPOLYLINE
  5
176
330
1F
100
AcDbEntity
  8
0
100
AcDbPolyline
 90
        8
 70
     1
 43
0.0
 10
-288.1803888723426
 20
-73.62545196218988
 10
-288.1803888723426
 20
-61.62545246138996
 42
0.4142135623730951
 10
-289.1803888723426
 20
-60.62545246138992
 10
-301.1810877964426
 20
-60.62545246138995
 42
0.4142135623730951
 10
-302.1810877964426
 20
-61.62545246138996
 10
-302.1810877964426
 20
-73.62545196218988
 42
0.4142135623730951
 10
-301.1810877964426
 20
-74.62545196218986
 10
-289.1803888723426
 20
-74.62545196218986
 42
0.4142135623730951
  0
LWPOLYLINE
  5
177
330
1F
100
AcDbEntity
  8
0
100
AcDbPolyline
 90
        8
 70
     1
 43
0.0
 10
-169.1192950949425
 20
-73.62545196218988
 10
-169.1192950949425
 20
-61.62545246138996
 42
0.4142135623730951
 10
-170.1192950949426
 20
-60.62545246138992
 10
-182.1202957675425
 20
-60.62545246138992
 42
0.4142135623730951
 10
-183.1202957675425
 20
-61.62545246138996
 10
-183.1202957675425
 20
-73.62545196218988
 42
0.4142135623730951
 10
-182.1202957675425
 20
-74.62545196218986
 10
-170.1192950949426
 20
-74.62545196218991
 42
0.4142135623730951
  0
LWPOLYLINE
  5
178
330
1F
100
AcDbEntity
  8
0
100
AcDbPolyline
 90
        8
 70
     1
 43
0.0
 10
-121.4942935750425
 20
-54.57545265808988
 10
-121.4942935750425
 20
-42.57545036328997
 42
0.4142135623730951
 10
-122.4942935750425
 20
-41.57545036328989
 10
-134.4952961102425
 20
-41.57545036328997
 42
0.4142135623730951
 10
-135.4952961102426
 20
-42.57545036328997
 10
-135.4952961102425
 20
-54.57545265808988
 42
0.4142135623730951
 10
-134.4952961102425
 20
-55.5754526580898
 10
-122.4942935750425
 20
-55.57545265808989
 42
0.4142135623730951
  0
LWPOLYLINE
  5
179
330
1F
100
AcDbEntity
  8
0
100
AcDbPolyline
 90
        8
 70
     1
 43
0.0
 10
-259.3202967092425
 20
-61.62545246138996
 10
-259.3202967092425
 20
-73.62545196218988
 42
0.4142135623730951
 10
-258.3202967092425
 20
-74.62545196218986
 10
-246.3192923114426
 20
-74.62545196218986
 42
0.4142135623730951
 10
-245.3192923114426
 20
-73.62545196218988
 10
-245.3192923114425
 20
-61.62545246138996
 42
0.4142135623730951
 10
-246.3192923114426
 20
-60.62545246138992
 10
-258.3202967092425
 20
-60.62545246138995
 42
0.4142135623730951
  0
LWPOLYLINE
  5
180
330
1F
100
AcDbEntity
  8
0
100
AcDbPolyline
 90
        8
 70
     1
 43
0.0
 10
-235.5063933775426
 20
-80.67545199838997
 10
-235.5063933775426
 20
-92.67535254608999
 42
0.4142135623730951
 10
-234.5063933775425
 20
-93.67535254609
 10
-222.5053964302425
 20
-93.67535254609
 42
0.4142135623730951
 10
-221.5053964302426
 20
-92.67535254608999
 10
-221.5053964302426
 20
-80.67545199838997
 42
0.4142135623730951
 10
-222.5053964302425
 20
-79.67545199838998
 10
-234.5063933775425
 20
-79.67545199838998
 42
0.4142135623730951
  0
LWPOLYLINE
  5
181
330
1F
100
AcDbEntity
  8
0
100
AcDbPolyline
 90
        8
 70
     1
 43
0.0
 10
-183.4053940967426
 20
-92.67535254608999
 10
-183.4053940967425
 20
-80.67545199838997
 42
0.4142135623730951
 10
-184.4053940967425
 20
-79.67545199838998
 10
-196.4063929066425
 20
-79.67545199839
 42
0.4142135623730951
 10
-197.4063929066425
 20
-80.67545199838997
 10
-197.4063929066425
 20
-92.67535254608999
 42
0.4142135623730951
 10
-196.4063929066425
 20
-93.67535254609
 10
-184.4053940967425
 20
-93.67535254608998
 42
0.4142135623730951
  0
LWPOLYLINE
  5
182
330
1F
100
AcDbEntity
  8
0
100
AcDbPolyline
 90
        8
 70
     1
 43
0.0
 10
-145.3053936258425
 20
-92.67535254608999
 10
-145.3053936258425
 20
-80.67545199838997
 42
0.4142135623730951
 10
-146.3053936258425
 20
-79.67545199838991
 10
-158.3063938327425
 20
-79.67545199838998
 42
0.4142135623730951
 10
-159.3063938327425
 20
-80.67545199838997
 10
-159.3063938327425
 20
-92.67535254608999
 42
0.4142135623730951
 10
-158.3063938327425
 20
-93.67535254608998
 10
-146.3053936258425
 20
-93.67535254609
 42
0.4142135623730951
  0
LWPOLYLINE
  5
183
330
1F
100
AcDbEntity
  8
0
100
AcDbPolyline
 90
        8
 70
     1
 43
0.0
 10
-272.6060920998425
 20
-93.6753525460899
 10
-260.6053931758426
 20
-93.67535254609
 42
0.4142135623730951
 10
-259.6053931758425
 20
-92.67535254608999
 10
-259.6053931758425
 20
-80.67545199838997
 42
0.4142135623730951
 10
-260.6053931758426
 20
-79.67545199838998
 10
-272.6060920998425
 20
-79.67545199839
 42
0.4142135623730951
 10
-273.6060920998426
 20
-80.67545199838997
 10
-273.6060920998424
 20
-92.67535254608999
 42
0.4142135623730951
  0
LWPOLYLINE
  5
184
330
1F
100
AcDbEntity
  8
0
100
AcDbPolyline
 90
        8
 70
     1
 43
0.0
 10
-131.0192946240425
 20
-73.62545196218988
 10
-131.0192946240424
 20
-61.62545246138996
 42
0.4142135623730951
 10
-132.0192946240425
 20
-60.62545246138984
 10
-144.0202952966425
 20
-60.62545246139001
 42
0.4142135623730951
 10
-145.0202952966425
 20
-61.62545246138996
 10
-145.0202952966424
 20
-73.62545196218988
 42
0.4142135623730951
 10
-144.0202952966425
 20
-74.6254519621898
 10
-132.0192946240425
 20
-74.62545196218989
 42
0.4142135623730951
  0
LWPOLYLINE
  5
185
330
1F
100
AcDbEntity
  8
0
100
AcDbPolyline
 90
        8
 70
     1
 43
0.0
 10
-124.6743950888425
 20
-132.2753523315899
 10
-124.6743950888425
 20
-118.24605334059
 42
0.4142135623730951
 10
-125.6743950888425
 20
-117.2460533405899
 10
-131.3183946207425
 20
-117.24605334059
 42
0.4142135623730951
 10
-132.3183946207425
 20
-118.24605334059
 10
-132.3183946207426
 20
-132.2753523315899
 42
0.4142135623730948
 10
-131.3183946207425
 20
-133.27535233159
 10
-125.6743950888425
 20
-133.2753523315899
 42
0.4142135623730951
  0
LWPOLYLINE
  5
186
330
1F
100
AcDbEntity
  8
0
100
AcDbPolyline
 90
        8
 70
     1
 43
0.0
 10
-155.8303937435425
 20
-98.7257528181899
 10
-167.8313934848425
 20
-98.72575281819001
 42
0.4142135623730951
 10
-168.8313934848425
 20
-99.72575281818999
 10
-168.8313934848426
 20
-111.72535091889
 42
0.4142135623730951
 10
-167.8313934848425
 20
-112.72535091889
 10
-155.8303937435425
 20
-112.72535091889
 42
0.4142135623730951
 10
-154.8303937435425
 20
-111.72535091889
 10
-154.8303937435424
 20
-99.72575281818999
 42
0.4142135623730951
  0
LWPOLYLINE
  5
187
330
1F
100
AcDbEntity
  8
0
100
AcDbPolyline
 90
        8
 70
     1
 43
0.0
 10
-205.9313939556426
 20
-112.72535091889
 10
-193.9303932831425
 20
-112.7253509188899
 42
0.4142135623730951
 10
-192.9303932831426
 20
-111.72535091889
 10
-192.9303932831426
 20
-99.72575281818999
 42
0.4142135623730951
 10
-193.9303932831425
 20
-98.72575281819001
 10
-205.9313939556426
 20
-98.72575281819001
 42
0.4142135623730951
 10
-206.9313939556425
 20
-99.72575281818999
 10
-206.9313939556426
 20
-111.72535091889
 42
0.4142135623730951
  0
LWPOLYLINE
  5
188
330
1F
100
AcDbEntity
  8
0
100
AcDbPolyline
 90
        8
 70
     1
 43
0.0
 10
-130.7313930139426
 20
-99.72575281818999
 10
-130.7313930139426
 20
-111.72535091889
 42
0.4142135623730951
 10
-129.7313930139426
 20
-112.72535091889
 10
-117.7303923413425
 20
-112.72535091889
 42
0.4142135623730951
 10
-116.7303923413425
 20
-111.72535091889
 10
-116.7303923413425
 20
-99.72575281818999
 42
0.4142135623730951
 10
-117.7303923413425
 20
-98.72575281818996
 10
-129.7313930139426
 20
-98.72575281818999
 42
0.4142135623730951
  0
LWPOLYLINE
  5
189
330
1F
100
AcDbEntity
  8
0
100
AcDbPolyline
 90
        8
 70
     1
 43
0.0
 10
-232.3243919656425
 20
-118.24615019819
 10
-232.3243919656425
 20
-132.2753523315899
 42
0.4142135623730948
 10
-231.3243919656426
 20
-133.27535233159
 10
-225.6753949568426
 20
-133.2753523315899
 42
0.4142135623730951
 10
-224.6753949568426
 20
-132.2753523315899
 10
-224.6753949568426
 20
-118.24615019819
 42
0.4142135623730951
 10
-225.6753949568426
 20
-117.24615019819
 10
-231.3243919656426
 20
-117.24615019819
 42
0.4142135623730951
  0
LWPOLYLINE
  5
190
330
1F
100
AcDbEntity
  8
0
100
AcDbPolyline
 90
        8
 70
     1
 43
0.0
 10
-232.0303974792426
 20
-98.72575281818999
 10
-244.0313944265426
 20
-98.72575281819001
 42
0.4142135623730951
 10
-245.0313944265425
 20
-99.72575281818999
 10
-245.0313944265427
 20
-111.72535091889
 42
0.4142135623730951
 10
-244.0313944265426
 20
-112.72535091889
 10
-232.0303974792426
 20
-112.72535091889
 42
0.4142135623730951
 10
-231.0303974792425
 20
-111.72535091889
 10
-231.0303974792425
 20
-99.72575281818999
 42
0.4142135623730951
  0
LWPOLYLINE
  5
191
330
1F
100
AcDbEntity
  8
0
100
AcDbPolyline
 90
        8
 70
     1
 43
0.0
 10
-185.5013971930425
 20
-118.7757530535909
 10
-185.5013971930425
 20
-130.7757525543908
 42
0.4142135623730951
 10
-184.5013971930425
 20
-131.7757525543907
 10
-172.5023970013425
 20
-131.7757525543908
 42
0.4142135623730951
 10
-171.5023970013426
 20
-130.7757525543908
 10
-171.5023970013424
 20
-118.7757530535909
 42
0.4142135623730951
 10
-172.5023970013425
 20
-117.7757530535907
 10
-184.5013971930425
 20
-117.7757530535908
 42
0.4142135623730951
  0
LWPOLYLINE
  5
192
330
1F
100
AcDbEntity
  8
0
100
AcDbPolyline
 90
        8
 70
     1
 43
0.0
 10
-256.9373985930425
 20
-118.7757530535909
 10
-256.9373985930425
 20
-130.7757525543908
 42
0.4142135623730948
 10
-255.9373985930426
 20
-131.7757525543907
 10
-243.9383984013426
 20
-131.7757525543908
 42
0.4142135623730951
 10
-242.9383984013426
 20
-130.7757525543908
 10
-242.9383984013425
 20
-118.7757530535909
 42
0.4142135623730951
 10
-243.9383984013426
 20
-117.7757530535907
 10
-255.9373985930426
 20
-117.7757530535909
 42
0.4142135623730951
  0
LWPOLYLINE
  5
193
330
1F
100
AcDbEntity
  8
0
100
AcDbPolyline
 90
        8
 70
     1
 43
0.0
 10
-280.7513971930435
 20
-118.7757530535908
 10
-280.7513971930426
 20
-130.7757525543908
 42
0.4142135623730951
 10
-279.7513971930426
 20
-131.7757525543907
 10
-267.7523970013425
 20
-131.7757525543908
 42
0.4142135623730951
 10
-266.7523970013427
 20
-130.7757525543908
 10
-266.7523970013424
 20
-118.7757530535909
 42
0.4142135623730951
 10
-267.7523970013425
 20
-117.7757530535907
 10
-279.7513971930426
 20
-117.7757530535899
 42
0.4142135623730951
  0
LWPOLYLINE
  5
194
330
1F
100
AcDbEntity
  8
0
100
AcDbPolyline
 90
        8
 70
     1
 43
0.0
 10
-304.5624874930435
 20
-118.7757530535908
 10
-304.5624874930425
 20
-130.7757525543908
 42
0.4142135623730951
 10
-303.5624874930426
 20
-131.7757525543907
 10
-291.5634873013425
 20
-131.7757525543908
 42
0.4142135623730951
 10
-290.5634873013426
 20
-130.7757525543908
 10
-290.5634873013424
 20
-118.7757530535908
 42
0.4142135623730951
 10
-291.5634873013425
 20
-117.7757530535907
 10
-303.5624874930426
 20
-117.7757530535899
 42
0.4142135623730951
  0
LWPOLYLINE
  5
195
330
1F
100
AcDbEntity
  8
0
100
AcDbPolyline
 90
        8
 70
     1
 43
0.0
 10
-66.43739859304296
 20
-99.7257936935909
 10
-66.4373985930428
 20
-111.7257931943908
 42
0.4142135623731237
 10
-65.43739859304276
 20
-112.7257931943907
 10
-53.43839840134284
 20
-112.7257931943907
 42
0.4142135623730951
 10
-52.43839840134286
 20
-111.7257931943908
 10
-52.43839840134273
 20
-99.7257936935909
 42
0.4142135623730951
 10
-53.43839840134284
 20
-98.72579369359078
 10
-65.43739859304276
 20
-98.7257936935908
 42
0.4142135623731237
  0
LWPOLYLINE
  5
196
330
1F
100
AcDbEntity
  8
0
100
AcDbPolyline
 90
        8
 70
     1
 43
0.0
 10
-67.81839073154277
 20
-74.62545196218991
 10
-55.81939053984275
 20
-74.62545196218989
 42
0.4142135623730951
 10
-54.81939053984277
 20
-73.62545196218992
 10
-54.81939053984262
 20
-61.62545246139001
 42
0.4142135623730951
 10
-55.81939053984275
 20
-60.62545246138987
 10
-67.81839073154277
 20
-60.62545246138987
 42
0.4142135623730951
 10
-68.81839073154288
 20
-61.62545246139001
 10
-68.81839073154276
 20
-73.62545196218992
 42
0.4142135623730951
  0
LWPOLYLINE
  5
197
330
1F
100
AcDbEntity
  8
0
100
AcDbPolyline
 90
        8
 70
     1
 43
0.0
 10
-39.24339713304276
 20
-112.7257931943908
 10
-27.24439694134276
 20
-112.7257931943907
 42
0.4142135623730951
 10
-26.24439694134276
 20
-111.7257931943908
 10
-26.24439694134264
 20
-99.7257936935909
 42
0.4142135623730951
 10
-27.24439694134276
 20
-98.72579369359078
 10
-39.24339713304276
 20
-98.72579369359078
 42
0.4142135623730951
 10
-40.24339713304287
 20
-99.7257936935909
 10
-40.24339713304275
 20
-111.7257931943908
 42
0.4142135623730951
  0
LWPOLYLINE
  5
198
330
1F
100
AcDbEntity
  8
0
100
AcDbPolyline
 90
        8
 70
     1
 43
0.0
 10
-39.24339503504276
 20
-131.7753530169899
 10
-27.24439484334276
 20
-131.7753530169899
 42
0.4142135623730951
 10
-26.24439484334276
 20
-130.7753530169899
 10
-26.24439484334267
 20
-118.77575305359
 42
0.4142135623730958
 10
-27.24439484334276
 20
-117.7757530535899
 10
-39.24339503504276
 20
-117.7757530535899
 42
0.4142135623730951
 10
-40.24339503504278
 20
-118.77575305359
 10
-40.24339503504267
 20
-130.7753530169899
 42
0.4142135623730954
  0
LWPOLYLINE
  5
199
330
1F
100
AcDbEntity
  8
0
100
AcDbPolyline
 90
        4
 70
     1
 43
0.0
 10
-68.16890159550066
 20
-136.2817269053143
 10
-13.66890159550059
 20
-136.2817269053143
 42
1.0
 10
-13.66890159550059
 20
-134.7817269053143
 10
-68.16890159550066
 20
-134.7817269053143
 42
1.0
  0
ENDSEC
  0
SECTION
  2
OBJECTS
  0
DICTIONARY
  5
C
330
0
100
AcDbDictionary
281
     1
  3
ACAD_BACKGROUND
350
1005B
  3
ACAD_CIP_PREVIOUS_PRODUCT_INFO
350
1005A
  3
ACAD_COLOR
350
10036
  3
ACAD_DETAILVIEWSTYLE
350
10051
  3
ACAD_GROUP
350
D
  3
ACAD_LAYOUT
350
10037
  3
ACAD_MATERIAL
350
10004
  3
ACAD_MLEADERSTYLE
350
1004D
  3
ACAD_MLINESTYLE
350
17
  3
ACAD_PLOTSETTINGS
350
10054
  3
ACAD_PLOTSTYLENAME
350
10002
  3
ACAD_SCALELIST
350
1003B
  3
ACAD_SECTIONVIEWSTYLE
350
1004F
  3
ACAD_TABLESTYLE
350
10038
  3
ACAD_VISUALSTYLE
350
1001D
  3
ACDB_RECOMPOSE_DATA
350
100B7
  3
AcDbVariableDictionary
350
1009C
  3
AcDsDecomposeData
350
100BD
  0
DICTIONARY
  5
10096
330
2
100
AcDbDictionary
280
     1
281
     1
  3
ACAD_LAYERSTATES
360
10097
  0
DICTIONARY
  5
10091
330
50
100
AcDbDictionary
280
     1
281
     1
  3
ADSK_XREC_LAYER_RECONCILED
360
10092
  0
DICTIONARY
  5
1005B
102
{ACAD_REACTORS
330
C
102
}
330
C
100
AcDbDictionary
281
     1
  0
XRECORD
  5
1005A
102
{ACAD_REACTORS
330
C
102
}
330
C
100
AcDbXrecord
280
     1
300
ACD
300
2022
300

  0
DICTIONARY
  5
10036
102
{ACAD_REACTORS
330
C
102
}
330
C
100
AcDbDictionary
281
     1
  0
DICTIONARY
  5
10051
102
{ACAD_REACTORS
330
C
102
}
330
C
100
AcDbDictionary
281
     1
  3
Imperial24
350
10052
  0
DICTIONARY
  5
D
330
C
100
AcDbDictionary
281
     1
  0
DICTIONARY
  5
10037
102
{ACAD_REACTORS
330
C
102
}
330
C
100
AcDbDictionary
281
     1
  3
Layout1
350
10056
  3
Model
350
10055
  0
DICTIONARY
  5
10004
102
{ACAD_REACTORS
330
C
102
}
330
C
100
AcDbDictionary
281
     1
  3
ByBlock
350
1000D
  3
ByLayer
350
10005
  3
Global
350
10015
  0
DICTIONARY
  5
1004D
102
{ACAD_REACTORS
330
C
102
}
330
C
100
AcDbDictionary
281
     1
  3
Standard
350
1004E
  0
DICTIONARY
  5
17
330
C
100
AcDbDictionary
281
     1
  3
Standard
350
1003A
  0
DICTIONARY
  5
10054
102
{ACAD_REACTORS
330
C
102
}
330
C
100
AcDbDictionary
281
     1
  0
ACDBDICTIONARYWDFLT
  5
10002
102
{ACAD_REACTORS
330
C
102
}
330
C
100
AcDbDictionary
281
     1
  3
Normal
350
10003
100
AcDbDictionaryWithDefault
340
10003
  0
DICTIONARY
  5
1003B
102
{ACAD_REACTORS
330
C
102
}
330
C
100
AcDbDictionary
281
     1
  3
A0
350
1003C
  3
A1
350
1003D
  3
A2
350
1003E
  3
A3
350
1003F
  3
A4
350
10040
  3
A5
350
10041
  3
A6
350
10042
  3
A7
350
10043
  3
A8
350
10044
  3
A9
350
10045
  3
B0
350
10046
  3
B1
350
10047
  3
B2
350
10048
  3
B3
350
10049
  3
B4
350
1004A
  3
B5
350
1004B
  3
B6
350
1004C
  0
DICTIONARY
  5
1004F
102
{ACAD_REACTORS
330
C
102
}
330
C
100
AcDbDictionary
281
     1
  3
Imperial24
350
10050
  0
DICTIONARY
  5
10038
102
{ACAD_REACTORS
330
C
102
}
330
C
100
AcDbDictionary
281
     1
  3
Standard
350
10039
  0
DICTIONARY
  5
1001D
102
{ACAD_REACTORS
330
C
102
}
330
C
100
AcDbDictionary
281
     1
  3
2dWireframe
350
10023
  3
Basic
350
10022
  3
Brighten
350
10029
  3
ColorChange
350
1002D
  3
Conceptual
350
10026
  3
Dim
350
10028
  3
EdgeColorOff
350
10035
  3
Facepattern
350
1002C
  3
Flat
350
1001E
  3
FlatWithEdges
350
1001F
  3
Gouraud
350
10020
  3
GouraudWithEdges
350
10021
  3
Hidden
350
10025
  3
JitterOff
350
10033
  3
Linepattern
350
1002B
  3
OverhangOff
350
10034
  3
Realistic
350
10027
  3
Shaded
350
10032
  3
Shaded with edges
350
10031
  3
Shades of Gray
350
1002E
  3
Sketchy
350
1002F
  3
Thicken
350
1002A
  3
Wireframe
350
10024
  3
X-Ray
350
10030
  0
XRECORD
  5
100B7
102
{ACAD_REACTORS
330
C
102
}
330
C
100
AcDbXrecord
280
     1
 90
        1
330
10039
  0
DICTIONARY
  5
1009C
102
{ACAD_REACTORS
330
C
102
}
330
C
100
AcDbDictionary
281
     1
  3
CANNOSCALE
350
100A2
  3
CMLEADERSTYLE
350
1009E
  3
CTABLESTYLE
350
1009D
  3
CVIEWDETAILSTYLE
350
1009F
  3
CVIEWSECTIONSTYLE
350
100A0
  3
LAYEREVAL
350
100A4
  3
LAYERNOTIFY
350
100A5
  3
LIGHTINGUNITS
350
100A3
  3
MSLTSCALE
350
100A1
  0
DICTIONARY
  5
100BD
102
{ACAD_REACTORS
330
C
102
}
330
C
100
AcDbDictionary
281
     1
  3
AcDsRecords
350
100BF
  3
AcDsSchemas
350
100BE
1001
ACAD
1070
     2
  0
DICTIONARY
  5
10097
102
{ACAD_REACTORS
330
10096
102
}
330
10096
100
AcDbDictionary
281
     1
  0
XRECORD
  5
10092
102
{ACAD_REACTORS
330
10091
102
}
330
10091
100
AcDbXrecord
280
     1
290
     1
  0
ACDBDETAILVIEWSTYLE
  5
10052
102
{ACAD_XDICTIONARY
360
100C2
102
}
102
{ACAD_REACTORS
330
10051
102
}
330
10051
100
AcDbModelDocViewStyle
 70
     0
  3
Imperial24
290
     0
100
AcDbDetailViewStyle
 70
     0
 71
     0
 90
        3
 71
     1
340
11
 62
   256
 40
0.24
340
0
 62
   256
 40
0.24
300

 40
0.36
280
     3
 71
     2
340
0
 90
       25
 62
   256
 71
     3
340
11
 62
   256
 40
0.24
 90
        1
 40
0.75
 90
        1
300
%<\AcVar ViewType \f "%tc1">% %<\AcVar ViewDetailId>%\PSCALE %<\AcVar ViewScale \f "%sn">%
 71
     4
340
0
 90
       25
 62
   256
340
0
 90
       25
 62
   256
280
     0
  0
LAYOUT
  5
10056
102
{ACAD_REACTORS
330
10037
102
}
330
10037
100
AcDbPlotSettings
  1

  2
Canon iP110 series WS
  4

  6

 40
0.0
 41
0.0
 42
0.0
 43
0.0
 44
0.0
 45
0.0
 46
0.0
 47
0.0
 48
0.0
 49
0.0
140
0.0
141
0.0
142
1.0
143
1.0
 70
   688
 72
     0
 73
     0
 74
     5
  7

 75
    16
147
1.0
 76
     0
 77
     2
 78
   300
148
0.0
149
0.0
100
AcDbLayout
  1
Layout1
 70
     1
 71
     1
 10
0.0
 20
0.0
 11
12.0
 21
9.0
 12
0.0
 22
0.0
 32
0.0
 14
1.000000000000000E+20
 24
1.000000000000000E+20
 34
1.000000000000000E+20
 15
-1.000000000000000E+20
 25
-1.000000000000000E+20
 35
-1.000000000000000E+20
146
0.0
 13
0.0
 23
0.0
 33
0.0
 16
1.0
 26
0.0
 36
0.0
 17
0.0
 27
1.0
 37
0.0
 76
     0
330
1B
  0
LAYOUT
  5
10055
102
{ACAD_REACTORS
330
10037
102
}
330
10037
100
AcDbPlotSettings
  1

  2
Canon iP110 series WS
  4

  6

 40
0.0
 41
0.0
 42
0.0
 43
0.0
 44
0.0
 45
0.0
 46
0.0
 47
0.0
 48
0.0
 49
0.0
140
0.0
141
0.0
142
1.0
143
1.0
 70
  1712
 72
     0
 73
     0
 74
     0
  7

 75
     0
147
1.0
 76
     0
 77
     2
 78
   300
148
0.0
149
0.0
100
AcDbLayout
  1
Model
 70
     1
 71
     0
 10
0.0
 20
0.0
 11
12.0
 21
9.0
 12
0.0
 22
0.0
 32
0.0
 14
0.0
 24
0.0
 34
0.0
 15
0.0
 25
0.0
 35
0.0
146
0.0
 13
0.0
 23
0.0
 33
0.0
 16
1.0
 26
0.0
 36
0.0
 17
0.0
 27
1.0
 37
0.0
 76
     0
330
1F
331
10059
  0
MATERIAL
  5
1000D
102
{ACAD_XDICTIONARY
360
1000E
102
}
102
{ACAD_REACTORS
330
10004
102
}
330
10004
100
AcDbMaterial
  1
ByBlock
 72
     0
 43
0.0008202099737533
 43
0.0
 43
0.0
 43
0.0
 43
0.0
 43
0.0008202099737533
 43
0.0
 43
0.0
 43
0.0
 43
0.0
 43
1.0
 43
0.0
 43
0.0
 43
0.0
 43
0.0
 43
1.0
 77
     0
 47
0.0008202099737533
 47
0.0
 47
0.0
 47
0.0
 47
0.0
 47
0.0008202099737533
 47
0.0
 47
0.0
 47
0.0
 47
0.0
 47
1.0
 47
0.0
 47
0.0
 47
0.0
 47
0.0
 47
1.0
171
     0
 49
0.0008202099737533
 49
0.0
 49
0.0
 49
0.0
 49
0.0
 49
0.0008202099737533
 49
0.0
 49
0.0
 49
0.0
 49
0.0
 49
1.0
 49
0.0
 49
0.0
 49
0.0
 49
0.0
 49
1.0
175
     0
142
0.0008202099737533
142
0.0
142
0.0
142
0.0
142
0.0
142
0.0008202099737533
142
0.0
142
0.0
142
0.0
142
0.0
142
1.0
142
0.0
142
0.0
142
0.0
142
0.0
142
1.0
179
     0
144
0.0008202099737533
144
0.0
144
0.0
144
0.0
144
0.0
144
0.0008202099737533
144
0.0
144
0.0
144
0.0
144
0.0
144
1.0
144
0.0
144
0.0
144
0.0
144
0.0
144
1.0
147
0.0008202099737533
147
0.0
147
0.0
147
0.0
147
0.0
147
0.0008202099737533
147
0.0
147
0.0
147
0.0
147
0.0
147
1.0
147
0.0
147
0.0
147
0.0
147
0.0
147
1.0
  0
MATERIAL
  5
10005
102
{ACAD_XDICTIONARY
360
10006
102
}
102
{ACAD_REACTORS
330
10004
102
}
330
10004
100
AcDbMaterial
  1
ByLayer
 72
     0
 43
0.0008202099737533
 43
0.0
 43
0.0
 43
0.0
 43
0.0
 43
0.0008202099737533
 43
0.0
 43
0.0
 43
0.0
 43
0.0
 43
1.0
 43
0.0
 43
0.0
 43
0.0
 43
0.0
 43
1.0
 77
     0
 47
0.0008202099737533
 47
0.0
 47
0.0
 47
0.0
 47
0.0
 47
0.0008202099737533
 47
0.0
 47
0.0
 47
0.0
 47
0.0
 47
1.0
 47
0.0
 47
0.0
 47
0.0
 47
0.0
 47
1.0
171
     0
 49
0.0008202099737533
 49
0.0
 49
0.0
 49
0.0
 49
0.0
 49
0.0008202099737533
 49
0.0
 49
0.0
 49
0.0
 49
0.0
 49
1.0
 49
0.0
 49
0.0
 49
0.0
 49
0.0
 49
1.0
175
     0
142
0.0008202099737533
142
0.0
142
0.0
142
0.0
142
0.0
142
0.0008202099737533
142
0.0
142
0.0
142
0.0
142
0.0
142
1.0
142
0.0
142
0.0
142
0.0
142
0.0
142
1.0
179
     0
144
0.0008202099737533
144
0.0
144
0.0
144
0.0
144
0.0
144
0.0008202099737533
144
0.0
144
0.0
144
0.0
144
0.0
144
1.0
144
0.0
144
0.0
144
0.0
144
0.0
144
1.0
147
0.0008202099737533
147
0.0
147
0.0
147
0.0
147
0.0
147
0.0008202099737533
147
0.0
147
0.0
147
0.0
147
0.0
147
1.0
147
0.0
147
0.0
147
0.0
147
0.0
147
1.0
  0
MATERIAL
  5
10015
102
{ACAD_XDICTIONARY
360
10016
102
}
102
{ACAD_REACTORS
330
10004
102
}
330
10004
100
AcDbMaterial
  1
Global
 72
     0
 43
0.0008202099737533
 43
0.0
 43
0.0
 43
0.0
 43
0.0
 43
0.0008202099737533
 43
0.0
 43
0.0
 43
0.0
 43
0.0
 43
1.0
 43
0.0
 43
0.0
 43
0.0
 43
0.0
 43
1.0
 77
     0
 47
0.0008202099737533
 47
0.0
 47
0.0
 47
0.0
 47
0.0
 47
0.0008202099737533
 47
0.0
 47
0.0
 47
0.0
 47
0.0
 47
1.0
 47
0.0
 47
0.0
 47
0.0
 47
0.0
 47
1.0
171
     0
 49
0.0008202099737533
 49
0.0
 49
0.0
 49
0.0
 49
0.0
 49
0.0008202099737533
 49
0.0
 49
0.0
 49
0.0
 49
0.0
 49
1.0
 49
0.0
 49
0.0
 49
0.0
 49
0.0
 49
1.0
175
     0
142
0.0008202099737533
142
0.0
142
0.0
142
0.0
142
0.0
142
0.0008202099737533
142
0.0
142
0.0
142
0.0
142
0.0
142
1.0
142
0.0
142
0.0
142
0.0
142
0.0
142
1.0
179
     0
144
0.0008202099737533
144
0.0
144
0.0
144
0.0
144
0.0
144
0.0008202099737533
144
0.0
144
0.0
144
0.0
144
0.0
144
1.0
144
0.0
144
0.0
144
0.0
144
0.0
144
1.0
147
0.0008202099737533
147
0.0
147
0.0
147
0.0
147
0.0
147
0.0008202099737533
147
0.0
147
0.0
147
0.0
147
0.0
147
1.0
147
0.0
147
0.0
147
0.0
147
0.0
147
1.0
  0
MLEADERSTYLE
  5
1004E
102
{ACAD_REACTORS
330
1004D
102
}
330
1004D
100
AcDbMLeaderStyle
179
     2
170
     2
171
     1
172
     0
 90
        2
 40
0.0
 41
0.0
173
     1
 91
-1056964608
340
14
 92
       -2
290
     1
 42
0.09
291
     1
 43
0.36
  3
Standard
 44
0.18
300

342
11
174
     1
178
     6
175
     1
176
     0
 93
-1056964608
 45
0.18
292
     0
297
     0
 46
0.18
 94
-1056964608
 47
1.0
 49
1.0
140
1.0
293
     1
141
0.0
294
     1
177
     0
142
1.0
295
     0
296
     0
143
0.125
271
     0
272
     9
273
     9
298
     0
  0
MLINESTYLE
  5
1003A
102
{ACAD_REACTORS
330
17
102
}
330
17
100
AcDbMlineStyle
  2
STANDARD
 70
     0
  3

 62
   256
 51
90.0
 52
90.0
 71
     2
 49
0.5
 62
   256
  6
BYLAYER
 49
-0.5
 62
   256
  6
BYLAYER
  0
ACDBPLACEHOLDER
  5
10003
102
{ACAD_REACTORS
330
10002
102
}
330
10002
  0
SCALE
  5
1003C
102
{ACAD_REACTORS
330
1003B
102
}
330
1003B
100
AcDbScale
 70
     0
300
1:1
140
1.0
141
1.0
290
     1
  0
SCALE
  5
1003D
102
{ACAD_REACTORS
330
1003B
102
}
330
1003B
100
AcDbScale
 70
     0
300
1/128" = 1'-0"
140
0.0078125
141
12.0
290
     0
  0
SCALE
  5
1003E
102
{ACAD_REACTORS
330
1003B
102
}
330
1003B
100
AcDbScale
 70
     0
300
1/64" = 1'-0"
140
0.015625
141
12.0
290
     0
  0
SCALE
  5
1003F
102
{ACAD_REACTORS
330
1003B
102
}
330
1003B
100
AcDbScale
 70
     0
300
1/32" = 1'-0"
140
0.03125
141
12.0
290
     0
  0
SCALE
  5
10040
102
{ACAD_REACTORS
330
1003B
102
}
330
1003B
100
AcDbScale
 70
     0
300
1/16" = 1'-0"
140
0.0625
141
12.0
290
     0
  0
SCALE
  5
10041
102
{ACAD_REACTORS
330
1003B
102
}
330
1003B
100
AcDbScale
 70
     0
300
3/32" = 1'-0"
140
0.09375
141
12.0
290
     0
  0
SCALE
  5
10042
102
{ACAD_REACTORS
330
1003B
102
}
330
1003B
100
AcDbScale
 70
     0
300
1/8" = 1'-0"
140
0.125
141
12.0
290
     0
  0
SCALE
  5
10043
102
{ACAD_REACTORS
330
1003B
102
}
330
1003B
100
AcDbScale
 70
     0
300
3/16" = 1'-0"
140
0.1875
141
12.0
290
     0
  0
SCALE
  5
10044
102
{ACAD_REACTORS
330
1003B
102
}
330
1003B
100
AcDbScale
 70
     0
300
1/4" = 1'-0"
140
0.25
141
12.0
290
     0
  0
SCALE
  5
10045
102
{ACAD_REACTORS
330
1003B
102
}
330
1003B
100
AcDbScale
 70
     0
300
3/8" = 1'-0"
140
0.375
141
12.0
290
     0
  0
SCALE
  5
10046
102
{ACAD_REACTORS
330
1003B
102
}
330
1003B
100
AcDbScale
 70
     0
300
1/2" = 1'-0"
140
0.5
141
12.0
290
     0
  0
SCALE
  5
10047
102
{ACAD_REACTORS
330
1003B
102
}
330
1003B
100
AcDbScale
 70
     0
300
3/4" = 1'-0"
140
0.75
141
12.0
290
     0
  0
SCALE
  5
10048
102
{ACAD_REACTORS
330
1003B
102
}
330
1003B
100
AcDbScale
 70
     0
300
1" = 1'-0"
140
1.0
141
12.0
290
     0
  0
SCALE
  5
10049
102
{ACAD_REACTORS
330
1003B
102
}
330
1003B
100
AcDbScale
 70
     0
300
1-1/2" = 1'-0"
140
1.5
141
12.0
290
     0
  0
SCALE
  5
1004A
102
{ACAD_REACTORS
330
1003B
102
}
330
1003B
100
AcDbScale
 70
     0
300
3" = 1'-0"
140
3.0
141
12.0
290
     0
  0
SCALE
  5
1004B
102
{ACAD_REACTORS
330
1003B
102
}
330
1003B
100
AcDbScale
 70
     0
300
6" = 1'-0"
140
6.0
141
12.0
290
     0
  0
SCALE
  5
1004C
102
{ACAD_REACTORS
330
1003B
102
}
330
1003B
100
AcDbScale
 70
     0
300
1'-0" = 1'-0"
140
12.0
141
12.0
290
     0
  0
ACDBSECTIONVIEWSTYLE
  5
10050
102
{ACAD_XDICTIONARY
360
100C0
102
}
102
{ACAD_REACTORS
330
1004F
102
}
330
1004F
100
AcDbModelDocViewStyle
 70
     0
  3
Imperial24
290
     0
100
AcDbSectionViewStyle
 70
     0
 71
     0
 90
       78
 71
     1
340
11
 62
   256
 40
0.24
340
0
340
0
 62
   256
 40
0.24
300
I, O, Q, S, X, Z
 40
0.48
 90
        3
 40
0.18
 90
        1
 71
     2
340
0
 90
       25
 62
   256
340
0
 90
       50
 62
   256
 40
0.24
 40
0.0
 40
0.24
 71
     3
340
11
 62
   256
 40
0.24
 90
        1
 40
0.75
 90
        1
300
%<\AcVar ViewType \f "%tc1">% %<\AcVar ViewSectionStartId>%-%<\AcVar ViewSectionEndId>%\PSCALE %<\AcVar ViewScale \f "%sn">%
 71
     4
 62
   256
 62
   257
300
ANSI31
 40
1.0
 90
        0
290
     0
290
     0
 90
        6
 40
0.0
 40
1.570796326794896
 40
0.2617993877991494
 40
1.308996938995747
 40
-0.2617993877991494
 40
1.832595714594046
  0
TABLESTYLE
  5
10039
102
{ACAD_XDICTIONARY
360
100B5
102
}
102
{ACAD_REACTORS
330
10038
102
}
330
10038
100
AcDbTableStyle
280
     0
  3
Standard
 70
     0
 71
     0
 40
0.06
 41
0.06
280
     0
281
     0
  7
STANDARD
140
0.18
170
     2
 62
     0
 63
     7
283
     0
 90
      512
 91
        0
  1

274
    -2
284
     1
 64
     0
275
    -2
285
     1
 65
     0
276
    -2
286
     1
 66
     0
277
    -2
287
     1
 67
     0
278
    -2
288
     1
 68
     0
279
    -2
289
     1
 69
     0
  7
STANDARD
140
0.25
170
     5
 62
     0
 63
     7
283
     0
 90
      512
 91
        0
  1

274
    -2
284
     1
 64
     0
275
    -2
285
     1
 65
     0
276
    -2
286
     1
 66
     0
277
    -2
287
     1
 67
     0
278
    -2
288
     1
 68
     0
279
    -2
289
     1
 69
     0
  7
STANDARD
140
0.18
170
     5
 62
     0
 63
     7
283
     0
 90
      512
 91
        0
  1

274
    -2
284
     1
 64
     0
275
    -2
285
     1
 65
     0
276
    -2
286
     1
 66
     0
277
    -2
287
     1
 67
     0
278
    -2
288
     1
 68
     0
279
    -2
289
     1
 69
     0
  0
VISUALSTYLE
  5
10023
102
{ACAD_REACTORS
330
1001D
102
}
330
1001D
100
AcDbVisualStyle
  2
2dWireframe
 70
     4
177
     3
291
     0
 70
    58
 90
        0
176
     1
 90
        2
176
     1
 90
        0
176
     1
 90
        0
176
     1
 40
0.6
176
     1
 40
30.0
176
     1
 62
     7
420
 16777215
176
     1
 90
        1
176
     1
 90
        4
176
     1
 62
     7
176
     1
 62
   257
176
     1
 90
        1
176
     1
 90
        1
176
     1
 40
1.0
176
     1
 90
        0
176
     1
 62
   257
176
     1
 40
1.0
176
     1
 90
        1
176
     1
 90
        6
176
     1
 90
        2
176
     1
 62
     7
176
     1
 90
        5
176
     1
 90
        0
176
     1
 90
        0
176
     1
290
     0
176
     1
 90
        1
176
     1
 40
0.0
176
     1
 90
        0
176
     1
290
     1
176
     1
290
     1
176
     1
290
     0
176
     1
290
     0
176
     1
290
     0
176
     1
290
     0
176
     1
290
     0
176
     1
290
     0
176
     1
290
     0
176
     1
 90
       50
176
     1
 40
0.0
176
     1
 40
1.0
176
     1
 90
        0
176
     1
 62
    18
420
        0
176
     1
 90
       50
176
     1
 90
        3
176
     1
 62
     5
420
      255
176
     1
290
     0
176
     1
 90
       50
176
     1
 90
       50
176
     1
 90
       50
176
     1
290
     0
176
     1
 90
       50
176
     1
 62
   256
176
     0
 40
1.0
176
     0
 90
        2
176
     1
  1
strokes_ogs.tif
176
     1
290
     0
176
     1
 40
1.0
176
     1
 40
1.0
176
     1
1001
ACAD
1000
AcDbSavedByObjectVersion
1070
     0
  0
VISUALSTYLE
  5
10022
102
{ACAD_REACTORS
330
1001D
102
}
330
1001D
100
AcDbVisualStyle
  2
Basic
 70
     7
177
     3
291
     1
 70
    58
 90
        1
176
     1
 90
        0
176
     1
 90
        1
176
     1
 90
        0
176
     1
 40
0.6
176
     1
 40
30.0
176
     1
 62
     7
420
 16777215
176
     1
 90
        0
176
     1
 90
        4
176
     1
 62
     7
176
     1
 62
   257
176
     1
 90
        1
176
     1
 90
        1
176
     1
 40
1.0
176
     1
 90
        8
176
     1
 62
     7
176
     1
 40
1.0
176
     1
 90
        1
176
     1
 90
        6
176
     1
 90
        2
176
     1
 62
     7
176
     1
 90
        5
176
     1
 90
        0
176
     1
 90
        0
176
     1
290
     0
176
     1
 90
        1
176
     1
 40
0.0
176
     1
 90
        0
176
     1
290
     0
176
     1
290
     1
176
     1
290
     1
176
     1
290
     0
176
     1
290
     0
176
     1
290
     0
176
     1
290
     0
176
     1
290
     0
176
     1
290
     0
176
     1
 90
       50
176
     1
 40
0.0
176
     1
 40
1.0
176
     1
 90
        0
176
     1
 62
    18
420
        0
176
     1
 90
       50
176
     1
 90
        3
176
     1
 62
     5
420
      255
176
     1
290
     0
176
     1
 90
       50
176
     1
 90
       50
176
     1
 90
       50
176
     1
290
     0
176
     1
 90
       50
176
     1
 62
   256
176
     0
 40
1.0
176
     0
 90
        2
176
     1
  1
strokes_ogs.tif
176
     1
290
     0
176
     1
 40
1.0
176
     1
 40
1.0
176
     1
1001
ACAD
1000
AcDbSavedByObjectVersion
1070
     0
  0
VISUALSTYLE
  5
10029
102
{ACAD_REACTORS
330
1001D
102
}
330
1001D
100
AcDbVisualStyle
  2
Brighten
 70
    12
177
     3
291
     1
 70
    58
 90
        2
176
     1
 90
        2
176
     1
 90
        0
176
     1
 90
        0
176
     1
 40
0.6
176
     1
 40
30.0
176
     1
 62
     7
420
 16777215
176
     1
 90
        1
176
     1
 90
        4
176
     1
 62
     7
176
     1
 62
   257
176
     1
 90
        1
176
     1
 90
        1
176
     1
 40
1.0
176
     1
 90
        8
176
     1
 62
     7
176
     1
 40
1.0
176
     1
 90
        1
176
     1
 90
        6
176
     1
 90
        2
176
     1
 62
     7
176
     1
 90
        5
176
     1
 90
        0
176
     1
 90
        0
176
     1
290
     0
176
     1
 90
        1
176
     1
 40
50.0
176
     1
 90
        0
176
     1
290
     0
176
     1
290
     1
176
     1
290
     1
176
     1
290
     0
176
     1
290
     0
176
     1
290
     0
176
     1
290
     0
176
     1
290
     0
176
     1
290
     0
176
     1
 90
       50
176
     1
 40
0.0
176
     1
 40
1.0
176
     1
 90
        0
176
     1
 62
    18
420
        0
176
     1
 90
       50
176
     1
 90
        3
176
     1
 62
     5
420
      255
176
     1
290
     0
176
     1
 90
       50
176
     1
 90
       50
176
     1
 90
       50
176
     1
290
     0
176
     1
 90
       50
176
     1
 62
   256
176
     0
 40
1.0
176
     0
 90
        2
176
     1
  1
strokes_ogs.tif
176
     1
290
     0
176
     1
 40
1.0
176
     1
 40
1.0
176
     1
1001
ACAD
1000
AcDbSavedByObjectVersion
1070
     0
  0
VISUALSTYLE
  5
1002D
102
{ACAD_REACTORS
330
1001D
102
}
330
1001D
100
AcDbVisualStyle
  2
ColorChange
 70
    16
177
     3
291
     1
 70
    58
 90
        2
176
     1
 90
        2
176
     1
 90
        3
176
     1
 90
        0
176
     1
 40
0.6
176
     1
 40
30.0
176
     1
 62
     8
420
  8421504
176
     1
 90
        1
176
     1
 90
        4
176
     1
 62
     7
176
     1
 62
   257
176
     1
 90
        1
176
     1
 90
        1
176
     1
 40
1.0
176
     1
 90
        8
176
     1
 62
     8
420
  8421504
176
     1
 40
1.0
176
     1
 90
        1
176
     1
 90
        6
176
     1
 90
        2
176
     1
 62
     7
176
     1
 90
        5
176
     1
 90
        0
176
     1
 90
        0
176
     1
290
     0
176
     1
 90
        1
176
     1
 40
0.0
176
     1
 90
        0
176
     1
290
     0
176
     1
290
     1
176
     1
290
     1
176
     1
290
     0
176
     1
290
     0
176
     1
290
     0
176
     1
290
     0
176
     1
290
     0
176
     1
290
     0
176
     1
 90
       50
176
     1
 40
0.0
176
     1
 40
1.0
176
     1
 90
        0
176
     1
 62
    18
420
        0
176
     1
 90
       50
176
     1
 90
        3
176
     1
 62
     5
420
      255
176
     1
290
     0
176
     1
 90
       50
176
     1
 90
       50
176
     1
 90
       50
176
     1
290
     0
176
     1
 90
       50
176
     1
 62
   256
176
     0
 40
1.0
176
     0
 90
        2
176
     1
  1
strokes_ogs.tif
176
     1
290
     0
176
     1
 40
1.0
176
     1
 40
1.0
176
     1
1001
ACAD
1000
AcDbSavedByObjectVersion
1070
     0
  0
VISUALSTYLE
  5
10026
102
{ACAD_REACTORS
330
1001D
102
}
330
1001D
100
AcDbVisualStyle
  2
Conceptual
 70
     9
177
     3
291
     0
 70
    58
 90
        3
176
     1
 90
        2
176
     1
 90
        0
176
     1
 90
        0
176
     1
 40
0.6
176
     1
 40
30.0
176
     1
 62
     7
420
 16777215
176
     1
 90
        2
176
     1
 90
        2
176
     1
 62
     7
176
     1
 62
   257
176
     1
 90
        1
176
     1
 90
        1
176
     1
 40
179.0
176
     1
 90
        8
176
     1
 62
     7
176
     1
 40
1.0
176
     1
 90
        1
176
     1
 90
        6
176
     1
 90
        2
176
     1
 62
     7
176
     1
 90
        3
176
     1
 90
        0
176
     1
 90
        0
176
     1
290
     0
176
     1
 90
        1
176
     1
 40
0.0
176
     1
 90
        0
176
     1
290
     0
176
     1
290
     1
176
     1
290
     1
176
     1
290
     0
176
     1
290
     0
176
     1
290
     0
176
     1
290
     0
176
     1
290
     0
176
     1
290
     0
176
     1
 90
       50
176
     1
 40
0.0
176
     1
 40
1.0
176
     1
 90
        0
176
     1
 62
    18
420
        0
176
     1
 90
       50
176
     1
 90
        3
176
     1
 62
     5
420
      255
176
     1
290
     0
176
     1
 90
       50
176
     1
 90
       50
176
     1
 90
       50
176
     1
290
     0
176
     1
 90
       50
176
     1
 62
   256
176
     0
 40
1.0
176
     0
 90
        2
176
     1
  1
strokes_ogs.tif
176
     1
290
     0
176
     1
 40
1.0
176
     1
 40
1.0
176
     1
1001
ACAD
1000
AcDbSavedByObjectVersion
1070
     0
  0
VISUALSTYLE
  5
10028
102
{ACAD_REACTORS
330
1001D
102
}
330
1001D
100
AcDbVisualStyle
  2
Dim
 70
    11
177
     3
291
     1
 70
    58
 90
        2
176
     1
 90
        2
176
     1
 90
        0
176
     1
 90
        0
176
     1
 40
0.6
176
     1
 40
30.0
176
     1
 62
     7
420
 16777215
176
     1
 90
        1
176
     1
 90
        4
176
     1
 62
     7
176
     1
 62
   257
176
     1
 90
        1
176
     1
 90
        1
176
     1
 40
1.0
176
     1
 90
        8
176
     1
 62
     7
176
     1
 40
1.0
176
     1
 90
        1
176
     1
 90
        6
176
     1
 90
        2
176
     1
 62
     7
176
     1
 90
        5
176
     1
 90
        0
176
     1
 90
        0
176
     1
290
     0
176
     1
 90
        1
176
     1
 40
-50.0
176
     1
 90
        0
176
     1
290
     0
176
     1
290
     1
176
     1
290
     1
176
     1
290
     0
176
     1
290
     0
176
     1
290
     0
176
     1
290
     0
176
     1
290
     0
176
     1
290
     0
176
     1
 90
       50
176
     1
 40
0.0
176
     1
 40
1.0
176
     1
 90
        0
176
     1
 62
    18
420
        0
176
     1
 90
       50
176
     1
 90
        3
176
     1
 62
     5
420
      255
176
     1
290
     0
176
     1
 90
       50
176
     1
 90
       50
176
     1
 90
       50
176
     1
290
     0
176
     1
 90
       50
176
     1
 62
   256
176
     0
 40
1.0
176
     0
 90
        2
176
     1
  1
strokes_ogs.tif
176
     1
290
     0
176
     1
 40
1.0
176
     1
 40
1.0
176
     1
1001
ACAD
1000
AcDbSavedByObjectVersion
1070
     0
  0
VISUALSTYLE
  5
10035
102
{ACAD_REACTORS
330
1001D
102
}
330
1001D
100
AcDbVisualStyle
  2
EdgeColorOff
 70
    22
177
     3
291
     1
 70
    58
 90
        2
176
     0
 90
        2
176
     0
 90
        0
176
     0
 90
        0
176
     0
 40
0.6
176
     0
 40
30.0
176
     0
 62
     7
420
 16777215
176
     0
 90
        1
176
     0
 90
        4
176
     0
 62
     7
176
     0
 62
   257
176
     0
 90
        1
176
     0
 90
        1
176
     0
 40
1.0
176
     0
 90
        8
176
     2
 62
     7
176
     0
 40
1.0
176
     0
 90
        1
176
     0
 90
        6
176
     0
 90
        2
176
     0
 62
     7
176
     0
 90
        5
176
     0
 90
        0
176
     0
 90
        0
176
     0
290
     0
176
     0
 90
        1
176
     0
 40
0.0
176
     0
 90
        0
176
     0
290
     0
176
     1
290
     1
176
     1
290
     1
176
     1
290
     0
176
     1
290
     0
176
     1
290
     0
176
     1
290
     0
176
     1
290
     0
176
     1
290
     0
176
     1
 90
       50
176
     0
 40
0.0
176
     0
 40
1.0
176
     0
 90
        0
176
     0
 62
    18
420
        0
176
     0
 90
       50
176
     0
 90
        3
176
     0
 62
     5
420
      255
176
     0
290
     0
176
     1
 90
       50
176
     0
 90
       50
176
     0
 90
       50
176
     0
290
     0
176
     1
 90
       50
176
     0
 62
   256
176
     0
 40
1.0
176
     0
 90
        2
176
     0
  1
strokes_ogs.tif
176
     0
290
     0
176
     1
 40
1.0
176
     0
 40
1.0
176
     0
1001
ACAD
1000
AcDbSavedByObjectVersion
1070
     0
  0
VISUALSTYLE
  5
1002C
102
{ACAD_REACTORS
330
1001D
102
}
330
1001D
100
AcDbVisualStyle
  2
Facepattern
 70
    15
177
     3
291
     1
 70
    58
 90
        2
176
     1
 90
        2
176
     1
 90
        0
176
     1
 90
        0
176
     1
 40
0.6
176
     1
 40
30.0
176
     1
 62
     7
420
 16777215
176
     1
 90
        1
176
     1
 90
        4
176
     1
 62
     7
176
     1
 62
   257
176
     1
 90
        1
176
     1
 90
        1
176
     1
 40
1.0
176
     1
 90
        8
176
     1
 62
     7
176
     1
 40
1.0
176
     1
 90
        1
176
     1
 90
        6
176
     1
 90
        2
176
     1
 62
     7
176
     1
 90
        5
176
     1
 90
        0
176
     1
 90
        0
176
     1
290
     0
176
     1
 90
        1
176
     1
 40
0.0
176
     1
 90
        0
176
     1
290
     0
176
     1
290
     1
176
     1
290
     1
176
     1
290
     0
176
     1
290
     0
176
     1
290
     0
176
     1
290
     0
176
     1
290
     0
176
     1
290
     0
176
     1
 90
       50
176
     1
 40
0.0
176
     1
 40
1.0
176
     1
 90
        0
176
     1
 62
    18
420
        0
176
     1
 90
       50
176
     1
 90
        3
176
     1
 62
     5
420
      255
176
     1
290
     0
176
     1
 90
       50
176
     1
 90
       50
176
     1
 90
       50
176
     1
290
     0
176
     1
 90
       50
176
     1
 62
   256
176
     0
 40
1.0
176
     0
 90
        2
176
     1
  1
strokes_ogs.tif
176
     1
290
     0
176
     1
 40
1.0
176
     1
 40
1.0
176
     1
1001
ACAD
1000
AcDbSavedByObjectVersion
1070
     0
  0
VISUALSTYLE
  5
1001E
102
{ACAD_REACTORS
330
1001D
102
}
330
1001D
100
AcDbVisualStyle
  2
Flat
 70
     0
177
     3
291
     1
 70
    58
 90
        2
176
     1
 90
        1
176
     1
 90
        1
176
     1
 90
        2
176
     1
 40
0.6
176
     1
 40
30.0
176
     1
 62
     7
420
 16777215
176
     1
 90
        0
176
     1
 90
        0
176
     1
 62
     7
176
     1
 62
   257
176
     1
 90
        1
176
     1
 90
        1
176
     1
 40
1.0
176
     1
 90
        8
176
     1
 62
     7
176
     1
 40
1.0
176
     1
 90
        1
176
     1
 90
        6
176
     1
 90
        2
176
     1
 62
     7
176
     1
 90
        5
176
     1
 90
        0
176
     1
 90
        0
176
     1
290
     0
176
     1
 90
       13
176
     1
 40
0.0
176
     1
 90
        0
176
     1
290
     0
176
     1
290
     1
176
     1
290
     1
176
     1
290
     0
176
     1
290
     0
176
     1
290
     0
176
     1
290
     0
176
     1
290
     0
176
     1
290
     0
176
     1
 90
       50
176
     1
 40
0.0
176
     1
 40
1.0
176
     1
 90
        0
176
     1
 62
    18
420
        0
176
     1
 90
       50
176
     1
 90
        3
176
     1
 62
     5
420
      255
176
     1
290
     0
176
     1
 90
       50
176
     1
 90
       50
176
     1
 90
       50
176
     1
290
     0
176
     1
 90
       50
176
     1
 62
   256
176
     0
 40
1.0
176
     0
 90
        2
176
     1
  1
strokes_ogs.tif
176
     1
290
     0
176
     1
 40
1.0
176
     1
 40
1.0
176
     1
1001
ACAD
1000
AcDbSavedByObjectVersion
1070
     0
  0
VISUALSTYLE
  5
1001F
102
{ACAD_REACTORS
330
1001D
102
}
330
1001D
100
AcDbVisualStyle
  2
FlatWithEdges
 70
     1
177
     3
291
     1
 70
    58
 90
        2
176
     1
 90
        1
176
     1
 90
        1
176
     1
 90
        2
176
     1
 40
0.6
176
     1
 40
30.0
176
     1
 62
     7
420
 16777215
176
     1
 90
        1
176
     1
 90
        0
176
     1
 62
     7
176
     1
 62
   257
176
     1
 90
        1
176
     1
 90
        1
176
     1
 40
1.0
176
     1
 90
        0
176
     1
 62
   257
176
     1
 40
1.0
176
     1
 90
        1
176
     1
 90
        6
176
     1
 90
        2
176
     1
 62
     7
176
     1
 90
        5
176
     1
 90
        0
176
     1
 90
        0
176
     1
290
     0
176
     1
 90
       13
176
     1
 40
0.0
176
     1
 90
        0
176
     1
290
     0
176
     1
290
     1
176
     1
290
     1
176
     1
290
     0
176
     1
290
     0
176
     1
290
     0
176
     1
290
     0
176
     1
290
     0
176
     1
290
     0
176
     1
 90
       50
176
     1
 40
0.0
176
     1
 40
1.0
176
     1
 90
        0
176
     1
 62
    18
420
        0
176
     1
 90
       50
176
     1
 90
        3
176
     1
 62
     5
420
      255
176
     1
290
     0
176
     1
 90
       50
176
     1
 90
       50
176
     1
 90
       50
176
     1
290
     0
176
     1
 90
       50
176
     1
 62
   256
176
     0
 40
1.0
176
     0
 90
        2
176
     1
  1
strokes_ogs.tif
176
     1
290
     0
176
     1
 40
1.0
176
     1
 40
1.0
176
     1
1001
ACAD
1000
AcDbSavedByObjectVersion
1070
     0
  0
VISUALSTYLE
  5
10020
102
{ACAD_REACTORS
330
1001D
102
}
330
1001D
100
AcDbVisualStyle
  2
Gouraud
 70
     2
177
     3
291
     1
 70
    58
 90
        2
176
     1
 90
        2
176
     1
 90
        1
176
     1
 90
        2
176
     1
 40
0.6
176
     1
 40
30.0
176
     1
 62
     7
420
 16777215
176
     1
 90
        0
176
     1
 90
        0
176
     1
 62
     7
176
     1
 62
   257
176
     1
 90
        1
176
     1
 90
        1
176
     1
 40
1.0
176
     1
 90
        0
176
     1
 62
     7
176
     1
 40
1.0
176
     1
 90
        1
176
     1
 90
        6
176
     1
 90
        2
176
     1
 62
     7
176
     1
 90
        5
176
     1
 90
        0
176
     1
 90
        0
176
     1
290
     0
176
     1
 90
       13
176
     1
 40
0.0
176
     1
 90
        0
176
     1
290
     0
176
     1
290
     1
176
     1
290
     1
176
     1
290
     0
176
     1
290
     0
176
     1
290
     0
176
     1
290
     0
176
     1
290
     0
176
     1
290
     0
176
     1
 90
       50
176
     1
 40
0.0
176
     1
 40
1.0
176
     1
 90
        0
176
     1
 62
    18
420
        0
176
     1
 90
       50
176
     1
 90
        3
176
     1
 62
     5
420
      255
176
     1
290
     0
176
     1
 90
       50
176
     1
 90
       50
176
     1
 90
       50
176
     1
290
     0
176
     1
 90
       50
176
     1
 62
   256
176
     0
 40
1.0
176
     0
 90
        2
176
     1
  1
strokes_ogs.tif
176
     1
290
     0
176
     1
 40
1.0
176
     1
 40
1.0
176
     1
1001
ACAD
1000
AcDbSavedByObjectVersion
1070
     0
  0
VISUALSTYLE
  5
10021
102
{ACAD_REACTORS
330
1001D
102
}
330
1001D
100
AcDbVisualStyle
  2
GouraudWithEdges
 70
     3
177
     3
291
     1
 70
    58
 90
        2
176
     1
 90
        2
176
     1
 90
        1
176
     1
 90
        2
176
     1
 40
0.6
176
     1
 40
30.0
176
     1
 62
     7
420
 16777215
176
     1
 90
        1
176
     1
 90
        0
176
     1
 62
     7
176
     1
 62
   257
176
     1
 90
        1
176
     1
 90
        1
176
     1
 40
1.0
176
     1
 90
        0
176
     1
 62
   257
176
     1
 40
1.0
176
     1
 90
        1
176
     1
 90
        6
176
     1
 90
        2
176
     1
 62
     7
176
     1
 90
        5
176
     1
 90
        0
176
     1
 90
        0
176
     1
290
     0
176
     1
 90
       13
176
     1
 40
0.0
176
     1
 90
        0
176
     1
290
     0
176
     1
290
     1
176
     1
290
     1
176
     1
290
     0
176
     1
290
     0
176
     1
290
     0
176
     1
290
     0
176
     1
290
     0
176
     1
290
     0
176
     1
 90
       50
176
     1
 40
0.0
176
     1
 40
1.0
176
     1
 90
        0
176
     1
 62
    18
420
        0
176
     1
 90
       50
176
     1
 90
        3
176
     1
 62
     5
420
      255
176
     1
290
     0
176
     1
 90
       50
176
     1
 90
       50
176
     1
 90
       50
176
     1
290
     0
176
     1
 90
       50
176
     1
 62
   256
176
     0
 40
1.0
176
     0
 90
        2
176
     1
  1
strokes_ogs.tif
176
     1
290
     0
176
     1
 40
1.0
176
     1
 40
1.0
176
     1
1001
ACAD
1000
AcDbSavedByObjectVersion
1070
     0
  0
VISUALSTYLE
  5
10025
102
{ACAD_REACTORS
330
1001D
102
}
330
1001D
100
AcDbVisualStyle
  2
Hidden
 70
     6
177
     3
291
     0
 70
    58
 90
        1
176
     1
 90
        2
176
     1
 90
        2
176
     1
 90
        0
176
     1
 40
0.6
176
     1
 40
30.0
176
     1
 62
     7
420
 16777215
176
     1
 90
        2
176
     1
 90
        2
176
     1
 62
     7
176
     1
 62
   257
176
     1
 90
        2
176
     1
 90
        1
176
     1
 40
40.0
176
     1
 90
        0
176
     1
 62
   257
176
     1
 40
1.0
176
     1
 90
        1
176
     1
 90
        6
176
     1
 90
        2
176
     1
 62
     7
176
     1
 90
        3
176
     1
 90
        0
176
     1
 90
        0
176
     1
290
     0
176
     1
 90
        1
176
     1
 40
0.0
176
     1
 90
        0
176
     1
290
     0
176
     1
290
     1
176
     1
290
     1
176
     1
290
     0
176
     1
290
     0
176
     1
290
     0
176
     1
290
     0
176
     1
290
     0
176
     1
290
     0
176
     1
 90
       50
176
     1
 40
0.0
176
     1
 40
1.0
176
     1
 90
        0
176
     1
 62
    18
420
        0
176
     1
 90
       50
176
     1
 90
        3
176
     1
 62
     5
420
      255
176
     1
290
     0
176
     1
 90
       50
176
     1
 90
       50
176
     1
 90
       50
176
     1
290
     0
176
     1
 90
       50
176
     1
 62
   256
176
     0
 40
1.0
176
     0
 90
        2
176
     1
  1
strokes_ogs.tif
176
     1
290
     0
176
     1
 40
1.0
176
     1
 40
1.0
176
     1
1001
ACAD
1000
AcDbSavedByObjectVersion
1070
     0
  0
VISUALSTYLE
  5
10033
102
{ACAD_REACTORS
330
1001D
102
}
330
1001D
100
AcDbVisualStyle
  2
JitterOff
 70
    20
177
     3
291
     1
 70
    58
 90
        2
176
     0
 90
        2
176
     0
 90
        0
176
     0
 90
        0
176
     0
 40
0.6
176
     0
 40
30.0
176
     0
 62
     7
420
 16777215
176
     0
 90
        1
176
     0
 90
        4
176
     0
 62
     7
176
     0
 62
   257
176
     0
 90
        1
176
     0
 90
        1
176
     0
 40
1.0
176
     0
 90
       10
176
     2
 62
     7
176
     0
 40
1.0
176
     0
 90
        1
176
     0
 90
        6
176
     0
 90
        2
176
     0
 62
     7
176
     0
 90
        5
176
     0
 90
        0
176
     0
 90
        0
176
     0
290
     0
176
     0
 90
        1
176
     0
 40
0.0
176
     0
 90
        0
176
     0
290
     0
176
     1
290
     1
176
     1
290
     1
176
     1
290
     0
176
     1
290
     0
176
     1
290
     0
176
     1
290
     0
176
     1
290
     0
176
     1
290
     0
176
     1
 90
       50
176
     0
 40
0.0
176
     0
 40
1.0
176
     0
 90
        0
176
     0
 62
    18
420
        0
176
     0
 90
       50
176
     0
 90
        3
176
     0
 62
     5
420
      255
176
     0
290
     0
176
     1
 90
       50
176
     0
 90
       50
176
     0
 90
       50
176
     0
290
     0
176
     1
 90
       50
176
     0
 62
   256
176
     0
 40
1.0
176
     0
 90
        2
176
     0
  1
strokes_ogs.tif
176
     0
290
     0
176
     1
 40
1.0
176
     0
 40
1.0
176
     0
1001
ACAD
1000
AcDbSavedByObjectVersion
1070
     0
  0
VISUALSTYLE
  5
1002B
102
{ACAD_REACTORS
330
1001D
102
}
330
1001D
100
AcDbVisualStyle
  2
Linepattern
 70
    14
177
     3
291
     1
 70
    58
 90
        2
176
     1
 90
        2
176
     1
 90
        0
176
     1
 90
        0
176
     1
 40
0.6
176
     1
 40
30.0
176
     1
 62
     7
420
 16777215
176
     1
 90
        1
176
     1
 90
        4
176
     1
 62
     7
176
     1
 62
   257
176
     1
 90
        7
176
     1
 90
        7
176
     1
 40
1.0
176
     1
 90
        8
176
     1
 62
     7
176
     1
 40
1.0
176
     1
 90
        1
176
     1
 90
        6
176
     1
 90
        2
176
     1
 62
     7
176
     1
 90
        5
176
     1
 90
        0
176
     1
 90
        0
176
     1
290
     0
176
     1
 90
        1
176
     1
 40
0.0
176
     1
 90
        0
176
     1
290
     0
176
     1
290
     1
176
     1
290
     1
176
     1
290
     0
176
     1
290
     0
176
     1
290
     0
176
     1
290
     0
176
     1
290
     0
176
     1
290
     0
176
     1
 90
       50
176
     1
 40
0.0
176
     1
 40
1.0
176
     1
 90
        0
176
     1
 62
    18
420
        0
176
     1
 90
       50
176
     1
 90
        3
176
     1
 62
     5
420
      255
176
     1
290
     0
176
     1
 90
       50
176
     1
 90
       50
176
     1
 90
       50
176
     1
290
     0
176
     1
 90
       50
176
     1
 62
   256
176
     0
 40
1.0
176
     0
 90
        2
176
     1
  1
strokes_ogs.tif
176
     1
290
     0
176
     1
 40
1.0
176
     1
 40
1.0
176
     1
1001
ACAD
1000
AcDbSavedByObjectVersion
1070
     0
  0
VISUALSTYLE
  5
10034
102
{ACAD_REACTORS
330
1001D
102
}
330
1001D
100
AcDbVisualStyle
  2
OverhangOff
 70
    21
177
     3
291
     1
 70
    58
 90
        2
176
     0
 90
        2
176
     0
 90
        0
176
     0
 90
        0
176
     0
 40
0.6
176
     0
 40
30.0
176
     0
 62
     7
420
 16777215
176
     0
 90
        1
176
     0
 90
        4
176
     0
 62
     7
176
     0
 62
   257
176
     0
 90
        1
176
     0
 90
        1
176
     0
 40
1.0
176
     0
 90
        9
176
     2
 62
     7
176
     0
 40
1.0
176
     0
 90
        1
176
     0
 90
        6
176
     0
 90
        2
176
     0
 62
     7
176
     0
 90
        5
176
     0
 90
        0
176
     0
 90
        0
176
     0
290
     0
176
     0
 90
        1
176
     0
 40
0.0
176
     0
 90
        0
176
     0
290
     0
176
     1
290
     1
176
     1
290
     1
176
     1
290
     0
176
     1
290
     0
176
     1
290
     0
176
     1
290
     0
176
     1
290
     0
176
     1
290
     0
176
     1
 90
       50
176
     0
 40
0.0
176
     0
 40
1.0
176
     0
 90
        0
176
     0
 62
    18
420
        0
176
     0
 90
       50
176
     0
 90
        3
176
     0
 62
     5
420
      255
176
     0
290
     0
176
     1
 90
       50
176
     0
 90
       50
176
     0
 90
       50
176
     0
290
     0
176
     1
 90
       50
176
     0
 62
   256
176
     0
 40
1.0
176
     0
 90
        2
176
     0
  1
strokes_ogs.tif
176
     0
290
     0
176
     1
 40
1.0
176
     0
 40
1.0
176
     0
1001
ACAD
1000
AcDbSavedByObjectVersion
1070
     0
  0
VISUALSTYLE
  5
10027
102
{ACAD_REACTORS
330
1001D
102
}
330
1001D
100
AcDbVisualStyle
  2
Realistic
 70
     8
177
     3
291
     0
 70
    58
 90
        2
176
     1
 90
        3
176
     1
 90
        0
176
     1
 90
        2
176
     1
 40
0.6
176
     1
 40
30.0
176
     1
 62
     7
420
 16777215
176
     1
 90
        0
176
     1
 90
        0
176
     1
 62
     7
176
     1
 62
   257
176
     1
 90
        1
176
     1
 90
        1
176
     1
 40
1.0
176
     1
 90
        8
176
     1
 62
   257
176
     1
 40
1.0
176
     1
 90
        1
176
     1
 90
        6
176
     1
 90
        2
176
     1
 62
     7
176
     1
 90
        3
176
     1
 90
        0
176
     1
 90
        0
176
     1
290
     0
176
     1
 90
       13
176
     1
 40
0.0
176
     1
 90
        0
176
     1
290
     0
176
     1
290
     1
176
     1
290
     1
176
     1
290
     0
176
     1
290
     0
176
     1
290
     0
176
     1
290
     0
176
     1
290
     0
176
     1
290
     0
176
     1
 90
       50
176
     1
 40
0.0
176
     1
 40
1.0
176
     1
 90
        0
176
     1
 62
    18
420
        0
176
     1
 90
       50
176
     1
 90
        3
176
     1
 62
     5
420
      255
176
     1
290
     0
176
     1
 90
       50
176
     1
 90
       50
176
     1
 90
       50
176
     1
290
     0
176
     1
 90
       50
176
     1
 62
   256
176
     0
 40
1.0
176
     0
 90
        2
176
     1
  1
strokes_ogs.tif
176
     1
290
     0
176
     1
 40
1.0
176
     1
 40
1.0
176
     1
1001
ACAD
1000
AcDbSavedByObjectVersion
1070
     0
  0
VISUALSTYLE
  5
10032
102
{ACAD_REACTORS
330
1001D
102
}
330
1001D
100
AcDbVisualStyle
  2
Shaded
 70
    27
177
     3
291
     0
 70
    58
 90
        2
176
     1
 90
        2
176
     1
 90
        1
176
     1
 90
        2
176
     1
 40
0.6
176
     1
 40
30.0
176
     1
 62
     7
420
 16777215
176
     1
 90
        0
176
     1
 90
        4
176
     1
 62
     7
176
     1
 62
   257
176
     1
 90
        1
176
     1
 90
        1
176
     1
 40
1.0
176
     1
 90
        8
176
     1
 62
   257
176
     1
 40
1.0
176
     1
 90
        1
176
     1
 90
        6
176
     1
 90
        2
176
     1
 62
     8
420
  7895160
176
     1
 90
        3
176
     1
 90
        0
176
     1
 90
        0
176
     1
290
     0
176
     1
 90
        5
176
     1
 40
0.0
176
     1
 90
        0
176
     1
290
     0
176
     1
290
     1
176
     1
290
     1
176
     1
290
     0
176
     1
290
     0
176
     1
290
     0
176
     1
290
     0
176
     1
290
     0
176
     1
290
     0
176
     1
 90
       50
176
     1
 40
0.0
176
     1
 40
1.0
176
     1
 90
        0
176
     1
 62
    18
420
        0
176
     1
 90
       50
176
     1
 90
        3
176
     1
 62
     5
420
      255
176
     1
290
     0
176
     1
 90
       50
176
     1
 90
       50
176
     1
 90
       50
176
     1
290
     0
176
     1
 90
       50
176
     1
 62
   256
176
     0
 40
1.0
176
     0
 90
        2
176
     1
  1
strokes_ogs.tif
176
     1
290
     0
176
     1
 40
1.0
176
     1
 40
1.0
176
     1
1001
ACAD
1000
AcDbSavedByObjectVersion
1070
     0
  0
VISUALSTYLE
  5
10031
102
{ACAD_REACTORS
330
1001D
102
}
330
1001D
100
AcDbVisualStyle
  2
Shaded with edges
 70
    26
177
     3
291
     0
 70
    58
 90
        2
176
     1
 90
        2
176
     1
 90
        1
176
     1
 90
        2
176
     1
 40
0.6
176
     1
 40
30.0
176
     1
 62
     7
420
 16777215
176
     1
 90
        1
176
     1
 90
        2
176
     1
 62
     7
176
     1
 62
   257
176
     1
 90
        2
176
     1
 90
        1
176
     1
 40
1.0
176
     1
 90
        8
176
     1
 62
   257
176
     1
 40
1.0
176
     1
 90
        1
176
     1
 90
        6
176
     1
 90
        2
176
     1
 62
     7
176
     1
 90
        3
176
     1
 90
        0
176
     1
 90
        0
176
     1
290
     0
176
     1
 90
        5
176
     1
 40
0.0
176
     1
 90
        0
176
     1
290
     0
176
     1
290
     1
176
     1
290
     1
176
     1
290
     0
176
     1
290
     0
176
     1
290
     0
176
     1
290
     0
176
     1
290
     0
176
     1
290
     0
176
     1
 90
       50
176
     1
 40
0.0
176
     1
 40
1.0
176
     1
 90
        0
176
     1
 62
    18
420
        0
176
     1
 90
       50
176
     1
 90
        3
176
     1
 62
     5
420
      255
176
     1
290
     0
176
     1
 90
       50
176
     1
 90
       50
176
     1
 90
       50
176
     1
290
     0
176
     1
 90
       50
176
     1
 62
   256
176
     0
 40
1.0
176
     0
 90
        2
176
     1
  1
strokes_ogs.tif
176
     1
290
     0
176
     1
 40
1.0
176
     1
 40
1.0
176
     1
1001
ACAD
1000
AcDbSavedByObjectVersion
1070
     0
  0
VISUALSTYLE
  5
1002E
102
{ACAD_REACTORS
330
1001D
102
}
330
1001D
100
AcDbVisualStyle
  2
Shades of Gray
 70
    23
177
     3
291
     0
 70
    58
 90
        2
176
     1
 90
        2
176
     1
 90
        3
176
     1
 90
        0
176
     1
 40
0.6
176
     1
 40
30.0
176
     1
 62
     7
420
 16777215
176
     1
 90
        2
176
     1
 90
        2
176
     1
 62
     7
176
     1
 62
     7
176
     1
 90
        1
176
     1
 90
        1
176
     1
 40
40.0
176
     1
 90
        8
176
     1
 62
     7
176
     1
 40
1.0
176
     1
 90
        1
176
     1
 90
        6
176
     1
 90
        2
176
     1
 62
     7
176
     1
 90
        3
176
     1
 90
        0
176
     1
 90
        0
176
     1
290
     0
176
     1
 90
        1
176
     1
 40
0.0
176
     1
 90
        0
176
     1
290
     0
176
     1
290
     1
176
     1
290
     1
176
     1
290
     0
176
     1
290
     0
176
     1
290
     0
176
     1
290
     0
176
     1
290
     0
176
     1
290
     0
176
     1
 90
       50
176
     1
 40
0.0
176
     1
 40
1.0
176
     1
 90
        0
176
     1
 62
    18
420
        0
176
     1
 90
       50
176
     1
 90
        3
176
     1
 62
     5
420
      255
176
     1
290
     0
176
     1
 90
       50
176
     1
 90
       50
176
     1
 90
       50
176
     1
290
     0
176
     1
 90
       50
176
     1
 62
   256
176
     0
 40
1.0
176
     0
 90
        2
176
     1
  1
strokes_ogs.tif
176
     1
290
     0
176
     1
 40
1.0
176
     1
 40
1.0
176
     1
1001
ACAD
1000
AcDbSavedByObjectVersion
1070
     0
  0
VISUALSTYLE
  5
1002F
102
{ACAD_REACTORS
330
1001D
102
}
330
1001D
100
AcDbVisualStyle
  2
Sketchy
 70
    24
177
     3
291
     0
 70
    58
 90
        1
176
     1
 90
        2
176
     1
 90
        2
176
     1
 90
        0
176
     1
 40
0.6
176
     1
 40
30.0
176
     1
 62
     7
420
 16777215
176
     1
 90
        2
176
     1
 90
        2
176
     1
 62
     7
176
     1
 62
     7
176
     1
 90
        1
176
     1
 90
        1
176
     1
 40
40.0
176
     1
 90
       11
176
     1
 62
     7
176
     1
 40
1.0
176
     1
 90
        1
176
     1
 90
        6
176
     1
 90
        2
176
     1
 62
     7
176
     1
 90
        6
176
     1
 90
        0
176
     1
 90
        0
176
     1
290
     0
176
     1
 90
        1
176
     1
 40
0.0
176
     1
 90
        0
176
     1
290
     0
176
     1
290
     1
176
     1
290
     1
176
     1
290
     0
176
     1
290
     0
176
     1
290
     0
176
     1
290
     0
176
     1
290
     0
176
     1
290
     0
176
     1
 90
       50
176
     1
 40
0.0
176
     1
 40
1.0
176
     1
 90
        0
176
     1
 62
    18
420
        0
176
     1
 90
       50
176
     1
 90
        3
176
     1
 62
     5
420
      255
176
     1
290
     0
176
     1
 90
       50
176
     1
 90
       50
176
     1
 90
       50
176
     1
290
     0
176
     1
 90
       50
176
     1
 62
   256
176
     0
 40
1.0
176
     0
 90
        2
176
     1
  1
strokes_ogs.tif
176
     1
290
     0
176
     1
 40
1.0
176
     1
 40
1.0
176
     1
1001
ACAD
1000
AcDbSavedByObjectVersion
1070
     0
  0
VISUALSTYLE
  5
1002A
102
{ACAD_REACTORS
330
1001D
102
}
330
1001D
100
AcDbVisualStyle
  2
Thicken
 70
    13
177
     3
291
     1
 70
    58
 90
        2
176
     1
 90
        2
176
     1
 90
        0
176
     1
 90
        0
176
     1
 40
0.6
176
     1
 40
30.0
176
     1
 62
     7
420
 16777215
176
     1
 90
        1
176
     1
 90
        4
176
     1
 62
     7
176
     1
 62
   257
176
     1
 90
        1
176
     1
 90
        1
176
     1
 40
1.0
176
     1
 90
       12
176
     1
 62
     7
176
     1
 40
1.0
176
     1
 90
        1
176
     1
 90
        6
176
     1
 90
        2
176
     1
 62
     7
176
     1
 90
        5
176
     1
 90
        0
176
     1
 90
        0
176
     1
290
     0
176
     1
 90
        1
176
     1
 40
0.0
176
     1
 90
        0
176
     1
290
     0
176
     1
290
     1
176
     1
290
     1
176
     1
290
     0
176
     1
290
     0
176
     1
290
     0
176
     1
290
     0
176
     1
290
     0
176
     1
290
     0
176
     1
 90
       50
176
     1
 40
0.0
176
     1
 40
1.0
176
     1
 90
        0
176
     1
 62
    18
420
        0
176
     1
 90
       50
176
     1
 90
        3
176
     1
 62
     5
420
      255
176
     1
290
     0
176
     1
 90
       50
176
     1
 90
       50
176
     1
 90
       50
176
     1
290
     0
176
     1
 90
       50
176
     1
 62
   256
176
     0
 40
1.0
176
     0
 90
        2
176
     1
  1
strokes_ogs.tif
176
     1
290
     0
176
     1
 40
1.0
176
     1
 40
1.0
176
     1
1001
ACAD
1000
AcDbSavedByObjectVersion
1070
     0
  0
VISUALSTYLE
  5
10024
102
{ACAD_REACTORS
330
1001D
102
}
330
1001D
100
AcDbVisualStyle
  2
Wireframe
 70
     5
177
     3
291
     0
 70
    58
 90
        0
176
     1
 90
        2
176
     1
 90
        0
176
     1
 90
        0
176
     1
 40
0.6
176
     1
 40
30.0
176
     1
 62
     7
420
 16777215
176
     1
 90
        1
176
     1
 90
        4
176
     1
 62
     7
176
     1
 62
   257
176
     1
 90
        1
176
     1
 90
        1
176
     1
 40
1.0
176
     1
 90
        0
176
     1
 62
   257
176
     1
 40
1.0
176
     1
 90
        1
176
     1
 90
        6
176
     1
 90
        2
176
     1
 62
     7
176
     1
 90
        3
176
     1
 90
        0
176
     1
 90
        0
176
     1
290
     0
176
     1
 90
        1
176
     1
 40
0.0
176
     1
 90
        0
176
     1
290
     0
176
     1
290
     1
176
     1
290
     1
176
     1
290
     0
176
     1
290
     0
176
     1
290
     0
176
     1
290
     0
176
     1
290
     0
176
     1
290
     0
176
     1
 90
       50
176
     1
 40
0.0
176
     1
 40
1.0
176
     1
 90
        0
176
     1
 62
    18
420
        0
176
     1
 90
       50
176
     1
 90
        3
176
     1
 62
     5
420
      255
176
     1
290
     0
176
     1
 90
       50
176
     1
 90
       50
176
     1
 90
       50
176
     1
290
     0
176
     1
 90
       50
176
     1
 62
   256
176
     0
 40
1.0
176
     0
 90
        2
176
     1
  1
strokes_ogs.tif
176
     1
290
     0
176
     1
 40
1.0
176
     1
 40
1.0
176
     1
1001
ACAD
1000
AcDbSavedByObjectVersion
1070
     0
  0
VISUALSTYLE
  5
10030
102
{ACAD_REACTORS
330
1001D
102
}
330
1001D
100
AcDbVisualStyle
  2
X-Ray
 70
    25
177
     3
291
     0
 70
    58
 90
        2
176
     1
 90
        2
176
     1
 90
        1
176
     1
 90
        1
176
     1
 40
0.5
176
     1
 40
30.0
176
     1
 62
     7
420
 16777215
176
     1
 90
        1
176
     1
 90
        0
176
     1
 62
     7
176
     1
 62
   257
176
     1
 90
        1
176
     1
 90
        1
176
     1
 40
1.0
176
     1
 90
        8
176
     1
 62
     7
176
     1
 40
1.0
176
     1
 90
        1
176
     1
 90
        6
176
     1
 90
        2
176
     1
 62
     7
176
     1
 90
        3
176
     1
 90
        0
176
     1
 90
        0
176
     1
290
     0
176
     1
 90
       13
176
     1
 40
0.0
176
     1
 90
        0
176
     1
290
     0
176
     1
290
     1
176
     1
290
     1
176
     1
290
     0
176
     1
290
     0
176
     1
290
     0
176
     1
290
     0
176
     1
290
     0
176
     1
290
     0
176
     1
 90
       50
176
     1
 40
0.0
176
     1
 40
1.0
176
     1
 90
        0
176
     1
 62
    18
420
        0
176
     1
 90
       50
176
     1
 90
        3
176
     1
 62
     5
420
      255
176
     1
290
     0
176
     1
 90
       50
176
     1
 90
       50
176
     1
 90
       50
176
     1
290
     0
176
     1
 90
       50
176
     1
 62
   256
176
     0
 40
1.0
176
     0
 90
        2
176
     1
  1
strokes_ogs.tif
176
     1
290
     0
176
     1
 40
1.0
176
     1
 40
1.0
176
     1
1001
ACAD
1000
AcDbSavedByObjectVersion
1070
     0
  0
DICTIONARYVAR
  5
100A2
102
{ACAD_REACTORS
330
1009C
102
}
330
1009C
100
DictionaryVariables
280
     0
  1
1:1
  0
DICTIONARYVAR
  5
1009E
102
{ACAD_REACTORS
330
1009C
102
}
330
1009C
100
DictionaryVariables
280
     0
  1
STANDARD
  0
DICTIONARYVAR
  5
1009D
102
{ACAD_REACTORS
330
1009C
102
}
330
1009C
100
DictionaryVariables
280
     0
  1
STANDARD
  0
DICTIONARYVAR
  5
1009F
102
{ACAD_REACTORS
330
1009C
102
}
330
1009C
100
DictionaryVariables
280
     0
  1
Imperial24
  0
DICTIONARYVAR
  5
100A0
102
{ACAD_REACTORS
330
1009C
102
}
330
1009C
100
DictionaryVariables
280
     0
  1
Imperial24
  0
DICTIONARYVAR
  5
100A4
102
{ACAD_REACTORS
330
1009C
102
}
330
1009C
100
DictionaryVariables
280
     0
  1
1
  0
DICTIONARYVAR
  5
100A5
102
{ACAD_REACTORS
330
1009C
102
}
330
1009C
100
DictionaryVariables
280
     0
  1
15
  0
DICTIONARYVAR
  5
100A3
102
{ACAD_REACTORS
330
1009C
102
}
330
1009C
100
DictionaryVariables
280
     0
  1
0
  0
DICTIONARYVAR
  5
100A1
102
{ACAD_REACTORS
330
1009C
102
}
330
1009C
100
DictionaryVariables
280
     0
  1
0
  0
DICTIONARY
  5
100BF
102
{ACAD_REACTORS
330
100BD
102
}
330
100BD
100
AcDbDictionary
281
     1
  0
DICTIONARY
  5
100BE
102
{ACAD_REACTORS
330
100BD
102
}
330
100BD
100
AcDbDictionary
281
     1
  3
2093475945216
350
100B8
  3
2093475945232
350
100B9
  3
2093475945248
350
100BA
  3
2093475945264
350
100BB
  3
2093475945280
350
100BC
  0
DICTIONARY
  5
100C2
330
10052
100
AcDbDictionary
280
     1
281
     1
  3
ACAD_XREC_ROUNDTRIP
360
100C3
  0
DICTIONARY
  5
1000E
330
1000D
100
AcDbDictionary
280
     1
281
     1
  3
BUMPTILE
360
10010
  3
DIFFUSETILE
360
1000F
  3
OPACITYTILE
360
10013
  3
REFLECTIONTILE
360
10012
  3
REFRACTIONTILE
360
10014
  3
SPECULARTILE
360
10011
  0
DICTIONARY
  5
10006
330
10005
100
AcDbDictionary
280
     1
281
     1
  3
BUMPTILE
360
10008
  3
DIFFUSETILE
360
10007
  3
OPACITYTILE
360
1000B
  3
REFLECTIONTILE
360
1000A
  3
REFRACTIONTILE
360
1000C
  3
SPECULARTILE
360
10009
  0
DICTIONARY
  5
10016
330
10015
100
AcDbDictionary
280
     1
281
     1
  3
BUMPTILE
360
10018
  3
DIFFUSETILE
360
10017
  3
OPACITYTILE
360
1001B
  3
REFLECTIONTILE
360
1001A
  3
REFRACTIONTILE
360
1001C
  3
SPECULARTILE
360
10019
  0
DICTIONARY
  5
100C0
330
10050
100
AcDbDictionary
280
     1
281
     1
  3
ACAD_XREC_ROUNDTRIP
360
100C1
  0
DICTIONARY
  5
100B5
330
10039
100
AcDbDictionary
280
     1
281
     1
  3
ACAD_ROUNDTRIP_2008_TABLESTYLE_CELLSTYLEMAP
360
100B6
  0
XRECORD
  5
100B8
102
{ACAD_REACTORS
330
100BE
102
}
330
100BE
100
AcDbXrecord
280
     1
  1
AcDb_Thumbnail_Schema
102
{ATTRRECORD
341
100B9
  2
AcDbDs::TreatedAsObjectData
280
     1
291
     1
102
ATTRRECORD}
102
{ATTRRECORD
341
100BA
  2
AcDbDs::Legacy
280
     1
291
     1
102
ATTRRECORD}
  2
AcDbDs::ID
280
    10
 91
        8
102
{ATTRRECORD
341
100BB
  2
AcDs:Indexable
280
     1
291
     1
102
ATTRRECORD}
102
{ATTRRECORD
341
100BC
  2
AcDbDs::HandleAttribute
280
     7
282
     1
102
ATTRRECORD}
  2
Thumbnail_Data
280
    15
 91
        0
  0
XRECORD
  5
100B9
102
{ACAD_REACTORS
330
100BE
102
}
330
100BE
100
AcDbXrecord
280
     1
  1
AcDbDs::TreatedAsObjectDataSchema
  2
AcDbDs::TreatedAsObjectData
280
     1
 91
        0
  0
XRECORD
  5
100BA
102
{ACAD_REACTORS
330
100BE
102
}
330
100BE
100
AcDbXrecord
280
     1
  1
AcDbDs::LegacySchema
  2
AcDbDs::Legacy
280
     1
 91
        0
  0
XRECORD
  5
100BB
102
{ACAD_REACTORS
330
100BE
102
}
330
100BE
100
AcDbXrecord
280
     1
  1
AcDbDs::IndexedPropertySchema
  2
AcDs:Indexable
280
     1
 91
        0
  0
XRECORD
  5
100BC
102
{ACAD_REACTORS
330
100BE
102
}
330
100BE
100
AcDbXrecord
280
     1
  1
AcDbDs::HandleAttributeSchema
  2
AcDbDs::HandleAttribute
280
     7
 91
        1
284
     1
  0
XRECORD
  5
100C3
102
{ACAD_REACTORS
330
100C2
102
}
330
100C2
100
AcDbXrecord
280
     1
102
DISPLAYNAME
  1
Imperial24
102
FLAGS
 90
        0
  0
XRECORD
  5
10010
102
{ACAD_REACTORS
330
1000E
102
}
330
1000E
100
AcDbXrecord
280
     1
270
     1
271
     1
  0
XRECORD
  5
1000F
102
{ACAD_REACTORS
330
1000E
102
}
330
1000E
100
AcDbXrecord
280
     1
270
     1
271
     1
  0
XRECORD
  5
10013
102
{ACAD_REACTORS
330
1000E
102
}
330
1000E
100
AcDbXrecord
280
     1
270
     1
271
     1
  0
XRECORD
  5
10012
102
{ACAD_REACTORS
330
1000E
102
}
330
1000E
100
AcDbXrecord
280
     1
270
     1
271
     1
  0
XRECORD
  5
10014
102
{ACAD_REACTORS
330
1000E
102
}
330
1000E
100
AcDbXrecord
280
     1
270
     1
271
     1
  0
XRECORD
  5
10011
102
{ACAD_REACTORS
330
1000E
102
}
330
1000E
100
AcDbXrecord
280
     1
270
     1
271
     1
  0
XRECORD
  5
10008
102
{ACAD_REACTORS
330
10006
102
}
330
10006
100
AcDbXrecord
280
     1
270
     1
271
     1
  0
XRECORD
  5
10007
102
{ACAD_REACTORS
330
10006
102
}
330
10006
100
AcDbXrecord
280
     1
270
     1
271
     1
  0
XRECORD
  5
1000B
102
{ACAD_REACTORS
330
10006
102
}
330
10006
100
AcDbXrecord
280
     1
270
     1
271
     1
  0
XRECORD
  5
1000A
102
{ACAD_REACTORS
330
10006
102
}
330
10006
100
AcDbXrecord
280
     1
270
     1
271
     1
  0
XRECORD
  5
1000C
102
{ACAD_REACTORS
330
10006
102
}
330
10006
100
AcDbXrecord
280
     1
270
     1
271
     1
  0
XRECORD
  5
10009
102
{ACAD_REACTORS
330
10006
102
}
330
10006
100
AcDbXrecord
280
     1
270
     1
271
     1
  0
XRECORD
  5
10018
102
{ACAD_REACTORS
330
10016
102
}
330
10016
100
AcDbXrecord
280
     1
270
     1
271
     1
  0
XRECORD
  5
10017
102
{ACAD_REACTORS
330
10016
102
}
330
10016
100
AcDbXrecord
280
     1
270
     1
271
     1
  0
XRECORD
  5
1001B
102
{ACAD_REACTORS
330
10016
102
}
330
10016
100
AcDbXrecord
280
     1
270
     1
271
     1
  0
XRECORD
  5
1001A
102
{ACAD_REACTORS
330
10016
102
}
330
10016
100
AcDbXrecord
280
     1
270
     1
271
     1
  0
XRECORD
  5
1001C
102
{ACAD_REACTORS
330
10016
102
}
330
10016
100
AcDbXrecord
280
     1
270
     1
271
     1
  0
XRECORD
  5
10019
102
{ACAD_REACTORS
330
10016
102
}
330
10016
100
AcDbXrecord
280
     1
270
     1
271
     1
  0
XRECORD
  5
100C1
102
{ACAD_REACTORS
330
100C0
102
}
330
100C0
100
AcDbXrecord
280
     1
102
DISPLAYNAME
  1
Imperial24
102
FLAGS
 90
        0
  0
CELLSTYLEMAP
  5
100B6
102
{ACAD_REACTORS
330
100B5
102
}
330
100B5
100
AcDbCellStyleMap
 90
        3
300
CELLSTYLE
  1
TABLEFORMAT_BEGIN
 90
        5
170
     1
 91
        0
 92
    32768
 62
   257
 93
        1
300
CONTENTFORMAT
  1
CONTENTFORMAT_BEGIN
 90
        0
 91
        0
 92
      512
 93
        0
300

 40
0.0
140
1.0
 94
        5
 62
     0
340
11
144
0.25
309
CONTENTFORMAT_END
171
     0
 94
        0
309
TABLEFORMAT_END
  1
CELLSTYLE_BEGIN
 90
        1
 91
        1
300
_TITLE
309
CELLSTYLE_END
300
CELLSTYLE
  1
TABLEFORMAT_BEGIN
 90
        5
170
     1
 91
        0
 92
        0
 62
   257
 93
        1
300
CONTENTFORMAT
  1
CONTENTFORMAT_BEGIN
 90
        0
 91
        0
 92
      512
 93
        0
300

 40
0.0
140
1.0
 94
        5
 62
     0
340
11
144
0.18
309
CONTENTFORMAT_END
171
     0
 94
        0
309
TABLEFORMAT_END
  1
CELLSTYLE_BEGIN
 90
        2
 91
        1
300
_HEADER
309
CELLSTYLE_END
300
CELLSTYLE
  1
TABLEFORMAT_BEGIN
 90
        5
170
     1
 91
        0
 92
        0
 62
   257
 93
        1
300
CONTENTFORMAT
  1
CONTENTFORMAT_BEGIN
 90
        0
 91
        0
 92
      512
 93
        0
300

 40
0.0
140
1.0
 94
        2
 62
     0
340
11
144
0.18
309
CONTENTFORMAT_END
171
     0
 94
        0
309
TABLEFORMAT_END
  1
CELLSTYLE_BEGIN
 90
        3
 91
        2
300
_DATA
309
CELLSTYLE_END
  0
ENDSEC
  0
SECTION
  2
ACDSDATA
 70
     2
 71
     8
  0
ACDSSCHEMA
 90
        0
  1
AcDb_Thumbnail_Schema
  2
AcDbDs::ID
280
    10
 91
        8
  2
Thumbnail_Data
280
    15
 91
        0
101
ACDSRECORD
 95
        0
 90
        1
  2
AcDbDs::TreatedAsObjectData
280
     1
291
     1
101
ACDSRECORD
 95
        0
 90
        2
  2
AcDbDs::Legacy
280
     1
291
     1
101
ACDSRECORD
  1
AcDbDs::ID
 90
        3
  2
AcDs:Indexable
280
     1
291
     1
101
ACDSRECORD
  1
AcDbDs::ID
 90
        4
  2
AcDbDs::HandleAttribute
280
     7
282
     1
  0
ACDSSCHEMA
 90
        1
  1
AcDbDs::TreatedAsObjectDataSchema
  2
AcDbDs::TreatedAsObjectData
280
     1
 91
        0
  0
ACDSSCHEMA
 90
        2
  1
AcDbDs::LegacySchema
  2
AcDbDs::Legacy
280
     1
 91
        0
  0
ACDSSCHEMA
 90
        3
  1
AcDbDs::IndexedPropertySchema
  2
AcDs:Indexable
280
     1
 91
        0
  0
ACDSSCHEMA
 90
        4
  1
AcDbDs::HandleAttributeSchema
  2
AcDbDs::HandleAttribute
280
     7
 91
        1
284
     1
  0
ACDSRECORD
 90
        0
  2
AcDbDs::ID
280
    10
320
10055
  2
Thumbnail_Data
280
    15
 94
     1652
310
89504E470D0A1A0A0000000D49484452000001000000007E0803000000FCF33F5100000300504C5445212830FFFFFF2128300000000000000000000000000000000000000000000000000000330000660000990000CC0000FF0033000033330033660033990033CC0033FF0066000066330066660066990066CC0066FF0099
310
000099330099660099990099CC0099FF00CC0000CC3300CC6600CC9900CCCC00CCFF00FF0000FF3300FF6600FF9900FFCC00FFFF3300003300333300663300993300CC3300FF3333003333333333663333993333CC3333FF3366003366333366663366993366CC3366FF3399003399333399663399993399CC3399FF33CC00
310
33CC3333CC6633CC9933CCCC33CCFF33FF0033FF3333FF6633FF9933FFCC33FFFF6600006600336600666600996600CC6600FF6633006633336633666633996633CC6633FF6666006666336666666666996666CC6666FF6699006699336699666699996699CC6699FF66CC0066CC3366CC6666CC9966CCCC66CCFF66FF0066
310
FF3366FF6666FF9966FFCC66FFFF9900009900339900669900999900CC9900FF9933009933339933669933999933CC9933FF9966009966339966669966999966CC9966FF9999009999339999669999999999CC9999FF99CC0099CC3399CC6699CC9999CCCC99CCFF99FF0099FF3399FF6699FF9999FFCC99FFFFCC0000CC00
310
33CC0066CC0099CC00CCCC00FFCC3300CC3333CC3366CC3399CC33CCCC33FFCC6600CC6633CC6666CC6699CC66CCCC66FFCC9900CC9933CC9966CC9999CC99CCCC99FFCCCC00CCCC33CCCC66CCCC99CCCCCCCCCCFFCCFF00CCFF33CCFF66CCFF99CCFFCCCCFFFFFF0000FF0033FF0066FF0099FF00CCFF00FFFF3300FF3333
310
FF3366FF3399FF33CCFF33FFFF6600FF6633FF6666FF6699FF66CCFF66FFFF9900FF9933FF9966FF9999FF99CCFF99FFFFCC00FFCC33FFCC66FFCC99FFCCCCFFCCFFFFFF00FFFF33FFFF66FFFF99FFFFCCFFFFFF0000000D0D0D1A1A1A2828283535354343435050505D5D5D6B6B6B787878868686939393A1A1A1AEAEAEBB
310
BBBBC9C9C9D6D6D6E4E4E4F1F1F1FFFFFF0000000000000000000000000000000000000000000000000000000000002E4550F1000002554944415478DAED9AD96E03210C45FDFFFFEBF73E6416769885E8D29CA3AAB411330AC6F6058319000000000000000000000000000000000000000000000000D4F1EE873EFCD895AE
310
2AC3AF71A9CB8DAE22D3EEFDEF5CEFE0F95B87BBAACEFB3CE40CB059E1D36C73679F3F2CFC3F68C2278A4DEB356A06D83C7677DCA0F1ADB1BCB14ED3788DB80182669FACB1210FBF060F200728AA80C54D63803ED2341E34690378776ABD62B2A2015658084C0D81EDB7C51FE88D7F5A123CC6EBFB8F89AD84DCA7CA60C100
310
6216F06F7980AB7AC064198C5420480A5A0618D4BF2B6A68E9C82369D032C031A0A1015E37D0BEE3D635C02954232E9E874427522237500C81738286929C5FCD9516098160124C0CF07CB7974A61B81692DB0D7DC903F610D2F480E939E0B0886C0E98A102B68E0A0431601E64ABA8E9AF79EB4DD249D503D275CB8B45E033
310
04E4CAC28907BC5B02F378E0BA3298E8E06B45504F8E48646570BE07A82F84CE45EBBB45D0E07DD24BE150B0DED8FDA58DFC66C81A6AD7D4B7964C2659455806A79D807ABCC0D23C1D75EF78C0E8DABFEA01796E952B8AB60D70B7565A5757D5B2F06F7A8059BC71B9BBFBCB1F3C4E432C5357B193A178F0CF6B8099A65A7C
310
50667A06480A42E13FD9749D219DFA50573D4F6F900B81F824D342214BBE6E41C796BF2374CE5D5A1A2BAC5ABCE401A54CB8D00589E3E28A1763C1B3082819E0CA4D9BB53CC0FEBF074435D1B0385A0C81C276CEAF1E31AACA60561CB53C6579F5A371F5FCF9ABA2668A3150DD25DDED6AD52BD4666BB880F9B3AEB6CA6D71
310
000000000000000000000000008005F803817B50A0D82B3F6A0000000049454E44AE42608207F45605A4B95435B92A1DE65C81CC9872EE1768CD8CFDA2D12000CF76327FDA02E6CC68024CBC6DBE2B960DBB3FD02FE9373E575FEA5EE196199F7975F64E27E372F4B97652FB93374D910012F07A02024170F4036741B04A6C
310
EB0441BF3D50EAFD7ABFE5F3419A1B26E94FDBE5EE1B94EE3ED14AA80EAB71931CADE53D9AABDD3778F8E9260794A04C95E025917BEC7A8345A1573F43E4300901497DFE01300F3D484805E49A976D1472B1291E70CF7FB7C293A40882200882200882200882200882D8195F5684784088E384400000000049454E44AE4260
310
82
  0
ENDSEC
  0
EOF
