  0
SECTION
  2
HEADER
  9
$ACADVER
  1
AC1027
  9
$ACADMAINTVER
 70
   125
  9
$DWGCODEPAGE
  3
ANSI_1252
  9
$LASTSAVEDBY
  1
zz000
  9
$REQUIREDVERSIONS
160
                 0
  9
$INSBASE
 10
0.0
 20
0.0
 30
0.0
  9
$EXTMIN
 10
-309.0770882836683
 20
-153.625
 30
0.0
  9
$EXTMAX
 10
50.71200628405971
 20
153.625
 30
0.0
  9
$LIMMIN
 10
0.0
 20
0.0
  9
$LIMMAX
 10
12.0
 20
9.0
  9
$ORTHOMODE
 70
     0
  9
$REGENMODE
 70
     1
  9
$FILLMODE
 70
     1
  9
$QTEXTMODE
 70
     0
  9
$MIRRTEXT
 70
     0
  9
$LTSCALE
 40
1.0
  9
$ATTMODE
 70
     1
  9
$TEXTSIZE
 40
0.2
  9
$TRACEWID
 40
0.05
  9
$TEXTSTYLE
  7
STANDARD
  9
$CLAYER
  8
0
  9
$CELTYPE
  6
Continuous
  9
$CECOLOR
 62
   256
  9
$CELTSCALE
 40
1.0
  9
$DISPSILH
 70
     0
  9
$DIMSCALE
 40
1.0
  9
$DIMASZ
 40
0.18
  9
$DIMEXO
 40
0.0625
  9
$DIMDLI
 40
0.38
  9
$DIMRND
 40
0.0
  9
$DIMDLE
 40
0.0
  9
$DIMEXE
 40
0.18
  9
$DIMTP
 40
0.0
  9
$DIMTM
 40
0.0
  9
$DIMTXT
 40
0.18
  9
$DIMCEN
 40
0.09
  9
$DIMTSZ
 40
0.0
  9
$DIMTOL
 70
     0
  9
$DIMLIM
 70
     0
  9
$DIMTIH
 70
     1
  9
$DIMTOH
 70
     1
  9
$DIMSE1
 70
     0
  9
$DIMSE2
 70
     0
  9
$DIMTAD
 70
     0
  9
$DIMZIN
 70
     0
  9
$DIMBLK
  1

  9
$DIMASO
 70
     1
  9
$DIMSHO
 70
     1
  9
$DIMPOST
  1

  9
$DIMAPOST
  1

  9
$DIMALT
 70
     0
  9
$DIMALTD
 70
     2
  9
$DIMALTF
 40
25.4
  9
$DIMLFAC
 40
1.0
  9
$DIMTOFL
 70
     0
  9
$DIMTVP
 40
0.0
  9
$DIMTIX
 70
     0
  9
$DIMSOXD
 70
     0
  9
$DIMSAH
 70
     0
  9
$DIMBLK1
  1

  9
$DIMBLK2
  1

  9
$DIMSTYLE
  2
Standard
  9
$DIMCLRD
 70
     0
  9
$DIMCLRE
 70
     0
  9
$DIMCLRT
 70
     0
  9
$DIMTFAC
 40
1.0
  9
$DIMGAP
 40
0.09
  9
$DIMJUST
 70
     0
  9
$DIMSD1
 70
     0
  9
$DIMSD2
 70
     0
  9
$DIMTOLJ
 70
     1
  9
$DIMTZIN
 70
     0
  9
$DIMALTZ
 70
     0
  9
$DIMALTTZ
 70
     0
  9
$DIMUPT
 70
     0
  9
$DIMDEC
 70
     4
  9
$DIMTDEC
 70
     4
  9
$DIMALTU
 70
     2
  9
$DIMALTTD
 70
     2
  9
$DIMTXSTY
  7
STANDARD
  9
$DIMAUNIT
 70
     0
  9
$DIMADEC
 70
     0
  9
$DIMALTRND
 40
0.0
  9
$DIMAZIN
 70
     0
  9
$DIMDSEP
 70
    46
  9
$DIMATFIT
 70
     3
  9
$DIMFRAC
 70
     0
  9
$DIMLDRBLK
  1

  9
$DIMLUNIT
 70
     2
  9
$DIMLWD
 70
    -2
  9
$DIMLWE
 70
    -2
  9
$DIMTMOVE
 70
     0
  9
$DIMFXL
 40
1.0
  9
$DIMFXLON
 70
     0
  9
$DIMJOGANG
 40
0.7853981633974483
  9
$DIMTFILL
 70
     0
  9
$DIMTFILLCLR
 70
     0
  9
$DIMARCSYM
 70
     0
  9
$DIMLTYPE
  6

  9
$DIMLTEX1
  6

  9
$DIMLTEX2
  6

  9
$DIMTXTDIRECTION
 70
     0
  9
$LUNITS
 70
     2
  9
$LUPREC
 70
     4
  9
$SKETCHINC
 40
0.1
  9
$FILLETRAD
 40
0.0
  9
$AUNITS
 70
     0
  9
$AUPREC
 70
     0
  9
$MENU
  1
.
  9
$ELEVATION
 40
0.0
  9
$PELEVATION
 40
0.0
  9
$THICKNESS
 40
0.0
  9
$LIMCHECK
 70
     0
  9
$CHAMFERA
 40
0.0
  9
$CHAMFERB
 40
0.0
  9
$CHAMFERC
 40
0.0
  9
$CHAMFERD
 40
0.0
  9
$SKPOLY
 70
     0
  9
$TDCREATE
 40
2459828.801365741
  9
$TDUCREATE
 40
2459829.093032408
  9
$TDUPDATE
 40
2459828.801793981
  9
$TDUUPDATE
 40
2459829.093460649
  9
$TDINDWG
 40
0.0004282407
  9
$TDUSRTIMER
 40
0.0004282407
  9
$USRTIMER
 70
     1
  9
$ANGBASE
 50
0.0
  9
$ANGDIR
 70
     0
  9
$PDMODE
 70
     0
  9
$PDSIZE
 40
0.0
  9
$PLINEWID
 40
0.0
  9
$SPLFRAME
 70
     0
  9
$SPLINETYPE
 70
     6
  9
$SPLINESEGS
 70
     8
  9
$HANDSEED
  5
10072
  9
$SURFTAB1
 70
     6
  9
$SURFTAB2
 70
     6
  9
$SURFTYPE
 70
     6
  9
$SURFU
 70
     6
  9
$SURFV
 70
     6
  9
$UCSBASE
  2

  9
$UCSNAME
  2

  9
$UCSORG
 10
0.0
 20
0.0
 30
0.0
  9
$UCSXDIR
 10
1.0
 20
0.0
 30
0.0
  9
$UCSYDIR
 10
0.0
 20
1.0
 30
0.0
  9
$UCSORTHOREF
  2

  9
$UCSORTHOVIEW
 70
     0
  9
$UCSORGTOP
 10
0.0
 20
0.0
 30
0.0
  9
$UCSORGBOTTOM
 10
0.0
 20
0.0
 30
0.0
  9
$UCSORGLEFT
 10
0.0
 20
0.0
 30
0.0
  9
$UCSORGRIGHT
 10
0.0
 20
0.0
 30
0.0
  9
$UCSORGFRONT
 10
0.0
 20
0.0
 30
0.0
  9
$UCSORGBACK
 10
0.0
 20
0.0
 30
0.0
  9
$PUCSBASE
  2

  9
$PUCSNAME
  2

  9
$PUCSORG
 10
0.0
 20
0.0
 30
0.0
  9
$PUCSXDIR
 10
1.0
 20
0.0
 30
0.0
  9
$PUCSYDIR
 10
0.0
 20
1.0
 30
0.0
  9
$PUCSORTHOREF
  2

  9
$PUCSORTHOVIEW
 70
     0
  9
$PUCSORGTOP
 10
0.0
 20
0.0
 30
0.0
  9
$PUCSORGBOTTOM
 10
0.0
 20
0.0
 30
0.0
  9
$PUCSORGLEFT
 10
0.0
 20
0.0
 30
0.0
  9
$PUCSORGRIGHT
 10
0.0
 20
0.0
 30
0.0
  9
$PUCSORGFRONT
 10
0.0
 20
0.0
 30
0.0
  9
$PUCSORGBACK
 10
0.0
 20
0.0
 30
0.0
  9
$USERI1
 70
     0
  9
$USERI2
 70
     0
  9
$USERI3
 70
     0
  9
$USERI4
 70
     0
  9
$USERI5
 70
     0
  9
$USERR1
 40
0.0
  9
$USERR2
 40
0.0
  9
$USERR3
 40
0.0
  9
$USERR4
 40
0.0
  9
$USERR5
 40
0.0
  9
$WORLDVIEW
 70
     1
  9
$SHADEDGE
 70
     3
  9
$SHADEDIF
 70
    70
  9
$TILEMODE
 70
     1
  9
$MAXACTVP
 70
    64
  9
$PINSBASE
 10
0.0
 20
0.0
 30
0.0
  9
$PLIMCHECK
 70
     0
  9
$PEXTMIN
 10
1.000000000000000E+20
 20
1.000000000000000E+20
 30
1.000000000000000E+20
  9
$PEXTMAX
 10
-1.000000000000000E+20
 20
-1.000000000000000E+20
 30
-1.000000000000000E+20
  9
$PLIMMIN
 10
0.0
 20
0.0
  9
$PLIMMAX
 10
12.0
 20
9.0
  9
$UNITMODE
 70
     0
  9
$VISRETAIN
 70
     1
  9
$PLINEGEN
 70
     0
  9
$PSLTSCALE
 70
     1
  9
$TREEDEPTH
 70
  3020
  9
$CMLSTYLE
  2
Standard
  9
$CMLJUST
 70
     0
  9
$CMLSCALE
 40
1.0
  9
$PROXYGRAPHICS
 70
     1
  9
$MEASUREMENT
 70
     0
  9
$CELWEIGHT
370
    -1
  9
$ENDCAPS
280
     0
  9
$JOINSTYLE
280
     0
  9
$LWDISPLAY
290
     0
  9
$INSUNITS
 70
     4
  9
$HYPERLINKBASE
  1

  9
$STYLESHEET
  1

  9
$XEDIT
290
     1
  9
$CEPSNTYPE
380
     0
  9
$PSTYLEMODE
290
     1
  9
$FINGERPRINTGUID
  2
{9997886F-8DDE-E547-A6CD-C77977E38B65}
  9
$VERSIONGUID
  2
{FF568F65-0D09-2E48-8371-C73539A76D5A}
  9
$EXTNAMES
290
     1
  9
$PSVPSCALE
 40
0.0
  9
$OLESTARTUP
290
     0
  9
$SORTENTS
280
   127
  9
$INDEXCTL
280
     0
  9
$HIDETEXT
280
     0
  9
$XCLIPFRAME
280
     2
  9
$HALOGAP
280
     0
  9
$OBSCOLOR
 70
   257
  9
$OBSLTYPE
280
     0
  9
$INTERSECTIONDISPLAY
280
     0
  9
$INTERSECTIONCOLOR
 70
   257
  9
$DIMASSOC
280
     1
  9
$PROJECTNAME
  1

  9
$CAMERADISPLAY
290
     0
  9
$LENSLENGTH
 40
50.0
  9
$CAMERAHEIGHT
 40
0.0
  9
$STEPSPERSEC
 40
2.0
  9
$STEPSIZE
 40
6.0
  9
$3DDWFPREC
 40
2.0
  9
$PSOLWIDTH
 40
0.25
  9
$PSOLHEIGHT
 40
4.0
  9
$LOFTANG1
 40
1.570796326794896
  9
$LOFTANG2
 40
1.570796326794896
  9
$LOFTMAG1
 40
0.0
  9
$LOFTMAG2
 40
0.0
  9
$LOFTPARAM
 70
     7
  9
$LOFTNORMALS
280
     1
  9
$LATITUDE
 40
37.795
  9
$LONGITUDE
 40
-122.394
  9
$NORTHDIRECTION
 40
0.0
  9
$TIMEZONE
 70
 -8000
  9
$LIGHTGLYPHDISPLAY
280
     1
  9
$TILEMODELIGHTSYNCH
280
     1
  9
$CMATERIAL
347
10005
  9
$SOLIDHIST
280
     0
  9
$SHOWHIST
280
     1
  9
$DWFFRAME
280
     2
  9
$DGNFRAME
280
     0
  9
$REALWORLDSCALE
290
     1
  9
$INTERFERECOLOR
 62
     1
  9
$INTERFEREOBJVS
345
10027
  9
$INTERFEREVPVS
346
10024
  9
$CSHADOW
280
     0
  9
$SHADOWPLANELOCATION
 40
0.0
  0
ENDSEC
  0
SECTION
  2
CLASSES
  0
CLASS
  1
ACDBDICTIONARYWDFLT
  2
AcDbDictionaryWithDefault
  3
ObjectDBX Classes
 90
        0
 91
        1
280
     0
281
     0
  0
CLASS
  1
MATERIAL
  2
AcDbMaterial
  3
ObjectDBX Classes
 90
     1153
 91
        3
280
     0
281
     0
  0
CLASS
  1
VISUALSTYLE
  2
AcDbVisualStyle
  3
ObjectDBX Classes
 90
     4095
 91
       24
280
     0
281
     0
  0
CLASS
  1
TABLESTYLE
  2
AcDbTableStyle
  3
ObjectDBX Classes
 90
     4095
 91
        1
280
     0
281
     0
  0
CLASS
  1
SCALE
  2
AcDbScale
  3
ObjectDBX Classes
 90
     1153
 91
       17
280
     0
281
     0
  0
CLASS
  1
MLEADERSTYLE
  2
AcDbMLeaderStyle
  3
ACDB_MLEADERSTYLE_CLASS
 90
     4095
 91
        1
280
     0
281
     0
  0
CLASS
  1
ACDBSECTIONVIEWSTYLE
  2
AcDbSectionViewStyle
  3
ObjectDBX Classes
 90
     1025
 91
        1
280
     0
281
     0
  0
CLASS
  1
ACDBDETAILVIEWSTYLE
  2
AcDbDetailViewStyle
  3
ObjectDBX Classes
 90
     1025
 91
        1
280
     0
281
     0
  0
CLASS
  1
SOLID_BACKGROUND
  2
AcDbSolidBackground
  3
SCENEOE
 90
     4095
 91
        1
280
     0
281
     0
  0
CLASS
  1
NPOCOLLECTION
  2
AcDbImpNonPersistentObjectsCollection
  3
ObjectDBX Classes
 90
     1153
 91
        1
280
     0
281
     0
  0
CLASS
  1
GROUND_PLANE_BACKGROUND
  2
AcDbGroundPlaneBackground
  3
SCENEOE
 90
     4095
 91
        1
280
     0
281
     0
  0
CLASS
  1
DICTIONARYVAR
  2
AcDbDictionaryVar
  3
ObjectDBX Classes
 90
        0
 91
        9
280
     0
281
     0
  0
CLASS
  1
CELLSTYLEMAP
  2
AcDbCellStyleMap
  3
ObjectDBX Classes
 90
     1152
 91
        1
280
     0
281
     0
  0
ENDSEC
  0
SECTION
  2
TABLES
  0
TABLE
  2
VPORT
  5
8
330
0
100
AcDbSymbolTable
 70
     1
1001
ACAD
1000
DbSaveVer
1071
      247
  0
VPORT
  5
10059
330
8
100
AcDbSymbolTableRecord
100
AcDbViewportTableRecord
  2
*Active
 70
     0
 10
0.0
 20
0.0
 11
1.0
 21
1.0
 12
-137.9356171795868
 22
-20.18522300468396
 13
0.0
 23
0.0
 14
1.0
 24
1.0
 15
0.0
 25
0.0
 16
-0.0000000000001972
 26
0.0
 36
887.9178516994764
 17
-1.737993240356445
 27
0.0
 37
0.0
 40
325.6571694118088
 41
2.025141930251419
 42
50.0
 43
0.0
 44
0.0
 50
0.0
 51
0.0
 71
     0
 72
  1000
 73
     1
 74
     3
 75
     0
 76
     0
 77
     0
 78
     0
281
     0
 65
     1
110
0.0
120
0.0
130
0.0
111
1.0
121
0.0
131
0.0
112
0.0
122
1.0
132
0.0
 79
     0
146
0.0
348
10023
 60
     3
 61
     5
292
     1
282
     1
141
0.0
142
0.0
 63
   250
421
  3355443
1001
ACAD_NAV_VCDISPLAY
1070
     3
  0
ENDTAB
  0
TABLE
  2
LTYPE
  5
5
330
0
100
AcDbSymbolTable
 70
     1
  0
LTYPE
  5
14
330
5
100
AcDbSymbolTableRecord
100
AcDbLinetypeTableRecord
  2
BYBLOCK
 70
     0
  3

 72
    65
 73
     0
 40
0.0
  0
LTYPE
  5
15
330
5
100
AcDbSymbolTableRecord
100
AcDbLinetypeTableRecord
  2
BYLAYER
 70
     0
  3

 72
    65
 73
     0
 40
0.0
  0
LTYPE
  5
10001
330
5
100
AcDbSymbolTableRecord
100
AcDbLinetypeTableRecord
  2
Continuous
 70
     0
  3
Solid line
 72
    65
 73
     0
 40
0.0
  0
ENDTAB
  0
TABLE
  2
LAYER
  5
2
330
0
100
AcDbSymbolTable
 70
     1
  0
LAYER
  5
50
102
{ACAD_XDICTIONARY
360
1005F
102
}
330
2
100
AcDbSymbolTableRecord
100
AcDbLayerTableRecord
  2
0
 70
     0
 62
     7
  6
Continuous
370
    -3
390
10003
347
10015
348
0
  0
ENDTAB
  0
TABLE
  2
STYLE
  5
3
330
0
100
AcDbSymbolTable
 70
     1
  0
STYLE
  5
11
330
3
100
AcDbSymbolTableRecord
100
AcDbTextStyleTableRecord
  2
STANDARD
 70
     0
 40
0.0
 41
1.0
 50
0.0
 71
     0
 42
0.2
  3

  4

  0
ENDTAB
  0
TABLE
  2
VIEW
  5
6
330
0
100
AcDbSymbolTable
 70
     0
  0
ENDTAB
  0
TABLE
  2
UCS
  5
7
330
0
100
AcDbSymbolTable
 70
     0
  0
ENDTAB
  0
TABLE
  2
APPID
  5
9
330
0
100
AcDbSymbolTable
 70
     2
  0
APPID
  5
12
330
9
100
AcDbSymbolTableRecord
100
AcDbRegAppTableRecord
  2
ACAD
 70
     0
  0
APPID
  5
10058
330
9
100
AcDbSymbolTableRecord
100
AcDbRegAppTableRecord
  2
ACAD_NAV_VCDISPLAY
 70
     0
  0
ENDTAB
  0
TABLE
  2
DIMSTYLE
  5
A
330
0
100
AcDbSymbolTable
 70
     1
100
AcDbDimStyleTable
 71
     0
  0
DIMSTYLE
105
10053
330
A
100
AcDbSymbolTableRecord
100
AcDbDimStyleTableRecord
  2
Standard
 70
     0
340
11
  0
ENDTAB
  0
TABLE
  2
BLOCK_RECORD
  5
1
330
0
100
AcDbSymbolTable
 70
     0
  0
BLOCK_RECORD
  5
1F
330
1
100
AcDbSymbolTableRecord
100
AcDbBlockTableRecord
  2
*MODEL_SPACE
340
10055
 70
     0
280
     1
281
     0
  0
BLOCK_RECORD
  5
1B
330
1
100
AcDbSymbolTableRecord
100
AcDbBlockTableRecord
  2
*PAPER_SPACE
340
10056
 70
     0
280
     1
281
     0
  0
ENDTAB
  0
ENDSEC
  0
SECTION
  2
BLOCKS
  0
BLOCK
  5
20
330
1F
100
AcDbEntity
  8
0
100
AcDbBlockBegin
  2
*MODEL_SPACE
 70
     0
 10
0.0
 20
0.0
 30
0.0
  3
*MODEL_SPACE
  1

  0
ENDBLK
  5
21
330
1F
100
AcDbEntity
  8
0
100
AcDbBlockEnd
  0
BLOCK
  5
1C
330
1B
100
AcDbEntity
 67
     1
  8
0
100
AcDbBlockBegin
  2
*PAPER_SPACE
 70
     0
 10
0.0
 20
0.0
 30
0.0
  3
*PAPER_SPACE
  1

  0
ENDBLK
  5
1D
330
1B
100
AcDbEntity
 67
     1
  8
0
100
AcDbBlockEnd
  0
ENDSEC
  0
SECTION
  2
ENTITIES
  0
LWPOLYLINE
  5
100
330
1F
100
AcDbEntity
  8
0
100
AcDbPolyline
 90
      102
 70
     1
 43
0.0
 10
-309.0770882836683
 20
-106.378289951426
 42
0.4142135623730951
 10
-307.0770882836683
 20
-108.378289951426
 10
-301.3895882836683
 20
-108.378289951426
 42
-0.4142135623730951
 10
-299.3895882836683
 20
-110.378289951426
 10
-299.3895882836683
 20
-111.1100631971102
 42
0.4142135623730951
 10
-298.0395882836683
 20
-112.4600631971102
 10
-284.9381523204684
 20
-112.4600631971102
 42
0.4142135623730951
 10
-283.9381523204684
 20
-111.4600631971102
 10
-283.9381523204684
 20
-109.8782880319501
 42
-0.4142135623730951
 10
-282.9381523204684
 20
-108.8782880319501
 10
-236.5770882836683
 20
-108.8782880319501
 42
-0.4142135623730951
 10
-235.5770882836683
 20
-109.8782880319501
 10
-235.5770882836683
 20
-111.4600631971102
 42
0.4142135623730951
 10
-234.5770882836683
 20
-112.4600631971102
 10
-226.7489005525563
 20
-112.4600631971102
 42
0.4142135623730951
 10
-224.7489005525563
 20
-110.4600631971102
 10
-224.7489005525563
 20
-110.1100631971903
 42
-0.4142135623730951
 10
-222.7489005525563
 20
-108.1100631971903
 10
-195.5552760147763
 20
-108.1100631971902
 42
-0.4142135623730951
 10
-193.5552760147763
 20
-110.1100631971902
 10
-193.5552760147763
 20
-110.4600631971102
 42
0.4142135623730951
 10
-191.5552760147763
 20
-112.4600631971102
 10
-178.8131523204583
 20
-112.4600631971102
 42
0.4142135623730951
 10
-177.8131523204583
 20
-111.4600631971102
 10
-177.8131523204583
 20
-109.8782880319501
 42
-0.4142135623730951
 10
-176.8131523204583
 20
-108.8782880319501
 10
-129.4520882836683
 20
-108.8782880319501
 42
-0.4142135623730937
 10
-128.4520882836683
 20
-109.8782880319501
 10
-128.4520882836683
 20
-111.4600631971102
 42
0.4142135623730951
 10
-127.4520882836683
 20
-112.4600631971102
 10
-118.2489005525583
 20
-112.4600631971102
 42
0.4142135623730951
 10
-116.2489005525583
 20
-110.4600631971102
 10
-116.2489005525583
 20
-110.1642512076802
 42
-0.4142135623730951
 10
-114.2489005525583
 20
-108.1642512076802
 10
-89.45527601477833
 20
-108.1642512076802
 42
-0.4142135623730951
 10
-87.45527601477832
 20
-110.1642512076802
 10
-87.45527601477833
 20
-110.4600631971102
 42
0.4142135623730951
 10
-85.45527601477834
 20
-112.4600631971102
 10
-66.68815232045834
 20
-112.4600631971102
 42
0.4142135623730951
 10
-65.68815232045834
 20
-111.4600631971102
 10
-65.68815232045832
 20
-109.8782880319501
 42
-0.4142135623730951
 10
-64.68815232045834
 20
-108.8782880319501
 10
-22.32708828366833
 20
-108.8782880319501
 42
-0.4142135623730951
 10
-21.32708828366833
 20
-109.8782880319501
 10
-21.32708828366833
 20
-111.4600631971102
 42
0.4142135623730951
 10
-20.32708828366833
 20
-112.4600631971102
 10
-16.35631091851934
 20
-112.4600631971103
 42
0.396255359513259
 10
-15.00887975597916
 20
-111.193305387233
 42
-0.3962553595132815
 10
-12.01458828366833
 20
-108.3782880319501
 10
-3.827088283668331
 20
-108.3782880319502
 42
0.4142135623730951
 10
-1.827088283668331
 20
-106.3782880319502
 10
-1.827088283668331
 20
-14.64183836275022
 42
0.4142135623730943
 10
-4.827088283668331
 20
-11.64183836275022
 10
-12.01458828366833
 20
-11.64183836275015
 42
-0.3962553595132712
 10
-15.00887975597916
 20
-8.826821007467316
 42
0.3962553595132381
 10
-16.35631091851934
 20
-7.560063197590238
 10
-23.62708828366834
 20
-7.560063197590025
 42
0.4142135623730951
 10
-24.62708828366834
 20
-8.560063197590238
 10
-24.62708828366834
 20
-10.14183836275012
 42
-0.4142135623730951
 10
-25.62708828366834
 20
-11.14183836275012
 10
-64.68815232045834
 20
-11.14183836275012
 42
-0.4142135623730951
 10
-65.68815232045832
 20
-10.14183836275012
 10
-65.68815232045832
 20
-8.560063197590238
 42
0.4142135623730951
 10
-66.68815232045834
 20
-7.560063197590238
 10
-85.45527601477834
 20
-7.560063197590238
 42
0.4142135623730951
 10
-87.45527601477833
 20
-9.560063197590125
 10
-87.45527601477832
 20
-9.855875187020131
 42
-0.4142135623730951
 10
-89.45527601477833
 20
-11.85587518702013
 10
-114.2489005525583
 20
-11.85587518702013
 42
-0.4142135623730951
 10
-116.2489005525583
 20
-9.855875187020131
 10
-116.2489005525583
 20
-9.560063197590125
 42
0.4142135623730951
 10
-118.2489005525583
 20
-7.560063197590125
 10
-127.4520882836683
 20
-7.560063197590238
 42
0.4142135623730951
 10
-128.4520882836683
 20
-8.560063197590238
 10
-128.4520882836683
 20
-10.14183836275012
 42
-0.4142135623730951
 10
-129.4520882836683
 20
-11.14183836275012
 10
-176.8131523204583
 20
-11.14183836275012
 42
-0.4142135623730937
 10
-177.8131523204583
 20
-10.14183836275012
 10
-177.8131523204583
 20
-8.560063197590238
 42
0.4142135623730951
 10
-178.8131523204583
 20
-7.560063197590238
 10
-191.5552760147763
 20
-7.560063197590238
 42
0.4142135623730951
 10
-193.5552760147763
 20
-9.560063197590125
 10
-193.5552760147763
 20
-9.910063197510226
 42
-0.4142135623730951
 10
-195.5552760147763
 20
-11.91006319751022
 10
-222.7489005525563
 20
-11.91006319751011
 42
-0.4142135623730951
 10
-224.7489005525563
 20
-9.910063197510112
 10
-224.7489005525563
 20
-9.560063197590125
 42
0.4142135623730951
 10
-226.7489005525563
 20
-7.560063197590125
 10
-234.5770882836683
 20
-7.560063197590224
 42
0.4142135623730951
 10
-235.5770882836683
 20
-8.560063197590224
 10
-235.5770882836683
 20
-10.14183836275012
 42
-0.4142135623730951
 10
-236.5770882836683
 20
-11.14183836275012
 10
-282.9381523204684
 20
-11.14183836275012
 42
-0.4142135623730951
 10
-283.9381523204684
 20
-10.14183836275012
 10
-283.9381523204684
 20
-8.560063197590224
 42
0.4142135623730951
 10
-284.9381523204684
 20
-7.560063197590224
 10
-298.0395882836683
 20
-7.560063197590224
 42
0.4142135623730951
 10
-299.3895882836683
 20
-8.910063197590233
 10
-299.3895882836683
 20
-9.641838362750206
 42
-0.4142135623730951
 10
-301.3895882836683
 20
-11.6418383627502
 10
-306.0770882836683
 20
-11.6418383627502
 42
0.4142135623730951
 10
-309.0770882836683
 20
-14.64183836275021
  0
LWPOLYLINE
  5
101
330
1F
100
AcDbEntity
  8
0
100
AcDbPolyline
 90
        8
 70
     1
 43
0.0
 10
-28.09533828366833
 20
-52.01006319711321
 10
-28.09533828366831
 20
-68.51006319711324
 42
-0.4142135623730951
 10
-28.59533828366831
 20
-69.01006319711324
 10
-34.59533828366831
 20
-69.01006319711324
 42
-0.4142135623730951
 10
-35.09533828366833
 20
-68.51006319711324
 10
-35.09533828366833
 20
-52.01006319711321
 42
-0.4142135623730951
 10
-34.59533828366831
 20
-51.51006319711321
 10
-28.59533828366831
 20
-51.51006319711322
 42
-0.4142135623730951
  0
LWPOLYLINE
  5
102
330
1F
100
AcDbEntity
  8
0
100
AcDbPolyline
 90
        8
 70
     1
 43
0.0
 10
-51.97133828366833
 20
-52.0100631971132
 10
-51.97133828366833
 20
-68.51006319711324
 42
-0.4142135623730951
 10
-52.47133828366833
 20
-69.01006319711324
 10
-58.47133828366833
 20
-69.01006319711324
 42
-0.4142135623730951
 10
-58.97133828366833
 20
-68.51006319711324
 10
-58.97133828366833
 20
-52.0100631971132
 42
-0.4142135623730951
 10
-58.47133828366833
 20
-51.51006319711321
 10
-52.47133828366833
 20
-51.5100631971132
 42
-0.4142135623730951
  0
LWPOLYLINE
  5
103
330
1F
100
AcDbEntity
  8
0
100
AcDbPolyline
 90
        8
 70
     1
 43
0.0
 10
-130.3833382836683
 20
-104.6100631971102
 10
-130.3833382836683
 20
-89.61006319711012
 42
-0.4142135623730951
 10
-129.8833382836683
 20
-89.11006319711011
 10
-123.8453382836683
 20
-89.11006319711013
 42
-0.4142135623730951
 10
-123.3453382836683
 20
-89.61006319711014
 10
-123.3453382836683
 20
-104.6100631971102
 42
-0.4142135623730951
 10
-123.8453382836683
 20
-105.1100631971102
 10
-129.8833382836683
 20
-105.1100631971102
 42
-0.4142135623730951
  0
LWPOLYLINE
  5
104
330
1F
100
AcDbEntity
  8
0
100
AcDbPolyline
 90
        8
 70
     1
 43
0.0
 10
-29.38958828366833
 20
-34.46006319711023
 10
-29.38958828366833
 20
-47.46006319711013
 42
-0.4142135623730951
 10
-29.88958828366833
 20
-47.96006319711014
 10
-42.88958828366832
 20
-47.96006319711014
 42
-0.4142135623730951
 10
-43.38958828366833
 20
-47.46006319711013
 10
-43.38958828366833
 20
-34.46006319711023
 42
-0.4142135623730951
 10
-42.88958828366832
 20
-33.96006319711023
 10
-29.88958828366833
 20
-33.96006319711023
 42
-0.4142135623730951
  0
LWPOLYLINE
  5
105
330
1F
100
AcDbEntity
  8
0
100
AcDbPolyline
 90
        8
 70
     1
 43
0.0
 10
-5.577088283668331
 20
-91.61006319711024
 42
0.4142135623730951
 10
-6.077088283668331
 20
-91.11006319711023
 10
-19.07708828366833
 20
-91.11006319711023
 42
0.4142135623730951
 10
-19.57708828366833
 20
-91.61006319711024
 10
-19.57708828366833
 20
-104.6100631971102
 42
0.4142135623730951
 10
-19.07708828366833
 20
-105.1100631971102
 10
-6.077088283668331
 20
-105.1100631971102
 42
0.4142135623730951
 10
-5.577088283668331
 20
-104.6100631971102
  0
LWPOLYLINE
  5
106
330
1F
100
AcDbEntity
  8
0
100
AcDbPolyline
 90
        8
 70
     1
 43
0.0
 10
-287.0645882836683
 20
-47.96006319711012
 42
0.4142135623730951
 10
-286.5645882836684
 20
-47.46006319711012
 10
-286.5645882836684
 20
-34.46006319711022
 42
0.4142135623730951
 10
-287.0645882836683
 20
-33.96006319711012
 10
-300.0645882836683
 20
-33.96006319711022
 42
0.4142135623730951
 10
-300.5645882836684
 20
-34.46006319711022
 10
-300.5645882836684
 20
-47.46006319711012
 42
0.4142135623730951
 10
-300.0645882836683
 20
-47.96006319711022
  0
LWPOLYLINE
  5
107
330
1F
100
AcDbEntity
  8
0
100
AcDbPolyline
 90
        8
 70
     1
 43
0.0
 10
-115.1145882836683
 20
-72.56006319711023
 42
0.4142135623730951
 10
-115.6145882836683
 20
-72.06006319711022
 10
-128.6145882836683
 20
-72.06006319711022
 42
0.4142135623730951
 10
-129.1145882836683
 20
-72.56006319711023
 10
-129.1145882836683
 20
-85.56006319711013
 42
0.4142135623730951
 10
-128.6145882836683
 20
-86.06006319711022
 10
-115.6145882836683
 20
-86.06006319711013
 42
0.4142135623730951
 10
-115.1145882836683
 20
-85.56006319711014
  0
LWPOLYLINE
  5
108
330
1F
100
AcDbEntity
  8
0
100
AcDbPolyline
 90
        8
 70
     1
 43
0.0
 10
-105.5895882836683
 20
-53.51006319711319
 42
0.4142135623730951
 10
-106.0895882836683
 20
-53.01006319711319
 10
-119.0895882836683
 20
-53.01006319711319
 42
0.4142135623730951
 10
-119.5895882836683
 20
-53.51006319711319
 10
-119.5895882836683
 20
-66.5100631971132
 42
0.4142135623730951
 10
-119.0895882836683
 20
-67.01006319711322
 10
-106.0895882836683
 20
-67.0100631971132
 42
0.4142135623730951
 10
-105.5895882836683
 20
-66.5100631971132
  0
LWPOLYLINE
  5
109
330
1F
100
AcDbEntity
  8
0
100
AcDbPolyline
 90
        8
 70
     1
 43
0.0
 10
-233.3895882836683
 20
-53.01006319711319
 10
-220.3895882836683
 20
-53.01006319711319
 42
-0.4142135623730951
 10
-219.8895882836684
 20
-53.51006319711318
 10
-219.8895882836684
 20
-66.51006319711318
 42
-0.4142135623730951
 10
-220.3895882836683
 20
-67.0100631971132
 10
-233.3895882836683
 20
-67.01006319711318
 42
-0.4142135623730951
 10
-233.8895882836683
 20
-66.51006319711318
 10
-233.8895882836683
 20
-53.51006319711318
 42
-0.4142135623730951
  0
LWPOLYLINE
  5
110
330
1F
100
AcDbEntity
  8
0
100
AcDbPolyline
 90
        8
 70
     1
 43
0.0
 10
-5.577088283668331
 20
-72.56006319711024
 42
0.4142135623730951
 10
-6.077088283668331
 20
-72.06006319711024
 10
-19.07708828366833
 20
-72.06006319711024
 42
0.4142135623730951
 10
-19.57708828366833
 20
-72.56006319711024
 10
-19.57708828366833
 20
-85.56006319711014
 42
0.4142135623730951
 10
-19.07708828366833
 20
-86.06006319711022
 10
-6.077088283668331
 20
-86.06006319711013
 42
0.4142135623730951
 10
-5.577088283668331
 20
-85.56006319711014
  0
LWPOLYLINE
  5
111
330
1F
100
AcDbEntity
  8
0
100
AcDbPolyline
 90
        8
 70
     1
 43
0.0
 10
-225.1520882836683
 20
-47.96006319711013
 42
0.4142135623730951
 10
-224.6520882836683
 20
-47.46006319711013
 10
-224.6520882836683
 20
-34.46006319711022
 42
0.4142135623730951
 10
-225.1520882836683
 20
-33.96006319711013
 10
-238.1520882836683
 20
-33.96006319711022
 42
0.4142135623730951
 10
-238.6520882836683
 20
-34.46006319711022
 10
-238.6520882836684
 20
-47.46006319711012
 42
0.4142135623730951
 10
-238.1520882836683
 20
-47.96006319711022
  0
LWPOLYLINE
  5
112
330
1F
100
AcDbEntity
  8
0
100
AcDbPolyline
 90
        8
 70
     1
 43
0.0
 10
-205.6020882836683
 20
-34.46006319711022
 42
0.4142135623730951
 10
-206.1020882836683
 20
-33.96006319711022
 10
-219.1020882836683
 20
-33.96006319711022
 42
0.4142135623730951
 10
-219.6020882836684
 20
-34.46006319711022
 10
-219.6020882836684
 20
-47.46006319711013
 42
0.4142135623730951
 10
-219.1020882836683
 20
-47.96006319711023
 10
-206.1020882836683
 20
-47.96006319711013
 42
0.4142135623730951
 10
-205.6020882836683
 20
-47.46006319711013
  0
LWPOLYLINE
  5
113
330
1F
100
AcDbEntity
  8
0
100
AcDbPolyline
 90
        8
 70
     1
 43
0.0
 10
-262.7520882836683
 20
-34.46006319711022
 42
0.4142135623730951
 10
-263.2520882836683
 20
-33.96006319711022
 10
-276.2520882836684
 20
-33.96006319711022
 42
0.4142135623730951
 10
-276.7520882836683
 20
-34.46006319711022
 10
-276.7520882836683
 20
-47.46006319711012
 42
0.4142135623730951
 10
-276.2520882836684
 20
-47.96006319711022
 10
-263.2520882836683
 20
-47.96006319711012
 42
0.4142135623730951
 10
-262.7520882836683
 20
-47.46006319711012
  0
LWPOLYLINE
  5
114
330
1F
100
AcDbEntity
  8
0
100
AcDbPolyline
 90
        8
 70
     1
 43
0.0
 10
-148.4520882836693
 20
-34.46006319711023
 42
0.4142135623730951
 10
-148.9520882836693
 20
-33.96006319711022
 10
-161.9520882836693
 20
-33.96006319711022
 42
0.4142135623730951
 10
-162.4520882836693
 20
-34.46006319711023
 10
-162.4520882836693
 20
-47.46006319711013
 42
0.4142135623730951
 10
-161.9520882836693
 20
-47.96006319711023
 10
-148.9520882836693
 20
-47.96006319711013
 42
0.4142135623730951
 10
-148.4520882836693
 20
-47.46006319711013
  0
LWPOLYLINE
  5
115
330
1F
100
AcDbEntity
  8
0
100
AcDbPolyline
 90
        8
 70
     1
 43
0.0
 10
-271.4895882836684
 20
-53.01006319711319
 10
-258.4895882836684
 20
-53.01006319711317
 42
-0.4142135623730951
 10
-257.9895882836684
 20
-53.51006319711318
 10
-257.9895882836684
 20
-66.51006319711318
 42
-0.4142135623730951
 10
-258.4895882836684
 20
-67.01006319711318
 10
-271.4895882836684
 20
-67.0100631971132
 42
-0.4142135623730951
 10
-271.9895882836683
 20
-66.51006319711318
 10
-271.9895882836683
 20
-53.51006319711318
 42
-0.4142135623730951
  0
LWPOLYLINE
  5
116
330
1F
100
AcDbEntity
  8
0
100
AcDbPolyline
 90
        8
 70
     1
 43
0.0
 10
-138.9270882836683
 20
-15.41006319711022
 42
0.4142135623730951
 10
-139.4270882836683
 20
-14.91006319711022
 10
-152.4270882836693
 20
-14.91006319711022
 42
0.4142135623730951
 10
-152.9270882836693
 20
-15.41006319711022
 10
-152.9270882836693
 20
-28.41006319711013
 42
0.4142135623730954
 10
-152.4270882836693
 20
-28.91006319711013
 10
-139.4270882836683
 20
-28.91006319711013
 42
0.4142135623730951
 10
-138.9270882836683
 20
-28.41006319711013
  0
LWPOLYLINE
  5
117
330
1F
100
AcDbEntity
  8
0
100
AcDbPolyline
 90
        8
 70
     1
 43
0.0
 10
-100.8270882836683
 20
-15.41006319711022
 42
0.4142135623730951
 10
-101.3270882836683
 20
-14.91006319711022
 10
-114.3270882836683
 20
-14.91006319711022
 42
0.4142135623730951
 10
-114.8270882836683
 20
-15.41006319711022
 10
-114.8270882836683
 20
-28.41006319711013
 42
0.4142135623730951
 10
-114.3270882836683
 20
-28.91006319711014
 10
-101.3270882836683
 20
-28.91006319711014
 42
0.4142135623730951
 10
-100.8270882836683
 20
-28.41006319711013
  0
LWPOLYLINE
  5
118
330
1F
100
AcDbEntity
  8
0
100
AcDbPolyline
 90
        8
 70
     1
 43
0.0
 10
-215.6270882836683
 20
-28.91006319711012
 42
0.4142135623730951
 10
-215.1270882836683
 20
-28.41006319711012
 10
-215.1270882836683
 20
-15.41006319711022
 42
0.4142135623730951
 10
-215.6270882836683
 20
-14.91006319711012
 10
-228.6270882836683
 20
-14.91006319711022
 42
0.4142135623730951
 10
-229.1270882836683
 20
-15.41006319711022
 10
-229.1270882836683
 20
-28.41006319711012
 42
0.4142135623730951
 10
-228.6270882836683
 20
-28.91006319711012
  0
LWPOLYLINE
  5
119
330
1F
100
AcDbEntity
  8
0
100
AcDbPolyline
 90
        8
 70
     1
 43
0.0
 10
-124.6395882836683
 20
-53.51006319711319
 42
0.4142135623730951
 10
-125.1395882836683
 20
-53.01006319711319
 10
-138.1395882836683
 20
-53.01006319711319
 42
0.4142135623730951
 10
-138.6395882836683
 20
-53.51006319711319
 10
-138.6395882836683
 20
-66.5100631971132
 42
0.4142135623730951
 10
-138.1395882836683
 20
-67.01006319711322
 10
-125.1395882836683
 20
-67.0100631971132
 42
0.4142135623730951
 10
-124.6395882836683
 20
-66.5100631971132
  0
LWPOLYLINE
  5
120
330
1F
100
AcDbEntity
  8
0
100
AcDbPolyline
 90
        8
 70
     1
 43
0.0
 10
-279.4208382836683
 20
-72.56006319711023
 10
-279.4208382836683
 20
-85.56006319711013
 42
-0.4142135623730951
 10
-279.9208382836683
 20
-86.06006319711012
 10
-292.9208382836683
 20
-86.06006319711013
 42
-0.4142135623730951
 10
-293.4208382836683
 20
-85.56006319711013
 10
-293.4208382836683
 20
-72.56006319711023
 42
-0.4142135623730951
 10
-292.9208382836683
 20
-72.06006319711022
 10
-279.9208382836683
 20
-72.06006319711024
 42
-0.4142135623730951
  0
LWPOLYLINE
  5
121
330
1F
100
AcDbEntity
  8
0
100
AcDbPolyline
 90
        8
 70
     1
 43
0.0
 10
-291.3270882836684
 20
-15.41006319711022
 42
0.4142135623730951
 10
-291.8270882836683
 20
-14.91006319711022
 10
-304.8270882836683
 20
-14.91006319711022
 42
0.4142135623730951
 10
-305.3270882836683
 20
-15.41006319711022
 10
-305.3270882836683
 20
-28.41006319711012
 42
0.4142135623730951
 10
-304.8270882836683
 20
-28.91006319711012
 10
-291.8270882836683
 20
-28.91006319711012
 42
0.4142135623730951
 10
-291.3270882836684
 20
-28.41006319711012
  0
LWPOLYLINE
  5
122
330
1F
100
AcDbEntity
  8
0
100
AcDbPolyline
 90
        8
 70
     1
 43
0.0
 10
-191.8145882836683
 20
-86.06006319711012
 42
0.4142135623730951
 10
-191.3145882836683
 20
-85.56006319711013
 10
-191.3145882836683
 20
-72.56006319711023
 42
0.4142135623730951
 10
-191.8145882836683
 20
-72.06006319711012
 10
-204.8145882836684
 20
-72.06006319711022
 42
0.4142135623730951
 10
-205.3145882836683
 20
-72.56006319711023
 10
-205.3145882836683
 20
-85.56006319711013
 42
0.4142135623730951
 10
-204.8145882836684
 20
-86.06006319711022
  0
LWPOLYLINE
  5
123
330
1F
100
AcDbEntity
  8
0
100
AcDbPolyline
 90
        8
 70
     1
 43
0.0
 10
-272.2770882836684
 20
-15.41006319711022
 42
0.4142135623730951
 10
-272.7770882836684
 20
-14.91006319711022
 10
-285.7770882836683
 20
-14.91006319711022
 42
0.4142135623730951
 10
-286.2770882836683
 20
-15.41006319711022
 10
-286.2770882836683
 20
-28.41006319711012
 42
0.4142135623730951
 10
-285.7770882836683
 20
-28.91006319711012
 10
-272.7770882836684
 20
-28.91006319711012
 42
0.4142135623730951
 10
-272.2770882836684
 20
-28.41006319711012
  0
LWPOLYLINE
  5
124
330
1F
100
AcDbEntity
  8
0
100
AcDbPolyline
 90
        8
 70
     1
 43
0.0
 10
-223.3833382836683
 20
-89.61006319711012
 10
-223.3833382836683
 20
-104.6100631971102
 42
-0.4142135623730951
 10
-223.8833382836683
 20
-105.1100631971102
 10
-229.9213382836683
 20
-105.1100631971102
 42
-0.4142135623730951
 10
-230.4213382836683
 20
-104.6100631971102
 10
-230.4213382836683
 20
-89.61006319711012
 42
-0.4142135623730951
 10
-229.9213382836683
 20
-89.11006319711011
 10
-223.8833382836683
 20
-89.11006319711011
 42
-0.4142135623730951
  0
LWPOLYLINE
  5
125
330
1F
100
AcDbEntity
  8
0
100
AcDbPolyline
 90
        8
 70
     1
 43
0.0
 10
-5.577088283668331
 20
-34.46006319711023
 42
0.4142135623730951
 10
-6.077088283668331
 20
-33.96006319711023
 10
-19.07708828366833
 20
-33.96006319711023
 42
0.4142135623730951
 10
-19.57708828366833
 20
-34.46006319711023
 10
-19.57708828366833
 20
-47.46006319711013
 42
0.4142135623730951
 10
-19.07708828366833
 20
-47.96006319711024
 10
-6.077088283668331
 20
-47.96006319711014
 42
0.4142135623730951
 10
-5.577088283668331
 20
-47.46006319711013
  0
LWPOLYLINE
  5
126
330
1F
100
AcDbEntity
  8
0
100
AcDbPolyline
 90
        8
 70
     1
 43
0.0
 10
-169.8833382836683
 20
-91.61006319711022
 10
-169.8833382836683
 20
-104.6100631971102
 42
-0.4142135623730951
 10
-170.3833382836683
 20
-105.1100631971102
 10
-183.3833382836683
 20
-105.1100631971102
 42
-0.4142135623730951
 10
-183.8833382836683
 20
-104.6100631971102
 10
-183.8833382836683
 20
-91.61006319711022
 42
-0.4142135623730951
 10
-183.3833382836683
 20
-91.11006319711021
 10
-170.3833382836683
 20
-91.11006319711021
 42
-0.4142135623730951
  0
LWPOLYLINE
  5
127
330
1F
100
AcDbEntity
  8
0
100
AcDbPolyline
 90
        8
 70
     1
 43
0.0
 10
-153.2145882836693
 20
-72.56006319711023
 42
0.4142135623730951
 10
-153.7145882836693
 20
-72.06006319711022
 10
-166.7145882836683
 20
-72.06006319711022
 42
0.4142135623730951
 10
-167.2145882836683
 20
-72.56006319711023
 10
-167.2145882836683
 20
-85.56006319711013
 42
0.4142135623730951
 10
-166.7145882836683
 20
-86.06006319711022
 10
-153.7145882836693
 20
-86.06006319711012
 42
0.4142135623730951
 10
-153.2145882836693
 20
-85.56006319711013
  0
LWPOLYLINE
  5
128
330
1F
100
AcDbEntity
  8
0
100
AcDbPolyline
 90
        8
 70
     1
 43
0.0
 10
-181.7895882836683
 20
-53.51006319711319
 42
0.4142135623730951
 10
-182.2895882836683
 20
-53.01006319711319
 10
-195.2895882836683
 20
-53.01006319711319
 42
0.4142135623730951
 10
-195.7895882836683
 20
-53.51006319711319
 10
-195.7895882836683
 20
-66.5100631971132
 42
0.4142135623730951
 10
-195.2895882836683
 20
-67.01006319711322
 10
-182.2895882836683
 20
-67.0100631971132
 42
0.4142135623730951
 10
-181.7895882836683
 20
-66.5100631971132
  0
LWPOLYLINE
  5
129
330
1F
100
AcDbEntity
  8
0
100
AcDbPolyline
 90
        8
 70
     1
 43
0.0
 10
-248.9645882836683
 20
-86.06006319711012
 42
0.4142135623730951
 10
-248.4645882836683
 20
-85.56006319711013
 10
-248.4645882836683
 20
-72.56006319711023
 42
0.4142135623730951
 10
-248.9645882836683
 20
-72.06006319711012
 10
-261.9645882836684
 20
-72.06006319711022
 42
0.4142135623730951
 10
-262.4645882836684
 20
-72.56006319711023
 10
-262.4645882836684
 20
-85.56006319711013
 42
0.4142135623730951
 10
-261.9645882836684
 20
-86.06006319711022
  0
LWPOLYLINE
  5
130
330
1F
100
AcDbEntity
  8
0
100
AcDbPolyline
 90
        8
 70
     1
 43
0.0
 10
-119.8770882836683
 20
-15.41006319711022
 42
0.4142135623730951
 10
-120.3770882836683
 20
-14.91006319711022
 10
-133.3770882836683
 20
-14.91006319711022
 42
0.4142135623730951
 10
-133.8770882836683
 20
-15.41006319711022
 10
-133.8770882836683
 20
-28.41006319711013
 42
0.4142135623730951
 10
-133.3770882836683
 20
-28.91006319711013
 10
-120.3770882836683
 20
-28.91006319711014
 42
0.4142135623730951
 10
-119.8770882836683
 20
-28.41006319711013
  0
LWPOLYLINE
  5
131
330
1F
100
AcDbEntity
  8
0
100
AcDbPolyline
 90
        8
 70
     1
 43
0.0
 10
-172.2645882836683
 20
-72.56006319711023
 42
0.4142135623730951
 10
-172.7645882836683
 20
-72.06006319711022
 10
-185.7645882836683
 20
-72.06006319711022
 42
0.4142135623730951
 10
-186.2645882836683
 20
-72.56006319711023
 10
-186.2645882836683
 20
-85.56006319711013
 42
0.4142135623730951
 10
-185.7645882836683
 20
-86.06006319711022
 10
-172.7645882836683
 20
-86.06006319711012
 42
0.4142135623730951
 10
-172.2645882836683
 20
-85.56006319711013
  0
LWPOLYLINE
  5
132
330
1F
100
AcDbEntity
  8
0
100
AcDbPolyline
 90
        8
 70
     1
 43
0.0
 10
-210.8645882836683
 20
-86.06006319711012
 42
0.4142135623730951
 10
-210.3645882836683
 20
-85.56006319711013
 10
-210.3645882836683
 20
-72.56006319711023
 42
0.4142135623730951
 10
-210.8645882836683
 20
-72.06006319711012
 10
-223.8645882836683
 20
-72.06006319711022
 42
0.4142135623730951
 10
-224.3645882836683
 20
-72.56006319711023
 10
-224.3645882836683
 20
-85.56006319711013
 42
0.4142135623730951
 10
-223.8645882836683
 20
-86.06006319711022
  0
LWPOLYLINE
  5
133
330
1F
100
AcDbEntity
  8
0
100
AcDbPolyline
 90
        8
 70
     1
 43
0.0
 10
-48.15208828366833
 20
-28.41006319711013
 10
-48.15208828366833
 20
-15.41006319711023
 42
-0.4142135623730951
 10
-47.65208828366833
 20
-14.91006319711023
 10
-34.65208828366833
 20
-14.91006319711022
 42
-0.4142135623730951
 10
-34.15208828366834
 20
-15.41006319711023
 10
-34.15208828366835
 20
-28.41006319711013
 42
-0.4142135623730951
 10
-34.65208828366833
 20
-28.91006319711014
 10
-47.65208828366833
 20
-28.91006319711014
 42
-0.4142135623730951
  0
LWPOLYLINE
  5
134
330
1F
100
AcDbEntity
  8
0
100
AcDbPolyline
 90
        8
 70
     1
 43
0.0
 10
-98.44583828366832
 20
-91.61006319711022
 42
0.4142135623730951
 10
-98.94583828366833
 20
-91.11006319711021
 10
-111.9458382836683
 20
-91.11006319711021
 42
0.4142135623730951
 10
-112.4458382836683
 20
-91.61006319711022
 10
-112.4458382836683
 20
-104.6100631971102
 42
0.4142135623730951
 10
-111.9458382836683
 20
-105.1100631971102
 10
-98.94583828366833
 20
-105.1100631971102
 42
0.4142135623730951
 10
-98.44583828366832
 20
-104.6100631971102
  0
LWPOLYLINE
  5
135
330
1F
100
AcDbEntity
  8
0
100
AcDbPolyline
 90
        8
 70
     1
 43
0.0
 10
-74.63333828366835
 20
-91.61006319711024
 42
0.4142135623730951
 10
-75.13333828366835
 20
-91.11006319711023
 10
-88.13333828366834
 20
-91.11006319711023
 42
0.4142135623730951
 10
-88.63333828366833
 20
-91.61006319711024
 10
-88.63333828366833
 20
-104.6100631971102
 42
0.4142135623730951
 10
-88.13333828366834
 20
-105.1100631971102
 10
-75.13333828366835
 20
-105.1100631971102
 42
0.4142135623730951
 10
-74.63333828366835
 20
-104.6100631971102
  0
LWPOLYLINE
  5
136
330
1F
100
AcDbEntity
  8
0
100
AcDbPolyline
 90
        8
 70
     1
 43
0.0
 10
-44.17708828366833
 20
-105.1100631971102
 42
0.4142135623730951
 10
-43.67708828366831
 20
-104.6100631971102
 10
-43.67708828366831
 20
-91.61006319711024
 42
0.4142135623730951
 10
-44.17708828366833
 20
-91.11006319711023
 10
-57.17708828366832
 20
-91.11006319711023
 42
0.4142135623730951
 10
-57.67708828366831
 20
-91.61006319711024
 10
-57.67708828366832
 20
-104.6100631971102
 42
0.4142135623730951
 10
-57.17708828366832
 20
-105.1100631971102
  0
LWPOLYLINE
  5
137
330
1F
100
AcDbEntity
  8
0
100
AcDbPolyline
 90
        8
 70
     1
 43
0.0
 10
-5.577088283668331
 20
-15.41006319711023
 42
0.4142135623730951
 10
-6.077088283668331
 20
-14.91006319711023
 10
-19.07708828366833
 20
-14.91006319711023
 42
0.4142135623730951
 10
-19.57708828366833
 20
-15.41006319711023
 10
-19.57708828366833
 20
-28.41006319711013
 42
0.4142135623730951
 10
-19.07708828366833
 20
-28.91006319711014
 10
-6.077088283668331
 20
-28.91006319711014
 42
0.4142135623730951
 10
-5.577088283668331
 20
-28.41006319711013
  0
LWPOLYLINE
  5
138
330
1F
100
AcDbEntity
  8
0
100
AcDbPolyline
 90
        8
 70
     1
 43
0.0
 10
-181.0020882836683
 20
-33.96006319711013
 10
-168.0020882836683
 20
-33.96006319711022
 42
-0.4142135623730951
 10
-167.5020882836683
 20
-34.46006319711023
 10
-167.5020882836683
 20
-47.46006319711013
 42
-0.4142135623730951
 10
-168.0020882836683
 20
-47.96006319711013
 10
-181.0020882836683
 20
-47.96006319711013
 42
-0.4142135623730951
 10
-181.5020882836683
 20
-47.46006319711013
 10
-181.5020882836684
 20
-34.46006319711023
 42
-0.4142135623730951
  0
LWPOLYLINE
  5
139
330
1F
100
AcDbEntity
  8
0
100
AcDbPolyline
 90
        8
 70
     1
 43
0.0
 10
-257.2020882836683
 20
-33.96006319711012
 10
-244.2020882836683
 20
-33.96006319711022
 42
-0.4142135623730951
 10
-243.7020882836683
 20
-34.46006319711022
 10
-243.7020882836683
 20
-47.46006319711012
 42
-0.4142135623730951
 10
-244.2020882836683
 20
-47.96006319711013
 10
-257.2020882836683
 20
-47.96006319711013
 42
-0.4142135623730951
 10
-257.7020882836683
 20
-47.46006319711012
 10
-257.7020882836684
 20
-34.46006319711022
 42
-0.4142135623730951
  0
LWPOLYLINE
  5
140
330
1F
100
AcDbEntity
  8
0
100
AcDbPolyline
 90
        8
 70
     1
 43
0.0
 10
-163.2395882836693
 20
-67.0100631971132
 42
0.4142135623730951
 10
-162.7395882836693
 20
-66.5100631971132
 10
-162.7395882836693
 20
-53.51006319711319
 42
0.4142135623730951
 10
-163.2395882836693
 20
-53.01006319711319
 10
-176.2395882836683
 20
-53.01006319711319
 42
0.4142135623730951
 10
-176.7395882836683
 20
-53.51006319711319
 10
-176.7395882836683
 20
-66.5100631971132
 42
0.4142135623730951
 10
-176.2395882836683
 20
-67.01006319711322
  0
LWPOLYLINE
  5
141
330
1F
100
AcDbEntity
  8
0
100
AcDbPolyline
 90
        8
 70
     1
 43
0.0
 10
-129.9020882836683
 20
-47.96006319711013
 42
0.4142135623730951
 10
-129.4020882836683
 20
-47.46006319711013
 10
-129.4020882836683
 20
-34.46006319711023
 42
0.4142135623730951
 10
-129.9020882836683
 20
-33.96006319711013
 10
-142.9020882836683
 20
-33.96006319711022
 42
0.4142135623730951
 10
-143.4020882836683
 20
-34.46006319711023
 10
-143.4020882836683
 20
-47.46006319711013
 42
0.4142135623730951
 10
-142.9020882836683
 20
-47.96006319711023
  0
LWPOLYLINE
  5
142
330
1F
100
AcDbEntity
  8
0
100
AcDbPolyline
 90
        8
 70
     1
 43
0.0
 10
-96.06458828366832
 20
-72.56006319711023
 42
0.4142135623730951
 10
-96.56458828366831
 20
-72.06006319711022
 10
-109.5645882836683
 20
-72.06006319711022
 42
0.4142135623730951
 10
-110.0645882836683
 20
-72.56006319711023
 10
-110.0645882836683
 20
-85.56006319711014
 42
0.4142135623730951
 10
-109.5645882836683
 20
-86.06006319711022
 10
-96.56458828366831
 20
-86.06006319711013
 42
0.4142135623730951
 10
-96.06458828366832
 20
-85.56006319711014
  0
LWPOLYLINE
  5
143
330
1F
100
AcDbEntity
  8
0
100
AcDbPolyline
 90
        8
 70
     1
 43
0.0
 10
-62.7270882836683
 20
-15.41006319711023
 42
0.4142135623730951
 10
-63.22708828366834
 20
-14.91006319711023
 10
-76.22708828366835
 20
-14.91006319711023
 42
0.4142135623730951
 10
-76.72708828366835
 20
-15.41006319711023
 10
-76.72708828366835
 20
-28.41006319711013
 42
0.4142135623730951
 10
-76.22708828366835
 20
-28.91006319711014
 10
-63.22708828366834
 20
-28.91006319711014
 42
0.4142135623730951
 10
-62.72708828366834
 20
-28.41006319711013
  0
LWPOLYLINE
  5
144
330
1F
100
AcDbEntity
  8
0
100
AcDbPolyline
 90
        8
 70
     1
 43
0.0
 10
-134.1645882836683
 20
-72.56006319711023
 42
0.4142135623730951
 10
-134.6645882836683
 20
-72.06006319711022
 10
-147.6645882836693
 20
-72.06006319711022
 42
0.4142135623730951
 10
-148.1645882836693
 20
-72.56006319711023
 10
-148.1645882836693
 20
-85.56006319711013
 42
0.4142135623730951
 10
-147.6645882836693
 20
-86.06006319711022
 10
-134.6645882836683
 20
-86.06006319711012
 42
0.4142135623730951
 10
-134.1645882836683
 20
-85.56006319711013
  0
LWPOLYLINE
  5
145
330
1F
100
AcDbEntity
  8
0
100
AcDbPolyline
 90
        8
 70
     1
 43
0.0
 10
-229.4145882836684
 20
-72.56006319711023
 42
0.4142135623730951
 10
-229.9145882836683
 20
-72.06006319711022
 10
-242.9145882836684
 20
-72.06006319711022
 42
0.4142135623730951
 10
-243.4145882836683
 20
-72.56006319711023
 10
-243.4145882836684
 20
-85.56006319711013
 42
0.4142135623730951
 10
-242.9145882836684
 20
-86.06006319711022
 10
-229.9145882836683
 20
-86.06006319711012
 42
0.4142135623730951
 10
-229.4145882836684
 20
-85.56006319711013
  0
LWPOLYLINE
  5
146
330
1F
100
AcDbEntity
  8
0
100
AcDbPolyline
 90
        8
 70
     1
 43
0.0
 10
-289.4458382836683
 20
-105.1100631971102
 42
0.4142135623730951
 10
-288.9458382836683
 20
-104.6100631971102
 10
-288.9458382836683
 20
-91.6100631971102
 42
0.4142135623730951
 10
-289.4458382836683
 20
-91.11006319711021
 10
-302.4458382836683
 20
-91.11006319711021
 42
0.4142135623730951
 10
-302.9458382836683
 20
-91.6100631971102
 10
-302.9458382836684
 20
-104.6100631971102
 42
0.4142135623730951
 10
-302.4458382836683
 20
-105.1100631971102
  0
LWPOLYLINE
  5
147
330
1F
100
AcDbEntity
  8
0
100
AcDbPolyline
 90
        8
 70
     1
 43
0.0
 10
-19.07708828366833
 20
-53.01006319711321
 10
-6.077088283668331
 20
-53.01006319711319
 42
-0.4142135623730951
 10
-5.577088283668331
 20
-53.5100631971132
 10
-5.577088283668331
 20
-66.5100631971132
 42
-0.4142135623730951
 10
-6.077088283668331
 20
-67.0100631971132
 10
-19.07708828366833
 20
-67.0100631971132
 42
-0.4142135623730951
 10
-19.57708828366833
 20
-66.5100631971132
 10
-19.5770882836683
 20
-53.5100631971132
 42
-0.4142135623730951
  0
LWPOLYLINE
  5
148
330
1F
100
AcDbEntity
  8
0
100
AcDbPolyline
 90
        8
 70
     1
 43
0.0
 10
-67.48958828366831
 20
-53.5100631971132
 42
0.4142135623730951
 10
-67.98958828366831
 20
-53.01006319711319
 10
-80.98958828366832
 20
-53.01006319711319
 42
0.4142135623730951
 10
-81.48958828366833
 20
-53.5100631971132
 10
-81.48958828366833
 20
-66.5100631971132
 42
0.4142135623730951
 10
-80.98958828366832
 20
-67.01006319711322
 10
-67.98958828366831
 20
-67.0100631971132
 42
0.4142135623730951
 10
-67.48958828366832
 20
-66.5100631971132
  0
LWPOLYLINE
  5
149
330
1F
100
AcDbEntity
  8
0
100
AcDbPolyline
 90
        8
 70
     1
 43
0.0
 10
-241.3208382836683
 20
-91.6100631971102
 42
0.4142135623730951
 10
-241.8208382836684
 20
-91.11006319711021
 10
-254.8208382836683
 20
-91.11006319711021
 42
0.4142135623730951
 10
-255.3208382836683
 20
-91.6100631971102
 10
-255.3208382836683
 20
-104.6100631971102
 42
0.4142135623730951
 10
-254.8208382836683
 20
-105.1100631971102
 10
-241.8208382836684
 20
-105.1100631971102
 42
0.4142135623730951
 10
-241.3208382836683
 20
-104.6100631971102
  0
LWPOLYLINE
  5
150
330
1F
100
AcDbEntity
  8
0
100
AcDbPolyline
 90
        8
 70
     1
 43
0.0
 10
-200.8395882836683
 20
-53.51006319711319
 42
0.4142135623730951
 10
-201.3395882836683
 20
-53.01006319711319
 10
-214.3395882836684
 20
-53.01006319711318
 42
0.4142135623730951
 10
-214.8395882836683
 20
-53.51006319711318
 10
-214.8395882836683
 20
-66.51006319711318
 42
0.4142135623730951
 10
-214.3395882836684
 20
-67.01006319711322
 10
-201.3395882836683
 20
-67.0100631971132
 42
0.4142135623730951
 10
-200.8395882836683
 20
-66.51006319711318
  0
LWPOLYLINE
  5
151
330
1F
100
AcDbEntity
  8
0
100
AcDbPolyline
 90
        8
 70
     1
 43
0.0
 10
-278.6333382836684
 20
-91.11006319711021
 10
-265.6333382836683
 20
-91.11006319711021
 42
-0.4142135623730951
 10
-265.1333382836683
 20
-91.6100631971102
 10
-265.1333382836683
 20
-104.6100631971102
 42
-0.4142135623730951
 10
-265.6333382836683
 20
-105.1100631971102
 10
-278.6333382836684
 20
-105.1100631971102
 42
-0.4142135623730951
 10
-279.1333382836683
 20
-104.6100631971102
 10
-279.1333382836683
 20
-91.6100631971102
 42
-0.4142135623730951
  0
LWPOLYLINE
  5
152
330
1F
100
AcDbEntity
  8
0
100
AcDbPolyline
 90
        8
 70
     1
 43
0.0
 10
-53.20208828366833
 20
-34.46006319711023
 42
0.4142135623730951
 10
-53.70208828366833
 20
-33.96006319711023
 10
-66.70208828366833
 20
-33.96006319711023
 42
0.4142135623730951
 10
-67.20208828366832
 20
-34.46006319711023
 10
-67.20208828366833
 20
-47.46006319711013
 42
0.4142135623730951
 10
-66.70208828366833
 20
-47.96006319711024
 10
-53.70208828366833
 20
-47.96006319711014
 42
0.4142135623730951
 10
-53.20208828366833
 20
-47.46006319711013
  0
LWPOLYLINE
  5
153
330
1F
100
AcDbEntity
  8
0
100
AcDbPolyline
 90
        8
 70
     1
 43
0.0
 10
-238.9395882836683
 20
-53.51006319711318
 42
0.4142135623730951
 10
-239.4395882836683
 20
-53.01006319711318
 10
-252.4395882836683
 20
-53.01006319711318
 42
0.4142135623730951
 10
-252.9395882836683
 20
-53.51006319711318
 10
-252.9395882836683
 20
-66.51006319711318
 42
0.4142135623730951
 10
-252.4395882836683
 20
-67.01006319711322
 10
-239.4395882836683
 20
-67.01006319711318
 42
0.4142135623730951
 10
-238.9395882836684
 20
-66.51006319711318
  0
LWPOLYLINE
  5
154
330
1F
100
AcDbEntity
  8
0
100
AcDbPolyline
 90
        8
 70
     1
 43
0.0
 10
-186.5520882836683
 20
-34.46006319711022
 42
0.4142135623730951
 10
-187.0520882836683
 20
-33.96006319711022
 10
-200.0520882836683
 20
-33.96006319711022
 42
0.4142135623730951
 10
-200.5520882836683
 20
-34.46006319711022
 10
-200.5520882836683
 20
-47.46006319711013
 42
0.4142135623730951
 10
-200.0520882836683
 20
-47.96006319711023
 10
-187.0520882836683
 20
-47.96006319711013
 42
0.4142135623730951
 10
-186.5520882836683
 20
-47.46006319711013
  0
LWPOLYLINE
  5
155
330
1F
100
AcDbEntity
  8
0
100
AcDbPolyline
 90
        8
 70
     1
 43
0.0
 10
-90.51458828366833
 20
-72.06006319711014
 10
-77.51458828366833
 20
-72.06006319711024
 42
-0.4142135623730951
 10
-77.01458828366833
 20
-72.56006319711024
 10
-77.01458828366833
 20
-85.56006319711014
 42
-0.4142135623730951
 10
-77.51458828366833
 20
-86.06006319711013
 10
-90.51458828366833
 20
-86.06006319711013
 42
-0.4142135623730951
 10
-91.01458828366833
 20
-85.56006319711014
 10
-91.0145882836684
 20
-72.56006319711023
 42
-0.4142135623730951
  0
LWPOLYLINE
  5
156
330
1F
100
AcDbEntity
  8
0
100
AcDbPolyline
 90
        8
 70
     1
 43
0.0
 10
-143.6895882836683
 20
-53.51006319711319
 42
0.4142135623730951
 10
-144.1895882836683
 20
-53.01006319711319
 10
-157.1895882836693
 20
-53.01006319711319
 42
0.4142135623730951
 10
-157.6895882836693
 20
-53.51006319711319
 10
-157.6895882836693
 20
-66.5100631971132
 42
0.4142135623730951
 10
-157.1895882836693
 20
-67.01006319711322
 10
-144.1895882836683
 20
-67.0100631971132
 42
0.4142135623730951
 10
-143.6895882836683
 20
-66.5100631971132
  0
LWPOLYLINE
  5
157
330
1F
100
AcDbEntity
  8
0
100
AcDbPolyline
 90
        8
 70
     1
 43
0.0
 10
-100.0395882836683
 20
-53.0100631971132
 10
-87.03958828366834
 20
-53.01006319711319
 42
-0.4142135623730951
 10
-86.53958828366834
 20
-53.5100631971132
 10
-86.53958828366834
 20
-66.5100631971132
 42
-0.4142135623730951
 10
-87.03958828366834
 20
-67.0100631971132
 10
-100.0395882836683
 20
-67.0100631971132
 42
-0.4142135623730951
 10
-100.5395882836683
 20
-66.5100631971132
 10
-100.5395882836683
 20
-53.5100631971132
 42
-0.4142135623730951
  0
LWPOLYLINE
  5
158
330
1F
100
AcDbEntity
  8
0
100
AcDbPolyline
 90
        8
 70
     1
 43
0.0
 10
-91.30208828366832
 20
-34.46006319711023
 42
0.4142135623730951
 10
-91.80208828366833
 20
-33.96006319711023
 10
-104.8020882836683
 20
-33.96006319711023
 42
0.4142135623730951
 10
-105.3020882836683
 20
-34.46006319711023
 10
-105.3020882836683
 20
-47.46006319711013
 42
0.4142135623730951
 10
-104.8020882836683
 20
-47.96006319711023
 10
-91.80208828366833
 20
-47.96006319711014
 42
0.4142135623730951
 10
-91.30208828366832
 20
-47.46006319711013
  0
LWPOLYLINE
  5
159
330
1F
100
AcDbEntity
  8
0
100
AcDbPolyline
 90
        8
 70
     1
 43
0.0
 10
-110.8520882836683
 20
-47.96006319711014
 42
0.4142135623730951
 10
-110.3520882836683
 20
-47.46006319711013
 10
-110.3520882836683
 20
-34.46006319711023
 42
0.4142135623730951
 10
-110.8520882836683
 20
-33.96006319711013
 10
-123.8520882836683
 20
-33.96006319711023
 42
0.4142135623730951
 10
-124.3520882836683
 20
-34.46006319711023
 10
-124.3520882836683
 20
-47.46006319711013
 42
0.4142135623730951
 10
-123.8520882836683
 20
-47.96006319711023
  0
LWPOLYLINE
  5
160
330
1F
100
AcDbEntity
  8
0
100
AcDbPolyline
 90
        8
 70
     1
 43
0.0
 10
-234.6770882836683
 20
-28.91006319711012
 42
0.4142135623730951
 10
-234.1770882836683
 20
-28.41006319711012
 10
-234.1770882836683
 20
-15.41006319711022
 42
0.4142135623730951
 10
-234.6770882836683
 20
-14.91006319711012
 10
-247.6770882836683
 20
-14.91006319711022
 42
0.4142135623730951
 10
-248.1770882836683
 20
-15.41006319711022
 10
-248.1770882836684
 20
-28.41006319711012
 42
0.4142135623730951
 10
-247.6770882836683
 20
-28.91006319711012
  0
LWPOLYLINE
  5
161
330
1F
100
AcDbEntity
  8
0
100
AcDbPolyline
 90
        8
 70
     1
 43
0.0
 10
-72.25208828366831
 20
-34.46006319711023
 42
0.4142135623730951
 10
-72.75208828366832
 20
-33.96006319711023
 10
-85.75208828366832
 20
-33.96006319711023
 42
0.4142135623730951
 10
-86.25208828366833
 20
-34.46006319711023
 10
-86.25208828366833
 20
-47.46006319711013
 42
0.4142135623730951
 10
-85.75208828366832
 20
-47.96006319711023
 10
-72.75208828366832
 20
-47.96006319711014
 42
0.4142135623730951
 10
-72.25208828366833
 20
-47.46006319711013
  0
LWPOLYLINE
  5
162
330
1F
100
AcDbEntity
  8
0
100
AcDbPolyline
 90
        8
 70
     1
 43
0.0
 10
-38.12708828366832
 20
-72.06006319711014
 10
-25.12708828366835
 20
-72.06006319711022
 42
-0.4142135623730951
 10
-24.62708828366834
 20
-72.56006319711024
 10
-24.62708828366834
 20
-85.56006319711014
 42
-0.4142135623730951
 10
-25.12708828366835
 20
-86.06006319711013
 10
-38.12708828366832
 20
-86.06006319711013
 42
-0.4142135623730951
 10
-38.62708828366832
 20
-85.56006319711014
 10
-38.62708828366841
 20
-72.56006319711024
 42
-0.4142135623730951
  0
LWPOLYLINE
  5
163
330
1F
100
AcDbEntity
  8
0
100
AcDbPolyline
 90
        8
 70
     1
 43
0.0
 10
-253.2270882836683
 20
-15.41006319711022
 42
0.4142135623730951
 10
-253.7270882836683
 20
-14.91006319711022
 10
-266.7270882836683
 20
-14.91006319711022
 42
0.4142135623730951
 10
-267.2270882836684
 20
-15.41006319711022
 10
-267.2270882836684
 20
-28.41006319711012
 42
0.4142135623730951
 10
-266.7270882836683
 20
-28.91006319711012
 10
-253.7270882836683
 20
-28.91006319711012
 42
0.4142135623730951
 10
-253.2270882836684
 20
-28.41006319711012
  0
LWPOLYLINE
  5
164
330
1F
100
AcDbEntity
  8
0
100
AcDbPolyline
 90
        8
 70
     1
 43
0.0
 10
-196.0770882836683
 20
-15.41006319711022
 42
0.4142135623730951
 10
-196.5770882836683
 20
-14.91006319711022
 10
-209.5770882836683
 20
-14.91006319711022
 42
0.4142135623730951
 10
-210.0770882836684
 20
-15.41006319711022
 10
-210.0770882836684
 20
-28.41006319711012
 42
0.4142135623730951
 10
-209.5770882836683
 20
-28.91006319711012
 10
-196.5770882836683
 20
-28.91006319711012
 42
0.4142135623730951
 10
-196.0770882836683
 20
-28.41006319711012
  0
LWPOLYLINE
  5
165
330
1F
100
AcDbEntity
  8
0
100
AcDbPolyline
 90
        8
 70
     1
 43
0.0
 10
-284.1833382836683
 20
-53.51006319711318
 42
0.4142135623730951
 10
-284.6833382836683
 20
-53.01006319711318
 10
-297.6833382836683
 20
-53.01006319711318
 42
0.4142135623730951
 10
-298.1833382836683
 20
-53.51006319711318
 10
-298.1833382836683
 20
-66.51006319711318
 42
0.4142135623730951
 10
-297.6833382836683
 20
-67.01006319711321
 10
-284.6833382836683
 20
-67.01006319711318
 42
0.4142135623730951
 10
-284.1833382836683
 20
-66.51006319711318
  0
LWPOLYLINE
  5
166
330
1F
100
AcDbEntity
  8
0
100
AcDbPolyline
 90
        8
 70
     1
 43
0.0
 10
-81.77708828366835
 20
-15.41006319711023
 42
0.4142135623730951
 10
-82.27708828366834
 20
-14.91006319711023
 10
-95.27708828366833
 20
-14.91006319711023
 42
0.4142135623730951
 10
-95.77708828366834
 20
-15.41006319711023
 10
-95.77708828366834
 20
-28.41006319711013
 42
0.4142135623730951
 10
-95.27708828366833
 20
-28.91006319711014
 10
-82.27708828366834
 20
-28.91006319711014
 42
0.4142135623730951
 10
-81.77708828366835
 20
-28.41006319711013
  0
LWPOLYLINE
  5
167
330
1F
100
AcDbEntity
  8
0
100
AcDbPolyline
 90
        8
 70
     1
 43
0.0
 10
-50.82083828366831
 20
-72.56006319711024
 42
0.4142135623730951
 10
-51.32083828366834
 20
-72.06006319711024
 10
-64.32083828366834
 20
-72.06006319711024
 42
0.4142135623730951
 10
-64.82083828366834
 20
-72.56006319711024
 10
-64.82083828366834
 20
-85.56006319711014
 42
0.4142135623730951
 10
-64.32083828366834
 20
-86.06006319711022
 10
-51.32083828366834
 20
-86.06006319711013
 42
0.4142135623730951
 10
-50.82083828366833
 20
-85.56006319711014
  0
LWPOLYLINE
  5
168
330
1F
100
AcDbEntity
  8
0
100
AcDbPolyline
 90
        8
 70
     1
 43
0.0
 10
-24.62708828366834
 20
-91.61006319711024
 42
0.4142135623730951
 10
-25.12708828366835
 20
-91.11006319711023
 10
-38.12708828366832
 20
-91.11006319711023
 42
0.4142135623730951
 10
-38.62708828366832
 20
-91.61006319711024
 10
-38.62708828366832
 20
-104.6100631971102
 42
0.4142135623730951
 10
-38.12708828366832
 20
-105.1100631971102
 10
-25.12708828366835
 20
-105.1100631971102
 42
0.4142135623730951
 10
-24.62708828366834
 20
-104.6100631971102
  0
LWPOLYLINE
  5
169
330
1F
100
AcDbEntity
  8
0
100
AcDbPolyline
 90
        8
 70
     1
 43
0.0
 10
-157.9770882836693
 20
-15.41006319711022
 42
0.4142135623730951
 10
-158.4770882836693
 20
-14.91006319711022
 10
-171.4770882836683
 20
-14.91006319711022
 42
0.4142135623730951
 10
-171.9770882836683
 20
-15.41006319711022
 10
-171.9770882836683
 20
-28.41006319711013
 42
0.4142135623730951
 10
-171.4770882836683
 20
-28.91006319711013
 10
-158.4770882836693
 20
-28.91006319711013
 42
0.4142135623730951
 10
-157.9770882836693
 20
-28.41006319711013
  0
LWPOLYLINE
  5
170
330
1F
100
AcDbEntity
  8
0
100
AcDbPolyline
 90
        8
 70
     1
 43
0.0
 10
-177.0270882836683
 20
-15.41006319711022
 42
0.4142135623730951
 10
-177.5270882836683
 20
-14.91006319711022
 10
-190.5270882836683
 20
-14.91006319711022
 42
0.4142135623730951
 10
-191.0270882836683
 20
-15.41006319711022
 10
-191.0270882836683
 20
-28.41006319711012
 42
0.4142135623730951
 10
-190.5270882836683
 20
-28.91006319711012
 10
-177.5270882836683
 20
-28.91006319711013
 42
0.4142135623730951
 10
-177.0270882836683
 20
-28.41006319711013
  0
LWPOLYLINE
  5
171
330
1F
100
AcDbEntity
  8
0
100
AcDbPolyline
 90
        8
 70
     1
 43
0.0
 10
-63.22708828366834
 20
-105.1100631971102
 42
0.4142135623730951
 10
-62.7270882836683
 20
-104.6100631971102
 10
-62.7270882836683
 20
-91.61006319711024
 42
0.4142135623730951
 10
-63.22708828366834
 20
-91.11006319711023
 10
-66.70208828366833
 20
-91.11006319711023
 42
0.4142135623730951
 10
-67.20208828366832
 20
-91.61006319711024
 10
-67.20208828366833
 20
-104.6100631971102
 42
0.4142135623730951
 10
-66.70208828366833
 20
-105.1100631971102
  0
LWPOLYLINE
  5
172
330
1F
100
AcDbEntity
  8
0
100
AcDbPolyline
 90
        8
 70
     1
 43
0.0
 10
-26.21408828366833
 20
-30.91006319711024
 42
0.4142135623730951
 10
-25.71408828366833
 20
-30.41006319711023
 10
-25.71408828366833
 20
-16.41006319711013
 42
0.4142135623730951
 10
-26.21408828366833
 20
-15.91006319711023
 10
-32.21408828366833
 20
-15.91006319711013
 42
0.4142135623730951
 10
-32.71408828366833
 20
-16.41006319711013
 10
-32.71408828366833
 20
-30.41006319711023
 42
0.4142135623730951
 10
-32.21408828366833
 20
-30.91006319711024
  0
LWPOLYLINE
  5
173
330
1F
100
AcDbEntity
  8
0
100
AcDbPolyline
 90
        8
 70
     1
 43
0.0
 10
-295.3588382836683
 20
-88.06006319711022
 42
0.4142135623730951
 10
-294.8588382836683
 20
-87.56006319711023
 10
-294.8588382836683
 20
-73.56006319711022
 42
0.4142135623730951
 10
-295.3588382836683
 20
-73.06006319711022
 10
-301.3588382836683
 20
-73.06006319711022
 42
0.4142135623730951
 10
-301.8588382836683
 20
-73.56006319711022
 10
-301.8588382836683
 20
-87.56006319711021
 42
0.4142135623730951
 10
-301.3588382836683
 20
-88.06006319711022
  0
LWPOLYLINE
  5
174
330
1F
100
AcDbEntity
  8
0
100
AcDbPolyline
 90
        8
 70
     1
 43
0.0
 10
-50.09008828366834
 20
-30.91006319711024
 42
0.4142135623730951
 10
-49.5900882836683
 20
-30.41006319711023
 10
-49.5900882836683
 20
-16.41006319711013
 42
0.4142135623730951
 10
-50.09008828366834
 20
-15.91006319711023
 10
-56.09008828366834
 20
-15.91006319711013
 42
0.4142135623730951
 10
-56.59008828366831
 20
-16.41006319711013
 10
-56.59008828366833
 20
-30.41006319711023
 42
0.4142135623730951
 10
-56.09008828366834
 20
-30.91006319711024
  0
LWPOLYLINE
  5
175
330
1F
100
AcDbEntity
  8
0
100
AcDbPolyline
 90
        8
 70
     1
 43
0.0
 10
-50.53333828366833
 20
-66.5100631971132
 10
-50.53333828366833
 20
-53.5100631971132
 42
-0.4142135623730951
 10
-50.03333828366831
 20
-53.01006319711319
 10
-37.03333828366832
 20
-53.01006319711319
 42
-0.4142135623730951
 10
-36.53333828366831
 20
-53.5100631971132
 10
-36.53333828366831
 20
-66.5100631971132
 42
-0.4142135623730951
 10
-37.03333828366832
 20
-67.0100631971132
 10
-50.03333828366831
 20
-67.0100631971132
 42
-0.4142135623730951
  0
LWPOLYLINE
  5
176
330
1F
100
AcDbEntity
  8
0
100
AcDbPolyline
 90
        8
 70
     1
 43
0.0
 10
-271.4828382836683
 20
-88.06006319711022
 42
0.4142135623730951
 10
-270.9828382836684
 20
-87.56006319711023
 10
-270.9828382836684
 20
-73.56006319711022
 42
0.4142135623730951
 10
-271.4828382836683
 20
-73.06006319711022
 10
-277.4828382836683
 20
-73.06006319711022
 42
0.4142135623730951
 10
-277.9828382836683
 20
-73.56006319711022
 10
-277.9828382836683
 20
-87.56006319711023
 42
0.4142135623730951
 10
-277.4828382836683
 20
-88.06006319711022
  0
ENDSEC
  0
SECTION
  2
OBJECTS
  0
DICTIONARY
  5
C
330
0
100
AcDbDictionary
281
     1
  3
ACAD_BACKGROUND
350
1005B
  3
ACAD_CIP_PREVIOUS_PRODUCT_INFO
350
1005A
  3
ACAD_COLOR
350
10036
  3
ACAD_DETAILVIEWSTYLE
350
10051
  3
ACAD_GROUP
350
D
  3
ACAD_LAYOUT
350
10037
  3
ACAD_MATERIAL
350
10004
  3
ACAD_MLEADERSTYLE
350
1004D
  3
ACAD_MLINESTYLE
350
17
  3
ACAD_PLOTSETTINGS
350
10054
  3
ACAD_PLOTSTYLENAME
350
10002
  3
ACAD_SCALELIST
350
1003B
  3
ACAD_SECTIONVIEWSTYLE
350
1004F
  3
ACAD_TABLESTYLE
350
10038
  3
ACAD_VISUALSTYLE
350
1001D
  3
ACDB_RECOMPOSE_DATA
350
1006D
  3
AcDbVariableDictionary
350
10061
  0
DICTIONARY
  5
1005F
330
50
100
AcDbDictionary
280
     1
281
     1
  3
ADSK_XREC_LAYER_RECONCILED
360
10060
  0
DICTIONARY
  5
1005B
102
{ACAD_REACTORS
330
C
102
}
330
C
100
AcDbDictionary
281
     1
  0
XRECORD
  5
1005A
102
{ACAD_REACTORS
330
C
102
}
330
C
100
AcDbXrecord
280
     1
300
ACD
300
2022
300

  0
DICTIONARY
  5
10036
102
{ACAD_REACTORS
330
C
102
}
330
C
100
AcDbDictionary
281
     1
  0
DICTIONARY
  5
10051
102
{ACAD_REACTORS
330
C
102
}
330
C
100
AcDbDictionary
281
     1
  3
Imperial24
350
10052
  0
DICTIONARY
  5
D
330
C
100
AcDbDictionary
281
     1
  0
DICTIONARY
  5
10037
102
{ACAD_REACTORS
330
C
102
}
330
C
100
AcDbDictionary
281
     1
  3
Layout1
350
10056
  3
Model
350
10055
  0
DICTIONARY
  5
10004
102
{ACAD_REACTORS
330
C
102
}
330
C
100
AcDbDictionary
281
     1
  3
ByBlock
350
1000D
  3
ByLayer
350
10005
  3
Global
350
10015
  0
DICTIONARY
  5
1004D
102
{ACAD_REACTORS
330
C
102
}
330
C
100
AcDbDictionary
281
     1
  3
Standard
350
1004E
  0
DICTIONARY
  5
17
330
C
100
AcDbDictionary
281
     1
  3
Standard
350
1003A
  0
DICTIONARY
  5
10054
102
{ACAD_REACTORS
330
C
102
}
330
C
100
AcDbDictionary
281
     1
  0
ACDBDICTIONARYWDFLT
  5
10002
102
{ACAD_REACTORS
330
C
102
}
330
C
100
AcDbDictionary
281
     1
  3
Normal
350
10003
100
AcDbDictionaryWithDefault
340
10003
  0
DICTIONARY
  5
1003B
102
{ACAD_REACTORS
330
C
102
}
330
C
100
AcDbDictionary
281
     1
  3
A0
350
1003C
  3
A1
350
1003D
  3
A2
350
1003E
  3
A3
350
1003F
  3
A4
350
10040
  3
A5
350
10041
  3
A6
350
10042
  3
A7
350
10043
  3
A8
350
10044
  3
A9
350
10045
  3
B0
350
10046
  3
B1
350
10047
  3
B2
350
10048
  3
B3
350
10049
  3
B4
350
1004A
  3
B5
350
1004B
  3
B6
350
1004C
  0
DICTIONARY
  5
1004F
102
{ACAD_REACTORS
330
C
102
}
330
C
100
AcDbDictionary
281
     1
  3
Imperial24
350
10050
  0
DICTIONARY
  5
10038
102
{ACAD_REACTORS
330
C
102
}
330
C
100
AcDbDictionary
281
     1
  3
Standard
350
10039
  0
DICTIONARY
  5
1001D
102
{ACAD_REACTORS
330
C
102
}
330
C
100
AcDbDictionary
281
     1
  3
2dWireframe
350
10023
  3
Basic
350
10022
  3
Brighten
350
10029
  3
ColorChange
350
1002D
  3
Conceptual
350
10026
  3
Dim
350
10028
  3
EdgeColorOff
350
10035
  3
Facepattern
350
1002C
  3
Flat
350
1001E
  3
FlatWithEdges
350
1001F
  3
Gouraud
350
10020
  3
GouraudWithEdges
350
10021
  3
Hidden
350
10025
  3
JitterOff
350
10033
  3
Linepattern
350
1002B
  3
OverhangOff
350
10034
  3
Realistic
350
10027
  3
Shaded
350
10032
  3
Shaded with edges
350
10031
  3
Shades of Gray
350
1002E
  3
Sketchy
350
1002F
  3
Thicken
350
1002A
  3
Wireframe
350
10024
  3
X-Ray
350
10030
  0
XRECORD
  5
1006D
102
{ACAD_REACTORS
330
C
102
}
330
C
100
AcDbXrecord
280
     1
 90
        1
330
10039
  0
DICTIONARY
  5
10061
102
{ACAD_REACTORS
330
C
102
}
330
C
100
AcDbDictionary
281
     1
  3
CANNOSCALE
350
10067
  3
CMLEADERSTYLE
350
10063
  3
CTABLESTYLE
350
10062
  3
CVIEWDETAILSTYLE
350
10064
  3
CVIEWSECTIONSTYLE
350
10065
  3
LAYEREVAL
350
10069
  3
LAYERNOTIFY
350
1006A
  3
LIGHTINGUNITS
350
10068
  3
MSLTSCALE
350
10066
  0
XRECORD
  5
10060
102
{ACAD_REACTORS
330
1005F
102
}
330
1005F
100
AcDbXrecord
280
     1
290
     1
  0
ACDBDETAILVIEWSTYLE
  5
10052
102
{ACAD_XDICTIONARY
360
10070
102
}
102
{ACAD_REACTORS
330
10051
102
}
330
10051
100
AcDbModelDocViewStyle
 70
     0
  3
Imperial24
290
     0
100
AcDbDetailViewStyle
 70
     0
 71
     0
 90
        3
 71
     1
340
11
 62
   256
 40
0.24
340
0
 62
   256
 40
0.24
300

 40
0.36
280
     3
 71
     2
340
0
 90
       25
 62
   256
 71
     3
340
11
 62
   256
 40
0.24
 90
        1
 40
0.75
 90
        1
300
%<\AcVar ViewType \f "%tc1">% %<\AcVar ViewDetailId>%\PSCALE %<\AcVar ViewScale \f "%sn">%
 71
     4
340
0
 90
       25
 62
   256
340
0
 90
       25
 62
   256
280
     0
  0
LAYOUT
  5
10056
102
{ACAD_REACTORS
330
10037
102
}
330
10037
100
AcDbPlotSettings
  1

  2
Canon iP110 series WS
  4

  6

 40
0.0
 41
0.0
 42
0.0
 43
0.0
 44
0.0
 45
0.0
 46
0.0
 47
0.0
 48
0.0
 49
0.0
140
0.0
141
0.0
142
1.0
143
1.0
 70
   688
 72
     0
 73
     0
 74
     5
  7

 75
    16
147
1.0
 76
     0
 77
     2
 78
   300
148
0.0
149
0.0
100
AcDbLayout
  1
Layout1
 70
     1
 71
     1
 10
0.0
 20
0.0
 11
12.0
 21
9.0
 12
0.0
 22
0.0
 32
0.0
 14
1.000000000000000E+20
 24
1.000000000000000E+20
 34
1.000000000000000E+20
 15
-1.000000000000000E+20
 25
-1.000000000000000E+20
 35
-1.000000000000000E+20
146
0.0
 13
0.0
 23
0.0
 33
0.0
 16
1.0
 26
0.0
 36
0.0
 17
0.0
 27
1.0
 37
0.0
 76
     0
330
1B
  0
LAYOUT
  5
10055
102
{ACAD_REACTORS
330
10037
102
}
330
10037
100
AcDbPlotSettings
  1

  2
Canon iP110 series WS
  4

  6

 40
0.0
 41
0.0
 42
0.0
 43
0.0
 44
0.0
 45
0.0
 46
0.0
 47
0.0
 48
0.0
 49
0.0
140
0.0
141
0.0
142
1.0
143
1.0
 70
  1712
 72
     0
 73
     0
 74
     0
  7

 75
     0
147
1.0
 76
     0
 77
     2
 78
   300
148
0.0
149
0.0
100
AcDbLayout
  1
Model
 70
     1
 71
     0
 10
0.0
 20
0.0
 11
12.0
 21
9.0
 12
0.0
 22
0.0
 32
0.0
 14
0.0
 24
0.0
 34
0.0
 15
0.0
 25
0.0
 35
0.0
146
0.0
 13
0.0
 23
0.0
 33
0.0
 16
1.0
 26
0.0
 36
0.0
 17
0.0
 27
1.0
 37
0.0
 76
     0
330
1F
331
10059
  0
MATERIAL
  5
1000D
102
{ACAD_XDICTIONARY
360
1000E
102
}
102
{ACAD_REACTORS
330
10004
102
}
330
10004
100
AcDbMaterial
  1
ByBlock
 72
     0
 43
0.0008202099737533
 43
0.0
 43
0.0
 43
0.0
 43
0.0
 43
0.0008202099737533
 43
0.0
 43
0.0
 43
0.0
 43
0.0
 43
1.0
 43
0.0
 43
0.0
 43
0.0
 43
0.0
 43
1.0
 77
     0
 47
0.0008202099737533
 47
0.0
 47
0.0
 47
0.0
 47
0.0
 47
0.0008202099737533
 47
0.0
 47
0.0
 47
0.0
 47
0.0
 47
1.0
 47
0.0
 47
0.0
 47
0.0
 47
0.0
 47
1.0
171
     0
 49
0.0008202099737533
 49
0.0
 49
0.0
 49
0.0
 49
0.0
 49
0.0008202099737533
 49
0.0
 49
0.0
 49
0.0
 49
0.0
 49
1.0
 49
0.0
 49
0.0
 49
0.0
 49
0.0
 49
1.0
175
     0
142
0.0008202099737533
142
0.0
142
0.0
142
0.0
142
0.0
142
0.0008202099737533
142
0.0
142
0.0
142
0.0
142
0.0
142
1.0
142
0.0
142
0.0
142
0.0
142
0.0
142
1.0
179
     0
144
0.0008202099737533
144
0.0
144
0.0
144
0.0
144
0.0
144
0.0008202099737533
144
0.0
144
0.0
144
0.0
144
0.0
144
1.0
144
0.0
144
0.0
144
0.0
144
0.0
144
1.0
147
0.0008202099737533
147
0.0
147
0.0
147
0.0
147
0.0
147
0.0008202099737533
147
0.0
147
0.0
147
0.0
147
0.0
147
1.0
147
0.0
147
0.0
147
0.0
147
0.0
147
1.0
  0
MATERIAL
  5
10005
102
{ACAD_XDICTIONARY
360
10006
102
}
102
{ACAD_REACTORS
330
10004
102
}
330
10004
100
AcDbMaterial
  1
ByLayer
 72
     0
 43
0.0008202099737533
 43
0.0
 43
0.0
 43
0.0
 43
0.0
 43
0.0008202099737533
 43
0.0
 43
0.0
 43
0.0
 43
0.0
 43
1.0
 43
0.0
 43
0.0
 43
0.0
 43
0.0
 43
1.0
 77
     0
 47
0.0008202099737533
 47
0.0
 47
0.0
 47
0.0
 47
0.0
 47
0.0008202099737533
 47
0.0
 47
0.0
 47
0.0
 47
0.0
 47
1.0
 47
0.0
 47
0.0
 47
0.0
 47
0.0
 47
1.0
171
     0
 49
0.0008202099737533
 49
0.0
 49
0.0
 49
0.0
 49
0.0
 49
0.0008202099737533
 49
0.0
 49
0.0
 49
0.0
 49
0.0
 49
1.0
 49
0.0
 49
0.0
 49
0.0
 49
0.0
 49
1.0
175
     0
142
0.0008202099737533
142
0.0
142
0.0
142
0.0
142
0.0
142
0.0008202099737533
142
0.0
142
0.0
142
0.0
142
0.0
142
1.0
142
0.0
142
0.0
142
0.0
142
0.0
142
1.0
179
     0
144
0.0008202099737533
144
0.0
144
0.0
144
0.0
144
0.0
144
0.0008202099737533
144
0.0
144
0.0
144
0.0
144
0.0
144
1.0
144
0.0
144
0.0
144
0.0
144
0.0
144
1.0
147
0.0008202099737533
147
0.0
147
0.0
147
0.0
147
0.0
147
0.0008202099737533
147
0.0
147
0.0
147
0.0
147
0.0
147
1.0
147
0.0
147
0.0
147
0.0
147
0.0
147
1.0
  0
MATERIAL
  5
10015
102
{ACAD_XDICTIONARY
360
10016
102
}
102
{ACAD_REACTORS
330
10004
102
}
330
10004
100
AcDbMaterial
  1
Global
 72
     0
 43
0.0008202099737533
 43
0.0
 43
0.0
 43
0.0
 43
0.0
 43
0.0008202099737533
 43
0.0
 43
0.0
 43
0.0
 43
0.0
 43
1.0
 43
0.0
 43
0.0
 43
0.0
 43
0.0
 43
1.0
 77
     0
 47
0.0008202099737533
 47
0.0
 47
0.0
 47
0.0
 47
0.0
 47
0.0008202099737533
 47
0.0
 47
0.0
 47
0.0
 47
0.0
 47
1.0
 47
0.0
 47
0.0
 47
0.0
 47
0.0
 47
1.0
171
     0
 49
0.0008202099737533
 49
0.0
 49
0.0
 49
0.0
 49
0.0
 49
0.0008202099737533
 49
0.0
 49
0.0
 49
0.0
 49
0.0
 49
1.0
 49
0.0
 49
0.0
 49
0.0
 49
0.0
 49
1.0
175
     0
142
0.0008202099737533
142
0.0
142
0.0
142
0.0
142
0.0
142
0.0008202099737533
142
0.0
142
0.0
142
0.0
142
0.0
142
1.0
142
0.0
142
0.0
142
0.0
142
0.0
142
1.0
179
     0
144
0.0008202099737533
144
0.0
144
0.0
144
0.0
144
0.0
144
0.0008202099737533
144
0.0
144
0.0
144
0.0
144
0.0
144
1.0
144
0.0
144
0.0
144
0.0
144
0.0
144
1.0
147
0.0008202099737533
147
0.0
147
0.0
147
0.0
147
0.0
147
0.0008202099737533
147
0.0
147
0.0
147
0.0
147
0.0
147
1.0
147
0.0
147
0.0
147
0.0
147
0.0
147
1.0
  0
MLEADERSTYLE
  5
1004E
102
{ACAD_REACTORS
330
1004D
102
}
330
1004D
100
AcDbMLeaderStyle
179
     2
170
     2
171
     1
172
     0
 90
        2
 40
0.0
 41
0.0
173
     1
 91
-1056964608
340
14
 92
       -2
290
     1
 42
0.09
291
     1
 43
0.36
  3
Standard
 44
0.18
300

342
11
174
     1
178
     6
175
     1
176
     0
 93
-1056964608
 45
0.18
292
     0
297
     0
 46
0.18
 94
-1056964608
 47
1.0
 49
1.0
140
1.0
293
     1
141
0.0
294
     1
177
     0
142
1.0
295
     0
296
     0
143
0.125
271
     0
272
     9
273
     9
298
     0
  0
MLINESTYLE
  5
1003A
102
{ACAD_REACTORS
330
17
102
}
330
17
100
AcDbMlineStyle
  2
STANDARD
 70
     0
  3

 62
   256
 51
90.0
 52
90.0
 71
     2
 49
0.5
 62
   256
  6
BYLAYER
 49
-0.5
 62
   256
  6
BYLAYER
  0
ACDBPLACEHOLDER
  5
10003
102
{ACAD_REACTORS
330
10002
102
}
330
10002
  0
SCALE
  5
1003C
102
{ACAD_REACTORS
330
1003B
102
}
330
1003B
100
AcDbScale
 70
     0
300
1:1
140
1.0
141
1.0
290
     1
  0
SCALE
  5
1003D
102
{ACAD_REACTORS
330
1003B
102
}
330
1003B
100
AcDbScale
 70
     0
300
1/128" = 1'-0"
140
0.0078125
141
12.0
290
     0
  0
SCALE
  5
1003E
102
{ACAD_REACTORS
330
1003B
102
}
330
1003B
100
AcDbScale
 70
     0
300
1/64" = 1'-0"
140
0.015625
141
12.0
290
     0
  0
SCALE
  5
1003F
102
{ACAD_REACTORS
330
1003B
102
}
330
1003B
100
AcDbScale
 70
     0
300
1/32" = 1'-0"
140
0.03125
141
12.0
290
     0
  0
SCALE
  5
10040
102
{ACAD_REACTORS
330
1003B
102
}
330
1003B
100
AcDbScale
 70
     0
300
1/16" = 1'-0"
140
0.0625
141
12.0
290
     0
  0
SCALE
  5
10041
102
{ACAD_REACTORS
330
1003B
102
}
330
1003B
100
AcDbScale
 70
     0
300
3/32" = 1'-0"
140
0.09375
141
12.0
290
     0
  0
SCALE
  5
10042
102
{ACAD_REACTORS
330
1003B
102
}
330
1003B
100
AcDbScale
 70
     0
300
1/8" = 1'-0"
140
0.125
141
12.0
290
     0
  0
SCALE
  5
10043
102
{ACAD_REACTORS
330
1003B
102
}
330
1003B
100
AcDbScale
 70
     0
300
3/16" = 1'-0"
140
0.1875
141
12.0
290
     0
  0
SCALE
  5
10044
102
{ACAD_REACTORS
330
1003B
102
}
330
1003B
100
AcDbScale
 70
     0
300
1/4" = 1'-0"
140
0.25
141
12.0
290
     0
  0
SCALE
  5
10045
102
{ACAD_REACTORS
330
1003B
102
}
330
1003B
100
AcDbScale
 70
     0
300
3/8" = 1'-0"
140
0.375
141
12.0
290
     0
  0
SCALE
  5
10046
102
{ACAD_REACTORS
330
1003B
102
}
330
1003B
100
AcDbScale
 70
     0
300
1/2" = 1'-0"
140
0.5
141
12.0
290
     0
  0
SCALE
  5
10047
102
{ACAD_REACTORS
330
1003B
102
}
330
1003B
100
AcDbScale
 70
     0
300
3/4" = 1'-0"
140
0.75
141
12.0
290
     0
  0
SCALE
  5
10048
102
{ACAD_REACTORS
330
1003B
102
}
330
1003B
100
AcDbScale
 70
     0
300
1" = 1'-0"
140
1.0
141
12.0
290
     0
  0
SCALE
  5
10049
102
{ACAD_REACTORS
330
1003B
102
}
330
1003B
100
AcDbScale
 70
     0
300
1-1/2" = 1'-0"
140
1.5
141
12.0
290
     0
  0
SCALE
  5
1004A
102
{ACAD_REACTORS
330
1003B
102
}
330
1003B
100
AcDbScale
 70
     0
300
3" = 1'-0"
140
3.0
141
12.0
290
     0
  0
SCALE
  5
1004B
102
{ACAD_REACTORS
330
1003B
102
}
330
1003B
100
AcDbScale
 70
     0
300
6" = 1'-0"
140
6.0
141
12.0
290
     0
  0
SCALE
  5
1004C
102
{ACAD_REACTORS
330
1003B
102
}
330
1003B
100
AcDbScale
 70
     0
300
1'-0" = 1'-0"
140
12.0
141
12.0
290
     0
  0
ACDBSECTIONVIEWSTYLE
  5
10050
102
{ACAD_XDICTIONARY
360
1006E
102
}
102
{ACAD_REACTORS
330
1004F
102
}
330
1004F
100
AcDbModelDocViewStyle
 70
     0
  3
Imperial24
290
     0
100
AcDbSectionViewStyle
 70
     0
 71
     0
 90
       78
 71
     1
340
11
 62
   256
 40
0.24
340
0
340
0
 62
   256
 40
0.24
300
I, O, Q, S, X, Z
 40
0.48
 90
        3
 40
0.18
 90
        1
 71
     2
340
0
 90
       25
 62
   256
340
0
 90
       50
 62
   256
 40
0.24
 40
0.0
 40
0.24
 71
     3
340
11
 62
   256
 40
0.24
 90
        1
 40
0.75
 90
        1
300
%<\AcVar ViewType \f "%tc1">% %<\AcVar ViewSectionStartId>%-%<\AcVar ViewSectionEndId>%\PSCALE %<\AcVar ViewScale \f "%sn">%
 71
     4
 62
   256
 62
   257
300
ANSI31
 40
1.0
 90
        0
290
     0
290
     0
 90
        6
 40
0.0
 40
1.570796326794896
 40
0.2617993877991494
 40
1.308996938995747
 40
-0.2617993877991494
 40
1.832595714594046
  0
TABLESTYLE
  5
10039
102
{ACAD_XDICTIONARY
360
1006B
102
}
102
{ACAD_REACTORS
330
10038
102
}
330
10038
100
AcDbTableStyle
280
     0
  3
Standard
 70
     0
 71
     0
 40
0.06
 41
0.06
280
     0
281
     0
  7
STANDARD
140
0.18
170
     2
 62
     0
 63
     7
283
     0
 90
      512
 91
        0
  1

274
    -2
284
     1
 64
     0
275
    -2
285
     1
 65
     0
276
    -2
286
     1
 66
     0
277
    -2
287
     1
 67
     0
278
    -2
288
     1
 68
     0
279
    -2
289
     1
 69
     0
  7
STANDARD
140
0.25
170
     5
 62
     0
 63
     7
283
     0
 90
      512
 91
        0
  1

274
    -2
284
     1
 64
     0
275
    -2
285
     1
 65
     0
276
    -2
286
     1
 66
     0
277
    -2
287
     1
 67
     0
278
    -2
288
     1
 68
     0
279
    -2
289
     1
 69
     0
  7
STANDARD
140
0.18
170
     5
 62
     0
 63
     7
283
     0
 90
      512
 91
        0
  1

274
    -2
284
     1
 64
     0
275
    -2
285
     1
 65
     0
276
    -2
286
     1
 66
     0
277
    -2
287
     1
 67
     0
278
    -2
288
     1
 68
     0
279
    -2
289
     1
 69
     0
  0
VISUALSTYLE
  5
10023
102
{ACAD_REACTORS
330
1001D
102
}
330
1001D
100
AcDbVisualStyle
  2
2dWireframe
 70
     4
177
     3
291
     0
 70
    58
 90
        0
176
     1
 90
        2
176
     1
 90
        0
176
     1
 90
        0
176
     1
 40
0.6
176
     1
 40
30.0
176
     1
 62
     7
420
 16777215
176
     1
 90
        1
176
     1
 90
        4
176
     1
 62
     7
176
     1
 62
   257
176
     1
 90
        1
176
     1
 90
        1
176
     1
 40
1.0
176
     1
 90
        0
176
     1
 62
   257
176
     1
 40
1.0
176
     1
 90
        1
176
     1
 90
        6
176
     1
 90
        2
176
     1
 62
     7
176
     1
 90
        5
176
     1
 90
        0
176
     1
 90
        0
176
     1
290
     0
176
     1
 90
        1
176
     1
 40
0.0
176
     1
 90
        0
176
     1
290
     1
176
     1
290
     1
176
     1
290
     0
176
     1
290
     0
176
     1
290
     0
176
     1
290
     0
176
     1
290
     0
176
     1
290
     0
176
     1
290
     0
176
     1
 90
       50
176
     1
 40
0.0
176
     1
 40
1.0
176
     1
 90
        0
176
     1
 62
    18
420
        0
176
     1
 90
       50
176
     1
 90
        3
176
     1
 62
     5
420
      255
176
     1
290
     0
176
     1
 90
       50
176
     1
 90
       50
176
     1
 90
       50
176
     1
290
     0
176
     1
 90
       50
176
     1
 62
   256
176
     0
 40
1.0
176
     0
 90
        2
176
     1
  1
strokes_ogs.tif
176
     1
290
     0
176
     1
 40
1.0
176
     1
 40
1.0
176
     1
1001
ACAD
1000
AcDbSavedByObjectVersion
1070
     0
  0
VISUALSTYLE
  5
10022
102
{ACAD_REACTORS
330
1001D
102
}
330
1001D
100
AcDbVisualStyle
  2
Basic
 70
     7
177
     3
291
     1
 70
    58
 90
        1
176
     1
 90
        0
176
     1
 90
        1
176
     1
 90
        0
176
     1
 40
0.6
176
     1
 40
30.0
176
     1
 62
     7
420
 16777215
176
     1
 90
        0
176
     1
 90
        4
176
     1
 62
     7
176
     1
 62
   257
176
     1
 90
        1
176
     1
 90
        1
176
     1
 40
1.0
176
     1
 90
        8
176
     1
 62
     7
176
     1
 40
1.0
176
     1
 90
        1
176
     1
 90
        6
176
     1
 90
        2
176
     1
 62
     7
176
     1
 90
        5
176
     1
 90
        0
176
     1
 90
        0
176
     1
290
     0
176
     1
 90
        1
176
     1
 40
0.0
176
     1
 90
        0
176
     1
290
     0
176
     1
290
     1
176
     1
290
     1
176
     1
290
     0
176
     1
290
     0
176
     1
290
     0
176
     1
290
     0
176
     1
290
     0
176
     1
290
     0
176
     1
 90
       50
176
     1
 40
0.0
176
     1
 40
1.0
176
     1
 90
        0
176
     1
 62
    18
420
        0
176
     1
 90
       50
176
     1
 90
        3
176
     1
 62
     5
420
      255
176
     1
290
     0
176
     1
 90
       50
176
     1
 90
       50
176
     1
 90
       50
176
     1
290
     0
176
     1
 90
       50
176
     1
 62
   256
176
     0
 40
1.0
176
     0
 90
        2
176
     1
  1
strokes_ogs.tif
176
     1
290
     0
176
     1
 40
1.0
176
     1
 40
1.0
176
     1
1001
ACAD
1000
AcDbSavedByObjectVersion
1070
     0
  0
VISUALSTYLE
  5
10029
102
{ACAD_REACTORS
330
1001D
102
}
330
1001D
100
AcDbVisualStyle
  2
Brighten
 70
    12
177
     3
291
     1
 70
    58
 90
        2
176
     1
 90
        2
176
     1
 90
        0
176
     1
 90
        0
176
     1
 40
0.6
176
     1
 40
30.0
176
     1
 62
     7
420
 16777215
176
     1
 90
        1
176
     1
 90
        4
176
     1
 62
     7
176
     1
 62
   257
176
     1
 90
        1
176
     1
 90
        1
176
     1
 40
1.0
176
     1
 90
        8
176
     1
 62
     7
176
     1
 40
1.0
176
     1
 90
        1
176
     1
 90
        6
176
     1
 90
        2
176
     1
 62
     7
176
     1
 90
        5
176
     1
 90
        0
176
     1
 90
        0
176
     1
290
     0
176
     1
 90
        1
176
     1
 40
50.0
176
     1
 90
        0
176
     1
290
     0
176
     1
290
     1
176
     1
290
     1
176
     1
290
     0
176
     1
290
     0
176
     1
290
     0
176
     1
290
     0
176
     1
290
     0
176
     1
290
     0
176
     1
 90
       50
176
     1
 40
0.0
176
     1
 40
1.0
176
     1
 90
        0
176
     1
 62
    18
420
        0
176
     1
 90
       50
176
     1
 90
        3
176
     1
 62
     5
420
      255
176
     1
290
     0
176
     1
 90
       50
176
     1
 90
       50
176
     1
 90
       50
176
     1
290
     0
176
     1
 90
       50
176
     1
 62
   256
176
     0
 40
1.0
176
     0
 90
        2
176
     1
  1
strokes_ogs.tif
176
     1
290
     0
176
     1
 40
1.0
176
     1
 40
1.0
176
     1
1001
ACAD
1000
AcDbSavedByObjectVersion
1070
     0
  0
VISUALSTYLE
  5
1002D
102
{ACAD_REACTORS
330
1001D
102
}
330
1001D
100
AcDbVisualStyle
  2
ColorChange
 70
    16
177
     3
291
     1
 70
    58
 90
        2
176
     1
 90
        2
176
     1
 90
        3
176
     1
 90
        0
176
     1
 40
0.6
176
     1
 40
30.0
176
     1
 62
     8
420
  8421504
176
     1
 90
        1
176
     1
 90
        4
176
     1
 62
     7
176
     1
 62
   257
176
     1
 90
        1
176
     1
 90
        1
176
     1
 40
1.0
176
     1
 90
        8
176
     1
 62
     8
420
  8421504
176
     1
 40
1.0
176
     1
 90
        1
176
     1
 90
        6
176
     1
 90
        2
176
     1
 62
     7
176
     1
 90
        5
176
     1
 90
        0
176
     1
 90
        0
176
     1
290
     0
176
     1
 90
        1
176
     1
 40
0.0
176
     1
 90
        0
176
     1
290
     0
176
     1
290
     1
176
     1
290
     1
176
     1
290
     0
176
     1
290
     0
176
     1
290
     0
176
     1
290
     0
176
     1
290
     0
176
     1
290
     0
176
     1
 90
       50
176
     1
 40
0.0
176
     1
 40
1.0
176
     1
 90
        0
176
     1
 62
    18
420
        0
176
     1
 90
       50
176
     1
 90
        3
176
     1
 62
     5
420
      255
176
     1
290
     0
176
     1
 90
       50
176
     1
 90
       50
176
     1
 90
       50
176
     1
290
     0
176
     1
 90
       50
176
     1
 62
   256
176
     0
 40
1.0
176
     0
 90
        2
176
     1
  1
strokes_ogs.tif
176
     1
290
     0
176
     1
 40
1.0
176
     1
 40
1.0
176
     1
1001
ACAD
1000
AcDbSavedByObjectVersion
1070
     0
  0
VISUALSTYLE
  5
10026
102
{ACAD_REACTORS
330
1001D
102
}
330
1001D
100
AcDbVisualStyle
  2
Conceptual
 70
     9
177
     3
291
     0
 70
    58
 90
        3
176
     1
 90
        2
176
     1
 90
        0
176
     1
 90
        0
176
     1
 40
0.6
176
     1
 40
30.0
176
     1
 62
     7
420
 16777215
176
     1
 90
        2
176
     1
 90
        2
176
     1
 62
     7
176
     1
 62
   257
176
     1
 90
        1
176
     1
 90
        1
176
     1
 40
179.0
176
     1
 90
        8
176
     1
 62
     7
176
     1
 40
1.0
176
     1
 90
        1
176
     1
 90
        6
176
     1
 90
        2
176
     1
 62
     7
176
     1
 90
        3
176
     1
 90
        0
176
     1
 90
        0
176
     1
290
     0
176
     1
 90
        1
176
     1
 40
0.0
176
     1
 90
        0
176
     1
290
     0
176
     1
290
     1
176
     1
290
     1
176
     1
290
     0
176
     1
290
     0
176
     1
290
     0
176
     1
290
     0
176
     1
290
     0
176
     1
290
     0
176
     1
 90
       50
176
     1
 40
0.0
176
     1
 40
1.0
176
     1
 90
        0
176
     1
 62
    18
420
        0
176
     1
 90
       50
176
     1
 90
        3
176
     1
 62
     5
420
      255
176
     1
290
     0
176
     1
 90
       50
176
     1
 90
       50
176
     1
 90
       50
176
     1
290
     0
176
     1
 90
       50
176
     1
 62
   256
176
     0
 40
1.0
176
     0
 90
        2
176
     1
  1
strokes_ogs.tif
176
     1
290
     0
176
     1
 40
1.0
176
     1
 40
1.0
176
     1
1001
ACAD
1000
AcDbSavedByObjectVersion
1070
     0
  0
VISUALSTYLE
  5
10028
102
{ACAD_REACTORS
330
1001D
102
}
330
1001D
100
AcDbVisualStyle
  2
Dim
 70
    11
177
     3
291
     1
 70
    58
 90
        2
176
     1
 90
        2
176
     1
 90
        0
176
     1
 90
        0
176
     1
 40
0.6
176
     1
 40
30.0
176
     1
 62
     7
420
 16777215
176
     1
 90
        1
176
     1
 90
        4
176
     1
 62
     7
176
     1
 62
   257
176
     1
 90
        1
176
     1
 90
        1
176
     1
 40
1.0
176
     1
 90
        8
176
     1
 62
     7
176
     1
 40
1.0
176
     1
 90
        1
176
     1
 90
        6
176
     1
 90
        2
176
     1
 62
     7
176
     1
 90
        5
176
     1
 90
        0
176
     1
 90
        0
176
     1
290
     0
176
     1
 90
        1
176
     1
 40
-50.0
176
     1
 90
        0
176
     1
290
     0
176
     1
290
     1
176
     1
290
     1
176
     1
290
     0
176
     1
290
     0
176
     1
290
     0
176
     1
290
     0
176
     1
290
     0
176
     1
290
     0
176
     1
 90
       50
176
     1
 40
0.0
176
     1
 40
1.0
176
     1
 90
        0
176
     1
 62
    18
420
        0
176
     1
 90
       50
176
     1
 90
        3
176
     1
 62
     5
420
      255
176
     1
290
     0
176
     1
 90
       50
176
     1
 90
       50
176
     1
 90
       50
176
     1
290
     0
176
     1
 90
       50
176
     1
 62
   256
176
     0
 40
1.0
176
     0
 90
        2
176
     1
  1
strokes_ogs.tif
176
     1
290
     0
176
     1
 40
1.0
176
     1
 40
1.0
176
     1
1001
ACAD
1000
AcDbSavedByObjectVersion
1070
     0
  0
VISUALSTYLE
  5
10035
102
{ACAD_REACTORS
330
1001D
102
}
330
1001D
100
AcDbVisualStyle
  2
EdgeColorOff
 70
    22
177
     3
291
     1
 70
    58
 90
        2
176
     0
 90
        2
176
     0
 90
        0
176
     0
 90
        0
176
     0
 40
0.6
176
     0
 40
30.0
176
     0
 62
     7
420
 16777215
176
     0
 90
        1
176
     0
 90
        4
176
     0
 62
     7
176
     0
 62
   257
176
     0
 90
        1
176
     0
 90
        1
176
     0
 40
1.0
176
     0
 90
        8
176
     2
 62
     7
176
     0
 40
1.0
176
     0
 90
        1
176
     0
 90
        6
176
     0
 90
        2
176
     0
 62
     7
176
     0
 90
        5
176
     0
 90
        0
176
     0
 90
        0
176
     0
290
     0
176
     0
 90
        1
176
     0
 40
0.0
176
     0
 90
        0
176
     0
290
     0
176
     1
290
     1
176
     1
290
     1
176
     1
290
     0
176
     1
290
     0
176
     1
290
     0
176
     1
290
     0
176
     1
290
     0
176
     1
290
     0
176
     1
 90
       50
176
     0
 40
0.0
176
     0
 40
1.0
176
     0
 90
        0
176
     0
 62
    18
420
        0
176
     0
 90
       50
176
     0
 90
        3
176
     0
 62
     5
420
      255
176
     0
290
     0
176
     1
 90
       50
176
     0
 90
       50
176
     0
 90
       50
176
     0
290
     0
176
     1
 90
       50
176
     0
 62
   256
176
     0
 40
1.0
176
     0
 90
        2
176
     0
  1
strokes_ogs.tif
176
     0
290
     0
176
     1
 40
1.0
176
     0
 40
1.0
176
     0
1001
ACAD
1000
AcDbSavedByObjectVersion
1070
     0
  0
VISUALSTYLE
  5
1002C
102
{ACAD_REACTORS
330
1001D
102
}
330
1001D
100
AcDbVisualStyle
  2
Facepattern
 70
    15
177
     3
291
     1
 70
    58
 90
        2
176
     1
 90
        2
176
     1
 90
        0
176
     1
 90
        0
176
     1
 40
0.6
176
     1
 40
30.0
176
     1
 62
     7
420
 16777215
176
     1
 90
        1
176
     1
 90
        4
176
     1
 62
     7
176
     1
 62
   257
176
     1
 90
        1
176
     1
 90
        1
176
     1
 40
1.0
176
     1
 90
        8
176
     1
 62
     7
176
     1
 40
1.0
176
     1
 90
        1
176
     1
 90
        6
176
     1
 90
        2
176
     1
 62
     7
176
     1
 90
        5
176
     1
 90
        0
176
     1
 90
        0
176
     1
290
     0
176
     1
 90
        1
176
     1
 40
0.0
176
     1
 90
        0
176
     1
290
     0
176
     1
290
     1
176
     1
290
     1
176
     1
290
     0
176
     1
290
     0
176
     1
290
     0
176
     1
290
     0
176
     1
290
     0
176
     1
290
     0
176
     1
 90
       50
176
     1
 40
0.0
176
     1
 40
1.0
176
     1
 90
        0
176
     1
 62
    18
420
        0
176
     1
 90
       50
176
     1
 90
        3
176
     1
 62
     5
420
      255
176
     1
290
     0
176
     1
 90
       50
176
     1
 90
       50
176
     1
 90
       50
176
     1
290
     0
176
     1
 90
       50
176
     1
 62
   256
176
     0
 40
1.0
176
     0
 90
        2
176
     1
  1
strokes_ogs.tif
176
     1
290
     0
176
     1
 40
1.0
176
     1
 40
1.0
176
     1
1001
ACAD
1000
AcDbSavedByObjectVersion
1070
     0
  0
VISUALSTYLE
  5
1001E
102
{ACAD_REACTORS
330
1001D
102
}
330
1001D
100
AcDbVisualStyle
  2
Flat
 70
     0
177
     3
291
     1
 70
    58
 90
        2
176
     1
 90
        1
176
     1
 90
        1
176
     1
 90
        2
176
     1
 40
0.6
176
     1
 40
30.0
176
     1
 62
     7
420
 16777215
176
     1
 90
        0
176
     1
 90
        0
176
     1
 62
     7
176
     1
 62
   257
176
     1
 90
        1
176
     1
 90
        1
176
     1
 40
1.0
176
     1
 90
        8
176
     1
 62
     7
176
     1
 40
1.0
176
     1
 90
        1
176
     1
 90
        6
176
     1
 90
        2
176
     1
 62
     7
176
     1
 90
        5
176
     1
 90
        0
176
     1
 90
        0
176
     1
290
     0
176
     1
 90
       13
176
     1
 40
0.0
176
     1
 90
        0
176
     1
290
     0
176
     1
290
     1
176
     1
290
     1
176
     1
290
     0
176
     1
290
     0
176
     1
290
     0
176
     1
290
     0
176
     1
290
     0
176
     1
290
     0
176
     1
 90
       50
176
     1
 40
0.0
176
     1
 40
1.0
176
     1
 90
        0
176
     1
 62
    18
420
        0
176
     1
 90
       50
176
     1
 90
        3
176
     1
 62
     5
420
      255
176
     1
290
     0
176
     1
 90
       50
176
     1
 90
       50
176
     1
 90
       50
176
     1
290
     0
176
     1
 90
       50
176
     1
 62
   256
176
     0
 40
1.0
176
     0
 90
        2
176
     1
  1
strokes_ogs.tif
176
     1
290
     0
176
     1
 40
1.0
176
     1
 40
1.0
176
     1
1001
ACAD
1000
AcDbSavedByObjectVersion
1070
     0
  0
VISUALSTYLE
  5
1001F
102
{ACAD_REACTORS
330
1001D
102
}
330
1001D
100
AcDbVisualStyle
  2
FlatWithEdges
 70
     1
177
     3
291
     1
 70
    58
 90
        2
176
     1
 90
        1
176
     1
 90
        1
176
     1
 90
        2
176
     1
 40
0.6
176
     1
 40
30.0
176
     1
 62
     7
420
 16777215
176
     1
 90
        1
176
     1
 90
        0
176
     1
 62
     7
176
     1
 62
   257
176
     1
 90
        1
176
     1
 90
        1
176
     1
 40
1.0
176
     1
 90
        0
176
     1
 62
   257
176
     1
 40
1.0
176
     1
 90
        1
176
     1
 90
        6
176
     1
 90
        2
176
     1
 62
     7
176
     1
 90
        5
176
     1
 90
        0
176
     1
 90
        0
176
     1
290
     0
176
     1
 90
       13
176
     1
 40
0.0
176
     1
 90
        0
176
     1
290
     0
176
     1
290
     1
176
     1
290
     1
176
     1
290
     0
176
     1
290
     0
176
     1
290
     0
176
     1
290
     0
176
     1
290
     0
176
     1
290
     0
176
     1
 90
       50
176
     1
 40
0.0
176
     1
 40
1.0
176
     1
 90
        0
176
     1
 62
    18
420
        0
176
     1
 90
       50
176
     1
 90
        3
176
     1
 62
     5
420
      255
176
     1
290
     0
176
     1
 90
       50
176
     1
 90
       50
176
     1
 90
       50
176
     1
290
     0
176
     1
 90
       50
176
     1
 62
   256
176
     0
 40
1.0
176
     0
 90
        2
176
     1
  1
strokes_ogs.tif
176
     1
290
     0
176
     1
 40
1.0
176
     1
 40
1.0
176
     1
1001
ACAD
1000
AcDbSavedByObjectVersion
1070
     0
  0
VISUALSTYLE
  5
10020
102
{ACAD_REACTORS
330
1001D
102
}
330
1001D
100
AcDbVisualStyle
  2
Gouraud
 70
     2
177
     3
291
     1
 70
    58
 90
        2
176
     1
 90
        2
176
     1
 90
        1
176
     1
 90
        2
176
     1
 40
0.6
176
     1
 40
30.0
176
     1
 62
     7
420
 16777215
176
     1
 90
        0
176
     1
 90
        0
176
     1
 62
     7
176
     1
 62
   257
176
     1
 90
        1
176
     1
 90
        1
176
     1
 40
1.0
176
     1
 90
        0
176
     1
 62
     7
176
     1
 40
1.0
176
     1
 90
        1
176
     1
 90
        6
176
     1
 90
        2
176
     1
 62
     7
176
     1
 90
        5
176
     1
 90
        0
176
     1
 90
        0
176
     1
290
     0
176
     1
 90
       13
176
     1
 40
0.0
176
     1
 90
        0
176
     1
290
     0
176
     1
290
     1
176
     1
290
     1
176
     1
290
     0
176
     1
290
     0
176
     1
290
     0
176
     1
290
     0
176
     1
290
     0
176
     1
290
     0
176
     1
 90
       50
176
     1
 40
0.0
176
     1
 40
1.0
176
     1
 90
        0
176
     1
 62
    18
420
        0
176
     1
 90
       50
176
     1
 90
        3
176
     1
 62
     5
420
      255
176
     1
290
     0
176
     1
 90
       50
176
     1
 90
       50
176
     1
 90
       50
176
     1
290
     0
176
     1
 90
       50
176
     1
 62
   256
176
     0
 40
1.0
176
     0
 90
        2
176
     1
  1
strokes_ogs.tif
176
     1
290
     0
176
     1
 40
1.0
176
     1
 40
1.0
176
     1
1001
ACAD
1000
AcDbSavedByObjectVersion
1070
     0
  0
VISUALSTYLE
  5
10021
102
{ACAD_REACTORS
330
1001D
102
}
330
1001D
100
AcDbVisualStyle
  2
GouraudWithEdges
 70
     3
177
     3
291
     1
 70
    58
 90
        2
176
     1
 90
        2
176
     1
 90
        1
176
     1
 90
        2
176
     1
 40
0.6
176
     1
 40
30.0
176
     1
 62
     7
420
 16777215
176
     1
 90
        1
176
     1
 90
        0
176
     1
 62
     7
176
     1
 62
   257
176
     1
 90
        1
176
     1
 90
        1
176
     1
 40
1.0
176
     1
 90
        0
176
     1
 62
   257
176
     1
 40
1.0
176
     1
 90
        1
176
     1
 90
        6
176
     1
 90
        2
176
     1
 62
     7
176
     1
 90
        5
176
     1
 90
        0
176
     1
 90
        0
176
     1
290
     0
176
     1
 90
       13
176
     1
 40
0.0
176
     1
 90
        0
176
     1
290
     0
176
     1
290
     1
176
     1
290
     1
176
     1
290
     0
176
     1
290
     0
176
     1
290
     0
176
     1
290
     0
176
     1
290
     0
176
     1
290
     0
176
     1
 90
       50
176
     1
 40
0.0
176
     1
 40
1.0
176
     1
 90
        0
176
     1
 62
    18
420
        0
176
     1
 90
       50
176
     1
 90
        3
176
     1
 62
     5
420
      255
176
     1
290
     0
176
     1
 90
       50
176
     1
 90
       50
176
     1
 90
       50
176
     1
290
     0
176
     1
 90
       50
176
     1
 62
   256
176
     0
 40
1.0
176
     0
 90
        2
176
     1
  1
strokes_ogs.tif
176
     1
290
     0
176
     1
 40
1.0
176
     1
 40
1.0
176
     1
1001
ACAD
1000
AcDbSavedByObjectVersion
1070
     0
  0
VISUALSTYLE
  5
10025
102
{ACAD_REACTORS
330
1001D
102
}
330
1001D
100
AcDbVisualStyle
  2
Hidden
 70
     6
177
     3
291
     0
 70
    58
 90
        1
176
     1
 90
        2
176
     1
 90
        2
176
     1
 90
        0
176
     1
 40
0.6
176
     1
 40
30.0
176
     1
 62
     7
420
 16777215
176
     1
 90
        2
176
     1
 90
        2
176
     1
 62
     7
176
     1
 62
   257
176
     1
 90
        2
176
     1
 90
        1
176
     1
 40
40.0
176
     1
 90
        0
176
     1
 62
   257
176
     1
 40
1.0
176
     1
 90
        1
176
     1
 90
        6
176
     1
 90
        2
176
     1
 62
     7
176
     1
 90
        3
176
     1
 90
        0
176
     1
 90
        0
176
     1
290
     0
176
     1
 90
        1
176
     1
 40
0.0
176
     1
 90
        0
176
     1
290
     0
176
     1
290
     1
176
     1
290
     1
176
     1
290
     0
176
     1
290
     0
176
     1
290
     0
176
     1
290
     0
176
     1
290
     0
176
     1
290
     0
176
     1
 90
       50
176
     1
 40
0.0
176
     1
 40
1.0
176
     1
 90
        0
176
     1
 62
    18
420
        0
176
     1
 90
       50
176
     1
 90
        3
176
     1
 62
     5
420
      255
176
     1
290
     0
176
     1
 90
       50
176
     1
 90
       50
176
     1
 90
       50
176
     1
290
     0
176
     1
 90
       50
176
     1
 62
   256
176
     0
 40
1.0
176
     0
 90
        2
176
     1
  1
strokes_ogs.tif
176
     1
290
     0
176
     1
 40
1.0
176
     1
 40
1.0
176
     1
1001
ACAD
1000
AcDbSavedByObjectVersion
1070
     0
  0
VISUALSTYLE
  5
10033
102
{ACAD_REACTORS
330
1001D
102
}
330
1001D
100
AcDbVisualStyle
  2
JitterOff
 70
    20
177
     3
291
     1
 70
    58
 90
        2
176
     0
 90
        2
176
     0
 90
        0
176
     0
 90
        0
176
     0
 40
0.6
176
     0
 40
30.0
176
     0
 62
     7
420
 16777215
176
     0
 90
        1
176
     0
 90
        4
176
     0
 62
     7
176
     0
 62
   257
176
     0
 90
        1
176
     0
 90
        1
176
     0
 40
1.0
176
     0
 90
       10
176
     2
 62
     7
176
     0
 40
1.0
176
     0
 90
        1
176
     0
 90
        6
176
     0
 90
        2
176
     0
 62
     7
176
     0
 90
        5
176
     0
 90
        0
176
     0
 90
        0
176
     0
290
     0
176
     0
 90
        1
176
     0
 40
0.0
176
     0
 90
        0
176
     0
290
     0
176
     1
290
     1
176
     1
290
     1
176
     1
290
     0
176
     1
290
     0
176
     1
290
     0
176
     1
290
     0
176
     1
290
     0
176
     1
290
     0
176
     1
 90
       50
176
     0
 40
0.0
176
     0
 40
1.0
176
     0
 90
        0
176
     0
 62
    18
420
        0
176
     0
 90
       50
176
     0
 90
        3
176
     0
 62
     5
420
      255
176
     0
290
     0
176
     1
 90
       50
176
     0
 90
       50
176
     0
 90
       50
176
     0
290
     0
176
     1
 90
       50
176
     0
 62
   256
176
     0
 40
1.0
176
     0
 90
        2
176
     0
  1
strokes_ogs.tif
176
     0
290
     0
176
     1
 40
1.0
176
     0
 40
1.0
176
     0
1001
ACAD
1000
AcDbSavedByObjectVersion
1070
     0
  0
VISUALSTYLE
  5
1002B
102
{ACAD_REACTORS
330
1001D
102
}
330
1001D
100
AcDbVisualStyle
  2
Linepattern
 70
    14
177
     3
291
     1
 70
    58
 90
        2
176
     1
 90
        2
176
     1
 90
        0
176
     1
 90
        0
176
     1
 40
0.6
176
     1
 40
30.0
176
     1
 62
     7
420
 16777215
176
     1
 90
        1
176
     1
 90
        4
176
     1
 62
     7
176
     1
 62
   257
176
     1
 90
        7
176
     1
 90
        7
176
     1
 40
1.0
176
     1
 90
        8
176
     1
 62
     7
176
     1
 40
1.0
176
     1
 90
        1
176
     1
 90
        6
176
     1
 90
        2
176
     1
 62
     7
176
     1
 90
        5
176
     1
 90
        0
176
     1
 90
        0
176
     1
290
     0
176
     1
 90
        1
176
     1
 40
0.0
176
     1
 90
        0
176
     1
290
     0
176
     1
290
     1
176
     1
290
     1
176
     1
290
     0
176
     1
290
     0
176
     1
290
     0
176
     1
290
     0
176
     1
290
     0
176
     1
290
     0
176
     1
 90
       50
176
     1
 40
0.0
176
     1
 40
1.0
176
     1
 90
        0
176
     1
 62
    18
420
        0
176
     1
 90
       50
176
     1
 90
        3
176
     1
 62
     5
420
      255
176
     1
290
     0
176
     1
 90
       50
176
     1
 90
       50
176
     1
 90
       50
176
     1
290
     0
176
     1
 90
       50
176
     1
 62
   256
176
     0
 40
1.0
176
     0
 90
        2
176
     1
  1
strokes_ogs.tif
176
     1
290
     0
176
     1
 40
1.0
176
     1
 40
1.0
176
     1
1001
ACAD
1000
AcDbSavedByObjectVersion
1070
     0
  0
VISUALSTYLE
  5
10034
102
{ACAD_REACTORS
330
1001D
102
}
330
1001D
100
AcDbVisualStyle
  2
OverhangOff
 70
    21
177
     3
291
     1
 70
    58
 90
        2
176
     0
 90
        2
176
     0
 90
        0
176
     0
 90
        0
176
     0
 40
0.6
176
     0
 40
30.0
176
     0
 62
     7
420
 16777215
176
     0
 90
        1
176
     0
 90
        4
176
     0
 62
     7
176
     0
 62
   257
176
     0
 90
        1
176
     0
 90
        1
176
     0
 40
1.0
176
     0
 90
        9
176
     2
 62
     7
176
     0
 40
1.0
176
     0
 90
        1
176
     0
 90
        6
176
     0
 90
        2
176
     0
 62
     7
176
     0
 90
        5
176
     0
 90
        0
176
     0
 90
        0
176
     0
290
     0
176
     0
 90
        1
176
     0
 40
0.0
176
     0
 90
        0
176
     0
290
     0
176
     1
290
     1
176
     1
290
     1
176
     1
290
     0
176
     1
290
     0
176
     1
290
     0
176
     1
290
     0
176
     1
290
     0
176
     1
290
     0
176
     1
 90
       50
176
     0
 40
0.0
176
     0
 40
1.0
176
     0
 90
        0
176
     0
 62
    18
420
        0
176
     0
 90
       50
176
     0
 90
        3
176
     0
 62
     5
420
      255
176
     0
290
     0
176
     1
 90
       50
176
     0
 90
       50
176
     0
 90
       50
176
     0
290
     0
176
     1
 90
       50
176
     0
 62
   256
176
     0
 40
1.0
176
     0
 90
        2
176
     0
  1
strokes_ogs.tif
176
     0
290
     0
176
     1
 40
1.0
176
     0
 40
1.0
176
     0
1001
ACAD
1000
AcDbSavedByObjectVersion
1070
     0
  0
VISUALSTYLE
  5
10027
102
{ACAD_REACTORS
330
1001D
102
}
330
1001D
100
AcDbVisualStyle
  2
Realistic
 70
     8
177
     3
291
     0
 70
    58
 90
        2
176
     1
 90
        3
176
     1
 90
        0
176
     1
 90
        2
176
     1
 40
0.6
176
     1
 40
30.0
176
     1
 62
     7
420
 16777215
176
     1
 90
        0
176
     1
 90
        0
176
     1
 62
     7
176
     1
 62
   257
176
     1
 90
        1
176
     1
 90
        1
176
     1
 40
1.0
176
     1
 90
        8
176
     1
 62
   257
176
     1
 40
1.0
176
     1
 90
        1
176
     1
 90
        6
176
     1
 90
        2
176
     1
 62
     7
176
     1
 90
        3
176
     1
 90
        0
176
     1
 90
        0
176
     1
290
     0
176
     1
 90
       13
176
     1
 40
0.0
176
     1
 90
        0
176
     1
290
     0
176
     1
290
     1
176
     1
290
     1
176
     1
290
     0
176
     1
290
     0
176
     1
290
     0
176
     1
290
     0
176
     1
290
     0
176
     1
290
     0
176
     1
 90
       50
176
     1
 40
0.0
176
     1
 40
1.0
176
     1
 90
        0
176
     1
 62
    18
420
        0
176
     1
 90
       50
176
     1
 90
        3
176
     1
 62
     5
420
      255
176
     1
290
     0
176
     1
 90
       50
176
     1
 90
       50
176
     1
 90
       50
176
     1
290
     0
176
     1
 90
       50
176
     1
 62
   256
176
     0
 40
1.0
176
     0
 90
        2
176
     1
  1
strokes_ogs.tif
176
     1
290
     0
176
     1
 40
1.0
176
     1
 40
1.0
176
     1
1001
ACAD
1000
AcDbSavedByObjectVersion
1070
     0
  0
VISUALSTYLE
  5
10032
102
{ACAD_REACTORS
330
1001D
102
}
330
1001D
100
AcDbVisualStyle
  2
Shaded
 70
    27
177
     3
291
     0
 70
    58
 90
        2
176
     1
 90
        2
176
     1
 90
        1
176
     1
 90
        2
176
     1
 40
0.6
176
     1
 40
30.0
176
     1
 62
     7
420
 16777215
176
     1
 90
        0
176
     1
 90
        4
176
     1
 62
     7
176
     1
 62
   257
176
     1
 90
        1
176
     1
 90
        1
176
     1
 40
1.0
176
     1
 90
        8
176
     1
 62
   257
176
     1
 40
1.0
176
     1
 90
        1
176
     1
 90
        6
176
     1
 90
        2
176
     1
 62
     8
420
  7895160
176
     1
 90
        3
176
     1
 90
        0
176
     1
 90
        0
176
     1
290
     0
176
     1
 90
        5
176
     1
 40
0.0
176
     1
 90
        0
176
     1
290
     0
176
     1
290
     1
176
     1
290
     1
176
     1
290
     0
176
     1
290
     0
176
     1
290
     0
176
     1
290
     0
176
     1
290
     0
176
     1
290
     0
176
     1
 90
       50
176
     1
 40
0.0
176
     1
 40
1.0
176
     1
 90
        0
176
     1
 62
    18
420
        0
176
     1
 90
       50
176
     1
 90
        3
176
     1
 62
     5
420
      255
176
     1
290
     0
176
     1
 90
       50
176
     1
 90
       50
176
     1
 90
       50
176
     1
290
     0
176
     1
 90
       50
176
     1
 62
   256
176
     0
 40
1.0
176
     0
 90
        2
176
     1
  1
strokes_ogs.tif
176
     1
290
     0
176
     1
 40
1.0
176
     1
 40
1.0
176
     1
1001
ACAD
1000
AcDbSavedByObjectVersion
1070
     0
  0
VISUALSTYLE
  5
10031
102
{ACAD_REACTORS
330
1001D
102
}
330
1001D
100
AcDbVisualStyle
  2
Shaded with edges
 70
    26
177
     3
291
     0
 70
    58
 90
        2
176
     1
 90
        2
176
     1
 90
        1
176
     1
 90
        2
176
     1
 40
0.6
176
     1
 40
30.0
176
     1
 62
     7
420
 16777215
176
     1
 90
        1
176
     1
 90
        2
176
     1
 62
     7
176
     1
 62
   257
176
     1
 90
        2
176
     1
 90
        1
176
     1
 40
1.0
176
     1
 90
        8
176
     1
 62
   257
176
     1
 40
1.0
176
     1
 90
        1
176
     1
 90
        6
176
     1
 90
        2
176
     1
 62
     7
176
     1
 90
        3
176
     1
 90
        0
176
     1
 90
        0
176
     1
290
     0
176
     1
 90
        5
176
     1
 40
0.0
176
     1
 90
        0
176
     1
290
     0
176
     1
290
     1
176
     1
290
     1
176
     1
290
     0
176
     1
290
     0
176
     1
290
     0
176
     1
290
     0
176
     1
290
     0
176
     1
290
     0
176
     1
 90
       50
176
     1
 40
0.0
176
     1
 40
1.0
176
     1
 90
        0
176
     1
 62
    18
420
        0
176
     1
 90
       50
176
     1
 90
        3
176
     1
 62
     5
420
      255
176
     1
290
     0
176
     1
 90
       50
176
     1
 90
       50
176
     1
 90
       50
176
     1
290
     0
176
     1
 90
       50
176
     1
 62
   256
176
     0
 40
1.0
176
     0
 90
        2
176
     1
  1
strokes_ogs.tif
176
     1
290
     0
176
     1
 40
1.0
176
     1
 40
1.0
176
     1
1001
ACAD
1000
AcDbSavedByObjectVersion
1070
     0
  0
VISUALSTYLE
  5
1002E
102
{ACAD_REACTORS
330
1001D
102
}
330
1001D
100
AcDbVisualStyle
  2
Shades of Gray
 70
    23
177
     3
291
     0
 70
    58
 90
        2
176
     1
 90
        2
176
     1
 90
        3
176
     1
 90
        0
176
     1
 40
0.6
176
     1
 40
30.0
176
     1
 62
     7
420
 16777215
176
     1
 90
        2
176
     1
 90
        2
176
     1
 62
     7
176
     1
 62
     7
176
     1
 90
        1
176
     1
 90
        1
176
     1
 40
40.0
176
     1
 90
        8
176
     1
 62
     7
176
     1
 40
1.0
176
     1
 90
        1
176
     1
 90
        6
176
     1
 90
        2
176
     1
 62
     7
176
     1
 90
        3
176
     1
 90
        0
176
     1
 90
        0
176
     1
290
     0
176
     1
 90
        1
176
     1
 40
0.0
176
     1
 90
        0
176
     1
290
     0
176
     1
290
     1
176
     1
290
     1
176
     1
290
     0
176
     1
290
     0
176
     1
290
     0
176
     1
290
     0
176
     1
290
     0
176
     1
290
     0
176
     1
 90
       50
176
     1
 40
0.0
176
     1
 40
1.0
176
     1
 90
        0
176
     1
 62
    18
420
        0
176
     1
 90
       50
176
     1
 90
        3
176
     1
 62
     5
420
      255
176
     1
290
     0
176
     1
 90
       50
176
     1
 90
       50
176
     1
 90
       50
176
     1
290
     0
176
     1
 90
       50
176
     1
 62
   256
176
     0
 40
1.0
176
     0
 90
        2
176
     1
  1
strokes_ogs.tif
176
     1
290
     0
176
     1
 40
1.0
176
     1
 40
1.0
176
     1
1001
ACAD
1000
AcDbSavedByObjectVersion
1070
     0
  0
VISUALSTYLE
  5
1002F
102
{ACAD_REACTORS
330
1001D
102
}
330
1001D
100
AcDbVisualStyle
  2
Sketchy
 70
    24
177
     3
291
     0
 70
    58
 90
        1
176
     1
 90
        2
176
     1
 90
        2
176
     1
 90
        0
176
     1
 40
0.6
176
     1
 40
30.0
176
     1
 62
     7
420
 16777215
176
     1
 90
        2
176
     1
 90
        2
176
     1
 62
     7
176
     1
 62
     7
176
     1
 90
        1
176
     1
 90
        1
176
     1
 40
40.0
176
     1
 90
       11
176
     1
 62
     7
176
     1
 40
1.0
176
     1
 90
        1
176
     1
 90
        6
176
     1
 90
        2
176
     1
 62
     7
176
     1
 90
        6
176
     1
 90
        0
176
     1
 90
        0
176
     1
290
     0
176
     1
 90
        1
176
     1
 40
0.0
176
     1
 90
        0
176
     1
290
     0
176
     1
290
     1
176
     1
290
     1
176
     1
290
     0
176
     1
290
     0
176
     1
290
     0
176
     1
290
     0
176
     1
290
     0
176
     1
290
     0
176
     1
 90
       50
176
     1
 40
0.0
176
     1
 40
1.0
176
     1
 90
        0
176
     1
 62
    18
420
        0
176
     1
 90
       50
176
     1
 90
        3
176
     1
 62
     5
420
      255
176
     1
290
     0
176
     1
 90
       50
176
     1
 90
       50
176
     1
 90
       50
176
     1
290
     0
176
     1
 90
       50
176
     1
 62
   256
176
     0
 40
1.0
176
     0
 90
        2
176
     1
  1
strokes_ogs.tif
176
     1
290
     0
176
     1
 40
1.0
176
     1
 40
1.0
176
     1
1001
ACAD
1000
AcDbSavedByObjectVersion
1070
     0
  0
VISUALSTYLE
  5
1002A
102
{ACAD_REACTORS
330
1001D
102
}
330
1001D
100
AcDbVisualStyle
  2
Thicken
 70
    13
177
     3
291
     1
 70
    58
 90
        2
176
     1
 90
        2
176
     1
 90
        0
176
     1
 90
        0
176
     1
 40
0.6
176
     1
 40
30.0
176
     1
 62
     7
420
 16777215
176
     1
 90
        1
176
     1
 90
        4
176
     1
 62
     7
176
     1
 62
   257
176
     1
 90
        1
176
     1
 90
        1
176
     1
 40
1.0
176
     1
 90
       12
176
     1
 62
     7
176
     1
 40
1.0
176
     1
 90
        1
176
     1
 90
        6
176
     1
 90
        2
176
     1
 62
     7
176
     1
 90
        5
176
     1
 90
        0
176
     1
 90
        0
176
     1
290
     0
176
     1
 90
        1
176
     1
 40
0.0
176
     1
 90
        0
176
     1
290
     0
176
     1
290
     1
176
     1
290
     1
176
     1
290
     0
176
     1
290
     0
176
     1
290
     0
176
     1
290
     0
176
     1
290
     0
176
     1
290
     0
176
     1
 90
       50
176
     1
 40
0.0
176
     1
 40
1.0
176
     1
 90
        0
176
     1
 62
    18
420
        0
176
     1
 90
       50
176
     1
 90
        3
176
     1
 62
     5
420
      255
176
     1
290
     0
176
     1
 90
       50
176
     1
 90
       50
176
     1
 90
       50
176
     1
290
     0
176
     1
 90
       50
176
     1
 62
   256
176
     0
 40
1.0
176
     0
 90
        2
176
     1
  1
strokes_ogs.tif
176
     1
290
     0
176
     1
 40
1.0
176
     1
 40
1.0
176
     1
1001
ACAD
1000
AcDbSavedByObjectVersion
1070
     0
  0
VISUALSTYLE
  5
10024
102
{ACAD_REACTORS
330
1001D
102
}
330
1001D
100
AcDbVisualStyle
  2
Wireframe
 70
     5
177
     3
291
     0
 70
    58
 90
        0
176
     1
 90
        2
176
     1
 90
        0
176
     1
 90
        0
176
     1
 40
0.6
176
     1
 40
30.0
176
     1
 62
     7
420
 16777215
176
     1
 90
        1
176
     1
 90
        4
176
     1
 62
     7
176
     1
 62
   257
176
     1
 90
        1
176
     1
 90
        1
176
     1
 40
1.0
176
     1
 90
        0
176
     1
 62
   257
176
     1
 40
1.0
176
     1
 90
        1
176
     1
 90
        6
176
     1
 90
        2
176
     1
 62
     7
176
     1
 90
        3
176
     1
 90
        0
176
     1
 90
        0
176
     1
290
     0
176
     1
 90
        1
176
     1
 40
0.0
176
     1
 90
        0
176
     1
290
     0
176
     1
290
     1
176
     1
290
     1
176
     1
290
     0
176
     1
290
     0
176
     1
290
     0
176
     1
290
     0
176
     1
290
     0
176
     1
290
     0
176
     1
 90
       50
176
     1
 40
0.0
176
     1
 40
1.0
176
     1
 90
        0
176
     1
 62
    18
420
        0
176
     1
 90
       50
176
     1
 90
        3
176
     1
 62
     5
420
      255
176
     1
290
     0
176
     1
 90
       50
176
     1
 90
       50
176
     1
 90
       50
176
     1
290
     0
176
     1
 90
       50
176
     1
 62
   256
176
     0
 40
1.0
176
     0
 90
        2
176
     1
  1
strokes_ogs.tif
176
     1
290
     0
176
     1
 40
1.0
176
     1
 40
1.0
176
     1
1001
ACAD
1000
AcDbSavedByObjectVersion
1070
     0
  0
VISUALSTYLE
  5
10030
102
{ACAD_REACTORS
330
1001D
102
}
330
1001D
100
AcDbVisualStyle
  2
X-Ray
 70
    25
177
     3
291
     0
 70
    58
 90
        2
176
     1
 90
        2
176
     1
 90
        1
176
     1
 90
        1
176
     1
 40
0.5
176
     1
 40
30.0
176
     1
 62
     7
420
 16777215
176
     1
 90
        1
176
     1
 90
        0
176
     1
 62
     7
176
     1
 62
   257
176
     1
 90
        1
176
     1
 90
        1
176
     1
 40
1.0
176
     1
 90
        8
176
     1
 62
     7
176
     1
 40
1.0
176
     1
 90
        1
176
     1
 90
        6
176
     1
 90
        2
176
     1
 62
     7
176
     1
 90
        3
176
     1
 90
        0
176
     1
 90
        0
176
     1
290
     0
176
     1
 90
       13
176
     1
 40
0.0
176
     1
 90
        0
176
     1
290
     0
176
     1
290
     1
176
     1
290
     1
176
     1
290
     0
176
     1
290
     0
176
     1
290
     0
176
     1
290
     0
176
     1
290
     0
176
     1
290
     0
176
     1
 90
       50
176
     1
 40
0.0
176
     1
 40
1.0
176
     1
 90
        0
176
     1
 62
    18
420
        0
176
     1
 90
       50
176
     1
 90
        3
176
     1
 62
     5
420
      255
176
     1
290
     0
176
     1
 90
       50
176
     1
 90
       50
176
     1
 90
       50
176
     1
290
     0
176
     1
 90
       50
176
     1
 62
   256
176
     0
 40
1.0
176
     0
 90
        2
176
     1
  1
strokes_ogs.tif
176
     1
290
     0
176
     1
 40
1.0
176
     1
 40
1.0
176
     1
1001
ACAD
1000
AcDbSavedByObjectVersion
1070
     0
  0
DICTIONARYVAR
  5
10067
102
{ACAD_REACTORS
330
10061
102
}
330
10061
100
DictionaryVariables
280
     0
  1
1:1
  0
DICTIONARYVAR
  5
10063
102
{ACAD_REACTORS
330
10061
102
}
330
10061
100
DictionaryVariables
280
     0
  1
STANDARD
  0
DICTIONARYVAR
  5
10062
102
{ACAD_REACTORS
330
10061
102
}
330
10061
100
DictionaryVariables
280
     0
  1
STANDARD
  0
DICTIONARYVAR
  5
10064
102
{ACAD_REACTORS
330
10061
102
}
330
10061
100
DictionaryVariables
280
     0
  1
Imperial24
  0
DICTIONARYVAR
  5
10065
102
{ACAD_REACTORS
330
10061
102
}
330
10061
100
DictionaryVariables
280
     0
  1
Imperial24
  0
DICTIONARYVAR
  5
10069
102
{ACAD_REACTORS
330
10061
102
}
330
10061
100
DictionaryVariables
280
     0
  1
1
  0
DICTIONARYVAR
  5
1006A
102
{ACAD_REACTORS
330
10061
102
}
330
10061
100
DictionaryVariables
280
     0
  1
15
  0
DICTIONARYVAR
  5
10068
102
{ACAD_REACTORS
330
10061
102
}
330
10061
100
DictionaryVariables
280
     0
  1
0
  0
DICTIONARYVAR
  5
10066
102
{ACAD_REACTORS
330
10061
102
}
330
10061
100
DictionaryVariables
280
     0
  1
0
  0
DICTIONARY
  5
10070
330
10052
100
AcDbDictionary
280
     1
281
     1
  3
ACAD_XREC_ROUNDTRIP
360
10071
  0
DICTIONARY
  5
1000E
330
1000D
100
AcDbDictionary
280
     1
281
     1
  3
BUMPTILE
360
10010
  3
DIFFUSETILE
360
1000F
  3
OPACITYTILE
360
10013
  3
REFLECTIONTILE
360
10012
  3
REFRACTIONTILE
360
10014
  3
SPECULARTILE
360
10011
  0
DICTIONARY
  5
10006
330
10005
100
AcDbDictionary
280
     1
281
     1
  3
BUMPTILE
360
10008
  3
DIFFUSETILE
360
10007
  3
OPACITYTILE
360
1000B
  3
REFLECTIONTILE
360
1000A
  3
REFRACTIONTILE
360
1000C
  3
SPECULARTILE
360
10009
  0
DICTIONARY
  5
10016
330
10015
100
AcDbDictionary
280
     1
281
     1
  3
BUMPTILE
360
10018
  3
DIFFUSETILE
360
10017
  3
OPACITYTILE
360
1001B
  3
REFLECTIONTILE
360
1001A
  3
REFRACTIONTILE
360
1001C
  3
SPECULARTILE
360
10019
  0
DICTIONARY
  5
1006E
330
10050
100
AcDbDictionary
280
     1
281
     1
  3
ACAD_XREC_ROUNDTRIP
360
1006F
  0
DICTIONARY
  5
1006B
330
10039
100
AcDbDictionary
280
     1
281
     1
  3
ACAD_ROUNDTRIP_2008_TABLESTYLE_CELLSTYLEMAP
360
1006C
  0
XRECORD
  5
10071
102
{ACAD_REACTORS
330
10070
102
}
330
10070
100
AcDbXrecord
280
     1
102
DISPLAYNAME
  1
Imperial24
102
FLAGS
 90
        0
  0
XRECORD
  5
10010
102
{ACAD_REACTORS
330
1000E
102
}
330
1000E
100
AcDbXrecord
280
     1
270
     1
271
     1
  0
XRECORD
  5
1000F
102
{ACAD_REACTORS
330
1000E
102
}
330
1000E
100
AcDbXrecord
280
     1
270
     1
271
     1
  0
XRECORD
  5
10013
102
{ACAD_REACTORS
330
1000E
102
}
330
1000E
100
AcDbXrecord
280
     1
270
     1
271
     1
  0
XRECORD
  5
10012
102
{ACAD_REACTORS
330
1000E
102
}
330
1000E
100
AcDbXrecord
280
     1
270
     1
271
     1
  0
XRECORD
  5
10014
102
{ACAD_REACTORS
330
1000E
102
}
330
1000E
100
AcDbXrecord
280
     1
270
     1
271
     1
  0
XRECORD
  5
10011
102
{ACAD_REACTORS
330
1000E
102
}
330
1000E
100
AcDbXrecord
280
     1
270
     1
271
     1
  0
XRECORD
  5
10008
102
{ACAD_REACTORS
330
10006
102
}
330
10006
100
AcDbXrecord
280
     1
270
     1
271
     1
  0
XRECORD
  5
10007
102
{ACAD_REACTORS
330
10006
102
}
330
10006
100
AcDbXrecord
280
     1
270
     1
271
     1
  0
XRECORD
  5
1000B
102
{ACAD_REACTORS
330
10006
102
}
330
10006
100
AcDbXrecord
280
     1
270
     1
271
     1
  0
XRECORD
  5
1000A
102
{ACAD_REACTORS
330
10006
102
}
330
10006
100
AcDbXrecord
280
     1
270
     1
271
     1
  0
XRECORD
  5
1000C
102
{ACAD_REACTORS
330
10006
102
}
330
10006
100
AcDbXrecord
280
     1
270
     1
271
     1
  0
XRECORD
  5
10009
102
{ACAD_REACTORS
330
10006
102
}
330
10006
100
AcDbXrecord
280
     1
270
     1
271
     1
  0
XRECORD
  5
10018
102
{ACAD_REACTORS
330
10016
102
}
330
10016
100
AcDbXrecord
280
     1
270
     1
271
     1
  0
XRECORD
  5
10017
102
{ACAD_REACTORS
330
10016
102
}
330
10016
100
AcDbXrecord
280
     1
270
     1
271
     1
  0
XRECORD
  5
1001B
102
{ACAD_REACTORS
330
10016
102
}
330
10016
100
AcDbXrecord
280
     1
270
     1
271
     1
  0
XRECORD
  5
1001A
102
{ACAD_REACTORS
330
10016
102
}
330
10016
100
AcDbXrecord
280
     1
270
     1
271
     1
  0
XRECORD
  5
1001C
102
{ACAD_REACTORS
330
10016
102
}
330
10016
100
AcDbXrecord
280
     1
270
     1
271
     1
  0
XRECORD
  5
10019
102
{ACAD_REACTORS
330
10016
102
}
330
10016
100
AcDbXrecord
280
     1
270
     1
271
     1
  0
XRECORD
  5
1006F
102
{ACAD_REACTORS
330
1006E
102
}
330
1006E
100
AcDbXrecord
280
     1
102
DISPLAYNAME
  1
Imperial24
102
FLAGS
 90
        0
  0
CELLSTYLEMAP
  5
1006C
102
{ACAD_REACTORS
330
1006B
102
}
330
1006B
100
AcDbCellStyleMap
 90
        3
300
CELLSTYLE
  1
TABLEFORMAT_BEGIN
 90
        5
170
     1
 91
        0
 92
    32768
 62
   257
 93
        1
300
CONTENTFORMAT
  1
CONTENTFORMAT_BEGIN
 90
        0
 91
        0
 92
      512
 93
        0
300

 40
0.0
140
1.0
 94
        5
 62
     0
340
11
144
0.25
309
CONTENTFORMAT_END
171
     0
 94
        0
309
TABLEFORMAT_END
  1
CELLSTYLE_BEGIN
 90
        1
 91
        1
300
_TITLE
309
CELLSTYLE_END
300
CELLSTYLE
  1
TABLEFORMAT_BEGIN
 90
        5
170
     1
 91
        0
 92
        0
 62
   257
 93
        1
300
CONTENTFORMAT
  1
CONTENTFORMAT_BEGIN
 90
        0
 91
        0
 92
      512
 93
        0
300

 40
0.0
140
1.0
 94
        5
 62
     0
340
11
144
0.18
309
CONTENTFORMAT_END
171
     0
 94
        0
309
TABLEFORMAT_END
  1
CELLSTYLE_BEGIN
 90
        2
 91
        1
300
_HEADER
309
CELLSTYLE_END
300
CELLSTYLE
  1
TABLEFORMAT_BEGIN
 90
        5
170
     1
 91
        0
 92
        0
 62
   257
 93
        1
300
CONTENTFORMAT
  1
CONTENTFORMAT_BEGIN
 90
        0
 91
        0
 92
      512
 93
        0
300

 40
0.0
140
1.0
 94
        2
 62
     0
340
11
144
0.18
309
CONTENTFORMAT_END
171
     0
 94
        0
309
TABLEFORMAT_END
  1
CELLSTYLE_BEGIN
 90
        3
 91
        2
300
_DATA
309
CELLSTYLE_END
  0
ENDSEC
  0
EOF
