  0
SECTION
  2
HEADER
  9
$ACADVER
  1
AC1027
  9
$ACADMAINTVER
 70
   125
  9
$DWGCODEPAGE
  3
ANSI_1252
  9
$LASTSAVEDBY
  1
zz000
  9
$REQUIREDVERSIONS
160
                 0
  9
$INSBASE
 10
0.0
 20
0.0
 30
0.0
  9
$EXTMIN
 10
-753.0233604154497
 20
-293.4516738909556
 30
-0.0000000000000933
  9
$EXTMAX
 10
-3.499999999999932
 20
7.372764743527392
 30
0.0
  9
$LIMMIN
 10
0.0
 20
0.0
  9
$LIMMAX
 10
12.0
 20
9.0
  9
$ORTHOMODE
 70
     0
  9
$REGENMODE
 70
     1
  9
$FILLMODE
 70
     1
  9
$QTEXTMODE
 70
     0
  9
$MIRRTEXT
 70
     0
  9
$LTSCALE
 40
1.0
  9
$ATTMODE
 70
     1
  9
$TEXTSIZE
 40
0.2
  9
$TRACEWID
 40
0.05
  9
$TEXTSTYLE
  7
STANDARD
  9
$CLAYER
  8
0
  9
$CELTYPE
  6
Continuous
  9
$CECOLOR
 62
   256
  9
$CELTSCALE
 40
1.0
  9
$DISPSILH
 70
     0
  9
$DIMSCALE
 40
1.0
  9
$DIMASZ
 40
0.18
  9
$DIMEXO
 40
0.0625
  9
$DIMDLI
 40
0.38
  9
$DIMRND
 40
0.0
  9
$DIMDLE
 40
0.0
  9
$DIMEXE
 40
0.18
  9
$DIMTP
 40
0.0
  9
$DIMTM
 40
0.0
  9
$DIMTXT
 40
0.18
  9
$DIMCEN
 40
0.09
  9
$DIMTSZ
 40
0.0
  9
$DIMTOL
 70
     0
  9
$DIMLIM
 70
     0
  9
$DIMTIH
 70
     1
  9
$DIMTOH
 70
     1
  9
$DIMSE1
 70
     0
  9
$DIMSE2
 70
     0
  9
$DIMTAD
 70
     0
  9
$DIMZIN
 70
     0
  9
$DIMBLK
  1

  9
$DIMASO
 70
     1
  9
$DIMSHO
 70
     1
  9
$DIMPOST
  1

  9
$DIMAPOST
  1

  9
$DIMALT
 70
     0
  9
$DIMALTD
 70
     2
  9
$DIMALTF
 40
25.4
  9
$DIMLFAC
 40
1.0
  9
$DIMTOFL
 70
     0
  9
$DIMTVP
 40
0.0
  9
$DIMTIX
 70
     0
  9
$DIMSOXD
 70
     0
  9
$DIMSAH
 70
     0
  9
$DIMBLK1
  1

  9
$DIMBLK2
  1

  9
$DIMSTYLE
  2
Standard
  9
$DIMCLRD
 70
     0
  9
$DIMCLRE
 70
     0
  9
$DIMCLRT
 70
     0
  9
$DIMTFAC
 40
1.0
  9
$DIMGAP
 40
0.09
  9
$DIMJUST
 70
     0
  9
$DIMSD1
 70
     0
  9
$DIMSD2
 70
     0
  9
$DIMTOLJ
 70
     1
  9
$DIMTZIN
 70
     0
  9
$DIMALTZ
 70
     0
  9
$DIMALTTZ
 70
     0
  9
$DIMUPT
 70
     0
  9
$DIMDEC
 70
     4
  9
$DIMTDEC
 70
     4
  9
$DIMALTU
 70
     2
  9
$DIMALTTD
 70
     2
  9
$DIMTXSTY
  7
STANDARD
  9
$DIMAUNIT
 70
     0
  9
$DIMADEC
 70
     0
  9
$DIMALTRND
 40
0.0
  9
$DIMAZIN
 70
     0
  9
$DIMDSEP
 70
    46
  9
$DIMATFIT
 70
     3
  9
$DIMFRAC
 70
     0
  9
$DIMLDRBLK
  1

  9
$DIMLUNIT
 70
     2
  9
$DIMLWD
 70
    -2
  9
$DIMLWE
 70
    -2
  9
$DIMTMOVE
 70
     0
  9
$DIMFXL
 40
1.0
  9
$DIMFXLON
 70
     0
  9
$DIMJOGANG
 40
0.7853981633974483
  9
$DIMTFILL
 70
     0
  9
$DIMTFILLCLR
 70
     0
  9
$DIMARCSYM
 70
     0
  9
$DIMLTYPE
  6

  9
$DIMLTEX1
  6

  9
$DIMLTEX2
  6

  9
$DIMTXTDIRECTION
 70
     0
  9
$LUNITS
 70
     2
  9
$LUPREC
 70
     4
  9
$SKETCHINC
 40
0.1
  9
$FILLETRAD
 40
0.0
  9
$AUNITS
 70
     0
  9
$AUPREC
 70
     0
  9
$MENU
  1
.
  9
$ELEVATION
 40
0.0
  9
$PELEVATION
 40
0.0
  9
$THICKNESS
 40
0.0
  9
$LIMCHECK
 70
     0
  9
$CHAMFERA
 40
0.0
  9
$CHAMFERB
 40
0.0
  9
$CHAMFERC
 40
0.0
  9
$CHAMFERD
 40
0.0
  9
$SKPOLY
 70
     0
  9
$TDCREATE
 40
2459828.799039352
  9
$TDUCREATE
 40
2459829.090706019
  9
$TDUPDATE
 40
2459828.799548611
  9
$TDUUPDATE
 40
2459829.091215278
  9
$TDINDWG
 40
0.0005092593
  9
$TDUSRTIMER
 40
0.0005092593
  9
$USRTIMER
 70
     1
  9
$ANGBASE
 50
0.0
  9
$ANGDIR
 70
     0
  9
$PDMODE
 70
     0
  9
$PDSIZE
 40
0.0
  9
$PLINEWID
 40
0.0
  9
$SPLFRAME
 70
     0
  9
$SPLINETYPE
 70
     6
  9
$SPLINESEGS
 70
     8
  9
$HANDSEED
  5
10072
  9
$SURFTAB1
 70
     6
  9
$SURFTAB2
 70
     6
  9
$SURFTYPE
 70
     6
  9
$SURFU
 70
     6
  9
$SURFV
 70
     6
  9
$UCSBASE
  2

  9
$UCSNAME
  2

  9
$UCSORG
 10
0.0
 20
0.0
 30
0.0
  9
$UCSXDIR
 10
1.0
 20
0.0
 30
0.0
  9
$UCSYDIR
 10
0.0
 20
1.0
 30
0.0
  9
$UCSORTHOREF
  2

  9
$UCSORTHOVIEW
 70
     0
  9
$UCSORGTOP
 10
0.0
 20
0.0
 30
0.0
  9
$UCSORGBOTTOM
 10
0.0
 20
0.0
 30
0.0
  9
$UCSORGLEFT
 10
0.0
 20
0.0
 30
0.0
  9
$UCSORGRIGHT
 10
0.0
 20
0.0
 30
0.0
  9
$UCSORGFRONT
 10
0.0
 20
0.0
 30
0.0
  9
$UCSORGBACK
 10
0.0
 20
0.0
 30
0.0
  9
$PUCSBASE
  2

  9
$PUCSNAME
  2

  9
$PUCSORG
 10
0.0
 20
0.0
 30
0.0
  9
$PUCSXDIR
 10
1.0
 20
0.0
 30
0.0
  9
$PUCSYDIR
 10
0.0
 20
1.0
 30
0.0
  9
$PUCSORTHOREF
  2

  9
$PUCSORTHOVIEW
 70
     0
  9
$PUCSORGTOP
 10
0.0
 20
0.0
 30
0.0
  9
$PUCSORGBOTTOM
 10
0.0
 20
0.0
 30
0.0
  9
$PUCSORGLEFT
 10
0.0
 20
0.0
 30
0.0
  9
$PUCSORGRIGHT
 10
0.0
 20
0.0
 30
0.0
  9
$PUCSORGFRONT
 10
0.0
 20
0.0
 30
0.0
  9
$PUCSORGBACK
 10
0.0
 20
0.0
 30
0.0
  9
$USERI1
 70
     0
  9
$USERI2
 70
     0
  9
$USERI3
 70
     0
  9
$USERI4
 70
     0
  9
$USERI5
 70
     0
  9
$USERR1
 40
0.0
  9
$USERR2
 40
0.0
  9
$USERR3
 40
0.0
  9
$USERR4
 40
0.0
  9
$USERR5
 40
0.0
  9
$WORLDVIEW
 70
     1
  9
$SHADEDGE
 70
     3
  9
$SHADEDIF
 70
    70
  9
$TILEMODE
 70
     1
  9
$MAXACTVP
 70
    64
  9
$PINSBASE
 10
0.0
 20
0.0
 30
0.0
  9
$PLIMCHECK
 70
     0
  9
$PEXTMIN
 10
1.000000000000000E+20
 20
1.000000000000000E+20
 30
1.000000000000000E+20
  9
$PEXTMAX
 10
-1.000000000000000E+20
 20
-1.000000000000000E+20
 30
-1.000000000000000E+20
  9
$PLIMMIN
 10
0.0
 20
0.0
  9
$PLIMMAX
 10
12.0
 20
9.0
  9
$UNITMODE
 70
     0
  9
$VISRETAIN
 70
     1
  9
$PLINEGEN
 70
     0
  9
$PSLTSCALE
 70
     1
  9
$TREEDEPTH
 70
  3020
  9
$CMLSTYLE
  2
Standard
  9
$CMLJUST
 70
     0
  9
$CMLSCALE
 40
1.0
  9
$PROXYGRAPHICS
 70
     1
  9
$MEASUREMENT
 70
     0
  9
$CELWEIGHT
370
    -1
  9
$ENDCAPS
280
     0
  9
$JOINSTYLE
280
     0
  9
$LWDISPLAY
290
     0
  9
$INSUNITS
 70
     4
  9
$HYPERLINKBASE
  1

  9
$STYLESHEET
  1

  9
$XEDIT
290
     1
  9
$CEPSNTYPE
380
     0
  9
$PSTYLEMODE
290
     1
  9
$FINGERPRINTGUID
  2
{2D9B0916-4EBF-B843-8549-C2C64B756983}
  9
$VERSIONGUID
  2
{594CFFDE-5382-0F45-9A2F-0B48D7204430}
  9
$EXTNAMES
290
     1
  9
$PSVPSCALE
 40
0.0
  9
$OLESTARTUP
290
     0
  9
$SORTENTS
280
   127
  9
$INDEXCTL
280
     0
  9
$HIDETEXT
280
     0
  9
$XCLIPFRAME
280
     2
  9
$HALOGAP
280
     0
  9
$OBSCOLOR
 70
   257
  9
$OBSLTYPE
280
     0
  9
$INTERSECTIONDISPLAY
280
     0
  9
$INTERSECTIONCOLOR
 70
   257
  9
$DIMASSOC
280
     1
  9
$PROJECTNAME
  1

  9
$CAMERADISPLAY
290
     0
  9
$LENSLENGTH
 40
50.0
  9
$CAMERAHEIGHT
 40
0.0
  9
$STEPSPERSEC
 40
2.0
  9
$STEPSIZE
 40
6.0
  9
$3DDWFPREC
 40
2.0
  9
$PSOLWIDTH
 40
0.25
  9
$PSOLHEIGHT
 40
4.0
  9
$LOFTANG1
 40
1.570796326794896
  9
$LOFTANG2
 40
1.570796326794896
  9
$LOFTMAG1
 40
0.0
  9
$LOFTMAG2
 40
0.0
  9
$LOFTPARAM
 70
     7
  9
$LOFTNORMALS
280
     1
  9
$LATITUDE
 40
37.795
  9
$LONGITUDE
 40
-122.394
  9
$NORTHDIRECTION
 40
0.0
  9
$TIMEZONE
 70
 -8000
  9
$LIGHTGLYPHDISPLAY
280
     1
  9
$TILEMODELIGHTSYNCH
280
     1
  9
$CMATERIAL
347
10005
  9
$SOLIDHIST
280
     0
  9
$SHOWHIST
280
     1
  9
$DWFFRAME
280
     2
  9
$DGNFRAME
280
     0
  9
$REALWORLDSCALE
290
     1
  9
$INTERFERECOLOR
 62
     1
  9
$INTERFEREOBJVS
345
10027
  9
$INTERFEREVPVS
346
10024
  9
$CSHADOW
280
     0
  9
$SHADOWPLANELOCATION
 40
0.0
  0
ENDSEC
  0
SECTION
  2
CLASSES
  0
CLASS
  1
ACDBDICTIONARYWDFLT
  2
AcDbDictionaryWithDefault
  3
ObjectDBX Classes
 90
        0
 91
        1
280
     0
281
     0
  0
CLASS
  1
MATERIAL
  2
AcDbMaterial
  3
ObjectDBX Classes
 90
     1153
 91
        3
280
     0
281
     0
  0
CLASS
  1
VISUALSTYLE
  2
AcDbVisualStyle
  3
ObjectDBX Classes
 90
     4095
 91
       24
280
     0
281
     0
  0
CLASS
  1
TABLESTYLE
  2
AcDbTableStyle
  3
ObjectDBX Classes
 90
     4095
 91
        1
280
     0
281
     0
  0
CLASS
  1
SCALE
  2
AcDbScale
  3
ObjectDBX Classes
 90
     1153
 91
       17
280
     0
281
     0
  0
CLASS
  1
MLEADERSTYLE
  2
AcDbMLeaderStyle
  3
ACDB_MLEADERSTYLE_CLASS
 90
     4095
 91
        1
280
     0
281
     0
  0
CLASS
  1
ACDBSECTIONVIEWSTYLE
  2
AcDbSectionViewStyle
  3
ObjectDBX Classes
 90
     1025
 91
        1
280
     0
281
     0
  0
CLASS
  1
ACDBDETAILVIEWSTYLE
  2
AcDbDetailViewStyle
  3
ObjectDBX Classes
 90
     1025
 91
        1
280
     0
281
     0
  0
CLASS
  1
SOLID_BACKGROUND
  2
AcDbSolidBackground
  3
SCENEOE
 90
     4095
 91
        1
280
     0
281
     0
  0
CLASS
  1
NPOCOLLECTION
  2
AcDbImpNonPersistentObjectsCollection
  3
ObjectDBX Classes
 90
     1153
 91
        1
280
     0
281
     0
  0
CLASS
  1
GROUND_PLANE_BACKGROUND
  2
AcDbGroundPlaneBackground
  3
SCENEOE
 90
     4095
 91
        1
280
     0
281
     0
  0
CLASS
  1
DICTIONARYVAR
  2
AcDbDictionaryVar
  3
ObjectDBX Classes
 90
        0
 91
        9
280
     0
281
     0
  0
CLASS
  1
CELLSTYLEMAP
  2
AcDbCellStyleMap
  3
ObjectDBX Classes
 90
     1152
 91
        1
280
     0
281
     0
  0
ENDSEC
  0
SECTION
  2
TABLES
  0
TABLE
  2
VPORT
  5
8
330
0
100
AcDbSymbolTable
 70
     1
1001
ACAD
1000
DbSaveVer
1071
      247
  0
VPORT
  5
10059
330
8
100
AcDbSymbolTableRecord
100
AcDbViewportTableRecord
  2
*Active
 70
     0
 10
0.0
 20
0.0
 11
1.0
 21
1.0
 12
-100.0664192682845
 22
-35.90364064472635
 13
0.0
 23
0.0
 14
1.0
 24
1.0
 15
0.0
 25
0.0
 16
-0.0000000000002274
 26
0.0
 36
1023.354328300683
 17
-178.8062438964844
 27
-57.98348617553711
 37
-0.0000000000000466
 40
374.8394203245632
 41
2.025141930251419
 42
50.0
 43
0.0
 44
0.0
 50
0.0
 51
0.0
 71
     0
 72
  1000
 73
     1
 74
     3
 75
     0
 76
     0
 77
     0
 78
     0
281
     0
 65
     1
110
0.0
120
0.0
130
0.0
111
1.0
121
0.0
131
0.0
112
0.0
122
1.0
132
0.0
 79
     0
146
0.0
348
10023
 60
     3
 61
     5
292
     1
282
     1
141
0.0
142
0.0
 63
   250
421
  3355443
1001
ACAD_NAV_VCDISPLAY
1070
     3
  0
ENDTAB
  0
TABLE
  2
LTYPE
  5
5
330
0
100
AcDbSymbolTable
 70
     1
  0
LTYPE
  5
14
330
5
100
AcDbSymbolTableRecord
100
AcDbLinetypeTableRecord
  2
BYBLOCK
 70
     0
  3

 72
    65
 73
     0
 40
0.0
  0
LTYPE
  5
15
330
5
100
AcDbSymbolTableRecord
100
AcDbLinetypeTableRecord
  2
BYLAYER
 70
     0
  3

 72
    65
 73
     0
 40
0.0
  0
LTYPE
  5
10001
330
5
100
AcDbSymbolTableRecord
100
AcDbLinetypeTableRecord
  2
Continuous
 70
     0
  3
Solid line
 72
    65
 73
     0
 40
0.0
  0
ENDTAB
  0
TABLE
  2
LAYER
  5
2
330
0
100
AcDbSymbolTable
 70
     1
  0
LAYER
  5
50
102
{ACAD_XDICTIONARY
360
1005F
102
}
330
2
100
AcDbSymbolTableRecord
100
AcDbLayerTableRecord
  2
0
 70
     0
 62
     7
  6
Continuous
370
    -3
390
10003
347
10015
348
0
  0
ENDTAB
  0
TABLE
  2
STYLE
  5
3
330
0
100
AcDbSymbolTable
 70
     1
  0
STYLE
  5
11
330
3
100
AcDbSymbolTableRecord
100
AcDbTextStyleTableRecord
  2
STANDARD
 70
     0
 40
0.0
 41
1.0
 50
0.0
 71
     0
 42
0.2
  3

  4

  0
ENDTAB
  0
TABLE
  2
VIEW
  5
6
330
0
100
AcDbSymbolTable
 70
     0
  0
ENDTAB
  0
TABLE
  2
UCS
  5
7
330
0
100
AcDbSymbolTable
 70
     0
  0
ENDTAB
  0
TABLE
  2
APPID
  5
9
330
0
100
AcDbSymbolTable
 70
     2
  0
APPID
  5
12
330
9
100
AcDbSymbolTableRecord
100
AcDbRegAppTableRecord
  2
ACAD
 70
     0
  0
APPID
  5
10058
330
9
100
AcDbSymbolTableRecord
100
AcDbRegAppTableRecord
  2
ACAD_NAV_VCDISPLAY
 70
     0
  0
ENDTAB
  0
TABLE
  2
DIMSTYLE
  5
A
330
0
100
AcDbSymbolTable
 70
     1
100
AcDbDimStyleTable
 71
     0
  0
DIMSTYLE
105
10053
330
A
100
AcDbSymbolTableRecord
100
AcDbDimStyleTableRecord
  2
Standard
 70
     0
340
11
  0
ENDTAB
  0
TABLE
  2
BLOCK_RECORD
  5
1
330
0
100
AcDbSymbolTable
 70
     0
  0
BLOCK_RECORD
  5
1F
330
1
100
AcDbSymbolTableRecord
100
AcDbBlockTableRecord
  2
*MODEL_SPACE
340
10055
 70
     0
280
     1
281
     0
  0
BLOCK_RECORD
  5
1B
330
1
100
AcDbSymbolTableRecord
100
AcDbBlockTableRecord
  2
*PAPER_SPACE
340
10056
 70
     0
280
     1
281
     0
  0
ENDTAB
  0
ENDSEC
  0
SECTION
  2
BLOCKS
  0
BLOCK
  5
20
330
1F
100
AcDbEntity
  8
0
100
AcDbBlockBegin
  2
*MODEL_SPACE
 70
     0
 10
0.0
 20
0.0
 30
0.0
  3
*MODEL_SPACE
  1

  0
ENDBLK
  5
21
330
1F
100
AcDbEntity
  8
0
100
AcDbBlockEnd
  0
BLOCK
  5
1C
330
1B
100
AcDbEntity
 67
     1
  8
0
100
AcDbBlockBegin
  2
*PAPER_SPACE
 70
     0
 10
0.0
 20
0.0
 30
0.0
  3
*PAPER_SPACE
  1

  0
ENDBLK
  5
1D
330
1B
100
AcDbEntity
 67
     1
  8
0
100
AcDbBlockEnd
  0
ENDSEC
  0
SECTION
  2
ENTITIES
  0
LWPOLYLINE
  5
100
330
1F
100
AcDbEntity
  8
0
100
AcDbPolyline
 90
      104
 70
     1
 43
0.0
 10
-334.8485301304902
 20
-10.75667082883629
 42
0.4044820182103358
 10
-337.3471408555844
 20
-13.17333749550329
 42
-0.4044820182102434
 10
-339.3460294356596
 20
-15.10667082883628
 10
-354.7711610182531
 20
-15.10667082883731
 42
0.1243688756258717
 10
-355.7211083852156
 20
-15.34667082883652
 42
-0.2526455763198514
 10
-358.5709504861036
 20
-15.34667082883658
 42
0.1243688756258819
 10
-359.520897853066
 20
-15.10667082883731
 10
-362.8960294356596
 20
-15.10667082883731
 42
0.4142135623730951
 10
-364.8960294356596
 20
-17.10667082883628
 10
-364.8960294356597
 20
-135.1191708288366
 42
0.4142135623730952
 10
-362.8960294356596
 20
-137.1191708288366
 10
-359.5208978530672
 20
-137.1191708288366
 42
0.1243688756259854
 10
-358.5709504861041
 20
-136.8791708288366
 42
-0.2526455763199508
 10
-355.7211083852151
 20
-136.8791708288366
 42
0.1243688756259853
 10
-354.7711610182521
 20
-137.1191708288366
 10
-342.9179044356596
 20
-137.1191708288366
 42
-0.4044820182102934
 10
-340.9190158555842
 20
-139.0525041621699
 42
0.4044820182102932
 10
-338.4204051304901
 20
-141.4691708288366
 10
-338.4154037408291
 20
-141.4691708288366
 42
0.4044820182102933
 10
-335.916793015735
 20
-139.0525041621699
 42
-0.4044820182102933
 10
-333.9179044356597
 20
-137.1191708288366
 10
-282.1960294356596
 20
-137.1191708288366
 42
-0.4044820182102934
 10
-280.1971408555844
 20
-139.0525041621699
 42
0.4044820182102931
 10
-277.6985301304901
 20
-141.4691708288366
 10
-277.6960294356596
 20
-141.4691708288366
 42
0.4142135623730938
 10
-275.1960294356596
 20
-138.9691708288366
 10
-275.1960294356596
 20
-138.9475979535829
 42
-0.1989123673796582
 10
-274.6102429980327
 20
-137.5333843912098
 10
-270.4889226544731
 20
-133.4120640476501
 42
-0.1989123673796522
 10
-269.7818158732865
 20
-133.1191708288367
 10
-240.4522794356595
 20
-133.1191708288367
 42
0.4142135623730951
 10
-239.4522794356595
 20
-132.1191708288367
 10
-239.4522794356595
 20
-119.6191708288366
 42
-0.4142135623730951
 10
-238.9522794356595
 20
-119.1191708288366
 10
-214.0460294356596
 20
-119.1191708288366
 42
-0.4142135623730951
 10
-213.5460294356595
 20
-119.6191708288366
 10
-213.5460294356595
 20
-132.1191708288367
 42
0.4142135623730948
 10
-212.5460294356595
 20
-133.1191708288367
 10
-190.3664929980325
 20
-133.1191708288367
 42
-0.1989123673795525
 10
-189.6593862168462
 20
-133.4120640476498
 10
-185.5380658732865
 20
-137.5333843912097
 42
-0.1989123673796672
 10
-184.9522794356595
 20
-138.9475979535829
 10
-184.9522794356595
 20
-138.9691708288366
 42
0.4142135623730951
 10
-182.4522794356595
 20
-141.4691708288366
 10
-182.4497787408295
 20
-141.4691708288366
 42
0.4044820182102974
 10
-179.951168015735
 20
-139.05250416217
 42
-0.4044820182102918
 10
-177.9522794356595
 20
-137.1191708288366
 10
-129.4083978530675
 20
-137.1191708288366
 42
0.1243688756261043
 10
-128.4584504861036
 20
-136.8791708288364
 42
-0.2526455763199418
 10
-125.6086083852146
 20
-136.8791708288368
 42
0.1243688756259889
 10
-124.6586610182515
 20
-137.1191708288366
 10
-107.1741544356595
 20
-137.1191708288366
 42
-0.4044820182102918
 10
-105.1752658555842
 20
-139.05250416217
 42
0.4044820182102936
 10
-102.6766551304905
 20
-141.4691708288367
 10
-102.6716537408285
 20
-141.4691708288367
 42
0.4044820182102937
 10
-100.1730430157348
 20
-139.05250416217
 42
-0.4044820182102918
 10
-98.17415443565955
 20
-137.1191708288366
 10
-39.30852943565958
 20
-137.1191708288366
 42
-0.404482018210292
 10
-37.30964085558429
 20
-139.05250416217
 42
0.4044820182102976
 10
-34.81103013048949
 20
-141.4691708288367
 10
-34.80602874082956
 20
-141.4691708288367
 42
0.4044820182102975
 10
-32.30741801573492
 20
-139.05250416217
 42
-0.4044820182102915
 10
-30.30852943565958
 20
-137.1191708288366
 10
-24.40839785306747
 20
-137.1191708288366
 42
0.1243688756259867
 10
-23.45845048610448
 20
-136.8791708288368
 42
-0.2526455763200264
 10
-20.60860838521461
 20
-136.8791708288368
 42
0.1243688756259865
 10
-19.65866101825156
 20
-137.1191708288366
 10
-16.28352943565954
 20
-137.1191708288366
 42
0.4142135623730936
 10
-14.28352943565954
 20
-135.1191708288366
 10
-14.28352943565954
 20
-17.10667082883634
 42
0.4142135623730951
 10
-16.28352943565954
 20
-15.10667082883634
 10
-19.65866101825355
 20
-15.10667082883734
 42
0.1243688756258129
 10
-20.60860838521546
 20
-15.34667082883652
 42
-0.2526455763198696
 10
-23.45845048610357
 20
-15.34667082883652
 42
0.1243688756258124
 10
-24.40839785306548
 20
-15.10667082883734
 10
-30.30852943565958
 20
-15.10667082883634
 42
-0.4044820182102408
 10
-32.30741801573492
 20
-13.17333749550334
 42
0.4044820182103396
 10
-34.80602874082956
 20
-10.75667082883632
 10
-34.81103013048949
 20
-10.75667082883632
 42
0.4044820182103399
 10
-37.30964085558429
 20
-13.17333749550334
 42
-0.404482018210241
 10
-39.30852943565958
 20
-15.10667082883634
 10
-124.6586610182524
 20
-15.10667082883731
 42
0.1243688756259249
 10
-125.6086083852154
 20
-15.34667082883658
 42
-0.2526455763198674
 10
-128.4584504861036
 20
-15.34667082883658
 42
0.1243688756258224
 10
-129.4083978530655
 20
-15.10667082883731
 10
-154.1335294356595
 20
-15.10667082883634
 42
-0.4044820182102408
 10
-156.1324180157348
 20
-13.17333749550334
 42
0.4044820182103358
 10
-158.6310287408285
 20
-10.75667082883632
 10
-158.6360301304905
 20
-10.75667082883632
 42
0.4044820182103358
 10
-161.1346408555843
 20
-13.17333749550334
 42
-0.404482018210241
 10
-163.1335294356595
 20
-15.10667082883631
 10
-239.8585294356595
 20
-15.10667082883628
 42
-0.4044820182102406
 10
-241.8574180157349
 20
-13.17333749550334
 42
0.4044820182103397
 10
-244.3560287408295
 20
-10.75667082883632
 10
-244.3610301304906
 20
-10.75667082883632
 42
0.4044820182103357
 10
-246.8596408555842
 20
-13.17333749550334
 42
-0.404482018210241
 10
-248.8585294356596
 20
-15.10667082883628
 10
-249.7711610182536
 20
-15.10667082883731
 42
0.1243688756258168
 10
-250.7211083852154
 20
-15.34667082883655
 42
-0.2526455763198681
 10
-253.5709504861037
 20
-15.34667082883655
 42
0.1243688756258164
 10
-254.5208978530656
 20
-15.10667082883731
 10
-330.3460294356596
 20
-15.10667082883628
 42
-0.4044820182102433
 10
-332.344918015735
 20
-13.17333749550329
 42
0.4044820182103358
 10
-334.8435287408291
 20
-10.75667082883629
  0
LWPOLYLINE
  5
101
330
1F
100
AcDbEntity
  8
0
100
AcDbPolyline
 90
       24
 70
     1
 43
0.0
 10
-326.0517794356597
 20
-114.0691708288368
 42
0.4142135623730951
 10
-326.5517794356597
 20
-114.5691708288367
 10
-326.5517794356597
 20
-115.5691708288367
 42
-0.4142135623730951
 10
-327.0517794356597
 20
-116.0691708288367
 10
-333.0517794356597
 20
-116.0691708288367
 42
-0.4142135623730951
 10
-333.5517794356597
 20
-115.5691708288367
 10
-333.5517794356597
 20
-114.5691708288367
 42
0.4142135623730951
 10
-334.0517794356597
 20
-114.0691708288367
 10
-349.9277794356597
 20
-114.0691708288368
 42
0.4142135623730951
 10
-350.4277794356597
 20
-114.5691708288367
 10
-350.4277794356597
 20
-115.5691708288367
 42
-0.4142135623730951
 10
-350.9277794356596
 20
-116.0691708288367
 10
-356.9277794356596
 20
-116.0691708288367
 42
-0.4142135623730951
 10
-357.4277794356597
 20
-115.5691708288367
 10
-357.4277794356597
 20
-114.5691708288367
 42
0.4142135623730951
 10
-357.9277794356597
 20
-114.0691708288368
 10
-358.0147794356597
 20
-114.0691708288368
 42
-0.4142135623730951
 10
-358.5147794356597
 20
-113.5691708288368
 10
-358.5147794356597
 20
-100.5691708288367
 42
-0.4142135623730951
 10
-358.0147794356597
 20
-100.0691708288367
 10
-323.5835294356597
 20
-100.0691708288367
 42
-0.4142135623730951
 10
-323.0835294356597
 20
-100.5691708288367
 10
-323.0835294356597
 20
-113.5691708288368
 42
-0.4142135623730951
 10
-323.5835294356597
 20
-114.0691708288368
  0
LWPOLYLINE
  5
102
330
1F
100
AcDbEntity
  8
0
100
AcDbPolyline
 90
       38
 70
     1
 43
0.0
 10
-114.5402794356595
 20
-95.51917082883681
 42
0.4142135623730951
 10
-115.0402794356595
 20
-95.01917082883682
 10
-117.5085294356595
 20
-95.01917082883684
 42
-0.4142135623730951
 10
-118.0085294356596
 20
-94.51917082883682
 10
-118.0085294356596
 20
-81.51917082883683
 42
-0.4142135623730951
 10
-117.5085294356595
 20
-81.01917082883682
 10
-97.07727943565954
 20
-81.01917082883662
 42
0.4142135623730951
 10
-96.57727943565953
 20
-80.51917082883662
 10
-96.57727943565953
 20
-76.46917082883664
 42
0.4142135623730951
 10
-97.07727943565954
 20
-75.96917082883663
 10
-98.45852943565956
 20
-75.96917082883663
 42
-0.4142135623730951
 10
-98.95852943565955
 20
-75.46917082883664
 10
-98.95852943565955
 20
-62.46917082883673
 42
-0.4142135623730951
 10
-98.45852943565956
 20
-61.96917082883672
 10
-85.45852943565956
 20
-61.96917082883672
 42
-0.4142135623730951
 10
-84.95852943565949
 20
-62.46917082883673
 10
-84.95852943565955
 20
-62.55617082883674
 42
0.4142135623731523
 10
-84.45852943565956
 20
-63.0561708288368
 10
-84.07727943565953
 20
-63.05617082883685
 42
-0.4142135623730951
 10
-83.57727943565953
 20
-63.55617082883682
 10
-83.57727943565953
 20
-70.99417082883684
 42
0.4142135623730951
 10
-83.07727943565954
 20
-71.49417082883681
 42
-0.4142135623730951
 10
-82.57727943565953
 20
-71.99417082883684
 10
-82.57727943565953
 20
-84.99417082883672
 42
-0.4142135623730951
 10
-83.07727943565954
 20
-85.49417082883673
 42
0.4142135623730951
 10
-83.57727943565953
 20
-85.99417082883684
 10
-83.57727943565947
 20
-96.51917082883674
 42
-0.4142135623730951
 10
-84.07727943565953
 20
-97.01917082883674
 10
-90.16427943565958
 20
-97.01917082883674
 42
-0.4142135623730951
 10
-90.66427943565958
 20
-96.51917082883674
 10
-90.66427943565958
 20
-95.51917082883674
 42
0.4142135623730951
 10
-91.16427943565957
 20
-95.01917082883673
 10
-107.0402794356595
 20
-95.01917082883673
 42
0.4142135623730951
 10
-107.5402794356595
 20
-95.51917082883671
 10
-107.5402794356595
 20
-96.51917082883674
 42
-0.4142135623730951
 10
-108.0402794356595
 20
-97.01917082883674
 10
-114.0402794356595
 20
-97.01917082883674
 42
-0.4142135623730951
 10
-114.5402794356595
 20
-96.51917082883674
  0
LWPOLYLINE
  5
103
330
1F
100
AcDbEntity
  8
0
100
AcDbPolyline
 90
        8
 70
     1
 43
0.0
 10
-274.6960294356596
 20
-132.1191708288367
 10
-285.4522794356597
 20
-132.1191708288367
 42
-0.4142135623730951
 10
-285.9522794356596
 20
-131.6191708288366
 10
-285.9522794356596
 20
-117.6191708288366
 42
-0.4142135623730951
 10
-285.4522794356597
 20
-117.1191708288366
 10
-274.6960294356596
 20
-117.1191708288366
 42
-0.4142135623730951
 10
-274.1960294356597
 20
-117.6191708288366
 10
-274.1960294356596
 20
-131.6191708288366
 42
-0.4142135623730955
  0
LWPOLYLINE
  5
104
330
1F
100
AcDbEntity
  8
0
100
AcDbPolyline
 90
        8
 70
     1
 43
0.0
 10
-179.4522794356595
 20
-132.1191708288367
 10
-185.4522794356595
 20
-132.1191708288367
 42
-0.4142135623730951
 10
-185.9522794356595
 20
-131.6191708288366
 10
-185.9522794356595
 20
-117.6191708288366
 42
-0.4142135623730951
 10
-185.4522794356595
 20
-117.1191708288366
 10
-179.4522794356595
 20
-117.1191708288366
 42
-0.4142135623730951
 10
-178.9522794356595
 20
-117.6191708288366
 10
-178.9522794356595
 20
-131.6191708288366
 42
-0.4142135623730955
  0
LWPOLYLINE
  5
105
330
1F
100
AcDbEntity
  8
0
100
AcDbPolyline
 90
        8
 70
     1
 43
0.0
 10
-69.88352943565956
 20
-61.96917082883675
 10
-56.88352943565956
 20
-61.96917082883675
 42
-0.4142135623730951
 10
-56.38352943565945
 20
-62.46917082883675
 10
-56.38352943565945
 20
-75.46917082883664
 42
-0.4142135623730951
 10
-56.88352943565956
 20
-75.96917082883663
 10
-69.88352943565956
 20
-75.96917082883663
 42
-0.4142135623730951
 10
-70.38352943565957
 20
-75.46917082883664
 10
-70.38352943565957
 20
-62.46917082883675
 42
-0.4142135623730951
  0
LWPOLYLINE
  5
106
330
1F
100
AcDbEntity
  8
0
100
AcDbPolyline
 90
        8
 70
     1
 43
0.0
 10
-160.3710294356594
 20
-61.96917082883672
 10
-147.3710294356594
 20
-61.96917082883675
 42
-0.4142135623730951
 10
-146.8710294356595
 20
-62.46917082883673
 10
-146.8710294356594
 20
-75.46917082883664
 42
-0.4142135623730951
 10
-147.3710294356594
 20
-75.96917082883663
 10
-160.3710294356594
 20
-75.96917082883663
 42
-0.4142135623730951
 10
-160.8710294356596
 20
-75.46917082883664
 10
-160.8710294356596
 20
-62.46917082883673
 42
-0.4142135623730951
  0
LWPOLYLINE
  5
107
330
1F
100
AcDbEntity
  8
0
100
AcDbPolyline
 90
        8
 70
     1
 43
0.0
 10
-317.5335294356596
 20
-100.0691708288366
 10
-304.5335294356596
 20
-100.0691708288366
 42
-0.4142135623730951
 10
-304.0335294356596
 20
-100.5691708288366
 10
-304.0335294356596
 20
-113.5691708288367
 42
-0.4142135623730951
 10
-304.5335294356596
 20
-114.0691708288367
 10
-317.5335294356596
 20
-114.0691708288367
 42
-0.4142135623730951
 10
-318.0335294356596
 20
-113.5691708288367
 10
-318.0335294356596
 20
-100.5691708288366
 42
-0.4142135623730951
  0
LWPOLYLINE
  5
108
330
1F
100
AcDbEntity
  8
0
100
AcDbPolyline
 90
        8
 70
     1
 43
0.0
 10
-298.4835294356596
 20
-100.0691708288366
 10
-285.4835294356596
 20
-100.0691708288366
 42
-0.4142135623730951
 10
-284.9835294356596
 20
-100.5691708288366
 10
-284.9835294356596
 20
-113.5691708288367
 42
-0.4142135623730951
 10
-285.4835294356596
 20
-114.0691708288367
 10
-298.4835294356596
 20
-114.0691708288367
 42
-0.4142135623730951
 10
-298.9835294356597
 20
-113.5691708288367
 10
-298.9835294356597
 20
-100.5691708288366
 42
-0.4142135623730951
  0
LWPOLYLINE
  5
109
330
1F
100
AcDbEntity
  8
0
100
AcDbPolyline
 90
        8
 70
     1
 43
0.0
 10
-106.3897794356595
 20
-119.6191708288366
 42
0.4142135623730951
 10
-106.8897794356595
 20
-119.1191708288366
 10
-122.2710294356595
 20
-119.1191708288366
 42
0.4142135623730951
 10
-122.7710294356595
 20
-119.6191708288366
 10
-122.7710294356595
 20
-132.6191708288366
 42
0.4142135623730951
 10
-122.2710294356595
 20
-133.1191708288367
 10
-106.8897794356595
 20
-133.1191708288367
 42
0.4142135623731073
 10
-106.3897794356595
 20
-132.6191708288366
  0
LWPOLYLINE
  5
110
330
1F
100
AcDbEntity
  8
0
100
AcDbPolyline
 90
        8
 70
     1
 43
0.0
 10
-18.28352943565949
 20
-119.6191708288366
 10
-18.28352943565949
 20
-132.6191708288367
 42
-0.4142135623730955
 10
-18.78352943565954
 20
-133.1191708288367
 10
-31.78352943565954
 20
-133.1191708288367
 42
-0.4142135623730951
 10
-32.28352943565949
 20
-132.6191708288367
 10
-32.28352943565966
 20
-119.6191708288366
 42
-0.4142135623730951
 10
-31.78352943565954
 20
-119.1191708288366
 10
-18.78352943565954
 20
-119.1191708288366
 42
-0.4142135623730951
  0
LWPOLYLINE
  5
111
330
1F
100
AcDbEntity
  8
0
100
AcDbPolyline
 90
        8
 70
     1
 43
0.0
 10
-136.5585294356594
 20
-81.01917082883662
 10
-123.5585294356596
 20
-81.01917082883662
 42
-0.4142135623730951
 10
-123.0585294356596
 20
-81.51917082883661
 10
-123.0585294356596
 20
-94.51917082883671
 42
-0.4142135623730951
 10
-123.5585294356596
 20
-95.0191708288367
 10
-136.5585294356594
 20
-95.0191708288367
 42
-0.4142135623730951
 10
-137.0585294356594
 20
-94.51917082883671
 10
-137.0585294356594
 20
-81.51917082883661
 42
-0.4142135623730951
  0
LWPOLYLINE
  5
112
330
1F
100
AcDbEntity
  8
0
100
AcDbPolyline
 90
        8
 70
     1
 43
0.0
 10
-37.33352943565956
 20
-100.5691708288366
 10
-37.33352943565956
 20
-113.5691708288367
 42
-0.4142135623730951
 10
-37.83352943565956
 20
-114.0691708288367
 10
-50.83352943565955
 20
-114.0691708288367
 42
-0.4142135623730951
 10
-51.33352943565956
 20
-113.5691708288367
 10
-51.3335294356595
 20
-100.5691708288366
 42
-0.4142135623730951
 10
-50.83352943565955
 20
-100.0691708288366
 10
-37.83352943565956
 20
-100.0691708288366
 42
-0.4142135623730951
  0
LWPOLYLINE
  5
113
330
1F
100
AcDbEntity
  8
0
100
AcDbPolyline
 90
        8
 70
     1
 43
0.0
 10
-108.7710294356595
 20
-62.46917082883673
 10
-108.7710294356595
 20
-75.46917082883664
 42
-0.4142135623730951
 10
-109.2710294356595
 20
-75.96917082883663
 10
-122.2710294356595
 20
-75.96917082883663
 42
-0.4142135623730951
 10
-122.7710294356595
 20
-75.46917082883664
 10
-122.7710294356595
 20
-62.46917082883673
 42
-0.4142135623730951
 10
-122.2710294356595
 20
-61.96917082883672
 10
-109.2710294356595
 20
-61.96917082883672
 42
-0.4142135623730951
  0
LWPOLYLINE
  5
114
330
1F
100
AcDbEntity
  8
0
100
AcDbPolyline
 90
        8
 70
     1
 43
0.0
 10
-260.3835294356595
 20
-100.0691708288366
 10
-247.3835294356595
 20
-100.0691708288366
 42
-0.4142135623730951
 10
-246.8835294356595
 20
-100.5691708288366
 10
-246.8835294356595
 20
-113.5691708288367
 42
-0.4142135623730951
 10
-247.3835294356595
 20
-114.0691708288367
 10
-260.3835294356595
 20
-114.0691708288367
 42
-0.4142135623730951
 10
-260.8835294356595
 20
-113.5691708288367
 10
-260.8835294356595
 20
-100.5691708288366
 42
-0.4142135623730951
  0
LWPOLYLINE
  5
115
330
1F
100
AcDbEntity
  8
0
100
AcDbPolyline
 90
        8
 70
     1
 43
0.0
 10
-50.83352943565955
 20
-119.1191708288366
 10
-37.83352943565956
 20
-119.1191708288366
 42
-0.4142135623730951
 10
-37.33352943565961
 20
-119.6191708288366
 10
-37.33352943565956
 20
-132.6191708288367
 42
-0.4142135623730955
 10
-37.83352943565956
 20
-133.1191708288367
 10
-50.83352943565955
 20
-133.1191708288367
 42
-0.4142135623730951
 10
-51.33352943565956
 20
-132.6191708288367
 10
-51.33352943565956
 20
-119.6191708288366
 42
-0.4142135623730951
  0
LWPOLYLINE
  5
116
330
1F
100
AcDbEntity
  8
0
100
AcDbPolyline
 90
        8
 70
     1
 43
0.0
 10
-146.0835294356595
 20
-100.0691708288366
 10
-133.0835294356595
 20
-100.0691708288366
 42
-0.4142135623730951
 10
-132.5835294356595
 20
-100.5691708288366
 10
-132.5835294356595
 20
-113.5691708288367
 42
-0.4142135623730951
 10
-133.0835294356595
 20
-114.0691708288367
 10
-146.0835294356595
 20
-114.0691708288367
 42
-0.4142135623730951
 10
-146.5835294356594
 20
-113.5691708288367
 10
-146.5835294356595
 20
-100.5691708288366
 42
-0.4142135623730951
  0
LWPOLYLINE
  5
117
330
1F
100
AcDbEntity
  8
0
100
AcDbPolyline
 90
        8
 70
     1
 43
0.0
 10
-269.9085294356597
 20
-81.01917082883671
 10
-256.9085294356596
 20
-81.01917082883659
 42
-0.4142135623730951
 10
-256.4085294356596
 20
-81.5191708288366
 10
-256.4085294356596
 20
-94.51917082883671
 42
-0.4142135623730951
 10
-256.9085294356596
 20
-95.0191708288367
 10
-269.9085294356597
 20
-95.0191708288367
 42
-0.4142135623730951
 10
-270.4085294356596
 20
-94.51917082883671
 10
-270.4085294356596
 20
-81.5191708288366
 42
-0.4142135623730951
  0
LWPOLYLINE
  5
118
330
1F
100
AcDbEntity
  8
0
100
AcDbPolyline
 90
        8
 70
     1
 43
0.0
 10
-146.0835294356595
 20
-119.1191708288366
 10
-130.7022794356595
 20
-119.1191708288366
 42
-0.4142135623730951
 10
-130.2022794356595
 20
-119.6191708288366
 10
-130.2022794356595
 20
-132.6191708288366
 42
-0.4142135623730955
 10
-130.7022794356595
 20
-133.1191708288367
 10
-146.0835294356595
 20
-133.1191708288367
 42
-0.4142135623730951
 10
-146.5835294356595
 20
-132.6191708288366
 10
-146.5835294356595
 20
-119.6191708288366
 42
-0.4142135623730951
  0
LWPOLYLINE
  5
119
330
1F
100
AcDbEntity
  8
0
100
AcDbPolyline
 90
        8
 70
     1
 43
0.0
 10
-141.3210294356595
 20
-61.96917082883672
 10
-128.3210294356595
 20
-61.96917082883672
 42
-0.4142135623730951
 10
-127.8210294356595
 20
-62.46917082883673
 10
-127.8210294356595
 20
-75.46917082883664
 42
-0.4142135623730951
 10
-128.3210294356595
 20
-75.96917082883663
 10
-141.3210294356595
 20
-75.96917082883663
 42
-0.4142135623730951
 10
-141.8210294356595
 20
-75.46917082883664
 10
-141.8210294356595
 20
-62.46917082883673
 42
-0.4142135623730951
  0
LWPOLYLINE
  5
120
330
1F
100
AcDbEntity
  8
0
100
AcDbPolyline
 90
        8
 70
     1
 43
0.0
 10
-203.2335294356595
 20
-100.0691708288366
 10
-190.2335294356595
 20
-100.0691708288366
 42
-0.4142135623730951
 10
-189.7335294356595
 20
-100.5691708288366
 10
-189.7335294356595
 20
-113.5691708288367
 42
-0.4142135623730951
 10
-190.2335294356595
 20
-114.0691708288367
 10
-203.2335294356595
 20
-114.0691708288367
 42
-0.4142135623730951
 10
-203.7335294356595
 20
-113.5691708288367
 10
-203.7335294356595
 20
-100.5691708288366
 42
-0.4142135623730951
  0
LWPOLYLINE
  5
121
330
1F
100
AcDbEntity
  8
0
100
AcDbPolyline
 90
        8
 70
     1
 43
0.0
 10
-241.3335294356595
 20
-100.0691708288366
 10
-228.3335294356596
 20
-100.0691708288366
 42
-0.4142135623730951
 10
-227.8335294356596
 20
-100.5691708288366
 10
-227.8335294356596
 20
-113.5691708288367
 42
-0.4142135623730951
 10
-228.3335294356596
 20
-114.0691708288367
 10
-241.3335294356595
 20
-114.0691708288367
 42
-0.4142135623730951
 10
-241.8335294356595
 20
-113.5691708288367
 10
-241.8335294356595
 20
-100.5691708288366
 42
-0.4142135623730951
  0
LWPOLYLINE
  5
122
330
1F
100
AcDbEntity
  8
0
100
AcDbPolyline
 90
        8
 70
     1
 43
0.0
 10
-217.5210294356595
 20
-61.96917082883669
 10
-204.5210294356595
 20
-61.96917082883669
 42
-0.4142135623730951
 10
-204.0210294356596
 20
-62.46917082883669
 10
-204.0210294356596
 20
-75.46917082883661
 42
-0.4142135623730951
 10
-204.5210294356595
 20
-75.96917082883661
 10
-217.5210294356595
 20
-75.96917082883661
 42
-0.4142135623730951
 10
-218.0210294356596
 20
-75.46917082883661
 10
-218.0210294356596
 20
-62.46917082883669
 42
-0.4142135623730951
  0
LWPOLYLINE
  5
123
330
1F
100
AcDbEntity
  8
0
100
AcDbPolyline
 90
        8
 70
     1
 43
0.0
 10
-50.83352943565955
 20
-61.96917082883675
 10
-37.83352943565956
 20
-61.96917082883675
 42
-0.4142135623730951
 10
-37.33352943565961
 20
-62.46917082883675
 10
-37.33352943565956
 20
-75.46917082883664
 42
-0.4142135623730951
 10
-37.83352943565956
 20
-75.96917082883667
 10
-50.83352943565955
 20
-75.96917082883663
 42
-0.4142135623730951
 10
-51.33352943565956
 20
-75.46917082883664
 10
-51.33352943565956
 20
-62.46917082883675
 42
-0.4142135623730951
  0
LWPOLYLINE
  5
124
330
1F
100
AcDbEntity
  8
0
100
AcDbPolyline
 90
        8
 70
     1
 43
0.0
 10
-288.9585294356597
 20
-81.01917082883659
 10
-275.9585294356597
 20
-81.01917082883659
 42
-0.4142135623730951
 10
-275.4585294356597
 20
-81.5191708288366
 10
-275.4585294356597
 20
-94.51917082883671
 42
-0.4142135623730951
 10
-275.9585294356597
 20
-95.0191708288367
 10
-288.9585294356597
 20
-95.0191708288367
 42
-0.4142135623730951
 10
-289.4585294356597
 20
-94.51917082883671
 10
-289.4585294356597
 20
-81.5191708288366
 42
-0.4142135623730951
  0
LWPOLYLINE
  5
125
330
1F
100
AcDbEntity
  8
0
100
AcDbPolyline
 90
        8
 70
     1
 43
0.0
 10
-334.2022794356596
 20
-119.1191708288366
 10
-318.8210294356596
 20
-119.1191708288366
 42
-0.4142135623730951
 10
-318.3210294356596
 20
-119.6191708288366
 10
-318.3210294356596
 20
-132.6191708288366
 42
-0.4142135623731073
 10
-318.8210294356596
 20
-133.1191708288367
 10
-334.2022794356596
 20
-133.1191708288367
 42
-0.4142135623731069
 10
-334.7022794356596
 20
-132.6191708288366
 10
-334.7022794356596
 20
-119.6191708288366
 42
-0.4142135623730951
  0
LWPOLYLINE
  5
126
330
1F
100
AcDbEntity
  8
0
100
AcDbPolyline
 90
        8
 70
     1
 43
0.0
 10
-360.3960294356597
 20
-42.91917082883663
 10
-347.3960294356597
 20
-42.91917082883657
 42
-0.4142135623730951
 10
-346.8960294356597
 20
-43.41917082883663
 10
-346.8960294356597
 20
-56.4191708288366
 42
-0.4142135623730951
 10
-347.3960294356597
 20
-56.9191708288366
 10
-360.3960294356597
 20
-56.9191708288366
 42
-0.4142135623730951
 10
-360.8960294356597
 20
-56.4191708288366
 10
-360.8960294356597
 20
-43.41917082883663
 42
-0.4142135623730951
  0
LWPOLYLINE
  5
127
330
1F
100
AcDbEntity
  8
0
100
AcDbPolyline
 90
        8
 70
     1
 43
0.0
 10
-80.19602943565956
 20
-19.60667082883731
 10
-80.19602943565956
 20
-32.60667082883731
 42
-0.4142135623730951
 10
-80.69602943565957
 20
-33.10667082883731
 10
-93.69602943565956
 20
-33.10667082883731
 42
-0.4142135623730951
 10
-94.19602943565957
 20
-32.60667082883731
 10
-94.19602943565957
 20
-19.60667082883731
 42
-0.4142135623730951
 10
-93.69602943565956
 20
-19.10667082883731
 10
-80.69602943565957
 20
-19.10667082883731
 42
-0.4142135623730951
  0
LWPOLYLINE
  5
128
330
1F
100
AcDbEntity
  8
0
100
AcDbPolyline
 90
        8
 70
     1
 43
0.0
 10
-188.9460294356595
 20
-42.91917082883663
 10
-175.9460294356595
 20
-42.91917082883659
 42
-0.4142135623730951
 10
-175.4460294356595
 20
-43.41917082883663
 10
-175.4460294356595
 20
-56.41917082883662
 42
-0.4142135623730951
 10
-175.9460294356595
 20
-56.91917082883662
 10
-188.9460294356595
 20
-56.91917082883662
 42
-0.4142135623730951
 10
-189.4460294356595
 20
-56.41917082883662
 10
-189.4460294356595
 20
-43.41917082883663
 42
-0.4142135623730951
  0
LWPOLYLINE
  5
129
330
1F
100
AcDbEntity
  8
0
100
AcDbPolyline
 90
        8
 70
     1
 43
0.0
 10
-236.5710294356595
 20
-19.10667082883731
 10
-223.5710294356595
 20
-19.10667082883731
 42
-0.4142135623730951
 10
-223.0710294356595
 20
-19.60667082883731
 10
-223.0710294356595
 20
-32.60667082883731
 42
-0.4142135623730951
 10
-223.5710294356595
 20
-33.10667082883731
 10
-236.5710294356595
 20
-33.10667082883731
 42
-0.4142135623730951
 10
-237.0710294356595
 20
-32.60667082883731
 10
-237.0710294356595
 20
-19.60667082883731
 42
-0.4142135623730951
  0
LWPOLYLINE
  5
130
330
1F
100
AcDbEntity
  8
0
100
AcDbPolyline
 90
        8
 70
     1
 43
0.0
 10
-322.2960294356596
 20
-19.10667082883728
 42
0.4142135623730951
 10
-322.7960294356596
 20
-19.60667082883728
 10
-322.7960294356596
 20
-32.60667082883731
 42
0.4142135623730951
 10
-322.2960294356596
 20
-33.10667082883728
 10
-309.2960294356597
 20
-33.10667082883731
 42
0.4142135623730951
 10
-308.7960294356597
 20
-32.60667082883731
 10
-308.7960294356597
 20
-19.60667082883731
 42
0.4142135623730951
 10
-309.2960294356597
 20
-19.10667082883731
  0
LWPOLYLINE
  5
131
330
1F
100
AcDbEntity
  8
0
100
AcDbPolyline
 90
        8
 70
     1
 43
0.0
 10
-169.8960294356595
 20
-42.91917082883663
 10
-156.8960294356595
 20
-42.91917082883663
 42
-0.4142135623730951
 10
-156.3960294356595
 20
-43.41917082883663
 10
-156.3960294356595
 20
-56.41917082883662
 42
-0.4142135623730951
 10
-156.8960294356595
 20
-56.91917082883666
 10
-169.8960294356595
 20
-56.91917082883662
 42
-0.4142135623730951
 10
-170.3960294356595
 20
-56.41917082883662
 10
-170.3960294356594
 20
-43.41917082883663
 42
-0.4142135623730951
  0
LWPOLYLINE
  5
132
330
1F
100
AcDbEntity
  8
0
100
AcDbPolyline
 90
        8
 70
     1
 43
0.0
 10
-232.5960294356596
 20
-43.41917082883663
 10
-232.5960294356596
 20
-56.41917082883662
 42
-0.4142135623730951
 10
-233.0960294356596
 20
-56.91917082883662
 10
-246.0960294356596
 20
-56.91917082883662
 42
-0.4142135623730951
 10
-246.5960294356596
 20
-56.41917082883662
 10
-246.5960294356596
 20
-43.41917082883663
 42
-0.4142135623730951
 10
-246.0960294356596
 20
-42.91917082883663
 10
-233.0960294356596
 20
-42.91917082883657
 42
-0.4142135623730951
  0
LWPOLYLINE
  5
133
330
1F
100
AcDbEntity
  8
0
100
AcDbPolyline
 90
        8
 70
     1
 43
0.0
 10
-265.1460294356596
 20
-42.91917082883663
 10
-252.1460294356596
 20
-42.91917082883657
 42
-0.4142135623730951
 10
-251.6460294356595
 20
-43.41917082883663
 10
-251.6460294356595
 20
-56.41917082883662
 42
-0.4142135623730951
 10
-252.1460294356596
 20
-56.91917082883662
 10
-265.1460294356596
 20
-56.91917082883662
 42
-0.4142135623730951
 10
-265.6460294356596
 20
-56.41917082883662
 10
-265.6460294356596
 20
-43.41917082883663
 42
-0.4142135623730951
  0
LWPOLYLINE
  5
134
330
1F
100
AcDbEntity
  8
0
100
AcDbPolyline
 90
        8
 70
     1
 43
0.0
 10
-69.88352943565956
 20
-19.10667082883731
 10
-56.88352943565956
 20
-19.10667082883731
 42
-0.4142135623730951
 10
-56.38352943565945
 20
-19.60667082883731
 10
-56.38352943565945
 20
-32.60667082883734
 42
-0.4142135623730951
 10
-56.88352943565956
 20
-33.10667082883734
 10
-69.88352943565956
 20
-33.10667082883734
 42
-0.4142135623730951
 10
-70.38352943565957
 20
-32.60667082883734
 10
-70.38352943565957
 20
-19.60667082883731
 42
-0.4142135623730951
  0
LWPOLYLINE
  5
135
330
1F
100
AcDbEntity
  8
0
100
AcDbPolyline
 90
        8
 70
     1
 43
0.0
 10
-69.88352943565956
 20
-42.91917082883665
 10
-56.88352943565956
 20
-42.91917082883663
 42
-0.4142135623730951
 10
-56.38352943565945
 20
-43.41917082883665
 10
-56.38352943565945
 20
-56.41917082883662
 42
-0.4142135623730951
 10
-56.88352943565956
 20
-56.91917082883668
 10
-69.88352943565956
 20
-56.91917082883662
 42
-0.4142135623730951
 10
-70.38352943565957
 20
-56.41917082883662
 10
-70.38352943565945
 20
-43.41917082883665
 42
-0.4142135623730951
  0
LWPOLYLINE
  5
136
330
1F
100
AcDbEntity
  8
0
100
AcDbPolyline
 90
        8
 70
     1
 43
0.0
 10
-217.5210294356595
 20
-19.10667082883731
 10
-204.5210294356595
 20
-19.10667082883731
 42
-0.4142135623730951
 10
-204.0210294356596
 20
-19.60667082883731
 10
-204.0210294356596
 20
-32.60667082883731
 42
-0.4142135623730951
 10
-204.5210294356595
 20
-33.10667082883731
 10
-217.5210294356595
 20
-33.10667082883731
 42
-0.4142135623730951
 10
-218.0210294356596
 20
-32.60667082883731
 10
-218.0210294356596
 20
-19.60667082883731
 42
-0.4142135623730951
  0
LWPOLYLINE
  5
137
330
1F
100
AcDbEntity
  8
0
100
AcDbPolyline
 90
        8
 70
     1
 43
0.0
 10
-303.2460294356597
 20
-42.91917082883663
 42
0.4142135623730951
 10
-303.7460294356596
 20
-43.41917082883663
 10
-303.7460294356597
 20
-56.41917082883662
 42
0.4142135623730951
 10
-303.2460294356597
 20
-56.91917082883662
 10
-290.2460294356597
 20
-56.91917082883662
 42
0.4142135623730951
 10
-289.7460294356596
 20
-56.41917082883662
 10
-289.7460294356597
 20
-43.41917082883663
 42
0.4142135623730951
 10
-290.2460294356597
 20
-42.91917082883663
  0
LWPOLYLINE
  5
138
330
1F
100
AcDbEntity
  8
0
100
AcDbPolyline
 90
        8
 70
     1
 43
0.0
 10
-131.7960294356595
 20
-42.91917082883663
 10
-118.7960294356595
 20
-42.91917082883659
 42
-0.4142135623730951
 10
-118.2960294356595
 20
-43.41917082883663
 10
-118.2960294356595
 20
-56.41917082883662
 42
-0.4142135623730951
 10
-118.7960294356595
 20
-56.91917082883662
 10
-131.7960294356595
 20
-56.91917082883662
 42
-0.4142135623730951
 10
-132.2960294356595
 20
-56.41917082883662
 10
-132.2960294356595
 20
-43.41917082883663
 42
-0.4142135623730951
  0
LWPOLYLINE
  5
139
330
1F
100
AcDbEntity
  8
0
100
AcDbPolyline
 90
        8
 70
     1
 43
0.0
 10
-198.4710294356595
 20
-19.10667082883731
 10
-185.4710294356596
 20
-19.10667082883731
 42
-0.4142135623730951
 10
-184.9710294356596
 20
-19.60667082883731
 10
-184.9710294356596
 20
-32.60667082883731
 42
-0.4142135623730951
 10
-185.4710294356596
 20
-33.10667082883731
 10
-198.4710294356595
 20
-33.10667082883731
 42
-0.4142135623730951
 10
-198.9710294356596
 20
-32.60667082883731
 10
-198.9710294356596
 20
-19.60667082883731
 42
-0.4142135623730951
  0
LWPOLYLINE
  5
140
330
1F
100
AcDbEntity
  8
0
100
AcDbPolyline
 90
        8
 70
     1
 43
0.0
 10
-284.1960294356596
 20
-19.10667082883731
 10
-271.1960294356596
 20
-19.10667082883731
 42
-0.4142135623730951
 10
-270.6960294356596
 20
-19.60667082883731
 10
-270.6960294356596
 20
-32.60667082883731
 42
-0.4142135623730951
 10
-271.1960294356596
 20
-33.10667082883731
 10
-284.1960294356596
 20
-33.10667082883731
 42
-0.4142135623730951
 10
-284.6960294356596
 20
-32.60667082883731
 10
-284.6960294356596
 20
-19.60667082883731
 42
-0.4142135623730951
  0
LWPOLYLINE
  5
141
330
1F
100
AcDbEntity
  8
0
100
AcDbPolyline
 90
        8
 70
     1
 43
0.0
 10
-131.7960294356595
 20
-19.10667082883731
 10
-118.7960294356595
 20
-19.10667082883731
 42
-0.4142135623730951
 10
-118.2960294356595
 20
-19.60667082883731
 10
-118.2960294356595
 20
-32.60667082883731
 42
-0.4142135623730951
 10
-118.7960294356595
 20
-33.10667082883731
 10
-131.7960294356595
 20
-33.10667082883731
 42
-0.4142135623730951
 10
-132.2960294356595
 20
-32.60667082883731
 10
-132.2960294356595
 20
-19.60667082883731
 42
-0.4142135623730951
  0
LWPOLYLINE
  5
142
330
1F
100
AcDbEntity
  8
0
100
AcDbPolyline
 90
        8
 70
     1
 43
0.0
 10
-50.83352943565955
 20
-42.91917082883665
 10
-37.83352943565956
 20
-42.91917082883665
 42
-0.4142135623730951
 10
-37.33352943565961
 20
-43.41917082883665
 10
-37.33352943565956
 20
-56.41917082883662
 42
-0.4142135623730951
 10
-37.83352943565956
 20
-56.91917082883668
 10
-50.83352943565955
 20
-56.91917082883662
 42
-0.4142135623730951
 10
-51.33352943565956
 20
-56.41917082883662
 10
-51.3335294356595
 20
-43.41917082883665
 42
-0.4142135623730951
  0
LWPOLYLINE
  5
143
330
1F
100
AcDbEntity
  8
0
100
AcDbPolyline
 90
        8
 70
     1
 43
0.0
 10
-322.2960294356596
 20
-42.91917082883663
 10
-309.2960294356597
 20
-42.91917082883657
 42
-0.4142135623730951
 10
-308.7960294356597
 20
-43.41917082883663
 10
-308.7960294356597
 20
-56.41917082883662
 42
-0.4142135623730951
 10
-309.2960294356597
 20
-56.91917082883662
 10
-322.2960294356596
 20
-56.9191708288366
 42
-0.4142135623730951
 10
-322.7960294356596
 20
-56.4191708288366
 10
-322.7960294356596
 20
-43.41917082883663
 42
-0.4142135623730951
  0
LWPOLYLINE
  5
144
330
1F
100
AcDbEntity
  8
0
100
AcDbPolyline
 90
        8
 70
     1
 43
0.0
 10
-227.0460294356595
 20
-42.91917082883663
 10
-214.0460294356596
 20
-42.91917082883657
 42
-0.4142135623730951
 10
-213.5460294356595
 20
-43.41917082883663
 10
-213.5460294356595
 20
-56.41917082883662
 42
-0.4142135623730951
 10
-214.0460294356596
 20
-56.91917082883662
 10
-227.0460294356595
 20
-56.91917082883662
 42
-0.4142135623730951
 10
-227.5460294356595
 20
-56.41917082883662
 10
-227.5460294356595
 20
-43.41917082883663
 42
-0.4142135623730951
  0
LWPOLYLINE
  5
145
330
1F
100
AcDbEntity
  8
0
100
AcDbPolyline
 90
        8
 70
     1
 43
0.0
 10
-312.7710294356597
 20
-61.96917082883669
 10
-299.7710294356597
 20
-61.96917082883669
 42
-0.4142135623730951
 10
-299.2710294356596
 20
-62.46917082883669
 10
-299.2710294356596
 20
-75.46917082883661
 42
-0.4142135623730951
 10
-299.7710294356597
 20
-75.96917082883661
 10
-312.7710294356597
 20
-75.96917082883658
 42
-0.4142135623730951
 10
-313.2710294356597
 20
-75.46917082883661
 10
-313.2710294356597
 20
-62.46917082883669
 42
-0.4142135623730951
  0
LWPOLYLINE
  5
146
330
1F
100
AcDbEntity
  8
0
100
AcDbPolyline
 90
        8
 70
     1
 43
0.0
 10
-274.6710294356597
 20
-61.96917082883669
 10
-261.6710294356595
 20
-61.96917082883669
 42
-0.4142135623730951
 10
-261.1710294356595
 20
-62.46917082883669
 10
-261.1710294356595
 20
-75.46917082883661
 42
-0.4142135623730951
 10
-261.6710294356595
 20
-75.96917082883661
 10
-274.6710294356597
 20
-75.96917082883661
 42
-0.4142135623730951
 10
-275.1710294356596
 20
-75.46917082883661
 10
-275.1710294356596
 20
-62.46917082883669
 42
-0.4142135623730951
  0
LWPOLYLINE
  5
147
330
1F
100
AcDbEntity
  8
0
100
AcDbPolyline
 90
        8
 70
     1
 43
0.0
 10
-150.8460294356596
 20
-42.91917082883663
 10
-137.8460294356595
 20
-42.91917082883659
 42
-0.4142135623730951
 10
-137.3460294356595
 20
-43.41917082883663
 10
-137.3460294356595
 20
-56.41917082883662
 42
-0.4142135623730951
 10
-137.8460294356595
 20
-56.91917082883666
 10
-150.8460294356596
 20
-56.91917082883662
 42
-0.4142135623730951
 10
-151.3460294356596
 20
-56.41917082883662
 10
-151.3460294356595
 20
-43.41917082883663
 42
-0.4142135623730951
  0
LWPOLYLINE
  5
148
330
1F
100
AcDbEntity
  8
0
100
AcDbPolyline
 90
        8
 70
     1
 43
0.0
 10
-207.9960294356595
 20
-42.91917082883663
 10
-194.9960294356596
 20
-42.91917082883657
 42
-0.4142135623730951
 10
-194.4960294356596
 20
-43.41917082883663
 10
-194.4960294356596
 20
-56.41917082883662
 42
-0.4142135623730951
 10
-194.9960294356596
 20
-56.91917082883662
 10
-207.9960294356595
 20
-56.91917082883662
 42
-0.4142135623730951
 10
-208.4960294356595
 20
-56.41917082883662
 10
-208.4960294356595
 20
-43.41917082883663
 42
-0.4142135623730951
  0
LWPOLYLINE
  5
149
330
1F
100
AcDbEntity
  8
0
100
AcDbPolyline
 90
        8
 70
     1
 43
0.0
 10
-265.1460294356596
 20
-19.10667082883731
 42
0.4142135623730951
 10
-265.6460294356596
 20
-19.60667082883731
 10
-265.6460294356596
 20
-32.60667082883731
 42
0.4142135623730951
 10
-265.1460294356596
 20
-33.10667082883731
 10
-252.1460294356596
 20
-33.10667082883731
 42
0.4142135623730951
 10
-251.6460294356595
 20
-32.60667082883731
 10
-251.6460294356595
 20
-19.60667082883731
 42
0.4142135623730951
 10
-252.1460294356596
 20
-19.10667082883731
  0
LWPOLYLINE
  5
150
330
1F
100
AcDbEntity
  8
0
100
AcDbPolyline
 90
        8
 70
     1
 43
0.0
 10
-255.6210294356595
 20
-61.96917082883669
 10
-242.6210294356596
 20
-61.96917082883669
 42
-0.4142135623730951
 10
-242.1210294356596
 20
-62.46917082883669
 10
-242.1210294356594
 20
-75.46917082883661
 42
-0.4142135623730951
 10
-242.6210294356596
 20
-75.96917082883663
 10
-255.6210294356595
 20
-75.96917082883661
 42
-0.4142135623730951
 10
-256.1210294356596
 20
-75.46917082883661
 10
-256.1210294356595
 20
-62.46917082883669
 42
-0.4142135623730951
  0
LWPOLYLINE
  5
151
330
1F
100
AcDbEntity
  8
0
100
AcDbPolyline
 90
        8
 70
     1
 43
0.0
 10
-50.83352943565955
 20
-19.10667082883731
 10
-37.83352943565956
 20
-19.10667082883733
 42
-0.4142135623730951
 10
-37.33352943565961
 20
-19.60667082883731
 10
-37.33352943565956
 20
-32.60667082883734
 42
-0.4142135623730951
 10
-37.83352943565956
 20
-33.10667082883734
 10
-50.83352943565955
 20
-33.10667082883734
 42
-0.4142135623730951
 10
-51.33352943565956
 20
-32.60667082883734
 10
-51.33352943565956
 20
-19.60667082883731
 42
-0.4142135623730951
  0
LWPOLYLINE
  5
152
330
1F
100
AcDbEntity
  8
0
100
AcDbPolyline
 90
        8
 70
     1
 43
0.0
 10
-31.78352943565954
 20
-42.91917082883665
 10
-18.78352943565954
 20
-42.91917082883665
 42
-0.4142135623730951
 10
-18.28352943565966
 20
-43.41917082883665
 10
-18.28352943565966
 20
-56.41917082883662
 42
-0.4142135623730951
 10
-18.78352943565954
 20
-56.91917082883662
 10
-31.78352943565954
 20
-56.91917082883662
 42
-0.4142135623730951
 10
-32.28352943565949
 20
-56.41917082883662
 10
-32.28352943565949
 20
-43.41917082883665
 42
-0.4142135623730951
  0
LWPOLYLINE
  5
153
330
1F
100
AcDbEntity
  8
0
100
AcDbPolyline
 90
        8
 70
     1
 43
0.0
 10
-112.7460294356596
 20
-19.10667082883731
 10
-99.74602943565958
 20
-19.10667082883731
 42
-0.4142135623730951
 10
-99.24602943565957
 20
-19.60667082883731
 10
-99.24602943565957
 20
-32.60667082883731
 42
-0.4142135623730951
 10
-99.74602943565958
 20
-33.10667082883731
 10
-112.7460294356596
 20
-33.10667082883731
 42
-0.4142135623730951
 10
-113.2460294356596
 20
-32.60667082883731
 10
-113.2460294356596
 20
-19.60667082883731
 42
-0.4142135623730951
  0
LWPOLYLINE
  5
154
330
1F
100
AcDbEntity
  8
0
100
AcDbPolyline
 90
        8
 70
     1
 43
0.0
 10
-31.78352943565954
 20
-19.10667082883731
 42
0.4142135623730951
 10
-32.28352943565949
 20
-19.60667082883731
 10
-32.28352943565949
 20
-32.60667082883734
 42
0.4142135623730951
 10
-31.78352943565954
 20
-33.10667082883731
 10
-18.78352943565954
 20
-33.10667082883734
 42
0.4142135623730951
 10
-18.28352943565949
 20
-32.60667082883734
 10
-18.28352943565966
 20
-19.60667082883731
 42
0.4142135623730951
 10
-18.78352943565954
 20
-19.10667082883731
  0
LWPOLYLINE
  5
155
330
1F
100
AcDbEntity
  8
0
100
AcDbPolyline
 90
        8
 70
     1
 43
0.0
 10
-165.9210294356595
 20
-19.60667082883731
 10
-165.9210294356595
 20
-32.60667082883731
 42
-0.4142135623730951
 10
-166.4210294356595
 20
-33.10667082883731
 10
-179.4210294356595
 20
-33.10667082883731
 42
-0.4142135623730951
 10
-179.9210294356595
 20
-32.60667082883731
 10
-179.9210294356595
 20
-19.60667082883731
 42
-0.4142135623730951
 10
-179.4210294356595
 20
-19.10667082883731
 10
-166.4210294356595
 20
-19.10667082883731
 42
-0.4142135623730951
  0
LWPOLYLINE
  5
156
330
1F
100
AcDbEntity
  8
0
100
AcDbPolyline
 90
        8
 70
     1
 43
0.0
 10
-150.8460294356596
 20
-19.10667082883731
 10
-137.8460294356595
 20
-19.10667082883731
 42
-0.4142135623730951
 10
-137.3460294356595
 20
-19.60667082883731
 10
-137.3460294356595
 20
-32.60667082883731
 42
-0.4142135623730951
 10
-137.8460294356595
 20
-33.10667082883731
 10
-150.8460294356596
 20
-33.10667082883731
 42
-0.4142135623730951
 10
-151.3460294356596
 20
-32.60667082883731
 10
-151.3460294356596
 20
-19.60667082883731
 42
-0.4142135623730951
  0
LWPOLYLINE
  5
157
330
1F
100
AcDbEntity
  8
0
100
AcDbPolyline
 90
        8
 70
     1
 43
0.0
 10
-341.3460294356596
 20
-42.91917082883663
 10
-328.3460294356596
 20
-42.91917082883657
 42
-0.4142135623730951
 10
-327.8460294356596
 20
-43.41917082883663
 10
-327.8460294356596
 20
-56.4191708288366
 42
-0.4142135623730951
 10
-328.3460294356596
 20
-56.9191708288366
 10
-341.3460294356596
 20
-56.9191708288366
 42
-0.4142135623730951
 10
-341.8460294356596
 20
-56.4191708288366
 10
-341.8460294356596
 20
-43.41917082883663
 42
-0.4142135623730951
  0
LWPOLYLINE
  5
158
330
1F
100
AcDbEntity
  8
0
100
AcDbPolyline
 90
        8
 70
     1
 43
0.0
 10
-331.8210294356596
 20
-61.96917082883669
 10
-318.8210294356596
 20
-61.96917082883669
 42
-0.4142135623730951
 10
-318.3210294356596
 20
-62.46917082883669
 10
-318.3210294356596
 20
-75.46917082883661
 42
-0.4142135623730951
 10
-318.8210294356596
 20
-75.96917082883661
 10
-331.8210294356596
 20
-75.96917082883658
 42
-0.4142135623730951
 10
-332.3210294356596
 20
-75.46917082883661
 10
-332.3210294356596
 20
-62.46917082883669
 42
-0.4142135623730951
  0
LWPOLYLINE
  5
159
330
1F
100
AcDbEntity
  8
0
100
AcDbPolyline
 90
        8
 70
     1
 43
0.0
 10
-303.2460294356597
 20
-19.10667082883731
 10
-290.2460294356597
 20
-19.10667082883731
 42
-0.4142135623730951
 10
-289.7460294356597
 20
-19.60667082883731
 10
-289.7460294356596
 20
-32.60667082883731
 42
-0.4142135623730951
 10
-290.2460294356597
 20
-33.10667082883731
 10
-303.2460294356597
 20
-33.10667082883731
 42
-0.4142135623730951
 10
-303.7460294356597
 20
-32.60667082883731
 10
-303.7460294356597
 20
-19.60667082883731
 42
-0.4142135623730951
  0
LWPOLYLINE
  5
160
330
1F
100
AcDbEntity
  8
0
100
AcDbPolyline
 90
        8
 70
     1
 43
0.0
 10
-355.6335294356596
 20
-61.96917082883669
 10
-342.6335294356596
 20
-61.96917082883669
 42
-0.4142135623730951
 10
-342.1335294356596
 20
-62.46917082883669
 10
-342.1335294356596
 20
-75.46917082883658
 42
-0.4142135623730951
 10
-342.6335294356596
 20
-75.96917082883658
 10
-355.6335294356596
 20
-75.96917082883658
 42
-0.4142135623730951
 10
-356.1335294356596
 20
-75.46917082883658
 10
-356.1335294356596
 20
-62.46917082883669
 42
-0.4142135623730951
  0
LWPOLYLINE
  5
161
330
1F
100
AcDbEntity
  8
0
100
AcDbPolyline
 90
        8
 70
     1
 43
0.0
 10
-270.6960294356596
 20
-43.41917082883663
 10
-270.6960294356596
 20
-56.41917082883662
 42
-0.4142135623730951
 10
-271.1960294356596
 20
-56.91917082883662
 10
-284.1960294356596
 20
-56.91917082883662
 42
-0.4142135623730951
 10
-284.6960294356596
 20
-56.41917082883662
 10
-284.6960294356596
 20
-43.41917082883663
 42
-0.4142135623730951
 10
-284.1960294356596
 20
-42.91917082883663
 10
-271.1960294356596
 20
-42.91917082883663
 42
-0.4142135623730951
  0
LWPOLYLINE
  5
162
330
1F
100
AcDbEntity
  8
0
100
AcDbPolyline
 90
        8
 70
     1
 43
0.0
 10
-360.3960294356597
 20
-19.10667082883728
 10
-347.3960294356597
 20
-19.10667082883728
 42
-0.4142135623730951
 10
-346.8960294356597
 20
-19.60667082883728
 10
-346.8960294356597
 20
-32.60667082883731
 42
-0.4142135623730951
 10
-347.3960294356597
 20
-33.10667082883731
 10
-360.3960294356597
 20
-33.10667082883731
 42
-0.4142135623730951
 10
-360.8960294356597
 20
-32.60667082883731
 10
-360.8960294356597
 20
-19.60667082883728
 42
-0.4142135623730951
  0
LWPOLYLINE
  5
163
330
1F
100
AcDbEntity
  8
0
100
AcDbPolyline
 90
        8
 70
     1
 43
0.0
 10
-293.7210294356596
 20
-61.96917082883669
 10
-280.7210294356596
 20
-61.96917082883669
 42
-0.4142135623730951
 10
-280.2210294356597
 20
-62.46917082883669
 10
-280.2210294356596
 20
-75.46917082883661
 42
-0.4142135623730951
 10
-280.7210294356596
 20
-75.96917082883663
 10
-293.7210294356596
 20
-75.96917082883658
 42
-0.4142135623730951
 10
-294.2210294356596
 20
-75.46917082883661
 10
-294.2210294356596
 20
-62.46917082883669
 42
-0.4142135623730951
  0
LWPOLYLINE
  5
164
330
1F
100
AcDbEntity
  8
0
100
AcDbPolyline
 90
        8
 70
     1
 43
0.0
 10
-236.5710294356595
 20
-61.96917082883669
 10
-223.5710294356595
 20
-61.96917082883669
 42
-0.4142135623730951
 10
-223.0710294356595
 20
-62.46917082883669
 10
-223.0710294356595
 20
-75.46917082883661
 42
-0.4142135623730951
 10
-223.5710294356595
 20
-75.96917082883663
 10
-236.5710294356595
 20
-75.96917082883661
 42
-0.4142135623730951
 10
-237.0710294356595
 20
-75.46917082883661
 10
-237.0710294356595
 20
-62.46917082883669
 42
-0.4142135623730951
  0
LWPOLYLINE
  5
165
330
1F
100
AcDbEntity
  8
0
100
AcDbPolyline
 90
        8
 70
     1
 43
0.0
 10
-31.78352943565954
 20
-61.96917082883675
 10
-18.78352943565954
 20
-61.96917082883675
 42
-0.4142135623730951
 10
-18.28352943565966
 20
-62.46917082883675
 10
-18.28352943565949
 20
-75.46917082883664
 42
-0.4142135623730951
 10
-18.78352943565954
 20
-75.96917082883667
 10
-31.78352943565954
 20
-75.96917082883661
 42
-0.4142135623730951
 10
-32.28352943565949
 20
-75.46917082883664
 10
-32.28352943565949
 20
-62.46917082883675
 42
-0.4142135623730951
  0
LWPOLYLINE
  5
166
330
1F
100
AcDbEntity
  8
0
100
AcDbPolyline
 90
        8
 70
     1
 43
0.0
 10
-155.6085294356595
 20
-81.01917082883662
 10
-142.6085294356595
 20
-81.01917082883662
 42
-0.4142135623730951
 10
-142.1085294356595
 20
-81.51917082883661
 10
-142.1085294356595
 20
-94.51917082883671
 42
-0.4142135623730951
 10
-142.6085294356595
 20
-95.0191708288367
 10
-155.6085294356595
 20
-95.0191708288367
 42
-0.4142135623730951
 10
-156.1085294356595
 20
-94.51917082883671
 10
-156.1085294356595
 20
-81.51917082883661
 42
-0.4142135623730951
  0
LWPOLYLINE
  5
167
330
1F
100
AcDbEntity
  8
0
100
AcDbPolyline
 90
        8
 70
     1
 43
0.0
 10
-98.45852943565956
 20
-119.1191708288366
 10
-83.07727943565954
 20
-119.1191708288366
 42
-0.4142135623730951
 10
-82.57727943565953
 20
-119.6191708288366
 10
-82.57727943565953
 20
-132.6191708288367
 42
-0.4142135623730955
 10
-83.07727943565954
 20
-133.1191708288367
 10
-98.45852943565956
 20
-133.1191708288367
 42
-0.4142135623731069
 10
-98.95852943565955
 20
-132.6191708288366
 10
-98.95852943565955
 20
-119.6191708288366
 42
-0.4142135623730951
  0
LWPOLYLINE
  5
168
330
1F
100
AcDbEntity
  8
0
100
AcDbPolyline
 90
        8
 70
     1
 43
0.0
 10
-212.7585294356595
 20
-81.01917082883662
 10
-199.7585294356595
 20
-81.01917082883662
 42
-0.4142135623730951
 10
-199.2585294356595
 20
-81.51917082883661
 10
-199.2585294356595
 20
-94.51917082883671
 42
-0.4142135623730951
 10
-199.7585294356595
 20
-95.01917082883673
 10
-212.7585294356595
 20
-95.01917082883673
 42
-0.4142135623730951
 10
-213.2585294356595
 20
-94.51917082883671
 10
-213.2585294356595
 20
-81.51917082883661
 42
-0.4142135623730951
  0
LWPOLYLINE
  5
169
330
1F
100
AcDbEntity
  8
0
100
AcDbPolyline
 90
        8
 70
     1
 43
0.0
 10
-327.0585294356597
 20
-81.01917082883659
 10
-314.0585294356597
 20
-81.01917082883659
 42
-0.4142135623730951
 10
-313.5585294356597
 20
-81.5191708288366
 10
-313.5585294356597
 20
-94.51917082883671
 42
-0.4142135623730951
 10
-314.0585294356597
 20
-95.0191708288367
 10
-327.0585294356597
 20
-95.0191708288367
 42
-0.4142135623730951
 10
-327.5585294356597
 20
-94.51917082883671
 10
-327.5585294356597
 20
-81.5191708288366
 42
-0.4142135623730951
  0
LWPOLYLINE
  5
170
330
1F
100
AcDbEntity
  8
0
100
AcDbPolyline
 90
        8
 70
     1
 43
0.0
 10
-358.0147794356597
 20
-81.01917082883671
 10
-340.2522794356596
 20
-81.01917082883659
 42
-0.4142135623730951
 10
-339.7522794356596
 20
-81.5191708288366
 10
-339.7522794356596
 20
-94.51917082883671
 42
-0.4142135623730951
 10
-340.2522794356596
 20
-95.0191708288367
 10
-358.0147794356597
 20
-95.0191708288367
 42
-0.4142135623730951
 10
-358.5147794356597
 20
-94.51917082883671
 10
-358.5147794356595
 20
-81.5191708288366
 42
-0.4142135623730951
  0
LWPOLYLINE
  5
171
330
1F
100
AcDbEntity
  8
0
100
AcDbPolyline
 90
        8
 70
     1
 43
0.0
 10
-222.2835294356596
 20
-100.0691708288366
 10
-209.2835294356596
 20
-100.0691708288366
 42
-0.4142135623730951
 10
-208.7835294356596
 20
-100.5691708288366
 10
-208.7835294356595
 20
-113.5691708288367
 42
-0.4142135623730951
 10
-209.2835294356596
 20
-114.0691708288367
 10
-222.2835294356596
 20
-114.0691708288367
 42
-0.4142135623730951
 10
-222.7835294356596
 20
-113.5691708288367
 10
-222.7835294356596
 20
-100.5691708288366
 42
-0.4142135623730951
  0
LWPOLYLINE
  5
172
330
1F
100
AcDbEntity
  8
0
100
AcDbPolyline
 90
        8
 70
     1
 43
0.0
 10
-308.0085294356596
 20
-81.01917082883659
 10
-295.0085294356597
 20
-81.01917082883659
 42
-0.4142135623730951
 10
-294.5085294356596
 20
-81.5191708288366
 10
-294.5085294356596
 20
-94.51917082883671
 42
-0.4142135623730951
 10
-295.0085294356597
 20
-95.0191708288367
 10
-308.0085294356596
 20
-95.0191708288367
 42
-0.4142135623730951
 10
-308.5085294356596
 20
-94.51917082883671
 10
-308.5085294356596
 20
-81.5191708288366
 42
-0.4142135623730951
  0
LWPOLYLINE
  5
173
330
1F
100
AcDbEntity
  8
0
100
AcDbPolyline
 90
        8
 70
     1
 43
0.0
 10
-279.4335294356597
 20
-100.0691708288366
 10
-266.4335294356596
 20
-100.0691708288366
 42
-0.4142135623730951
 10
-265.9335294356596
 20
-100.5691708288366
 10
-265.9335294356596
 20
-113.5691708288367
 42
-0.4142135623730951
 10
-266.4335294356596
 20
-114.0691708288367
 10
-279.4335294356597
 20
-114.0691708288367
 42
-0.4142135623730951
 10
-279.9335294356597
 20
-113.5691708288367
 10
-279.9335294356597
 20
-100.5691708288366
 42
-0.4142135623730951
  0
LWPOLYLINE
  5
174
330
1F
100
AcDbEntity
  8
0
100
AcDbPolyline
 90
        8
 70
     1
 43
0.0
 10
-310.3897794356596
 20
-119.1191708288366
 10
-295.0085294356597
 20
-119.1191708288366
 42
-0.4142135623730951
 10
-294.5085294356596
 20
-119.6191708288366
 10
-294.5085294356596
 20
-132.6191708288366
 42
-0.4142135623731073
 10
-295.0085294356597
 20
-133.1191708288367
 10
-310.3897794356596
 20
-133.1191708288367
 42
-0.4142135623731069
 10
-310.8897794356597
 20
-132.6191708288366
 10
-310.8897794356597
 20
-119.6191708288366
 42
-0.4142135623730951
  0
LWPOLYLINE
  5
175
330
1F
100
AcDbEntity
  8
0
100
AcDbPolyline
 90
        8
 70
     1
 43
0.0
 10
-179.4210294356595
 20
-61.96917082883672
 10
-166.4210294356595
 20
-61.96917082883675
 42
-0.4142135623730951
 10
-165.9210294356595
 20
-62.46917082883673
 10
-165.9210294356595
 20
-75.46917082883661
 42
-0.4142135623730951
 10
-166.4210294356595
 20
-75.96917082883663
 10
-179.4210294356595
 20
-75.96917082883661
 42
-0.4142135623730951
 10
-179.9210294356595
 20
-75.46917082883661
 10
-179.9210294356595
 20
-62.46917082883673
 42
-0.4142135623730951
  0
LWPOLYLINE
  5
176
330
1F
100
AcDbEntity
  8
0
100
AcDbPolyline
 90
        8
 70
     1
 43
0.0
 10
-231.8085294356596
 20
-81.01917082883671
 10
-218.8085294356595
 20
-81.01917082883662
 42
-0.4142135623730951
 10
-218.3085294356595
 20
-81.51917082883661
 10
-218.3085294356595
 20
-94.51917082883671
 42
-0.4142135623730951
 10
-218.8085294356595
 20
-95.01917082883673
 10
-231.8085294356596
 20
-95.0191708288367
 42
-0.4142135623730951
 10
-232.3085294356596
 20
-94.51917082883671
 10
-232.3085294356594
 20
-81.5191708288366
 42
-0.4142135623730951
  0
LWPOLYLINE
  5
177
330
1F
100
AcDbEntity
  8
0
100
AcDbPolyline
 90
        8
 70
     1
 43
0.0
 10
-174.6585294356596
 20
-81.01917082883662
 42
0.4142135623730951
 10
-175.1585294356596
 20
-81.51917082883661
 10
-175.1585294356596
 20
-94.51917082883671
 42
0.4142135623730951
 10
-174.6585294356596
 20
-95.01917082883673
 10
-161.6585294356596
 20
-95.01917082883673
 42
0.4142135623730951
 10
-161.1585294356596
 20
-94.51917082883671
 10
-161.1585294356596
 20
-81.51917082883661
 42
0.4142135623730951
 10
-161.6585294356596
 20
-81.01917082883662
  0
LWPOLYLINE
  5
178
330
1F
100
AcDbEntity
  8
0
100
AcDbPolyline
 90
        8
 70
     1
 43
0.0
 10
-198.4710294356595
 20
-61.96917082883669
 10
-185.4710294356596
 20
-61.96917082883672
 42
-0.4142135623730951
 10
-184.9710294356596
 20
-62.46917082883673
 10
-184.9710294356596
 20
-75.46917082883661
 42
-0.4142135623730951
 10
-185.4710294356596
 20
-75.96917082883661
 10
-198.4710294356595
 20
-75.96917082883661
 42
-0.4142135623730951
 10
-198.9710294356596
 20
-75.46917082883661
 10
-198.9710294356596
 20
-62.46917082883669
 42
-0.4142135623730951
  0
LWPOLYLINE
  5
179
330
1F
100
AcDbEntity
  8
0
100
AcDbPolyline
 90
        8
 70
     1
 43
0.0
 10
-358.0147794356597
 20
-119.1191708288366
 10
-342.6335294356596
 20
-119.1191708288366
 42
-0.4142135623730951
 10
-342.1335294356596
 20
-119.6191708288366
 10
-342.1335294356596
 20
-132.6191708288366
 42
-0.4142135623731073
 10
-342.6335294356596
 20
-133.1191708288367
 10
-358.0147794356597
 20
-133.1191708288367
 42
-0.4142135623730951
 10
-358.5147794356597
 20
-132.6191708288366
 10
-358.5147794356597
 20
-119.6191708288366
 42
-0.4142135623730951
  0
LWPOLYLINE
  5
180
330
1F
100
AcDbEntity
  8
0
100
AcDbPolyline
 90
        8
 70
     1
 43
0.0
 10
-250.8585294356596
 20
-81.01917082883659
 10
-237.8585294356595
 20
-81.01917082883659
 42
-0.4142135623730951
 10
-237.3585294356595
 20
-81.5191708288366
 10
-237.3585294356595
 20
-94.51917082883671
 42
-0.4142135623730951
 10
-237.8585294356595
 20
-95.0191708288367
 10
-250.8585294356596
 20
-95.0191708288367
 42
-0.4142135623730951
 10
-251.3585294356595
 20
-94.51917082883671
 10
-251.3585294356595
 20
-81.5191708288366
 42
-0.4142135623730951
  0
LWPOLYLINE
  5
181
330
1F
100
AcDbEntity
  8
0
100
AcDbPolyline
 90
        8
 70
     1
 43
0.0
 10
-184.1835294356596
 20
-100.0691708288366
 10
-171.1835294356595
 20
-100.0691708288366
 42
-0.4142135623730951
 10
-170.6835294356594
 20
-100.5691708288366
 10
-170.6835294356594
 20
-113.5691708288367
 42
-0.4142135623730951
 10
-171.1835294356595
 20
-114.0691708288367
 10
-184.1835294356596
 20
-114.0691708288367
 42
-0.4142135623730951
 10
-184.6835294356596
 20
-113.5691708288367
 10
-184.6835294356596
 20
-100.5691708288366
 42
-0.4142135623730951
  0
LWPOLYLINE
  5
182
330
1F
100
AcDbEntity
  8
0
100
AcDbPolyline
 90
        8
 70
     1
 43
0.0
 10
-69.88352943565956
 20
-119.1191708288366
 10
-56.88352943565956
 20
-119.1191708288366
 42
-0.4142135623730951
 10
-56.38352943565945
 20
-119.6191708288366
 10
-56.38352943565945
 20
-132.6191708288366
 42
-0.4142135623731073
 10
-56.88352943565956
 20
-133.1191708288367
 10
-69.88352943565956
 20
-133.1191708288367
 42
-0.4142135623731069
 10
-70.38352943565957
 20
-132.6191708288366
 10
-70.38352943565957
 20
-119.6191708288366
 42
-0.4142135623730951
  0
LWPOLYLINE
  5
183
330
1F
100
AcDbEntity
  8
0
100
AcDbPolyline
 90
        8
 70
     1
 43
0.0
 10
-165.1335294356595
 20
-100.0691708288366
 10
-152.1335294356595
 20
-100.0691708288366
 42
-0.4142135623730951
 10
-151.6335294356595
 20
-100.5691708288366
 10
-151.6335294356595
 20
-113.5691708288367
 42
-0.4142135623730951
 10
-152.1335294356595
 20
-114.0691708288367
 10
-165.1335294356595
 20
-114.0691708288367
 42
-0.4142135623730951
 10
-165.6335294356595
 20
-113.5691708288367
 10
-165.6335294356595
 20
-100.5691708288366
 42
-0.4142135623730951
  0
LWPOLYLINE
  5
184
330
1F
100
AcDbEntity
  8
0
100
AcDbPolyline
 90
        8
 70
     1
 43
0.0
 10
-193.7085294356595
 20
-81.01917082883662
 10
-180.7085294356595
 20
-81.01917082883662
 42
-0.4142135623730951
 10
-180.2085294356595
 20
-81.51917082883661
 10
-180.2085294356595
 20
-94.51917082883671
 42
-0.4142135623730951
 10
-180.7085294356595
 20
-95.0191708288367
 10
-193.7085294356595
 20
-95.01917082883673
 42
-0.4142135623730951
 10
-194.2085294356595
 20
-94.51917082883671
 10
-194.2085294356595
 20
-81.51917082883661
 42
-0.4142135623730951
  0
LWPOLYLINE
  5
185
330
1F
100
AcDbEntity
  8
0
100
AcDbPolyline
 90
       15
 70
     1
 43
0.0
 10
-94.69602943565957
 20
-101.0691708288366
 42
0.4142135623730951
 10
-94.19602943565957
 20
-100.5691708288366
 42
-0.4142135623730951
 10
-93.69602943565956
 20
-100.0691708288366
 10
-80.69602943565957
 20
-100.0691708288366
 42
-0.4142135623730951
 10
-80.19602943565956
 20
-100.5691708288366
 10
-80.19602943565956
 20
-113.5691708288367
 42
-0.4142135623730951
 10
-80.69602943565957
 20
-114.0691708288367
 10
-87.92677943565957
 20
-114.0691708288367
 42
0.4142135623730951
 10
-88.42677943565957
 20
-114.5691708288367
 10
-88.42677943565957
 20
-115.5691708288367
 42
-0.4142135623730951
 10
-88.92677943565956
 20
-116.0691708288367
 10
-94.92677943565956
 20
-116.0691708288367
 42
-0.4142135623730951
 10
-95.42677943565957
 20
-115.5691708288367
 10
-95.42677943565957
 20
-101.5691708288366
 42
-0.4142135623730951
 10
-94.92677943565956
 20
-101.0691708288366
  0
LWPOLYLINE
  5
186
330
1F
100
AcDbEntity
  8
0
100
AcDbPolyline
 90
       16
 70
     1
 43
0.0
 10
-119.3027794356595
 20
-114.5691708288367
 42
0.4142135623730951
 10
-119.8027794356595
 20
-114.0691708288367
 10
-119.8897794356595
 20
-114.0691708288367
 42
-0.4142135623730951
 10
-120.3897794356595
 20
-113.5691708288367
 10
-120.3897794356595
 20
-100.5691708288366
 42
-0.4142135623730951
 10
-119.8897794356595
 20
-100.0691708288366
 10
-97.36477943565956
 20
-100.0691708288366
 42
-0.4142135623730951
 10
-96.86477943565956
 20
-100.5691708288366
 10
-96.86477943565956
 20
-113.5691708288367
 42
-0.4142135623730951
 10
-97.36477943565956
 20
-114.0691708288367
 10
-111.8027794356595
 20
-114.0691708288367
 42
0.4142135623730951
 10
-112.3027794356595
 20
-114.5691708288367
 10
-112.3027794356595
 20
-115.5691708288367
 42
-0.4142135623730951
 10
-112.8027794356595
 20
-116.0691708288367
 10
-118.8027794356595
 20
-116.0691708288367
 42
-0.4142135623730951
 10
-119.3027794356595
 20
-115.5691708288367
  0
LWPOLYLINE
  5
187
330
1F
100
AcDbEntity
  8
0
100
AcDbPolyline
 90
       16
 70
     1
 43
0.0
 10
-167.3960294356595
 20
-119.1191708288366
 42
0.4142135623730951
 10
-166.8960294356595
 20
-118.6191708288366
 10
-166.8960294356595
 20
-117.6191708288366
 42
-0.4142135623730951
 10
-166.3960294356595
 20
-117.1191708288366
 10
-160.3960294356595
 20
-117.1191708288366
 42
-0.4142135623730951
 10
-159.8960294356595
 20
-117.6191708288366
 10
-159.8960294356595
 20
-118.6191708288366
 42
0.4142135623730951
 10
-159.3960294356595
 20
-119.1191708288366
 10
-154.5147794356595
 20
-119.1191708288366
 42
-0.4142135623730951
 10
-154.0147794356595
 20
-119.6191708288366
 10
-154.0147794356595
 20
-132.6191708288366
 42
-0.4142135623731073
 10
-154.5147794356595
 20
-133.1191708288367
 10
-167.5147794356595
 20
-133.1191708288367
 42
-0.4142135623731069
 10
-168.0147794356595
 20
-132.6191708288366
 10
-168.0147794356595
 20
-119.6191708288366
 42
-0.4142135623730951
 10
-167.5147794356595
 20
-119.1191708288366
  0
LWPOLYLINE
  5
188
330
1F
100
AcDbEntity
  8
0
100
AcDbPolyline
 90
       24
 70
     1
 43
0.0
 10
-112.1590294356595
 20
-57.41917082883663
 42
0.4142135623730951
 10
-112.6590294356596
 20
-56.91917082883662
 10
-112.7460294356596
 20
-56.91917082883662
 42
-0.4142135623730951
 10
-113.2460294356596
 20
-56.41917082883662
 10
-113.2460294356596
 20
-43.41917082883663
 42
-0.4142135623730951
 10
-112.7460294356596
 20
-42.91917082883663
 10
-80.69602943565957
 20
-42.91917082883659
 42
-0.4142135623730951
 10
-80.19602943565956
 20
-43.41917082883663
 10
-80.19602943565956
 20
-56.41917082883662
 42
-0.4142135623730951
 10
-80.69602943565957
 20
-56.91917082883666
 10
-80.78302943565956
 20
-56.91917082883662
 42
0.4142135623730951
 10
-81.28302943565955
 20
-57.41917082883663
 10
-81.28302943565955
 20
-58.41917082883663
 42
-0.4142135623730951
 10
-81.78302943565956
 20
-58.91917082883662
 10
-87.7830294356595
 20
-58.91917082883662
 42
-0.4142135623730951
 10
-88.28302943565956
 20
-58.41917082883663
 10
-88.28302943565956
 20
-57.41917082883671
 42
0.4142135623730951
 10
-88.78302943565955
 20
-56.91917082883671
 10
-104.6590294356595
 20
-56.91917082883662
 42
0.4142135623730951
 10
-105.1590294356595
 20
-57.41917082883663
 10
-105.1590294356595
 20
-58.41917082883663
 42
-0.4142135623730951
 10
-105.6590294356595
 20
-58.91917082883662
 10
-111.6590294356595
 20
-58.91917082883662
 42
-0.4142135623730951
 10
-112.1590294356595
 20
-58.41917082883663
  0
LWPOLYLINE
  5
189
330
1F
100
AcDbEntity
  8
0
100
AcDbPolyline
 90
        8
 70
     1
 43
0.0
 10
-327.8460294356596
 20
-19.60667082883628
 10
-327.8460294356596
 20
-32.60667082883731
 42
-0.4142135623730951
 10
-328.3460294356596
 20
-33.10667082883731
 10
-341.3460294356596
 20
-33.10667082883731
 42
-0.4142135623730951
 10
-341.8460294356596
 20
-32.60667082883731
 10
-341.8460294356596
 20
-19.60667082883628
 42
-0.4142135623730951
 10
-341.3460294356596
 20
-19.10667082883628
 10
-328.3460294356596
 20
-19.10667082883628
 42
-0.4142135623730951
  0
LWPOLYLINE
  5
190
330
1F
100
AcDbEntity
  8
0
100
AcDbPolyline
 90
        8
 70
     1
 43
0.0
 10
-80.19602943565956
 20
-37.26292082883663
 10
-80.19602943565956
 20
-38.76292082883663
 42
-0.4142135623730951
 10
-80.69602943565957
 20
-39.26292082883663
 10
-217.5210294356595
 20
-39.26292082883663
 42
-0.4142135623730951
 10
-218.0210294356596
 20
-38.76292082883663
 10
-218.0210294356596
 20
-37.26292082883663
 42
-0.4142135623730951
 10
-217.5210294356595
 20
-36.76292082883657
 10
-80.69602943565957
 20
-36.7629208288366
 42
-0.4142135623730951
  0
LWPOLYLINE
  5
191
330
1F
100
AcDbEntity
  8
0
100
AcDbPolyline
 90
        8
 70
     1
 43
0.0
 10
-18.28352943565949
 20
-100.5691708288366
 10
-18.28352943565966
 20
-113.5691708288367
 42
-0.4142135623730951
 10
-18.78352943565954
 20
-114.0691708288367
 10
-31.78352943565954
 20
-114.0691708288367
 42
-0.4142135623730951
 10
-32.28352943565949
 20
-113.5691708288367
 10
-32.28352943565949
 20
-100.5691708288366
 42
-0.4142135623730951
 10
-31.78352943565954
 20
-100.0691708288366
 10
-18.78352943565954
 20
-100.0691708288366
 42
-0.4142135623730951
  0
LWPOLYLINE
  5
192
330
1F
100
AcDbEntity
  8
0
100
AcDbPolyline
 90
        8
 70
     1
 43
0.0
 10
-18.28352943565949
 20
-37.26292082883666
 10
-18.28352943565949
 20
-38.76292082883665
 42
-0.4142135623730951
 10
-18.78352943565954
 20
-39.26292082883666
 10
-69.88352943565956
 20
-39.26292082883666
 42
-0.4142135623730951
 10
-70.38352943565957
 20
-38.76292082883665
 10
-70.38352943565957
 20
-37.26292082883666
 42
-0.4142135623730951
 10
-69.88352943565956
 20
-36.76292082883663
 10
-18.78352943565954
 20
-36.7629208288366
 42
-0.4142135623730951
  0
LWPOLYLINE
  5
193
330
1F
100
AcDbEntity
  8
0
100
AcDbPolyline
 90
        8
 70
     1
 43
0.0
 10
-122.3897794356595
 20
-100.5691708288366
 10
-122.3897794356595
 20
-113.5691708288367
 42
-0.4142135623730951
 10
-122.8897794356595
 20
-114.0691708288367
 10
-124.3897794356595
 20
-114.0691708288367
 42
-0.4142135623730951
 10
-124.8897794356595
 20
-113.5691708288367
 10
-124.8897794356595
 20
-100.5691708288366
 42
-0.4142135623730951
 10
-124.3897794356595
 20
-100.0691708288366
 10
-122.8897794356595
 20
-100.0691708288366
 42
-0.4142135623730951
  0
LWPOLYLINE
  5
194
330
1F
100
AcDbEntity
  8
0
100
AcDbPolyline
 90
        8
 70
     1
 43
0.0
 10
-156.1085294356595
 20
-19.60667082883731
 10
-156.1085294356595
 20
-32.60667082883731
 42
-0.4142135623730951
 10
-156.6085294356595
 20
-33.10667082883731
 10
-160.6585294356595
 20
-33.10667082883731
 42
-0.4142135623730951
 10
-161.1585294356596
 20
-32.60667082883731
 10
-161.1585294356596
 20
-19.60667082883731
 42
-0.4142135623730951
 10
-160.6585294356595
 20
-19.10667082883731
 10
-156.6085294356595
 20
-19.10667082883731
 42
-0.4142135623730951
  0
LWPOLYLINE
  5
195
330
1F
100
AcDbEntity
  8
0
100
AcDbPolyline
 90
        8
 70
     1
 43
0.0
 10
-337.6335294356596
 20
-62.46917082883658
 10
-337.6335294356596
 20
-75.46917082883661
 42
-0.4142135623730951
 10
-338.1335294356596
 20
-75.96917082883658
 10
-339.6335294356596
 20
-75.96917082883658
 42
-0.4142135623730951
 10
-340.1335294356596
 20
-75.46917082883658
 10
-340.1335294356596
 20
-62.46917082883658
 42
-0.4142135623730951
 10
-339.6335294356596
 20
-61.96917082883658
 10
-338.1335294356596
 20
-61.96917082883658
 42
-0.4142135623730951
  0
LWPOLYLINE
  5
196
330
1F
100
AcDbEntity
  8
0
100
AcDbPolyline
 90
        8
 70
     1
 43
0.0
 10
-245.0022794356596
 20
-128.0691708288366
 10
-268.6460294356597
 20
-128.0691708288366
 42
-0.4142135623731015
 10
-269.1460294356597
 20
-127.5691708288366
 10
-269.1460294356597
 20
-123.5191708288367
 42
-0.4142135623730951
 10
-268.6460294356597
 20
-123.0191708288367
 10
-245.0022794356596
 20
-123.0191708288367
 42
-0.4142135623730951
 10
-244.5022794356596
 20
-123.5191708288367
 10
-244.5022794356595
 20
-127.5691708288366
 42
-0.4142135623730886
  0
LWPOLYLINE
  5
197
330
1F
100
AcDbEntity
  8
0
100
AcDbPolyline
 90
        8
 70
     1
 43
0.0
 10
-335.2522794356596
 20
-81.5191708288366
 10
-335.2522794356596
 20
-94.51917082883671
 42
-0.4142135623730951
 10
-335.7522794356596
 20
-95.0191708288367
 10
-337.2522794356596
 20
-95.0191708288367
 42
-0.4142135623730951
 10
-337.7522794356596
 20
-94.51917082883671
 10
-337.7522794356596
 20
-81.5191708288366
 42
-0.4142135623730951
 10
-337.2522794356596
 20
-81.01917082883659
 10
-335.7522794356596
 20
-81.01917082883659
 42
-0.4142135623730951
  0
LWPOLYLINE
  5
198
330
1F
100
AcDbEntity
  8
0
100
AcDbPolyline
 90
        8
 70
     1
 43
0.0
 10
-241.8335294356595
 20
-19.60667082883731
 10
-241.8335294356595
 20
-32.60667082883731
 42
-0.4142135623730951
 10
-242.3335294356596
 20
-33.10667082883731
 10
-246.3835294356595
 20
-33.10667082883731
 42
-0.4142135623730951
 10
-246.8835294356595
 20
-32.60667082883731
 10
-246.8835294356595
 20
-19.60667082883731
 42
-0.4142135623730951
 10
-246.3835294356595
 20
-19.10667082883731
 10
-242.3335294356596
 20
-19.10667082883731
 42
-0.4142135623730951
  0
LWPOLYLINE
  5
199
330
1F
100
AcDbEntity
  8
0
100
AcDbPolyline
 90
        8
 70
     1
 43
0.0
 10
-74.03977943565945
 20
-19.60667082883634
 10
-74.03977943565945
 20
-32.60667082883734
 42
-0.4142135623730951
 10
-74.53977943565956
 20
-33.10667082883734
 10
-76.03977943565957
 20
-33.10667082883734
 42
-0.4142135623730951
 10
-76.53977943565957
 20
-32.60667082883734
 10
-76.53977943565957
 20
-19.60667082883634
 42
-0.4142135623730951
 10
-76.03977943565957
 20
-19.10667082883634
 10
-74.53977943565956
 20
-19.10667082883634
 42
-0.4142135623730951
  0
LWPOLYLINE
  5
200
330
1F
100
AcDbEntity
  8
0
100
AcDbPolyline
 90
        8
 70
     1
 43
0.0
 10
-100.9585294356595
 20
-62.46917082883664
 10
-100.9585294356595
 20
-75.46917082883664
 42
-0.4142135623730951
 10
-101.4585294356595
 20
-75.96917082883663
 10
-102.9585294356595
 20
-75.96917082883663
 42
-0.4142135623730951
 10
-103.4585294356595
 20
-75.46917082883664
 10
-103.4585294356595
 20
-62.46917082883664
 42
-0.4142135623730951
 10
-102.9585294356595
 20
-61.96917082883664
 10
-101.4585294356595
 20
-61.96917082883664
 42
-0.4142135623730951
  0
LWPOLYLINE
  5
201
330
1F
100
AcDbEntity
  8
0
100
AcDbPolyline
 90
        8
 70
     1
 43
0.0
 10
-56.38352943565945
 20
-100.5691708288366
 10
-56.38352943565945
 20
-113.5691708288367
 42
-0.4142135623730951
 10
-56.88352943565956
 20
-114.0691708288367
 10
-69.88352943565956
 20
-114.0691708288367
 42
-0.4142135623730951
 10
-70.38352943565957
 20
-113.5691708288367
 10
-70.38352943565957
 20
-100.5691708288366
 42
-0.4142135623730951
 10
-69.88352943565956
 20
-100.0691708288366
 10
-56.88352943565956
 20
-100.0691708288366
 42
-0.4142135623730951
  0
LWPOLYLINE
  5
202
330
1F
100
AcDbEntity
  8
0
100
AcDbPolyline
 90
        8
 70
     1
 43
0.0
 10
-18.28352943565949
 20
-81.51917082883665
 10
-18.28352943565966
 20
-94.51917082883673
 42
-0.4142135623730951
 10
-18.78352943565954
 20
-95.01917082883673
 10
-69.88352943565956
 20
-95.01917082883673
 42
-0.4142135623730951
 10
-70.38352943565957
 20
-94.51917082883673
 10
-70.38352943565957
 20
-81.51917082883661
 42
-0.4142135623730951
 10
-69.88352943565956
 20
-81.01917082883662
 10
-18.78352943565954
 20
-81.01917082883659
 42
-0.4142135623730951
  0
LWPOLYLINE
  5
203
330
1F
100
AcDbEntity
  8
0
100
AcDbPolyline
 90
        8
 70
     1
 43
0.0
 10
-74.03977943565945
 20
-43.41917082883665
 10
-74.03977943565945
 20
-132.6191708288366
 42
-0.4142135623730982
 10
-74.53977943565956
 20
-133.1191708288367
 10
-76.03977943565957
 20
-133.1191708288367
 42
-0.4142135623730951
 10
-76.53977943565957
 20
-132.6191708288367
 10
-76.53977943565957
 20
-43.41917082883665
 42
-0.4142135623730951
 10
-76.03977943565957
 20
-42.91917082883663
 10
-74.53977943565956
 20
-42.91917082883663
 42
-0.4142135623730951
  0
LWPOLYLINE
  5
204
330
1F
100
AcDbEntity
  8
0
100
AcDbPolyline
 90
        8
 70
     1
 43
0.0
 10
-223.0710294356595
 20
-37.26292082883663
 10
-223.0710294356595
 20
-38.76292082883663
 42
-0.4142135623730951
 10
-223.5710294356595
 20
-39.26292082883663
 10
-360.3960294356597
 20
-39.26292082883663
 42
-0.4142135623730937
 10
-360.8960294356597
 20
-38.76292082883663
 10
-360.8960294356597
 20
-37.26292082883663
 42
-0.4142135623730951
 10
-360.3960294356597
 20
-36.76292082883657
 10
-223.5710294356595
 20
-36.76292082883663
 42
-0.4142135623730951
  0
LWPOLYLINE
  5
205
330
1F
100
AcDbEntity
  8
0
100
AcDbPolyline
 90
        8
 70
     1
 43
0.0
 10
-358.1335294356596
 20
-62.46917082883658
 10
-358.1335294356596
 20
-75.46917082883658
 42
-0.4142135623730951
 10
-358.6335294356596
 20
-75.96917082883658
 10
-360.1335294356596
 20
-75.96917082883658
 42
-0.4142135623730951
 10
-360.6335294356596
 20
-75.46917082883658
 10
-360.6335294356596
 20
-62.46917082883658
 42
-0.4142135623730951
 10
-360.1335294356596
 20
-61.96917082883658
 10
-358.6335294356596
 20
-61.96917082883664
 42
-0.4142135623730951
  0
LWPOLYLINE
  5
206
330
1F
100
AcDbEntity
  8
0
100
AcDbPolyline
 90
        8
 70
     1
 43
0.0
 10
-191.5022794356596
 20
-128.0691708288367
 10
-207.9960294356595
 20
-128.0691708288366
 42
-0.4142135623731015
 10
-208.4960294356595
 20
-127.5691708288366
 10
-208.4960294356595
 20
-123.5191708288367
 42
-0.4142135623730951
 10
-207.9960294356595
 20
-123.0191708288367
 10
-191.5022794356596
 20
-123.0191708288367
 42
-0.4142135623730951
 10
-191.0022794356596
 20
-123.5191708288367
 10
-191.0022794356596
 20
-127.5691708288366
 42
-0.4142135623730886
  0
CIRCLE
  5
207
330
1F
100
AcDbEntity
  8
0
100
AcDbCircle
 10
-34.80852943565958
 20
-139.3691708288367
 30
-0.0000000000000089
 40
1.15000000000005
  0
CIRCLE
  5
208
330
1F
100
AcDbEntity
  8
0
100
AcDbCircle
 10
-338.4179044356597
 20
-139.3691708288366
 30
-0.0000000000000089
 40
1.149999999999999
  0
CIRCLE
  5
209
330
1F
100
AcDbEntity
  8
0
100
AcDbCircle
 10
-158.6335294356595
 20
-12.85667082883631
 30
-0.0000000000000933
 40
1.150000000000019
  0
CIRCLE
  5
210
330
1F
100
AcDbEntity
  8
0
100
AcDbCircle
 10
-334.8460294356596
 20
-12.85667082883628
 30
-0.0000000000000933
 40
1.149999999999999
  0
CIRCLE
  5
211
330
1F
100
AcDbEntity
  8
0
100
AcDbCircle
 10
-102.6741544356595
 20
-139.3691708288367
 30
-0.0000000000000089
 40
1.150000000000019
  0
CIRCLE
  5
212
330
1F
100
AcDbEntity
  8
0
100
AcDbCircle
 10
-277.6960294356596
 20
-139.3691708288367
 30
-0.0000000000000089
 40
1.149999999999999
  0
CIRCLE
  5
213
330
1F
100
AcDbEntity
  8
0
100
AcDbCircle
 10
-34.80852943565958
 20
-12.85667082883634
 30
-0.0000000000000933
 40
1.15000000000005
  0
CIRCLE
  5
214
330
1F
100
AcDbEntity
  8
0
100
AcDbCircle
 10
-244.3585294356595
 20
-12.85667082883628
 30
-0.0000000000000933
 40
1.149999999999999
  0
CIRCLE
  5
215
330
1F
100
AcDbEntity
  8
0
100
AcDbCircle
 10
-182.4522794356595
 20
-139.3691708288367
 30
-0.0000000000000089
 40
1.149999999999979
  0
ENDSEC
  0
SECTION
  2
OBJECTS
  0
DICTIONARY
  5
C
330
0
100
AcDbDictionary
281
     1
  3
ACAD_BACKGROUND
350
1005B
  3
ACAD_CIP_PREVIOUS_PRODUCT_INFO
350
1005A
  3
ACAD_COLOR
350
10036
  3
ACAD_DETAILVIEWSTYLE
350
10051
  3
ACAD_GROUP
350
D
  3
ACAD_LAYOUT
350
10037
  3
ACAD_MATERIAL
350
10004
  3
ACAD_MLEADERSTYLE
350
1004D
  3
ACAD_MLINESTYLE
350
17
  3
ACAD_PLOTSETTINGS
350
10054
  3
ACAD_PLOTSTYLENAME
350
10002
  3
ACAD_SCALELIST
350
1003B
  3
ACAD_SECTIONVIEWSTYLE
350
1004F
  3
ACAD_TABLESTYLE
350
10038
  3
ACAD_VISUALSTYLE
350
1001D
  3
ACDB_RECOMPOSE_DATA
350
1006D
  3
AcDbVariableDictionary
350
10061
  0
DICTIONARY
  5
1005F
330
50
100
AcDbDictionary
280
     1
281
     1
  3
ADSK_XREC_LAYER_RECONCILED
360
10060
  0
DICTIONARY
  5
1005B
102
{ACAD_REACTORS
330
C
102
}
330
C
100
AcDbDictionary
281
     1
  0
XRECORD
  5
1005A
102
{ACAD_REACTORS
330
C
102
}
330
C
100
AcDbXrecord
280
     1
300
ACD
300
2022
300

  0
DICTIONARY
  5
10036
102
{ACAD_REACTORS
330
C
102
}
330
C
100
AcDbDictionary
281
     1
  0
DICTIONARY
  5
10051
102
{ACAD_REACTORS
330
C
102
}
330
C
100
AcDbDictionary
281
     1
  3
Imperial24
350
10052
  0
DICTIONARY
  5
D
330
C
100
AcDbDictionary
281
     1
  0
DICTIONARY
  5
10037
102
{ACAD_REACTORS
330
C
102
}
330
C
100
AcDbDictionary
281
     1
  3
Layout1
350
10056
  3
Model
350
10055
  0
DICTIONARY
  5
10004
102
{ACAD_REACTORS
330
C
102
}
330
C
100
AcDbDictionary
281
     1
  3
ByBlock
350
1000D
  3
ByLayer
350
10005
  3
Global
350
10015
  0
DICTIONARY
  5
1004D
102
{ACAD_REACTORS
330
C
102
}
330
C
100
AcDbDictionary
281
     1
  3
Standard
350
1004E
  0
DICTIONARY
  5
17
330
C
100
AcDbDictionary
281
     1
  3
Standard
350
1003A
  0
DICTIONARY
  5
10054
102
{ACAD_REACTORS
330
C
102
}
330
C
100
AcDbDictionary
281
     1
  0
ACDBDICTIONARYWDFLT
  5
10002
102
{ACAD_REACTORS
330
C
102
}
330
C
100
AcDbDictionary
281
     1
  3
Normal
350
10003
100
AcDbDictionaryWithDefault
340
10003
  0
DICTIONARY
  5
1003B
102
{ACAD_REACTORS
330
C
102
}
330
C
100
AcDbDictionary
281
     1
  3
A0
350
1003C
  3
A1
350
1003D
  3
A2
350
1003E
  3
A3
350
1003F
  3
A4
350
10040
  3
A5
350
10041
  3
A6
350
10042
  3
A7
350
10043
  3
A8
350
10044
  3
A9
350
10045
  3
B0
350
10046
  3
B1
350
10047
  3
B2
350
10048
  3
B3
350
10049
  3
B4
350
1004A
  3
B5
350
1004B
  3
B6
350
1004C
  0
DICTIONARY
  5
1004F
102
{ACAD_REACTORS
330
C
102
}
330
C
100
AcDbDictionary
281
     1
  3
Imperial24
350
10050
  0
DICTIONARY
  5
10038
102
{ACAD_REACTORS
330
C
102
}
330
C
100
AcDbDictionary
281
     1
  3
Standard
350
10039
  0
DICTIONARY
  5
1001D
102
{ACAD_REACTORS
330
C
102
}
330
C
100
AcDbDictionary
281
     1
  3
2dWireframe
350
10023
  3
Basic
350
10022
  3
Brighten
350
10029
  3
ColorChange
350
1002D
  3
Conceptual
350
10026
  3
Dim
350
10028
  3
EdgeColorOff
350
10035
  3
Facepattern
350
1002C
  3
Flat
350
1001E
  3
FlatWithEdges
350
1001F
  3
Gouraud
350
10020
  3
GouraudWithEdges
350
10021
  3
Hidden
350
10025
  3
JitterOff
350
10033
  3
Linepattern
350
1002B
  3
OverhangOff
350
10034
  3
Realistic
350
10027
  3
Shaded
350
10032
  3
Shaded with edges
350
10031
  3
Shades of Gray
350
1002E
  3
Sketchy
350
1002F
  3
Thicken
350
1002A
  3
Wireframe
350
10024
  3
X-Ray
350
10030
  0
XRECORD
  5
1006D
102
{ACAD_REACTORS
330
C
102
}
330
C
100
AcDbXrecord
280
     1
 90
        1
330
10039
  0
DICTIONARY
  5
10061
102
{ACAD_REACTORS
330
C
102
}
330
C
100
AcDbDictionary
281
     1
  3
CANNOSCALE
350
10067
  3
CMLEADERSTYLE
350
10063
  3
CTABLESTYLE
350
10062
  3
CVIEWDETAILSTYLE
350
10064
  3
CVIEWSECTIONSTYLE
350
10065
  3
LAYEREVAL
350
10069
  3
LAYERNOTIFY
350
1006A
  3
LIGHTINGUNITS
350
10068
  3
MSLTSCALE
350
10066
  0
XRECORD
  5
10060
102
{ACAD_REACTORS
330
1005F
102
}
330
1005F
100
AcDbXrecord
280
     1
290
     1
  0
ACDBDETAILVIEWSTYLE
  5
10052
102
{ACAD_XDICTIONARY
360
10070
102
}
102
{ACAD_REACTORS
330
10051
102
}
330
10051
100
AcDbModelDocViewStyle
 70
     0
  3
Imperial24
290
     0
100
AcDbDetailViewStyle
 70
     0
 71
     0
 90
        3
 71
     1
340
11
 62
   256
 40
0.24
340
0
 62
   256
 40
0.24
300

 40
0.36
280
     3
 71
     2
340
0
 90
       25
 62
   256
 71
     3
340
11
 62
   256
 40
0.24
 90
        1
 40
0.75
 90
        1
300
%<\AcVar ViewType \f "%tc1">% %<\AcVar ViewDetailId>%\PSCALE %<\AcVar ViewScale \f "%sn">%
 71
     4
340
0
 90
       25
 62
   256
340
0
 90
       25
 62
   256
280
     0
  0
LAYOUT
  5
10056
102
{ACAD_REACTORS
330
10037
102
}
330
10037
100
AcDbPlotSettings
  1

  2
Canon iP110 series WS
  4

  6

 40
0.0
 41
0.0
 42
0.0
 43
0.0
 44
0.0
 45
0.0
 46
0.0
 47
0.0
 48
0.0
 49
0.0
140
0.0
141
0.0
142
1.0
143
1.0
 70
   688
 72
     0
 73
     0
 74
     5
  7

 75
    16
147
1.0
 76
     0
 77
     2
 78
   300
148
0.0
149
0.0
100
AcDbLayout
  1
Layout1
 70
     1
 71
     1
 10
0.0
 20
0.0
 11
12.0
 21
9.0
 12
0.0
 22
0.0
 32
0.0
 14
1.000000000000000E+20
 24
1.000000000000000E+20
 34
1.000000000000000E+20
 15
-1.000000000000000E+20
 25
-1.000000000000000E+20
 35
-1.000000000000000E+20
146
0.0
 13
0.0
 23
0.0
 33
0.0
 16
1.0
 26
0.0
 36
0.0
 17
0.0
 27
1.0
 37
0.0
 76
     0
330
1B
  0
LAYOUT
  5
10055
102
{ACAD_REACTORS
330
10037
102
}
330
10037
100
AcDbPlotSettings
  1

  2
Canon iP110 series WS
  4

  6

 40
0.0
 41
0.0
 42
0.0
 43
0.0
 44
0.0
 45
0.0
 46
0.0
 47
0.0
 48
0.0
 49
0.0
140
0.0
141
0.0
142
1.0
143
1.0
 70
  1712
 72
     0
 73
     0
 74
     0
  7

 75
     0
147
1.0
 76
     0
 77
     2
 78
   300
148
0.0
149
0.0
100
AcDbLayout
  1
Model
 70
     1
 71
     0
 10
0.0
 20
0.0
 11
12.0
 21
9.0
 12
0.0
 22
0.0
 32
0.0
 14
0.0
 24
0.0
 34
0.0
 15
0.0
 25
0.0
 35
0.0
146
0.0
 13
0.0
 23
0.0
 33
0.0
 16
1.0
 26
0.0
 36
0.0
 17
0.0
 27
1.0
 37
0.0
 76
     0
330
1F
331
10059
  0
MATERIAL
  5
1000D
102
{ACAD_XDICTIONARY
360
1000E
102
}
102
{ACAD_REACTORS
330
10004
102
}
330
10004
100
AcDbMaterial
  1
ByBlock
 72
     0
 43
0.0008202099737533
 43
0.0
 43
0.0
 43
0.0
 43
0.0
 43
0.0008202099737533
 43
0.0
 43
0.0
 43
0.0
 43
0.0
 43
1.0
 43
0.0
 43
0.0
 43
0.0
 43
0.0
 43
1.0
 77
     0
 47
0.0008202099737533
 47
0.0
 47
0.0
 47
0.0
 47
0.0
 47
0.0008202099737533
 47
0.0
 47
0.0
 47
0.0
 47
0.0
 47
1.0
 47
0.0
 47
0.0
 47
0.0
 47
0.0
 47
1.0
171
     0
 49
0.0008202099737533
 49
0.0
 49
0.0
 49
0.0
 49
0.0
 49
0.0008202099737533
 49
0.0
 49
0.0
 49
0.0
 49
0.0
 49
1.0
 49
0.0
 49
0.0
 49
0.0
 49
0.0
 49
1.0
175
     0
142
0.0008202099737533
142
0.0
142
0.0
142
0.0
142
0.0
142
0.0008202099737533
142
0.0
142
0.0
142
0.0
142
0.0
142
1.0
142
0.0
142
0.0
142
0.0
142
0.0
142
1.0
179
     0
144
0.0008202099737533
144
0.0
144
0.0
144
0.0
144
0.0
144
0.0008202099737533
144
0.0
144
0.0
144
0.0
144
0.0
144
1.0
144
0.0
144
0.0
144
0.0
144
0.0
144
1.0
147
0.0008202099737533
147
0.0
147
0.0
147
0.0
147
0.0
147
0.0008202099737533
147
0.0
147
0.0
147
0.0
147
0.0
147
1.0
147
0.0
147
0.0
147
0.0
147
0.0
147
1.0
  0
MATERIAL
  5
10005
102
{ACAD_XDICTIONARY
360
10006
102
}
102
{ACAD_REACTORS
330
10004
102
}
330
10004
100
AcDbMaterial
  1
ByLayer
 72
     0
 43
0.0008202099737533
 43
0.0
 43
0.0
 43
0.0
 43
0.0
 43
0.0008202099737533
 43
0.0
 43
0.0
 43
0.0
 43
0.0
 43
1.0
 43
0.0
 43
0.0
 43
0.0
 43
0.0
 43
1.0
 77
     0
 47
0.0008202099737533
 47
0.0
 47
0.0
 47
0.0
 47
0.0
 47
0.0008202099737533
 47
0.0
 47
0.0
 47
0.0
 47
0.0
 47
1.0
 47
0.0
 47
0.0
 47
0.0
 47
0.0
 47
1.0
171
     0
 49
0.0008202099737533
 49
0.0
 49
0.0
 49
0.0
 49
0.0
 49
0.0008202099737533
 49
0.0
 49
0.0
 49
0.0
 49
0.0
 49
1.0
 49
0.0
 49
0.0
 49
0.0
 49
0.0
 49
1.0
175
     0
142
0.0008202099737533
142
0.0
142
0.0
142
0.0
142
0.0
142
0.0008202099737533
142
0.0
142
0.0
142
0.0
142
0.0
142
1.0
142
0.0
142
0.0
142
0.0
142
0.0
142
1.0
179
     0
144
0.0008202099737533
144
0.0
144
0.0
144
0.0
144
0.0
144
0.0008202099737533
144
0.0
144
0.0
144
0.0
144
0.0
144
1.0
144
0.0
144
0.0
144
0.0
144
0.0
144
1.0
147
0.0008202099737533
147
0.0
147
0.0
147
0.0
147
0.0
147
0.0008202099737533
147
0.0
147
0.0
147
0.0
147
0.0
147
1.0
147
0.0
147
0.0
147
0.0
147
0.0
147
1.0
  0
MATERIAL
  5
10015
102
{ACAD_XDICTIONARY
360
10016
102
}
102
{ACAD_REACTORS
330
10004
102
}
330
10004
100
AcDbMaterial
  1
Global
 72
     0
 43
0.0008202099737533
 43
0.0
 43
0.0
 43
0.0
 43
0.0
 43
0.0008202099737533
 43
0.0
 43
0.0
 43
0.0
 43
0.0
 43
1.0
 43
0.0
 43
0.0
 43
0.0
 43
0.0
 43
1.0
 77
     0
 47
0.0008202099737533
 47
0.0
 47
0.0
 47
0.0
 47
0.0
 47
0.0008202099737533
 47
0.0
 47
0.0
 47
0.0
 47
0.0
 47
1.0
 47
0.0
 47
0.0
 47
0.0
 47
0.0
 47
1.0
171
     0
 49
0.0008202099737533
 49
0.0
 49
0.0
 49
0.0
 49
0.0
 49
0.0008202099737533
 49
0.0
 49
0.0
 49
0.0
 49
0.0
 49
1.0
 49
0.0
 49
0.0
 49
0.0
 49
0.0
 49
1.0
175
     0
142
0.0008202099737533
142
0.0
142
0.0
142
0.0
142
0.0
142
0.0008202099737533
142
0.0
142
0.0
142
0.0
142
0.0
142
1.0
142
0.0
142
0.0
142
0.0
142
0.0
142
1.0
179
     0
144
0.0008202099737533
144
0.0
144
0.0
144
0.0
144
0.0
144
0.0008202099737533
144
0.0
144
0.0
144
0.0
144
0.0
144
1.0
144
0.0
144
0.0
144
0.0
144
0.0
144
1.0
147
0.0008202099737533
147
0.0
147
0.0
147
0.0
147
0.0
147
0.0008202099737533
147
0.0
147
0.0
147
0.0
147
0.0
147
1.0
147
0.0
147
0.0
147
0.0
147
0.0
147
1.0
  0
MLEADERSTYLE
  5
1004E
102
{ACAD_REACTORS
330
1004D
102
}
330
1004D
100
AcDbMLeaderStyle
179
     2
170
     2
171
     1
172
     0
 90
        2
 40
0.0
 41
0.0
173
     1
 91
-1056964608
340
14
 92
       -2
290
     1
 42
0.09
291
     1
 43
0.36
  3
Standard
 44
0.18
300

342
11
174
     1
178
     6
175
     1
176
     0
 93
-1056964608
 45
0.18
292
     0
297
     0
 46
0.18
 94
-1056964608
 47
1.0
 49
1.0
140
1.0
293
     1
141
0.0
294
     1
177
     0
142
1.0
295
     0
296
     0
143
0.125
271
     0
272
     9
273
     9
298
     0
  0
MLINESTYLE
  5
1003A
102
{ACAD_REACTORS
330
17
102
}
330
17
100
AcDbMlineStyle
  2
STANDARD
 70
     0
  3

 62
   256
 51
90.0
 52
90.0
 71
     2
 49
0.5
 62
   256
  6
BYLAYER
 49
-0.5
 62
   256
  6
BYLAYER
  0
ACDBPLACEHOLDER
  5
10003
102
{ACAD_REACTORS
330
10002
102
}
330
10002
  0
SCALE
  5
1003C
102
{ACAD_REACTORS
330
1003B
102
}
330
1003B
100
AcDbScale
 70
     0
300
1:1
140
1.0
141
1.0
290
     1
  0
SCALE
  5
1003D
102
{ACAD_REACTORS
330
1003B
102
}
330
1003B
100
AcDbScale
 70
     0
300
1/128" = 1'-0"
140
0.0078125
141
12.0
290
     0
  0
SCALE
  5
1003E
102
{ACAD_REACTORS
330
1003B
102
}
330
1003B
100
AcDbScale
 70
     0
300
1/64" = 1'-0"
140
0.015625
141
12.0
290
     0
  0
SCALE
  5
1003F
102
{ACAD_REACTORS
330
1003B
102
}
330
1003B
100
AcDbScale
 70
     0
300
1/32" = 1'-0"
140
0.03125
141
12.0
290
     0
  0
SCALE
  5
10040
102
{ACAD_REACTORS
330
1003B
102
}
330
1003B
100
AcDbScale
 70
     0
300
1/16" = 1'-0"
140
0.0625
141
12.0
290
     0
  0
SCALE
  5
10041
102
{ACAD_REACTORS
330
1003B
102
}
330
1003B
100
AcDbScale
 70
     0
300
3/32" = 1'-0"
140
0.09375
141
12.0
290
     0
  0
SCALE
  5
10042
102
{ACAD_REACTORS
330
1003B
102
}
330
1003B
100
AcDbScale
 70
     0
300
1/8" = 1'-0"
140
0.125
141
12.0
290
     0
  0
SCALE
  5
10043
102
{ACAD_REACTORS
330
1003B
102
}
330
1003B
100
AcDbScale
 70
     0
300
3/16" = 1'-0"
140
0.1875
141
12.0
290
     0
  0
SCALE
  5
10044
102
{ACAD_REACTORS
330
1003B
102
}
330
1003B
100
AcDbScale
 70
     0
300
1/4" = 1'-0"
140
0.25
141
12.0
290
     0
  0
SCALE
  5
10045
102
{ACAD_REACTORS
330
1003B
102
}
330
1003B
100
AcDbScale
 70
     0
300
3/8" = 1'-0"
140
0.375
141
12.0
290
     0
  0
SCALE
  5
10046
102
{ACAD_REACTORS
330
1003B
102
}
330
1003B
100
AcDbScale
 70
     0
300
1/2" = 1'-0"
140
0.5
141
12.0
290
     0
  0
SCALE
  5
10047
102
{ACAD_REACTORS
330
1003B
102
}
330
1003B
100
AcDbScale
 70
     0
300
3/4" = 1'-0"
140
0.75
141
12.0
290
     0
  0
SCALE
  5
10048
102
{ACAD_REACTORS
330
1003B
102
}
330
1003B
100
AcDbScale
 70
     0
300
1" = 1'-0"
140
1.0
141
12.0
290
     0
  0
SCALE
  5
10049
102
{ACAD_REACTORS
330
1003B
102
}
330
1003B
100
AcDbScale
 70
     0
300
1-1/2" = 1'-0"
140
1.5
141
12.0
290
     0
  0
SCALE
  5
1004A
102
{ACAD_REACTORS
330
1003B
102
}
330
1003B
100
AcDbScale
 70
     0
300
3" = 1'-0"
140
3.0
141
12.0
290
     0
  0
SCALE
  5
1004B
102
{ACAD_REACTORS
330
1003B
102
}
330
1003B
100
AcDbScale
 70
     0
300
6" = 1'-0"
140
6.0
141
12.0
290
     0
  0
SCALE
  5
1004C
102
{ACAD_REACTORS
330
1003B
102
}
330
1003B
100
AcDbScale
 70
     0
300
1'-0" = 1'-0"
140
12.0
141
12.0
290
     0
  0
ACDBSECTIONVIEWSTYLE
  5
10050
102
{ACAD_XDICTIONARY
360
1006E
102
}
102
{ACAD_REACTORS
330
1004F
102
}
330
1004F
100
AcDbModelDocViewStyle
 70
     0
  3
Imperial24
290
     0
100
AcDbSectionViewStyle
 70
     0
 71
     0
 90
       78
 71
     1
340
11
 62
   256
 40
0.24
340
0
340
0
 62
   256
 40
0.24
300
I, O, Q, S, X, Z
 40
0.48
 90
        3
 40
0.18
 90
        1
 71
     2
340
0
 90
       25
 62
   256
340
0
 90
       50
 62
   256
 40
0.24
 40
0.0
 40
0.24
 71
     3
340
11
 62
   256
 40
0.24
 90
        1
 40
0.75
 90
        1
300
%<\AcVar ViewType \f "%tc1">% %<\AcVar ViewSectionStartId>%-%<\AcVar ViewSectionEndId>%\PSCALE %<\AcVar ViewScale \f "%sn">%
 71
     4
 62
   256
 62
   257
300
ANSI31
 40
1.0
 90
        0
290
     0
290
     0
 90
        6
 40
0.0
 40
1.570796326794896
 40
0.2617993877991494
 40
1.308996938995747
 40
-0.2617993877991494
 40
1.832595714594046
  0
TABLESTYLE
  5
10039
102
{ACAD_XDICTIONARY
360
1006B
102
}
102
{ACAD_REACTORS
330
10038
102
}
330
10038
100
AcDbTableStyle
280
     0
  3
Standard
 70
     0
 71
     0
 40
0.06
 41
0.06
280
     0
281
     0
  7
STANDARD
140
0.18
170
     2
 62
     0
 63
     7
283
     0
 90
      512
 91
        0
  1

274
    -2
284
     1
 64
     0
275
    -2
285
     1
 65
     0
276
    -2
286
     1
 66
     0
277
    -2
287
     1
 67
     0
278
    -2
288
     1
 68
     0
279
    -2
289
     1
 69
     0
  7
STANDARD
140
0.25
170
     5
 62
     0
 63
     7
283
     0
 90
      512
 91
        0
  1

274
    -2
284
     1
 64
     0
275
    -2
285
     1
 65
     0
276
    -2
286
     1
 66
     0
277
    -2
287
     1
 67
     0
278
    -2
288
     1
 68
     0
279
    -2
289
     1
 69
     0
  7
STANDARD
140
0.18
170
     5
 62
     0
 63
     7
283
     0
 90
      512
 91
        0
  1

274
    -2
284
     1
 64
     0
275
    -2
285
     1
 65
     0
276
    -2
286
     1
 66
     0
277
    -2
287
     1
 67
     0
278
    -2
288
     1
 68
     0
279
    -2
289
     1
 69
     0
  0
VISUALSTYLE
  5
10023
102
{ACAD_REACTORS
330
1001D
102
}
330
1001D
100
AcDbVisualStyle
  2
2dWireframe
 70
     4
177
     3
291
     0
 70
    58
 90
        0
176
     1
 90
        2
176
     1
 90
        0
176
     1
 90
        0
176
     1
 40
0.6
176
     1
 40
30.0
176
     1
 62
     7
420
 16777215
176
     1
 90
        1
176
     1
 90
        4
176
     1
 62
     7
176
     1
 62
   257
176
     1
 90
        1
176
     1
 90
        1
176
     1
 40
1.0
176
     1
 90
        0
176
     1
 62
   257
176
     1
 40
1.0
176
     1
 90
        1
176
     1
 90
        6
176
     1
 90
        2
176
     1
 62
     7
176
     1
 90
        5
176
     1
 90
        0
176
     1
 90
        0
176
     1
290
     0
176
     1
 90
        1
176
     1
 40
0.0
176
     1
 90
        0
176
     1
290
     1
176
     1
290
     1
176
     1
290
     0
176
     1
290
     0
176
     1
290
     0
176
     1
290
     0
176
     1
290
     0
176
     1
290
     0
176
     1
290
     0
176
     1
 90
       50
176
     1
 40
0.0
176
     1
 40
1.0
176
     1
 90
        0
176
     1
 62
    18
420
        0
176
     1
 90
       50
176
     1
 90
        3
176
     1
 62
     5
420
      255
176
     1
290
     0
176
     1
 90
       50
176
     1
 90
       50
176
     1
 90
       50
176
     1
290
     0
176
     1
 90
       50
176
     1
 62
   256
176
     0
 40
1.0
176
     0
 90
        2
176
     1
  1
strokes_ogs.tif
176
     1
290
     0
176
     1
 40
1.0
176
     1
 40
1.0
176
     1
1001
ACAD
1000
AcDbSavedByObjectVersion
1070
     0
  0
VISUALSTYLE
  5
10022
102
{ACAD_REACTORS
330
1001D
102
}
330
1001D
100
AcDbVisualStyle
  2
Basic
 70
     7
177
     3
291
     1
 70
    58
 90
        1
176
     1
 90
        0
176
     1
 90
        1
176
     1
 90
        0
176
     1
 40
0.6
176
     1
 40
30.0
176
     1
 62
     7
420
 16777215
176
     1
 90
        0
176
     1
 90
        4
176
     1
 62
     7
176
     1
 62
   257
176
     1
 90
        1
176
     1
 90
        1
176
     1
 40
1.0
176
     1
 90
        8
176
     1
 62
     7
176
     1
 40
1.0
176
     1
 90
        1
176
     1
 90
        6
176
     1
 90
        2
176
     1
 62
     7
176
     1
 90
        5
176
     1
 90
        0
176
     1
 90
        0
176
     1
290
     0
176
     1
 90
        1
176
     1
 40
0.0
176
     1
 90
        0
176
     1
290
     0
176
     1
290
     1
176
     1
290
     1
176
     1
290
     0
176
     1
290
     0
176
     1
290
     0
176
     1
290
     0
176
     1
290
     0
176
     1
290
     0
176
     1
 90
       50
176
     1
 40
0.0
176
     1
 40
1.0
176
     1
 90
        0
176
     1
 62
    18
420
        0
176
     1
 90
       50
176
     1
 90
        3
176
     1
 62
     5
420
      255
176
     1
290
     0
176
     1
 90
       50
176
     1
 90
       50
176
     1
 90
       50
176
     1
290
     0
176
     1
 90
       50
176
     1
 62
   256
176
     0
 40
1.0
176
     0
 90
        2
176
     1
  1
strokes_ogs.tif
176
     1
290
     0
176
     1
 40
1.0
176
     1
 40
1.0
176
     1
1001
ACAD
1000
AcDbSavedByObjectVersion
1070
     0
  0
VISUALSTYLE
  5
10029
102
{ACAD_REACTORS
330
1001D
102
}
330
1001D
100
AcDbVisualStyle
  2
Brighten
 70
    12
177
     3
291
     1
 70
    58
 90
        2
176
     1
 90
        2
176
     1
 90
        0
176
     1
 90
        0
176
     1
 40
0.6
176
     1
 40
30.0
176
     1
 62
     7
420
 16777215
176
     1
 90
        1
176
     1
 90
        4
176
     1
 62
     7
176
     1
 62
   257
176
     1
 90
        1
176
     1
 90
        1
176
     1
 40
1.0
176
     1
 90
        8
176
     1
 62
     7
176
     1
 40
1.0
176
     1
 90
        1
176
     1
 90
        6
176
     1
 90
        2
176
     1
 62
     7
176
     1
 90
        5
176
     1
 90
        0
176
     1
 90
        0
176
     1
290
     0
176
     1
 90
        1
176
     1
 40
50.0
176
     1
 90
        0
176
     1
290
     0
176
     1
290
     1
176
     1
290
     1
176
     1
290
     0
176
     1
290
     0
176
     1
290
     0
176
     1
290
     0
176
     1
290
     0
176
     1
290
     0
176
     1
 90
       50
176
     1
 40
0.0
176
     1
 40
1.0
176
     1
 90
        0
176
     1
 62
    18
420
        0
176
     1
 90
       50
176
     1
 90
        3
176
     1
 62
     5
420
      255
176
     1
290
     0
176
     1
 90
       50
176
     1
 90
       50
176
     1
 90
       50
176
     1
290
     0
176
     1
 90
       50
176
     1
 62
   256
176
     0
 40
1.0
176
     0
 90
        2
176
     1
  1
strokes_ogs.tif
176
     1
290
     0
176
     1
 40
1.0
176
     1
 40
1.0
176
     1
1001
ACAD
1000
AcDbSavedByObjectVersion
1070
     0
  0
VISUALSTYLE
  5
1002D
102
{ACAD_REACTORS
330
1001D
102
}
330
1001D
100
AcDbVisualStyle
  2
ColorChange
 70
    16
177
     3
291
     1
 70
    58
 90
        2
176
     1
 90
        2
176
     1
 90
        3
176
     1
 90
        0
176
     1
 40
0.6
176
     1
 40
30.0
176
     1
 62
     8
420
  8421504
176
     1
 90
        1
176
     1
 90
        4
176
     1
 62
     7
176
     1
 62
   257
176
     1
 90
        1
176
     1
 90
        1
176
     1
 40
1.0
176
     1
 90
        8
176
     1
 62
     8
420
  8421504
176
     1
 40
1.0
176
     1
 90
        1
176
     1
 90
        6
176
     1
 90
        2
176
     1
 62
     7
176
     1
 90
        5
176
     1
 90
        0
176
     1
 90
        0
176
     1
290
     0
176
     1
 90
        1
176
     1
 40
0.0
176
     1
 90
        0
176
     1
290
     0
176
     1
290
     1
176
     1
290
     1
176
     1
290
     0
176
     1
290
     0
176
     1
290
     0
176
     1
290
     0
176
     1
290
     0
176
     1
290
     0
176
     1
 90
       50
176
     1
 40
0.0
176
     1
 40
1.0
176
     1
 90
        0
176
     1
 62
    18
420
        0
176
     1
 90
       50
176
     1
 90
        3
176
     1
 62
     5
420
      255
176
     1
290
     0
176
     1
 90
       50
176
     1
 90
       50
176
     1
 90
       50
176
     1
290
     0
176
     1
 90
       50
176
     1
 62
   256
176
     0
 40
1.0
176
     0
 90
        2
176
     1
  1
strokes_ogs.tif
176
     1
290
     0
176
     1
 40
1.0
176
     1
 40
1.0
176
     1
1001
ACAD
1000
AcDbSavedByObjectVersion
1070
     0
  0
VISUALSTYLE
  5
10026
102
{ACAD_REACTORS
330
1001D
102
}
330
1001D
100
AcDbVisualStyle
  2
Conceptual
 70
     9
177
     3
291
     0
 70
    58
 90
        3
176
     1
 90
        2
176
     1
 90
        0
176
     1
 90
        0
176
     1
 40
0.6
176
     1
 40
30.0
176
     1
 62
     7
420
 16777215
176
     1
 90
        2
176
     1
 90
        2
176
     1
 62
     7
176
     1
 62
   257
176
     1
 90
        1
176
     1
 90
        1
176
     1
 40
179.0
176
     1
 90
        8
176
     1
 62
     7
176
     1
 40
1.0
176
     1
 90
        1
176
     1
 90
        6
176
     1
 90
        2
176
     1
 62
     7
176
     1
 90
        3
176
     1
 90
        0
176
     1
 90
        0
176
     1
290
     0
176
     1
 90
        1
176
     1
 40
0.0
176
     1
 90
        0
176
     1
290
     0
176
     1
290
     1
176
     1
290
     1
176
     1
290
     0
176
     1
290
     0
176
     1
290
     0
176
     1
290
     0
176
     1
290
     0
176
     1
290
     0
176
     1
 90
       50
176
     1
 40
0.0
176
     1
 40
1.0
176
     1
 90
        0
176
     1
 62
    18
420
        0
176
     1
 90
       50
176
     1
 90
        3
176
     1
 62
     5
420
      255
176
     1
290
     0
176
     1
 90
       50
176
     1
 90
       50
176
     1
 90
       50
176
     1
290
     0
176
     1
 90
       50
176
     1
 62
   256
176
     0
 40
1.0
176
     0
 90
        2
176
     1
  1
strokes_ogs.tif
176
     1
290
     0
176
     1
 40
1.0
176
     1
 40
1.0
176
     1
1001
ACAD
1000
AcDbSavedByObjectVersion
1070
     0
  0
VISUALSTYLE
  5
10028
102
{ACAD_REACTORS
330
1001D
102
}
330
1001D
100
AcDbVisualStyle
  2
Dim
 70
    11
177
     3
291
     1
 70
    58
 90
        2
176
     1
 90
        2
176
     1
 90
        0
176
     1
 90
        0
176
     1
 40
0.6
176
     1
 40
30.0
176
     1
 62
     7
420
 16777215
176
     1
 90
        1
176
     1
 90
        4
176
     1
 62
     7
176
     1
 62
   257
176
     1
 90
        1
176
     1
 90
        1
176
     1
 40
1.0
176
     1
 90
        8
176
     1
 62
     7
176
     1
 40
1.0
176
     1
 90
        1
176
     1
 90
        6
176
     1
 90
        2
176
     1
 62
     7
176
     1
 90
        5
176
     1
 90
        0
176
     1
 90
        0
176
     1
290
     0
176
     1
 90
        1
176
     1
 40
-50.0
176
     1
 90
        0
176
     1
290
     0
176
     1
290
     1
176
     1
290
     1
176
     1
290
     0
176
     1
290
     0
176
     1
290
     0
176
     1
290
     0
176
     1
290
     0
176
     1
290
     0
176
     1
 90
       50
176
     1
 40
0.0
176
     1
 40
1.0
176
     1
 90
        0
176
     1
 62
    18
420
        0
176
     1
 90
       50
176
     1
 90
        3
176
     1
 62
     5
420
      255
176
     1
290
     0
176
     1
 90
       50
176
     1
 90
       50
176
     1
 90
       50
176
     1
290
     0
176
     1
 90
       50
176
     1
 62
   256
176
     0
 40
1.0
176
     0
 90
        2
176
     1
  1
strokes_ogs.tif
176
     1
290
     0
176
     1
 40
1.0
176
     1
 40
1.0
176
     1
1001
ACAD
1000
AcDbSavedByObjectVersion
1070
     0
  0
VISUALSTYLE
  5
10035
102
{ACAD_REACTORS
330
1001D
102
}
330
1001D
100
AcDbVisualStyle
  2
EdgeColorOff
 70
    22
177
     3
291
     1
 70
    58
 90
        2
176
     0
 90
        2
176
     0
 90
        0
176
     0
 90
        0
176
     0
 40
0.6
176
     0
 40
30.0
176
     0
 62
     7
420
 16777215
176
     0
 90
        1
176
     0
 90
        4
176
     0
 62
     7
176
     0
 62
   257
176
     0
 90
        1
176
     0
 90
        1
176
     0
 40
1.0
176
     0
 90
        8
176
     2
 62
     7
176
     0
 40
1.0
176
     0
 90
        1
176
     0
 90
        6
176
     0
 90
        2
176
     0
 62
     7
176
     0
 90
        5
176
     0
 90
        0
176
     0
 90
        0
176
     0
290
     0
176
     0
 90
        1
176
     0
 40
0.0
176
     0
 90
        0
176
     0
290
     0
176
     1
290
     1
176
     1
290
     1
176
     1
290
     0
176
     1
290
     0
176
     1
290
     0
176
     1
290
     0
176
     1
290
     0
176
     1
290
     0
176
     1
 90
       50
176
     0
 40
0.0
176
     0
 40
1.0
176
     0
 90
        0
176
     0
 62
    18
420
        0
176
     0
 90
       50
176
     0
 90
        3
176
     0
 62
     5
420
      255
176
     0
290
     0
176
     1
 90
       50
176
     0
 90
       50
176
     0
 90
       50
176
     0
290
     0
176
     1
 90
       50
176
     0
 62
   256
176
     0
 40
1.0
176
     0
 90
        2
176
     0
  1
strokes_ogs.tif
176
     0
290
     0
176
     1
 40
1.0
176
     0
 40
1.0
176
     0
1001
ACAD
1000
AcDbSavedByObjectVersion
1070
     0
  0
VISUALSTYLE
  5
1002C
102
{ACAD_REACTORS
330
1001D
102
}
330
1001D
100
AcDbVisualStyle
  2
Facepattern
 70
    15
177
     3
291
     1
 70
    58
 90
        2
176
     1
 90
        2
176
     1
 90
        0
176
     1
 90
        0
176
     1
 40
0.6
176
     1
 40
30.0
176
     1
 62
     7
420
 16777215
176
     1
 90
        1
176
     1
 90
        4
176
     1
 62
     7
176
     1
 62
   257
176
     1
 90
        1
176
     1
 90
        1
176
     1
 40
1.0
176
     1
 90
        8
176
     1
 62
     7
176
     1
 40
1.0
176
     1
 90
        1
176
     1
 90
        6
176
     1
 90
        2
176
     1
 62
     7
176
     1
 90
        5
176
     1
 90
        0
176
     1
 90
        0
176
     1
290
     0
176
     1
 90
        1
176
     1
 40
0.0
176
     1
 90
        0
176
     1
290
     0
176
     1
290
     1
176
     1
290
     1
176
     1
290
     0
176
     1
290
     0
176
     1
290
     0
176
     1
290
     0
176
     1
290
     0
176
     1
290
     0
176
     1
 90
       50
176
     1
 40
0.0
176
     1
 40
1.0
176
     1
 90
        0
176
     1
 62
    18
420
        0
176
     1
 90
       50
176
     1
 90
        3
176
     1
 62
     5
420
      255
176
     1
290
     0
176
     1
 90
       50
176
     1
 90
       50
176
     1
 90
       50
176
     1
290
     0
176
     1
 90
       50
176
     1
 62
   256
176
     0
 40
1.0
176
     0
 90
        2
176
     1
  1
strokes_ogs.tif
176
     1
290
     0
176
     1
 40
1.0
176
     1
 40
1.0
176
     1
1001
ACAD
1000
AcDbSavedByObjectVersion
1070
     0
  0
VISUALSTYLE
  5
1001E
102
{ACAD_REACTORS
330
1001D
102
}
330
1001D
100
AcDbVisualStyle
  2
Flat
 70
     0
177
     3
291
     1
 70
    58
 90
        2
176
     1
 90
        1
176
     1
 90
        1
176
     1
 90
        2
176
     1
 40
0.6
176
     1
 40
30.0
176
     1
 62
     7
420
 16777215
176
     1
 90
        0
176
     1
 90
        0
176
     1
 62
     7
176
     1
 62
   257
176
     1
 90
        1
176
     1
 90
        1
176
     1
 40
1.0
176
     1
 90
        8
176
     1
 62
     7
176
     1
 40
1.0
176
     1
 90
        1
176
     1
 90
        6
176
     1
 90
        2
176
     1
 62
     7
176
     1
 90
        5
176
     1
 90
        0
176
     1
 90
        0
176
     1
290
     0
176
     1
 90
       13
176
     1
 40
0.0
176
     1
 90
        0
176
     1
290
     0
176
     1
290
     1
176
     1
290
     1
176
     1
290
     0
176
     1
290
     0
176
     1
290
     0
176
     1
290
     0
176
     1
290
     0
176
     1
290
     0
176
     1
 90
       50
176
     1
 40
0.0
176
     1
 40
1.0
176
     1
 90
        0
176
     1
 62
    18
420
        0
176
     1
 90
       50
176
     1
 90
        3
176
     1
 62
     5
420
      255
176
     1
290
     0
176
     1
 90
       50
176
     1
 90
       50
176
     1
 90
       50
176
     1
290
     0
176
     1
 90
       50
176
     1
 62
   256
176
     0
 40
1.0
176
     0
 90
        2
176
     1
  1
strokes_ogs.tif
176
     1
290
     0
176
     1
 40
1.0
176
     1
 40
1.0
176
     1
1001
ACAD
1000
AcDbSavedByObjectVersion
1070
     0
  0
VISUALSTYLE
  5
1001F
102
{ACAD_REACTORS
330
1001D
102
}
330
1001D
100
AcDbVisualStyle
  2
FlatWithEdges
 70
     1
177
     3
291
     1
 70
    58
 90
        2
176
     1
 90
        1
176
     1
 90
        1
176
     1
 90
        2
176
     1
 40
0.6
176
     1
 40
30.0
176
     1
 62
     7
420
 16777215
176
     1
 90
        1
176
     1
 90
        0
176
     1
 62
     7
176
     1
 62
   257
176
     1
 90
        1
176
     1
 90
        1
176
     1
 40
1.0
176
     1
 90
        0
176
     1
 62
   257
176
     1
 40
1.0
176
     1
 90
        1
176
     1
 90
        6
176
     1
 90
        2
176
     1
 62
     7
176
     1
 90
        5
176
     1
 90
        0
176
     1
 90
        0
176
     1
290
     0
176
     1
 90
       13
176
     1
 40
0.0
176
     1
 90
        0
176
     1
290
     0
176
     1
290
     1
176
     1
290
     1
176
     1
290
     0
176
     1
290
     0
176
     1
290
     0
176
     1
290
     0
176
     1
290
     0
176
     1
290
     0
176
     1
 90
       50
176
     1
 40
0.0
176
     1
 40
1.0
176
     1
 90
        0
176
     1
 62
    18
420
        0
176
     1
 90
       50
176
     1
 90
        3
176
     1
 62
     5
420
      255
176
     1
290
     0
176
     1
 90
       50
176
     1
 90
       50
176
     1
 90
       50
176
     1
290
     0
176
     1
 90
       50
176
     1
 62
   256
176
     0
 40
1.0
176
     0
 90
        2
176
     1
  1
strokes_ogs.tif
176
     1
290
     0
176
     1
 40
1.0
176
     1
 40
1.0
176
     1
1001
ACAD
1000
AcDbSavedByObjectVersion
1070
     0
  0
VISUALSTYLE
  5
10020
102
{ACAD_REACTORS
330
1001D
102
}
330
1001D
100
AcDbVisualStyle
  2
Gouraud
 70
     2
177
     3
291
     1
 70
    58
 90
        2
176
     1
 90
        2
176
     1
 90
        1
176
     1
 90
        2
176
     1
 40
0.6
176
     1
 40
30.0
176
     1
 62
     7
420
 16777215
176
     1
 90
        0
176
     1
 90
        0
176
     1
 62
     7
176
     1
 62
   257
176
     1
 90
        1
176
     1
 90
        1
176
     1
 40
1.0
176
     1
 90
        0
176
     1
 62
     7
176
     1
 40
1.0
176
     1
 90
        1
176
     1
 90
        6
176
     1
 90
        2
176
     1
 62
     7
176
     1
 90
        5
176
     1
 90
        0
176
     1
 90
        0
176
     1
290
     0
176
     1
 90
       13
176
     1
 40
0.0
176
     1
 90
        0
176
     1
290
     0
176
     1
290
     1
176
     1
290
     1
176
     1
290
     0
176
     1
290
     0
176
     1
290
     0
176
     1
290
     0
176
     1
290
     0
176
     1
290
     0
176
     1
 90
       50
176
     1
 40
0.0
176
     1
 40
1.0
176
     1
 90
        0
176
     1
 62
    18
420
        0
176
     1
 90
       50
176
     1
 90
        3
176
     1
 62
     5
420
      255
176
     1
290
     0
176
     1
 90
       50
176
     1
 90
       50
176
     1
 90
       50
176
     1
290
     0
176
     1
 90
       50
176
     1
 62
   256
176
     0
 40
1.0
176
     0
 90
        2
176
     1
  1
strokes_ogs.tif
176
     1
290
     0
176
     1
 40
1.0
176
     1
 40
1.0
176
     1
1001
ACAD
1000
AcDbSavedByObjectVersion
1070
     0
  0
VISUALSTYLE
  5
10021
102
{ACAD_REACTORS
330
1001D
102
}
330
1001D
100
AcDbVisualStyle
  2
GouraudWithEdges
 70
     3
177
     3
291
     1
 70
    58
 90
        2
176
     1
 90
        2
176
     1
 90
        1
176
     1
 90
        2
176
     1
 40
0.6
176
     1
 40
30.0
176
     1
 62
     7
420
 16777215
176
     1
 90
        1
176
     1
 90
        0
176
     1
 62
     7
176
     1
 62
   257
176
     1
 90
        1
176
     1
 90
        1
176
     1
 40
1.0
176
     1
 90
        0
176
     1
 62
   257
176
     1
 40
1.0
176
     1
 90
        1
176
     1
 90
        6
176
     1
 90
        2
176
     1
 62
     7
176
     1
 90
        5
176
     1
 90
        0
176
     1
 90
        0
176
     1
290
     0
176
     1
 90
       13
176
     1
 40
0.0
176
     1
 90
        0
176
     1
290
     0
176
     1
290
     1
176
     1
290
     1
176
     1
290
     0
176
     1
290
     0
176
     1
290
     0
176
     1
290
     0
176
     1
290
     0
176
     1
290
     0
176
     1
 90
       50
176
     1
 40
0.0
176
     1
 40
1.0
176
     1
 90
        0
176
     1
 62
    18
420
        0
176
     1
 90
       50
176
     1
 90
        3
176
     1
 62
     5
420
      255
176
     1
290
     0
176
     1
 90
       50
176
     1
 90
       50
176
     1
 90
       50
176
     1
290
     0
176
     1
 90
       50
176
     1
 62
   256
176
     0
 40
1.0
176
     0
 90
        2
176
     1
  1
strokes_ogs.tif
176
     1
290
     0
176
     1
 40
1.0
176
     1
 40
1.0
176
     1
1001
ACAD
1000
AcDbSavedByObjectVersion
1070
     0
  0
VISUALSTYLE
  5
10025
102
{ACAD_REACTORS
330
1001D
102
}
330
1001D
100
AcDbVisualStyle
  2
Hidden
 70
     6
177
     3
291
     0
 70
    58
 90
        1
176
     1
 90
        2
176
     1
 90
        2
176
     1
 90
        0
176
     1
 40
0.6
176
     1
 40
30.0
176
     1
 62
     7
420
 16777215
176
     1
 90
        2
176
     1
 90
        2
176
     1
 62
     7
176
     1
 62
   257
176
     1
 90
        2
176
     1
 90
        1
176
     1
 40
40.0
176
     1
 90
        0
176
     1
 62
   257
176
     1
 40
1.0
176
     1
 90
        1
176
     1
 90
        6
176
     1
 90
        2
176
     1
 62
     7
176
     1
 90
        3
176
     1
 90
        0
176
     1
 90
        0
176
     1
290
     0
176
     1
 90
        1
176
     1
 40
0.0
176
     1
 90
        0
176
     1
290
     0
176
     1
290
     1
176
     1
290
     1
176
     1
290
     0
176
     1
290
     0
176
     1
290
     0
176
     1
290
     0
176
     1
290
     0
176
     1
290
     0
176
     1
 90
       50
176
     1
 40
0.0
176
     1
 40
1.0
176
     1
 90
        0
176
     1
 62
    18
420
        0
176
     1
 90
       50
176
     1
 90
        3
176
     1
 62
     5
420
      255
176
     1
290
     0
176
     1
 90
       50
176
     1
 90
       50
176
     1
 90
       50
176
     1
290
     0
176
     1
 90
       50
176
     1
 62
   256
176
     0
 40
1.0
176
     0
 90
        2
176
     1
  1
strokes_ogs.tif
176
     1
290
     0
176
     1
 40
1.0
176
     1
 40
1.0
176
     1
1001
ACAD
1000
AcDbSavedByObjectVersion
1070
     0
  0
VISUALSTYLE
  5
10033
102
{ACAD_REACTORS
330
1001D
102
}
330
1001D
100
AcDbVisualStyle
  2
JitterOff
 70
    20
177
     3
291
     1
 70
    58
 90
        2
176
     0
 90
        2
176
     0
 90
        0
176
     0
 90
        0
176
     0
 40
0.6
176
     0
 40
30.0
176
     0
 62
     7
420
 16777215
176
     0
 90
        1
176
     0
 90
        4
176
     0
 62
     7
176
     0
 62
   257
176
     0
 90
        1
176
     0
 90
        1
176
     0
 40
1.0
176
     0
 90
       10
176
     2
 62
     7
176
     0
 40
1.0
176
     0
 90
        1
176
     0
 90
        6
176
     0
 90
        2
176
     0
 62
     7
176
     0
 90
        5
176
     0
 90
        0
176
     0
 90
        0
176
     0
290
     0
176
     0
 90
        1
176
     0
 40
0.0
176
     0
 90
        0
176
     0
290
     0
176
     1
290
     1
176
     1
290
     1
176
     1
290
     0
176
     1
290
     0
176
     1
290
     0
176
     1
290
     0
176
     1
290
     0
176
     1
290
     0
176
     1
 90
       50
176
     0
 40
0.0
176
     0
 40
1.0
176
     0
 90
        0
176
     0
 62
    18
420
        0
176
     0
 90
       50
176
     0
 90
        3
176
     0
 62
     5
420
      255
176
     0
290
     0
176
     1
 90
       50
176
     0
 90
       50
176
     0
 90
       50
176
     0
290
     0
176
     1
 90
       50
176
     0
 62
   256
176
     0
 40
1.0
176
     0
 90
        2
176
     0
  1
strokes_ogs.tif
176
     0
290
     0
176
     1
 40
1.0
176
     0
 40
1.0
176
     0
1001
ACAD
1000
AcDbSavedByObjectVersion
1070
     0
  0
VISUALSTYLE
  5
1002B
102
{ACAD_REACTORS
330
1001D
102
}
330
1001D
100
AcDbVisualStyle
  2
Linepattern
 70
    14
177
     3
291
     1
 70
    58
 90
        2
176
     1
 90
        2
176
     1
 90
        0
176
     1
 90
        0
176
     1
 40
0.6
176
     1
 40
30.0
176
     1
 62
     7
420
 16777215
176
     1
 90
        1
176
     1
 90
        4
176
     1
 62
     7
176
     1
 62
   257
176
     1
 90
        7
176
     1
 90
        7
176
     1
 40
1.0
176
     1
 90
        8
176
     1
 62
     7
176
     1
 40
1.0
176
     1
 90
        1
176
     1
 90
        6
176
     1
 90
        2
176
     1
 62
     7
176
     1
 90
        5
176
     1
 90
        0
176
     1
 90
        0
176
     1
290
     0
176
     1
 90
        1
176
     1
 40
0.0
176
     1
 90
        0
176
     1
290
     0
176
     1
290
     1
176
     1
290
     1
176
     1
290
     0
176
     1
290
     0
176
     1
290
     0
176
     1
290
     0
176
     1
290
     0
176
     1
290
     0
176
     1
 90
       50
176
     1
 40
0.0
176
     1
 40
1.0
176
     1
 90
        0
176
     1
 62
    18
420
        0
176
     1
 90
       50
176
     1
 90
        3
176
     1
 62
     5
420
      255
176
     1
290
     0
176
     1
 90
       50
176
     1
 90
       50
176
     1
 90
       50
176
     1
290
     0
176
     1
 90
       50
176
     1
 62
   256
176
     0
 40
1.0
176
     0
 90
        2
176
     1
  1
strokes_ogs.tif
176
     1
290
     0
176
     1
 40
1.0
176
     1
 40
1.0
176
     1
1001
ACAD
1000
AcDbSavedByObjectVersion
1070
     0
  0
VISUALSTYLE
  5
10034
102
{ACAD_REACTORS
330
1001D
102
}
330
1001D
100
AcDbVisualStyle
  2
OverhangOff
 70
    21
177
     3
291
     1
 70
    58
 90
        2
176
     0
 90
        2
176
     0
 90
        0
176
     0
 90
        0
176
     0
 40
0.6
176
     0
 40
30.0
176
     0
 62
     7
420
 16777215
176
     0
 90
        1
176
     0
 90
        4
176
     0
 62
     7
176
     0
 62
   257
176
     0
 90
        1
176
     0
 90
        1
176
     0
 40
1.0
176
     0
 90
        9
176
     2
 62
     7
176
     0
 40
1.0
176
     0
 90
        1
176
     0
 90
        6
176
     0
 90
        2
176
     0
 62
     7
176
     0
 90
        5
176
     0
 90
        0
176
     0
 90
        0
176
     0
290
     0
176
     0
 90
        1
176
     0
 40
0.0
176
     0
 90
        0
176
     0
290
     0
176
     1
290
     1
176
     1
290
     1
176
     1
290
     0
176
     1
290
     0
176
     1
290
     0
176
     1
290
     0
176
     1
290
     0
176
     1
290
     0
176
     1
 90
       50
176
     0
 40
0.0
176
     0
 40
1.0
176
     0
 90
        0
176
     0
 62
    18
420
        0
176
     0
 90
       50
176
     0
 90
        3
176
     0
 62
     5
420
      255
176
     0
290
     0
176
     1
 90
       50
176
     0
 90
       50
176
     0
 90
       50
176
     0
290
     0
176
     1
 90
       50
176
     0
 62
   256
176
     0
 40
1.0
176
     0
 90
        2
176
     0
  1
strokes_ogs.tif
176
     0
290
     0
176
     1
 40
1.0
176
     0
 40
1.0
176
     0
1001
ACAD
1000
AcDbSavedByObjectVersion
1070
     0
  0
VISUALSTYLE
  5
10027
102
{ACAD_REACTORS
330
1001D
102
}
330
1001D
100
AcDbVisualStyle
  2
Realistic
 70
     8
177
     3
291
     0
 70
    58
 90
        2
176
     1
 90
        3
176
     1
 90
        0
176
     1
 90
        2
176
     1
 40
0.6
176
     1
 40
30.0
176
     1
 62
     7
420
 16777215
176
     1
 90
        0
176
     1
 90
        0
176
     1
 62
     7
176
     1
 62
   257
176
     1
 90
        1
176
     1
 90
        1
176
     1
 40
1.0
176
     1
 90
        8
176
     1
 62
   257
176
     1
 40
1.0
176
     1
 90
        1
176
     1
 90
        6
176
     1
 90
        2
176
     1
 62
     7
176
     1
 90
        3
176
     1
 90
        0
176
     1
 90
        0
176
     1
290
     0
176
     1
 90
       13
176
     1
 40
0.0
176
     1
 90
        0
176
     1
290
     0
176
     1
290
     1
176
     1
290
     1
176
     1
290
     0
176
     1
290
     0
176
     1
290
     0
176
     1
290
     0
176
     1
290
     0
176
     1
290
     0
176
     1
 90
       50
176
     1
 40
0.0
176
     1
 40
1.0
176
     1
 90
        0
176
     1
 62
    18
420
        0
176
     1
 90
       50
176
     1
 90
        3
176
     1
 62
     5
420
      255
176
     1
290
     0
176
     1
 90
       50
176
     1
 90
       50
176
     1
 90
       50
176
     1
290
     0
176
     1
 90
       50
176
     1
 62
   256
176
     0
 40
1.0
176
     0
 90
        2
176
     1
  1
strokes_ogs.tif
176
     1
290
     0
176
     1
 40
1.0
176
     1
 40
1.0
176
     1
1001
ACAD
1000
AcDbSavedByObjectVersion
1070
     0
  0
VISUALSTYLE
  5
10032
102
{ACAD_REACTORS
330
1001D
102
}
330
1001D
100
AcDbVisualStyle
  2
Shaded
 70
    27
177
     3
291
     0
 70
    58
 90
        2
176
     1
 90
        2
176
     1
 90
        1
176
     1
 90
        2
176
     1
 40
0.6
176
     1
 40
30.0
176
     1
 62
     7
420
 16777215
176
     1
 90
        0
176
     1
 90
        4
176
     1
 62
     7
176
     1
 62
   257
176
     1
 90
        1
176
     1
 90
        1
176
     1
 40
1.0
176
     1
 90
        8
176
     1
 62
   257
176
     1
 40
1.0
176
     1
 90
        1
176
     1
 90
        6
176
     1
 90
        2
176
     1
 62
     8
420
  7895160
176
     1
 90
        3
176
     1
 90
        0
176
     1
 90
        0
176
     1
290
     0
176
     1
 90
        5
176
     1
 40
0.0
176
     1
 90
        0
176
     1
290
     0
176
     1
290
     1
176
     1
290
     1
176
     1
290
     0
176
     1
290
     0
176
     1
290
     0
176
     1
290
     0
176
     1
290
     0
176
     1
290
     0
176
     1
 90
       50
176
     1
 40
0.0
176
     1
 40
1.0
176
     1
 90
        0
176
     1
 62
    18
420
        0
176
     1
 90
       50
176
     1
 90
        3
176
     1
 62
     5
420
      255
176
     1
290
     0
176
     1
 90
       50
176
     1
 90
       50
176
     1
 90
       50
176
     1
290
     0
176
     1
 90
       50
176
     1
 62
   256
176
     0
 40
1.0
176
     0
 90
        2
176
     1
  1
strokes_ogs.tif
176
     1
290
     0
176
     1
 40
1.0
176
     1
 40
1.0
176
     1
1001
ACAD
1000
AcDbSavedByObjectVersion
1070
     0
  0
VISUALSTYLE
  5
10031
102
{ACAD_REACTORS
330
1001D
102
}
330
1001D
100
AcDbVisualStyle
  2
Shaded with edges
 70
    26
177
     3
291
     0
 70
    58
 90
        2
176
     1
 90
        2
176
     1
 90
        1
176
     1
 90
        2
176
     1
 40
0.6
176
     1
 40
30.0
176
     1
 62
     7
420
 16777215
176
     1
 90
        1
176
     1
 90
        2
176
     1
 62
     7
176
     1
 62
   257
176
     1
 90
        2
176
     1
 90
        1
176
     1
 40
1.0
176
     1
 90
        8
176
     1
 62
   257
176
     1
 40
1.0
176
     1
 90
        1
176
     1
 90
        6
176
     1
 90
        2
176
     1
 62
     7
176
     1
 90
        3
176
     1
 90
        0
176
     1
 90
        0
176
     1
290
     0
176
     1
 90
        5
176
     1
 40
0.0
176
     1
 90
        0
176
     1
290
     0
176
     1
290
     1
176
     1
290
     1
176
     1
290
     0
176
     1
290
     0
176
     1
290
     0
176
     1
290
     0
176
     1
290
     0
176
     1
290
     0
176
     1
 90
       50
176
     1
 40
0.0
176
     1
 40
1.0
176
     1
 90
        0
176
     1
 62
    18
420
        0
176
     1
 90
       50
176
     1
 90
        3
176
     1
 62
     5
420
      255
176
     1
290
     0
176
     1
 90
       50
176
     1
 90
       50
176
     1
 90
       50
176
     1
290
     0
176
     1
 90
       50
176
     1
 62
   256
176
     0
 40
1.0
176
     0
 90
        2
176
     1
  1
strokes_ogs.tif
176
     1
290
     0
176
     1
 40
1.0
176
     1
 40
1.0
176
     1
1001
ACAD
1000
AcDbSavedByObjectVersion
1070
     0
  0
VISUALSTYLE
  5
1002E
102
{ACAD_REACTORS
330
1001D
102
}
330
1001D
100
AcDbVisualStyle
  2
Shades of Gray
 70
    23
177
     3
291
     0
 70
    58
 90
        2
176
     1
 90
        2
176
     1
 90
        3
176
     1
 90
        0
176
     1
 40
0.6
176
     1
 40
30.0
176
     1
 62
     7
420
 16777215
176
     1
 90
        2
176
     1
 90
        2
176
     1
 62
     7
176
     1
 62
     7
176
     1
 90
        1
176
     1
 90
        1
176
     1
 40
40.0
176
     1
 90
        8
176
     1
 62
     7
176
     1
 40
1.0
176
     1
 90
        1
176
     1
 90
        6
176
     1
 90
        2
176
     1
 62
     7
176
     1
 90
        3
176
     1
 90
        0
176
     1
 90
        0
176
     1
290
     0
176
     1
 90
        1
176
     1
 40
0.0
176
     1
 90
        0
176
     1
290
     0
176
     1
290
     1
176
     1
290
     1
176
     1
290
     0
176
     1
290
     0
176
     1
290
     0
176
     1
290
     0
176
     1
290
     0
176
     1
290
     0
176
     1
 90
       50
176
     1
 40
0.0
176
     1
 40
1.0
176
     1
 90
        0
176
     1
 62
    18
420
        0
176
     1
 90
       50
176
     1
 90
        3
176
     1
 62
     5
420
      255
176
     1
290
     0
176
     1
 90
       50
176
     1
 90
       50
176
     1
 90
       50
176
     1
290
     0
176
     1
 90
       50
176
     1
 62
   256
176
     0
 40
1.0
176
     0
 90
        2
176
     1
  1
strokes_ogs.tif
176
     1
290
     0
176
     1
 40
1.0
176
     1
 40
1.0
176
     1
1001
ACAD
1000
AcDbSavedByObjectVersion
1070
     0
  0
VISUALSTYLE
  5
1002F
102
{ACAD_REACTORS
330
1001D
102
}
330
1001D
100
AcDbVisualStyle
  2
Sketchy
 70
    24
177
     3
291
     0
 70
    58
 90
        1
176
     1
 90
        2
176
     1
 90
        2
176
     1
 90
        0
176
     1
 40
0.6
176
     1
 40
30.0
176
     1
 62
     7
420
 16777215
176
     1
 90
        2
176
     1
 90
        2
176
     1
 62
     7
176
     1
 62
     7
176
     1
 90
        1
176
     1
 90
        1
176
     1
 40
40.0
176
     1
 90
       11
176
     1
 62
     7
176
     1
 40
1.0
176
     1
 90
        1
176
     1
 90
        6
176
     1
 90
        2
176
     1
 62
     7
176
     1
 90
        6
176
     1
 90
        0
176
     1
 90
        0
176
     1
290
     0
176
     1
 90
        1
176
     1
 40
0.0
176
     1
 90
        0
176
     1
290
     0
176
     1
290
     1
176
     1
290
     1
176
     1
290
     0
176
     1
290
     0
176
     1
290
     0
176
     1
290
     0
176
     1
290
     0
176
     1
290
     0
176
     1
 90
       50
176
     1
 40
0.0
176
     1
 40
1.0
176
     1
 90
        0
176
     1
 62
    18
420
        0
176
     1
 90
       50
176
     1
 90
        3
176
     1
 62
     5
420
      255
176
     1
290
     0
176
     1
 90
       50
176
     1
 90
       50
176
     1
 90
       50
176
     1
290
     0
176
     1
 90
       50
176
     1
 62
   256
176
     0
 40
1.0
176
     0
 90
        2
176
     1
  1
strokes_ogs.tif
176
     1
290
     0
176
     1
 40
1.0
176
     1
 40
1.0
176
     1
1001
ACAD
1000
AcDbSavedByObjectVersion
1070
     0
  0
VISUALSTYLE
  5
1002A
102
{ACAD_REACTORS
330
1001D
102
}
330
1001D
100
AcDbVisualStyle
  2
Thicken
 70
    13
177
     3
291
     1
 70
    58
 90
        2
176
     1
 90
        2
176
     1
 90
        0
176
     1
 90
        0
176
     1
 40
0.6
176
     1
 40
30.0
176
     1
 62
     7
420
 16777215
176
     1
 90
        1
176
     1
 90
        4
176
     1
 62
     7
176
     1
 62
   257
176
     1
 90
        1
176
     1
 90
        1
176
     1
 40
1.0
176
     1
 90
       12
176
     1
 62
     7
176
     1
 40
1.0
176
     1
 90
        1
176
     1
 90
        6
176
     1
 90
        2
176
     1
 62
     7
176
     1
 90
        5
176
     1
 90
        0
176
     1
 90
        0
176
     1
290
     0
176
     1
 90
        1
176
     1
 40
0.0
176
     1
 90
        0
176
     1
290
     0
176
     1
290
     1
176
     1
290
     1
176
     1
290
     0
176
     1
290
     0
176
     1
290
     0
176
     1
290
     0
176
     1
290
     0
176
     1
290
     0
176
     1
 90
       50
176
     1
 40
0.0
176
     1
 40
1.0
176
     1
 90
        0
176
     1
 62
    18
420
        0
176
     1
 90
       50
176
     1
 90
        3
176
     1
 62
     5
420
      255
176
     1
290
     0
176
     1
 90
       50
176
     1
 90
       50
176
     1
 90
       50
176
     1
290
     0
176
     1
 90
       50
176
     1
 62
   256
176
     0
 40
1.0
176
     0
 90
        2
176
     1
  1
strokes_ogs.tif
176
     1
290
     0
176
     1
 40
1.0
176
     1
 40
1.0
176
     1
1001
ACAD
1000
AcDbSavedByObjectVersion
1070
     0
  0
VISUALSTYLE
  5
10024
102
{ACAD_REACTORS
330
1001D
102
}
330
1001D
100
AcDbVisualStyle
  2
Wireframe
 70
     5
177
     3
291
     0
 70
    58
 90
        0
176
     1
 90
        2
176
     1
 90
        0
176
     1
 90
        0
176
     1
 40
0.6
176
     1
 40
30.0
176
     1
 62
     7
420
 16777215
176
     1
 90
        1
176
     1
 90
        4
176
     1
 62
     7
176
     1
 62
   257
176
     1
 90
        1
176
     1
 90
        1
176
     1
 40
1.0
176
     1
 90
        0
176
     1
 62
   257
176
     1
 40
1.0
176
     1
 90
        1
176
     1
 90
        6
176
     1
 90
        2
176
     1
 62
     7
176
     1
 90
        3
176
     1
 90
        0
176
     1
 90
        0
176
     1
290
     0
176
     1
 90
        1
176
     1
 40
0.0
176
     1
 90
        0
176
     1
290
     0
176
     1
290
     1
176
     1
290
     1
176
     1
290
     0
176
     1
290
     0
176
     1
290
     0
176
     1
290
     0
176
     1
290
     0
176
     1
290
     0
176
     1
 90
       50
176
     1
 40
0.0
176
     1
 40
1.0
176
     1
 90
        0
176
     1
 62
    18
420
        0
176
     1
 90
       50
176
     1
 90
        3
176
     1
 62
     5
420
      255
176
     1
290
     0
176
     1
 90
       50
176
     1
 90
       50
176
     1
 90
       50
176
     1
290
     0
176
     1
 90
       50
176
     1
 62
   256
176
     0
 40
1.0
176
     0
 90
        2
176
     1
  1
strokes_ogs.tif
176
     1
290
     0
176
     1
 40
1.0
176
     1
 40
1.0
176
     1
1001
ACAD
1000
AcDbSavedByObjectVersion
1070
     0
  0
VISUALSTYLE
  5
10030
102
{ACAD_REACTORS
330
1001D
102
}
330
1001D
100
AcDbVisualStyle
  2
X-Ray
 70
    25
177
     3
291
     0
 70
    58
 90
        2
176
     1
 90
        2
176
     1
 90
        1
176
     1
 90
        1
176
     1
 40
0.5
176
     1
 40
30.0
176
     1
 62
     7
420
 16777215
176
     1
 90
        1
176
     1
 90
        0
176
     1
 62
     7
176
     1
 62
   257
176
     1
 90
        1
176
     1
 90
        1
176
     1
 40
1.0
176
     1
 90
        8
176
     1
 62
     7
176
     1
 40
1.0
176
     1
 90
        1
176
     1
 90
        6
176
     1
 90
        2
176
     1
 62
     7
176
     1
 90
        3
176
     1
 90
        0
176
     1
 90
        0
176
     1
290
     0
176
     1
 90
       13
176
     1
 40
0.0
176
     1
 90
        0
176
     1
290
     0
176
     1
290
     1
176
     1
290
     1
176
     1
290
     0
176
     1
290
     0
176
     1
290
     0
176
     1
290
     0
176
     1
290
     0
176
     1
290
     0
176
     1
 90
       50
176
     1
 40
0.0
176
     1
 40
1.0
176
     1
 90
        0
176
     1
 62
    18
420
        0
176
     1
 90
       50
176
     1
 90
        3
176
     1
 62
     5
420
      255
176
     1
290
     0
176
     1
 90
       50
176
     1
 90
       50
176
     1
 90
       50
176
     1
290
     0
176
     1
 90
       50
176
     1
 62
   256
176
     0
 40
1.0
176
     0
 90
        2
176
     1
  1
strokes_ogs.tif
176
     1
290
     0
176
     1
 40
1.0
176
     1
 40
1.0
176
     1
1001
ACAD
1000
AcDbSavedByObjectVersion
1070
     0
  0
DICTIONARYVAR
  5
10067
102
{ACAD_REACTORS
330
10061
102
}
330
10061
100
DictionaryVariables
280
     0
  1
1:1
  0
DICTIONARYVAR
  5
10063
102
{ACAD_REACTORS
330
10061
102
}
330
10061
100
DictionaryVariables
280
     0
  1
STANDARD
  0
DICTIONARYVAR
  5
10062
102
{ACAD_REACTORS
330
10061
102
}
330
10061
100
DictionaryVariables
280
     0
  1
STANDARD
  0
DICTIONARYVAR
  5
10064
102
{ACAD_REACTORS
330
10061
102
}
330
10061
100
DictionaryVariables
280
     0
  1
Imperial24
  0
DICTIONARYVAR
  5
10065
102
{ACAD_REACTORS
330
10061
102
}
330
10061
100
DictionaryVariables
280
     0
  1
Imperial24
  0
DICTIONARYVAR
  5
10069
102
{ACAD_REACTORS
330
10061
102
}
330
10061
100
DictionaryVariables
280
     0
  1
1
  0
DICTIONARYVAR
  5
1006A
102
{ACAD_REACTORS
330
10061
102
}
330
10061
100
DictionaryVariables
280
     0
  1
15
  0
DICTIONARYVAR
  5
10068
102
{ACAD_REACTORS
330
10061
102
}
330
10061
100
DictionaryVariables
280
     0
  1
0
  0
DICTIONARYVAR
  5
10066
102
{ACAD_REACTORS
330
10061
102
}
330
10061
100
DictionaryVariables
280
     0
  1
0
  0
DICTIONARY
  5
10070
330
10052
100
AcDbDictionary
280
     1
281
     1
  3
ACAD_XREC_ROUNDTRIP
360
10071
  0
DICTIONARY
  5
1000E
330
1000D
100
AcDbDictionary
280
     1
281
     1
  3
BUMPTILE
360
10010
  3
DIFFUSETILE
360
1000F
  3
OPACITYTILE
360
10013
  3
REFLECTIONTILE
360
10012
  3
REFRACTIONTILE
360
10014
  3
SPECULARTILE
360
10011
  0
DICTIONARY
  5
10006
330
10005
100
AcDbDictionary
280
     1
281
     1
  3
BUMPTILE
360
10008
  3
DIFFUSETILE
360
10007
  3
OPACITYTILE
360
1000B
  3
REFLECTIONTILE
360
1000A
  3
REFRACTIONTILE
360
1000C
  3
SPECULARTILE
360
10009
  0
DICTIONARY
  5
10016
330
10015
100
AcDbDictionary
280
     1
281
     1
  3
BUMPTILE
360
10018
  3
DIFFUSETILE
360
10017
  3
OPACITYTILE
360
1001B
  3
REFLECTIONTILE
360
1001A
  3
REFRACTIONTILE
360
1001C
  3
SPECULARTILE
360
10019
  0
DICTIONARY
  5
1006E
330
10050
100
AcDbDictionary
280
     1
281
     1
  3
ACAD_XREC_ROUNDTRIP
360
1006F
  0
DICTIONARY
  5
1006B
330
10039
100
AcDbDictionary
280
     1
281
     1
  3
ACAD_ROUNDTRIP_2008_TABLESTYLE_CELLSTYLEMAP
360
1006C
  0
XRECORD
  5
10071
102
{ACAD_REACTORS
330
10070
102
}
330
10070
100
AcDbXrecord
280
     1
102
DISPLAYNAME
  1
Imperial24
102
FLAGS
 90
        0
  0
XRECORD
  5
10010
102
{ACAD_REACTORS
330
1000E
102
}
330
1000E
100
AcDbXrecord
280
     1
270
     1
271
     1
  0
XRECORD
  5
1000F
102
{ACAD_REACTORS
330
1000E
102
}
330
1000E
100
AcDbXrecord
280
     1
270
     1
271
     1
  0
XRECORD
  5
10013
102
{ACAD_REACTORS
330
1000E
102
}
330
1000E
100
AcDbXrecord
280
     1
270
     1
271
     1
  0
XRECORD
  5
10012
102
{ACAD_REACTORS
330
1000E
102
}
330
1000E
100
AcDbXrecord
280
     1
270
     1
271
     1
  0
XRECORD
  5
10014
102
{ACAD_REACTORS
330
1000E
102
}
330
1000E
100
AcDbXrecord
280
     1
270
     1
271
     1
  0
XRECORD
  5
10011
102
{ACAD_REACTORS
330
1000E
102
}
330
1000E
100
AcDbXrecord
280
     1
270
     1
271
     1
  0
XRECORD
  5
10008
102
{ACAD_REACTORS
330
10006
102
}
330
10006
100
AcDbXrecord
280
     1
270
     1
271
     1
  0
XRECORD
  5
10007
102
{ACAD_REACTORS
330
10006
102
}
330
10006
100
AcDbXrecord
280
     1
270
     1
271
     1
  0
XRECORD
  5
1000B
102
{ACAD_REACTORS
330
10006
102
}
330
10006
100
AcDbXrecord
280
     1
270
     1
271
     1
  0
XRECORD
  5
1000A
102
{ACAD_REACTORS
330
10006
102
}
330
10006
100
AcDbXrecord
280
     1
270
     1
271
     1
  0
XRECORD
  5
1000C
102
{ACAD_REACTORS
330
10006
102
}
330
10006
100
AcDbXrecord
280
     1
270
     1
271
     1
  0
XRECORD
  5
10009
102
{ACAD_REACTORS
330
10006
102
}
330
10006
100
AcDbXrecord
280
     1
270
     1
271
     1
  0
XRECORD
  5
10018
102
{ACAD_REACTORS
330
10016
102
}
330
10016
100
AcDbXrecord
280
     1
270
     1
271
     1
  0
XRECORD
  5
10017
102
{ACAD_REACTORS
330
10016
102
}
330
10016
100
AcDbXrecord
280
     1
270
     1
271
     1
  0
XRECORD
  5
1001B
102
{ACAD_REACTORS
330
10016
102
}
330
10016
100
AcDbXrecord
280
     1
270
     1
271
     1
  0
XRECORD
  5
1001A
102
{ACAD_REACTORS
330
10016
102
}
330
10016
100
AcDbXrecord
280
     1
270
     1
271
     1
  0
XRECORD
  5
1001C
102
{ACAD_REACTORS
330
10016
102
}
330
10016
100
AcDbXrecord
280
     1
270
     1
271
     1
  0
XRECORD
  5
10019
102
{ACAD_REACTORS
330
10016
102
}
330
10016
100
AcDbXrecord
280
     1
270
     1
271
     1
  0
XRECORD
  5
1006F
102
{ACAD_REACTORS
330
1006E
102
}
330
1006E
100
AcDbXrecord
280
     1
102
DISPLAYNAME
  1
Imperial24
102
FLAGS
 90
        0
  0
CELLSTYLEMAP
  5
1006C
102
{ACAD_REACTORS
330
1006B
102
}
330
1006B
100
AcDbCellStyleMap
 90
        3
300
CELLSTYLE
  1
TABLEFORMAT_BEGIN
 90
        5
170
     1
 91
        0
 92
    32768
 62
   257
 93
        1
300
CONTENTFORMAT
  1
CONTENTFORMAT_BEGIN
 90
        0
 91
        0
 92
      512
 93
        0
300

 40
0.0
140
1.0
 94
        5
 62
     0
340
11
144
0.25
309
CONTENTFORMAT_END
171
     0
 94
        0
309
TABLEFORMAT_END
  1
CELLSTYLE_BEGIN
 90
        1
 91
        1
300
_TITLE
309
CELLSTYLE_END
300
CELLSTYLE
  1
TABLEFORMAT_BEGIN
 90
        5
170
     1
 91
        0
 92
        0
 62
   257
 93
        1
300
CONTENTFORMAT
  1
CONTENTFORMAT_BEGIN
 90
        0
 91
        0
 92
      512
 93
        0
300

 40
0.0
140
1.0
 94
        5
 62
     0
340
11
144
0.18
309
CONTENTFORMAT_END
171
     0
 94
        0
309
TABLEFORMAT_END
  1
CELLSTYLE_BEGIN
 90
        2
 91
        1
300
_HEADER
309
CELLSTYLE_END
300
CELLSTYLE
  1
TABLEFORMAT_BEGIN
 90
        5
170
     1
 91
        0
 92
        0
 62
   257
 93
        1
300
CONTENTFORMAT
  1
CONTENTFORMAT_BEGIN
 90
        0
 91
        0
 92
      512
 93
        0
300

 40
0.0
140
1.0
 94
        2
 62
     0
340
11
144
0.18
309
CONTENTFORMAT_END
171
     0
 94
        0
309
TABLEFORMAT_END
  1
CELLSTYLE_BEGIN
 90
        3
 91
        2
300
_DATA
309
CELLSTYLE_END
  0
ENDSEC
  0
EOF
