  0
SECTION
  2
HEADER
  9
$ACADVER
  1
AC1027
  9
$ACADMAINTVER
 70
   125
  9
$DWGCODEPAGE
  3
ANSI_1252
  9
$LASTSAVEDBY
  1
zz000
  9
$REQUIREDVERSIONS
160
                 0
  9
$INSBASE
 10
0.0
 20
0.0
 30
0.0
  9
$EXTMIN
 10
-4.383591272463389
 20
-464.655930215946
 30
-0.0000000000004108
  9
$EXTMAX
 10
338.7261906806251
 20
-342.7130459386955
 30
0.0000000000001465
  9
$LIMMIN
 10
0.0
 20
0.0
  9
$LIMMAX
 10
12.0
 20
9.0
  9
$ORTHOMODE
 70
     0
  9
$REGENMODE
 70
     1
  9
$FILLMODE
 70
     1
  9
$QTEXTMODE
 70
     0
  9
$MIRRTEXT
 70
     0
  9
$LTSCALE
 40
1.0
  9
$ATTMODE
 70
     1
  9
$TEXTSIZE
 40
0.2
  9
$TRACEWID
 40
0.05
  9
$TEXTSTYLE
  7
STANDARD
  9
$CLAYER
  8
0
  9
$CELTYPE
  6
Continuous
  9
$CECOLOR
 62
   256
  9
$CELTSCALE
 40
1.0
  9
$DISPSILH
 70
     0
  9
$DIMSCALE
 40
1.0
  9
$DIMASZ
 40
0.18
  9
$DIMEXO
 40
0.0625
  9
$DIMDLI
 40
0.38
  9
$DIMRND
 40
0.0
  9
$DIMDLE
 40
0.0
  9
$DIMEXE
 40
0.18
  9
$DIMTP
 40
0.0
  9
$DIMTM
 40
0.0
  9
$DIMTXT
 40
0.18
  9
$DIMCEN
 40
0.09
  9
$DIMTSZ
 40
0.0
  9
$DIMTOL
 70
     0
  9
$DIMLIM
 70
     0
  9
$DIMTIH
 70
     1
  9
$DIMTOH
 70
     1
  9
$DIMSE1
 70
     0
  9
$DIMSE2
 70
     0
  9
$DIMTAD
 70
     0
  9
$DIMZIN
 70
     0
  9
$DIMBLK
  1

  9
$DIMASO
 70
     1
  9
$DIMSHO
 70
     1
  9
$DIMPOST
  1

  9
$DIMAPOST
  1

  9
$DIMALT
 70
     0
  9
$DIMALTD
 70
     2
  9
$DIMALTF
 40
25.4
  9
$DIMLFAC
 40
1.0
  9
$DIMTOFL
 70
     0
  9
$DIMTVP
 40
0.0
  9
$DIMTIX
 70
     0
  9
$DIMSOXD
 70
     0
  9
$DIMSAH
 70
     0
  9
$DIMBLK1
  1

  9
$DIMBLK2
  1

  9
$DIMSTYLE
  2
Standard
  9
$DIMCLRD
 70
     0
  9
$DIMCLRE
 70
     0
  9
$DIMCLRT
 70
     0
  9
$DIMTFAC
 40
1.0
  9
$DIMGAP
 40
0.09
  9
$DIMJUST
 70
     0
  9
$DIMSD1
 70
     0
  9
$DIMSD2
 70
     0
  9
$DIMTOLJ
 70
     1
  9
$DIMTZIN
 70
     0
  9
$DIMALTZ
 70
     0
  9
$DIMALTTZ
 70
     0
  9
$DIMUPT
 70
     0
  9
$DIMDEC
 70
     4
  9
$DIMTDEC
 70
     4
  9
$DIMALTU
 70
     2
  9
$DIMALTTD
 70
     2
  9
$DIMTXSTY
  7
STANDARD
  9
$DIMAUNIT
 70
     0
  9
$DIMADEC
 70
     0
  9
$DIMALTRND
 40
0.0
  9
$DIMAZIN
 70
     0
  9
$DIMDSEP
 70
    46
  9
$DIMATFIT
 70
     3
  9
$DIMFRAC
 70
     0
  9
$DIMLDRBLK
  1

  9
$DIMLUNIT
 70
     2
  9
$DIMLWD
 70
    -2
  9
$DIMLWE
 70
    -2
  9
$DIMTMOVE
 70
     0
  9
$DIMFXL
 40
1.0
  9
$DIMFXLON
 70
     0
  9
$DIMJOGANG
 40
0.7853981633974483
  9
$DIMTFILL
 70
     0
  9
$DIMTFILLCLR
 70
     0
  9
$DIMARCSYM
 70
     0
  9
$DIMLTYPE
  6

  9
$DIMLTEX1
  6

  9
$DIMLTEX2
  6

  9
$DIMTXTDIRECTION
 70
     0
  9
$LUNITS
 70
     2
  9
$LUPREC
 70
     4
  9
$SKETCHINC
 40
0.1
  9
$FILLETRAD
 40
0.0
  9
$AUNITS
 70
     0
  9
$AUPREC
 70
     0
  9
$MENU
  1
.
  9
$ELEVATION
 40
0.0
  9
$PELEVATION
 40
0.0
  9
$THICKNESS
 40
0.0
  9
$LIMCHECK
 70
     0
  9
$CHAMFERA
 40
0.0
  9
$CHAMFERB
 40
0.0
  9
$CHAMFERC
 40
0.0
  9
$CHAMFERD
 40
0.0
  9
$SKPOLY
 70
     0
  9
$TDCREATE
 40
2459828.814247685
  9
$TDUCREATE
 40
2459829.105914352
  9
$TDUPDATE
 40
2459828.816087963
  9
$TDUUPDATE
 40
2459829.107754630
  9
$TDINDWG
 40
0.0018402778
  9
$TDUSRTIMER
 40
0.0018402778
  9
$USRTIMER
 70
     1
  9
$ANGBASE
 50
0.0
  9
$ANGDIR
 70
     0
  9
$PDMODE
 70
     0
  9
$PDSIZE
 40
0.0
  9
$PLINEWID
 40
0.0
  9
$SPLFRAME
 70
     0
  9
$SPLINETYPE
 70
     6
  9
$SPLINESEGS
 70
     8
  9
$HANDSEED
  5
1019E
  9
$SURFTAB1
 70
     6
  9
$SURFTAB2
 70
     6
  9
$SURFTYPE
 70
     6
  9
$SURFU
 70
     6
  9
$SURFV
 70
     6
  9
$UCSBASE
  2

  9
$UCSNAME
  2

  9
$UCSORG
 10
0.0
 20
0.0
 30
0.0
  9
$UCSXDIR
 10
1.0
 20
0.0
 30
0.0
  9
$UCSYDIR
 10
0.0
 20
1.0
 30
0.0
  9
$UCSORTHOREF
  2

  9
$UCSORTHOVIEW
 70
     0
  9
$UCSORGTOP
 10
0.0
 20
0.0
 30
0.0
  9
$UCSORGBOTTOM
 10
0.0
 20
0.0
 30
0.0
  9
$UCSORGLEFT
 10
0.0
 20
0.0
 30
0.0
  9
$UCSORGRIGHT
 10
0.0
 20
0.0
 30
0.0
  9
$UCSORGFRONT
 10
0.0
 20
0.0
 30
0.0
  9
$UCSORGBACK
 10
0.0
 20
0.0
 30
0.0
  9
$PUCSBASE
  2

  9
$PUCSNAME
  2

  9
$PUCSORG
 10
0.0
 20
0.0
 30
0.0
  9
$PUCSXDIR
 10
1.0
 20
0.0
 30
0.0
  9
$PUCSYDIR
 10
0.0
 20
1.0
 30
0.0
  9
$PUCSORTHOREF
  2

  9
$PUCSORTHOVIEW
 70
     0
  9
$PUCSORGTOP
 10
0.0
 20
0.0
 30
0.0
  9
$PUCSORGBOTTOM
 10
0.0
 20
0.0
 30
0.0
  9
$PUCSORGLEFT
 10
0.0
 20
0.0
 30
0.0
  9
$PUCSORGRIGHT
 10
0.0
 20
0.0
 30
0.0
  9
$PUCSORGFRONT
 10
0.0
 20
0.0
 30
0.0
  9
$PUCSORGBACK
 10
0.0
 20
0.0
 30
0.0
  9
$USERI1
 70
     0
  9
$USERI2
 70
     0
  9
$USERI3
 70
     0
  9
$USERI4
 70
     0
  9
$USERI5
 70
     0
  9
$USERR1
 40
0.0
  9
$USERR2
 40
0.0
  9
$USERR3
 40
0.0
  9
$USERR4
 40
0.0
  9
$USERR5
 40
0.0
  9
$WORLDVIEW
 70
     1
  9
$SHADEDGE
 70
     3
  9
$SHADEDIF
 70
    70
  9
$TILEMODE
 70
     1
  9
$MAXACTVP
 70
    64
  9
$PINSBASE
 10
0.0
 20
0.0
 30
0.0
  9
$PLIMCHECK
 70
     0
  9
$PEXTMIN
 10
1.000000000000000E+20
 20
1.000000000000000E+20
 30
1.000000000000000E+20
  9
$PEXTMAX
 10
-1.000000000000000E+20
 20
-1.000000000000000E+20
 30
-1.000000000000000E+20
  9
$PLIMMIN
 10
0.0
 20
0.0
  9
$PLIMMAX
 10
12.0
 20
9.0
  9
$UNITMODE
 70
     0
  9
$VISRETAIN
 70
     1
  9
$PLINEGEN
 70
     0
  9
$PSLTSCALE
 70
     1
  9
$TREEDEPTH
 70
  3020
  9
$CMLSTYLE
  2
Standard
  9
$CMLJUST
 70
     0
  9
$CMLSCALE
 40
1.0
  9
$PROXYGRAPHICS
 70
     1
  9
$MEASUREMENT
 70
     0
  9
$CELWEIGHT
370
    -1
  9
$ENDCAPS
280
     0
  9
$JOINSTYLE
280
     0
  9
$LWDISPLAY
290
     0
  9
$INSUNITS
 70
     4
  9
$HYPERLINKBASE
  1

  9
$STYLESHEET
  1

  9
$XEDIT
290
     1
  9
$CEPSNTYPE
380
     0
  9
$PSTYLEMODE
290
     1
  9
$FINGERPRINTGUID
  2
{AE029148-1C50-E94D-9B49-530DE2BC639E}
  9
$VERSIONGUID
  2
{0377F53B-25D5-1A4F-BB71-44EE7F82B14E}
  9
$EXTNAMES
290
     1
  9
$PSVPSCALE
 40
0.0
  9
$OLESTARTUP
290
     0
  9
$SORTENTS
280
   127
  9
$INDEXCTL
280
     0
  9
$HIDETEXT
280
     0
  9
$XCLIPFRAME
280
     2
  9
$HALOGAP
280
     0
  9
$OBSCOLOR
 70
   257
  9
$OBSLTYPE
280
     0
  9
$INTERSECTIONDISPLAY
280
     0
  9
$INTERSECTIONCOLOR
 70
   257
  9
$DIMASSOC
280
     1
  9
$PROJECTNAME
  1

  9
$CAMERADISPLAY
290
     0
  9
$LENSLENGTH
 40
50.0
  9
$CAMERAHEIGHT
 40
0.0
  9
$STEPSPERSEC
 40
2.0
  9
$STEPSIZE
 40
6.0
  9
$3DDWFPREC
 40
2.0
  9
$PSOLWIDTH
 40
0.25
  9
$PSOLHEIGHT
 40
4.0
  9
$LOFTANG1
 40
1.570796326794896
  9
$LOFTANG2
 40
1.570796326794896
  9
$LOFTMAG1
 40
0.0
  9
$LOFTMAG2
 40
0.0
  9
$LOFTPARAM
 70
     7
  9
$LOFTNORMALS
280
     1
  9
$LATITUDE
 40
37.795
  9
$LONGITUDE
 40
-122.394
  9
$NORTHDIRECTION
 40
0.0
  9
$TIMEZONE
 70
 -8000
  9
$LIGHTGLYPHDISPLAY
280
     1
  9
$TILEMODELIGHTSYNCH
280
     1
  9
$CMATERIAL
347
10005
  9
$SOLIDHIST
280
     0
  9
$SHOWHIST
280
     1
  9
$DWFFRAME
280
     2
  9
$DGNFRAME
280
     0
  9
$REALWORLDSCALE
290
     1
  9
$INTERFERECOLOR
 62
     1
  9
$INTERFEREOBJVS
345
10027
  9
$INTERFEREVPVS
346
10024
  9
$CSHADOW
280
     0
  9
$SHADOWPLANELOCATION
 40
0.0
  0
ENDSEC
  0
SECTION
  2
CLASSES
  0
CLASS
  1
ACDBDICTIONARYWDFLT
  2
AcDbDictionaryWithDefault
  3
ObjectDBX Classes
 90
        0
 91
        1
280
     0
281
     0
  0
CLASS
  1
MATERIAL
  2
AcDbMaterial
  3
ObjectDBX Classes
 90
     1153
 91
        3
280
     0
281
     0
  0
CLASS
  1
VISUALSTYLE
  2
AcDbVisualStyle
  3
ObjectDBX Classes
 90
     4095
 91
       24
280
     0
281
     0
  0
CLASS
  1
TABLESTYLE
  2
AcDbTableStyle
  3
ObjectDBX Classes
 90
     4095
 91
        1
280
     0
281
     0
  0
CLASS
  1
SCALE
  2
AcDbScale
  3
ObjectDBX Classes
 90
     1153
 91
       17
280
     0
281
     0
  0
CLASS
  1
MLEADERSTYLE
  2
AcDbMLeaderStyle
  3
ACDB_MLEADERSTYLE_CLASS
 90
     4095
 91
        1
280
     0
281
     0
  0
CLASS
  1
ACDBSECTIONVIEWSTYLE
  2
AcDbSectionViewStyle
  3
ObjectDBX Classes
 90
     1025
 91
        1
280
     0
281
     0
  0
CLASS
  1
ACDBDETAILVIEWSTYLE
  2
AcDbDetailViewStyle
  3
ObjectDBX Classes
 90
     1025
 91
        1
280
     0
281
     0
  0
CLASS
  1
SOLID_BACKGROUND
  2
AcDbSolidBackground
  3
SCENEOE
 90
     4095
 91
        1
280
     0
281
     0
  0
CLASS
  1
NPOCOLLECTION
  2
AcDbImpNonPersistentObjectsCollection
  3
ObjectDBX Classes
 90
     1153
 91
        1
280
     0
281
     0
  0
CLASS
  1
GROUND_PLANE_BACKGROUND
  2
AcDbGroundPlaneBackground
  3
SCENEOE
 90
     4095
 91
        1
280
     0
281
     0
  0
CLASS
  1
DICTIONARYVAR
  2
AcDbDictionaryVar
  3
ObjectDBX Classes
 90
        0
 91
        9
280
     0
281
     0
  0
CLASS
  1
CELLSTYLEMAP
  2
AcDbCellStyleMap
  3
ObjectDBX Classes
 90
     1152
 91
        2
280
     0
281
     0
  0
ENDSEC
  0
SECTION
  2
TABLES
  0
TABLE
  2
VPORT
  5
8
330
0
100
AcDbSymbolTable
 70
     1
1001
ACAD
1000
DbSaveVer
1071
      247
  0
VPORT
  5
10059
330
8
100
AcDbSymbolTableRecord
100
AcDbViewportTableRecord
  2
*Active
 70
     0
 10
0.0
 20
0.0
 11
1.0
 21
1.0
 12
108.1124219506509
 22
-12.4029456382342
 13
0.0
 23
0.0
 14
1.0
 24
1.0
 15
0.0
 25
0.0
 16
-0.0000000000001137
 26
0.0
 36
519.6249498068801
 17
72.37950730323792
 27
-398.6804656982422
 37
-0.0000000000000083
 40
304.142862278516
 41
2.025141930251419
 42
50.0
 43
0.0
 44
0.0
 50
0.0
 51
0.0
 71
     0
 72
  1000
 73
     1
 74
     3
 75
     0
 76
     0
 77
     0
 78
     0
281
     0
 65
     1
110
0.0
120
0.0
130
0.0
111
1.0
121
0.0
131
0.0
112
0.0
122
1.0
132
0.0
 79
     0
146
0.0
348
10023
 60
     3
 61
     5
292
     1
282
     1
141
0.0
142
0.0
 63
   250
421
  3355443
1001
ACAD_NAV_VCDISPLAY
1070
     3
  0
ENDTAB
  0
TABLE
  2
LTYPE
  5
5
330
0
100
AcDbSymbolTable
 70
     1
  0
LTYPE
  5
14
330
5
100
AcDbSymbolTableRecord
100
AcDbLinetypeTableRecord
  2
BYBLOCK
 70
     0
  3

 72
    65
 73
     0
 40
0.0
  0
LTYPE
  5
15
330
5
100
AcDbSymbolTableRecord
100
AcDbLinetypeTableRecord
  2
BYLAYER
 70
     0
  3

 72
    65
 73
     0
 40
0.0
  0
LTYPE
  5
10001
330
5
100
AcDbSymbolTableRecord
100
AcDbLinetypeTableRecord
  2
Continuous
 70
     0
  3
Solid line
 72
    65
 73
     0
 40
0.0
  0
ENDTAB
  0
TABLE
  2
LAYER
  5
2
102
{ACAD_XDICTIONARY
360
10189
102
}
330
0
100
AcDbSymbolTable
 70
     1
  0
LAYER
  5
50
102
{ACAD_XDICTIONARY
360
1005F
102
}
330
2
100
AcDbSymbolTableRecord
100
AcDbLayerTableRecord
  2
0
 70
     0
 62
     7
  6
Continuous
370
    -3
390
10003
347
10015
348
0
  0
ENDTAB
  0
TABLE
  2
STYLE
  5
3
330
0
100
AcDbSymbolTable
 70
     1
  0
STYLE
  5
11
330
3
100
AcDbSymbolTableRecord
100
AcDbTextStyleTableRecord
  2
STANDARD
 70
     0
 40
0.0
 41
1.0
 50
0.0
 71
     0
 42
0.2
  3

  4

  0
ENDTAB
  0
TABLE
  2
VIEW
  5
6
330
0
100
AcDbSymbolTable
 70
     1
  0
ENDTAB
  0
TABLE
  2
UCS
  5
7
330
0
100
AcDbSymbolTable
 70
     0
  0
ENDTAB
  0
TABLE
  2
APPID
  5
9
330
0
100
AcDbSymbolTable
 70
     2
  0
APPID
  5
12
330
9
100
AcDbSymbolTableRecord
100
AcDbRegAppTableRecord
  2
ACAD
 70
     0
  0
APPID
  5
10058
330
9
100
AcDbSymbolTableRecord
100
AcDbRegAppTableRecord
  2
ACAD_NAV_VCDISPLAY
 70
     0
  0
ENDTAB
  0
TABLE
  2
DIMSTYLE
  5
A
330
0
100
AcDbSymbolTable
 70
     1
100
AcDbDimStyleTable
 71
     0
  0
DIMSTYLE
105
10053
330
A
100
AcDbSymbolTableRecord
100
AcDbDimStyleTableRecord
  2
Standard
 70
     0
340
11
  0
ENDTAB
  0
TABLE
  2
BLOCK_RECORD
  5
1
330
0
100
AcDbSymbolTable
 70
     1
  0
BLOCK_RECORD
  5
1F
330
1
100
AcDbSymbolTableRecord
100
AcDbBlockTableRecord
  2
*MODEL_SPACE
340
10055
 70
     0
280
     1
281
     0
  0
BLOCK_RECORD
  5
1B
330
1
100
AcDbSymbolTableRecord
100
AcDbBlockTableRecord
  2
*PAPER_SPACE
340
10056
 70
     0
280
     1
281
     0
  0
ENDTAB
  0
ENDSEC
  0
SECTION
  2
BLOCKS
  0
BLOCK
  5
20
330
1F
100
AcDbEntity
  8
0
100
AcDbBlockBegin
  2
*MODEL_SPACE
 70
     0
 10
0.0
 20
0.0
 30
0.0
  3
*MODEL_SPACE
  1

  0
ENDBLK
  5
21
330
1F
100
AcDbEntity
  8
0
100
AcDbBlockEnd
  0
BLOCK
  5
1C
330
1B
100
AcDbEntity
 67
     1
  8
0
100
AcDbBlockBegin
  2
*PAPER_SPACE
 70
     0
 10
0.0
 20
0.0
 30
0.0
  3
*PAPER_SPACE
  1

  0
ENDBLK
  5
1D
330
1B
100
AcDbEntity
 67
     1
  8
0
100
AcDbBlockEnd
  0
ENDSEC
  0
SECTION
  2
ENTITIES
  0
LWPOLYLINE
  5
100
330
1F
100
AcDbEntity
  8
0
100
AcDbPolyline
 90
       49
 70
     1
 43
0.0
 10
26.7577743098664
 20
-451.009743656472
 10
-2.373078158677746
 20
-451.162893127227
 42
-0.4141769511945301
 10
-4.383563633890754
 20
-449.1736852059778
 42
-0.4142135623731062
 10
-2.394105716179338
 20
-447.1631984008353
 42
0.414213562373107
 10
-0.4046477984678721
 20
-445.1527115956919
 10
-0.5678863771851895
 20
-414.1027906893687
 42
-0.3506295267684112
 10
0.9817578322181233
 20
-412.1436345249932
 42
0.350629526768408
 10
2.53140204162138
 20
-410.184478360618
 10
2.45067059910914
 20
-394.8283969467988
 42
-0.3221723970774405
 10
3.803759748346244
 20
-392.9253862389422
 42
0.3221723970774332
 10
5.156848897583312
 20
-391.0223755310857
 10
5.077727708621075
 20
-375.9725835113448
 42
-0.3814251645492653
 10
6.841281079338275
 20
-373.9760917110531
 42
0.381425164549265
 10
8.604834450055541
 20
-371.9795999107615
 10
8.546607488139954
 20
-360.9041386055907
 42
0.4142135646613243
 10
6.5361206673719
 20
-358.9146806879614
 42
-0.4141769511946153
 10
4.525635192158881
 20
-356.9254727667127
 42
-0.4142135623730961
 10
6.515093109870305
 20
-354.9149859615695
 10
48.62864709722531
 20
-354.6935826053947
 42
0.2643960582720213
 10
50.34211294194982
 20
-353.7074603142782
 42
-0.3116546745551083
 10
52.40303008064579
 20
-352.7498962832556
 10
147.4854266980596
 20
-369.0005476351883
 42
-1.000000010536712
 10
146.8115529975475
 20
-372.943375837857
 42
0.4142135623732229
 10
144.5032020459563
 20
-374.5778530889351
 10
142.4815809444205
 20
-386.4063376969406
 42
-0.4142135623730602
 10
140.1732299928306
 20
-388.0408149480187
 10
134.7266317794506
 20
-387.1099300337917
 42
0.4142135623729548
 10
132.4182808278613
 20
-388.7444072848701
 10
130.0429435285642
 20
-402.6424817866649
 42
0.4142135623729479
 10
131.6774207796415
 20
-404.950832738255
 10
132.4287372731145
 20
-405.0792411800354
 42
-0.4142135623731049
 10
134.0632145241928
 20
-407.3875921316258
 10
131.5276279248902
 20
-422.223283666172
 42
0.4142135623729403
 10
133.1621051759675
 20
-424.5316346177619
 10
138.6087821641934
 20
-425.4625329954967
 42
-0.4142135623730648
 10
140.2432594152717
 20
-427.7708839470867
 10
135.0124725161022
 20
-458.3761651630211
 42
0.4142135623730884
 10
136.6469497671804
 20
-460.6845161146114
 42
-1.0
 10
135.9730760666684
 20
-464.6273443172804
 10
79.37792826468251
 20
-454.9545968071188
 42
0.2606212467377562
 10
77.53773935747962
 20
-455.606831901159
 42
-0.2606212467377555
 10
75.69755045027702
 20
-456.2590669951993
 10
50.47353321376015
 20
-451.9479986545979
 42
-0.4142135623730831
 10
48.8390559626819
 20
-449.6396477030081
 10
51.48184300226034
 20
-434.176727477188
 42
0.4663076581549975
 10
49.49991445721018
 20
-431.8398182655045
 10
30.65756843060493
 20
-431.9388780278263
 42
0.4142135623730827
 10
28.66811051289343
 20
-433.9493648329693
 10
28.74723222757793
 20
-448.9992568513279
 42
-0.4142135623731151
  0
LWPOLYLINE
  5
101
330
1F
100
AcDbEntity
  8
0
100
AcDbPolyline
 90
        8
 70
     1
 43
0.0
 10
57.49614584833111
 20
-412.7323818136055
 42
-0.043660942908512
 10
59.40712796517693
 20
-412.8894522441175
 10
127.4947333995584
 20
-424.5263900650504
 42
1.000000010536712
 10
127.6632018350725
 20
-423.5406830161584
 10
59.48935819781447
 20
-411.8890061160898
 42
0.043660942908514
 10
57.57837608096862
 20
-411.7319356855776
 10
5.085602874192264
 20
-412.0079056539731
 42
0.9999999894632878
 10
5.090860106586809
 20
-413.0078918346312
  0
LWPOLYLINE
  5
102
330
1F
100
AcDbEntity
  8
0
100
AcDbPolyline
 90
        8
 70
     1
 43
0.0
 10
59.06132603492004
 20
-393.6738899393608
 42
-0.0436609429085105
 10
60.97230815176576
 20
-393.830960369873
 10
126.0099633663115
 20
-404.9466273833111
 42
1.0
 10
126.1784317914395
 20
-403.9609203326439
 10
61.05453838440332
 20
-392.8305142418452
 42
0.043660942908514
 10
59.14355626755746
 20
-392.6734438113331
 10
12.60453750603007
 20
-392.9181131391696
 42
0.9999999894632878
 10
12.60979473842464
 20
-393.9180993198278
  0
LWPOLYLINE
  5
103
330
1F
100
AcDbEntity
  8
0
100
AcDbPolyline
 90
        8
 70
     1
 43
0.0
 10
22.06013890003222
 20
-374.8181528163066
 42
-1.0
 10
22.05488167817426
 20
-373.8181666355929
 10
60.71602256540857
 20
-373.6149136318557
 42
-0.0436609429085099
 10
62.62700468225426
 20
-373.7719840623678
 10
129.3877047462476
 20
-385.1821388265172
 42
-1.0
 10
129.2192363211195
 20
-386.1678458771844
 10
62.54477444961697
 20
-374.7724301903955
 42
0.0436609429085103
 10
60.63379233277129
 20
-374.6153597598835
  0
LWPOLYLINE
  5
104
330
1F
100
AcDbEntity
  8
0
100
AcDbPolyline
 90
        4
 70
     1
 43
0.0
 10
59.830556031016
 20
-432.3047495697704
 42
-1.000000010536712
 10
59.99902445614389
 20
-431.3190425191033
 10
133.8398829400544
 20
-443.9392760159284
 42
-1.000000010536712
 10
133.6714145149275
 20
-444.9249830665951
  0
ELLIPSE
  5
105
330
1F
100
AcDbEntity
  8
0
100
AcDbEllipse
 10
75.23790405145866
 20
-452.1347841717
 30
0.0000000000000622
 11
-0.7249909508430456
 21
0.6891705781377656
 31
0.0
210
0.0
220
0.0
230
-1.0
 40
0.9997161386241602
 41
2.549164474064232
 42
5.690757127654072
  0
LINE
  5
106
330
1F
100
AcDbEntity
  8
0
100
AcDbLine
 10
76.2240551293617
 20
-452.30180792249
 30
0.0000000000000622
 11
78.22489809603876
 21
-440.4694165156539
 31
0.0000000000000056
  0
ELLIPSE
  5
107
330
1F
100
AcDbEntity
  8
0
100
AcDbEllipse
 10
77.23874701813578
 20
-440.3023927648639
 30
0.0000000000000244
 11
-0.7249909508428221
 21
0.689170578138001
 31
0.0
210
0.0
220
0.0
230
-1.0
 40
0.9997161386241602
 41
5.690757127653852
 42
8.832349781243504
  0
LINE
  5
108
330
1F
100
AcDbEntity
  8
0
100
AcDbLine
 10
76.25259594023273
 20
-440.1353690140738
 30
0.0000000000000244
 11
74.25175297355557
 21
-451.96776042091
 31
0.0000000000000622
  0
LWPOLYLINE
  5
109
330
1F
100
AcDbEntity
  8
0
100
AcDbPolyline
 90
        4
 70
     1
 43
0.0
 10
3.338407565158143
 20
-447.117680230314
 42
-1.0
 10
1.338435203730781
 20
-447.1281946740299
 10
1.275352186108502
 20
-435.1290537656904
 42
-1.0
 10
3.275324547535882
 20
-435.1185393219743
  0
LWPOLYLINE
  5
110
330
1F
100
AcDbEntity
  8
0
100
AcDbPolyline
 90
        4
 70
     1
 43
0.0
 10
27.15061849284987
 20
-446.992492424532
 42
-1.0
 10
25.1506461314225
 20
-447.0030068682479
 10
25.08756311380023
 20
-435.0038659599088
 42
-1.0
 10
27.08753547522754
 20
-434.9933515161929
  0
LWPOLYLINE
  5
111
330
1F
100
AcDbEntity
  8
0
100
AcDbPolyline
 90
        4
 70
     1
 43
0.0
 10
8.752617836625331
 20
-389.9383263478685
 42
-1.0
 10
6.752645475197968
 20
-389.9488407915845
 10
6.689562457575686
 20
-377.9496998832449
 42
-1.0
 10
8.689534819003068
 20
-377.9391854395287
  0
LWPOLYLINE
  5
112
330
1F
100
AcDbEntity
  8
0
100
AcDbPolyline
 90
        4
 70
     1
 43
0.0
 10
8.375974502055205
 20
-408.9905697338459
 42
-1.0
 10
6.376002140627841
 20
-409.0010841775619
 10
6.312919123005559
 20
-397.0019432692224
 42
-1.0
 10
8.312891484432835
 20
-396.9914288255064
  0
LWPOLYLINE
  5
113
330
1F
100
AcDbEntity
  8
0
100
AcDbPolyline
 90
        8
 70
     1
 43
0.0
 10
31.19471645347886
 20
-409.8706187065364
 10
33.88067933487585
 20
-409.8564978086261
 42
0.414213562373104
 10
34.87540829373151
 20
-408.8512544060543
 10
34.81232527610921
 20
-396.8521134977149
 42
0.4142135623731445
 10
33.80708187353754
 20
-395.8573845388591
 10
31.12111899214064
 20
-395.8715054367695
 42
0.4142135623730833
 10
30.12639003328498
 20
-396.8767488393414
 10
30.18947305090727
 20
-408.8758897476806
 42
0.4142135623730758
  0
LWPOLYLINE
  5
114
330
1F
100
AcDbEntity
  8
0
100
AcDbPolyline
 90
        4
 70
     1
 43
0.0
 10
32.56478876486993
 20
-389.8131387523759
 42
-1.0
 10
30.56481640344257
 20
-389.8236531960919
 10
30.50173338582029
 20
-377.8245122877523
 42
-1.0
 10
32.50170574724761
 20
-377.8139978440364
  0
LINE
  5
115
330
1F
100
AcDbEntity
  8
0
100
AcDbLine
 10
36.63321688745029
 20
-428.9154841414275
 30
0.0000000000000377
 11
39.60522743427949
 21
-428.9013699913727
 31
-0.0000000000000011
  0
ELLIPSE
  5
116
330
1F
100
AcDbEntity
  8
0
100
AcDbEllipse
 10
39.6028529412009
 20
-428.4013742859118
 30
0.0000000000000289
 11
0.0026286179970808
 21
-0.4999944340335579
 31
0.0
210
0.0
220
0.0
230
-1.0
 40
0.999997312616608
 41
4.712388980392761
 42
6.283693563383143
  0
LINE
  5
117
330
1F
100
AcDbEntity
  8
0
100
AcDbLine
 10
40.10284603155772
 20
-428.3987456749829
 30
0.0000000000000289
 11
40.03437593766061
 21
-415.3749187300327
 31
0.0000000000000211
  0
ARC
  5
118
330
1F
100
AcDbEntity
  8
0
100
AcDbCircle
 10
39.53438284730371
 20
-415.3775473409615
 30
0.00000000000001
 40
0.499999999999997
100
AcDbArc
 50
0.301218011959106
 51
90.30121801195672
  0
LINE
  5
119
330
1F
100
AcDbEntity
  8
0
100
AcDbLine
 10
39.53175423637481
 20
-414.8775542506048
 30
0.00000000000001
 11
5.101640042556114
 21
-415.0585635009352
 31
0.0000000000000444
  0
ARC
  5
120
330
1F
100
AcDbEntity
  8
0
100
AcDbCircle
 10
5.104268653485113
 20
-415.558556591292
 30
0.0000000000000444
 40
0.4999999999999986
100
AcDbArc
 50
90.30121801196775
 51
185.5085260328465
  0
LINE
  5
121
330
1F
100
AcDbEntity
  8
0
100
AcDbLine
 10
4.606577691087916
 20
-415.6065535281542
 30
0.0000000000000444
 11
4.66817029094579
 21
-428.5672799397685
 31
0.0000000000000633
  0
ELLIPSE
  5
122
330
1F
100
AcDbEntity
  8
0
100
AcDbEllipse
 10
5.168165136429991
 20
-428.5649054521399
 30
0.0000000000000133
 11
-0.2592769615155481
 21
0.4275246011972583
 31
0.0
210
0.0
220
0.0
230
-1.0
 40
0.9999963452168172
 41
3.681998688651287
 42
5.252795015446213
  0
LINE
  5
123
330
1F
100
AcDbEntity
  8
0
100
AcDbLine
 10
5.170541240512989
 20
-429.0649011499501
 30
0.0000000000000133
 11
5.757535189111486
 21
-429.0621135014739
 31
0.0000000000000033
  0
LINE
  5
124
330
1F
100
AcDbEntity
  8
0
100
AcDbLine
 10
5.757535189111486
 20
-429.0621135014739
 30
0.0000000000000033
 11
5.764663501360585
 21
-430.5621005949047
 31
0.0000000000000333
  0
ELLIPSE
  5
125
330
1F
100
AcDbEntity
  8
0
100
AcDbEllipse
 10
6.264658346844784
 20
-430.5597261072758
 30
-0.0000000000000167
 11
-0.2592769615111846
 21
0.4275246011999056
 31
0.0
210
0.0
220
0.0
230
-1.0
 40
0.9999963452168159
 41
3.681998688640972
 42
5.252795015435665
  0
LINE
  5
126
330
1F
100
AcDbEntity
  8
0
100
AcDbLine
 10
6.267034450927785
 20
-431.0597218050862
 30
-0.0000000000000167
 11
12.26697259673798
 21
-431.0312279535422
 31
0.0000000000000355
  0
ELLIPSE
  5
127
330
1F
100
AcDbEntity
  8
0
100
AcDbEllipse
 10
12.26459649265488
 20
-430.5312322557318
 30
0.0000000000000555
 11
0.2592769615290176
 21
-0.4275246011890976
 31
0.0
210
0.0
220
0.0
230
-1.0
 40
0.9999963452168174
 41
5.252795015477651
 42
6.823591342272247
  0
LINE
  5
128
330
1F
100
AcDbEntity
  8
0
100
AcDbLine
 10
12.76459133813907
 20
-430.5288577681031
 30
0.0000000000000566
 11
12.75746302588989
 21
-429.0288706746724
 31
-0.0000000000000233
  0
LINE
  5
129
330
1F
100
AcDbEntity
  8
0
100
AcDbLine
 10
12.75746302588989
 20
-429.0288706746724
 30
-0.0000000000000233
 11
29.63328905067179
 21
-428.948726968229
 31
0.0000000000000444
  0
LINE
  5
130
330
1F
100
AcDbEntity
  8
0
100
AcDbLine
 10
29.63328905067179
 20
-428.948726968229
 30
0.0000000000000444
 11
29.64041736292095
 21
-430.4487140616599
 31
-0.0000000000000155
  0
ELLIPSE
  5
131
330
1F
100
AcDbEntity
  8
0
100
AcDbEllipse
 10
30.14041220840517
 20
-430.4463395740312
 30
0.0000000000000344
 11
-0.2592769615066693
 21
0.4275246012026403
 31
0.0
210
0.0
220
0.0
230
-1.0
 40
0.9999963452168174
 41
3.681998688630473
 42
5.25279501542538
  0
LINE
  5
132
330
1F
100
AcDbEntity
  8
0
100
AcDbLine
 10
30.14278831248818
 20
-430.9463352718415
 30
0.0000000000000344
 11
36.14272645829828
 21
-430.9178414202971
 31
-0.0000000000000133
  0
ELLIPSE
  5
133
330
1F
100
AcDbEntity
  8
0
100
AcDbEllipse
 10
36.14035035421529
 20
-430.417845722487
 30
0.0000000000000167
 11
0.2592769615290176
 21
-0.4275246011890976
 31
0.0
210
0.0
220
0.0
230
-1.0
 40
0.9999963452168174
 41
5.252795015477428
 42
6.823591342272432
  0
LINE
  5
134
330
1F
100
AcDbEntity
  8
0
100
AcDbLine
 10
36.64034519969947
 20
-430.4154712348583
 30
0.0000000000000178
 11
36.63321688745029
 21
-428.9154841414275
 31
0.0000000000000377
  0
LWPOLYLINE
  5
135
330
1F
100
AcDbEntity
  8
0
100
AcDbPolyline
 90
        8
 70
     1
 43
0.0
 10
94.92346844953706
 20
-396.5902170677097
 10
107.7371633851356
 20
-398.780235783837
 42
0.4142150155486184
 10
108.3142519773662
 20
-398.37161464214
 10
110.5042796165788
 20
-385.5574846483299
 42
0.4141836281099616
 10
110.0957084276878
 20
-384.9804071127388
 10
97.28191380047658
 20
-382.7890889049304
 42
0.4142506430430455
 10
96.70477522795099
 20
-383.197713877168
 10
94.51484728035165
 20
-396.0131433626593
 42
0.4142049636209089
  0
LWPOLYLINE
  5
136
330
1F
100
AcDbEntity
  8
0
100
AcDbPolyline
 90
        8
 70
     1
 43
0.0
 10
98.98359364138478
 20
-421.7335910235989
 10
86.1681184246459
 20
-419.5438408074743
 42
0.414201933244243
 10
85.59105133943029
 20
-419.9524649953467
 10
83.40103140269135
 20
-432.7664542088641
 42
0.4142210712826059
 10
83.80966488182348
 20
-433.3435430219672
 10
96.62514107467487
 20
-435.5334789510198
 42
0.4142067800666557
 10
97.20221530212022
 20
-435.1248547252703
 10
99.39223426274615
 20
-422.3106797988249
 42
0.4142244650245389
  0
LWPOLYLINE
  5
137
330
1F
100
AcDbEntity
  8
0
100
AcDbPolyline
 90
        8
 70
     1
 43
0.0
 10
119.9376705996001
 20
-445.1473122890651
 10
117.7476598117663
 20
-457.961477679835
 42
0.4142190502277713
 10
118.156291607918
 20
-458.538564695379
 10
130.9711436212434
 20
-460.7284457106292
 42
0.4142234119126521
 10
131.5482242343005
 20
-460.3197957623961
 10
133.7373135445185
 20
-447.5069816660091
 42
0.4141702062973052
 10
133.3287337208124
 20
-446.9299300971916
 10
120.5148031851038
 20
-444.7386977875583
 42
0.4142415820403182
  0
LWPOLYLINE
  5
138
330
1F
100
AcDbEntity
  8
0
100
AcDbPolyline
 90
        8
 70
     1
 43
0.0
 10
128.0797323421106
 20
-369.2357172059721
 10
125.8906433630887
 20
-382.0484432224322
 42
0.4141782877832298
 10
126.2992361417335
 20
-382.6254975725561
 10
139.1141608471935
 20
-384.8165506731426
 42
0.4142336817761978
 10
139.6912803419889
 20
-384.4079341849142
 10
141.881290555696
 20
-371.5938104381885
 42
0.4142279777896608
 10
141.4726440233835
 20
-371.0167206530085
 10
128.6567980832385
 20
-368.8270652826876
 42
0.4142143028001162
  0
LWPOLYLINE
  5
139
330
1F
100
AcDbEntity
  8
0
100
AcDbPolyline
 90
        8
 70
     1
 43
0.0
 10
128.8737855501105
 20
-388.1890725616464
 10
116.0598963352297
 20
-385.9990533575179
 42
0.4142142889500955
 10
115.4828089656509
 20
-386.4076747081798
 10
113.2927829993837
 20
-399.2217949133746
 42
0.4141901723613581
 10
113.7013652003771
 20
-399.7988743320456
 10
126.5152597857446
 20
-401.9899149494932
 42
0.4142409486532834
 10
127.0923864404294
 20
-401.5812933943787
 10
129.2824070362074
 20
-388.7661517758641
 42
0.414208839994681
  0
LWPOLYLINE
  5
140
330
1F
100
AcDbEntity
  8
0
100
AcDbPolyline
 90
        8
 70
     1
 43
0.0
 10
130.3587305358965
 20
-407.7687382296972
 10
117.5448491442211
 20
-405.5788131348919
 42
0.4142122285904429
 10
116.9677652416277
 20
-405.9874350780828
 10
114.777745200326
 20
-418.8015206155547
 42
0.414212835795942
 10
115.1863655373259
 20
-419.3786065535613
 10
128.0002474171935
 20
-421.568624504064
 42
0.4142146522317058
 10
128.5773348912478
 20
-421.1600025421066
 10
130.7673544443576
 20
-408.3458241489375
 42
0.4142145328761429
  0
LWPOLYLINE
  5
141
330
1F
100
AcDbEntity
  8
0
100
AcDbPolyline
 90
        8
 70
     1
 43
0.0
 10
136.5389452538465
 20
-428.1522200865697
 10
123.7250986552992
 20
-425.9622081659904
 42
0.4142150155076988
 10
123.1480110767727
 20
-426.3708307392352
 10
120.9579903745694
 20
-439.1851115682119
 42
0.4142125970539408
 10
121.3666117413654
 20
-439.7621964239259
 10
134.1795288046235
 20
-441.9520275145319
 42
0.4141931982390016
 10
134.7566094269658
 20
-441.5434406922831
 10
136.9475596644598
 20
-428.7293406932795
 42
0.4142334389789721
  0
LWPOLYLINE
  5
142
330
1F
100
AcDbEntity
  8
0
100
AcDbPolyline
 90
        8
 70
     1
 43
0.0
 10
70.19854631809315
 20
-451.768985988109
 10
72.3885693859077
 20
-438.9534470527806
 42
0.4142075116268649
 10
71.9799472725349
 20
-438.3763702475191
 10
59.16710879843209
 20
-436.1865362305039
 42
0.4141856840902631
 10
58.59002983133446
 20
-436.5951096927587
 10
56.39869994004752
 20
-449.4093554829029
 42
0.4142176828778227
 10
56.80727231595208
 20
-449.9864825467105
 10
69.6214176135271
 20
-452.1776097089103
 42
0.4142433715056029
  0
LWPOLYLINE
  5
143
330
1F
100
AcDbEntity
  8
0
100
AcDbPolyline
 90
        8
 70
     1
 43
0.0
 10
117.7598290900716
 20
-424.9421194408683
 10
104.9459516081677
 20
-422.7524733309923
 42
0.4142056842135162
 10
104.3688782110868
 20
-423.1610964403297
 10
102.178857681615
 20
-435.9750891219779
 42
0.4142152594433163
 10
102.5874813811247
 20
-436.5521762638183
 10
115.4013603276129
 20
-438.7421009407348
 42
0.4142129551468058
 10
115.9784444391532
 20
-438.3334777749604
 10
118.1684635040406
 20
-425.5192065262717
 42
0.4142203507281188
  0
LWPOLYLINE
  5
144
330
1F
100
AcDbEntity
  8
0
100
AcDbPolyline
 90
        8
 70
     1
 43
0.0
 10
111.5816015394733
 20
-404.5602099836763
 10
98.76702052060977
 20
-402.3701870507312
 42
0.4142117460206941
 10
98.18993743004227
 20
-402.7788091326987
 10
95.99991798127518
 20
-415.5928912031723
 42
0.4142153787277934
 10
96.40854259728728
 20
-416.1699778724852
 10
109.2231236161512
 20
-418.3600008054302
 42
0.4142117460206188
 10
109.8002067067186
 20
-417.9513787234626
 10
111.9902261554853
 20
-405.137296652989
 42
0.4142153787279659
  0
LWPOLYLINE
  5
145
330
1F
100
AcDbEntity
  8
0
100
AcDbPolyline
 90
        8
 70
     1
 43
0.0
 10
122.6935302000902
 20
-367.8066871704884
 10
109.8806518375767
 20
-365.6170482376183
 42
0.4142096801139842
 10
109.3035722233405
 20
-366.0256709136815
 10
107.1135521820018
 20
-378.8397564513689
 42
0.4142153841228061
 10
107.5221768070921
 20
-379.416843122233
 10
120.3350556578858
 20
-381.606574910287
 42
0.4142121039063333
 10
120.9121388438497
 20
-381.1979522154718
 10
123.1021583969083
 20
-368.3837738226005
 42
0.4142170813611198
  0
LWPOLYLINE
  5
146
330
1F
100
AcDbEntity
  8
0
100
AcDbPolyline
 90
        8
 70
     1
 43
0.0
 10
20.58236756740941
 20
-434.0274400181502
 42
-0.4142135623730456
 10
21.08498926869516
 20
-434.524804497578
 10
21.15332999851557
 20
-447.5240248551469
 42
-0.4142135623731397
 10
20.65596551908764
 20
-448.0266465564329
 10
7.656605163452859
 20
-448.0949880222648
 42
-0.4142135623730402
 10
7.153983462167157
 20
-447.5976235428369
 10
7.085642732346737
 20
-434.5984031852674
 42
-0.4142135623731356
 10
7.583007211774582
 20
-434.0957814839815
  0
LWPOLYLINE
  5
147
330
1F
100
AcDbEntity
  8
0
100
AcDbPolyline
 90
        8
 70
     1
 43
0.0
 10
25.51506335424781
 20
-371.2999408927704
 42
-0.4142135623731445
 10
25.01769887481988
 20
-371.8025625940561
 10
12.01847851725047
 20
-371.8709033238767
 42
-0.4142135623730809
 10
11.51585681596468
 20
-371.3735388444488
 10
11.44751556042216
 20
-358.3742184882612
 42
-0.4142135623730905
 10
11.94488003985
 20
-357.8715967869755
 10
24.94410039741942
 20
-357.8032560571555
 42
-0.4142135623731056
 10
25.4467220987053
 20
-358.3006205365833
  0
LWPOLYLINE
  5
148
330
1F
100
AcDbEntity
  8
0
100
AcDbPolyline
 90
        8
 70
     1
 43
0.0
 10
72.24443829158811
 20
-411.5326756477616
 10
74.43407966143721
 20
-398.7186344800532
 42
0.4142053210368102
 10
74.02545573190664
 20
-398.1415622009294
 10
61.21136408194121
 20
-395.9515411149585
 42
0.414216110719025
 10
60.63427720212685
 20
-396.3601669626979
 10
58.44453809564676
 20
-409.1732800600593
 42
0.4141907745913958
 10
58.85312633093754
 20
-409.7503560970698
 10
71.66731571753405
 20
-411.9413052533881
 42
0.4142420436418188
  0
LWPOLYLINE
  5
149
330
1F
100
AcDbEntity
  8
0
100
AcDbPolyline
 90
        8
 70
     1
 43
0.0
 10
59.15245288435432
 20
-428.2738890125899
 42
-0.4142135623730898
 10
58.65508840492648
 20
-428.7765107138756
 10
45.65596804597518
 20
-428.8448509179739
 42
-0.4142135623731368
 10
45.15334634468929
 20
-428.347486438546
 10
45.08500614059127
 20
-415.3483660795946
 42
-0.4142135623730896
 10
45.58237062001911
 20
-414.8457443783088
 10
58.58149097897042
 20
-414.7774041742106
 42
-0.4142135623730534
 10
59.08411268025623
 20
-415.2747686536384
  0
LINE
  5
150
330
1F
100
AcDbEntity
  8
0
100
AcDbLine
 10
114.5450196841817
 20
-443.7277002504171
 30
0.0000000000000011
 11
82.94069719598878
 21
-438.3568828138835
 31
0.0000000000000178
  0
ELLIPSE
  5
151
330
1F
100
AcDbEntity
  8
0
100
AcDbEllipse
 10
82.85708123065658
 20
-438.8499034411983
 30
0.0000000000000278
 11
-0.347131032641429
 21
0.3601014495329549
 31
0.0
210
0.0
220
0.0
230
-1.0
 40
0.9996541639297586
 41
5.647615479805417
 42
7.218411806600166
  0
LINE
  5
152
330
1F
100
AcDbEntity
  8
0
100
AcDbLine
 10
82.36403792384626
 20
-438.7661159912324
 30
0.0000000000000266
 11
80.19002282520645
 21
-451.5846523014151
 31
-0.0000000000000255
  0
ELLIPSE
  5
153
330
1F
100
AcDbEntity
  8
0
100
AcDbEllipse
 10
80.68306613201663
 20
-451.668439751381
 30
0.0000000000000544
 11
-0.3471310326411788
 21
0.3601014495331976
 31
0.0
210
0.0
220
0.0
230
-1.0
 40
0.9996541639297603
 41
4.076819153010124
 42
5.647615479805258
  0
LINE
  5
154
330
1F
100
AcDbEntity
  8
0
100
AcDbLine
 10
80.59945016668422
 20
-452.1614603786957
 30
0.0000000000000544
 11
81.17828300887964
 21
-452.259826844955
 31
0.0000000000000444
  0
LINE
  5
155
330
1F
100
AcDbEntity
  8
0
100
AcDbLine
 10
81.17828300887964
 20
-452.259826844955
 30
0.0000000000000444
 11
80.92743511288265
 21
-453.7388887268991
 31
-0.0000000000000255
  0
ELLIPSE
  5
156
330
1F
100
AcDbEntity
  8
0
100
AcDbEllipse
 10
81.42047841969306
 20
-453.8226761768651
 30
0.0000000000000644
 11
-0.3471310326412619
 21
0.3601014495331188
 31
0.0
210
0.0
220
0.0
230
-1.0
 40
0.9996541639297603
 41
4.076819153010031
 42
5.647615479805335
  0
LINE
  5
157
330
1F
100
AcDbEntity
  8
0
100
AcDbLine
 10
81.33686245436081
 20
-454.3156968041797
 30
0.0000000000000644
 11
87.25338213608422
 21
-455.321146203769
 31
0.0000000000000278
  0
ELLIPSE
  5
158
330
1F
100
AcDbEntity
  8
0
100
AcDbEllipse
 10
87.33699810141656
 20
-454.8281255764551
 30
0.0000000000000278
 11
0.3471310326415248
 21
-0.3601014495328748
 31
0.0
210
0.0
220
0.0
230
-1.0
 40
0.9996541639297589
 41
5.647615479804314
 42
7.218411806600883
  0
LINE
  5
159
330
1F
100
AcDbEntity
  8
0
100
AcDbLine
 10
87.83004140822699
 20
-454.9119130264201
 30
0.0000000000000278
 11
88.08088930422373
 21
-453.4328511444761
 31
-0.0000000000000222
  0
LINE
  5
160
330
1F
100
AcDbEntity
  8
0
100
AcDbLine
 10
88.08088930422373
 20
-453.4328511444761
 30
-0.0000000000000222
 11
104.7220869956843
 21
-456.2608451557221
 31
0.0000000000000155
  0
LINE
  5
161
330
1F
100
AcDbEntity
  8
0
100
AcDbLine
 10
104.7220869956843
 20
-456.2608451557221
 30
0.0000000000000155
 11
104.4712390996871
 21
-457.7399070376661
 31
-0.0000000000000855
  0
ELLIPSE
  5
162
330
1F
100
AcDbEntity
  8
0
100
AcDbEllipse
 10
104.9642824064977
 20
-457.823694487632
 30
0.0000000000000255
 11
-0.3471310326411296
 21
0.360101449533242
 31
0.0
210
0.0
220
0.0
230
-1.0
 40
0.9996541639297603
 41
4.076819153009894
 42
5.647615479804946
  0
LINE
  5
163
330
1F
100
AcDbEntity
  8
0
100
AcDbLine
 10
104.8806664411654
 20
-458.3167151149467
 30
0.0000000000000255
 11
110.7971861228893
 21
-459.322164514537
 31
0.0000000000000278
  0
ELLIPSE
  5
164
330
1F
100
AcDbEntity
  8
0
100
AcDbEllipse
 10
110.8808020882217
 20
-458.8291438872221
 30
0.0000000000000278
 11
0.3471310326415248
 21
-0.3601014495328748
 31
0.0
210
0.0
220
0.0
230
-1.0
 40
0.9996541639297589
 41
5.647615479806304
 42
7.218411806600798
  0
LINE
  5
165
330
1F
100
AcDbEntity
  8
0
100
AcDbLine
 10
111.373845395032
 20
-458.9129313371882
 30
0.0000000000000278
 11
111.6246932910286
 21
-457.4338694552431
 31
-0.0000000000000422
  0
LINE
  5
166
330
1F
100
AcDbEntity
  8
0
100
AcDbLine
 10
111.6246932910286
 20
-457.4338694552431
 30
-0.0000000000000422
 11
112.2037726548768
 21
-457.5322778152282
 31
-0.0000000000000411
  0
ELLIPSE
  5
167
330
1F
100
AcDbEntity
  8
0
100
AcDbEllipse
 10
112.2873886202093
 20
-457.0392571879141
 30
-0.0000000000000411
 11
0.3471310326413817
 21
-0.3601014495329989
 31
0.0
210
0.0
220
0.0
230
-1.0
 40
0.9996541639297603
 41
5.647615479803837
 42
7.218411806600971
  0
LINE
  5
168
330
1F
100
AcDbEntity
  8
0
100
AcDbLine
 10
112.7804319270198
 20
-457.123044637879
 30
-0.0000000000000411
 11
114.9544470256598
 21
-444.304508327697
 31
0.0000000000000211
  0
ELLIPSE
  5
169
330
1F
100
AcDbEntity
  8
0
100
AcDbEllipse
 10
114.4614037188492
 20
-444.2207208777311
 30
-0.0000000000000089
 11
0.3471310326414564
 21
-0.3601014495329342
 31
0.0
210
0.0
220
0.0
230
-1.0
 40
0.9996541639297607
 41
4.076819153011156
 42
5.647615479805764
  0
LWPOLYLINE
  5
170
330
1F
100
AcDbEntity
  8
0
100
AcDbPolyline
 90
        8
 70
     1
 43
0.0
 10
66.8146135914981
 20
-416.7424503510299
 10
64.62459396808532
 20
-429.5565334433807
 42
0.4142140502337767
 10
65.03321634862979
 20
-430.1336197306448
 10
77.84628262169309
 20
-432.323443606679
 42
0.4142216791209126
 10
78.42337042208298
 20
-431.914807427717
 10
80.61301813407082
 20
-419.1006334324224
 42
0.4142060529409303
 10
80.20439225730923
 20
-418.5235614495605
 10
67.39169789567073
 20
-416.33382847647
 42
0.4142124672406636
  0
LWPOLYLINE
  5
171
330
1F
100
AcDbEntity
  8
0
100
AcDbPolyline
 90
        8
 70
     1
 43
0.0
 10
26.19215691800031
 20
-409.3969077345798
 42
-0.4142135623731445
 10
25.69479243857238
 20
-409.8995294358656
 10
12.69417210034992
 20
-409.9678775257967
 42
-0.4142135623730402
 10
12.19155039906421
 20
-409.4705130463688
 10
12.123210194966
 20
-396.4713926874174
 42
-0.4142135623730925
 10
12.62057467439384
 20
-395.9687709861317
 10
25.62119501261628
 20
-395.9004228962007
 42
-0.4142135623731888
 10
26.12381671390216
 20
-396.3977873756287
  0
LWPOLYLINE
  5
172
330
1F
100
AcDbEntity
  8
0
100
AcDbPolyline
 90
        8
 70
     1
 43
0.0
 10
77.6307044238255
 20
-412.9599547856988
 10
90.44488628398639
 20
-415.1499749313382
 42
0.4142131990921615
 10
91.02197181965287
 20
-414.7413532672464
 10
93.21199126842257
 20
-401.9272711967544
 42
0.414213925654016
 10
92.80336909750944
 20
-401.3501849453176
 10
79.98918723734845
 20
-399.1601647996782
 42
0.4142131990921624
 10
79.41210170168199
 20
-399.5687864637699
 10
77.22208225291234
 20
-412.3828685342621
 42
0.4142139256541218
  0
LWPOLYLINE
  5
173
330
1F
100
AcDbEntity
  8
0
100
AcDbPolyline
 90
        8
 70
     1
 43
0.0
 10
38.31644821810791
 20
-396.3336871209588
 42
-0.4142135623730093
 10
38.81381269753575
 20
-395.8310654196731
 10
51.81463303299434
 20
-395.7627162782977
 42
-0.414213562373095
 10
52.31725473428014
 20
-396.2600807577255
 10
52.38559493837836
 20
-409.2592011166768
 42
-0.4142135623731578
 10
51.88823045895042
 20
-409.7618228179627
 10
38.88741012349181
 20
-409.8301719593378
 42
-0.414213562373038
 10
38.38478842220601
 20
-409.3328074799102
  0
LWPOLYLINE
  5
174
330
1F
100
AcDbEntity
  8
0
100
AcDbPolyline
 90
        8
 70
     1
 43
0.0
 10
72.54045269625587
 20
-378.561758568804
 10
59.72625952347915
 20
-376.3704376754724
 42
0.4142557328363024
 10
59.14912151600955
 20
-376.779074077111
 10
56.95947265924162
 20
-389.5945947539376
 42
0.4142019335583035
 10
57.36810162209626
 20
-390.1716584583984
 10
70.18219461550024
 20
-392.3615870015238
 42
0.4142176830592376
 10
70.75927907299146
 20
-391.9529544485338
 10
72.94902810913199
 20
-379.1388261219134
 42
0.4141789011457676
  0
LWPOLYLINE
  5
175
330
1F
100
AcDbEntity
  8
0
100
AcDbPolyline
 90
        8
 70
     1
 43
0.0
 10
91.31822197412565
 20
-381.7704236223696
 10
78.50403155666767
 20
-379.5804020142373
 42
0.4142131990923078
 10
77.92694602100109
 20
-379.9890236783292
 10
75.73691827749193
 20
-392.8031542823961
 42
0.4141850820203328
 10
76.14549191289886
 20
-393.3802322363656
 10
88.95968916532265
 20
-395.5715538273468
 42
0.4142471288787207
 10
89.53682469893584
 20
-395.1629319033506
 10
91.72684560747923
 20
-382.3475013164351
 42
0.4142088401941212
  0
LWPOLYLINE
  5
176
330
1F
100
AcDbEntity
  8
0
100
AcDbPolyline
 90
        8
 70
     1
 43
0.0
 10
103.9173161868762
 20
-364.5980530731402
 10
91.10160360963085
 20
-362.4083113626555
 42
0.414196483981907
 10
90.52453961161035
 20
-362.8169285274628
 10
88.33451883853806
 20
-375.6297740915879
 42
0.4141945319622801
 10
88.74309906958686
 20
-376.2068613533032
 10
101.5569613677429
 20
-378.3979128155781
 42
0.4141964741193637
 10
102.1340757344773
 20
-377.9893668132006
 10
104.3259467866385
 20
-365.1752114972856
 42
0.4142667607637976
  0
LWPOLYLINE
  5
177
330
1F
100
AcDbEntity
  8
0
100
AcDbPolyline
 90
        8
 70
     1
 43
0.0
 10
50.37977119739821
 20
-390.2194830617759
 42
-0.4142135623730951
 10
49.88240671797036
 20
-390.7221047630616
 10
36.88298636316465
 20
-390.7904465443264
 42
-0.4142135623730378
 10
36.38036466187895
 20
-390.2930820648986
 10
36.31202445778073
 20
-377.2939617059472
 42
-0.4142135623730122
 10
36.80938893720858
 20
-376.7913400046615
 10
49.80880929201418
 20
-376.7229982233967
 42
-0.4142135623731001
 10
50.31143099329997
 20
-377.2203627028247
  0
LWPOLYLINE
  5
178
330
1F
100
AcDbEntity
  8
0
100
AcDbPolyline
 90
        8
 70
     1
 43
0.0
 10
85.13923989926251
 20
-361.3880182213581
 10
72.3251943324638
 20
-359.1980050113343
 42
0.4142150154670718
 10
71.74810776761671
 20
-359.6066290160847
 10
69.5580862643211
 20
-372.4211059571479
 42
0.4142146576241129
 10
69.96671252994528
 20
-372.9981903918296
 10
82.77982807245717
 20
-375.1879299161816
 42
0.4141907745915641
 10
83.35690410946796
 20
-374.7793416808907
 10
85.54785563704976
 20
-361.9651384254993
 42
0.4142338021398537
  0
LWPOLYLINE
  5
179
330
1F
100
AcDbEntity
  8
0
100
AcDbPolyline
 90
        8
 70
     1
 43
0.0
 10
12.49985352953622
 20
-377.41914930144
 42
-0.4142135623731757
 10
12.99721800896407
 20
-376.916527600154
 10
25.9965383651516
 20
-376.8481863446115
 42
-0.4142135623730484
 10
26.49916006643739
 20
-377.3455508240393
 10
26.56750027053553
 20
-390.3446711829908
 42
-0.4142135623730433
 10
26.0701357911077
 20
-390.8472928842767
 10
13.07081543492015
 20
-390.9156341398191
 42
-0.4142135623730394
 10
12.56819373363435
 20
-390.4182696603913
  0
LWPOLYLINE
  5
180
330
1F
100
AcDbEntity
  8
0
100
AcDbPolyline
 90
        8
 70
     1
 43
0.0
 10
30.4972523030178
 20
-358.2740684118672
 42
-0.4142135623730847
 10
30.99461678244563
 20
-357.7714467105814
 10
43.99373714139709
 20
-357.7031065064833
 42
-0.4142135623730429
 10
44.4963588426828
 20
-358.2004709859111
 10
44.56470009822531
 20
-371.1997913420985
 42
-0.4142135623731315
 10
44.06733561879747
 20
-371.7024130433844
 10
31.06821525984609
 20
-371.7707532474824
 42
-0.4142135623730431
 10
30.56559355856032
 20
-371.2733887680548
  0
LWPOLYLINE
  5
181
330
1F
100
AcDbEntity
  8
0
100
AcDbPolyline
 90
        8
 70
     1
 43
0.0
 10
66.36006608798671
 20
-358.1797012443776
 10
53.54722948646877
 20
-355.9896820032286
 42
0.4141929576545906
 10
52.97014267773214
 20
-356.3982595851775
 10
50.7791964852189
 20
-369.2110916889846
 42
0.4142162270420754
 10
51.18777262348979
 20
-369.7882139360916
 10
64.00182171564717
 20
-371.9792482416046
 42
0.4142416804914431
 10
64.57894756667653
 20
-371.5706240227593
 10
66.7686812685504
 20
-358.7567768545887
 42
0.4142033847730894
  0
CIRCLE
  5
182
330
1F
100
AcDbEntity
  8
0
100
AcDbCircle
 10
-18.50390960931937
 20
-373.7834691090196
 30
0.0000000000000044
 40
1.1
210
0.0
220
0.0
230
-1.0
  0
CIRCLE
  5
183
330
1F
100
AcDbEntity
  8
0
100
AcDbCircle
 10
-23.26620960931973
 20
-441.458519109024
 30
0.0
 40
1.1
210
0.0
220
0.0
230
-1.0
  0
CIRCLE
  5
184
330
1F
100
AcDbEntity
  8
0
100
AcDbCircle
 10
-115.7477216093197
 20
-452.048469109023
 30
-0.0000000000000211
 40
1.09999999999999
210
0.0
220
0.0
230
-1.0
  0
CIRCLE
  5
185
330
1F
100
AcDbEntity
  8
0
100
AcDbCircle
 10
-124.2890286093198
 20
-376.1797551090233
 30
-0.0000000000000244
 40
1.09999999999999
210
0.0
220
0.0
230
-1.0
  0
CIRCLE
  5
186
330
1F
100
AcDbEntity
  8
0
100
AcDbCircle
 10
-147.1484898478035
 20
-370.9719617365227
 30
0.0000000000000144
 40
0.9999999999999962
210
0.0
220
0.0
230
-1.0
  0
CIRCLE
  5
187
330
1F
100
AcDbEntity
  8
0
100
AcDbCircle
 10
-136.3100129169244
 20
-462.6559302159461
 30
-0.0000000000000688
 40
0.9999999999999962
210
0.0
220
0.0
230
-1.0
  0
CIRCLE
  5
188
330
1F
100
AcDbEntity
  8
0
100
AcDbCircle
 10
-6.525606896433502
 20
-356.9148333247242
 30
-0.0000000000000422
 40
0.9999999999999962
210
0.0
220
0.0
230
-1.0
  0
CIRCLE
  5
189
330
1F
100
AcDbEntity
  8
0
100
AcDbCircle
 10
2.383591929616142
 20
-449.1630457639899
 30
-0.0000000000000566
 40
0.9999999999999962
210
0.0
220
0.0
230
-1.0
  0
LWPOLYLINE
  5
100FE
330
1F
100
AcDbEntity
  8
0
100
AcDbPolyline
 90
       49
 70
     1
 43
0.0
 10
338.1302814070512
 20
-450.2216298071167
 10
265.9786498986191
 20
-450.2216298071165
 42
-0.4142135623730951
 10
263.978649898619
 20
-448.2216298071176
 10
263.9786498986191
 20
-433.1720298071171
 42
0.4142135623730951
 10
261.9786498986191
 20
-431.1720298071172
 10
248.0160969107691
 20
-431.1720298071172
 42
0.4663076581550016
 10
246.0464814047447
 20
-433.5193261624511
 10
248.727193050685
 20
-448.7223973837096
 42
-0.4142135623729248
 10
247.1048738999951
 20
-451.0393092450677
 10
171.256185552238
 20
-464.4134794521254
 42
-0.4142135623729534
 10
168.9392736908805
 20
-462.7911603014344
 10
168.939270158839
 20
-462.7911402702355
 42
-0.4142135623732388
 10
170.5615893095298
 20
-460.4742284088768
 42
0.4142134137061647
 10
172.1839074604814
 20
-458.1573167237993
 10
166.79213421299
 20
-427.5790511297996
 42
-0.4142135623730824
 10
168.41445336368
 20
-425.2621392684414
 10
173.8542444099871
 20
-424.3029573375611
 42
0.4142135623732111
 10
175.4765635606785
 20
-421.9860454762025
 10
173.0278800225854
 20
-408.0988710446177
 42
0.4142135623732546
 10
170.7109681612261
 20
-406.4765518939274
 10
169.9604169170181
 20
-406.6088943286855
 42
-0.4142135623729598
 10
167.6435050556607
 20
-404.9865751779951
 10
164.8651342129892
 20
-389.2296511297997
 42
-0.4142135623730567
 10
166.4874533636801
 20
-386.9127392684414
 10
171.9288762844801
 20
-385.9532695940588
 42
0.4142135623730869
 10
173.5511954351705
 20
-383.6363577327005
 10
171.6327304556986
 20
-372.7562021730476
 42
0.414213562373091
 10
169.3158185943401
 20
-371.1338830223572
 42
-0.4142135623731331
 10
166.9989067329817
 20
-369.5115638716666
 10
166.9989032009411
 20
-369.5115438404673
 42
-0.4142135623730816
 10
168.6212223516312
 20
-367.1946319791091
 10
243.3295972076152
 20
-354.0215298071169
 10
329.1856498986182
 20
-354.0215298071172
 42
-0.4142135623732667
 10
331.1856498986191
 20
-356.0215298071171
 42
-0.4141403409629826
 10
329.1856499611192
 20
-358.0210298071166
 42
0.4142135715262912
 10
327.1856498986182
 20
-360.0210298071174
 10
327.1856498986191
 20
-370.0720298071169
 42
0.4142135623729441
 10
329.1856498986182
 20
-372.0720298071169
 10
331.8026498986183
 20
-372.0720298071169
 42
-0.4142135623730951
 10
333.8026498986183
 20
-374.0720298071169
 10
333.8026498986183
 20
-409.4917455964145
 42
0.3006635607779665
 10
335.0191468468611
 20
-411.3318877017658
 42
-0.3006635607778578
 10
336.2356437951031
 20
-413.172029807117
 10
336.2356437951031
 20
-444.2221298071166
 42
0.4023626085122285
 10
338.154405080402
 20
-446.220479193794
 42
-0.3698316093994116
 10
338.726190680625
 20
-446.7521859608591
 42
-0.474497868168607
 10
338.1261906773701
 20
-447.2420839100034
 42
1.224744871390438
 10
338.1261906773701
 20
-449.2016757042302
 42
-0.4744978678086819
 10
338.726190677371
 20
-449.6915736527868
 42
-0.3803918818571511
  0
LWPOLYLINE
  5
100FF
330
1F
100
AcDbEntity
  8
0
100
AcDbPolyline
 90
        4
 70
     1
 43
0.0
 10
322.1727736017211
 20
-430.23808757502
 10
270.3159953500541
 20
-430.2373711481816
 42
1.0
 10
270.3159815345641
 20
-431.237371148086
 10
322.172759786229
 20
-431.2380875749245
 42
1.0
  0
LINE
  5
10100
330
1F
100
AcDbEntity
  8
0
100
AcDbLine
 10
326.4825910768732
 20
-395.1218851961751
 30
-0.0000000000000044
 11
293.1387142466881
 21
-394.773178428519
 31
-0.0000000000000278
  0
ELLIPSE
  5
10101
330
1F
100
AcDbEntity
  8
0
100
AcDbEllipse
 10
293.1334901145501
 20
-395.2731513724042
 30
0.0000000000000022
 11
-0.4967596603957939
 21
0.057024745284755
 31
0.0
210
0.0
220
0.0
230
-1.0
 40
0.9999560393563028
 41
6.179345140774906
 42
7.7501414675719
  0
LINE
  5
10102
330
1F
100
AcDbEntity
  8
0
100
AcDbLine
 10
292.6334957102648
 20
-395.2679224833505
 30
0.0000000000000022
 11
292.4909121211691
 21
-408.9138133071446
 31
0.0000000000000189
  0
LINE
  5
10103
330
1F
100
AcDbEntity
  8
0
100
AcDbLine
 10
292.4909121211691
 20
-408.9138133071446
 30
0.0000000000000189
 11
295.9595022875221
 21
-408.9138133071446
 31
0.00000000000001
  0
LINE
  5
10104
330
1F
100
AcDbEntity
  8
0
100
AcDbLine
 10
295.9595022875221
 20
-408.9138133071446
 30
0.00000000000001
 11
295.9449829314822
 21
-410.3033809888299
 31
-0.00000000000004
  0
ELLIPSE
  5
10105
330
1F
100
AcDbEntity
  8
0
100
AcDbEllipse
 10
296.4449773357671
 20
-410.3086098778836
 30
-0.0000000000000111
 11
-0.4967596603957444
 21
0.057024745285261
 31
0.0
210
0.0
220
0.0
230
-1.0
 40
0.9999560393563033
 41
4.608548813976984
 42
6.179345140773907
  0
LINE
  5
10106
330
1F
100
AcDbEntity
  8
0
100
AcDbLine
 10
296.4397532036312
 20
-410.8085828217689
 30
-0.0000000000000111
 11
302.4396860550551
 21
-410.8713294904131
 31
0.0000000000000233
  0
ELLIPSE
  5
10107
330
1F
100
AcDbEntity
  8
0
100
AcDbEllipse
 10
302.4449101871921
 20
-410.3713565465277
 30
-0.0000000000000266
 11
0.4967596603957939
 21
-0.057024745284755
 31
0.0
210
0.0
220
0.0
230
-1.0
 40
0.9999560393563028
 41
6.179345140775036
 42
7.75014146756982
  0
LINE
  5
10108
330
1F
100
AcDbEntity
  8
0
100
AcDbLine
 10
302.9449045914776
 20
-410.3765854355814
 30
-0.0000000000000266
 11
302.9605769878881
 21
-408.8766666039256
 31
0.0000000000000122
  0
LINE
  5
10109
330
1F
100
AcDbEntity
  8
0
100
AcDbLine
 10
302.9605769878881
 20
-408.8766666039256
 30
0.0000000000000122
 11
317.8984098103181
 21
-409.0328848932931
 31
0.0000000000000633
  0
ELLIPSE
  5
1010A
330
1F
100
AcDbEntity
  8
0
100
AcDbEllipse
 10
317.9036339424551
 20
-408.5329119494079
 30
0.0000000000000133
 11
0.4967596603957939
 21
-0.057024745284755
 31
0.0
210
0.0
220
0.0
230
-1.0
 40
0.9999560393563028
 41
6.179345140775019
 42
7.750141467569853
  0
LINE
  5
1010B
330
1F
100
AcDbEntity
  8
0
100
AcDbLine
 10
318.4036283467404
 20
-408.5381408384616
 30
0.0000000000000122
 11
318.4097614778691
 21
-407.9511726023401
 31
0.000000000000081
  0
LINE
  5
1010C
330
1F
100
AcDbEntity
  8
0
100
AcDbLine
 10
318.4097614778691
 20
-407.9511726023401
 30
0.000000000000081
 11
319.8477453845941
 21
-407.9662108872585
 31
-0.0000000000000322
  0
LINE
  5
1010D
330
1F
100
AcDbEntity
  8
0
100
AcDbLine
 10
319.8477453845941
 20
-407.9662108872585
 30
-0.0000000000000322
 11
319.8238502042002
 21
-410.2530871325899
 31
-0.0000000000000411
  0
ELLIPSE
  5
1010E
330
1F
100
AcDbEntity
  8
0
100
AcDbEllipse
 10
320.3238446084851
 20
-410.2583160216434
 30
-0.0000000000000122
 11
-0.4967596603957693
 21
0.0570247452850445
 31
0.0
210
0.0
220
0.0
230
-1.0
 40
0.9999560393563033
 41
4.608548813979563
 42
6.179345140774026
  0
LINE
  5
1010F
330
1F
100
AcDbEntity
  8
0
100
AcDbLine
 10
320.3186204763481
 20
-410.7582889655288
 30
-0.0000000000000122
 11
326.3185533277731
 21
-410.821035634173
 31
0.0000000000000322
  0
ELLIPSE
  5
10110
330
1F
100
AcDbEntity
  8
0
100
AcDbEllipse
 10
326.3237774599101
 20
-410.3210626902876
 30
-0.0000000000000278
 11
0.4967596603959871
 21
-0.0570247452830592
 31
0.0
210
0.0
220
0.0
230
-1.0
 40
0.9999560393563053
 41
6.179345140778464
 42
7.750141467573259
  0
LINE
  5
10111
330
1F
100
AcDbEntity
  8
0
100
AcDbLine
 10
326.8237718641955
 20
-410.3262915793415
 30
-0.0000000000000289
 11
326.9773613490222
 21
-395.627087029114
 31
-0.0000000000000455
  0
ELLIPSE
  5
10112
330
1F
100
AcDbEntity
  8
0
100
AcDbEllipse
 10
326.4773669447362
 20
-395.6218581400603
 30
0.0000000000000566
 11
0.4967596603956326
 21
-0.0570247452861641
 31
0.0
210
0.0
220
0.0
230
-1.0
 40
0.9999560393563051
 41
4.608548813977242
 42
6.17934514077219
  0
LWPOLYLINE
  5
10113
330
1F
100
AcDbEntity
  8
0
100
AcDbPolyline
 90
        8
 70
     1
 43
0.0
 10
247.5127864943952
 20
-393.1372600688463
 10
322.2315148869025
 20
-393.1382923447442
 42
1.000000010536712
 10
322.2315287129291
 20
-392.1382923448399
 10
247.4253116463671
 20
-392.1372588602431
 42
0.0436609429085172
 10
245.5151793834411
 20
-392.3043471877103
 10
176.0400152022371
 20
-404.5537034485536
 42
1.0
 10
176.213649774287
 20
-405.5385136005062
 10
245.6026542314691
 20
-393.3043483963135
 42
-0.0436609429085181
  0
LWPOLYLINE
  5
10114
330
1F
100
AcDbEntity
  8
0
100
AcDbPolyline
 90
        8
 70
     1
 43
0.0
 10
245.4816257525652
 20
-373.0872978242663
 42
-0.0136165756985572
 10
244.8828298000082
 20
-373.0709794205548
 10
177.4226387687551
 20
-384.965070252944
 42
1.0
 10
177.5962733408011
 20
-385.9498804048974
 10
243.9300481087812
 20
-374.2543911054369
 42
-0.0436609429085173
 10
245.8401803717072
 20
-374.0873027779697
 10
290.2475873253902
 20
-374.0879162880881
 42
1.0
 10
290.2476011408802
 20
-373.0879162881834
  0
LWPOLYLINE
  5
10115
330
1F
100
AcDbEntity
  8
0
100
AcDbPolyline
 90
        4
 70
     1
 43
0.0
 10
240.0162436434451
 20
-431.9616287831204
 42
-0.9999999894632878
 10
240.189878215492
 20
-432.9464389350736
 10
179.46769762856
 20
-443.6525327127668
 42
-1.0
 10
179.294063056511
 20
-442.6677225608135
  0
LWPOLYLINE
  5
10116
330
1F
100
AcDbEntity
  8
0
100
AcDbPolyline
 90
        8
 70
     1
 43
0.0
 10
183.9297751796171
 20
-423.5233516382379
 10
248.3849819254022
 20
-412.1590778059923
 42
0.0179344239766108
 10
249.1733351565621
 20
-412.1873751318331
 10
291.9768746469881
 20
-412.1879664837353
 42
1.0
 10
291.9768884624781
 20
-411.1879664838308
 10
249.0994616444142
 20
-411.1873741111388
 42
0.0436609429085172
 10
247.1893293814881
 20
-411.3544624386057
 10
183.7561406179457
 20
-422.5385414844556
 42
1.000000010536712
  0
LWPOLYLINE
  5
10117
330
1F
100
AcDbEntity
  8
0
100
AcDbPolyline
 90
        8
 70
     1
 43
0.0
 10
218.903247756452
 20
-452.9958702622137
 10
224.7579351477981
 20
-451.963561902465
 42
0.4142135623730649
 10
225.5691006703544
 20
-450.8051101360906
 10
223.4853869141734
 20
-438.9874274250269
 42
0.4142135623731824
 10
222.326935147799
 20
-438.1762619024705
 10
216.4722477564521
 20
-439.2085702622192
 42
0.4142135623728286
 10
215.6610822338967
 20
-440.3670220285935
 10
217.744795990078
 20
-452.1847047396574
 42
0.4142135623731457
  0
LWPOLYLINE
  5
10118
330
1F
100
AcDbEntity
  8
0
100
AcDbPolyline
 90
        4
 70
     1
 43
0.0
 10
177.6490780664593
 20
-459.2544976420066
 42
-0.9999999894632878
 10
175.6794607775286
 20
-459.6017838858244
 10
173.5957470213487
 20
-447.7841011747606
 42
-1.0
 10
175.5653643102791
 20
-447.4368149309425
  0
ELLIPSE
  5
10119
330
1F
100
AcDbEntity
  8
0
100
AcDbEllipse
 10
311.972420990161
 20
-446.2339182380026
 30
0.0000000000000311
 11
0.9448201806815651
 21
0.3285575912822641
 31
0.0
210
0.0
220
0.0
230
-0.9999999999999998
 40
0.9996825189491779
 41
0.3328465328831367
 42
3.474439186473047
  0
LINE
  5
1011A
330
1F
100
AcDbEntity
  8
0
100
AcDbLine
 10
312.9727028351706
 20
-446.2320006498167
 30
0.0000000000000311
 11
312.9520509413311
 21
-434.2316328664783
 31
0.0000000000000044
  0
ELLIPSE
  5
1011B
330
1F
100
AcDbEntity
  8
0
100
AcDbEllipse
 10
311.9517690963211
 20
-434.2335504546641
 30
-0.0000000000000022
 11
-0.9448201806815651
 21
-0.3285575912822641
 31
0.0
210
0.0
220
0.0
230
-0.9999999999999998
 40
0.9996825189491779
 41
0.3328465328831469
 42
3.47443918647313
  0
LINE
  5
1011C
330
1F
100
AcDbEntity
  8
0
100
AcDbLine
 10
310.9514872513116
 20
-434.23546804285
 30
-0.0000000000000022
 11
310.9721391451516
 21
-446.2358358261887
 31
0.0000000000000322
  0
ELLIPSE
  5
1011D
330
1F
100
AcDbEntity
  8
0
100
AcDbEllipse
 10
288.161420990161
 20
-446.2339182380026
 30
0.0000000000000233
 11
0.9448201806814372
 21
0.3285575912826324
 31
0.0
210
0.0
220
0.0
230
-1.0
 40
0.9996825189491779
 41
0.3328465328845043
 42
3.474439186473334
  0
LINE
  5
1011E
330
1F
100
AcDbEntity
  8
0
100
AcDbLine
 10
289.1617028351705
 20
-446.2320006498177
 30
0.0000000000000222
 11
289.1410509413311
 21
-434.2316328664783
 31
-0.0000000000000033
  0
ELLIPSE
  5
1011F
330
1F
100
AcDbEntity
  8
0
100
AcDbEllipse
 10
288.1407690963221
 20
-434.2335504546641
 30
-0.0000000000000011
 11
-0.9448201806815125
 21
-0.3285575912824165
 31
0.0
210
0.0
220
0.0
230
-1.0
 40
0.9996825189491779
 41
0.3328465328834609
 42
3.474439186473115
  0
LINE
  5
10120
330
1F
100
AcDbEntity
  8
0
100
AcDbLine
 10
287.1404872513127
 20
-434.23546804285
 30
-0.0000000000000011
 11
287.1611391451517
 21
-446.2358358261887
 31
0.0000000000000233
  0
LINE
  5
10121
330
1F
100
AcDbEntity
  8
0
100
AcDbLine
 10
285.6754415211061
 20
-428.1895404852768
 30
-0.0000000000000067
 11
288.1621421877991
 21
-428.1847733610468
 31
0.0000000000000366
  0
ELLIPSE
  5
10122
330
1F
100
AcDbEntity
  8
0
100
AcDbEllipse
 10
288.1604211935841
 20
-427.1847409334768
 30
-0.0000000000000333
 11
0.9448201806815312
 21
0.3285575912823616
 31
0.0
210
0.0
220
0.0
230
-1.0
 40
0.9996825189491779
 41
0.3328465328834609
 42
1.903642859678124
  0
LINE
  5
10123
330
1F
100
AcDbEntity
  8
0
100
AcDbLine
 10
289.1607030385935
 20
-427.1828233452911
 30
-0.0000000000000344
 11
289.1400511447541
 21
-415.1824555619521
 31
0.00000000000004
  0
ELLIPSE
  5
10124
330
1F
100
AcDbEntity
  8
0
100
AcDbEllipse
 10
288.1397692997461
 20
-415.184373150138
 30
-0.0000000000000278
 11
0.9448201806814003
 21
0.3285575912827386
 31
0.0
210
0.0
220
0.0
230
-1.0
 40
0.9996825189491779
 41
5.045235513267217
 42
6.616031840063368
  0
LINE
  5
10125
330
1F
100
AcDbEntity
  8
0
100
AcDbLine
 10
288.1380483055301
 20
-414.1843407225681
 30
-0.0000000000000266
 11
285.651347638837
 21
-414.1891078467981
 31
-0.0000000000000122
  0
ELLIPSE
  5
10126
330
1F
100
AcDbEntity
  8
0
100
AcDbEllipse
 10
285.6530686330522
 20
-415.189140274368
 30
-0.0000000000000011
 11
-0.9448201806814552
 21
-0.3285575912825815
 31
0.0
210
0.0
220
0.0
230
-1.0
 40
0.9996825189491779
 41
0.3328465328836407
 42
1.90364285967825
  0
LINE
  5
10127
330
1F
100
AcDbEntity
  8
0
100
AcDbLine
 10
284.6527867880427
 20
-415.1910578625538
 30
-0.0000000000000011
 11
284.6734386818821
 21
-427.1914256458928
 31
0.0000000000000255
  0
ELLIPSE
  5
10128
330
1F
100
AcDbEntity
  8
0
100
AcDbEllipse
 10
285.6737205268911
 20
-427.1895080577069
 30
-0.0000000000000067
 11
-0.9448201806815063
 21
-0.3285575912824327
 31
0.0
210
0.0
220
0.0
230
-1.0
 40
0.9996825189491779
 41
5.045235513267897
 42
6.616031840063016
  0
LINE
  5
10129
330
1F
100
AcDbEntity
  8
0
100
AcDbLine
 10
311.8694415211071
 20
-428.1895404852768
 30
-0.0000000000000344
 11
314.3561421877992
 21
-428.1847733610468
 31
-0.0000000000000011
  0
ELLIPSE
  5
1012A
330
1F
100
AcDbEntity
  8
0
100
AcDbEllipse
 10
314.354421193585
 20
-427.1847409334768
 30
0.0000000000000389
 11
0.9448201806815744
 21
0.3285575912822383
 31
0.0
210
0.0
220
0.0
230
-1.0
 40
0.9996825189491778
 41
0.3328465328833535
 42
1.903642859678932
  0
LINE
  5
1012B
330
1F
100
AcDbEntity
  8
0
100
AcDbLine
 10
315.3547030385945
 20
-427.1828233452911
 30
0.0000000000000377
 11
315.3340511447551
 21
-415.1824555619521
 31
0.0000000000000122
  0
ELLIPSE
  5
1012C
330
1F
100
AcDbEntity
  8
0
100
AcDbEllipse
 10
314.3337692997461
 20
-415.184373150138
 30
-0.0000000000000655
 11
0.9448201806815671
 21
0.3285575912822591
 31
0.0
210
0.0
220
0.0
230
-1.0
 40
0.9996825189491776
 41
5.045235513267772
 42
6.616031840062855
  0
LINE
  5
1012D
330
1F
100
AcDbEntity
  8
0
100
AcDbLine
 10
314.3320483055311
 20
-414.1843407225681
 30
-0.0000000000000644
 11
311.8453476388371
 21
-414.1891078467982
 31
0.0000000000000511
  0
ELLIPSE
  5
1012E
330
1F
100
AcDbEntity
  8
0
100
AcDbEllipse
 10
311.847068633053
 20
-415.189140274368
 30
-0.0000000000000289
 11
-0.9448201806815125
 21
-0.3285575912824165
 31
0.0
210
0.0
220
0.0
230
-1.0
 40
0.9996825189491779
 41
0.3328465328833535
 42
1.903642859677136
  0
LINE
  5
1012F
330
1F
100
AcDbEntity
  8
0
100
AcDbLine
 10
310.8467867880437
 20
-415.1910578625539
 30
-0.0000000000000289
 11
310.8674386818831
 21
-427.1914256458928
 31
-0.0000000000000122
  0
ELLIPSE
  5
10130
330
1F
100
AcDbEntity
  8
0
100
AcDbEllipse
 10
311.8677205268911
 20
-427.1895080577069
 30
0.0000000000000655
 11
-0.9448201806815063
 21
-0.3285575912824327
 31
0.0
210
0.0
220
0.0
230
-1.0
 40
0.9996825189491779
 41
5.045235513266873
 42
6.616031840063063
  0
ELLIPSE
  5
10131
330
1F
100
AcDbEntity
  8
0
100
AcDbEllipse
 10
302.7422745819222
 20
-389.2188706751363
 30
-0.0000000000000044
 11
0.9448201806812448
 21
0.3285575912831846
 31
0.0
210
0.0
220
0.0
230
-1.0
 40
0.9996825189491783
 41
0.3328465328841985
 42
3.474439186474224
  0
LINE
  5
10132
330
1F
100
AcDbEntity
  8
0
100
AcDbLine
 10
303.7425564269315
 20
-389.2169530869503
 30
-0.0000000000000056
 11
303.7219045330932
 21
-377.2165853036115
 31
-0.0000000000000011
  0
ELLIPSE
  5
10133
330
1F
100
AcDbEntity
  8
0
100
AcDbEllipse
 10
302.7216226880832
 20
-377.2185028917975
 30
-0.0000000000000089
 11
0.9448201806817191
 21
0.3285575912818223
 31
0.0
210
0.0
220
0.0
230
-1.0
 40
0.9996825189491779
 41
3.474439186472535
 42
6.616031840062536
  0
LINE
  5
10134
330
1F
100
AcDbEntity
  8
0
100
AcDbLine
 10
301.7213408430737
 20
-377.2204204799832
 30
-0.0000000000000089
 11
301.7419927369128
 21
-389.2207882633221
 31
-0.0000000000000044
  0
LINE
  5
10135
330
1F
100
AcDbEntity
  8
0
100
AcDbLine
 10
300.2719815346112
 20
-371.0366642403409
 30
-0.0000000000000244
 11
315.7075570262803
 21
-371.0366642403409
 31
0.0000000000000255
  0
LINE
  5
10136
330
1F
100
AcDbEntity
  8
0
100
AcDbLine
 10
315.7075570262803
 20
-371.0366642403409
 30
0.0000000000000255
 11
315.7042119810122
 21
-372.5424088253432
 31
0.0000000000000056
  0
ELLIPSE
  5
10137
330
1F
100
AcDbEntity
  8
0
100
AcDbEllipse
 10
316.2042111581262
 20
-372.5435252887275
 30
0.0000000000000044
 11
-0.0723568353450898
 21
0.4947566221880186
 31
0.0
210
0.0
220
0.0
230
-1.0
 40
0.9999607486710091
 41
3.289037726553106
 42
4.859834053346215
  0
LINE
  5
10138
330
1F
100
AcDbEntity
  8
0
100
AcDbLine
 10
316.2031003570252
 20
-373.0435432577407
 30
0.0000000000000044
 11
322.2030904823912
 21
-373.0569408183523
 31
-0.0000000000000111
  0
ELLIPSE
  5
10139
330
1F
100
AcDbEntity
  8
0
100
AcDbEllipse
 10
322.2042012834902
 20
-372.5569228493391
 30
0.0000000000000289
 11
0.0723568353476411
 21
-0.4947566221876535
 31
0.0
210
0.0
220
0.0
230
-1.0
 40
0.9999607486710132
 41
4.85983405335146
 42
6.430630380144152
  0
LINE
  5
1013A
330
1F
100
AcDbEntity
  8
0
100
AcDbLine
 10
322.7042004606039
 20
-372.5580393127233
 30
0.0000000000000289
 11
322.7075328639052
 21
-371.0579854056839
 31
0.0000000000000278
  0
LINE
  5
1013B
330
1F
100
AcDbEntity
  8
0
100
AcDbLine
 10
322.7075328639052
 20
-371.0579854056839
 30
0.0000000000000278
 11
323.2947818974252
 21
-371.0592966919287
 31
-0.0000000000000144
  0
ELLIPSE
  5
1013C
330
1F
100
AcDbEntity
  8
0
100
AcDbEllipse
 10
323.2958926985251
 20
-370.5592787229158
 30
0.0000000000000355
 11
0.0723568353472858
 21
-0.4947566221876963
 31
0.0
210
0.0
220
0.0
230
-1.0
 40
0.9999607486710111
 41
4.859834053350656
 42
6.430630380145344
  0
LINE
  5
1013D
330
1F
100
AcDbEntity
  8
0
100
AcDbLine
 10
323.7958918756389
 20
-370.5603951862999
 30
0.0000000000000355
 11
323.8247727042442
 21
-357.5599279919574
 31
0.0
  0
ELLIPSE
  5
1013E
330
1F
100
AcDbEntity
  8
0
100
AcDbEllipse
 10
323.3247735271302
 20
-357.5588115285727
 30
0.0000000000000611
 11
-0.072356835346459
 21
0.4947566221878225
 31
0.0
210
0.0
220
0.0
230
-0.9999999999999998
 40
0.9999607486710111
 41
0.1474450729642299
 42
1.718241399759959
  0
LINE
  5
1013F
330
1F
100
AcDbEntity
  8
0
100
AcDbLine
 10
323.3258843282302
 20
-357.0587935595596
 30
0.0000000000000611
 11
291.2756870756502
 21
-356.9872276983949
 31
-0.0000000000000266
  0
ELLIPSE
  5
10140
330
1F
100
AcDbEntity
  8
0
100
AcDbEllipse
 10
291.2745762745502
 20
-357.4872456674076
 30
0.0000000000000133
 11
-0.0723568353481243
 21
0.4947566221875736
 31
0.0
210
0.0
220
0.0
230
-1.0
 40
0.9999607486710132
 41
4.859834053353084
 42
6.430630380147086
  0
LINE
  5
10141
330
1F
100
AcDbEntity
  8
0
100
AcDbLine
 10
290.7745770974365
 20
-357.486129204023
 30
0.0000000000000144
 11
290.7456962688311
 21
-370.4865963983659
 31
0.00000000000003
  0
ELLIPSE
  5
10142
330
1F
100
AcDbEntity
  8
0
100
AcDbEllipse
 10
291.2456954459451
 20
-370.4877128617503
 30
0.0000000000000089
 11
-0.072356835345257
 21
0.4947566221879952
 31
0.0
210
0.0
220
0.0
230
-1.0
 40
0.9999607486710111
 41
3.289037726551307
 42
4.859834053346908
  0
LINE
  5
10143
330
1F
100
AcDbEntity
  8
0
100
AcDbLine
 10
291.2445846448452
 20
-370.9877308307634
 30
0.0000000000000089
 11
291.8315836787772
 21
-370.9890415587766
 31
-0.0000000000000133
  0
LINE
  5
10144
330
1F
100
AcDbEntity
  8
0
100
AcDbLine
 10
291.8315836787772
 20
-370.9890415587766
 30
-0.0000000000000133
 11
291.8282512754772
 21
-372.489095465816
 31
-0.0000000000000122
  0
ELLIPSE
  5
10145
330
1F
100
AcDbEntity
  8
0
100
AcDbEllipse
 10
292.3282504525902
 20
-372.4902119292004
 30
0.0000000000000067
 11
-0.0723568353454241
 21
0.4947566221879715
 31
0.0
210
0.0
220
0.0
230
-1.0
 40
0.9999607486710097
 41
3.289037726551724
 42
4.859834053347112
  0
LINE
  5
10146
330
1F
100
AcDbEntity
  8
0
100
AcDbLine
 10
292.3271396514902
 20
-372.9902298982136
 30
0.0000000000000067
 11
298.3271297768553
 21
-373.0036274588252
 31
0.0000000000000011
  0
ELLIPSE
  5
10147
330
1F
100
AcDbEntity
  8
0
100
AcDbEllipse
 10
298.3282405779551
 20
-372.503609489812
 30
-0.0000000000000189
 11
0.0723568353476411
 21
-0.4947566221876535
 31
0.0
210
0.0
220
0.0
230
-1.0
 40
0.9999607486710132
 41
4.859834053351331
 42
6.430630380146002
  0
LINE
  5
10148
330
1F
100
AcDbEntity
  8
0
100
AcDbLine
 10
298.8282397550689
 20
-372.5047259531962
 30
-0.0000000000000189
 11
298.8315721583691
 21
-371.0046720461568
 31
-0.0000000000000211
  0
LINE
  5
10149
330
1F
100
AcDbEntity
  8
0
100
AcDbLine
 10
298.8315721583691
 20
-371.0046720461568
 30
-0.0000000000000211
 11
300.2719815346122
 21
-371.007888380104
 31
-0.0000000000000344
  0
LINE
  5
1014A
330
1F
100
AcDbEntity
  8
0
100
AcDbLine
 10
300.2719815346122
 20
-371.007888380104
 30
-0.0000000000000344
 11
300.2719815346112
 21
-371.0366642403409
 31
-0.0000000000000244
  0
LWPOLYLINE
  5
1014B
330
1F
100
AcDbEntity
  8
0
100
AcDbPolyline
 90
        8
 70
     1
 43
0.0
 10
283.3149815346121
 20
-446.7367642403407
 42
-0.4142135623736986
 10
282.8149815346111
 20
-447.2367642403408
 10
269.813981534612
 20
-447.2367642403407
 42
-0.4142135623736778
 10
269.3139815346111
 20
-446.7367642403406
 10
269.3139815346121
 20
-433.7373642403409
 42
-0.4142135623725123
 10
269.8139815346111
 20
-433.2373642403411
 10
282.8149815346121
 20
-433.2373642403409
 42
-0.4142135623724915
 10
283.3149815346111
 20
-433.7373642403409
  0
LWPOLYLINE
  5
1014C
330
1F
100
AcDbEntity
  8
0
100
AcDbPolyline
 90
        8
 70
     1
 43
0.0
 10
307.126981534611
 20
-446.7367642403408
 42
-0.4142135623725123
 10
306.626981534612
 20
-447.2367642403408
 10
293.6279815346121
 20
-447.2367642403408
 42
-0.4142135623736778
 10
293.1279815346111
 20
-446.7367642403407
 10
293.1279815346121
 20
-433.7373642403409
 42
-0.4142135623724291
 10
293.6279815346111
 20
-433.2373642403411
 10
306.6269815346111
 20
-433.2373642403409
 42
-0.4142135623736778
 10
307.1269815346121
 20
-433.7373642403409
  0
LWPOLYLINE
  5
1014D
330
1F
100
AcDbEntity
  8
0
100
AcDbPolyline
 90
        8
 70
     1
 43
0.0
 10
227.3378033832501
 20
-437.8004701941595
 10
229.5951602613394
 20
-450.6029615496887
 42
0.4142125918718261
 10
230.174384512944
 20
-451.0085445986478
 10
242.9765752931122
 20
-448.751284457391
 42
0.4142145328761671
 10
243.3821596859736
 20
-448.1720582865224
 10
241.1248028078837
 20
-435.3695669309934
 42
0.4142125918709846
 10
240.54557855628
 20
-434.9639838820346
 10
227.743387776111
 20
-437.2212440232913
 42
0.4142145328752642
  0
LWPOLYLINE
  5
1014E
330
1F
100
AcDbEntity
  8
0
100
AcDbPolyline
 90
        8
 70
     1
 43
0.0
 10
172.9293810491201
 20
-441.7590487808604
 10
185.731571829259
 20
-439.5018814965805
 42
0.4142162299676965
 10
186.1371597936412
 20
-438.9226553257173
 10
183.8798029155833
 20
-426.1200711132351
 42
0.4142150155080628
 10
183.300575092471
 20
-425.7144880642945
 10
170.498384312277
 20
-427.9718410625285
 42
0.4142128357964345
 10
170.0928034909251
 20
-428.5510672333868
 10
172.3501603690387
 20
-441.3534657319143
 42
0.4142101682282257
  0
LWPOLYLINE
  5
1014F
330
1F
100
AcDbEntity
  8
0
100
AcDbPolyline
 90
        8
 70
     1
 43
0.0
 10
179.000377306006
 20
-421.3434548908407
 10
191.804564389914
 20
-419.0860773579536
 42
0.4142201006623959
 10
192.21015742476
 20
-418.5068490337008
 10
189.952801157537
 20
-405.7044539997768
 42
0.4142049640449503
 10
189.373589226658
 20
-405.2988694083305
 10
176.5694021426011
 20
-407.5561540832624
 42
0.4142217974704506
 10
176.1638055367014
 20
-408.135382407356
 10
178.4211618040756
 20
-420.9378702992349
 42
0.4142073873921202
  0
LWPOLYLINE
  5
10150
330
1F
100
AcDbEntity
  8
0
100
AcDbPolyline
 90
        8
 70
     1
 43
0.0
 10
306.6269815346111
 20
-414.1873642403409
 42
-0.414213562373761
 10
307.1269815346121
 20
-414.6873642403409
 10
307.1269815346111
 20
-427.6866642403409
 42
-0.4142135623725123
 10
306.626981534612
 20
-428.1866642403409
 10
293.6279815346121
 20
-428.1866642403409
 42
-0.4142135623736361
 10
293.1279815346111
 20
-427.6866642403411
 10
293.1279815346111
 20
-414.6873642403409
 42
-0.4142135623730951
 10
293.6279815346111
 20
-414.1873642403409
  0
LWPOLYLINE
  5
10151
330
1F
100
AcDbEntity
  8
0
100
AcDbPolyline
 90
        8
 70
     1
 43
0.0
 10
248.3839815346111
 20
-428.1866642403411
 42
-0.4142135623725123
 10
247.8839815346121
 20
-427.6866642403411
 10
247.8839815346111
 20
-414.6873642403411
 42
-0.4142135623736778
 10
248.3839815346122
 20
-414.1873642403411
 10
261.3839815346111
 20
-414.187364240341
 42
-0.4142135623730951
 10
261.883981534611
 20
-414.6873642403409
 10
261.883981534611
 20
-427.6866642403411
 42
-0.414213562372554
 10
261.3839815346121
 20
-428.1866642403411
  0
LWPOLYLINE
  5
10152
330
1F
100
AcDbEntity
  8
0
100
AcDbPolyline
 90
        8
 70
     1
 43
0.0
 10
204.8971989928601
 20
-435.61398581179
 10
202.640772373001
 20
-422.8116897415564
 42
0.4142226557960442
 10
202.0615587282102
 20
-422.406070366918
 10
189.2584065721281
 20
-424.6630577204551
 42
0.4142239828702171
 10
188.8528055737778
 20
-425.2422861891728
 10
191.1101607643838
 20
-438.0448608312767
 42
0.4142129551465138
 10
191.689385123672
 20
-438.4504444909651
 10
204.491608709008
 20
-436.1931785655576
 42
0.4141946558743493
  0
LWPOLYLINE
  5
10153
330
1F
100
AcDbEntity
  8
0
100
AcDbPolyline
 90
        8
 70
     1
 43
0.0
 10
280.4339815346121
 20
-414.1873642403409
 42
-0.4142135623725747
 10
280.9339815346111
 20
-414.6873642403411
 10
280.9339815346111
 20
-427.6866642403411
 42
-0.4142135623730951
 10
280.4339815346111
 20
-428.1866642403409
 10
267.4339815346111
 20
-428.1866642403409
 42
-0.4142135623724915
 10
266.9339815346122
 20
-427.6866642403411
 10
266.9339815346122
 20
-414.6873642403409
 42
-0.4142135623730951
 10
267.4339815346121
 20
-414.187364240341
  0
LWPOLYLINE
  5
10154
330
1F
100
AcDbEntity
  8
0
100
AcDbPolyline
 90
        8
 70
     1
 43
0.0
 10
239.5825848732081
 20
-415.7900756253325
 10
226.7803959253081
 20
-418.0471497296086
 42
0.4142186536208047
 10
226.3748046047615
 20
-418.6263771219039
 10
228.6321608720844
 20
-431.4288650134971
 42
0.4142105315084373
 10
229.2113816598521
 20
-431.8344486731811
 10
242.0135706077761
 20
-429.5772817119412
 42
0.4142169565259989
 10
242.419158356787
 20
-428.99805431961
 10
240.1618020894389
 20
-416.1956592849805
 42
0.4142081078636563
  0
LWPOLYLINE
  5
10155
330
1F
100
AcDbEntity
  8
0
100
AcDbPolyline
 90
        8
 70
     1
 43
0.0
 10
223.6581582491061
 20
-432.3066572804092
 10
221.400802592487
 20
-419.5043585665588
 42
0.4142077445795771
 10
220.8215854839441
 20
-419.0987755176573
 10
208.0193959253091
 20
-421.3558497296086
 42
0.4142186536214206
 10
207.6138046047614
 20
-421.935077121904
 10
209.8711602613394
 20
-434.7375615496888
 42
0.4142125918715113
 10
210.450384512944
 20
-435.1431445986476
 10
223.2525740716202
 20
-432.8858846727621
 42
0.414215259443489
  0
LWPOLYLINE
  5
10156
330
1F
100
AcDbEntity
  8
0
100
AcDbPolyline
 90
        8
 70
     1
 43
0.0
 10
224.4477967730352
 20
-380.278329133472
 10
226.7051615905272
 20
-393.0807726594735
 42
0.4142060474967689
 10
227.2843753428952
 20
-393.4863569298012
 10
240.0865716188931
 20
-391.2293743905656
 42
0.4142156285926509
 10
240.4921679106782
 20
-390.6501549370378
 10
238.2348030943322
 20
-377.8463185556508
 42
0.4142424015496346
 10
237.6555357703222
 20
-377.4407342877284
 10
224.8533394931801
 20
-379.6991096823481
 42
0.4141901723603957
  0
LWPOLYLINE
  5
10157
330
1F
100
AcDbEntity
  8
0
100
AcDbPolyline
 90
        8
 70
     1
 43
0.0
 10
268.5519815346111
 20
-408.636664240341
 42
-0.4142135623725123
 10
268.0519815346121
 20
-409.1366642403409
 10
255.0509815346111
 20
-409.1366642403412
 42
-0.414213562372554
 10
254.5509815346121
 20
-408.636664240341
 10
254.5509815346121
 20
-395.637364240341
 42
-0.4142135623724708
 10
255.0509815346112
 20
-395.1373642403411
 10
268.0519815346112
 20
-395.1373642403411
 42
-0.4142135623731368
 10
268.5519815346112
 20
-395.6373642403411
  0
LWPOLYLINE
  5
10158
330
1F
100
AcDbEntity
  8
0
100
AcDbPolyline
 90
        8
 70
     1
 43
0.0
 10
279.8379815346113
 20
-389.5866642403408
 42
-0.4142135623726372
 10
279.3379815346122
 20
-390.0866642403412
 10
266.3369815346111
 20
-390.086664240341
 42
-0.4142135623725123
 10
265.8369815346122
 20
-389.5866642403411
 10
265.8369815346122
 20
-376.587364240341
 42
-0.4142135623724291
 10
266.3369815346111
 20
-376.0873642403411
 10
279.3379815346112
 20
-376.0873642403411
 42
-0.4142135623730951
 10
279.8379815346111
 20
-376.5873642403412
  0
LWPOLYLINE
  5
10159
330
1F
100
AcDbEntity
  8
0
100
AcDbPolyline
 90
        8
 70
     1
 43
0.0
 10
229.7311188313311
 20
-411.890832717862
 10
227.4728335266003
 20
-399.0884350396616
 42
0.414197319193248
 10
226.8936059194101
 20
-398.6828889262946
 10
214.0923771272851
 20
-400.9402360315936
 42
0.4142092026106483
 10
213.6868024139492
 20
-401.5194611254139
 10
215.9441591475393
 20
-414.321858804292
 42
0.4142142889506817
 10
216.5233867552801
 20
-414.7274406317645
 10
229.325544118546
 20
-412.4700935257878
 42
0.4142334389788029
  0
LWPOLYLINE
  5
1015A
330
1F
100
AcDbEntity
  8
0
100
AcDbPolyline
 90
        8
 70
     1
 43
0.0
 10
197.76138675528
 20
-418.0361406317646
 10
210.5635787569461
 20
-415.7787874181539
 42
0.414212835795772
 10
210.969159578297
 20
-415.1995612472958
 10
208.711803921683
 20
-402.3971696763906
 42
0.414214288950232
 10
208.132576313943
 20
-401.9915878489177
 10
195.3303843122761
 20
-404.2489410625286
 42
0.4142128357957889
 10
194.9248034909252
 20
-404.8281672333866
 10
197.1821591475402
 20
-417.6305588042916
 42
0.4142142889503199
  0
LWPOLYLINE
  5
1015B
330
1F
100
AcDbEntity
  8
0
100
AcDbPolyline
 90
        8
 70
     1
 43
0.0
 10
274.1009815346122
 20
-409.1366642403412
 42
-0.4142135623736986
 10
273.600981534611
 20
-408.636664240341
 10
273.6009815346112
 20
-395.6373642403411
 42
-0.4142135623730951
 10
274.1009815346111
 20
-395.1373642403411
 10
287.1019815346122
 20
-395.1373642403412
 42
-0.4142135623724291
 10
287.6019815346111
 20
-395.637364240341
 10
287.6019815346111
 20
-408.6366642403409
 42
-0.4142135623730951
 10
287.1019815346111
 20
-409.1366642403409
  0
LWPOLYLINE
  5
1015C
330
1F
100
AcDbEntity
  8
0
100
AcDbPolyline
 90
        8
 70
     1
 43
0.0
 10
245.6536516946072
 20
-395.3755745573825
 10
232.8513843122762
 20
-397.6329410625287
 42
0.4142128357950162
 10
232.4458034909262
 20
-398.2121672333863
 10
234.7031551943572
 20
-411.0145363841654
 42
0.4142276246843846
 10
235.2824052215582
 20
-411.4201142579891
 10
248.0865297415951
 20
-409.1618191798302
 42
0.4142443419408065
 10
248.4920748453836
 20
-408.5825215773581
 10
246.2328660042448
 20
-395.7810809995921
 42
0.4141694481651733
  0
LWPOLYLINE
  5
1015D
330
1F
100
AcDbEntity
  8
0
100
AcDbPolyline
 90
        8
 70
     1
 43
0.0
 10
218.8965910674792
 20
-380.7493583711273
 10
206.0924750893152
 20
-383.0063519382116
 42
0.4142640945855692
 10
205.6868788027421
 20
-383.5856428104504
 10
207.9461096464471
 20
-396.3895295077766
 42
0.4141785366983191
 10
208.5253266523702
 20
-396.7950512294418
 10
221.3275854745271
 20
-394.5376862336729
 42
0.4142088399951475
 10
221.7331674803087
 20
-393.9584667804695
 10
219.4757937926117
 20
-381.1549515118276
 42
0.4142027795994768
  0
LWPOLYLINE
  5
1015E
330
1F
100
AcDbEntity
  8
0
100
AcDbPolyline
 90
        8
 70
     1
 43
0.0
 10
202.971160655273
 20
-397.2657673552684
 10
200.713803310932
 20
-384.4633662125714
 42
0.4142122285904359
 10
200.1345791670151
 20
-384.0577837743506
 10
187.3324224145191
 20
-386.3150379159077
 42
0.4142351359425825
 10
186.9268441301395
 20
-386.8942987236146
 10
189.1851300457895
 20
-399.6967927223225
 42
0.4141976826108573
 10
189.764357760752
 20
-400.1023394466556
 10
202.565585941938
 20
-397.8449924490884
 42
0.4142092026099454
  0
LWPOLYLINE
  5
1015F
330
1F
100
AcDbEntity
  8
0
100
AcDbPolyline
 90
        8
 70
     1
 43
0.0
 10
298.3879815346122
 20
-376.087364240341
 42
-0.4142135623724915
 10
298.8879815346112
 20
-376.587364240341
 10
298.8879815346112
 20
-389.5866642403408
 42
-0.4142135623730951
 10
298.3879815346112
 20
-390.0866642403408
 10
285.3889815346112
 20
-390.0866642403408
 42
-0.4142135623730951
 10
284.8889815346112
 20
-389.5866642403408
 10
284.8889815346112
 20
-376.5873642403412
 42
-0.414213562373761
 10
285.3889815346122
 20
-376.0873642403411
  0
LWPOLYLINE
  5
10160
330
1F
100
AcDbEntity
  8
0
100
AcDbPolyline
 90
        8
 70
     1
 43
0.0
 10
187.4475841971761
 20
-366.95087659076
 10
174.6443949598481
 20
-369.2081490535551
 42
0.4142181654241318
 10
174.2388044600445
 20
-369.7873763011495
 10
176.4961607274164
 20
-382.5898641930171
 42
0.4142110195521543
 10
177.0753823356732
 20
-382.9954477080392
 10
189.8785715729381
 20
-380.7380823877758
 42
0.4142164684803946
 10
190.28415850146
 20
-380.1588551401065
 10
188.0268022341519
 20
-367.3564601057069
 42
0.4142085960581044
  0
LWPOLYLINE
  5
10161
330
1F
100
AcDbEntity
  8
0
100
AcDbPolyline
 90
        8
 70
     1
 43
0.0
 10
192.9998059339691
 20
-366.4801810888896
 10
195.2571591475393
 20
-379.282558804292
 42
0.4142142889506986
 10
195.8363867552801
 20
-379.6881406317646
 10
208.6385763139082
 20
-377.4307878489239
 42
0.4142142889711086
 10
209.0441567044902
 20
-376.8515592350283
 10
206.7868034909073
 20
-364.0495529474828
 42
0.4142045943311754
 10
206.2075901693082
 20
-363.6439711201921
 10
193.4054006106912
 20
-365.9009524751775
 42
0.4142210772890153
  0
LWPOLYLINE
  5
10162
330
1F
100
AcDbEntity
  8
0
100
AcDbPolyline
 90
        8
 70
     1
 43
0.0
 10
246.5651567044902
 20
-370.2355592350281
 10
244.3078059339503
 20
-357.4335668025836
 42
0.4142128357758696
 10
243.7285787569801
 20
-357.0279874181474
 10
230.9263867553143
 20
-359.2853406317588
 42
0.414214288970226
 10
230.520806364733
 20
-359.8645692456537
 10
232.7781571352722
 20
-372.6665616780989
 42
0.4142128357753994
 10
233.3573843122422
 20
-373.0721410625344
 10
246.1595763139082
 20
-370.8147878489238
 42
0.4142142889710784
  0
LWPOLYLINE
  5
10163
330
1F
100
AcDbEntity
  8
0
100
AcDbPolyline
 90
        8
 70
     1
 43
0.0
 10
227.8051577830162
 20
-373.5428546370437
 10
225.5478033479061
 20
-360.7405628508189
 42
0.4142102929875592
 10
224.9685819550241
 20
-360.3349805572814
 10
212.1653921070392
 20
-362.5923459852231
 42
0.4142168317667727
 10
211.7598052862062
 20
-363.1715738436383
 10
214.0171597213172
 20
-375.9738656298635
 42
0.4142102929860461
 10
214.5963811141971
 20
-376.3794479234008
 10
227.3995709621832
 20
-374.1220824954597
 42
0.4142168317671175
  0
LWPOLYLINE
  5
10164
330
1F
100
AcDbEntity
  8
0
100
AcDbPolyline
 90
        8
 70
     1
 43
0.0
 10
246.7889815346122
 20
-376.5873642403412
 42
-0.414213562372554
 10
247.2889815346112
 20
-376.0873642403411
 10
260.2879815346112
 20
-376.087364240341
 42
-0.4142135623737194
 10
260.7879815346122
 20
-376.587364240341
 10
260.7879815346122
 20
-389.5866642403412
 42
-0.4142135623736361
 10
260.2879815346112
 20
-390.086664240341
 10
247.2889815346112
 20
-390.0866642403411
 42
-0.4142135623725123
 10
246.7889815346122
 20
-389.5866642403412
  0
LWPOLYLINE
  5
10165
330
1F
100
AcDbEntity
  8
0
100
AcDbPolyline
 90
        8
 70
     1
 43
0.0
 10
253.1469815346122
 20
-371.036664240341
 42
-0.4142135623736361
 10
252.6469815346112
 20
-370.5366642403412
 10
252.6469815346112
 20
-357.5371642403411
 42
-0.4142135623736778
 10
253.1469815346122
 20
-357.0371642403413
 10
266.1459815346112
 20
-357.0371642403411
 42
-0.4142135623730951
 10
266.6459815346112
 20
-357.5371642403411
 10
266.6459815346112
 20
-370.5366642403411
 42
-0.4142135623725123
 10
266.1459815346122
 20
-371.0366642403412
  0
LWPOLYLINE
  5
10166
330
1F
100
AcDbEntity
  8
0
100
AcDbPolyline
 90
        8
 70
     1
 43
0.0
 10
271.6969815346112
 20
-357.5371642403409
 42
-0.4142135623731368
 10
272.1969815346112
 20
-357.0371642403408
 10
285.1959815346112
 20
-357.0371642403408
 42
-0.4142135623736986
 10
285.6959815346122
 20
-357.5371642403408
 10
285.6959815346112
 20
-370.5366642403409
 42
-0.4142135623730951
 10
285.1959815346112
 20
-371.036664240341
 10
272.1969815346112
 20
-371.0366642403412
 42
-0.4142135623730951
 10
271.6969815346112
 20
-370.5366642403411
  0
LWPOLYLINE
  5
10167
330
1F
100
AcDbEntity
  8
0
100
AcDbPolyline
 90
        8
 70
     1
 43
0.0
 10
171.0023858553661
 20
-403.4110533835892
 10
183.8065735502381
 20
-401.1536757429892
 42
0.4142146519712651
 10
184.212168200148
 20
-400.5744565789207
 10
181.954794223165
 20
-387.7705682381458
 42
0.4142124727764516
 10
181.3755772138561
 20
-387.3649750970936
 10
168.5713895189841
 20
-389.6223527376935
 42
0.4142146519706678
 10
168.1657948690752
 20
-390.2015719017618
 10
170.4231688460569
 20
-403.0054602425368
 42
0.4142124727764257
  0
LINE
  5
10168
330
1F
100
AcDbEntity
  8
0
100
AcDbLine
 10
214.378611396298
 20
-453.7940729870175
 30
0.0000000000000167
 11
214.956946656186
 21
-453.6921061088185
 31
0.0000000000000244
  0
ELLIPSE
  5
10169
330
1F
100
AcDbEntity
  8
0
100
AcDbEllipse
 10
214.8701301906501
 20
-453.1997008881796
 30
0.0000000000001243
 11
0.4924097572475202
 21
0.0868172653913468
 31
0.0
210
0.0
220
0.0
230
-1.0
 40
0.9999907869221317
 41
0.0000000000048885
 42
1.570796326797511
  0
LINE
  5
1016A
330
1F
100
AcDbEntity
  8
0
100
AcDbLine
 10
215.362539947898
 20
-453.1128836227906
 30
0.0000000000001243
 11
213.1053118439941
 21
-440.31034788619
 31
0.0000000000000855
  0
ELLIPSE
  5
1016B
330
1F
100
AcDbEntity
  8
0
100
AcDbEllipse
 10
212.6129020867461
 20
-440.397165151579
 30
0.0000000000000366
 11
0.4924097572471233
 21
0.0868172653936287
 31
0.0
210
0.0
220
0.0
230
-1.0
 40
0.9999907869221315
 41
4.712388980395603
 42
6.283185307188908
  0
LINE
  5
1016C
330
1F
100
AcDbEntity
  8
0
100
AcDbLine
 10
212.5260856212121
 20
-439.9047599309402
 30
0.0000000000000366
 11
180.96237397674
 21
-445.4697900510084
 31
0.00000000000004
  0
ELLIPSE
  5
1016D
330
1F
100
AcDbEntity
  8
0
100
AcDbEllipse
 10
181.049190442275
 20
-445.9621952716475
 30
0.0000000000000899
 11
-0.4924097572479337
 21
-0.0868172653890109
 31
0.0
210
0.0
220
0.0
230
-1.0
 40
0.9999907869221294
 41
0.0000000000001137
 42
1.570796326794612
  0
LINE
  5
1016E
330
1F
100
AcDbEntity
  8
0
100
AcDbLine
 10
180.5567806850271
 20
-446.0490125370364
 30
0.0000000000000899
 11
182.814008788932
 21
-458.8515482736376
 31
0.0000000000000999
  0
ELLIPSE
  5
1016F
330
1F
100
AcDbEntity
  8
0
100
AcDbEllipse
 10
183.306418546179
 20
-458.7647310082484
 30
0.0000000000000988
 11
-0.4924097572479344
 21
-0.0868172653890111
 31
0.0
210
0.0
220
0.0
230
-1.0
 40
0.9999907869221313
 41
4.712388980384177
 42
6.283185307179245
  0
LINE
  5
10170
330
1F
100
AcDbEntity
  8
0
100
AcDbLine
 10
183.3932350117141
 20
-459.257136228887
 30
0.0000000000000988
 11
183.971324066723
 21
-459.1552127593196
 31
0.0000000000000266
  0
LINE
  5
10171
330
1F
100
AcDbEntity
  8
0
100
AcDbLine
 10
183.971324066723
 20
-459.1552127593196
 30
0.0000000000000266
 11
184.231773463327
 21
-460.6324284212354
 31
0.0000000000001465
  0
ELLIPSE
  5
10172
330
1F
100
AcDbEntity
  8
0
100
AcDbEllipse
 10
184.724183220575
 20
-460.5456111558465
 30
0.0000000000001454
 11
-0.4924097572479344
 21
-0.0868172653890111
 31
0.0
210
0.0
220
0.0
230
-1.0
 40
0.9999907869221329
 41
4.712388980384064
 42
6.283185307179813
  0
LINE
  5
10173
330
1F
100
AcDbEntity
  8
0
100
AcDbLine
 10
184.81099968611
 20
-461.0380163764849
 30
0.0000000000001454
 11
190.719916773086
 21
-459.9962091918165
 31
0.00000000000006
  0
ELLIPSE
  5
10174
330
1F
100
AcDbEntity
  8
0
100
AcDbEllipse
 10
190.633100307551
 20
-459.5038039711785
 30
0.0000000000000899
 11
0.4924097572479413
 21
0.0868172653890123
 31
0.0
210
0.0
220
0.0
230
-1.0
 40
0.9999907869221312
 41
0.0
 42
1.570796326794271
  0
LINE
  5
10175
330
1F
100
AcDbEntity
  8
0
100
AcDbLine
 10
191.125510064799
 20
-459.4169867057895
 30
0.0000000000000899
 11
190.865060668194
 21
-457.9397710438735
 31
0.0000000000000389
  0
LINE
  5
10176
330
1F
100
AcDbEntity
  8
0
100
AcDbLine
 10
190.865060668194
 20
-457.9397710438735
 30
0.0000000000000389
 11
207.484874794826
 21
-455.0095147024635
 31
0.0000000000000644
  0
LINE
  5
10177
330
1F
100
AcDbEntity
  8
0
100
AcDbLine
 10
207.484874794826
 20
-455.0095147024635
 30
0.0000000000000644
 11
207.7453241914311
 21
-456.4867303643795
 31
0.0000000000000244
  0
ELLIPSE
  5
10178
330
1F
100
AcDbEntity
  8
0
100
AcDbEllipse
 10
208.2377339486791
 20
-456.3999130989905
 30
0.0000000000000333
 11
-0.4924097572479322
 21
-0.0868172653890108
 31
0.0
210
0.0
220
0.0
230
-1.0
 40
0.9999907869221337
 41
4.712388980384008
 42
6.283185307179472
  0
LINE
  5
10179
330
1F
100
AcDbEntity
  8
0
100
AcDbLine
 10
208.3245504142142
 20
-456.892318319629
 30
0.0000000000000333
 11
214.233467501189
 21
-455.8505111349605
 31
0.0000000000000977
  0
ELLIPSE
  5
1017A
330
1F
100
AcDbEntity
  8
0
100
AcDbEllipse
 10
214.146651035654
 20
-455.3581059143224
 30
0.0000000000000278
 11
0.4924097572479413
 21
0.0868172653890123
 31
0.0
210
0.0
220
0.0
230
-1.0
 40
0.9999907869221312
 41
0.0
 42
1.570796326794327
  0
LINE
  5
1017B
330
1F
100
AcDbEntity
  8
0
100
AcDbLine
 10
214.639060792902
 20
-455.2712886489336
 30
0.0000000000000278
 11
214.378611396298
 21
-453.7940729870175
 31
0.0000000000000167
  0
LWPOLYLINE
  5
1017C
330
1F
100
AcDbEntity
  8
0
100
AcDbPolyline
 90
        8
 70
     1
 43
0.0
 10
330.4399815346111
 20
-433.2373642403409
 10
317.4389815346121
 20
-433.2373642403409
 42
0.4142135623730951
 10
316.9389815346121
 20
-433.7373642403409
 10
316.9389815346121
 20
-446.7367642403408
 42
0.4142135623730951
 10
317.438981534612
 20
-447.2367642403408
 10
330.439981534612
 20
-447.2367642403408
 42
0.4142135623725333
 10
330.9399815346111
 20
-446.7367642403408
 10
330.9399815346111
 20
-433.7373642403409
 42
0.4142135623730951
  0
LWPOLYLINE
  5
1017D
330
1F
100
AcDbEntity
  8
0
100
AcDbPolyline
 90
        8
 70
     1
 43
0.0
 10
332.8209815346121
 20
-414.1873642403409
 10
319.8219815346121
 20
-414.1873642403409
 42
0.414213562373657
 10
319.3219815346111
 20
-414.6873642403409
 10
319.3219815346111
 20
-427.6866642403408
 42
0.4142135623730951
 10
319.821981534611
 20
-428.1866642403409
 10
332.8209815346111
 20
-428.1866642403409
 42
0.4142135623736986
 10
333.3209815346121
 20
-427.6866642403408
 10
333.3209815346112
 20
-414.6873642403408
 42
0.4142135623724083
  0
LWPOLYLINE
  5
1017E
330
1F
100
AcDbEntity
  8
0
100
AcDbPolyline
 90
        8
 70
     1
 43
0.0
 10
308.7325544379272
 20
-376.3851931178917
 10
308.7325544379282
 20
-389.3844931178918
 42
0.4142135623736986
 10
309.2325544379292
 20
-389.8844931178918
 10
322.2315544379291
 20
-389.8844931178918
 42
0.4142135623725333
 10
322.7315544379282
 20
-389.3844931178918
 10
322.7315544379282
 20
-376.3851931178917
 42
0.4142135623724499
 10
322.2315544379291
 20
-375.885193117892
 10
309.2325544379281
 20
-375.8851931178917
 42
0.414213562373657
  0
CIRCLE
  5
1017F
330
1F
100
AcDbEntity
  8
0
100
AcDbCircle
 10
-326.321807304134
 20
-430.7119736272351
 30
0.0000000000004108
 40
1.1
210
0.0
220
0.0
230
-1.0
  0
CIRCLE
  5
10180
330
1F
100
AcDbEntity
  8
0
100
AcDbCircle
 10
-170.908887430884
 20
-462.4438539305015
 30
-0.0000000000000222
 40
0.9999999999999801
210
0.0
220
0.0
230
-1.0
  0
CIRCLE
  5
10181
330
1F
100
AcDbEntity
  8
0
100
AcDbCircle
 10
-168.9685204729862
 20
-369.1642575007331
 30
0.0000000000000056
 40
0.9999999999999801
210
0.0
220
0.0
230
-1.0
  0
CIRCLE
  5
10182
330
1F
100
AcDbEntity
  8
0
100
AcDbCircle
 10
-329.1856498986182
 20
-356.0212798071171
 30
0.0000000000000044
 40
0.9999999999999801
210
0.0
220
0.0
230
-1.0
  0
CIRCLE
  5
10183
330
1F
100
AcDbEntity
  8
0
100
AcDbCircle
 10
-306.2078803041341
 20
-383.8848026272383
 30
0.0000000000003753
 40
1.09999999999999
210
0.0
220
0.0
230
-1.0
  0
CIRCLE
  5
10184
330
1F
100
AcDbEntity
  8
0
100
AcDbCircle
 10
-191.8159033041341
 20
-374.3040066272386
 30
0.0000000000000633
 40
1.09999999999999
210
0.0
220
0.0
230
-1.0
  0
CIRCLE
  5
10185
330
1F
100
AcDbEntity
  8
0
100
AcDbCircle
 10
-179.366366304134
 20
-453.8745916272385
 30
-0.0000000000000067
 40
1.09999999999999
210
0.0
220
0.0
230
-1.0
  0
ENDSEC
  0
SECTION
  2
OBJECTS
  0
DICTIONARY
  5
C
330
0
100
AcDbDictionary
281
     1
  3
ACAD_BACKGROUND
350
1005B
  3
ACAD_CIP_PREVIOUS_PRODUCT_INFO
350
1005A
  3
ACAD_COLOR
350
10036
  3
ACAD_DETAILVIEWSTYLE
350
10051
  3
ACAD_GROUP
350
D
  3
ACAD_LAYOUT
350
10037
  3
ACAD_MATERIAL
350
10004
  3
ACAD_MLEADERSTYLE
350
1004D
  3
ACAD_MLINESTYLE
350
17
  3
ACAD_PLOTSETTINGS
350
10054
  3
ACAD_PLOTSTYLENAME
350
10002
  3
ACAD_SCALELIST
350
1003B
  3
ACAD_SECTIONVIEWSTYLE
350
1004F
  3
ACAD_TABLESTYLE
350
10038
  3
ACAD_VISUALSTYLE
350
1001D
  3
ACDB_RECOMPOSE_DATA
350
10191
  3
AcDbVariableDictionary
350
10061
  3
AcDsDecomposeData
350
10197
  0
DICTIONARY
  5
10189
330
2
100
AcDbDictionary
280
     1
281
     1
  3
ACAD_LAYERSTATES
360
1018A
  0
DICTIONARY
  5
1005F
330
50
100
AcDbDictionary
280
     1
281
     1
  3
ADSK_XREC_LAYER_RECONCILED
360
10060
  0
DICTIONARY
  5
1005B
102
{ACAD_REACTORS
330
C
102
}
330
C
100
AcDbDictionary
281
     1
  0
XRECORD
  5
1005A
102
{ACAD_REACTORS
330
C
102
}
330
C
100
AcDbXrecord
280
     1
300
ACD
300
2022
300

  0
DICTIONARY
  5
10036
102
{ACAD_REACTORS
330
C
102
}
330
C
100
AcDbDictionary
281
     1
  0
DICTIONARY
  5
10051
102
{ACAD_REACTORS
330
C
102
}
330
C
100
AcDbDictionary
281
     1
  3
Imperial24
350
10052
  0
DICTIONARY
  5
D
330
C
100
AcDbDictionary
281
     1
  0
DICTIONARY
  5
10037
102
{ACAD_REACTORS
330
C
102
}
330
C
100
AcDbDictionary
281
     1
  3
Layout1
350
10056
  3
Model
350
10055
  0
DICTIONARY
  5
10004
102
{ACAD_REACTORS
330
C
102
}
330
C
100
AcDbDictionary
281
     1
  3
ByBlock
350
1000D
  3
ByLayer
350
10005
  3
Global
350
10015
  0
DICTIONARY
  5
1004D
102
{ACAD_REACTORS
330
C
102
}
330
C
100
AcDbDictionary
281
     1
  3
Standard
350
1004E
  0
DICTIONARY
  5
17
330
C
100
AcDbDictionary
281
     1
  3
Standard
350
1003A
  0
DICTIONARY
  5
10054
102
{ACAD_REACTORS
330
C
102
}
330
C
100
AcDbDictionary
281
     1
  0
ACDBDICTIONARYWDFLT
  5
10002
102
{ACAD_REACTORS
330
C
102
}
330
C
100
AcDbDictionary
281
     1
  3
Normal
350
10003
100
AcDbDictionaryWithDefault
340
10003
  0
DICTIONARY
  5
1003B
102
{ACAD_REACTORS
330
C
102
}
330
C
100
AcDbDictionary
281
     1
  3
A0
350
1003C
  3
A1
350
1003D
  3
A2
350
1003E
  3
A3
350
1003F
  3
A4
350
10040
  3
A5
350
10041
  3
A6
350
10042
  3
A7
350
10043
  3
A8
350
10044
  3
A9
350
10045
  3
B0
350
10046
  3
B1
350
10047
  3
B2
350
10048
  3
B3
350
10049
  3
B4
350
1004A
  3
B5
350
1004B
  3
B6
350
1004C
  0
DICTIONARY
  5
1004F
102
{ACAD_REACTORS
330
C
102
}
330
C
100
AcDbDictionary
281
     1
  3
Imperial24
350
10050
  0
DICTIONARY
  5
10038
102
{ACAD_REACTORS
330
C
102
}
330
C
100
AcDbDictionary
281
     1
  3
Standard
350
10039
  0
DICTIONARY
  5
1001D
102
{ACAD_REACTORS
330
C
102
}
330
C
100
AcDbDictionary
281
     1
  3
2dWireframe
350
10023
  3
Basic
350
10022
  3
Brighten
350
10029
  3
ColorChange
350
1002D
  3
Conceptual
350
10026
  3
Dim
350
10028
  3
EdgeColorOff
350
10035
  3
Facepattern
350
1002C
  3
Flat
350
1001E
  3
FlatWithEdges
350
1001F
  3
Gouraud
350
10020
  3
GouraudWithEdges
350
10021
  3
Hidden
350
10025
  3
JitterOff
350
10033
  3
Linepattern
350
1002B
  3
OverhangOff
350
10034
  3
Realistic
350
10027
  3
Shaded
350
10032
  3
Shaded with edges
350
10031
  3
Shades of Gray
350
1002E
  3
Sketchy
350
1002F
  3
Thicken
350
1002A
  3
Wireframe
350
10024
  3
X-Ray
350
10030
  0
XRECORD
  5
10191
102
{ACAD_REACTORS
330
C
102
}
330
C
100
AcDbXrecord
280
     1
 90
        1
330
10039
  0
DICTIONARY
  5
10061
102
{ACAD_REACTORS
330
C
102
}
330
C
100
AcDbDictionary
281
     1
  3
CANNOSCALE
350
10067
  3
CMLEADERSTYLE
350
10063
  3
CTABLESTYLE
350
10062
  3
CVIEWDETAILSTYLE
350
10064
  3
CVIEWSECTIONSTYLE
350
10065
  3
LAYEREVAL
350
10069
  3
LAYERNOTIFY
350
1006A
  3
LIGHTINGUNITS
350
10068
  3
MSLTSCALE
350
10066
  0
DICTIONARY
  5
10197
102
{ACAD_REACTORS
330
C
102
}
330
C
100
AcDbDictionary
281
     1
  3
AcDsRecords
350
10199
  3
AcDsSchemas
350
10198
1001
ACAD
1070
     2
  0
DICTIONARY
  5
1018A
102
{ACAD_REACTORS
330
10189
102
}
330
10189
100
AcDbDictionary
281
     1
  0
XRECORD
  5
10060
102
{ACAD_REACTORS
330
1005F
102
}
330
1005F
100
AcDbXrecord
280
     1
290
     1
  0
ACDBDETAILVIEWSTYLE
  5
10052
102
{ACAD_XDICTIONARY
360
1019C
102
}
102
{ACAD_REACTORS
330
10051
102
}
330
10051
100
AcDbModelDocViewStyle
 70
     0
  3
Imperial24
290
     0
100
AcDbDetailViewStyle
 70
     0
 71
     0
 90
        3
 71
     1
340
11
 62
   256
 40
0.24
340
0
 62
   256
 40
0.24
300

 40
0.36
280
     3
 71
     2
340
0
 90
       25
 62
   256
 71
     3
340
11
 62
   256
 40
0.24
 90
        1
 40
0.75
 90
        1
300
%<\AcVar ViewType \f "%tc1">% %<\AcVar ViewDetailId>%\PSCALE %<\AcVar ViewScale \f "%sn">%
 71
     4
340
0
 90
       25
 62
   256
340
0
 90
       25
 62
   256
280
     0
  0
LAYOUT
  5
10056
102
{ACAD_REACTORS
330
10037
102
}
330
10037
100
AcDbPlotSettings
  1

  2
Canon iP110 series WS
  4

  6

 40
0.0
 41
0.0
 42
0.0
 43
0.0
 44
0.0
 45
0.0
 46
0.0
 47
0.0
 48
0.0
 49
0.0
140
0.0
141
0.0
142
1.0
143
1.0
 70
   688
 72
     0
 73
     0
 74
     5
  7

 75
    16
147
1.0
 76
     0
 77
     2
 78
   300
148
0.0
149
0.0
100
AcDbLayout
  1
Layout1
 70
     1
 71
     1
 10
0.0
 20
0.0
 11
12.0
 21
9.0
 12
0.0
 22
0.0
 32
0.0
 14
1.000000000000000E+20
 24
1.000000000000000E+20
 34
1.000000000000000E+20
 15
-1.000000000000000E+20
 25
-1.000000000000000E+20
 35
-1.000000000000000E+20
146
0.0
 13
0.0
 23
0.0
 33
0.0
 16
1.0
 26
0.0
 36
0.0
 17
0.0
 27
1.0
 37
0.0
 76
     0
330
1B
  0
LAYOUT
  5
10055
102
{ACAD_REACTORS
330
10037
102
}
330
10037
100
AcDbPlotSettings
  1

  2
Canon iP110 series WS
  4

  6

 40
0.0
 41
0.0
 42
0.0
 43
0.0
 44
0.0
 45
0.0
 46
0.0
 47
0.0
 48
0.0
 49
0.0
140
0.0
141
0.0
142
1.0
143
1.0
 70
  1712
 72
     0
 73
     0
 74
     0
  7

 75
     0
147
1.0
 76
     0
 77
     2
 78
   300
148
0.0
149
0.0
100
AcDbLayout
  1
Model
 70
     1
 71
     0
 10
0.0
 20
0.0
 11
12.0
 21
9.0
 12
0.0
 22
0.0
 32
0.0
 14
0.0
 24
0.0
 34
0.0
 15
0.0
 25
0.0
 35
0.0
146
0.0
 13
0.0
 23
0.0
 33
0.0
 16
1.0
 26
0.0
 36
0.0
 17
0.0
 27
1.0
 37
0.0
 76
     0
330
1F
331
10059
  0
MATERIAL
  5
1000D
102
{ACAD_XDICTIONARY
360
1000E
102
}
102
{ACAD_REACTORS
330
10004
102
}
330
10004
100
AcDbMaterial
  1
ByBlock
 72
     0
 43
0.0008202099737533
 43
0.0
 43
0.0
 43
0.0
 43
0.0
 43
0.0008202099737533
 43
0.0
 43
0.0
 43
0.0
 43
0.0
 43
1.0
 43
0.0
 43
0.0
 43
0.0
 43
0.0
 43
1.0
 77
     0
 47
0.0008202099737533
 47
0.0
 47
0.0
 47
0.0
 47
0.0
 47
0.0008202099737533
 47
0.0
 47
0.0
 47
0.0
 47
0.0
 47
1.0
 47
0.0
 47
0.0
 47
0.0
 47
0.0
 47
1.0
171
     0
 49
0.0008202099737533
 49
0.0
 49
0.0
 49
0.0
 49
0.0
 49
0.0008202099737533
 49
0.0
 49
0.0
 49
0.0
 49
0.0
 49
1.0
 49
0.0
 49
0.0
 49
0.0
 49
0.0
 49
1.0
175
     0
142
0.0008202099737533
142
0.0
142
0.0
142
0.0
142
0.0
142
0.0008202099737533
142
0.0
142
0.0
142
0.0
142
0.0
142
1.0
142
0.0
142
0.0
142
0.0
142
0.0
142
1.0
179
     0
144
0.0008202099737533
144
0.0
144
0.0
144
0.0
144
0.0
144
0.0008202099737533
144
0.0
144
0.0
144
0.0
144
0.0
144
1.0
144
0.0
144
0.0
144
0.0
144
0.0
144
1.0
147
0.0008202099737533
147
0.0
147
0.0
147
0.0
147
0.0
147
0.0008202099737533
147
0.0
147
0.0
147
0.0
147
0.0
147
1.0
147
0.0
147
0.0
147
0.0
147
0.0
147
1.0
  0
MATERIAL
  5
10005
102
{ACAD_XDICTIONARY
360
10006
102
}
102
{ACAD_REACTORS
330
10004
102
}
330
10004
100
AcDbMaterial
  1
ByLayer
 72
     0
 43
0.0008202099737533
 43
0.0
 43
0.0
 43
0.0
 43
0.0
 43
0.0008202099737533
 43
0.0
 43
0.0
 43
0.0
 43
0.0
 43
1.0
 43
0.0
 43
0.0
 43
0.0
 43
0.0
 43
1.0
 77
     0
 47
0.0008202099737533
 47
0.0
 47
0.0
 47
0.0
 47
0.0
 47
0.0008202099737533
 47
0.0
 47
0.0
 47
0.0
 47
0.0
 47
1.0
 47
0.0
 47
0.0
 47
0.0
 47
0.0
 47
1.0
171
     0
 49
0.0008202099737533
 49
0.0
 49
0.0
 49
0.0
 49
0.0
 49
0.0008202099737533
 49
0.0
 49
0.0
 49
0.0
 49
0.0
 49
1.0
 49
0.0
 49
0.0
 49
0.0
 49
0.0
 49
1.0
175
     0
142
0.0008202099737533
142
0.0
142
0.0
142
0.0
142
0.0
142
0.0008202099737533
142
0.0
142
0.0
142
0.0
142
0.0
142
1.0
142
0.0
142
0.0
142
0.0
142
0.0
142
1.0
179
     0
144
0.0008202099737533
144
0.0
144
0.0
144
0.0
144
0.0
144
0.0008202099737533
144
0.0
144
0.0
144
0.0
144
0.0
144
1.0
144
0.0
144
0.0
144
0.0
144
0.0
144
1.0
147
0.0008202099737533
147
0.0
147
0.0
147
0.0
147
0.0
147
0.0008202099737533
147
0.0
147
0.0
147
0.0
147
0.0
147
1.0
147
0.0
147
0.0
147
0.0
147
0.0
147
1.0
  0
MATERIAL
  5
10015
102
{ACAD_XDICTIONARY
360
10016
102
}
102
{ACAD_REACTORS
330
10004
102
}
330
10004
100
AcDbMaterial
  1
Global
 72
     0
 43
0.0008202099737533
 43
0.0
 43
0.0
 43
0.0
 43
0.0
 43
0.0008202099737533
 43
0.0
 43
0.0
 43
0.0
 43
0.0
 43
1.0
 43
0.0
 43
0.0
 43
0.0
 43
0.0
 43
1.0
 77
     0
 47
0.0008202099737533
 47
0.0
 47
0.0
 47
0.0
 47
0.0
 47
0.0008202099737533
 47
0.0
 47
0.0
 47
0.0
 47
0.0
 47
1.0
 47
0.0
 47
0.0
 47
0.0
 47
0.0
 47
1.0
171
     0
 49
0.0008202099737533
 49
0.0
 49
0.0
 49
0.0
 49
0.0
 49
0.0008202099737533
 49
0.0
 49
0.0
 49
0.0
 49
0.0
 49
1.0
 49
0.0
 49
0.0
 49
0.0
 49
0.0
 49
1.0
175
     0
142
0.0008202099737533
142
0.0
142
0.0
142
0.0
142
0.0
142
0.0008202099737533
142
0.0
142
0.0
142
0.0
142
0.0
142
1.0
142
0.0
142
0.0
142
0.0
142
0.0
142
1.0
179
     0
144
0.0008202099737533
144
0.0
144
0.0
144
0.0
144
0.0
144
0.0008202099737533
144
0.0
144
0.0
144
0.0
144
0.0
144
1.0
144
0.0
144
0.0
144
0.0
144
0.0
144
1.0
147
0.0008202099737533
147
0.0
147
0.0
147
0.0
147
0.0
147
0.0008202099737533
147
0.0
147
0.0
147
0.0
147
0.0
147
1.0
147
0.0
147
0.0
147
0.0
147
0.0
147
1.0
  0
MLEADERSTYLE
  5
1004E
102
{ACAD_REACTORS
330
1004D
102
}
330
1004D
100
AcDbMLeaderStyle
179
     2
170
     2
171
     1
172
     0
 90
        2
 40
0.0
 41
0.0
173
     1
 91
-1056964608
340
14
 92
       -2
290
     1
 42
0.09
291
     1
 43
0.36
  3
Standard
 44
0.18
300

342
11
174
     1
178
     6
175
     1
176
     0
 93
-1056964608
 45
0.18
292
     0
297
     0
 46
0.18
 94
-1056964608
 47
1.0
 49
1.0
140
1.0
293
     1
141
0.0
294
     1
177
     0
142
1.0
295
     0
296
     0
143
0.125
271
     0
272
     9
273
     9
298
     0
  0
MLINESTYLE
  5
1003A
102
{ACAD_REACTORS
330
17
102
}
330
17
100
AcDbMlineStyle
  2
STANDARD
 70
     0
  3

 62
   256
 51
90.0
 52
90.0
 71
     2
 49
0.5
 62
   256
  6
BYLAYER
 49
-0.5
 62
   256
  6
BYLAYER
  0
ACDBPLACEHOLDER
  5
10003
102
{ACAD_REACTORS
330
10002
102
}
330
10002
  0
SCALE
  5
1003C
102
{ACAD_REACTORS
330
1003B
102
}
330
1003B
100
AcDbScale
 70
     0
300
1:1
140
1.0
141
1.0
290
     1
  0
SCALE
  5
1003D
102
{ACAD_REACTORS
330
1003B
102
}
330
1003B
100
AcDbScale
 70
     0
300
1/128" = 1'-0"
140
0.0078125
141
12.0
290
     0
  0
SCALE
  5
1003E
102
{ACAD_REACTORS
330
1003B
102
}
330
1003B
100
AcDbScale
 70
     0
300
1/64" = 1'-0"
140
0.015625
141
12.0
290
     0
  0
SCALE
  5
1003F
102
{ACAD_REACTORS
330
1003B
102
}
330
1003B
100
AcDbScale
 70
     0
300
1/32" = 1'-0"
140
0.03125
141
12.0
290
     0
  0
SCALE
  5
10040
102
{ACAD_REACTORS
330
1003B
102
}
330
1003B
100
AcDbScale
 70
     0
300
1/16" = 1'-0"
140
0.0625
141
12.0
290
     0
  0
SCALE
  5
10041
102
{ACAD_REACTORS
330
1003B
102
}
330
1003B
100
AcDbScale
 70
     0
300
3/32" = 1'-0"
140
0.09375
141
12.0
290
     0
  0
SCALE
  5
10042
102
{ACAD_REACTORS
330
1003B
102
}
330
1003B
100
AcDbScale
 70
     0
300
1/8" = 1'-0"
140
0.125
141
12.0
290
     0
  0
SCALE
  5
10043
102
{ACAD_REACTORS
330
1003B
102
}
330
1003B
100
AcDbScale
 70
     0
300
3/16" = 1'-0"
140
0.1875
141
12.0
290
     0
  0
SCALE
  5
10044
102
{ACAD_REACTORS
330
1003B
102
}
330
1003B
100
AcDbScale
 70
     0
300
1/4" = 1'-0"
140
0.25
141
12.0
290
     0
  0
SCALE
  5
10045
102
{ACAD_REACTORS
330
1003B
102
}
330
1003B
100
AcDbScale
 70
     0
300
3/8" = 1'-0"
140
0.375
141
12.0
290
     0
  0
SCALE
  5
10046
102
{ACAD_REACTORS
330
1003B
102
}
330
1003B
100
AcDbScale
 70
     0
300
1/2" = 1'-0"
140
0.5
141
12.0
290
     0
  0
SCALE
  5
10047
102
{ACAD_REACTORS
330
1003B
102
}
330
1003B
100
AcDbScale
 70
     0
300
3/4" = 1'-0"
140
0.75
141
12.0
290
     0
  0
SCALE
  5
10048
102
{ACAD_REACTORS
330
1003B
102
}
330
1003B
100
AcDbScale
 70
     0
300
1" = 1'-0"
140
1.0
141
12.0
290
     0
  0
SCALE
  5
10049
102
{ACAD_REACTORS
330
1003B
102
}
330
1003B
100
AcDbScale
 70
     0
300
1-1/2" = 1'-0"
140
1.5
141
12.0
290
     0
  0
SCALE
  5
1004A
102
{ACAD_REACTORS
330
1003B
102
}
330
1003B
100
AcDbScale
 70
     0
300
3" = 1'-0"
140
3.0
141
12.0
290
     0
  0
SCALE
  5
1004B
102
{ACAD_REACTORS
330
1003B
102
}
330
1003B
100
AcDbScale
 70
     0
300
6" = 1'-0"
140
6.0
141
12.0
290
     0
  0
SCALE
  5
1004C
102
{ACAD_REACTORS
330
1003B
102
}
330
1003B
100
AcDbScale
 70
     0
300
1'-0" = 1'-0"
140
12.0
141
12.0
290
     0
  0
ACDBSECTIONVIEWSTYLE
  5
10050
102
{ACAD_XDICTIONARY
360
1019A
102
}
102
{ACAD_REACTORS
330
1004F
102
}
330
1004F
100
AcDbModelDocViewStyle
 70
     0
  3
Imperial24
290
     0
100
AcDbSectionViewStyle
 70
     0
 71
     0
 90
       78
 71
     1
340
11
 62
   256
 40
0.24
340
0
340
0
 62
   256
 40
0.24
300
I, O, Q, S, X, Z
 40
0.48
 90
        3
 40
0.18
 90
        1
 71
     2
340
0
 90
       25
 62
   256
340
0
 90
       50
 62
   256
 40
0.24
 40
0.0
 40
0.24
 71
     3
340
11
 62
   256
 40
0.24
 90
        1
 40
0.75
 90
        1
300
%<\AcVar ViewType \f "%tc1">% %<\AcVar ViewSectionStartId>%-%<\AcVar ViewSectionEndId>%\PSCALE %<\AcVar ViewScale \f "%sn">%
 71
     4
 62
   256
 62
   257
300
ANSI31
 40
1.0
 90
        0
290
     0
290
     0
 90
        6
 40
0.0
 40
1.570796326794896
 40
0.2617993877991494
 40
1.308996938995747
 40
-0.2617993877991494
 40
1.832595714594046
  0
TABLESTYLE
  5
10039
102
{ACAD_XDICTIONARY
360
1018F
102
}
102
{ACAD_REACTORS
330
10038
102
}
330
10038
100
AcDbTableStyle
280
     0
  3
Standard
 70
     0
 71
     0
 40
0.06
 41
0.06
280
     0
281
     0
  7
STANDARD
140
0.18
170
     2
 62
     0
 63
     7
283
     0
 90
      512
 91
        0
  1

274
    -2
284
     1
 64
     0
275
    -2
285
     1
 65
     0
276
    -2
286
     1
 66
     0
277
    -2
287
     1
 67
     0
278
    -2
288
     1
 68
     0
279
    -2
289
     1
 69
     0
  7
STANDARD
140
0.25
170
     5
 62
     0
 63
     7
283
     0
 90
      512
 91
        0
  1

274
    -2
284
     1
 64
     0
275
    -2
285
     1
 65
     0
276
    -2
286
     1
 66
     0
277
    -2
287
     1
 67
     0
278
    -2
288
     1
 68
     0
279
    -2
289
     1
 69
     0
  7
STANDARD
140
0.18
170
     5
 62
     0
 63
     7
283
     0
 90
      512
 91
        0
  1

274
    -2
284
     1
 64
     0
275
    -2
285
     1
 65
     0
276
    -2
286
     1
 66
     0
277
    -2
287
     1
 67
     0
278
    -2
288
     1
 68
     0
279
    -2
289
     1
 69
     0
  0
VISUALSTYLE
  5
10023
102
{ACAD_REACTORS
330
1001D
102
}
330
1001D
100
AcDbVisualStyle
  2
2dWireframe
 70
     4
177
     3
291
     0
 70
    58
 90
        0
176
     1
 90
        2
176
     1
 90
        0
176
     1
 90
        0
176
     1
 40
0.6
176
     1
 40
30.0
176
     1
 62
     7
420
 16777215
176
     1
 90
        1
176
     1
 90
        4
176
     1
 62
     7
176
     1
 62
   257
176
     1
 90
        1
176
     1
 90
        1
176
     1
 40
1.0
176
     1
 90
        0
176
     1
 62
   257
176
     1
 40
1.0
176
     1
 90
        1
176
     1
 90
        6
176
     1
 90
        2
176
     1
 62
     7
176
     1
 90
        5
176
     1
 90
        0
176
     1
 90
        0
176
     1
290
     0
176
     1
 90
        1
176
     1
 40
0.0
176
     1
 90
        0
176
     1
290
     1
176
     1
290
     1
176
     1
290
     0
176
     1
290
     0
176
     1
290
     0
176
     1
290
     0
176
     1
290
     0
176
     1
290
     0
176
     1
290
     0
176
     1
 90
       50
176
     1
 40
0.0
176
     1
 40
1.0
176
     1
 90
        0
176
     1
 62
    18
420
        0
176
     1
 90
       50
176
     1
 90
        3
176
     1
 62
     5
420
      255
176
     1
290
     0
176
     1
 90
       50
176
     1
 90
       50
176
     1
 90
       50
176
     1
290
     0
176
     1
 90
       50
176
     1
 62
   256
176
     0
 40
1.0
176
     0
 90
        2
176
     1
  1
strokes_ogs.tif
176
     1
290
     0
176
     1
 40
1.0
176
     1
 40
1.0
176
     1
1001
ACAD
1000
AcDbSavedByObjectVersion
1070
     0
  0
VISUALSTYLE
  5
10022
102
{ACAD_REACTORS
330
1001D
102
}
330
1001D
100
AcDbVisualStyle
  2
Basic
 70
     7
177
     3
291
     1
 70
    58
 90
        1
176
     1
 90
        0
176
     1
 90
        1
176
     1
 90
        0
176
     1
 40
0.6
176
     1
 40
30.0
176
     1
 62
     7
420
 16777215
176
     1
 90
        0
176
     1
 90
        4
176
     1
 62
     7
176
     1
 62
   257
176
     1
 90
        1
176
     1
 90
        1
176
     1
 40
1.0
176
     1
 90
        8
176
     1
 62
     7
176
     1
 40
1.0
176
     1
 90
        1
176
     1
 90
        6
176
     1
 90
        2
176
     1
 62
     7
176
     1
 90
        5
176
     1
 90
        0
176
     1
 90
        0
176
     1
290
     0
176
     1
 90
        1
176
     1
 40
0.0
176
     1
 90
        0
176
     1
290
     0
176
     1
290
     1
176
     1
290
     1
176
     1
290
     0
176
     1
290
     0
176
     1
290
     0
176
     1
290
     0
176
     1
290
     0
176
     1
290
     0
176
     1
 90
       50
176
     1
 40
0.0
176
     1
 40
1.0
176
     1
 90
        0
176
     1
 62
    18
420
        0
176
     1
 90
       50
176
     1
 90
        3
176
     1
 62
     5
420
      255
176
     1
290
     0
176
     1
 90
       50
176
     1
 90
       50
176
     1
 90
       50
176
     1
290
     0
176
     1
 90
       50
176
     1
 62
   256
176
     0
 40
1.0
176
     0
 90
        2
176
     1
  1
strokes_ogs.tif
176
     1
290
     0
176
     1
 40
1.0
176
     1
 40
1.0
176
     1
1001
ACAD
1000
AcDbSavedByObjectVersion
1070
     0
  0
VISUALSTYLE
  5
10029
102
{ACAD_REACTORS
330
1001D
102
}
330
1001D
100
AcDbVisualStyle
  2
Brighten
 70
    12
177
     3
291
     1
 70
    58
 90
        2
176
     1
 90
        2
176
     1
 90
        0
176
     1
 90
        0
176
     1
 40
0.6
176
     1
 40
30.0
176
     1
 62
     7
420
 16777215
176
     1
 90
        1
176
     1
 90
        4
176
     1
 62
     7
176
     1
 62
   257
176
     1
 90
        1
176
     1
 90
        1
176
     1
 40
1.0
176
     1
 90
        8
176
     1
 62
     7
176
     1
 40
1.0
176
     1
 90
        1
176
     1
 90
        6
176
     1
 90
        2
176
     1
 62
     7
176
     1
 90
        5
176
     1
 90
        0
176
     1
 90
        0
176
     1
290
     0
176
     1
 90
        1
176
     1
 40
50.0
176
     1
 90
        0
176
     1
290
     0
176
     1
290
     1
176
     1
290
     1
176
     1
290
     0
176
     1
290
     0
176
     1
290
     0
176
     1
290
     0
176
     1
290
     0
176
     1
290
     0
176
     1
 90
       50
176
     1
 40
0.0
176
     1
 40
1.0
176
     1
 90
        0
176
     1
 62
    18
420
        0
176
     1
 90
       50
176
     1
 90
        3
176
     1
 62
     5
420
      255
176
     1
290
     0
176
     1
 90
       50
176
     1
 90
       50
176
     1
 90
       50
176
     1
290
     0
176
     1
 90
       50
176
     1
 62
   256
176
     0
 40
1.0
176
     0
 90
        2
176
     1
  1
strokes_ogs.tif
176
     1
290
     0
176
     1
 40
1.0
176
     1
 40
1.0
176
     1
1001
ACAD
1000
AcDbSavedByObjectVersion
1070
     0
  0
VISUALSTYLE
  5
1002D
102
{ACAD_REACTORS
330
1001D
102
}
330
1001D
100
AcDbVisualStyle
  2
ColorChange
 70
    16
177
     3
291
     1
 70
    58
 90
        2
176
     1
 90
        2
176
     1
 90
        3
176
     1
 90
        0
176
     1
 40
0.6
176
     1
 40
30.0
176
     1
 62
     8
420
  8421504
176
     1
 90
        1
176
     1
 90
        4
176
     1
 62
     7
176
     1
 62
   257
176
     1
 90
        1
176
     1
 90
        1
176
     1
 40
1.0
176
     1
 90
        8
176
     1
 62
     8
420
  8421504
176
     1
 40
1.0
176
     1
 90
        1
176
     1
 90
        6
176
     1
 90
        2
176
     1
 62
     7
176
     1
 90
        5
176
     1
 90
        0
176
     1
 90
        0
176
     1
290
     0
176
     1
 90
        1
176
     1
 40
0.0
176
     1
 90
        0
176
     1
290
     0
176
     1
290
     1
176
     1
290
     1
176
     1
290
     0
176
     1
290
     0
176
     1
290
     0
176
     1
290
     0
176
     1
290
     0
176
     1
290
     0
176
     1
 90
       50
176
     1
 40
0.0
176
     1
 40
1.0
176
     1
 90
        0
176
     1
 62
    18
420
        0
176
     1
 90
       50
176
     1
 90
        3
176
     1
 62
     5
420
      255
176
     1
290
     0
176
     1
 90
       50
176
     1
 90
       50
176
     1
 90
       50
176
     1
290
     0
176
     1
 90
       50
176
     1
 62
   256
176
     0
 40
1.0
176
     0
 90
        2
176
     1
  1
strokes_ogs.tif
176
     1
290
     0
176
     1
 40
1.0
176
     1
 40
1.0
176
     1
1001
ACAD
1000
AcDbSavedByObjectVersion
1070
     0
  0
VISUALSTYLE
  5
10026
102
{ACAD_REACTORS
330
1001D
102
}
330
1001D
100
AcDbVisualStyle
  2
Conceptual
 70
     9
177
     3
291
     0
 70
    58
 90
        3
176
     1
 90
        2
176
     1
 90
        0
176
     1
 90
        0
176
     1
 40
0.6
176
     1
 40
30.0
176
     1
 62
     7
420
 16777215
176
     1
 90
        2
176
     1
 90
        2
176
     1
 62
     7
176
     1
 62
   257
176
     1
 90
        1
176
     1
 90
        1
176
     1
 40
179.0
176
     1
 90
        8
176
     1
 62
     7
176
     1
 40
1.0
176
     1
 90
        1
176
     1
 90
        6
176
     1
 90
        2
176
     1
 62
     7
176
     1
 90
        3
176
     1
 90
        0
176
     1
 90
        0
176
     1
290
     0
176
     1
 90
        1
176
     1
 40
0.0
176
     1
 90
        0
176
     1
290
     0
176
     1
290
     1
176
     1
290
     1
176
     1
290
     0
176
     1
290
     0
176
     1
290
     0
176
     1
290
     0
176
     1
290
     0
176
     1
290
     0
176
     1
 90
       50
176
     1
 40
0.0
176
     1
 40
1.0
176
     1
 90
        0
176
     1
 62
    18
420
        0
176
     1
 90
       50
176
     1
 90
        3
176
     1
 62
     5
420
      255
176
     1
290
     0
176
     1
 90
       50
176
     1
 90
       50
176
     1
 90
       50
176
     1
290
     0
176
     1
 90
       50
176
     1
 62
   256
176
     0
 40
1.0
176
     0
 90
        2
176
     1
  1
strokes_ogs.tif
176
     1
290
     0
176
     1
 40
1.0
176
     1
 40
1.0
176
     1
1001
ACAD
1000
AcDbSavedByObjectVersion
1070
     0
  0
VISUALSTYLE
  5
10028
102
{ACAD_REACTORS
330
1001D
102
}
330
1001D
100
AcDbVisualStyle
  2
Dim
 70
    11
177
     3
291
     1
 70
    58
 90
        2
176
     1
 90
        2
176
     1
 90
        0
176
     1
 90
        0
176
     1
 40
0.6
176
     1
 40
30.0
176
     1
 62
     7
420
 16777215
176
     1
 90
        1
176
     1
 90
        4
176
     1
 62
     7
176
     1
 62
   257
176
     1
 90
        1
176
     1
 90
        1
176
     1
 40
1.0
176
     1
 90
        8
176
     1
 62
     7
176
     1
 40
1.0
176
     1
 90
        1
176
     1
 90
        6
176
     1
 90
        2
176
     1
 62
     7
176
     1
 90
        5
176
     1
 90
        0
176
     1
 90
        0
176
     1
290
     0
176
     1
 90
        1
176
     1
 40
-50.0
176
     1
 90
        0
176
     1
290
     0
176
     1
290
     1
176
     1
290
     1
176
     1
290
     0
176
     1
290
     0
176
     1
290
     0
176
     1
290
     0
176
     1
290
     0
176
     1
290
     0
176
     1
 90
       50
176
     1
 40
0.0
176
     1
 40
1.0
176
     1
 90
        0
176
     1
 62
    18
420
        0
176
     1
 90
       50
176
     1
 90
        3
176
     1
 62
     5
420
      255
176
     1
290
     0
176
     1
 90
       50
176
     1
 90
       50
176
     1
 90
       50
176
     1
290
     0
176
     1
 90
       50
176
     1
 62
   256
176
     0
 40
1.0
176
     0
 90
        2
176
     1
  1
strokes_ogs.tif
176
     1
290
     0
176
     1
 40
1.0
176
     1
 40
1.0
176
     1
1001
ACAD
1000
AcDbSavedByObjectVersion
1070
     0
  0
VISUALSTYLE
  5
10035
102
{ACAD_REACTORS
330
1001D
102
}
330
1001D
100
AcDbVisualStyle
  2
EdgeColorOff
 70
    22
177
     3
291
     1
 70
    58
 90
        2
176
     0
 90
        2
176
     0
 90
        0
176
     0
 90
        0
176
     0
 40
0.6
176
     0
 40
30.0
176
     0
 62
     7
420
 16777215
176
     0
 90
        1
176
     0
 90
        4
176
     0
 62
     7
176
     0
 62
   257
176
     0
 90
        1
176
     0
 90
        1
176
     0
 40
1.0
176
     0
 90
        8
176
     2
 62
     7
176
     0
 40
1.0
176
     0
 90
        1
176
     0
 90
        6
176
     0
 90
        2
176
     0
 62
     7
176
     0
 90
        5
176
     0
 90
        0
176
     0
 90
        0
176
     0
290
     0
176
     0
 90
        1
176
     0
 40
0.0
176
     0
 90
        0
176
     0
290
     0
176
     1
290
     1
176
     1
290
     1
176
     1
290
     0
176
     1
290
     0
176
     1
290
     0
176
     1
290
     0
176
     1
290
     0
176
     1
290
     0
176
     1
 90
       50
176
     0
 40
0.0
176
     0
 40
1.0
176
     0
 90
        0
176
     0
 62
    18
420
        0
176
     0
 90
       50
176
     0
 90
        3
176
     0
 62
     5
420
      255
176
     0
290
     0
176
     1
 90
       50
176
     0
 90
       50
176
     0
 90
       50
176
     0
290
     0
176
     1
 90
       50
176
     0
 62
   256
176
     0
 40
1.0
176
     0
 90
        2
176
     0
  1
strokes_ogs.tif
176
     0
290
     0
176
     1
 40
1.0
176
     0
 40
1.0
176
     0
1001
ACAD
1000
AcDbSavedByObjectVersion
1070
     0
  0
VISUALSTYLE
  5
1002C
102
{ACAD_REACTORS
330
1001D
102
}
330
1001D
100
AcDbVisualStyle
  2
Facepattern
 70
    15
177
     3
291
     1
 70
    58
 90
        2
176
     1
 90
        2
176
     1
 90
        0
176
     1
 90
        0
176
     1
 40
0.6
176
     1
 40
30.0
176
     1
 62
     7
420
 16777215
176
     1
 90
        1
176
     1
 90
        4
176
     1
 62
     7
176
     1
 62
   257
176
     1
 90
        1
176
     1
 90
        1
176
     1
 40
1.0
176
     1
 90
        8
176
     1
 62
     7
176
     1
 40
1.0
176
     1
 90
        1
176
     1
 90
        6
176
     1
 90
        2
176
     1
 62
     7
176
     1
 90
        5
176
     1
 90
        0
176
     1
 90
        0
176
     1
290
     0
176
     1
 90
        1
176
     1
 40
0.0
176
     1
 90
        0
176
     1
290
     0
176
     1
290
     1
176
     1
290
     1
176
     1
290
     0
176
     1
290
     0
176
     1
290
     0
176
     1
290
     0
176
     1
290
     0
176
     1
290
     0
176
     1
 90
       50
176
     1
 40
0.0
176
     1
 40
1.0
176
     1
 90
        0
176
     1
 62
    18
420
        0
176
     1
 90
       50
176
     1
 90
        3
176
     1
 62
     5
420
      255
176
     1
290
     0
176
     1
 90
       50
176
     1
 90
       50
176
     1
 90
       50
176
     1
290
     0
176
     1
 90
       50
176
     1
 62
   256
176
     0
 40
1.0
176
     0
 90
        2
176
     1
  1
strokes_ogs.tif
176
     1
290
     0
176
     1
 40
1.0
176
     1
 40
1.0
176
     1
1001
ACAD
1000
AcDbSavedByObjectVersion
1070
     0
  0
VISUALSTYLE
  5
1001E
102
{ACAD_REACTORS
330
1001D
102
}
330
1001D
100
AcDbVisualStyle
  2
Flat
 70
     0
177
     3
291
     1
 70
    58
 90
        2
176
     1
 90
        1
176
     1
 90
        1
176
     1
 90
        2
176
     1
 40
0.6
176
     1
 40
30.0
176
     1
 62
     7
420
 16777215
176
     1
 90
        0
176
     1
 90
        0
176
     1
 62
     7
176
     1
 62
   257
176
     1
 90
        1
176
     1
 90
        1
176
     1
 40
1.0
176
     1
 90
        8
176
     1
 62
     7
176
     1
 40
1.0
176
     1
 90
        1
176
     1
 90
        6
176
     1
 90
        2
176
     1
 62
     7
176
     1
 90
        5
176
     1
 90
        0
176
     1
 90
        0
176
     1
290
     0
176
     1
 90
       13
176
     1
 40
0.0
176
     1
 90
        0
176
     1
290
     0
176
     1
290
     1
176
     1
290
     1
176
     1
290
     0
176
     1
290
     0
176
     1
290
     0
176
     1
290
     0
176
     1
290
     0
176
     1
290
     0
176
     1
 90
       50
176
     1
 40
0.0
176
     1
 40
1.0
176
     1
 90
        0
176
     1
 62
    18
420
        0
176
     1
 90
       50
176
     1
 90
        3
176
     1
 62
     5
420
      255
176
     1
290
     0
176
     1
 90
       50
176
     1
 90
       50
176
     1
 90
       50
176
     1
290
     0
176
     1
 90
       50
176
     1
 62
   256
176
     0
 40
1.0
176
     0
 90
        2
176
     1
  1
strokes_ogs.tif
176
     1
290
     0
176
     1
 40
1.0
176
     1
 40
1.0
176
     1
1001
ACAD
1000
AcDbSavedByObjectVersion
1070
     0
  0
VISUALSTYLE
  5
1001F
102
{ACAD_REACTORS
330
1001D
102
}
330
1001D
100
AcDbVisualStyle
  2
FlatWithEdges
 70
     1
177
     3
291
     1
 70
    58
 90
        2
176
     1
 90
        1
176
     1
 90
        1
176
     1
 90
        2
176
     1
 40
0.6
176
     1
 40
30.0
176
     1
 62
     7
420
 16777215
176
     1
 90
        1
176
     1
 90
        0
176
     1
 62
     7
176
     1
 62
   257
176
     1
 90
        1
176
     1
 90
        1
176
     1
 40
1.0
176
     1
 90
        0
176
     1
 62
   257
176
     1
 40
1.0
176
     1
 90
        1
176
     1
 90
        6
176
     1
 90
        2
176
     1
 62
     7
176
     1
 90
        5
176
     1
 90
        0
176
     1
 90
        0
176
     1
290
     0
176
     1
 90
       13
176
     1
 40
0.0
176
     1
 90
        0
176
     1
290
     0
176
     1
290
     1
176
     1
290
     1
176
     1
290
     0
176
     1
290
     0
176
     1
290
     0
176
     1
290
     0
176
     1
290
     0
176
     1
290
     0
176
     1
 90
       50
176
     1
 40
0.0
176
     1
 40
1.0
176
     1
 90
        0
176
     1
 62
    18
420
        0
176
     1
 90
       50
176
     1
 90
        3
176
     1
 62
     5
420
      255
176
     1
290
     0
176
     1
 90
       50
176
     1
 90
       50
176
     1
 90
       50
176
     1
290
     0
176
     1
 90
       50
176
     1
 62
   256
176
     0
 40
1.0
176
     0
 90
        2
176
     1
  1
strokes_ogs.tif
176
     1
290
     0
176
     1
 40
1.0
176
     1
 40
1.0
176
     1
1001
ACAD
1000
AcDbSavedByObjectVersion
1070
     0
  0
VISUALSTYLE
  5
10020
102
{ACAD_REACTORS
330
1001D
102
}
330
1001D
100
AcDbVisualStyle
  2
Gouraud
 70
     2
177
     3
291
     1
 70
    58
 90
        2
176
     1
 90
        2
176
     1
 90
        1
176
     1
 90
        2
176
     1
 40
0.6
176
     1
 40
30.0
176
     1
 62
     7
420
 16777215
176
     1
 90
        0
176
     1
 90
        0
176
     1
 62
     7
176
     1
 62
   257
176
     1
 90
        1
176
     1
 90
        1
176
     1
 40
1.0
176
     1
 90
        0
176
     1
 62
     7
176
     1
 40
1.0
176
     1
 90
        1
176
     1
 90
        6
176
     1
 90
        2
176
     1
 62
     7
176
     1
 90
        5
176
     1
 90
        0
176
     1
 90
        0
176
     1
290
     0
176
     1
 90
       13
176
     1
 40
0.0
176
     1
 90
        0
176
     1
290
     0
176
     1
290
     1
176
     1
290
     1
176
     1
290
     0
176
     1
290
     0
176
     1
290
     0
176
     1
290
     0
176
     1
290
     0
176
     1
290
     0
176
     1
 90
       50
176
     1
 40
0.0
176
     1
 40
1.0
176
     1
 90
        0
176
     1
 62
    18
420
        0
176
     1
 90
       50
176
     1
 90
        3
176
     1
 62
     5
420
      255
176
     1
290
     0
176
     1
 90
       50
176
     1
 90
       50
176
     1
 90
       50
176
     1
290
     0
176
     1
 90
       50
176
     1
 62
   256
176
     0
 40
1.0
176
     0
 90
        2
176
     1
  1
strokes_ogs.tif
176
     1
290
     0
176
     1
 40
1.0
176
     1
 40
1.0
176
     1
1001
ACAD
1000
AcDbSavedByObjectVersion
1070
     0
  0
VISUALSTYLE
  5
10021
102
{ACAD_REACTORS
330
1001D
102
}
330
1001D
100
AcDbVisualStyle
  2
GouraudWithEdges
 70
     3
177
     3
291
     1
 70
    58
 90
        2
176
     1
 90
        2
176
     1
 90
        1
176
     1
 90
        2
176
     1
 40
0.6
176
     1
 40
30.0
176
     1
 62
     7
420
 16777215
176
     1
 90
        1
176
     1
 90
        0
176
     1
 62
     7
176
     1
 62
   257
176
     1
 90
        1
176
     1
 90
        1
176
     1
 40
1.0
176
     1
 90
        0
176
     1
 62
   257
176
     1
 40
1.0
176
     1
 90
        1
176
     1
 90
        6
176
     1
 90
        2
176
     1
 62
     7
176
     1
 90
        5
176
     1
 90
        0
176
     1
 90
        0
176
     1
290
     0
176
     1
 90
       13
176
     1
 40
0.0
176
     1
 90
        0
176
     1
290
     0
176
     1
290
     1
176
     1
290
     1
176
     1
290
     0
176
     1
290
     0
176
     1
290
     0
176
     1
290
     0
176
     1
290
     0
176
     1
290
     0
176
     1
 90
       50
176
     1
 40
0.0
176
     1
 40
1.0
176
     1
 90
        0
176
     1
 62
    18
420
        0
176
     1
 90
       50
176
     1
 90
        3
176
     1
 62
     5
420
      255
176
     1
290
     0
176
     1
 90
       50
176
     1
 90
       50
176
     1
 90
       50
176
     1
290
     0
176
     1
 90
       50
176
     1
 62
   256
176
     0
 40
1.0
176
     0
 90
        2
176
     1
  1
strokes_ogs.tif
176
     1
290
     0
176
     1
 40
1.0
176
     1
 40
1.0
176
     1
1001
ACAD
1000
AcDbSavedByObjectVersion
1070
     0
  0
VISUALSTYLE
  5
10025
102
{ACAD_REACTORS
330
1001D
102
}
330
1001D
100
AcDbVisualStyle
  2
Hidden
 70
     6
177
     3
291
     0
 70
    58
 90
        1
176
     1
 90
        2
176
     1
 90
        2
176
     1
 90
        0
176
     1
 40
0.6
176
     1
 40
30.0
176
     1
 62
     7
420
 16777215
176
     1
 90
        2
176
     1
 90
        2
176
     1
 62
     7
176
     1
 62
   257
176
     1
 90
        2
176
     1
 90
        1
176
     1
 40
40.0
176
     1
 90
        0
176
     1
 62
   257
176
     1
 40
1.0
176
     1
 90
        1
176
     1
 90
        6
176
     1
 90
        2
176
     1
 62
     7
176
     1
 90
        3
176
     1
 90
        0
176
     1
 90
        0
176
     1
290
     0
176
     1
 90
        1
176
     1
 40
0.0
176
     1
 90
        0
176
     1
290
     0
176
     1
290
     1
176
     1
290
     1
176
     1
290
     0
176
     1
290
     0
176
     1
290
     0
176
     1
290
     0
176
     1
290
     0
176
     1
290
     0
176
     1
 90
       50
176
     1
 40
0.0
176
     1
 40
1.0
176
     1
 90
        0
176
     1
 62
    18
420
        0
176
     1
 90
       50
176
     1
 90
        3
176
     1
 62
     5
420
      255
176
     1
290
     0
176
     1
 90
       50
176
     1
 90
       50
176
     1
 90
       50
176
     1
290
     0
176
     1
 90
       50
176
     1
 62
   256
176
     0
 40
1.0
176
     0
 90
        2
176
     1
  1
strokes_ogs.tif
176
     1
290
     0
176
     1
 40
1.0
176
     1
 40
1.0
176
     1
1001
ACAD
1000
AcDbSavedByObjectVersion
1070
     0
  0
VISUALSTYLE
  5
10033
102
{ACAD_REACTORS
330
1001D
102
}
330
1001D
100
AcDbVisualStyle
  2
JitterOff
 70
    20
177
     3
291
     1
 70
    58
 90
        2
176
     0
 90
        2
176
     0
 90
        0
176
     0
 90
        0
176
     0
 40
0.6
176
     0
 40
30.0
176
     0
 62
     7
420
 16777215
176
     0
 90
        1
176
     0
 90
        4
176
     0
 62
     7
176
     0
 62
   257
176
     0
 90
        1
176
     0
 90
        1
176
     0
 40
1.0
176
     0
 90
       10
176
     2
 62
     7
176
     0
 40
1.0
176
     0
 90
        1
176
     0
 90
        6
176
     0
 90
        2
176
     0
 62
     7
176
     0
 90
        5
176
     0
 90
        0
176
     0
 90
        0
176
     0
290
     0
176
     0
 90
        1
176
     0
 40
0.0
176
     0
 90
        0
176
     0
290
     0
176
     1
290
     1
176
     1
290
     1
176
     1
290
     0
176
     1
290
     0
176
     1
290
     0
176
     1
290
     0
176
     1
290
     0
176
     1
290
     0
176
     1
 90
       50
176
     0
 40
0.0
176
     0
 40
1.0
176
     0
 90
        0
176
     0
 62
    18
420
        0
176
     0
 90
       50
176
     0
 90
        3
176
     0
 62
     5
420
      255
176
     0
290
     0
176
     1
 90
       50
176
     0
 90
       50
176
     0
 90
       50
176
     0
290
     0
176
     1
 90
       50
176
     0
 62
   256
176
     0
 40
1.0
176
     0
 90
        2
176
     0
  1
strokes_ogs.tif
176
     0
290
     0
176
     1
 40
1.0
176
     0
 40
1.0
176
     0
1001
ACAD
1000
AcDbSavedByObjectVersion
1070
     0
  0
VISUALSTYLE
  5
1002B
102
{ACAD_REACTORS
330
1001D
102
}
330
1001D
100
AcDbVisualStyle
  2
Linepattern
 70
    14
177
     3
291
     1
 70
    58
 90
        2
176
     1
 90
        2
176
     1
 90
        0
176
     1
 90
        0
176
     1
 40
0.6
176
     1
 40
30.0
176
     1
 62
     7
420
 16777215
176
     1
 90
        1
176
     1
 90
        4
176
     1
 62
     7
176
     1
 62
   257
176
     1
 90
        7
176
     1
 90
        7
176
     1
 40
1.0
176
     1
 90
        8
176
     1
 62
     7
176
     1
 40
1.0
176
     1
 90
        1
176
     1
 90
        6
176
     1
 90
        2
176
     1
 62
     7
176
     1
 90
        5
176
     1
 90
        0
176
     1
 90
        0
176
     1
290
     0
176
     1
 90
        1
176
     1
 40
0.0
176
     1
 90
        0
176
     1
290
     0
176
     1
290
     1
176
     1
290
     1
176
     1
290
     0
176
     1
290
     0
176
     1
290
     0
176
     1
290
     0
176
     1
290
     0
176
     1
290
     0
176
     1
 90
       50
176
     1
 40
0.0
176
     1
 40
1.0
176
     1
 90
        0
176
     1
 62
    18
420
        0
176
     1
 90
       50
176
     1
 90
        3
176
     1
 62
     5
420
      255
176
     1
290
     0
176
     1
 90
       50
176
     1
 90
       50
176
     1
 90
       50
176
     1
290
     0
176
     1
 90
       50
176
     1
 62
   256
176
     0
 40
1.0
176
     0
 90
        2
176
     1
  1
strokes_ogs.tif
176
     1
290
     0
176
     1
 40
1.0
176
     1
 40
1.0
176
     1
1001
ACAD
1000
AcDbSavedByObjectVersion
1070
     0
  0
VISUALSTYLE
  5
10034
102
{ACAD_REACTORS
330
1001D
102
}
330
1001D
100
AcDbVisualStyle
  2
OverhangOff
 70
    21
177
     3
291
     1
 70
    58
 90
        2
176
     0
 90
        2
176
     0
 90
        0
176
     0
 90
        0
176
     0
 40
0.6
176
     0
 40
30.0
176
     0
 62
     7
420
 16777215
176
     0
 90
        1
176
     0
 90
        4
176
     0
 62
     7
176
     0
 62
   257
176
     0
 90
        1
176
     0
 90
        1
176
     0
 40
1.0
176
     0
 90
        9
176
     2
 62
     7
176
     0
 40
1.0
176
     0
 90
        1
176
     0
 90
        6
176
     0
 90
        2
176
     0
 62
     7
176
     0
 90
        5
176
     0
 90
        0
176
     0
 90
        0
176
     0
290
     0
176
     0
 90
        1
176
     0
 40
0.0
176
     0
 90
        0
176
     0
290
     0
176
     1
290
     1
176
     1
290
     1
176
     1
290
     0
176
     1
290
     0
176
     1
290
     0
176
     1
290
     0
176
     1
290
     0
176
     1
290
     0
176
     1
 90
       50
176
     0
 40
0.0
176
     0
 40
1.0
176
     0
 90
        0
176
     0
 62
    18
420
        0
176
     0
 90
       50
176
     0
 90
        3
176
     0
 62
     5
420
      255
176
     0
290
     0
176
     1
 90
       50
176
     0
 90
       50
176
     0
 90
       50
176
     0
290
     0
176
     1
 90
       50
176
     0
 62
   256
176
     0
 40
1.0
176
     0
 90
        2
176
     0
  1
strokes_ogs.tif
176
     0
290
     0
176
     1
 40
1.0
176
     0
 40
1.0
176
     0
1001
ACAD
1000
AcDbSavedByObjectVersion
1070
     0
  0
VISUALSTYLE
  5
10027
102
{ACAD_REACTORS
330
1001D
102
}
330
1001D
100
AcDbVisualStyle
  2
Realistic
 70
     8
177
     3
291
     0
 70
    58
 90
        2
176
     1
 90
        3
176
     1
 90
        0
176
     1
 90
        2
176
     1
 40
0.6
176
     1
 40
30.0
176
     1
 62
     7
420
 16777215
176
     1
 90
        0
176
     1
 90
        0
176
     1
 62
     7
176
     1
 62
   257
176
     1
 90
        1
176
     1
 90
        1
176
     1
 40
1.0
176
     1
 90
        8
176
     1
 62
   257
176
     1
 40
1.0
176
     1
 90
        1
176
     1
 90
        6
176
     1
 90
        2
176
     1
 62
     7
176
     1
 90
        3
176
     1
 90
        0
176
     1
 90
        0
176
     1
290
     0
176
     1
 90
       13
176
     1
 40
0.0
176
     1
 90
        0
176
     1
290
     0
176
     1
290
     1
176
     1
290
     1
176
     1
290
     0
176
     1
290
     0
176
     1
290
     0
176
     1
290
     0
176
     1
290
     0
176
     1
290
     0
176
     1
 90
       50
176
     1
 40
0.0
176
     1
 40
1.0
176
     1
 90
        0
176
     1
 62
    18
420
        0
176
     1
 90
       50
176
     1
 90
        3
176
     1
 62
     5
420
      255
176
     1
290
     0
176
     1
 90
       50
176
     1
 90
       50
176
     1
 90
       50
176
     1
290
     0
176
     1
 90
       50
176
     1
 62
   256
176
     0
 40
1.0
176
     0
 90
        2
176
     1
  1
strokes_ogs.tif
176
     1
290
     0
176
     1
 40
1.0
176
     1
 40
1.0
176
     1
1001
ACAD
1000
AcDbSavedByObjectVersion
1070
     0
  0
VISUALSTYLE
  5
10032
102
{ACAD_REACTORS
330
1001D
102
}
330
1001D
100
AcDbVisualStyle
  2
Shaded
 70
    27
177
     3
291
     0
 70
    58
 90
        2
176
     1
 90
        2
176
     1
 90
        1
176
     1
 90
        2
176
     1
 40
0.6
176
     1
 40
30.0
176
     1
 62
     7
420
 16777215
176
     1
 90
        0
176
     1
 90
        4
176
     1
 62
     7
176
     1
 62
   257
176
     1
 90
        1
176
     1
 90
        1
176
     1
 40
1.0
176
     1
 90
        8
176
     1
 62
   257
176
     1
 40
1.0
176
     1
 90
        1
176
     1
 90
        6
176
     1
 90
        2
176
     1
 62
     8
420
  7895160
176
     1
 90
        3
176
     1
 90
        0
176
     1
 90
        0
176
     1
290
     0
176
     1
 90
        5
176
     1
 40
0.0
176
     1
 90
        0
176
     1
290
     0
176
     1
290
     1
176
     1
290
     1
176
     1
290
     0
176
     1
290
     0
176
     1
290
     0
176
     1
290
     0
176
     1
290
     0
176
     1
290
     0
176
     1
 90
       50
176
     1
 40
0.0
176
     1
 40
1.0
176
     1
 90
        0
176
     1
 62
    18
420
        0
176
     1
 90
       50
176
     1
 90
        3
176
     1
 62
     5
420
      255
176
     1
290
     0
176
     1
 90
       50
176
     1
 90
       50
176
     1
 90
       50
176
     1
290
     0
176
     1
 90
       50
176
     1
 62
   256
176
     0
 40
1.0
176
     0
 90
        2
176
     1
  1
strokes_ogs.tif
176
     1
290
     0
176
     1
 40
1.0
176
     1
 40
1.0
176
     1
1001
ACAD
1000
AcDbSavedByObjectVersion
1070
     0
  0
VISUALSTYLE
  5
10031
102
{ACAD_REACTORS
330
1001D
102
}
330
1001D
100
AcDbVisualStyle
  2
Shaded with edges
 70
    26
177
     3
291
     0
 70
    58
 90
        2
176
     1
 90
        2
176
     1
 90
        1
176
     1
 90
        2
176
     1
 40
0.6
176
     1
 40
30.0
176
     1
 62
     7
420
 16777215
176
     1
 90
        1
176
     1
 90
        2
176
     1
 62
     7
176
     1
 62
   257
176
     1
 90
        2
176
     1
 90
        1
176
     1
 40
1.0
176
     1
 90
        8
176
     1
 62
   257
176
     1
 40
1.0
176
     1
 90
        1
176
     1
 90
        6
176
     1
 90
        2
176
     1
 62
     7
176
     1
 90
        3
176
     1
 90
        0
176
     1
 90
        0
176
     1
290
     0
176
     1
 90
        5
176
     1
 40
0.0
176
     1
 90
        0
176
     1
290
     0
176
     1
290
     1
176
     1
290
     1
176
     1
290
     0
176
     1
290
     0
176
     1
290
     0
176
     1
290
     0
176
     1
290
     0
176
     1
290
     0
176
     1
 90
       50
176
     1
 40
0.0
176
     1
 40
1.0
176
     1
 90
        0
176
     1
 62
    18
420
        0
176
     1
 90
       50
176
     1
 90
        3
176
     1
 62
     5
420
      255
176
     1
290
     0
176
     1
 90
       50
176
     1
 90
       50
176
     1
 90
       50
176
     1
290
     0
176
     1
 90
       50
176
     1
 62
   256
176
     0
 40
1.0
176
     0
 90
        2
176
     1
  1
strokes_ogs.tif
176
     1
290
     0
176
     1
 40
1.0
176
     1
 40
1.0
176
     1
1001
ACAD
1000
AcDbSavedByObjectVersion
1070
     0
  0
VISUALSTYLE
  5
1002E
102
{ACAD_REACTORS
330
1001D
102
}
330
1001D
100
AcDbVisualStyle
  2
Shades of Gray
 70
    23
177
     3
291
     0
 70
    58
 90
        2
176
     1
 90
        2
176
     1
 90
        3
176
     1
 90
        0
176
     1
 40
0.6
176
     1
 40
30.0
176
     1
 62
     7
420
 16777215
176
     1
 90
        2
176
     1
 90
        2
176
     1
 62
     7
176
     1
 62
     7
176
     1
 90
        1
176
     1
 90
        1
176
     1
 40
40.0
176
     1
 90
        8
176
     1
 62
     7
176
     1
 40
1.0
176
     1
 90
        1
176
     1
 90
        6
176
     1
 90
        2
176
     1
 62
     7
176
     1
 90
        3
176
     1
 90
        0
176
     1
 90
        0
176
     1
290
     0
176
     1
 90
        1
176
     1
 40
0.0
176
     1
 90
        0
176
     1
290
     0
176
     1
290
     1
176
     1
290
     1
176
     1
290
     0
176
     1
290
     0
176
     1
290
     0
176
     1
290
     0
176
     1
290
     0
176
     1
290
     0
176
     1
 90
       50
176
     1
 40
0.0
176
     1
 40
1.0
176
     1
 90
        0
176
     1
 62
    18
420
        0
176
     1
 90
       50
176
     1
 90
        3
176
     1
 62
     5
420
      255
176
     1
290
     0
176
     1
 90
       50
176
     1
 90
       50
176
     1
 90
       50
176
     1
290
     0
176
     1
 90
       50
176
     1
 62
   256
176
     0
 40
1.0
176
     0
 90
        2
176
     1
  1
strokes_ogs.tif
176
     1
290
     0
176
     1
 40
1.0
176
     1
 40
1.0
176
     1
1001
ACAD
1000
AcDbSavedByObjectVersion
1070
     0
  0
VISUALSTYLE
  5
1002F
102
{ACAD_REACTORS
330
1001D
102
}
330
1001D
100
AcDbVisualStyle
  2
Sketchy
 70
    24
177
     3
291
     0
 70
    58
 90
        1
176
     1
 90
        2
176
     1
 90
        2
176
     1
 90
        0
176
     1
 40
0.6
176
     1
 40
30.0
176
     1
 62
     7
420
 16777215
176
     1
 90
        2
176
     1
 90
        2
176
     1
 62
     7
176
     1
 62
     7
176
     1
 90
        1
176
     1
 90
        1
176
     1
 40
40.0
176
     1
 90
       11
176
     1
 62
     7
176
     1
 40
1.0
176
     1
 90
        1
176
     1
 90
        6
176
     1
 90
        2
176
     1
 62
     7
176
     1
 90
        6
176
     1
 90
        0
176
     1
 90
        0
176
     1
290
     0
176
     1
 90
        1
176
     1
 40
0.0
176
     1
 90
        0
176
     1
290
     0
176
     1
290
     1
176
     1
290
     1
176
     1
290
     0
176
     1
290
     0
176
     1
290
     0
176
     1
290
     0
176
     1
290
     0
176
     1
290
     0
176
     1
 90
       50
176
     1
 40
0.0
176
     1
 40
1.0
176
     1
 90
        0
176
     1
 62
    18
420
        0
176
     1
 90
       50
176
     1
 90
        3
176
     1
 62
     5
420
      255
176
     1
290
     0
176
     1
 90
       50
176
     1
 90
       50
176
     1
 90
       50
176
     1
290
     0
176
     1
 90
       50
176
     1
 62
   256
176
     0
 40
1.0
176
     0
 90
        2
176
     1
  1
strokes_ogs.tif
176
     1
290
     0
176
     1
 40
1.0
176
     1
 40
1.0
176
     1
1001
ACAD
1000
AcDbSavedByObjectVersion
1070
     0
  0
VISUALSTYLE
  5
1002A
102
{ACAD_REACTORS
330
1001D
102
}
330
1001D
100
AcDbVisualStyle
  2
Thicken
 70
    13
177
     3
291
     1
 70
    58
 90
        2
176
     1
 90
        2
176
     1
 90
        0
176
     1
 90
        0
176
     1
 40
0.6
176
     1
 40
30.0
176
     1
 62
     7
420
 16777215
176
     1
 90
        1
176
     1
 90
        4
176
     1
 62
     7
176
     1
 62
   257
176
     1
 90
        1
176
     1
 90
        1
176
     1
 40
1.0
176
     1
 90
       12
176
     1
 62
     7
176
     1
 40
1.0
176
     1
 90
        1
176
     1
 90
        6
176
     1
 90
        2
176
     1
 62
     7
176
     1
 90
        5
176
     1
 90
        0
176
     1
 90
        0
176
     1
290
     0
176
     1
 90
        1
176
     1
 40
0.0
176
     1
 90
        0
176
     1
290
     0
176
     1
290
     1
176
     1
290
     1
176
     1
290
     0
176
     1
290
     0
176
     1
290
     0
176
     1
290
     0
176
     1
290
     0
176
     1
290
     0
176
     1
 90
       50
176
     1
 40
0.0
176
     1
 40
1.0
176
     1
 90
        0
176
     1
 62
    18
420
        0
176
     1
 90
       50
176
     1
 90
        3
176
     1
 62
     5
420
      255
176
     1
290
     0
176
     1
 90
       50
176
     1
 90
       50
176
     1
 90
       50
176
     1
290
     0
176
     1
 90
       50
176
     1
 62
   256
176
     0
 40
1.0
176
     0
 90
        2
176
     1
  1
strokes_ogs.tif
176
     1
290
     0
176
     1
 40
1.0
176
     1
 40
1.0
176
     1
1001
ACAD
1000
AcDbSavedByObjectVersion
1070
     0
  0
VISUALSTYLE
  5
10024
102
{ACAD_REACTORS
330
1001D
102
}
330
1001D
100
AcDbVisualStyle
  2
Wireframe
 70
     5
177
     3
291
     0
 70
    58
 90
        0
176
     1
 90
        2
176
     1
 90
        0
176
     1
 90
        0
176
     1
 40
0.6
176
     1
 40
30.0
176
     1
 62
     7
420
 16777215
176
     1
 90
        1
176
     1
 90
        4
176
     1
 62
     7
176
     1
 62
   257
176
     1
 90
        1
176
     1
 90
        1
176
     1
 40
1.0
176
     1
 90
        0
176
     1
 62
   257
176
     1
 40
1.0
176
     1
 90
        1
176
     1
 90
        6
176
     1
 90
        2
176
     1
 62
     7
176
     1
 90
        3
176
     1
 90
        0
176
     1
 90
        0
176
     1
290
     0
176
     1
 90
        1
176
     1
 40
0.0
176
     1
 90
        0
176
     1
290
     0
176
     1
290
     1
176
     1
290
     1
176
     1
290
     0
176
     1
290
     0
176
     1
290
     0
176
     1
290
     0
176
     1
290
     0
176
     1
290
     0
176
     1
 90
       50
176
     1
 40
0.0
176
     1
 40
1.0
176
     1
 90
        0
176
     1
 62
    18
420
        0
176
     1
 90
       50
176
     1
 90
        3
176
     1
 62
     5
420
      255
176
     1
290
     0
176
     1
 90
       50
176
     1
 90
       50
176
     1
 90
       50
176
     1
290
     0
176
     1
 90
       50
176
     1
 62
   256
176
     0
 40
1.0
176
     0
 90
        2
176
     1
  1
strokes_ogs.tif
176
     1
290
     0
176
     1
 40
1.0
176
     1
 40
1.0
176
     1
1001
ACAD
1000
AcDbSavedByObjectVersion
1070
     0
  0
VISUALSTYLE
  5
10030
102
{ACAD_REACTORS
330
1001D
102
}
330
1001D
100
AcDbVisualStyle
  2
X-Ray
 70
    25
177
     3
291
     0
 70
    58
 90
        2
176
     1
 90
        2
176
     1
 90
        1
176
     1
 90
        1
176
     1
 40
0.5
176
     1
 40
30.0
176
     1
 62
     7
420
 16777215
176
     1
 90
        1
176
     1
 90
        0
176
     1
 62
     7
176
     1
 62
   257
176
     1
 90
        1
176
     1
 90
        1
176
     1
 40
1.0
176
     1
 90
        8
176
     1
 62
     7
176
     1
 40
1.0
176
     1
 90
        1
176
     1
 90
        6
176
     1
 90
        2
176
     1
 62
     7
176
     1
 90
        3
176
     1
 90
        0
176
     1
 90
        0
176
     1
290
     0
176
     1
 90
       13
176
     1
 40
0.0
176
     1
 90
        0
176
     1
290
     0
176
     1
290
     1
176
     1
290
     1
176
     1
290
     0
176
     1
290
     0
176
     1
290
     0
176
     1
290
     0
176
     1
290
     0
176
     1
290
     0
176
     1
 90
       50
176
     1
 40
0.0
176
     1
 40
1.0
176
     1
 90
        0
176
     1
 62
    18
420
        0
176
     1
 90
       50
176
     1
 90
        3
176
     1
 62
     5
420
      255
176
     1
290
     0
176
     1
 90
       50
176
     1
 90
       50
176
     1
 90
       50
176
     1
290
     0
176
     1
 90
       50
176
     1
 62
   256
176
     0
 40
1.0
176
     0
 90
        2
176
     1
  1
strokes_ogs.tif
176
     1
290
     0
176
     1
 40
1.0
176
     1
 40
1.0
176
     1
1001
ACAD
1000
AcDbSavedByObjectVersion
1070
     0
  0
DICTIONARYVAR
  5
10067
102
{ACAD_REACTORS
330
10061
102
}
330
10061
100
DictionaryVariables
280
     0
  1
1:1
  0
DICTIONARYVAR
  5
10063
102
{ACAD_REACTORS
330
10061
102
}
330
10061
100
DictionaryVariables
280
     0
  1
STANDARD
  0
DICTIONARYVAR
  5
10062
102
{ACAD_REACTORS
330
10061
102
}
330
10061
100
DictionaryVariables
280
     0
  1
STANDARD
  0
DICTIONARYVAR
  5
10064
102
{ACAD_REACTORS
330
10061
102
}
330
10061
100
DictionaryVariables
280
     0
  1
Imperial24
  0
DICTIONARYVAR
  5
10065
102
{ACAD_REACTORS
330
10061
102
}
330
10061
100
DictionaryVariables
280
     0
  1
Imperial24
  0
DICTIONARYVAR
  5
10069
102
{ACAD_REACTORS
330
10061
102
}
330
10061
100
DictionaryVariables
280
     0
  1
1
  0
DICTIONARYVAR
  5
1006A
102
{ACAD_REACTORS
330
10061
102
}
330
10061
100
DictionaryVariables
280
     0
  1
15
  0
DICTIONARYVAR
  5
10068
102
{ACAD_REACTORS
330
10061
102
}
330
10061
100
DictionaryVariables
280
     0
  1
0
  0
DICTIONARYVAR
  5
10066
102
{ACAD_REACTORS
330
10061
102
}
330
10061
100
DictionaryVariables
280
     0
  1
0
  0
DICTIONARY
  5
10199
102
{ACAD_REACTORS
330
10197
102
}
330
10197
100
AcDbDictionary
281
     1
  0
DICTIONARY
  5
10198
102
{ACAD_REACTORS
330
10197
102
}
330
10197
100
AcDbDictionary
281
     1
  3
1857399216160
350
10192
  3
1857399216176
350
10193
  3
1857399216192
350
10194
  3
1857399216208
350
10195
  3
1857399216224
350
10196
  0
DICTIONARY
  5
1019C
330
10052
100
AcDbDictionary
280
     1
281
     1
  3
ACAD_XREC_ROUNDTRIP
360
1019D
  0
DICTIONARY
  5
1000E
330
1000D
100
AcDbDictionary
280
     1
281
     1
  3
BUMPTILE
360
10010
  3
DIFFUSETILE
360
1000F
  3
OPACITYTILE
360
10013
  3
REFLECTIONTILE
360
10012
  3
REFRACTIONTILE
360
10014
  3
SPECULARTILE
360
10011
  0
DICTIONARY
  5
10006
330
10005
100
AcDbDictionary
280
     1
281
     1
  3
BUMPTILE
360
10008
  3
DIFFUSETILE
360
10007
  3
OPACITYTILE
360
1000B
  3
REFLECTIONTILE
360
1000A
  3
REFRACTIONTILE
360
1000C
  3
SPECULARTILE
360
10009
  0
DICTIONARY
  5
10016
330
10015
100
AcDbDictionary
280
     1
281
     1
  3
BUMPTILE
360
10018
  3
DIFFUSETILE
360
10017
  3
OPACITYTILE
360
1001B
  3
REFLECTIONTILE
360
1001A
  3
REFRACTIONTILE
360
1001C
  3
SPECULARTILE
360
10019
  0
DICTIONARY
  5
1019A
330
10050
100
AcDbDictionary
280
     1
281
     1
  3
ACAD_XREC_ROUNDTRIP
360
1019B
  0
DICTIONARY
  5
1018F
330
10039
100
AcDbDictionary
280
     1
281
     1
  3
ACAD_ROUNDTRIP_2008_TABLESTYLE_CELLSTYLEMAP
360
10190
  0
XRECORD
  5
10192
102
{ACAD_REACTORS
330
10198
102
}
330
10198
100
AcDbXrecord
280
     1
  1
AcDb_Thumbnail_Schema
102
{ATTRRECORD
341
10193
  2
AcDbDs::TreatedAsObjectData
280
     1
291
     1
102
ATTRRECORD}
102
{ATTRRECORD
341
10194
  2
AcDbDs::Legacy
280
     1
291
     1
102
ATTRRECORD}
  2
AcDbDs::ID
280
    10
 91
        8
102
{ATTRRECORD
341
10195
  2
AcDs:Indexable
280
     1
291
     1
102
ATTRRECORD}
102
{ATTRRECORD
341
10196
  2
AcDbDs::HandleAttribute
280
     7
282
     1
102
ATTRRECORD}
  2
Thumbnail_Data
280
    15
 91
        0
  0
XRECORD
  5
10193
102
{ACAD_REACTORS
330
10198
102
}
330
10198
100
AcDbXrecord
280
     1
  1
AcDbDs::TreatedAsObjectDataSchema
  2
AcDbDs::TreatedAsObjectData
280
     1
 91
        0
  0
XRECORD
  5
10194
102
{ACAD_REACTORS
330
10198
102
}
330
10198
100
AcDbXrecord
280
     1
  1
AcDbDs::LegacySchema
  2
AcDbDs::Legacy
280
     1
 91
        0
  0
XRECORD
  5
10195
102
{ACAD_REACTORS
330
10198
102
}
330
10198
100
AcDbXrecord
280
     1
  1
AcDbDs::IndexedPropertySchema
  2
AcDs:Indexable
280
     1
 91
        0
  0
XRECORD
  5
10196
102
{ACAD_REACTORS
330
10198
102
}
330
10198
100
AcDbXrecord
280
     1
  1
AcDbDs::HandleAttributeSchema
  2
AcDbDs::HandleAttribute
280
     7
 91
        1
284
     1
  0
XRECORD
  5
1019D
102
{ACAD_REACTORS
330
1019C
102
}
330
1019C
100
AcDbXrecord
280
     1
102
DISPLAYNAME
  1
Imperial24
102
FLAGS
 90
        0
  0
XRECORD
  5
10010
102
{ACAD_REACTORS
330
1000E
102
}
330
1000E
100
AcDbXrecord
280
     1
270
     1
271
     1
  0
XRECORD
  5
1000F
102
{ACAD_REACTORS
330
1000E
102
}
330
1000E
100
AcDbXrecord
280
     1
270
     1
271
     1
  0
XRECORD
  5
10013
102
{ACAD_REACTORS
330
1000E
102
}
330
1000E
100
AcDbXrecord
280
     1
270
     1
271
     1
  0
XRECORD
  5
10012
102
{ACAD_REACTORS
330
1000E
102
}
330
1000E
100
AcDbXrecord
280
     1
270
     1
271
     1
  0
XRECORD
  5
10014
102
{ACAD_REACTORS
330
1000E
102
}
330
1000E
100
AcDbXrecord
280
     1
270
     1
271
     1
  0
XRECORD
  5
10011
102
{ACAD_REACTORS
330
1000E
102
}
330
1000E
100
AcDbXrecord
280
     1
270
     1
271
     1
  0
XRECORD
  5
10008
102
{ACAD_REACTORS
330
10006
102
}
330
10006
100
AcDbXrecord
280
     1
270
     1
271
     1
  0
XRECORD
  5
10007
102
{ACAD_REACTORS
330
10006
102
}
330
10006
100
AcDbXrecord
280
     1
270
     1
271
     1
  0
XRECORD
  5
1000B
102
{ACAD_REACTORS
330
10006
102
}
330
10006
100
AcDbXrecord
280
     1
270
     1
271
     1
  0
XRECORD
  5
1000A
102
{ACAD_REACTORS
330
10006
102
}
330
10006
100
AcDbXrecord
280
     1
270
     1
271
     1
  0
XRECORD
  5
1000C
102
{ACAD_REACTORS
330
10006
102
}
330
10006
100
AcDbXrecord
280
     1
270
     1
271
     1
  0
XRECORD
  5
10009
102
{ACAD_REACTORS
330
10006
102
}
330
10006
100
AcDbXrecord
280
     1
270
     1
271
     1
  0
XRECORD
  5
10018
102
{ACAD_REACTORS
330
10016
102
}
330
10016
100
AcDbXrecord
280
     1
270
     1
271
     1
  0
XRECORD
  5
10017
102
{ACAD_REACTORS
330
10016
102
}
330
10016
100
AcDbXrecord
280
     1
270
     1
271
     1
  0
XRECORD
  5
1001B
102
{ACAD_REACTORS
330
10016
102
}
330
10016
100
AcDbXrecord
280
     1
270
     1
271
     1
  0
XRECORD
  5
1001A
102
{ACAD_REACTORS
330
10016
102
}
330
10016
100
AcDbXrecord
280
     1
270
     1
271
     1
  0
XRECORD
  5
1001C
102
{ACAD_REACTORS
330
10016
102
}
330
10016
100
AcDbXrecord
280
     1
270
     1
271
     1
  0
XRECORD
  5
10019
102
{ACAD_REACTORS
330
10016
102
}
330
10016
100
AcDbXrecord
280
     1
270
     1
271
     1
  0
XRECORD
  5
1019B
102
{ACAD_REACTORS
330
1019A
102
}
330
1019A
100
AcDbXrecord
280
     1
102
DISPLAYNAME
  1
Imperial24
102
FLAGS
 90
        0
  0
CELLSTYLEMAP
  5
10190
102
{ACAD_REACTORS
330
1018F
102
}
330
1018F
100
AcDbCellStyleMap
 90
        3
300
CELLSTYLE
  1
TABLEFORMAT_BEGIN
 90
        5
170
     1
 91
        0
 92
    32768
 62
   257
 93
        1
300
CONTENTFORMAT
  1
CONTENTFORMAT_BEGIN
 90
        0
 91
        0
 92
      512
 93
        0
300

 40
0.0
140
1.0
 94
        5
 62
     0
340
11
144
0.25
309
CONTENTFORMAT_END
171
     0
 94
        0
309
TABLEFORMAT_END
  1
CELLSTYLE_BEGIN
 90
        1
 91
        1
300
_TITLE
309
CELLSTYLE_END
300
CELLSTYLE
  1
TABLEFORMAT_BEGIN
 90
        5
170
     1
 91
        0
 92
        0
 62
   257
 93
        1
300
CONTENTFORMAT
  1
CONTENTFORMAT_BEGIN
 90
        0
 91
        0
 92
      512
 93
        0
300

 40
0.0
140
1.0
 94
        5
 62
     0
340
11
144
0.18
309
CONTENTFORMAT_END
171
     0
 94
        0
309
TABLEFORMAT_END
  1
CELLSTYLE_BEGIN
 90
        2
 91
        1
300
_HEADER
309
CELLSTYLE_END
300
CELLSTYLE
  1
TABLEFORMAT_BEGIN
 90
        5
170
     1
 91
        0
 92
        0
 62
   257
 93
        1
300
CONTENTFORMAT
  1
CONTENTFORMAT_BEGIN
 90
        0
 91
        0
 92
      512
 93
        0
300

 40
0.0
140
1.0
 94
        2
 62
     0
340
11
144
0.18
309
CONTENTFORMAT_END
171
     0
 94
        0
309
TABLEFORMAT_END
  1
CELLSTYLE_BEGIN
 90
        3
 91
        2
300
_DATA
309
CELLSTYLE_END
  0
ENDSEC
  0
SECTION
  2
ACDSDATA
 70
     2
 71
     8
  0
ACDSSCHEMA
 90
        0
  1
AcDb_Thumbnail_Schema
  2
AcDbDs::ID
280
    10
 91
        8
  2
Thumbnail_Data
280
    15
 91
        0
101
ACDSRECORD
 95
        0
 90
        1
  2
AcDbDs::TreatedAsObjectData
280
     1
291
     1
101
ACDSRECORD
 95
        0
 90
        2
  2
AcDbDs::Legacy
280
     1
291
     1
101
ACDSRECORD
  1
AcDbDs::ID
 90
        3
  2
AcDs:Indexable
280
     1
291
     1
101
ACDSRECORD
  1
AcDbDs::ID
 90
        4
  2
AcDbDs::HandleAttribute
280
     7
282
     1
  0
ACDSSCHEMA
 90
        1
  1
AcDbDs::TreatedAsObjectDataSchema
  2
AcDbDs::TreatedAsObjectData
280
     1
 91
        0
  0
ACDSSCHEMA
 90
        2
  1
AcDbDs::LegacySchema
  2
AcDbDs::Legacy
280
     1
 91
        0
  0
ACDSSCHEMA
 90
        3
  1
AcDbDs::IndexedPropertySchema
  2
AcDs:Indexable
280
     1
 91
        0
  0
ACDSSCHEMA
 90
        4
  1
AcDbDs::HandleAttributeSchema
  2
AcDbDs::HandleAttribute
280
     7
 91
        1
284
     1
  0
ACDSRECORD
 90
        0
  2
AcDbDs::ID
280
    10
320
10055
  2
Thumbnail_Data
280
    15
 94
     1718
310
89504E470D0A1A0A0000000D49484452000001000000007E0803000000FCF33F5100000300504C5445212830FFFFFF2128300000000000000000000000000000000000000000000000000000330000660000990000CC0000FF0033000033330033660033990033CC0033FF0066000066330066660066990066CC0066FF0099
310
000099330099660099990099CC0099FF00CC0000CC3300CC6600CC9900CCCC00CCFF00FF0000FF3300FF6600FF9900FFCC00FFFF3300003300333300663300993300CC3300FF3333003333333333663333993333CC3333FF3366003366333366663366993366CC3366FF3399003399333399663399993399CC3399FF33CC00
310
33CC3333CC6633CC9933CCCC33CCFF33FF0033FF3333FF6633FF9933FFCC33FFFF6600006600336600666600996600CC6600FF6633006633336633666633996633CC6633FF6666006666336666666666996666CC6666FF6699006699336699666699996699CC6699FF66CC0066CC3366CC6666CC9966CCCC66CCFF66FF0066
310
FF3366FF6666FF9966FFCC66FFFF9900009900339900669900999900CC9900FF9933009933339933669933999933CC9933FF9966009966339966669966999966CC9966FF9999009999339999669999999999CC9999FF99CC0099CC3399CC6699CC9999CCCC99CCFF99FF0099FF3399FF6699FF9999FFCC99FFFFCC0000CC00
310
33CC0066CC0099CC00CCCC00FFCC3300CC3333CC3366CC3399CC33CCCC33FFCC6600CC6633CC6666CC6699CC66CCCC66FFCC9900CC9933CC9966CC9999CC99CCCC99FFCCCC00CCCC33CCCC66CCCC99CCCCCCCCCCFFCCFF00CCFF33CCFF66CCFF99CCFFCCCCFFFFFF0000FF0033FF0066FF0099FF00CCFF00FFFF3300FF3333
310
FF3366FF3399FF33CCFF33FFFF6600FF6633FF6666FF6699FF66CCFF66FFFF9900FF9933FF9966FF9999FF99CCFF99FFFFCC00FFCC33FFCC66FFCC99FFCCCCFFCCFFFFFF00FFFF33FFFF66FFFF99FFFFCCFFFFFF0000000D0D0D1A1A1A2828283535354343435050505D5D5D6B6B6B787878868686939393A1A1A1AEAEAEBB
310
BBBBC9C9C9D6D6D6E4E4E4F1F1F1FFFFFF0000000000000000000000000000000000000000000000000000000000002E4550F1000003714944415478DAED9AC96EC3300C44F9FFFFCB7B81C296B80C29A76820A59D7789B339E698E2A6881042082184104208218410420821841042082184104208216B54FF99B990779FFF
310
6DBFF7F2F5893697FC4BA68FE3F8383FB15301091777BF263FD6619E689CCEA91DEDDD6BFFF5EBF3E2C4BE608578C5F4EB9B43E35E80AD0A6401D0D54E219EDCF5CBEF6FB37429C0CEB8FB4C80EF47B79C83F172BF09EC5C0B20E70A109E5B53759EE17AC99FAA34FC280F30813885ECDA1A1FBAC75BAAF8A3200B484811B2
310
350D489D9E6B7F761EE00E72FCAC537F0817C71442EA3D030931EFDAB466788D0D9A5A55012E74EE14602A718724CDD2CC1808D6B1C6E5110B011409E62A1B9FD998068BBC1D7CD67C4863148B25DE9D121A01F4540172DC8B763901BC50E3B6AB2BAC3ECA035046B4CBDAC7EDDB6867F883C2E2080FD05680320346FB1BFF
310
D1A33D00272AE93360C859295F06B99A5ED054D75B3DE0C50C9804C032A9B37E55116C13404079E67AF9E4DC55251F17CA2B0381AD1E60EB001BB835DD402C402A02242784E540E08C208832572A030A014C2A308395A7038133044871DB97B6E5082F94B57D41F15102281E0EC5C27DC611E912C2910268B104BAEBCECDEB
310
BA736C04B822E09E6EA8488192AAD958C2F44395470381A2ED3E4381D4CF04FB0A016AC3CB8D809843B70F03241569334B970E108AA19810CADD8003F646AA097D2803C46D5F2001C02464563879BA9AE28E1C2880E07A0ECE30FD24446DB2E80590B305A8C67BA2DD5292652EFC3801C0EACE53B550FF75B9F0639640311C
310
0ADF0B7E010D8E831070B84F00BBC64543F447A54D08DADA8D0D72283D2B0BC4BB3147C3C3DB5BCF28050073F17A08BFAF1606F7C06CF8D4DB2348003C4375AD615B736D1F89DAE2CC3D456D8ECA6A57604E846CC81FCD13383A4500B11B23127C57D0464E39F9AA5BA3D30470E5F99C8738EBA5FCF70C6AA640EBB01040F7
310
8400B004C46EFF69689DD18AF5FF8B983D6ED314D7477B724068D05CCE0FCD63D4C50DC0FD2B71D7BC4F82BA2707885BDB2688A3BB8277460544F1E102A042B2B66A3AF7BE2C182E05AEF5A26E0563B2B0B7B07681B3FE9F69B700D56EFF178371E82BE799F5931039DDA1A803656E02818AF2D3D154098532C9567E227FC9
310
F43663A03F3AFE5DD3810C787FF8FF90370684104208218410420821841042082184104208218410420821E47D7C0139F212D5106A755B0000000049454E44AE426082
  0
ENDSEC
  0
EOF
