  0
SECTION
  2
HEADER
  9
$ACADVER
  1
AC1027
  9
$ACADMAINTVER
 70
   125
  9
$DWGCODEPAGE
  3
ANSI_1252
  9
$LASTSAVEDBY
  1
zz000
  9
$REQUIREDVERSIONS
160
                 0
  9
$INSBASE
 10
0.0
 20
0.0
 30
0.0
  9
$EXTMIN
 10
-336.5350364890542
 20
-160.6365779468551
 30
-0.0000005655219409
  9
$EXTMAX
 10
85.41791373820865
 20
-23.98588149630654
 30
0.000000000000106
  9
$LIMMIN
 10
0.0
 20
0.0
  9
$LIMMAX
 10
12.0
 20
9.0
  9
$ORTHOMODE
 70
     0
  9
$REGENMODE
 70
     1
  9
$FILLMODE
 70
     1
  9
$QTEXTMODE
 70
     0
  9
$MIRRTEXT
 70
     0
  9
$LTSCALE
 40
1.0
  9
$ATTMODE
 70
     1
  9
$TEXTSIZE
 40
0.2
  9
$TRACEWID
 40
0.05
  9
$TEXTSTYLE
  7
STANDARD
  9
$CLAYER
  8
0
  9
$CELTYPE
  6
Continuous
  9
$CECOLOR
 62
   256
  9
$CELTSCALE
 40
1.0
  9
$DISPSILH
 70
     0
  9
$DIMSCALE
 40
1.0
  9
$DIMASZ
 40
0.18
  9
$DIMEXO
 40
0.0625
  9
$DIMDLI
 40
0.38
  9
$DIMRND
 40
0.0
  9
$DIMDLE
 40
0.0
  9
$DIMEXE
 40
0.18
  9
$DIMTP
 40
0.0
  9
$DIMTM
 40
0.0
  9
$DIMTXT
 40
0.18
  9
$DIMCEN
 40
0.09
  9
$DIMTSZ
 40
0.0
  9
$DIMTOL
 70
     0
  9
$DIMLIM
 70
     0
  9
$DIMTIH
 70
     1
  9
$DIMTOH
 70
     1
  9
$DIMSE1
 70
     0
  9
$DIMSE2
 70
     0
  9
$DIMTAD
 70
     0
  9
$DIMZIN
 70
     0
  9
$DIMBLK
  1

  9
$DIMASO
 70
     1
  9
$DIMSHO
 70
     1
  9
$DIMPOST
  1

  9
$DIMAPOST
  1

  9
$DIMALT
 70
     0
  9
$DIMALTD
 70
     2
  9
$DIMALTF
 40
25.4
  9
$DIMLFAC
 40
1.0
  9
$DIMTOFL
 70
     0
  9
$DIMTVP
 40
0.0
  9
$DIMTIX
 70
     0
  9
$DIMSOXD
 70
     0
  9
$DIMSAH
 70
     0
  9
$DIMBLK1
  1

  9
$DIMBLK2
  1

  9
$DIMSTYLE
  2
Standard
  9
$DIMCLRD
 70
     0
  9
$DIMCLRE
 70
     0
  9
$DIMCLRT
 70
     0
  9
$DIMTFAC
 40
1.0
  9
$DIMGAP
 40
0.09
  9
$DIMJUST
 70
     0
  9
$DIMSD1
 70
     0
  9
$DIMSD2
 70
     0
  9
$DIMTOLJ
 70
     1
  9
$DIMTZIN
 70
     0
  9
$DIMALTZ
 70
     0
  9
$DIMALTTZ
 70
     0
  9
$DIMUPT
 70
     0
  9
$DIMDEC
 70
     4
  9
$DIMTDEC
 70
     4
  9
$DIMALTU
 70
     2
  9
$DIMALTTD
 70
     2
  9
$DIMTXSTY
  7
STANDARD
  9
$DIMAUNIT
 70
     0
  9
$DIMADEC
 70
     0
  9
$DIMALTRND
 40
0.0
  9
$DIMAZIN
 70
     0
  9
$DIMDSEP
 70
    46
  9
$DIMATFIT
 70
     3
  9
$DIMFRAC
 70
     0
  9
$DIMLDRBLK
  1

  9
$DIMLUNIT
 70
     2
  9
$DIMLWD
 70
    -2
  9
$DIMLWE
 70
    -2
  9
$DIMTMOVE
 70
     0
  9
$DIMFXL
 40
1.0
  9
$DIMFXLON
 70
     0
  9
$DIMJOGANG
 40
0.7853981633974483
  9
$DIMTFILL
 70
     0
  9
$DIMTFILLCLR
 70
     0
  9
$DIMARCSYM
 70
     0
  9
$DIMLTYPE
  6

  9
$DIMLTEX1
  6

  9
$DIMLTEX2
  6

  9
$DIMTXTDIRECTION
 70
     0
  9
$LUNITS
 70
     2
  9
$LUPREC
 70
     4
  9
$SKETCHINC
 40
0.1
  9
$FILLETRAD
 40
0.0
  9
$AUNITS
 70
     0
  9
$AUPREC
 70
     0
  9
$MENU
  1
.
  9
$ELEVATION
 40
0.0
  9
$PELEVATION
 40
0.0
  9
$THICKNESS
 40
0.0
  9
$LIMCHECK
 70
     0
  9
$CHAMFERA
 40
0.0
  9
$CHAMFERB
 40
0.0
  9
$CHAMFERC
 40
0.0
  9
$CHAMFERD
 40
0.0
  9
$SKPOLY
 70
     0
  9
$TDCREATE
 40
2459828.817476852
  9
$TDUCREATE
 40
2459829.109143519
  9
$TDUPDATE
 40
2459828.827233796
  9
$TDUUPDATE
 40
2459829.118900463
  9
$TDINDWG
 40
0.0021296296
  9
$TDUSRTIMER
 40
0.0021296296
  9
$USRTIMER
 70
     1
  9
$ANGBASE
 50
0.0
  9
$ANGDIR
 70
     0
  9
$PDMODE
 70
     0
  9
$PDSIZE
 40
0.0
  9
$PLINEWID
 40
0.0
  9
$SPLFRAME
 70
     0
  9
$SPLINETYPE
 70
     6
  9
$SPLINESEGS
 70
     8
  9
$HANDSEED
  5
102FC
  9
$SURFTAB1
 70
     6
  9
$SURFTAB2
 70
     6
  9
$SURFTYPE
 70
     6
  9
$SURFU
 70
     6
  9
$SURFV
 70
     6
  9
$UCSBASE
  2

  9
$UCSNAME
  2

  9
$UCSORG
 10
0.0
 20
0.0
 30
0.0
  9
$UCSXDIR
 10
1.0
 20
0.0
 30
0.0
  9
$UCSYDIR
 10
0.0
 20
1.0
 30
0.0
  9
$UCSORTHOREF
  2

  9
$UCSORTHOVIEW
 70
     0
  9
$UCSORGTOP
 10
0.0
 20
0.0
 30
0.0
  9
$UCSORGBOTTOM
 10
0.0
 20
0.0
 30
0.0
  9
$UCSORGLEFT
 10
0.0
 20
0.0
 30
0.0
  9
$UCSORGRIGHT
 10
0.0
 20
0.0
 30
0.0
  9
$UCSORGFRONT
 10
0.0
 20
0.0
 30
0.0
  9
$UCSORGBACK
 10
0.0
 20
0.0
 30
0.0
  9
$PUCSBASE
  2

  9
$PUCSNAME
  2

  9
$PUCSORG
 10
0.0
 20
0.0
 30
0.0
  9
$PUCSXDIR
 10
1.0
 20
0.0
 30
0.0
  9
$PUCSYDIR
 10
0.0
 20
1.0
 30
0.0
  9
$PUCSORTHOREF
  2

  9
$PUCSORTHOVIEW
 70
     0
  9
$PUCSORGTOP
 10
0.0
 20
0.0
 30
0.0
  9
$PUCSORGBOTTOM
 10
0.0
 20
0.0
 30
0.0
  9
$PUCSORGLEFT
 10
0.0
 20
0.0
 30
0.0
  9
$PUCSORGRIGHT
 10
0.0
 20
0.0
 30
0.0
  9
$PUCSORGFRONT
 10
0.0
 20
0.0
 30
0.0
  9
$PUCSORGBACK
 10
0.0
 20
0.0
 30
0.0
  9
$USERI1
 70
     0
  9
$USERI2
 70
     0
  9
$USERI3
 70
     0
  9
$USERI4
 70
     0
  9
$USERI5
 70
     0
  9
$USERR1
 40
0.0
  9
$USERR2
 40
0.0
  9
$USERR3
 40
0.0
  9
$USERR4
 40
0.0
  9
$USERR5
 40
0.0
  9
$WORLDVIEW
 70
     1
  9
$SHADEDGE
 70
     3
  9
$SHADEDIF
 70
    70
  9
$TILEMODE
 70
     1
  9
$MAXACTVP
 70
    64
  9
$PINSBASE
 10
0.0
 20
0.0
 30
0.0
  9
$PLIMCHECK
 70
     0
  9
$PEXTMIN
 10
1.000000000000000E+20
 20
1.000000000000000E+20
 30
1.000000000000000E+20
  9
$PEXTMAX
 10
-1.000000000000000E+20
 20
-1.000000000000000E+20
 30
-1.000000000000000E+20
  9
$PLIMMIN
 10
0.0
 20
0.0
  9
$PLIMMAX
 10
12.0
 20
9.0
  9
$UNITMODE
 70
     0
  9
$VISRETAIN
 70
     1
  9
$PLINEGEN
 70
     0
  9
$PSLTSCALE
 70
     1
  9
$TREEDEPTH
 70
  3020
  9
$CMLSTYLE
  2
Standard
  9
$CMLJUST
 70
     0
  9
$CMLSCALE
 40
1.0
  9
$PROXYGRAPHICS
 70
     1
  9
$MEASUREMENT
 70
     0
  9
$CELWEIGHT
370
    -1
  9
$ENDCAPS
280
     0
  9
$JOINSTYLE
280
     0
  9
$LWDISPLAY
290
     0
  9
$INSUNITS
 70
     4
  9
$HYPERLINKBASE
  1

  9
$STYLESHEET
  1

  9
$XEDIT
290
     1
  9
$CEPSNTYPE
380
     0
  9
$PSTYLEMODE
290
     1
  9
$FINGERPRINTGUID
  2
{22929732-BABB-D64C-93A9-B7E9B1CEA65C}
  9
$VERSIONGUID
  2
{315206A0-362E-C74C-8742-66F11DE3B740}
  9
$EXTNAMES
290
     1
  9
$PSVPSCALE
 40
0.0
  9
$OLESTARTUP
290
     0
  9
$SORTENTS
280
   127
  9
$INDEXCTL
280
     0
  9
$HIDETEXT
280
     0
  9
$XCLIPFRAME
280
     2
  9
$HALOGAP
280
     0
  9
$OBSCOLOR
 70
   257
  9
$OBSLTYPE
280
     0
  9
$INTERSECTIONDISPLAY
280
     0
  9
$INTERSECTIONCOLOR
 70
   257
  9
$DIMASSOC
280
     1
  9
$PROJECTNAME
  1

  9
$CAMERADISPLAY
290
     0
  9
$LENSLENGTH
 40
50.0
  9
$CAMERAHEIGHT
 40
0.0
  9
$STEPSPERSEC
 40
2.0
  9
$STEPSIZE
 40
6.0
  9
$3DDWFPREC
 40
2.0
  9
$PSOLWIDTH
 40
0.25
  9
$PSOLHEIGHT
 40
4.0
  9
$LOFTANG1
 40
1.570796326794896
  9
$LOFTANG2
 40
1.570796326794896
  9
$LOFTMAG1
 40
0.0
  9
$LOFTMAG2
 40
0.0
  9
$LOFTPARAM
 70
     7
  9
$LOFTNORMALS
280
     1
  9
$LATITUDE
 40
37.795
  9
$LONGITUDE
 40
-122.394
  9
$NORTHDIRECTION
 40
0.0
  9
$TIMEZONE
 70
 -8000
  9
$LIGHTGLYPHDISPLAY
280
     1
  9
$TILEMODELIGHTSYNCH
280
     1
  9
$CMATERIAL
347
10005
  9
$SOLIDHIST
280
     0
  9
$SHOWHIST
280
     1
  9
$DWFFRAME
280
     2
  9
$DGNFRAME
280
     0
  9
$REALWORLDSCALE
290
     1
  9
$INTERFERECOLOR
 62
     1
  9
$INTERFEREOBJVS
345
10027
  9
$INTERFEREVPVS
346
10024
  9
$CSHADOW
280
     0
  9
$SHADOWPLANELOCATION
 40
0.0
  0
ENDSEC
  0
SECTION
  2
CLASSES
  0
CLASS
  1
ACDBDICTIONARYWDFLT
  2
AcDbDictionaryWithDefault
  3
ObjectDBX Classes
 90
        0
 91
        1
280
     0
281
     0
  0
CLASS
  1
MATERIAL
  2
AcDbMaterial
  3
ObjectDBX Classes
 90
     1153
 91
        3
280
     0
281
     0
  0
CLASS
  1
VISUALSTYLE
  2
AcDbVisualStyle
  3
ObjectDBX Classes
 90
     4095
 91
       24
280
     0
281
     0
  0
CLASS
  1
TABLESTYLE
  2
AcDbTableStyle
  3
ObjectDBX Classes
 90
     4095
 91
        1
280
     0
281
     0
  0
CLASS
  1
SCALE
  2
AcDbScale
  3
ObjectDBX Classes
 90
     1153
 91
       17
280
     0
281
     0
  0
CLASS
  1
MLEADERSTYLE
  2
AcDbMLeaderStyle
  3
ACDB_MLEADERSTYLE_CLASS
 90
     4095
 91
        1
280
     0
281
     0
  0
CLASS
  1
ACDBSECTIONVIEWSTYLE
  2
AcDbSectionViewStyle
  3
ObjectDBX Classes
 90
     1025
 91
        1
280
     0
281
     0
  0
CLASS
  1
ACDBDETAILVIEWSTYLE
  2
AcDbDetailViewStyle
  3
ObjectDBX Classes
 90
     1025
 91
        1
280
     0
281
     0
  0
CLASS
  1
SOLID_BACKGROUND
  2
AcDbSolidBackground
  3
SCENEOE
 90
     4095
 91
        0
280
     0
281
     0
  0
CLASS
  1
NPOCOLLECTION
  2
AcDbImpNonPersistentObjectsCollection
  3
ObjectDBX Classes
 90
     1153
 91
        0
280
     0
281
     0
  0
CLASS
  1
GROUND_PLANE_BACKGROUND
  2
AcDbGroundPlaneBackground
  3
SCENEOE
 90
     4095
 91
        0
280
     0
281
     0
  0
CLASS
  1
DICTIONARYVAR
  2
AcDbDictionaryVar
  3
ObjectDBX Classes
 90
        0
 91
        9
280
     0
281
     0
  0
CLASS
  1
CELLSTYLEMAP
  2
AcDbCellStyleMap
  3
ObjectDBX Classes
 90
     1152
 91
        2
280
     0
281
     0
  0
ENDSEC
  0
SECTION
  2
TABLES
  0
TABLE
  2
VPORT
  5
8
330
0
100
AcDbSymbolTable
 70
     1
1001
ACAD
1000
DbSaveVer
1071
      247
  0
VPORT
  5
10059
330
8
100
AcDbSymbolTableRecord
100
AcDbViewportTableRecord
  2
*Active
 70
     0
 10
0.0
 20
0.0
 11
1.0
 21
1.0
 12
50.75494242173857
 22
0.2965501748354313
 13
0.0
 23
0.0
 14
1.0
 24
1.0
 15
0.0
 25
0.0
 16
-0.0000000000002274
 26
0.0
 36
973.9062737329472
 17
-165.3674184083938
 27
-64.25680601596832
 37
0.0
 40
357.3346347100553
 41
2.025141930251419
 42
50.0
 43
0.0
 44
0.0
 50
0.0
 51
0.0
 71
     0
 72
  1000
 73
     1
 74
     3
 75
     0
 76
     0
 77
     0
 78
     0
281
     0
 65
     1
110
0.0
120
0.0
130
0.0
111
1.0
121
0.0
131
0.0
112
0.0
122
1.0
132
0.0
 79
     0
146
0.0
348
10023
 60
     3
 61
     5
292
     1
282
     1
141
0.0
142
0.0
 63
   250
421
  3355443
1001
ACAD_NAV_VCDISPLAY
1070
     3
  0
ENDTAB
  0
TABLE
  2
LTYPE
  5
5
330
0
100
AcDbSymbolTable
 70
     1
  0
LTYPE
  5
14
330
5
100
AcDbSymbolTableRecord
100
AcDbLinetypeTableRecord
  2
BYBLOCK
 70
     0
  3

 72
    65
 73
     0
 40
0.0
  0
LTYPE
  5
15
330
5
100
AcDbSymbolTableRecord
100
AcDbLinetypeTableRecord
  2
BYLAYER
 70
     0
  3

 72
    65
 73
     0
 40
0.0
  0
LTYPE
  5
10001
330
5
100
AcDbSymbolTableRecord
100
AcDbLinetypeTableRecord
  2
Continuous
 70
     0
  3
Solid line
 72
    65
 73
     0
 40
0.0
  0
ENDTAB
  0
TABLE
  2
LAYER
  5
2
102
{ACAD_XDICTIONARY
360
102C5
102
}
330
0
100
AcDbSymbolTable
 70
     1
  0
LAYER
  5
50
102
{ACAD_XDICTIONARY
360
1005F
102
}
330
2
100
AcDbSymbolTableRecord
100
AcDbLayerTableRecord
  2
0
 70
     0
 62
     7
  6
Continuous
370
    -3
390
10003
347
10015
348
0
  0
ENDTAB
  0
TABLE
  2
STYLE
  5
3
330
0
100
AcDbSymbolTable
 70
     1
  0
STYLE
  5
11
330
3
100
AcDbSymbolTableRecord
100
AcDbTextStyleTableRecord
  2
STANDARD
 70
     0
 40
0.0
 41
1.0
 50
0.0
 71
     0
 42
0.2
  3

  4

  0
ENDTAB
  0
TABLE
  2
VIEW
  5
6
330
0
100
AcDbSymbolTable
 70
     0
  0
ENDTAB
  0
TABLE
  2
UCS
  5
7
330
0
100
AcDbSymbolTable
 70
     0
  0
ENDTAB
  0
TABLE
  2
APPID
  5
9
330
0
100
AcDbSymbolTable
 70
     2
  0
APPID
  5
12
330
9
100
AcDbSymbolTableRecord
100
AcDbRegAppTableRecord
  2
ACAD
 70
     0
  0
APPID
  5
10058
330
9
100
AcDbSymbolTableRecord
100
AcDbRegAppTableRecord
  2
ACAD_NAV_VCDISPLAY
 70
     0
  0
ENDTAB
  0
TABLE
  2
DIMSTYLE
  5
A
330
0
100
AcDbSymbolTable
 70
     1
100
AcDbDimStyleTable
 71
     0
  0
DIMSTYLE
105
10053
330
A
100
AcDbSymbolTableRecord
100
AcDbDimStyleTableRecord
  2
Standard
 70
     0
340
11
  0
ENDTAB
  0
TABLE
  2
BLOCK_RECORD
  5
1
330
0
100
AcDbSymbolTable
 70
     0
  0
BLOCK_RECORD
  5
1F
330
1
100
AcDbSymbolTableRecord
100
AcDbBlockTableRecord
  2
*MODEL_SPACE
340
10055
 70
     0
280
     1
281
     0
  0
BLOCK_RECORD
  5
1B
330
1
100
AcDbSymbolTableRecord
100
AcDbBlockTableRecord
  2
*PAPER_SPACE
340
10056
 70
     0
280
     1
281
     0
  0
ENDTAB
  0
ENDSEC
  0
SECTION
  2
BLOCKS
  0
BLOCK
  5
20
330
1F
100
AcDbEntity
  8
0
100
AcDbBlockBegin
  2
*MODEL_SPACE
 70
     0
 10
0.0
 20
0.0
 30
0.0
  3
*MODEL_SPACE
  1

  0
ENDBLK
  5
21
330
1F
100
AcDbEntity
  8
0
100
AcDbBlockEnd
  0
BLOCK
  5
1C
330
1B
100
AcDbEntity
 67
     1
  8
0
100
AcDbBlockBegin
  2
*PAPER_SPACE
 70
     0
 10
0.0
 20
0.0
 30
0.0
  3
*PAPER_SPACE
  1

  0
ENDBLK
  5
1D
330
1B
100
AcDbEntity
 67
     1
  8
0
100
AcDbBlockEnd
  0
ENDSEC
  0
SECTION
  2
ENTITIES
  0
LWPOLYLINE
  5
100
330
1F
100
AcDbEntity
  8
0
100
AcDbPolyline
 90
      150
 70
     1
 43
0.0
 10
-336.5350364890542
 20
-34.27409009724639
 10
-336.5350364890542
 20
-153.7640644627461
 42
0.4142135623730951
 10
-334.5350364890542
 20
-155.7640644627461
 10
-318.8000364890542
 20
-155.7640644627461
 42
-0.4142135623730951
 10
-318.3000364890542
 20
-156.2640644627461
 10
-318.3000364890542
 20
-156.6365779468551
 42
-0.4142135623730951
 10
-318.8000364890542
 20
-157.1365779468551
 10
-327.3000364890542
 20
-157.1365779468551
 42
0.4142135623730951
 10
-328.3000364890542
 20
-158.1365779468551
 10
-328.3000364890542
 20
-159.6365779468551
 42
0.4142135623730951
 10
-327.3000364890541
 20
-160.6365779468551
 10
-273.3000364890541
 20
-160.6365779468551
 42
0.4142135623730951
 10
-272.3000364890542
 20
-159.6365779468551
 10
-272.3000364890542
 20
-158.1365779468551
 42
0.4142135623730951
 10
-273.3000364890541
 20
-157.1365779468551
 10
-281.8000364890542
 20
-157.1365779468551
 42
-0.4142135623730951
 10
-282.3000364890542
 20
-156.6365779468551
 10
-282.3000364890542
 20
-156.2640644627461
 42
-0.4142135623730951
 10
-281.8000364890542
 20
-155.7640644627461
 10
-260.3000364890542
 20
-155.7640644627461
 42
-0.4142135623730951
 10
-258.3000364890542
 20
-157.7640644627461
 10
-258.3000364890542
 20
-158.6365779468551
 42
0.4142135623730951
 10
-256.3000364890542
 20
-160.6365779468551
 10
-229.3000364890538
 20
-160.6365779468551
 42
0.4142135623730951
 10
-228.3000364890538
 20
-159.6365779468551
 10
-228.3000364890538
 20
-158.1365779468551
 42
0.4142135623730951
 10
-229.3000364890538
 20
-157.1365779468551
 10
-243.5172144894549
 20
-157.1365779468551
 42
-0.6681786379192997
 10
-244.931428051828
 20
-153.722364384482
 10
-242.5058227453185
 20
-151.2967590779725
 42
-0.1989123673796598
 10
-241.0916091829454
 20
-150.7109726403456
 10
-165.8647201081578
 20
-150.7109726403456
 42
-0.1989123673796449
 10
-164.4505065457848
 20
-151.2967590779724
 10
-162.0249012392758
 20
-153.722364384482
 42
-0.6681786379193078
 10
-163.4391148016488
 20
-157.1365779468551
 10
-175.7870364890538
 20
-157.1365779468551
 42
0.4142135623730951
 10
-176.7870364890538
 20
-158.1365779468551
 10
-176.7870364890538
 20
-159.6365779468551
 42
0.4142135623730951
 10
-175.7870364890538
 20
-160.6365779468551
 10
-150.2870364890538
 20
-160.6365779468551
 42
0.4142135623730951
 10
-148.2870364890538
 20
-158.6365779468551
 10
-148.2870364890538
 20
-157.7640643357126
 42
-0.4142135623730951
 10
-146.2870364890538
 20
-155.7640643357126
 10
-110.2870364890538
 20
-155.7640643357126
 42
-0.4142135623730951
 10
-109.7870364890538
 20
-156.2640643357126
 10
-109.7870364890538
 20
-156.6365779468551
 42
-0.4142135623730951
 10
-110.2870364890538
 20
-157.1365779468551
 10
-115.7870364890538
 20
-157.1365779468551
 42
0.4142135623730952
 10
-116.7870364890538
 20
-158.1365779468551
 10
-116.7870364890538
 20
-159.6365779468551
 42
0.4142135623730951
 10
-115.7870364890538
 20
-160.6365779468551
 10
-87.78703648905382
 20
-160.6365779468551
 42
0.4142135623730951
 10
-86.78703648905381
 20
-159.6365779468551
 10
-86.78703648905386
 20
-158.1365779468551
 42
0.4142135623730951
 10
-87.78703648905382
 20
-157.1365779468551
 10
-93.2870364890538
 20
-157.1365779468551
 42
-0.4142135623730951
 10
-93.78703648905386
 20
-156.6365779468551
 10
-93.78703648905386
 20
-156.2640643357126
 42
-0.4142135623730951
 10
-93.2870364890538
 20
-155.7640643357126
 10
-54.28703648905383
 20
-155.7640643357126
 42
-0.4142135623730951
 10
-53.78703648905383
 20
-156.2640643357126
 10
-53.78703648905383
 20
-156.6365779468551
 42
-0.4142135623730951
 10
-54.28703648905383
 20
-157.1365779468551
 10
-62.78703648905383
 20
-157.1365779468551
 42
0.4142135623730951
 10
-63.78703648905383
 20
-158.1365779468551
 10
-63.78703648905383
 20
-159.6365779468551
 42
0.4142135623730951
 10
-62.78703648905383
 20
-160.6365779468551
 10
-8.787036489053832
 20
-160.6365779468551
 42
0.4142135623730951
 10
-7.787036489053832
 20
-159.6365779468551
 10
-7.787036489053832
 20
-158.1365779468551
 42
0.4142135623730951
 10
-8.787036489053832
 20
-157.1365779468551
 10
-17.28703648905383
 20
-157.1365779468551
 42
-0.4142135623730951
 10
-17.78703648905383
 20
-156.6365779468551
 10
-17.78703648905383
 20
-156.2640643357126
 42
-0.4142135623730951
 10
-17.28703648905383
 20
-155.7640643357126
 10
-8.325036489053843
 20
-155.7640643357126
 42
0.4142135623730951
 10
-6.325036489053784
 20
-153.7640643357126
 10
-6.325036489053784
 20
-136.7109719514205
 42
0.4142135623730951
 10
-8.325036489053843
 20
-134.7109719514205
 10
-23.3750364890538
 20
-134.7109719514205
 42
-0.4142135623730951
 10
-25.3750364890538
 20
-132.7109719514205
 10
-25.3750364890538
 20
-58.1365779468544
 42
0.0201638392611296
 10
-25.38153648905393
 20
-57.97546385684237
 10
-25.38153648905382
 20
-34.2740900972464
 42
0.4142135623730951
 10
-27.38153648905381
 20
-32.27409009724643
 10
-42.28703648905383
 20
-32.27409009724639
 42
-0.4142135623730951
 10
-42.78703648905382
 20
-31.77409009724639
 10
-42.78703648905382
 20
-31.32407794685538
 42
-0.4142135623730951
 10
-42.28703648905383
 20
-30.82407794685539
 10
-36.78703648905383
 20
-30.82407794685543
 42
0.4142135623730951
 10
-35.78703648905385
 20
-29.82407794685535
 10
-35.78703648905385
 20
-28.32407794685535
 42
0.4142135623730951
 10
-36.78703648905383
 20
-27.32407794685535
 10
-64.78703648905383
 20
-27.32407794685535
 42
0.4142135623730951
 10
-65.78703648905383
 20
-28.32407794685535
 10
-65.78703648905383
 20
-29.82407794685535
 42
0.4142135623730951
 10
-64.78703648905383
 20
-30.82407794685537
 10
-59.28703648905383
 20
-30.82407794685537
 42
-0.4142135623730951
 10
-58.78703648905383
 20
-31.32407794685537
 10
-58.78703648905383
 20
-31.77409009724637
 42
-0.4142135623730951
 10
-59.28703648905383
 20
-32.27409009724637
 10
-115.2870364890538
 20
-32.27409009724642
 42
-0.4142135623730951
 10
-115.7870364890537
 20
-31.77409009724639
 10
-115.7870364890537
 20
-31.32407794685541
 42
-0.4142135623730951
 10
-115.2870364890538
 20
-30.82407794685541
 10
-106.7870364890538
 20
-30.82407794685541
 42
0.4142135623730951
 10
-105.7870364890538
 20
-29.82407794685535
 10
-105.7870364890538
 20
-28.32407794685541
 42
0.4142135623730951
 10
-106.7870364890538
 20
-27.32407794685541
 10
-160.7870364890537
 20
-27.32407794685535
 42
0.4142135623730951
 10
-161.7870364890537
 20
-28.32407794685541
 10
-161.7870364890537
 20
-29.82407794685535
 42
0.4142135623730951
 10
-160.7870364890537
 20
-30.82407794685541
 10
-152.2870364890538
 20
-30.82407794685541
 42
-0.4142135623730951
 10
-151.7870364890538
 20
-31.32407794685541
 10
-151.7870364890538
 20
-31.77409009724639
 42
-0.4142135623730951
 10
-152.2870364890538
 20
-32.27409009724642
 10
-211.8000364890538
 20
-32.2740900972464
 42
-0.4142135623730951
 10
-212.3000364890538
 20
-31.77409009724637
 10
-212.3000364890538
 20
-31.3240779468554
 42
-0.4142135623730951
 10
-211.8000364890538
 20
-30.8240779468554
 10
-203.3000364890538
 20
-30.8240779468554
 42
0.4142135623730951
 10
-202.3000364890538
 20
-29.82407794685535
 10
-202.3000364890538
 20
-28.32407794685541
 42
0.4142135623730951
 10
-203.3000364890538
 20
-27.32407794685541
 10
-257.3000364890542
 20
-27.32407794685533
 42
0.4142135623730925
 10
-258.3000364890542
 20
-28.32407794685538
 10
-258.3000364890542
 20
-29.82407794685533
 42
0.4142135623730951
 10
-257.3000364890542
 20
-30.8240779468554
 10
-248.8000364890542
 20
-30.8240779468554
 42
-0.4142135623730951
 10
-248.3000364890542
 20
-31.3240779468554
 10
-248.3000364890542
 20
-31.77409009724637
 42
-0.4142135623730951
 10
-248.8000364890542
 20
-32.2740900972464
 10
-304.8000364890542
 20
-32.27409009724639
 42
-0.4142135623730925
 10
-305.3000364890542
 20
-31.77409009724636
 10
-305.3000364890542
 20
-31.32407794685538
 42
-0.4142135623730951
 10
-304.8000364890542
 20
-30.82407794685539
 10
-299.3000364890542
 20
-30.82407794685539
 42
0.4142135623730951
 10
-298.3000364890542
 20
-29.82407794685533
 10
-298.3000364890542
 20
-28.32407794685538
 42
0.4142135623730951
 10
-299.3000364890542
 20
-27.32407794685538
 10
-327.3000364890541
 20
-27.32407794685533
 42
0.4142135623730951
 10
-328.3000364890542
 20
-28.32407794685538
 10
-328.3000364890542
 20
-29.82407794685533
 42
0.4142135623730976
 10
-327.3000364890541
 20
-30.82407794685539
 10
-321.8000364890542
 20
-30.82407794685539
 42
-0.4142135623730951
 10
-321.3000364890542
 20
-31.32407794685538
 10
-321.3000364890542
 20
-31.77409009724636
 42
-0.4142135623730951
 10
-321.8000364890542
 20
-32.27409009724639
 10
-334.5350364890542
 20
-32.27409009724639
 42
0.4142135623730921
  0
LWPOLYLINE
  5
101
330
1F
100
AcDbEntity
  8
0
100
AcDbPolyline
 90
        4
 70
     1
 43
0.0
 10
-298.7250364890542
 20
-94.56097195142048
 10
-298.7250364890542
 20
-93.56097195142046
 10
-101.2250165283378
 20
-93.5609719514205
 10
-101.2250165283378
 20
-94.56097195142048
  0
LWPOLYLINE
  5
102
330
1F
100
AcDbEntity
  8
0
100
AcDbPolyline
 90
        4
 70
     1
 43
0.0
 10
-70.2687864890538
 20
-129.6609719514206
 10
-84.26878648905381
 20
-129.6609719514206
 10
-84.26878648905381
 20
-115.6609719514206
 10
-70.2687864890538
 20
-115.6609719514206
  0
LWPOLYLINE
  5
103
330
1F
100
AcDbEntity
  8
0
100
AcDbPolyline
 90
        8
 70
     1
 43
0.0
 10
-85.7067864890538
 20
-117.1609719514206
 10
-85.7067864890538
 20
-131.1609719514206
 42
-0.4142135623730951
 10
-86.2067864890538
 20
-131.6609719514206
 10
-92.2067864890538
 20
-131.6609719514206
 42
-0.4142135623730951
 10
-92.70678648905379
 20
-131.1609719514206
 10
-92.70678648905379
 20
-117.1609719514206
 42
-0.4142135623730951
 10
-92.2067864890538
 20
-116.6609719514206
 10
-86.2067864890538
 20
-116.6609719514206
 42
-0.4142135623730951
  0
LWPOLYLINE
  5
104
330
1F
100
AcDbEntity
  8
0
100
AcDbPolyline
 90
        8
 70
     1
 43
0.0
 10
-61.83078648905382
 20
-117.1609719514206
 10
-61.83078648905371
 20
-131.1609719514206
 42
-0.4142135623730951
 10
-62.33078648905382
 20
-131.6609719514206
 10
-68.33078648905382
 20
-131.6609719514206
 42
-0.4142135623730951
 10
-68.83078648905382
 20
-131.1609719514206
 10
-68.83078648905382
 20
-117.1609719514206
 42
-0.4142135623730951
 10
-68.33078648905382
 20
-116.6609719514206
 10
-62.33078648905382
 20
-116.6609719514206
 42
-0.4142135623730951
  0
LWPOLYLINE
  5
105
330
1F
100
AcDbEntity
  8
0
100
AcDbPolyline
 90
        4
 70
     1
 43
0.0
 10
-315.5375364890542
 20
-148.7109719514206
 10
-329.5375364890542
 20
-148.7109719514206
 10
-329.5375364890542
 20
-134.7109719514206
 10
-315.5375364890542
 20
-134.7109719514206
  0
LWPOLYLINE
  5
106
330
1F
100
AcDbEntity
  8
0
100
AcDbPolyline
 90
        4
 70
     1
 43
0.0
 10
-305.7250364890542
 20
-148.7109719514206
 10
-305.7250364890542
 20
-134.7109719514206
 10
-291.7250364890541
 20
-134.7109719514206
 10
-291.7250364890541
 20
-148.7109719514206
  0
LWPOLYLINE
  5
107
330
1F
100
AcDbEntity
  8
0
100
AcDbPolyline
 90
        4
 70
     1
 43
0.0
 10
-281.9125364890542
 20
-148.7109719514206
 10
-281.9125364890542
 20
-134.7109719514206
 10
-267.9125364890542
 20
-134.7109719514206
 10
-267.9125364890542
 20
-148.7109719514206
  0
LWPOLYLINE
  5
108
330
1F
100
AcDbEntity
  8
0
100
AcDbPolyline
 90
        4
 70
     1
 43
0.0
 10
-186.9500364890538
 20
-148.7109719514206
 10
-200.9500364890538
 20
-148.7109719514206
 10
-200.9500364890538
 20
-134.7109719514206
 10
-186.9500364890538
 20
-134.7109719514206
  0
LWPOLYLINE
  5
109
330
1F
100
AcDbEntity
  8
0
100
AcDbPolyline
 90
        4
 70
     1
 43
0.0
 10
-119.9875364890538
 20
-134.7109719514206
 10
-105.9875364890538
 20
-134.7109719514206
 10
-105.9875364890538
 20
-148.7109719514206
 10
-119.9875364890538
 20
-148.7109719514206
  0
LWPOLYLINE
  5
110
330
1F
100
AcDbEntity
  8
0
100
AcDbPolyline
 90
        4
 70
     1
 43
0.0
 10
-77.41253648905381
 20
-148.7109719514206
 10
-91.41253648905381
 20
-148.7109719514206
 10
-91.41253648905381
 20
-134.7109719514206
 10
-77.41253648905381
 20
-134.7109719514206
  0
LWPOLYLINE
  5
111
330
1F
100
AcDbEntity
  8
0
100
AcDbPolyline
 90
        4
 70
     1
 43
0.0
 10
-62.83753648905383
 20
-139.4734719514206
 10
-48.83753648905383
 20
-139.4734719514206
 10
-48.83753648905383
 20
-153.4734719514205
 10
-62.83753648905383
 20
-153.4734719514205
  0
LWPOLYLINE
  5
112
330
1F
100
AcDbEntity
  8
0
100
AcDbPolyline
 90
        4
 70
     1
 43
0.0
 10
-24.73753648905381
 20
-139.4734719514206
 10
-10.73753648905375
 20
-139.4734719514206
 10
-10.73753648905375
 20
-153.4734719514205
 10
-24.73753648905381
 20
-153.4734719514205
  0
LWPOLYLINE
  5
113
330
1F
100
AcDbEntity
  8
0
100
AcDbPolyline
 90
        4
 70
     1
 43
0.0
 10
-29.78753648905382
 20
-139.4734719514206
 10
-29.78753648905382
 20
-153.4734719514205
 10
-43.78753648905382
 20
-153.4734719514205
 10
-43.78753648905382
 20
-139.4734719514205
  0
LWPOLYLINE
  5
114
330
1F
100
AcDbEntity
  8
0
100
AcDbPolyline
 90
        6
 70
     1
 43
0.0
 10
-70.12503648905379
 20
-147.7109719514206
 10
-70.12503648905379
 20
-135.7109719514207
 42
-0.4142135623731237
 10
-69.1250364890538
 20
-134.7109719514205
 42
-0.406908393081216
 10
-68.15003955018386
 20
-135.7106593260203
 10
-68.15003955018386
 20
-147.7112845768209
 42
-0.4069083930812166
 10
-69.1250364890538
 20
-148.7109719514206
 42
-0.4142135623730959
  0
LWPOLYLINE
  5
115
330
1F
100
AcDbEntity
  8
0
100
AcDbPolyline
 90
        4
 70
     1
 43
0.0
 10
-29.78753648905382
 20
-120.4234719514205
 10
-29.78753648905382
 20
-134.4234719514205
 10
-43.78753648905382
 20
-134.4234719514205
 10
-43.78753648905382
 20
-120.4234719514205
  0
LWPOLYLINE
  5
116
330
1F
100
AcDbEntity
  8
0
100
AcDbPolyline
 90
        4
 70
     1
 43
0.0
 10
-43.78753648905382
 20
-91.56097195142056
 10
-43.78753648905382
 20
-77.56097195142039
 10
-29.78753648905382
 20
-77.56097195142039
 10
-29.78753648905382
 20
-91.5609719514205
  0
LWPOLYLINE
  5
117
330
1F
100
AcDbEntity
  8
0
100
AcDbPolyline
 90
        4
 70
     1
 43
0.0
 10
-43.78753648905382
 20
-99.610971911033
 10
-29.78753648905382
 20
-99.61097191103295
 10
-29.78753648905382
 20
-113.6109719110329
 10
-43.78753648905382
 20
-113.610971911033
  0
LWPOLYLINE
  5
118
330
1F
100
AcDbEntity
  8
0
100
AcDbPolyline
 90
        6
 70
     1
 43
0.0
 10
-42.78878742453478
 20
-115.9484750125506
 42
0.399636645527178
 10
-43.78753648905382
 20
-116.8984719514206
 42
0.4142135623730951
 10
-42.78753648905381
 20
-117.8984719514206
 10
-30.78753648905371
 20
-117.8984719514206
 42
0.4142135623730951
 10
-29.78753648905382
 20
-116.8984719514206
 42
0.399636645527178
 10
-30.78628555357278
 20
-115.9484750125506
  0
LWPOLYLINE
  5
119
330
1F
100
AcDbEntity
  8
0
100
AcDbPolyline
 90
        4
 70
     1
 43
0.0
 10
-119.9875364890538
 20
-115.6609719514206
 10
-105.9875364890539
 20
-115.6609719514206
 10
-105.9875364890539
 20
-129.6609719514205
 10
-119.9875364890538
 20
-129.6609719514205
  0
LWPOLYLINE
  5
120
330
1F
100
AcDbEntity
  8
0
100
AcDbPolyline
 90
        4
 70
     1
 43
0.0
 10
-125.0375364890538
 20
-129.6609719514205
 10
-139.0375364890538
 20
-129.6609719514205
 10
-139.0375364890538
 20
-115.6609719514206
 10
-125.0375364890538
 20
-115.6609719514206
  0
LWPOLYLINE
  5
121
330
1F
100
AcDbEntity
  8
0
100
AcDbPolyline
 90
        4
 70
     1
 43
0.0
 10
-158.0875364890538
 20
-115.6609719514206
 10
-144.0875364890538
 20
-115.6609719514206
 10
-144.0875364890538
 20
-129.6609719514205
 10
-158.0875364890538
 20
-129.6609719514205
  0
LWPOLYLINE
  5
122
330
1F
100
AcDbEntity
  8
0
100
AcDbPolyline
 90
        4
 70
     1
 43
0.0
 10
-163.1375364890538
 20
-129.6609719514205
 10
-177.1375364890538
 20
-129.6609719514205
 10
-177.1375364890538
 20
-115.6609719514206
 10
-163.1375364890538
 20
-115.6609719514206
  0
LWPOLYLINE
  5
123
330
1F
100
AcDbEntity
  8
0
100
AcDbPolyline
 90
        4
 70
     1
 43
0.0
 10
-196.1875364890538
 20
-115.6609719514206
 10
-182.1875364890538
 20
-115.6609719514206
 10
-182.1875364890538
 20
-129.6609719514205
 10
-196.1875364890538
 20
-129.6609719514205
  0
LWPOLYLINE
  5
124
330
1F
100
AcDbEntity
  8
0
100
AcDbPolyline
 90
        4
 70
     1
 43
0.0
 10
-215.2375364890538
 20
-115.6609719514206
 10
-201.2375364890538
 20
-115.6609719514206
 10
-201.2375364890538
 20
-129.6609719514205
 10
-215.2375364890538
 20
-129.6609719514205
  0
LWPOLYLINE
  5
125
330
1F
100
AcDbEntity
  8
0
100
AcDbPolyline
 90
        4
 70
     1
 43
0.0
 10
-220.2875364890538
 20
-129.6609719514205
 10
-234.2875364890538
 20
-129.6609719514205
 10
-234.2875364890538
 20
-115.6609719514206
 10
-220.2875364890538
 20
-115.6609719514206
  0
LWPOLYLINE
  5
126
330
1F
100
AcDbEntity
  8
0
100
AcDbPolyline
 90
        4
 70
     1
 43
0.0
 10
-253.3375364890542
 20
-115.6609719514206
 10
-239.3375364890542
 20
-115.6609719514206
 10
-239.3375364890542
 20
-129.6609719514205
 10
-253.3375364890542
 20
-129.6609719514205
  0
LWPOLYLINE
  5
127
330
1F
100
AcDbEntity
  8
0
100
AcDbPolyline
 90
        4
 70
     1
 43
0.0
 10
-258.3875364890543
 20
-129.6609719514205
 10
-272.3875364890542
 20
-129.6609719514205
 10
-272.3875364890542
 20
-115.6609719514206
 10
-258.3875364890543
 20
-115.6609719514206
  0
LWPOLYLINE
  5
128
330
1F
100
AcDbEntity
  8
0
100
AcDbPolyline
 90
        4
 70
     1
 43
0.0
 10
-291.4375364890542
 20
-115.6609719514206
 10
-277.4375364890542
 20
-115.6609719514206
 10
-277.4375364890542
 20
-129.6609719514205
 10
-291.4375364890542
 20
-129.6609719514205
  0
LWPOLYLINE
  5
129
330
1F
100
AcDbEntity
  8
0
100
AcDbPolyline
 90
        4
 70
     1
 43
0.0
 10
-308.3937864890542
 20
-129.6609719514206
 10
-322.3937864890542
 20
-129.6609719514206
 10
-322.3937864890542
 20
-115.6609719514205
 10
-308.3937864890542
 20
-115.6609719514205
  0
LWPOLYLINE
  5
130
330
1F
100
AcDbEntity
  8
0
100
AcDbPolyline
 90
        6
 70
     1
 43
0.0
 10
-310.6312864890542
 20
-109.6109719514205
 42
0.4142135623730937
 10
-309.6312864890542
 20
-110.6109719514206
 42
0.406908393081195
 10
-308.6562895501842
 20
-109.6112845768208
 10
-308.6562895501842
 20
-97.61065932602029
 42
0.4069083930812258
 10
-309.6312864890542
 20
-96.61097195142048
 42
0.4142135623731252
 10
-310.6312864890542
 20
-97.6109719514206
  0
LWPOLYLINE
  5
131
330
1F
100
AcDbEntity
  8
0
100
AcDbPolyline
 90
        6
 70
     1
 43
0.0
 10
-305.4375364890542
 20
-109.6122228869016
 42
0.3996366455271754
 10
-304.4875395501843
 20
-110.6109719514206
 42
0.4142135623730966
 10
-303.4875395501842
 20
-109.6109719514206
 10
-303.4875395501842
 20
-97.61097195142049
 42
0.4142135623730951
 10
-304.4875395501843
 20
-96.61097195142055
 42
0.3996366455271768
 10
-305.4375364890542
 20
-97.60972101593962
  0
LWPOLYLINE
  5
132
330
1F
100
AcDbEntity
  8
0
100
AcDbPolyline
 90
        4
 70
     1
 43
0.0
 10
-300.9625364890542
 20
-110.6109719514206
 10
-300.9625364890542
 20
-96.61097195142055
 10
-286.9625364890542
 20
-96.61097195142055
 10
-286.9625364890542
 20
-110.6109719514206
  0
LWPOLYLINE
  5
133
330
1F
100
AcDbEntity
  8
0
100
AcDbPolyline
 90
        4
 70
     1
 43
0.0
 10
-267.9125364890542
 20
-96.61097195142048
 10
-267.9125364890542
 20
-110.6109719514206
 10
-281.9125364890542
 20
-110.6109719514206
 10
-281.9125364890542
 20
-96.61097195142048
  0
LWPOLYLINE
  5
134
330
1F
100
AcDbEntity
  8
0
100
AcDbPolyline
 90
        4
 70
     1
 43
0.0
 10
-327.1557864890542
 20
-110.6109719514206
 10
-327.1557864890542
 20
-96.61097195142055
 10
-313.1562864890542
 20
-96.61097195142055
 10
-313.1562864890542
 20
-110.6109719514206
  0
LWPOLYLINE
  5
135
330
1F
100
AcDbEntity
  8
0
100
AcDbPolyline
 90
        4
 70
     1
 43
0.0
 10
-262.8625364890542
 20
-96.61097195142048
 10
-248.8625364890542
 20
-96.61097195142048
 10
-248.8625364890542
 20
-110.6109719514206
 10
-262.8625364890542
 20
-110.6109719514206
  0
LWPOLYLINE
  5
136
330
1F
100
AcDbEntity
  8
0
100
AcDbPolyline
 90
        4
 70
     1
 43
0.0
 10
-191.7125364890538
 20
-110.6109719514206
 10
-205.7125364890538
 20
-110.6109719514206
 10
-205.7125364890538
 20
-96.61097195142055
 10
-191.7125364890538
 20
-96.61097195142055
  0
LWPOLYLINE
  5
137
330
1F
100
AcDbEntity
  8
0
100
AcDbPolyline
 90
        4
 70
     1
 43
0.0
 10
-210.7625364890538
 20
-110.6109719514206
 10
-224.7625364890538
 20
-110.6109719514206
 10
-224.7625364890538
 20
-96.61097195142055
 10
-210.7625364890538
 20
-96.61097195142055
  0
LWPOLYLINE
  5
138
330
1F
100
AcDbEntity
  8
0
100
AcDbPolyline
 90
        4
 70
     1
 43
0.0
 10
-229.8125364890538
 20
-110.6109719514206
 10
-243.8125364890542
 20
-110.6109719514206
 10
-243.8125364890542
 20
-96.61097195142055
 10
-229.8125364890538
 20
-96.61097195142055
  0
LWPOLYLINE
  5
139
330
1F
100
AcDbEntity
  8
0
100
AcDbPolyline
 90
        4
 70
     1
 43
0.0
 10
-186.6625364890538
 20
-110.6109719514206
 10
-186.6625364890538
 20
-96.61097195142048
 10
-172.6625364890538
 20
-96.61097195142048
 10
-172.6625364890538
 20
-110.6109719514206
  0
LWPOLYLINE
  5
140
330
1F
100
AcDbEntity
  8
0
100
AcDbPolyline
 90
        4
 70
     1
 43
0.0
 10
-167.6125364890538
 20
-96.61097195142055
 10
-153.6125364890538
 20
-96.61097195142055
 10
-153.6125364890538
 20
-110.6109719514206
 10
-167.6125364890538
 20
-110.6109719514206
  0
LWPOLYLINE
  5
141
330
1F
100
AcDbEntity
  8
0
100
AcDbPolyline
 90
        4
 70
     1
 43
0.0
 10
-148.5625364890538
 20
-110.6109719514206
 10
-148.5625364890538
 20
-96.61097195142055
 10
-134.5625364890538
 20
-96.61097195142055
 10
-134.5625364890538
 20
-110.6109719514206
  0
LWPOLYLINE
  5
142
330
1F
100
AcDbEntity
  8
0
100
AcDbPolyline
 90
        4
 70
     1
 43
0.0
 10
-129.5125364890538
 20
-96.61097195142055
 10
-115.5125364890538
 20
-96.61097195142055
 10
-115.5125364890538
 20
-110.6109719514206
 10
-129.5125364890538
 20
-110.6109719514206
  0
LWPOLYLINE
  5
143
330
1F
100
AcDbEntity
  8
0
100
AcDbPolyline
 90
        4
 70
     1
 43
0.0
 10
-79.50628648905381
 20
-96.6109719514206
 10
-65.50628648905382
 20
-96.6109719514206
 10
-65.50628648905382
 20
-110.6109719514206
 10
-79.50628648905381
 20
-110.6109719514206
  0
LWPOLYLINE
  5
144
330
1F
100
AcDbEntity
  8
0
100
AcDbPolyline
 90
        4
 70
     1
 43
0.0
 10
-96.4625364890538
 20
-96.6109719514206
 10
-96.4625364890538
 20
-110.6109719514206
 10
-110.4625364890538
 20
-110.6109719514206
 10
-110.4625364890538
 20
-96.6109719514206
  0
LWPOLYLINE
  5
145
330
1F
100
AcDbEntity
  8
0
100
AcDbPolyline
 90
        8
 70
     1
 43
0.0
 10
-87.94428648905384
 20
-112.1109719514206
 10
-87.94428648905384
 20
-98.1109719514206
 42
-0.4142135623730951
 10
-87.44428648905381
 20
-97.6109719514206
 10
-81.4442864890538
 20
-97.6109719514206
 42
-0.4142135623730951
 10
-80.94428648905381
 20
-98.1109719514206
 10
-80.94428648905381
 20
-112.1109719514206
 42
-0.4142135623730951
 10
-81.4442864890538
 20
-112.6109719514206
 10
-87.44428648905381
 20
-112.6109719514206
 42
-0.4142135623730951
  0
LWPOLYLINE
  5
146
330
1F
100
AcDbEntity
  8
0
100
AcDbPolyline
 90
        4
 70
     1
 43
0.0
 10
-72.36253648905381
 20
-77.56097195142046
 10
-58.36253648905374
 20
-77.56097195142044
 10
-58.36253648905374
 20
-91.56097195142049
 10
-72.36253648905381
 20
-91.56097195142049
  0
LWPOLYLINE
  5
147
330
1F
100
AcDbEntity
  8
0
100
AcDbPolyline
 90
        4
 70
     1
 43
0.0
 10
-82.17503648905381
 20
-91.56097195142043
 10
-96.17503648905383
 20
-91.56097195142049
 10
-96.17503648905383
 20
-77.5609719514205
 10
-82.17503648905381
 20
-77.5609719514205
  0
LWPOLYLINE
  5
148
330
1F
100
AcDbEntity
  8
0
100
AcDbPolyline
 90
        6
 70
     1
 43
0.0
 10
-79.65003648905383
 20
-90.56097195142049
 42
0.4142135623731055
 10
-78.65003648905383
 20
-91.5609719514205
 42
0.4069083930812187
 10
-77.67503955018391
 20
-90.56128457682079
 10
-77.67503955018378
 20
-78.56065932602013
 42
0.4069083930812162
 10
-78.65003648905383
 20
-77.56097195142039
 42
0.4142135623731368
 10
-79.65003648905383
 20
-78.5609719514205
  0
LWPOLYLINE
  5
149
330
1F
100
AcDbEntity
  8
0
100
AcDbPolyline
 90
        6
 70
     1
 43
0.0
 10
-76.83753648905383
 20
-90.56222288690149
 42
0.3996366455271859
 10
-75.8875395501837
 20
-91.56097195142056
 42
0.4142135623730951
 10
-74.88753955018381
 20
-90.56097195142049
 10
-74.88753955018371
 20
-78.5609719514204
 42
0.4142135623730951
 10
-75.8875395501837
 20
-77.5609719514205
 42
0.3996366455271859
 10
-76.83753648905383
 20
-78.55972101593953
  0
LWPOLYLINE
  5
150
330
1F
100
AcDbEntity
  8
0
100
AcDbPolyline
 90
        4
 70
     1
 43
0.0
 10
-196.4750364890538
 20
-77.56097195142048
 10
-196.4750364890538
 20
-91.5609719514205
 10
-210.4750364890537
 20
-91.56097195142049
 10
-210.4750364890537
 20
-77.56097195142048
  0
LWPOLYLINE
  5
151
330
1F
100
AcDbEntity
  8
0
100
AcDbPolyline
 90
        4
 70
     1
 43
0.0
 10
-215.5250364890538
 20
-77.56097195142048
 10
-215.5250364890538
 20
-91.56097195142049
 10
-229.5250364890538
 20
-91.56097195142049
 10
-229.5250364890538
 20
-77.56097195142048
  0
LWPOLYLINE
  5
152
330
1F
100
AcDbEntity
  8
0
100
AcDbPolyline
 90
        4
 70
     1
 43
0.0
 10
-272.6750364890542
 20
-91.56097195142049
 10
-286.6750364890542
 20
-91.56097195142049
 10
-286.6750364890542
 20
-77.56097195142044
 10
-272.6750364890542
 20
-77.56097195142046
  0
LWPOLYLINE
  5
153
330
1F
100
AcDbEntity
  8
0
100
AcDbPolyline
 90
        4
 70
     1
 43
0.0
 10
-267.6250364890542
 20
-91.56097195142049
 10
-267.6250364890542
 20
-77.56097195142046
 10
-253.6250364890542
 20
-77.56097195142046
 10
-253.6250364890542
 20
-91.56097195142049
  0
LWPOLYLINE
  5
154
330
1F
100
AcDbEntity
  8
0
100
AcDbPolyline
 90
        4
 70
     1
 43
0.0
 10
-248.5750364890543
 20
-91.56097195142049
 10
-248.5750364890543
 20
-77.56097195142046
 10
-234.5750364890538
 20
-77.56097195142046
 10
-234.5750364890538
 20
-91.56097195142049
  0
LWPOLYLINE
  5
155
330
1F
100
AcDbEntity
  8
0
100
AcDbPolyline
 90
        4
 70
     1
 43
0.0
 10
-291.7250364890541
 20
-91.56097195142049
 10
-305.7250364890542
 20
-91.56097195142049
 10
-305.7250364890542
 20
-77.56097195142044
 10
-291.7250364890541
 20
-77.56097195142044
  0
LWPOLYLINE
  5
156
330
1F
100
AcDbEntity
  8
0
100
AcDbPolyline
 90
        4
 70
     1
 43
0.0
 10
-329.5375364890542
 20
-77.56097195142044
 10
-315.5375364890542
 20
-77.56097195142044
 10
-315.5375364890542
 20
-91.56097195142049
 10
-329.5375364890542
 20
-91.56097195142049
  0
LWPOLYLINE
  5
157
330
1F
100
AcDbEntity
  8
0
100
AcDbPolyline
 90
        4
 70
     1
 43
0.0
 10
-320.3000364890542
 20
-72.51097195142047
 10
-334.3000364890542
 20
-72.51097195142044
 10
-334.3000364890542
 20
-58.51097195142038
 10
-320.3000364890542
 20
-58.51097195142038
  0
LWPOLYLINE
  5
158
330
1F
100
AcDbEntity
  8
0
100
AcDbPolyline
 90
        4
 70
     1
 43
0.0
 10
-315.2500364890542
 20
-58.51097195142038
 10
-301.2500364890542
 20
-58.51097195142038
 10
-301.2500364890542
 20
-72.51097195142047
 10
-315.2500364890542
 20
-72.51097195142047
  0
LWPOLYLINE
  5
159
330
1F
100
AcDbEntity
  8
0
100
AcDbPolyline
 90
        4
 70
     1
 43
0.0
 10
-282.2000364890542
 20
-72.51097195142047
 10
-296.2000364890542
 20
-72.51097195142047
 10
-296.2000364890542
 20
-58.51097195142038
 10
-282.2000364890542
 20
-58.51097195142038
  0
LWPOLYLINE
  5
160
330
1F
100
AcDbEntity
  8
0
100
AcDbPolyline
 90
        4
 70
     1
 43
0.0
 10
-277.1500364890542
 20
-72.51097195142048
 10
-277.1500364890542
 20
-58.5109719514204
 10
-263.1500364890542
 20
-58.5109719514204
 10
-263.1500364890542
 20
-72.51097195142048
  0
LWPOLYLINE
  5
161
330
1F
100
AcDbEntity
  8
0
100
AcDbPolyline
 90
        4
 70
     1
 43
0.0
 10
-258.1000364890542
 20
-58.5109719514204
 10
-244.1000364890542
 20
-58.5109719514204
 10
-244.1000364890542
 20
-72.51097195142048
 10
-258.1000364890542
 20
-72.51097195142048
  0
LWPOLYLINE
  5
162
330
1F
100
AcDbEntity
  8
0
100
AcDbPolyline
 90
        4
 70
     1
 43
0.0
 10
-225.0500364890538
 20
-72.51097195142048
 10
-239.0500364890542
 20
-72.51097195142048
 10
-239.0500364890542
 20
-58.5109719514204
 10
-225.0500364890538
 20
-58.5109719514204
  0
LWPOLYLINE
  5
163
330
1F
100
AcDbEntity
  8
0
100
AcDbPolyline
 90
        4
 70
     1
 43
0.0
 10
-220.0000364890537
 20
-58.5109719514204
 10
-206.0000364890538
 20
-58.5109719514204
 10
-206.0000364890538
 20
-72.51097195142048
 10
-220.0000364890538
 20
-72.51097195142048
  0
LWPOLYLINE
  5
164
330
1F
100
AcDbEntity
  8
0
100
AcDbPolyline
 90
        4
 70
     1
 43
0.0
 10
-186.9500364890538
 20
-72.51097195142048
 10
-200.9500364890538
 20
-72.51097195142044
 10
-200.9500364890538
 20
-58.5109719514204
 10
-186.9500364890538
 20
-58.5109719514204
  0
LWPOLYLINE
  5
165
330
1F
100
AcDbEntity
  8
0
100
AcDbPolyline
 90
        4
 70
     1
 43
0.0
 10
-181.9000364890538
 20
-58.5109719514204
 10
-167.9000364890538
 20
-58.5109719514204
 10
-167.9000364890538
 20
-72.51097195142048
 10
-181.9000364890538
 20
-72.51097195142044
  0
LWPOLYLINE
  5
166
330
1F
100
AcDbEntity
  8
0
100
AcDbPolyline
 90
        4
 70
     1
 43
0.0
 10
-148.8500364890538
 20
-72.51097195142047
 10
-162.8500364890538
 20
-72.51097195142048
 10
-162.8500364890538
 20
-58.5109719514204
 10
-148.8500364890538
 20
-58.51097195142042
  0
LWPOLYLINE
  5
167
330
1F
100
AcDbEntity
  8
0
100
AcDbPolyline
 90
        4
 70
     1
 43
0.0
 10
-143.8000364890538
 20
-58.51097195142042
 10
-129.8000364890538
 20
-58.51097195142042
 10
-129.8000364890538
 20
-72.5109719514205
 10
-143.8000364890538
 20
-72.5109719514205
  0
LWPOLYLINE
  5
168
330
1F
100
AcDbEntity
  8
0
100
AcDbPolyline
 90
        4
 70
     1
 43
0.0
 10
-110.7500364890538
 20
-72.5109719514205
 10
-124.7500364890538
 20
-72.5109719514205
 10
-124.7500364890538
 20
-58.51097195142042
 10
-110.7500364890538
 20
-58.51097195142042
  0
LWPOLYLINE
  5
169
330
1F
100
AcDbEntity
  8
0
100
AcDbPolyline
 90
        4
 70
     1
 43
0.0
 10
-105.7000364890538
 20
-72.5109719514205
 10
-105.7000364890538
 20
-58.51097195142042
 10
-91.70003648905382
 20
-58.51097195142042
 10
-91.70003648905382
 20
-72.5109719514205
  0
LWPOLYLINE
  5
170
330
1F
100
AcDbEntity
  8
0
100
AcDbPolyline
 90
        4
 70
     1
 43
0.0
 10
-63.12503648905379
 20
-58.5109719514204
 10
-63.12503648905379
 20
-72.51097195142055
 10
-77.12503648905379
 20
-72.51097195142062
 10
-77.12503648905379
 20
-58.51097195142042
  0
LWPOLYLINE
  5
171
330
1F
100
AcDbEntity
  8
0
100
AcDbPolyline
 90
        4
 70
     1
 43
0.0
 10
-43.78753648905382
 20
-72.51097195142048
 10
-43.78753648905382
 20
-58.51097195142042
 10
-29.78753648905382
 20
-58.51097195142042
 10
-29.78753648905382
 20
-72.51097195142048
  0
LWPOLYLINE
  5
172
330
1F
100
AcDbEntity
  8
0
100
AcDbPolyline
 90
        4
 70
     1
 43
0.0
 10
-29.78753648905382
 20
-34.69847195141993
 10
-29.78753648905382
 20
-48.69847195142043
 10
-43.78753648905382
 20
-48.69847195142043
 10
-43.78753648905382
 20
-34.69847195141993
  0
LWPOLYLINE
  5
173
330
1F
100
AcDbEntity
  8
0
100
AcDbPolyline
 90
        4
 70
     1
 43
0.0
 10
-53.60003648905371
 20
-48.69847195142043
 10
-67.60003648905382
 20
-48.69847195142043
 10
-67.60003648905382
 20
-34.69847195141992
 10
-53.60003648905371
 20
-34.69847195141992
  0
LWPOLYLINE
  5
174
330
1F
100
AcDbEntity
  8
0
100
AcDbPolyline
 90
        4
 70
     1
 43
0.0
 10
-86.65003648905381
 20
-34.69847195141992
 10
-72.65003648905383
 20
-34.69847195141992
 10
-72.65003648905383
 20
-48.69847195142043
 10
-86.65003648905386
 20
-48.69847195142043
  0
LWPOLYLINE
  5
175
330
1F
100
AcDbEntity
  8
0
100
AcDbPolyline
 90
        4
 70
     1
 43
0.0
 10
-91.70003648905382
 20
-48.69847195142043
 10
-105.7000364890538
 20
-48.69847195142043
 10
-105.7000364890538
 20
-34.69847195141992
 10
-91.70003648905378
 20
-34.69847195141992
  0
LWPOLYLINE
  5
176
330
1F
100
AcDbEntity
  8
0
100
AcDbPolyline
 90
        4
 70
     1
 43
0.0
 10
-124.7500364890537
 20
-34.69847195141992
 10
-110.7500364890537
 20
-34.69847195141992
 10
-110.7500364890538
 20
-48.69847195142043
 10
-124.7500364890538
 20
-48.69847195142043
  0
LWPOLYLINE
  5
177
330
1F
100
AcDbEntity
  8
0
100
AcDbPolyline
 90
        4
 70
     1
 43
0.0
 10
-139.3250364890538
 20
-34.69847195141992
 10
-139.3250364890538
 20
-48.69847195142043
 10
-153.3250364890538
 20
-48.69847195142043
 10
-153.3250364890538
 20
-34.69847195141992
  0
LWPOLYLINE
  5
178
330
1F
100
AcDbEntity
  8
0
100
AcDbPolyline
 90
        4
 70
     1
 43
0.0
 10
-158.3750364890538
 20
-48.69847195142043
 10
-172.3750364890538
 20
-48.6984719514204
 10
-172.3750364890537
 20
-34.69847195141991
 10
-158.3750364890537
 20
-34.69847195141992
  0
LWPOLYLINE
  5
179
330
1F
100
AcDbEntity
  8
0
100
AcDbPolyline
 90
        4
 70
     1
 43
0.0
 10
-191.4250364890538
 20
-34.69847195141991
 10
-177.4250364890538
 20
-34.69847195141991
 10
-177.4250364890538
 20
-48.6984719514204
 10
-191.4250364890538
 20
-48.6984719514204
  0
LWPOLYLINE
  5
180
330
1F
100
AcDbEntity
  8
0
100
AcDbPolyline
 90
        4
 70
     1
 43
0.0
 10
-196.4750364890538
 20
-48.6984719514204
 10
-210.4750364890537
 20
-48.6984719514204
 10
-210.4750364890537
 20
-34.69847195141991
 10
-196.4750364890538
 20
-34.69847195141991
  0
LWPOLYLINE
  5
181
330
1F
100
AcDbEntity
  8
0
100
AcDbPolyline
 90
        4
 70
     1
 43
0.0
 10
-239.0500364890542
 20
-34.69847195141991
 10
-225.0500364890538
 20
-34.69847195141991
 10
-225.0500364890538
 20
-48.6984719514204
 10
-239.0500364890542
 20
-48.6984719514204
  0
LWPOLYLINE
  5
182
330
1F
100
AcDbEntity
  8
0
100
AcDbPolyline
 90
        4
 70
     1
 43
0.0
 10
-244.1000364890542
 20
-48.6984719514204
 10
-258.1000364890542
 20
-48.6984719514204
 10
-258.1000364890542
 20
-34.69847195141996
 10
-244.1000364890542
 20
-34.69847195141991
  0
LWPOLYLINE
  5
183
330
1F
100
AcDbEntity
  8
0
100
AcDbPolyline
 90
        4
 70
     1
 43
0.0
 10
-277.1500364890542
 20
-34.69847195141991
 10
-263.1500364890542
 20
-34.69847195141991
 10
-263.1500364890542
 20
-48.6984719514204
 10
-277.1500364890542
 20
-48.6984719514204
  0
LWPOLYLINE
  5
184
330
1F
100
AcDbEntity
  8
0
100
AcDbPolyline
 90
        4
 70
     1
 43
0.0
 10
-282.2000364890542
 20
-48.69847195142039
 10
-296.2000364890542
 20
-48.69847195142039
 10
-296.2000364890542
 20
-34.69847195141989
 10
-282.2000364890542
 20
-34.69847195141989
  0
LWPOLYLINE
  5
185
330
1F
100
AcDbEntity
  8
0
100
AcDbPolyline
 90
        4
 70
     1
 43
0.0
 10
-320.3000364890542
 20
-34.69847195141989
 10
-320.3000364890542
 20
-48.69847195142039
 10
-334.3000364890542
 20
-48.69847195142039
 10
-334.3000364890542
 20
-34.69847195141989
  0
LWPOLYLINE
  5
186
330
1F
100
AcDbEntity
  8
0
100
AcDbPolyline
 90
        8
 70
     1
 43
0.0
 10
-130.8000395501837
 20
-48.69847195142043
 42
0.4142135623730951
 10
-129.8000395501837
 20
-47.6984719514204
 10
-129.8000395501837
 20
-35.69847195141941
 42
0.4142135623731005
 10
-130.8000395501837
 20
-34.69847195141976
 10
-133.2750364890538
 20
-34.69847195141941
 42
0.4142135623730898
 10
-134.2750364890538
 20
-35.69847195141941
 10
-134.2750364890538
 20
-47.6984719514204
 42
0.4142135623730951
 10
-133.2750364890538
 20
-48.69847195142043
  0
LWPOLYLINE
  5
187
330
1F
100
AcDbEntity
  8
0
100
AcDbPolyline
 90
        8
 70
     1
 43
0.0
 10
-216.5250395501838
 20
-48.6984719514204
 42
0.4142135623731005
 10
-215.5250395501838
 20
-47.6984719514204
 10
-215.5250395501838
 20
-35.69847195141939
 42
0.4142135623731055
 10
-216.5250395501838
 20
-34.69847195141975
 10
-219.0000364890537
 20
-34.6984719514194
 42
0.4142135623731055
 10
-220.0000364890538
 20
-35.69847195141939
 10
-220.0000364890538
 20
-47.6984719514204
 42
0.4142135623731005
 10
-219.0000364890537
 20
-48.6984719514204
  0
LWPOLYLINE
  5
188
330
1F
100
AcDbEntity
  8
0
100
AcDbPolyline
 90
        8
 70
     1
 43
0.0
 10
-299.7250395501842
 20
-48.69847195142039
 42
0.4142135623730937
 10
-298.7250395501842
 20
-47.69847195142038
 10
-298.7250395501842
 20
-35.69847195141939
 42
0.414213562373099
 10
-299.7250395501842
 20
-34.69847195141973
 10
-302.2000364890542
 20
-34.69847195141938
 42
0.4142135623731005
 10
-303.2000364890543
 20
-35.69847195141939
 10
-303.2000364890543
 20
-47.69847195142038
 42
0.4142135623730951
 10
-302.2000364890542
 20
-48.69847195142039
  0
LWPOLYLINE
  5
189
330
1F
100
AcDbEntity
  8
0
100
AcDbPolyline
 90
        8
 70
     1
 43
0.0
 10
-314.3000395501843
 20
-48.69847195142039
 42
0.414213562373099
 10
-313.3000395501842
 20
-47.69847195142038
 10
-313.3000395501842
 20
-35.69847195141939
 42
0.4142135623731042
 10
-314.3000395501843
 20
-34.69847195141973
 10
-316.7750364890542
 20
-34.69847195141938
 42
0.4142135623731015
 10
-317.7750364890542
 20
-35.69847195141939
 10
-317.7750364890542
 20
-47.69847195142038
 42
0.4142135623730966
 10
-316.7750364890542
 20
-48.69847195142039
  0
LWPOLYLINE
  5
190
330
1F
100
AcDbEntity
  8
0
100
AcDbPolyline
 90
        8
 70
     1
 43
0.0
 10
-133.3000364890538
 20
-136.2109719514206
 10
-133.3000364890538
 20
-150.2109719514206
 42
-0.4142135623730951
 10
-133.8000364890538
 20
-150.7109719514206
 10
-139.8000364890538
 20
-150.7109719514206
 42
-0.4142135623730951
 10
-140.3000364890538
 20
-150.2109719514206
 10
-140.3000364890538
 20
-136.2109719514206
 42
-0.4142135623730951
 10
-139.8000364890538
 20
-135.7109719514206
 10
-133.8000364890538
 20
-135.7109719514206
 42
-0.4142135623730951
  0
LWPOLYLINE
  5
191
330
1F
100
AcDbEntity
  8
0
100
AcDbPolyline
 90
        6
 70
     1
 43
0.0
 10
-310.2000364890542
 20
-90.56222288690149
 42
0.3996366455271472
 10
-309.2500395501842
 20
-91.56097195142043
 42
0.4142135623730966
 10
-308.2500395501842
 20
-90.56097195142049
 10
-308.2500395501842
 20
-78.56097195142037
 42
0.4142135623730966
 10
-309.2500395501842
 20
-77.56097195142037
 42
0.3996366455272067
 10
-310.2000364890542
 20
-78.5597210159395
  0
LWPOLYLINE
  5
192
330
1F
100
AcDbEntity
  8
0
100
AcDbPolyline
 90
        6
 70
     1
 43
0.0
 10
-312.0125364890542
 20
-91.56097195142043
 42
0.4069083930812008
 10
-311.0375395501842
 20
-90.56128457682076
 10
-311.0375395501842
 20
-78.5606593260201
 42
0.4069083930812268
 10
-312.0125364890542
 20
-77.56097195142037
 42
0.4142135623731252
 10
-313.0125364890542
 20
-78.56097195142047
 10
-313.0125364890542
 20
-90.56097195142049
 42
0.4142135623730937
  0
LWPOLYLINE
  5
193
330
1F
100
AcDbEntity
  8
0
100
AcDbPolyline
 90
        6
 70
     1
 43
0.0
 10
-334.0125364890542
 20
-90.56222288690149
 42
0.3996366455271775
 10
-333.0625395501842
 20
-91.5609719514205
 42
0.414213562373098
 10
-332.0625395501842
 20
-90.56097195142049
 10
-332.0625395501842
 20
-78.56097195142037
 42
0.4142135623730976
 10
-333.0625395501842
 20
-77.56097195142037
 42
0.3996366455272089
 10
-334.0125364890542
 20
-78.5597210159395
  0
LWPOLYLINE
  5
194
330
1F
100
AcDbEntity
  8
0
100
AcDbPolyline
 90
        6
 70
     1
 43
0.0
 10
-102.4625364890538
 20
-129.6609719514206
 42
0.4069083930812383
 10
-101.4875395501838
 20
-128.6612845768209
 10
-101.4875395501838
 20
-116.6606593260203
 42
0.4069083930812367
 10
-102.4625364890538
 20
-115.6609719514206
 42
0.4142135623730951
 10
-103.4625364890538
 20
-116.6609719514206
 10
-103.4625364890538
 20
-128.6609719514207
 42
0.4142135623730951
  0
LWPOLYLINE
  5
195
330
1F
100
AcDbEntity
  8
0
100
AcDbPolyline
 90
        6
 70
     1
 43
0.0
 10
-98.26878648905381
 20
-128.6622228869016
 42
0.3996366455271859
 10
-97.31878955018387
 20
-129.6609719514206
 42
0.4142135623730951
 10
-96.31878955018386
 20
-128.6609719514207
 10
-96.31878955018386
 20
-116.6609719514205
 42
0.4142135623730951
 10
-97.31878955018387
 20
-115.6609719514205
 42
0.3996366455272116
 10
-98.26878648905381
 20
-116.6597210159396
  0
LWPOLYLINE
  5
196
330
1F
100
AcDbEntity
  8
0
100
AcDbPolyline
 90
        8
 70
     1
 43
0.0
 10
-323.8317864890542
 20
-117.1609719514206
 10
-323.8317864890542
 20
-131.1609719514206
 42
-0.4142135623730951
 10
-324.3317864890542
 20
-131.6609719514206
 10
-330.3317864890542
 20
-131.6609719514206
 42
-0.4142135623730951
 10
-330.8317864890542
 20
-131.1609719514206
 10
-330.8317864890542
 20
-117.1609719514206
 42
-0.4142135623730951
 10
-330.3317864890542
 20
-116.6609719514206
 10
-324.3317864890542
 20
-116.6609719514206
 42
-0.4142135623730951
  0
LWPOLYLINE
  5
197
330
1F
100
AcDbEntity
  8
0
100
AcDbPolyline
 90
        8
 70
     1
 43
0.0
 10
-299.9557864890542
 20
-117.1609719514206
 10
-299.9557864890542
 20
-131.1609719514206
 42
-0.4142135623730951
 10
-300.4557864890541
 20
-131.6609719514206
 10
-306.4557864890542
 20
-131.6609719514206
 42
-0.4142135623730951
 10
-306.9557864890541
 20
-131.1609719514206
 10
-306.9557864890541
 20
-117.1609719514206
 42
-0.4142135623730951
 10
-306.4557864890542
 20
-116.6609719514206
 10
-300.4557864890541
 20
-116.6609719514206
 42
-0.4142135623730951
  0
LWPOLYLINE
  5
198
330
1F
100
AcDbEntity
  8
0
100
AcDbPolyline
 90
        8
 70
     1
 43
0.0
 10
-57.06828648905383
 20
-98.11097195142064
 10
-57.06828648905383
 20
-112.1109719514206
 42
-0.4142135623730951
 10
-57.56828648905383
 20
-112.6109719514206
 10
-63.56828648905383
 20
-112.6109719514206
 42
-0.4142135623730951
 10
-64.06828648905383
 20
-112.1109719514206
 10
-64.06828648905383
 20
-98.11097195142064
 42
-0.4142135623730951
 10
-63.56828648905383
 20
-97.61097195142063
 10
-57.56828648905383
 20
-97.6109719514206
 42
-0.4142135623730951
  0
LWPOLYLINE
  5
199
330
1F
100
AcDbEntity
  8
0
100
AcDbPolyline
 90
        8
 70
     1
 43
0.0
 10
-54.68703648905375
 20
-60.0109719514204
 10
-54.68703648905375
 20
-74.01097195142061
 42
-0.4142135623730951
 10
-55.18703648905381
 20
-74.51097195142061
 10
-61.1870364890538
 20
-74.51097195142061
 42
-0.4142135623730951
 10
-61.68703648905381
 20
-74.01097195142061
 10
-61.68703648905381
 20
-60.0109719514204
 42
-0.4142135623730951
 10
-61.1870364890538
 20
-59.5109719514204
 10
-55.18703648905381
 20
-59.5109719514204
 42
-0.4142135623730951
  0
LWPOLYLINE
  5
200
330
1F
100
AcDbEntity
  8
0
100
AcDbPolyline
 90
        8
 70
     1
 43
0.0
 10
-78.56303648905385
 20
-60.0109719514204
 10
-78.56303648905378
 20
-74.01097195142061
 42
-0.4142135623730951
 10
-79.06303648905384
 20
-74.51097195142061
 10
-85.06303648905381
 20
-74.51097195142061
 42
-0.4142135623730951
 10
-85.56303648905382
 20
-74.01097195142061
 10
-85.56303648905382
 20
-60.0109719514204
 42
-0.4142135623730951
 10
-85.06303648905381
 20
-59.51097195142043
 10
-79.06303648905384
 20
-59.51097195142043
 42
-0.4142135623730951
  0
LWPOLYLINE
  5
201
330
1F
100
AcDbEntity
  8
0
100
AcDbPolyline
 90
        8
 70
     1
 43
0.0
 10
-248.1000364890542
 20
-150.7109719514205
 10
-254.1000364890542
 20
-150.7109719514206
 42
-0.4142135623730951
 10
-254.6000364890542
 20
-150.2109719514206
 10
-254.6000364890542
 20
-136.2109719514206
 42
-0.4142135623730951
 10
-254.1000364890542
 20
-135.7109719514206
 10
-248.1000364890542
 20
-135.7109719514206
 42
-0.4142135623730951
 10
-247.6000364890542
 20
-136.2109719514206
 10
-247.6000364890543
 20
-150.2109719514206
 42
-0.4142135623730951
  0
LWPOLYLINE
  5
202
330
1F
100
AcDbEntity
  8
0
100
AcDbPolyline
 90
        4
 70
     1
 43
0.0
 10
-177.4250364890538
 20
-91.56097195142049
 10
-191.4250364890538
 20
-91.56097195142049
 10
-191.4250364890538
 20
-77.56097195142046
 10
-177.4250364890538
 20
-77.56097195142046
  0
LWPOLYLINE
  5
203
330
1F
100
AcDbEntity
  8
0
100
AcDbPolyline
 90
        4
 70
     1
 43
0.0
 10
-134.2750364890538
 20
-91.5609719514205
 10
-134.2750364890538
 20
-77.56097195142046
 10
-120.2750364890538
 20
-77.56097195142046
 10
-120.2750364890538
 20
-91.5609719514205
  0
LWPOLYLINE
  5
204
330
1F
100
AcDbEntity
  8
0
100
AcDbPolyline
 90
        4
 70
     1
 43
0.0
 10
-153.3250364890538
 20
-91.5609719514205
 10
-153.3250364890538
 20
-77.56097195142046
 10
-139.3250364890538
 20
-77.56097195142046
 10
-139.3250364890538
 20
-91.5609719514205
  0
LWPOLYLINE
  5
205
330
1F
100
AcDbEntity
  8
0
100
AcDbPolyline
 90
        4
 70
     1
 43
0.0
 10
-158.3750364890538
 20
-91.5609719514205
 10
-172.3750364890538
 20
-91.56097195142049
 10
-172.3750364890538
 20
-77.56097195142046
 10
-158.3750364890538
 20
-77.56097195142046
  0
LWPOLYLINE
  5
206
330
1F
100
AcDbEntity
  8
0
100
AcDbPolyline
 90
        4
 70
     1
 43
0.0
 10
-101.2250364890538
 20
-77.5609719514205
 10
-101.2250364890538
 20
-91.56097195142049
 10
-115.2250364890537
 20
-91.56097195142049
 10
-115.2250364890537
 20
-77.5609719514205
  0
LINE
  5
1027A
330
1F
100
AcDbEntity
  8
0
100
AcDbLine
 10
-0.6829752964177978
 20
-155.90881264242
 30
-0.0000005643629031
 11
53.31702470358209
 21
-155.90881264242
 31
-0.0000005643629031
  0
ARC
  5
1027B
330
1F
100
AcDbEntity
  8
0
100
AcDbCircle
 10
53.31702470358209
 20
-154.9088126424201
 30
-0.0000006848206977
 40
0.9999999999999925
210
0.0
220
0.000000000772617
230
1.0
100
AcDbArc
 50
270.0
 51
0.0
  0
LINE
  5
1027C
330
1F
100
AcDbEntity
  8
0
100
AcDbLine
 10
54.31702470358209
 20
-154.9088126424201
 30
-0.00000056513552
 11
54.31702470358209
 21
-153.40881264242
 31
-0.0000005643628997
  0
ARC
  5
1027D
330
1F
100
AcDbEntity
  8
0
100
AcDbCircle
 10
53.31702470358209
 20
-153.40881264242
 30
-0.0000006063292455
 40
1.000000000000012
210
-0.0000000007726186
220
0.0
230
1.0
100
AcDbArc
 50
0.0
 51
90.0
  0
LINE
  5
1027E
330
1F
100
AcDbEntity
  8
0
100
AcDbLine
 10
53.31702470358209
 20
-152.40881264242
 30
-0.0000005651355162
 11
44.81702470358209
 21
-152.40881264242
 31
-0.0000005643628942
  0
ARC
  5
1027F
330
1F
100
AcDbEntity
  8
0
100
AcDbCircle
 10
44.81702470358209
 20
-151.90881264242
 30
-0.0000005651355167
 40
0.4999999999999716
100
AcDbArc
 50
180.0
 51
270.0
  0
LINE
  5
10280
330
1F
100
AcDbEntity
  8
0
100
AcDbLine
 10
44.31702470358209
 20
-151.90881264242
 30
-0.0000005651355167
 11
44.31702470358209
 21
-151.4088126424205
 31
-0.000000564362993
  0
ARC
  5
10281
330
1F
100
AcDbEntity
  8
0
100
AcDbCircle
 10
44.81702470358209
 20
-151.4088126424205
 30
-0.0000005651357166
 40
0.5000000000000006
100
AcDbArc
 50
90.0
 51
180.0
  0
LINE
  5
10282
330
1F
100
AcDbEntity
  8
0
100
AcDbLine
 10
44.81702470358209
 20
-150.9088126424204
 30
-0.000000565135716
 11
53.57952470358213
 21
-150.9088126424204
 31
-0.0000005647488588
  0
ARC
  5
10283
330
1F
100
AcDbEntity
  8
0
100
AcDbCircle
 10
53.57952470358213
 20
-148.9088126424205
 30
-0.0000006230808108
 40
2.000000000000004
210
0.0
220
0.0000000003865377
230
1.0
100
AcDbArc
 50
270.0
 51
0.0
  0
LINE
  5
10284
330
1F
100
AcDbEntity
  8
0
100
AcDbLine
 10
55.57952470358213
 20
-148.9088126424205
 30
-0.0000005655219343
 11
55.57952470358213
 21
-30.93589364669759
 31
-0.0000002823751111
  0
ARC
  5
10285
330
1F
100
AcDbEntity
  8
0
100
AcDbCircle
 10
53.57952470358159
 20
-30.93589364669762
 30
0.0000075647621199
 40
1.999999999999975
210
0.0000001411875555
220
0.0
230
0.99999999999999
100
AcDbArc
 50
0.0
 51
90.0
  0
LINE
  5
10286
330
1F
100
AcDbEntity
  8
0
100
AcDbLine
 10
53.57952470358213
 20
-28.93589364669762
 30
0.0
 11
35.29202470358212
 21
-28.93589364669762
 31
0.0000000000000017
  0
ARC
  5
10287
330
1F
100
AcDbEntity
  8
0
100
AcDbCircle
 10
35.29202470358212
 20
-28.43589364669757
 30
0.0000000000000022
 40
0.4999999999999716
100
AcDbArc
 50
180.0
 51
270.0
  0
LINE
  5
10288
330
1F
100
AcDbEntity
  8
0
100
AcDbLine
 10
34.7920247035822
 20
-28.43589364669757
 30
0.0000000000000022
 11
34.7920247035822
 21
-27.98588149630663
 31
-0.0000000000000272
  0
ARC
  5
10289
330
1F
100
AcDbEntity
  8
0
100
AcDbCircle
 10
35.29202470358212
 20
-27.98588149630663
 30
-0.0000000000001371
 40
0.5000000000000071
100
AcDbArc
 50
90.0
 51
180.0
  0
LINE
  5
1028A
330
1F
100
AcDbEntity
  8
0
100
AcDbLine
 10
35.29202470358212
 20
-27.48588149630658
 30
-0.0000000000001371
 11
43.79202470358211
 21
-27.48588149630663
 31
-0.0000000000000266
  0
ARC
  5
1028B
330
1F
100
AcDbEntity
  8
0
100
AcDbCircle
 10
43.79202470358211
 20
-26.48588149630658
 30
-0.000000000000136
 40
1.000000000000012
100
AcDbArc
 50
270.0
 51
0.0
  0
LINE
  5
1028C
330
1F
100
AcDbEntity
  8
0
100
AcDbLine
 10
44.79202470358223
 20
-26.48588149630658
 30
-0.000000000000136
 11
44.79202470358223
 21
-24.98588149630663
 31
-0.0000000000000344
  0
ARC
  5
1028D
330
1F
100
AcDbEntity
  8
0
100
AcDbCircle
 10
43.79202470358211
 20
-24.98588149630663
 30
-0.0000000000001343
 40
1.000000000000012
100
AcDbArc
 50
0.0
 51
90.0
  0
LINE
  5
1028E
330
1F
100
AcDbEntity
  8
0
100
AcDbLine
 10
43.79202470358211
 20
-23.98588149630663
 30
-0.0000000000001343
 11
-10.20797529641778
 21
-23.98588149630654
 31
-0.0000000000000333
  0
ARC
  5
1028F
330
1F
100
AcDbEntity
  8
0
100
AcDbCircle
 10
-10.20797529641778
 20
-24.9858814963066
 30
-0.0000000000001338
 40
1.000000000000012
100
AcDbArc
 50
90.0
 51
180.0
  0
LINE
  5
10290
330
1F
100
AcDbEntity
  8
0
100
AcDbLine
 10
-11.20797529641788
 20
-24.9858814963066
 30
-0.0000000000001338
 11
-11.20797529641788
 21
-26.48588149630655
 31
-0.0000000000000355
  0
ARC
  5
10291
330
1F
100
AcDbEntity
  8
0
100
AcDbCircle
 10
-10.20797529641778
 20
-26.48588149630655
 30
-0.0000000000001354
 40
1.000000000000012
100
AcDbArc
 50
180.0
 51
270.0
  0
LINE
  5
10292
330
1F
100
AcDbEntity
  8
0
100
AcDbLine
 10
-10.20797529641778
 20
-27.48588149630656
 30
-0.0000000000001354
 11
-1.707975296417888
 21
-27.4858814963066
 31
-0.0000000000000366
  0
ARC
  5
10293
330
1F
100
AcDbEntity
  8
0
100
AcDbCircle
 10
-1.707975296417888
 20
-27.9858814963066
 30
-0.0000000000001371
 40
0.4999999999999716
100
AcDbArc
 50
0.0
 51
90.0
  0
LINE
  5
10294
330
1F
100
AcDbEntity
  8
0
100
AcDbLine
 10
-1.207975296417998
 20
-27.9858814963066
 30
-0.0000000000001371
 11
-1.207975296417888
 21
-28.43589364669755
 31
-0.0000000000000272
  0
ARC
  5
10295
330
1F
100
AcDbEntity
  8
0
100
AcDbCircle
 10
-1.707975296417888
 20
-28.43589364669755
 30
0.0000000000000028
 40
0.5000000000000071
100
AcDbArc
 50
270.0
 51
0.0
  0
LINE
  5
10296
330
1F
100
AcDbEntity
  8
0
100
AcDbLine
 10
-1.707975296417888
 20
-28.9358936466976
 30
0.0000000000000028
 11
-20.00197529641787
 21
-28.9358936466976
 31
0.0000000000000022
  0
ARC
  5
10297
330
1F
100
AcDbEntity
  8
0
100
AcDbCircle
 10
-20.00197529641787
 20
-30.93589364669762
 30
0.0000000000000006
 40
2.00000000000001
100
AcDbArc
 50
90.0
 51
180.0
  0
LINE
  5
10298
330
1F
100
AcDbEntity
  8
0
100
AcDbLine
 10
-22.00197529641787
 20
-30.93589364669762
 30
0.0000000000000006
 11
-22.00197529641787
 21
-55.17277550087162
 31
-0.0000000000000033
  0
LINE
  5
10299
330
1F
100
AcDbEntity
  8
0
100
AcDbLine
 10
-22.00197529641787
 20
-55.17277550087162
 30
-0.0000000000000033
 11
-21.9954752964178
 21
-55.17277550087162
 31
0.0000000000000566
  0
LINE
  5
1029A
330
1F
100
AcDbEntity
  8
0
100
AcDbLine
 10
-21.9954752964178
 20
-55.17277550087162
 30
0.0000000000000566
 11
-21.9954752964178
 21
-128.3727755008713
 31
0.0000000000000566
  0
ARC
  5
1029B
330
1F
100
AcDbEntity
  8
0
100
AcDbCircle
 10
-19.99547529641779
 20
-128.3727755008713
 30
0.000000000000106
 40
2.000000000000026
100
AcDbArc
 50
180.0
 51
270.0
  0
LINE
  5
1029C
330
1F
100
AcDbEntity
  8
0
100
AcDbLine
 10
-19.99547529641779
 20
-130.3727755008713
 30
0.0000000000001055
 11
-4.945475296417725
 21
-130.3727755008713
 31
0.0000000000000638
  0
ARC
  5
1029D
330
1F
100
AcDbEntity
  8
0
100
AcDbCircle
 10
-4.945475296417725
 20
-132.3727755008713
 30
0.0000000000001016
 40
2.000000000000026
100
AcDbArc
 50
0.0
 51
90.0
  0
LINE
  5
1029E
330
1F
100
AcDbEntity
  8
0
100
AcDbLine
 10
-2.945475296417725
 20
-132.3727755008713
 30
0.0000000000001016
 11
-2.945475296417956
 21
-148.9088126424205
 31
0.0000000000000566
  0
ARC
  5
1029F
330
1F
100
AcDbEntity
  8
0
100
AcDbCircle
 10
-0.9454752964179569
 20
-148.9088126424205
 30
0.0000000000000566
 40
2.000000000000026
100
AcDbArc
 50
180.0
 51
270.0
  0
LINE
  5
102A0
330
1F
100
AcDbEntity
  8
0
100
AcDbLine
 10
-0.9454752964179569
 20
-150.9088126424204
 30
0.0000000000000566
 11
7.817024703582198
 21
-150.9088126424204
 31
-0.0000005645560125
  0
ARC
  5
102A1
330
1F
100
AcDbEntity
  8
0
100
AcDbCircle
 10
7.817024703582198
 20
-151.4088126424205
 30
-0.0000005651357166
 40
0.4999999999999716
100
AcDbArc
 50
0.0
 51
90.0
  0
LINE
  5
102A2
330
1F
100
AcDbEntity
  8
0
100
AcDbLine
 10
8.317024703582198
 20
-151.4088126424205
 30
-0.0000005651357166
 11
8.317024703582198
 21
-151.90881264242
 31
-0.0000005643628936
  0
ARC
  5
102A3
330
1F
100
AcDbEntity
  8
0
100
AcDbCircle
 10
7.817024703582198
 20
-151.90881264242
 30
-0.0000005651355167
 40
0.5
100
AcDbArc
 50
270.0
 51
0.0
  0
LINE
  5
102A4
330
1F
100
AcDbEntity
  8
0
100
AcDbLine
 10
7.817024703582198
 20
-152.40881264242
 30
-0.0000005651355178
 11
-0.6829752964177978
 21
-152.40881264242
 31
-0.0000005643628931
  0
ARC
  5
102A5
330
1F
100
AcDbEntity
  8
0
100
AcDbCircle
 10
-0.6829752964177978
 20
-153.40881264242
 30
-0.0000004466080738
 40
0.9999999999999925
210
0.0
220
-0.0000000007726247
230
1.0
100
AcDbArc
 50
90.0
 51
180.0
  0
LINE
  5
102A6
330
1F
100
AcDbEntity
  8
0
100
AcDbLine
 10
-1.682975296417797
 20
-153.40881264242
 30
-0.0000005651355178
 11
-1.682975296417797
 21
-154.9088126424201
 31
-0.000000564362902
  0
ARC
  5
102A7
330
1F
100
AcDbEntity
  8
0
100
AcDbCircle
 10
-0.6829752964177973
 20
-154.9088126424201
 30
-0.000000565663198
 40
1.000000000000012
210
0.0000000007726175
220
0.0
230
1.0
100
AcDbArc
 50
180.0
 51
270.0
  0
LWPOLYLINE
  5
102A8
330
1F
100
AcDbEntity
  8
0
100
AcDbPolyline
 90
        4
 70
     1
 43
0.0
 10
-17.59546179965388
 20
-91.16681311977309
 10
-17.59546179965388
 20
-90.1668131197732
 10
34.50453047707106
 20
-90.1668131197732
 10
34.50453047707106
 20
-91.16681311977309
  0
LWPOLYLINE
  5
102A9
330
1F
100
AcDbEntity
  8
0
100
AcDbPolyline
 90
        4
 70
     1
 43
0.0
 10
39.55452470358205
 20
-135.8477755008714
 10
39.55452470358205
 20
-121.8477755008715
 10
53.55452470358215
 20
-121.8477755008715
 10
53.55452470358215
 20
-135.8477755008714
  0
LWPOLYLINE
  5
102AA
330
1F
100
AcDbEntity
  8
0
100
AcDbPolyline
 90
        4
 70
     1
 43
0.0
 10
34.5045247035821
 20
-112.3227755008714
 10
34.5045247035821
 20
-126.3227755008714
 10
20.50452470358209
 20
-126.3227755008714
 10
20.50452470358209
 20
-112.3227755008714
  0
LWPOLYLINE
  5
102AB
330
1F
100
AcDbEntity
  8
0
100
AcDbPolyline
 90
        4
 70
     1
 43
0.0
 10
34.5045247035821
 20
-107.2727755008714
 10
20.50452470358209
 20
-107.2727755008714
 10
20.50452470358209
 20
-93.27277550087154
 10
34.5045247035821
 20
-93.27277550087154
  0
LWPOLYLINE
  5
102AC
330
1F
100
AcDbEntity
  8
0
100
AcDbPolyline
 90
        4
 70
     1
 43
0.0
 10
34.5045247035821
 20
-88.22277550087147
 10
20.50452470358209
 20
-88.22277550087147
 10
20.50452470358209
 20
-74.22277550087144
 10
34.5045247035821
 20
-74.22277550087144
  0
LWPOLYLINE
  5
102AD
330
1F
100
AcDbEntity
  8
0
100
AcDbPolyline
 90
        4
 70
     1
 43
0.0
 10
34.5045247035821
 20
-69.17277550087146
 10
20.50452470358209
 20
-69.17277550087146
 10
20.50452470358209
 20
-55.17277550087162
 10
34.5045247035821
 20
-55.17277550087162
  0
LWPOLYLINE
  5
102AE
330
1F
100
AcDbEntity
  8
0
100
AcDbPolyline
 90
        4
 70
     1
 43
0.0
 10
20.50452470358209
 20
-131.3727755008714
 10
34.5045247035821
 20
-131.3727755008714
 10
34.5045247035821
 20
-145.3727755008714
 10
20.50452470358209
 20
-145.3727755008714
  0
LWPOLYLINE
  5
102AF
330
1F
100
AcDbEntity
  8
0
100
AcDbPolyline
 90
        4
 70
     1
 43
0.0
 10
15.45452470358213
 20
-131.3727755008714
 10
15.45452470358213
 20
-145.3727755008714
 10
1.454524703582144
 20
-145.3727755008714
 10
1.454524703582144
 20
-131.3727755008714
  0
LWPOLYLINE
  5
102B0
330
1F
100
AcDbEntity
  8
0
100
AcDbPolyline
 90
        4
 70
     1
 43
0.0
 10
-3.595475296417816
 20
-112.3227755008714
 10
-3.595475296417816
 20
-126.3227755008714
 10
-17.59547529641781
 20
-126.3227755008714
 10
-17.59547529641781
 20
-112.3227755008714
  0
LWPOLYLINE
  5
102B1
330
1F
100
AcDbEntity
  8
0
100
AcDbPolyline
 90
        4
 70
     1
 43
0.0
 10
20.50452470358209
 20
-31.36027550087162
 10
34.5045247035821
 20
-31.36027550087162
 10
34.5045247035821
 20
-45.36027550087162
 10
20.50452470358209
 20
-45.36027550087162
  0
LWPOLYLINE
  5
102B2
330
1F
100
AcDbEntity
  8
0
100
AcDbPolyline
 90
        4
 70
     1
 43
0.0
 10
15.45452470358213
 20
-88.22277550087147
 10
1.454524703582144
 20
-88.22277550087147
 10
1.454524703582144
 20
-74.22277550087144
 10
15.45452470358213
 20
-74.22277550087144
  0
LWPOLYLINE
  5
102B3
330
1F
100
AcDbEntity
  8
0
100
AcDbPolyline
 90
        4
 70
     1
 43
0.0
 10
-3.595475296417816
 20
-107.2727755008714
 10
-17.59547529641781
 20
-107.2727755008714
 10
-17.59547529641781
 20
-93.27277550087154
 10
-3.595475296417816
 20
-93.27277550087154
  0
LWPOLYLINE
  5
102B4
330
1F
100
AcDbEntity
  8
0
100
AcDbPolyline
 90
        4
 70
     1
 43
0.0
 10
1.454524703582144
 20
-45.36027550087162
 10
1.454524703582144
 20
-31.36027550087113
 10
15.45452470358213
 20
-31.36027550087113
 10
15.45452470358213
 20
-45.36027550087162
  0
LWPOLYLINE
  5
102B5
330
1F
100
AcDbEntity
  8
0
100
AcDbPolyline
 90
        4
 70
     1
 43
0.0
 10
-3.595475296417816
 20
-45.36027550087162
 10
-17.59547529641781
 20
-45.36027550087162
 10
-17.59547529641781
 20
-31.36027550087113
 10
-3.595475296417816
 20
-31.36027550087113
  0
LWPOLYLINE
  5
102B6
330
1F
100
AcDbEntity
  8
0
100
AcDbPolyline
 90
        4
 70
     1
 43
0.0
 10
-17.59547529641781
 20
-69.17277550087146
 10
-17.59547529641781
 20
-55.17277550087162
 10
-3.595475296417816
 20
-55.17277550087162
 10
-3.595475296417816
 20
-69.17277550087146
  0
LWPOLYLINE
  5
102B7
330
1F
100
AcDbEntity
  8
0
100
AcDbPolyline
 90
        4
 70
     1
 43
0.0
 10
15.45452470358213
 20
-69.17277550087149
 10
1.454524703582144
 20
-69.17277550087146
 10
1.454524703582144
 20
-55.17277550087162
 10
15.45452470358213
 20
-55.17277550087162
  0
LWPOLYLINE
  5
102B8
330
1F
100
AcDbEntity
  8
0
100
AcDbPolyline
 90
        4
 70
     1
 43
0.0
 10
-17.59547529641781
 20
-74.22277550087144
 10
-3.595475296417816
 20
-74.22277550087144
 10
-3.595475296417816
 20
-88.22277550087147
 10
-17.59547529641781
 20
-88.22277550087147
  0
LWPOLYLINE
  5
102B9
330
1F
100
AcDbEntity
  8
0
100
AcDbPolyline
 90
        4
 70
     1
 43
0.0
 10
1.454524703582144
 20
-107.2727755008714
 10
1.454524703582144
 20
-93.27277550087154
 10
15.45452470358213
 20
-93.27277550087154
 10
15.45452470358213
 20
-107.2727755008714
  0
LWPOLYLINE
  5
102BA
330
1F
100
AcDbEntity
  8
0
100
AcDbPolyline
 90
        8
 70
     1
 43
0.0
 10
37.55452470358216
 20
-143.7857755008714
 10
37.55452470358216
 20
-137.7857755008714
 42
-0.4142135623730951
 10
38.05452470358205
 20
-137.2857755008714
 10
52.05452470358217
 20
-137.2857755008714
 42
-0.4142135623730951
 10
52.55452470358216
 20
-137.7857755008714
 10
52.55452470358216
 20
-143.7857755008714
 42
-0.4142135623730951
 10
52.05452470358217
 20
-144.2857755008714
 10
38.05452470358205
 20
-144.2857755008714
 42
-0.4142135623730951
  0
LWPOLYLINE
  5
102BB
330
1F
100
AcDbEntity
  8
0
100
AcDbPolyline
 90
        8
 70
     1
 43
0.0
 10
37.55452470358216
 20
-119.9097755008716
 10
37.55452470358216
 20
-113.9097755008715
 42
-0.4142135623730951
 10
38.05452470358205
 20
-113.4097755008714
 10
52.05452470358217
 20
-113.4097755008714
 42
-0.4142135623730951
 10
52.55452470358216
 20
-113.9097755008715
 10
52.55452470358216
 20
-119.9097755008716
 42
-0.4142135623730951
 10
52.05452470358217
 20
-120.4097755008716
 10
38.05452470358205
 20
-120.4097755008716
 42
-0.4142135623730951
  0
LWPOLYLINE
  5
102BC
330
1F
100
AcDbEntity
  8
0
100
AcDbPolyline
 90
        4
 70
     1
 43
0.0
 10
53.55452470358215
 20
-83.74777550087152
 10
53.55452470358215
 20
-97.74777550087151
 10
39.55452470358205
 20
-97.74777550087151
 10
39.55452470358205
 20
-83.74777550087152
  0
LWPOLYLINE
  5
102BD
330
1F
100
AcDbEntity
  8
0
100
AcDbPolyline
 90
        8
 70
     1
 43
0.0
 10
37.55452470358216
 20
-105.6857755008714
 10
37.55452470358216
 20
-99.6857755008715
 42
-0.4142135623730951
 10
38.05452470358205
 20
-99.18577550087142
 10
52.05452470358217
 20
-99.1857755008715
 42
-0.4142135623730951
 10
52.55452470358216
 20
-99.6857755008715
 10
52.55452470358216
 20
-105.6857755008715
 42
-0.4142135623730951
 10
52.05452470358217
 20
-106.1857755008714
 10
38.05452470358205
 20
-106.1857755008714
 42
-0.4142135623730951
  0
LWPOLYLINE
  5
102BE
330
1F
100
AcDbEntity
  8
0
100
AcDbPolyline
 90
        4
 70
     1
 43
0.0
 10
39.55452470358205
 20
-31.36027550087113
 10
53.55452470358215
 20
-31.36027550087113
 10
53.55452470358215
 20
-45.36027550087162
 10
39.55452470358205
 20
-45.36027550087162
  0
LWPOLYLINE
  5
102BF
330
1F
100
AcDbEntity
  8
0
100
AcDbPolyline
 90
        4
 70
     1
 43
0.0
 10
39.55452470358205
 20
-69.17277550087146
 10
39.55452470358205
 20
-55.17277550087162
 10
53.55452470358215
 20
-55.17277550087162
 10
53.55452470358215
 20
-69.17277550087146
  0
LWPOLYLINE
  5
102C0
330
1F
100
AcDbEntity
  8
0
100
AcDbPolyline
 90
        8
 70
     1
 43
0.0
 10
37.55452470358216
 20
-81.80977550087153
 10
37.55452470358216
 20
-75.80977550087152
 42
-0.4142135623730951
 10
38.05452470358205
 20
-75.30977550087152
 10
52.05452470358217
 20
-75.30977550087157
 42
-0.4142135623730951
 10
52.55452470358216
 20
-75.80977550087152
 10
52.55452470358216
 20
-81.80977550087153
 42
-0.4142135623730951
 10
52.05452470358217
 20
-82.30977550087152
 10
38.05452470358205
 20
-82.3097755008715
 42
-0.4142135623730951
  0
LWPOLYLINE
  5
102C1
330
1F
100
AcDbEntity
  8
0
100
AcDbPolyline
 90
        4
 70
     1
 43
0.0
 10
15.45452470358213
 20
-126.3227755008714
 10
1.454524703582144
 20
-126.3227755008714
 10
1.454524703582144
 20
-112.3227755008714
 10
15.45452470358213
 20
-112.3227755008714
  0
ENDSEC
  0
SECTION
  2
OBJECTS
  0
DICTIONARY
  5
C
330
0
100
AcDbDictionary
281
     1
  3
ACAD_BACKGROUND
350
1005B
  3
ACAD_CIP_PREVIOUS_PRODUCT_INFO
350
1005A
  3
ACAD_COLOR
350
10036
  3
ACAD_DETAILVIEWSTYLE
350
10051
  3
ACAD_GROUP
350
D
  3
ACAD_LAYOUT
350
10037
  3
ACAD_MATERIAL
350
10004
  3
ACAD_MLEADERSTYLE
350
1004D
  3
ACAD_MLINESTYLE
350
17
  3
ACAD_PLOTSETTINGS
350
10054
  3
ACAD_PLOTSTYLENAME
350
10002
  3
ACAD_SCALELIST
350
1003B
  3
ACAD_SECTIONVIEWSTYLE
350
1004F
  3
ACAD_TABLESTYLE
350
10038
  3
ACAD_VISUALSTYLE
350
1001D
  3
ACDB_RECOMPOSE_DATA
350
102EF
  3
AcDbVariableDictionary
350
10061
  3
AcDsDecomposeData
350
102F5
  0
DICTIONARY
  5
102C5
330
2
100
AcDbDictionary
280
     1
281
     1
  3
ACAD_LAYERSTATES
360
102C6
  0
DICTIONARY
  5
1005F
330
50
100
AcDbDictionary
280
     1
281
     1
  3
ADSK_XREC_LAYER_RECONCILED
360
10060
  0
DICTIONARY
  5
1005B
102
{ACAD_REACTORS
330
C
102
}
330
C
100
AcDbDictionary
281
     1
  0
XRECORD
  5
1005A
102
{ACAD_REACTORS
330
C
102
}
330
C
100
AcDbXrecord
280
     1
300
ACD
300
2022
300

  0
DICTIONARY
  5
10036
102
{ACAD_REACTORS
330
C
102
}
330
C
100
AcDbDictionary
281
     1
  0
DICTIONARY
  5
10051
102
{ACAD_REACTORS
330
C
102
}
330
C
100
AcDbDictionary
281
     1
  3
Imperial24
350
10052
  0
DICTIONARY
  5
D
330
C
100
AcDbDictionary
281
     1
  0
DICTIONARY
  5
10037
102
{ACAD_REACTORS
330
C
102
}
330
C
100
AcDbDictionary
281
     1
  3
Layout1
350
10056
  3
Model
350
10055
  0
DICTIONARY
  5
10004
102
{ACAD_REACTORS
330
C
102
}
330
C
100
AcDbDictionary
281
     1
  3
ByBlock
350
1000D
  3
ByLayer
350
10005
  3
Global
350
10015
  0
DICTIONARY
  5
1004D
102
{ACAD_REACTORS
330
C
102
}
330
C
100
AcDbDictionary
281
     1
  3
Standard
350
1004E
  0
DICTIONARY
  5
17
330
C
100
AcDbDictionary
281
     1
  3
Standard
350
1003A
  0
DICTIONARY
  5
10054
102
{ACAD_REACTORS
330
C
102
}
330
C
100
AcDbDictionary
281
     1
  0
ACDBDICTIONARYWDFLT
  5
10002
102
{ACAD_REACTORS
330
C
102
}
330
C
100
AcDbDictionary
281
     1
  3
Normal
350
10003
100
AcDbDictionaryWithDefault
340
10003
  0
DICTIONARY
  5
1003B
102
{ACAD_REACTORS
330
C
102
}
330
C
100
AcDbDictionary
281
     1
  3
A0
350
1003C
  3
A1
350
1003D
  3
A2
350
1003E
  3
A3
350
1003F
  3
A4
350
10040
  3
A5
350
10041
  3
A6
350
10042
  3
A7
350
10043
  3
A8
350
10044
  3
A9
350
10045
  3
B0
350
10046
  3
B1
350
10047
  3
B2
350
10048
  3
B3
350
10049
  3
B4
350
1004A
  3
B5
350
1004B
  3
B6
350
1004C
  0
DICTIONARY
  5
1004F
102
{ACAD_REACTORS
330
C
102
}
330
C
100
AcDbDictionary
281
     1
  3
Imperial24
350
10050
  0
DICTIONARY
  5
10038
102
{ACAD_REACTORS
330
C
102
}
330
C
100
AcDbDictionary
281
     1
  3
Standard
350
10039
  0
DICTIONARY
  5
1001D
102
{ACAD_REACTORS
330
C
102
}
330
C
100
AcDbDictionary
281
     1
  3
2dWireframe
350
10023
  3
Basic
350
10022
  3
Brighten
350
10029
  3
ColorChange
350
1002D
  3
Conceptual
350
10026
  3
Dim
350
10028
  3
EdgeColorOff
350
10035
  3
Facepattern
350
1002C
  3
Flat
350
1001E
  3
FlatWithEdges
350
1001F
  3
Gouraud
350
10020
  3
GouraudWithEdges
350
10021
  3
Hidden
350
10025
  3
JitterOff
350
10033
  3
Linepattern
350
1002B
  3
OverhangOff
350
10034
  3
Realistic
350
10027
  3
Shaded
350
10032
  3
Shaded with edges
350
10031
  3
Shades of Gray
350
1002E
  3
Sketchy
350
1002F
  3
Thicken
350
1002A
  3
Wireframe
350
10024
  3
X-Ray
350
10030
  0
XRECORD
  5
102EF
102
{ACAD_REACTORS
330
C
102
}
330
C
100
AcDbXrecord
280
     1
 90
        1
330
10039
  0
DICTIONARY
  5
10061
102
{ACAD_REACTORS
330
C
102
}
330
C
100
AcDbDictionary
281
     1
  3
CANNOSCALE
350
10067
  3
CMLEADERSTYLE
350
10063
  3
CTABLESTYLE
350
10062
  3
CVIEWDETAILSTYLE
350
10064
  3
CVIEWSECTIONSTYLE
350
10065
  3
LAYEREVAL
350
10069
  3
LAYERNOTIFY
350
1006A
  3
LIGHTINGUNITS
350
10068
  3
MSLTSCALE
350
10066
  0
DICTIONARY
  5
102F5
102
{ACAD_REACTORS
330
C
102
}
330
C
100
AcDbDictionary
281
     1
  3
AcDsRecords
350
102F7
  3
AcDsSchemas
350
102F6
1001
ACAD
1070
     2
  0
DICTIONARY
  5
102C6
102
{ACAD_REACTORS
330
102C5
102
}
330
102C5
100
AcDbDictionary
281
     1
  0
XRECORD
  5
10060
102
{ACAD_REACTORS
330
1005F
102
}
330
1005F
100
AcDbXrecord
280
     1
290
     1
  0
ACDBDETAILVIEWSTYLE
  5
10052
102
{ACAD_XDICTIONARY
360
102FA
102
}
102
{ACAD_REACTORS
330
10051
102
}
330
10051
100
AcDbModelDocViewStyle
 70
     0
  3
Imperial24
290
     0
100
AcDbDetailViewStyle
 70
     0
 71
     0
 90
        3
 71
     1
340
11
 62
   256
 40
0.24
340
0
 62
   256
 40
0.24
300

 40
0.36
280
     3
 71
     2
340
0
 90
       25
 62
   256
 71
     3
340
11
 62
   256
 40
0.24
 90
        1
 40
0.75
 90
        1
300
%<\AcVar ViewType \f "%tc1">% %<\AcVar ViewDetailId>%\PSCALE %<\AcVar ViewScale \f "%sn">%
 71
     4
340
0
 90
       25
 62
   256
340
0
 90
       25
 62
   256
280
     0
  0
LAYOUT
  5
10056
102
{ACAD_REACTORS
330
10037
102
}
330
10037
100
AcDbPlotSettings
  1

  2
Canon iP110 series WS
  4

  6

 40
0.0
 41
0.0
 42
0.0
 43
0.0
 44
0.0
 45
0.0
 46
0.0
 47
0.0
 48
0.0
 49
0.0
140
0.0
141
0.0
142
1.0
143
1.0
 70
   688
 72
     0
 73
     0
 74
     5
  7

 75
    16
147
1.0
 76
     0
 77
     2
 78
   300
148
0.0
149
0.0
100
AcDbLayout
  1
Layout1
 70
     1
 71
     1
 10
0.0
 20
0.0
 11
12.0
 21
9.0
 12
0.0
 22
0.0
 32
0.0
 14
1.000000000000000E+20
 24
1.000000000000000E+20
 34
1.000000000000000E+20
 15
-1.000000000000000E+20
 25
-1.000000000000000E+20
 35
-1.000000000000000E+20
146
0.0
 13
0.0
 23
0.0
 33
0.0
 16
1.0
 26
0.0
 36
0.0
 17
0.0
 27
1.0
 37
0.0
 76
     0
330
1B
  0
LAYOUT
  5
10055
102
{ACAD_REACTORS
330
10037
102
}
330
10037
100
AcDbPlotSettings
  1

  2
Canon iP110 series WS
  4

  6

 40
0.0
 41
0.0
 42
0.0
 43
0.0
 44
0.0
 45
0.0
 46
0.0
 47
0.0
 48
0.0
 49
0.0
140
0.0
141
0.0
142
1.0
143
1.0
 70
  1712
 72
     0
 73
     0
 74
     0
  7

 75
     0
147
1.0
 76
     0
 77
     2
 78
   300
148
0.0
149
0.0
100
AcDbLayout
  1
Model
 70
     1
 71
     0
 10
0.0
 20
0.0
 11
12.0
 21
9.0
 12
0.0
 22
0.0
 32
0.0
 14
0.0
 24
0.0
 34
0.0
 15
0.0
 25
0.0
 35
0.0
146
0.0
 13
0.0
 23
0.0
 33
0.0
 16
1.0
 26
0.0
 36
0.0
 17
0.0
 27
1.0
 37
0.0
 76
     0
330
1F
331
10059
  0
MATERIAL
  5
1000D
102
{ACAD_XDICTIONARY
360
1000E
102
}
102
{ACAD_REACTORS
330
10004
102
}
330
10004
100
AcDbMaterial
  1
ByBlock
 72
     0
 43
0.0008202099737533
 43
0.0
 43
0.0
 43
0.0
 43
0.0
 43
0.0008202099737533
 43
0.0
 43
0.0
 43
0.0
 43
0.0
 43
1.0
 43
0.0
 43
0.0
 43
0.0
 43
0.0
 43
1.0
 77
     0
 47
0.0008202099737533
 47
0.0
 47
0.0
 47
0.0
 47
0.0
 47
0.0008202099737533
 47
0.0
 47
0.0
 47
0.0
 47
0.0
 47
1.0
 47
0.0
 47
0.0
 47
0.0
 47
0.0
 47
1.0
171
     0
 49
0.0008202099737533
 49
0.0
 49
0.0
 49
0.0
 49
0.0
 49
0.0008202099737533
 49
0.0
 49
0.0
 49
0.0
 49
0.0
 49
1.0
 49
0.0
 49
0.0
 49
0.0
 49
0.0
 49
1.0
175
     0
142
0.0008202099737533
142
0.0
142
0.0
142
0.0
142
0.0
142
0.0008202099737533
142
0.0
142
0.0
142
0.0
142
0.0
142
1.0
142
0.0
142
0.0
142
0.0
142
0.0
142
1.0
179
     0
144
0.0008202099737533
144
0.0
144
0.0
144
0.0
144
0.0
144
0.0008202099737533
144
0.0
144
0.0
144
0.0
144
0.0
144
1.0
144
0.0
144
0.0
144
0.0
144
0.0
144
1.0
147
0.0008202099737533
147
0.0
147
0.0
147
0.0
147
0.0
147
0.0008202099737533
147
0.0
147
0.0
147
0.0
147
0.0
147
1.0
147
0.0
147
0.0
147
0.0
147
0.0
147
1.0
  0
MATERIAL
  5
10005
102
{ACAD_XDICTIONARY
360
10006
102
}
102
{ACAD_REACTORS
330
10004
102
}
330
10004
100
AcDbMaterial
  1
ByLayer
 72
     0
 43
0.0008202099737533
 43
0.0
 43
0.0
 43
0.0
 43
0.0
 43
0.0008202099737533
 43
0.0
 43
0.0
 43
0.0
 43
0.0
 43
1.0
 43
0.0
 43
0.0
 43
0.0
 43
0.0
 43
1.0
 77
     0
 47
0.0008202099737533
 47
0.0
 47
0.0
 47
0.0
 47
0.0
 47
0.0008202099737533
 47
0.0
 47
0.0
 47
0.0
 47
0.0
 47
1.0
 47
0.0
 47
0.0
 47
0.0
 47
0.0
 47
1.0
171
     0
 49
0.0008202099737533
 49
0.0
 49
0.0
 49
0.0
 49
0.0
 49
0.0008202099737533
 49
0.0
 49
0.0
 49
0.0
 49
0.0
 49
1.0
 49
0.0
 49
0.0
 49
0.0
 49
0.0
 49
1.0
175
     0
142
0.0008202099737533
142
0.0
142
0.0
142
0.0
142
0.0
142
0.0008202099737533
142
0.0
142
0.0
142
0.0
142
0.0
142
1.0
142
0.0
142
0.0
142
0.0
142
0.0
142
1.0
179
     0
144
0.0008202099737533
144
0.0
144
0.0
144
0.0
144
0.0
144
0.0008202099737533
144
0.0
144
0.0
144
0.0
144
0.0
144
1.0
144
0.0
144
0.0
144
0.0
144
0.0
144
1.0
147
0.0008202099737533
147
0.0
147
0.0
147
0.0
147
0.0
147
0.0008202099737533
147
0.0
147
0.0
147
0.0
147
0.0
147
1.0
147
0.0
147
0.0
147
0.0
147
0.0
147
1.0
  0
MATERIAL
  5
10015
102
{ACAD_XDICTIONARY
360
10016
102
}
102
{ACAD_REACTORS
330
10004
102
}
330
10004
100
AcDbMaterial
  1
Global
 72
     0
 43
0.0008202099737533
 43
0.0
 43
0.0
 43
0.0
 43
0.0
 43
0.0008202099737533
 43
0.0
 43
0.0
 43
0.0
 43
0.0
 43
1.0
 43
0.0
 43
0.0
 43
0.0
 43
0.0
 43
1.0
 77
     0
 47
0.0008202099737533
 47
0.0
 47
0.0
 47
0.0
 47
0.0
 47
0.0008202099737533
 47
0.0
 47
0.0
 47
0.0
 47
0.0
 47
1.0
 47
0.0
 47
0.0
 47
0.0
 47
0.0
 47
1.0
171
     0
 49
0.0008202099737533
 49
0.0
 49
0.0
 49
0.0
 49
0.0
 49
0.0008202099737533
 49
0.0
 49
0.0
 49
0.0
 49
0.0
 49
1.0
 49
0.0
 49
0.0
 49
0.0
 49
0.0
 49
1.0
175
     0
142
0.0008202099737533
142
0.0
142
0.0
142
0.0
142
0.0
142
0.0008202099737533
142
0.0
142
0.0
142
0.0
142
0.0
142
1.0
142
0.0
142
0.0
142
0.0
142
0.0
142
1.0
179
     0
144
0.0008202099737533
144
0.0
144
0.0
144
0.0
144
0.0
144
0.0008202099737533
144
0.0
144
0.0
144
0.0
144
0.0
144
1.0
144
0.0
144
0.0
144
0.0
144
0.0
144
1.0
147
0.0008202099737533
147
0.0
147
0.0
147
0.0
147
0.0
147
0.0008202099737533
147
0.0
147
0.0
147
0.0
147
0.0
147
1.0
147
0.0
147
0.0
147
0.0
147
0.0
147
1.0
  0
MLEADERSTYLE
  5
1004E
102
{ACAD_REACTORS
330
1004D
102
}
330
1004D
100
AcDbMLeaderStyle
179
     2
170
     2
171
     1
172
     0
 90
        2
 40
0.0
 41
0.0
173
     1
 91
-1056964608
340
14
 92
       -2
290
     1
 42
0.09
291
     1
 43
0.36
  3
Standard
 44
0.18
300

342
11
174
     1
178
     6
175
     1
176
     0
 93
-1056964608
 45
0.18
292
     0
297
     0
 46
0.18
 94
-1056964608
 47
1.0
 49
1.0
140
1.0
293
     1
141
0.0
294
     1
177
     0
142
1.0
295
     0
296
     0
143
0.125
271
     0
272
     9
273
     9
298
     0
  0
MLINESTYLE
  5
1003A
102
{ACAD_REACTORS
330
17
102
}
330
17
100
AcDbMlineStyle
  2
STANDARD
 70
     0
  3

 62
   256
 51
90.0
 52
90.0
 71
     2
 49
0.5
 62
   256
  6
BYLAYER
 49
-0.5
 62
   256
  6
BYLAYER
  0
ACDBPLACEHOLDER
  5
10003
102
{ACAD_REACTORS
330
10002
102
}
330
10002
  0
SCALE
  5
1003C
102
{ACAD_REACTORS
330
1003B
102
}
330
1003B
100
AcDbScale
 70
     0
300
1:1
140
1.0
141
1.0
290
     1
  0
SCALE
  5
1003D
102
{ACAD_REACTORS
330
1003B
102
}
330
1003B
100
AcDbScale
 70
     0
300
1/128" = 1'-0"
140
0.0078125
141
12.0
290
     0
  0
SCALE
  5
1003E
102
{ACAD_REACTORS
330
1003B
102
}
330
1003B
100
AcDbScale
 70
     0
300
1/64" = 1'-0"
140
0.015625
141
12.0
290
     0
  0
SCALE
  5
1003F
102
{ACAD_REACTORS
330
1003B
102
}
330
1003B
100
AcDbScale
 70
     0
300
1/32" = 1'-0"
140
0.03125
141
12.0
290
     0
  0
SCALE
  5
10040
102
{ACAD_REACTORS
330
1003B
102
}
330
1003B
100
AcDbScale
 70
     0
300
1/16" = 1'-0"
140
0.0625
141
12.0
290
     0
  0
SCALE
  5
10041
102
{ACAD_REACTORS
330
1003B
102
}
330
1003B
100
AcDbScale
 70
     0
300
3/32" = 1'-0"
140
0.09375
141
12.0
290
     0
  0
SCALE
  5
10042
102
{ACAD_REACTORS
330
1003B
102
}
330
1003B
100
AcDbScale
 70
     0
300
1/8" = 1'-0"
140
0.125
141
12.0
290
     0
  0
SCALE
  5
10043
102
{ACAD_REACTORS
330
1003B
102
}
330
1003B
100
AcDbScale
 70
     0
300
3/16" = 1'-0"
140
0.1875
141
12.0
290
     0
  0
SCALE
  5
10044
102
{ACAD_REACTORS
330
1003B
102
}
330
1003B
100
AcDbScale
 70
     0
300
1/4" = 1'-0"
140
0.25
141
12.0
290
     0
  0
SCALE
  5
10045
102
{ACAD_REACTORS
330
1003B
102
}
330
1003B
100
AcDbScale
 70
     0
300
3/8" = 1'-0"
140
0.375
141
12.0
290
     0
  0
SCALE
  5
10046
102
{ACAD_REACTORS
330
1003B
102
}
330
1003B
100
AcDbScale
 70
     0
300
1/2" = 1'-0"
140
0.5
141
12.0
290
     0
  0
SCALE
  5
10047
102
{ACAD_REACTORS
330
1003B
102
}
330
1003B
100
AcDbScale
 70
     0
300
3/4" = 1'-0"
140
0.75
141
12.0
290
     0
  0
SCALE
  5
10048
102
{ACAD_REACTORS
330
1003B
102
}
330
1003B
100
AcDbScale
 70
     0
300
1" = 1'-0"
140
1.0
141
12.0
290
     0
  0
SCALE
  5
10049
102
{ACAD_REACTORS
330
1003B
102
}
330
1003B
100
AcDbScale
 70
     0
300
1-1/2" = 1'-0"
140
1.5
141
12.0
290
     0
  0
SCALE
  5
1004A
102
{ACAD_REACTORS
330
1003B
102
}
330
1003B
100
AcDbScale
 70
     0
300
3" = 1'-0"
140
3.0
141
12.0
290
     0
  0
SCALE
  5
1004B
102
{ACAD_REACTORS
330
1003B
102
}
330
1003B
100
AcDbScale
 70
     0
300
6" = 1'-0"
140
6.0
141
12.0
290
     0
  0
SCALE
  5
1004C
102
{ACAD_REACTORS
330
1003B
102
}
330
1003B
100
AcDbScale
 70
     0
300
1'-0" = 1'-0"
140
12.0
141
12.0
290
     0
  0
ACDBSECTIONVIEWSTYLE
  5
10050
102
{ACAD_XDICTIONARY
360
102F8
102
}
102
{ACAD_REACTORS
330
1004F
102
}
330
1004F
100
AcDbModelDocViewStyle
 70
     0
  3
Imperial24
290
     0
100
AcDbSectionViewStyle
 70
     0
 71
     0
 90
       78
 71
     1
340
11
 62
   256
 40
0.24
340
0
340
0
 62
   256
 40
0.24
300
I, O, Q, S, X, Z
 40
0.48
 90
        3
 40
0.18
 90
        1
 71
     2
340
0
 90
       25
 62
   256
340
0
 90
       50
 62
   256
 40
0.24
 40
0.0
 40
0.24
 71
     3
340
11
 62
   256
 40
0.24
 90
        1
 40
0.75
 90
        1
300
%<\AcVar ViewType \f "%tc1">% %<\AcVar ViewSectionStartId>%-%<\AcVar ViewSectionEndId>%\PSCALE %<\AcVar ViewScale \f "%sn">%
 71
     4
 62
   256
 62
   257
300
ANSI31
 40
1.0
 90
        0
290
     0
290
     0
 90
        6
 40
0.0
 40
1.570796326794896
 40
0.2617993877991494
 40
1.308996938995747
 40
-0.2617993877991494
 40
1.832595714594044
  0
TABLESTYLE
  5
10039
102
{ACAD_XDICTIONARY
360
102CB
102
}
102
{ACAD_REACTORS
330
10038
102
}
330
10038
100
AcDbTableStyle
280
     0
  3
Standard
 70
     0
 71
     0
 40
0.06
 41
0.06
280
     0
281
     0
  7
STANDARD
140
0.18
170
     2
 62
     0
 63
     7
283
     0
 90
      512
 91
        0
  1

274
    -2
284
     1
 64
     0
275
    -2
285
     1
 65
     0
276
    -2
286
     1
 66
     0
277
    -2
287
     1
 67
     0
278
    -2
288
     1
 68
     0
279
    -2
289
     1
 69
     0
  7
STANDARD
140
0.25
170
     5
 62
     0
 63
     7
283
     0
 90
      512
 91
        0
  1

274
    -2
284
     1
 64
     0
275
    -2
285
     1
 65
     0
276
    -2
286
     1
 66
     0
277
    -2
287
     1
 67
     0
278
    -2
288
     1
 68
     0
279
    -2
289
     1
 69
     0
  7
STANDARD
140
0.18
170
     5
 62
     0
 63
     7
283
     0
 90
      512
 91
        0
  1

274
    -2
284
     1
 64
     0
275
    -2
285
     1
 65
     0
276
    -2
286
     1
 66
     0
277
    -2
287
     1
 67
     0
278
    -2
288
     1
 68
     0
279
    -2
289
     1
 69
     0
  0
VISUALSTYLE
  5
10023
102
{ACAD_REACTORS
330
1001D
102
}
330
1001D
100
AcDbVisualStyle
  2
2dWireframe
 70
     4
177
     3
291
     0
 70
    58
 90
        0
176
     1
 90
        2
176
     1
 90
        0
176
     1
 90
        0
176
     1
 40
0.6
176
     1
 40
30.0
176
     1
 62
     7
420
 16777215
176
     1
 90
        1
176
     1
 90
        4
176
     1
 62
     7
176
     1
 62
   257
176
     1
 90
        1
176
     1
 90
        1
176
     1
 40
1.0
176
     1
 90
        0
176
     1
 62
   257
176
     1
 40
1.0
176
     1
 90
        1
176
     1
 90
        6
176
     1
 90
        2
176
     1
 62
     7
176
     1
 90
        5
176
     1
 90
        0
176
     1
 90
        0
176
     1
290
     0
176
     1
 90
        1
176
     1
 40
0.0
176
     1
 90
        0
176
     1
290
     1
176
     1
290
     1
176
     1
290
     0
176
     1
290
     0
176
     1
290
     0
176
     1
290
     0
176
     1
290
     0
176
     1
290
     0
176
     1
290
     0
176
     1
 90
       50
176
     1
 40
0.0
176
     1
 40
1.0
176
     1
 90
        0
176
     1
 62
    18
176
     1
 90
       50
176
     1
 90
        3
176
     1
 62
     5
420
      255
176
     1
290
     0
176
     1
 90
       50
176
     1
 90
       50
176
     1
 90
       50
176
     1
290
     0
176
     1
 90
       50
176
     1
 62
   256
176
     0
 40
1.0
176
     0
 90
        2
176
     1
  1
strokes_ogs.tif
176
     1
290
     0
176
     1
 40
1.0
176
     1
 40
1.0
176
     1
1001
ACAD
1000
AcDbSavedByObjectVersion
1070
     0
  0
VISUALSTYLE
  5
10022
102
{ACAD_REACTORS
330
1001D
102
}
330
1001D
100
AcDbVisualStyle
  2
Basic
 70
     7
177
     3
291
     1
 70
    58
 90
        1
176
     1
 90
        0
176
     1
 90
        1
176
     1
 90
        0
176
     1
 40
0.6
176
     1
 40
30.0
176
     1
 62
     7
420
 16777215
176
     1
 90
        0
176
     1
 90
        4
176
     1
 62
     7
176
     1
 62
   257
176
     1
 90
        1
176
     1
 90
        1
176
     1
 40
1.0
176
     1
 90
        8
176
     1
 62
     7
176
     1
 40
1.0
176
     1
 90
        1
176
     1
 90
        6
176
     1
 90
        2
176
     1
 62
     7
176
     1
 90
        5
176
     1
 90
        0
176
     1
 90
        0
176
     1
290
     0
176
     1
 90
        1
176
     1
 40
0.0
176
     1
 90
        0
176
     1
290
     0
176
     1
290
     1
176
     1
290
     1
176
     1
290
     0
176
     1
290
     0
176
     1
290
     0
176
     1
290
     0
176
     1
290
     0
176
     1
290
     0
176
     1
 90
       50
176
     1
 40
0.0
176
     1
 40
1.0
176
     1
 90
        0
176
     1
 62
    18
176
     1
 90
       50
176
     1
 90
        3
176
     1
 62
     5
420
      255
176
     1
290
     0
176
     1
 90
       50
176
     1
 90
       50
176
     1
 90
       50
176
     1
290
     0
176
     1
 90
       50
176
     1
 62
   256
176
     0
 40
1.0
176
     0
 90
        2
176
     1
  1
strokes_ogs.tif
176
     1
290
     0
176
     1
 40
1.0
176
     1
 40
1.0
176
     1
1001
ACAD
1000
AcDbSavedByObjectVersion
1070
     0
  0
VISUALSTYLE
  5
10029
102
{ACAD_REACTORS
330
1001D
102
}
330
1001D
100
AcDbVisualStyle
  2
Brighten
 70
    12
177
     3
291
     1
 70
    58
 90
        2
176
     1
 90
        2
176
     1
 90
        0
176
     1
 90
        0
176
     1
 40
0.6
176
     1
 40
30.0
176
     1
 62
     7
420
 16777215
176
     1
 90
        1
176
     1
 90
        4
176
     1
 62
     7
176
     1
 62
   257
176
     1
 90
        1
176
     1
 90
        1
176
     1
 40
1.0
176
     1
 90
        8
176
     1
 62
     7
176
     1
 40
1.0
176
     1
 90
        1
176
     1
 90
        6
176
     1
 90
        2
176
     1
 62
     7
176
     1
 90
        5
176
     1
 90
        0
176
     1
 90
        0
176
     1
290
     0
176
     1
 90
        1
176
     1
 40
50.0
176
     1
 90
        0
176
     1
290
     0
176
     1
290
     1
176
     1
290
     1
176
     1
290
     0
176
     1
290
     0
176
     1
290
     0
176
     1
290
     0
176
     1
290
     0
176
     1
290
     0
176
     1
 90
       50
176
     1
 40
0.0
176
     1
 40
1.0
176
     1
 90
        0
176
     1
 62
    18
176
     1
 90
       50
176
     1
 90
        3
176
     1
 62
     5
420
      255
176
     1
290
     0
176
     1
 90
       50
176
     1
 90
       50
176
     1
 90
       50
176
     1
290
     0
176
     1
 90
       50
176
     1
 62
   256
176
     0
 40
1.0
176
     0
 90
        2
176
     1
  1
strokes_ogs.tif
176
     1
290
     0
176
     1
 40
1.0
176
     1
 40
1.0
176
     1
1001
ACAD
1000
AcDbSavedByObjectVersion
1070
     0
  0
VISUALSTYLE
  5
1002D
102
{ACAD_REACTORS
330
1001D
102
}
330
1001D
100
AcDbVisualStyle
  2
ColorChange
 70
    16
177
     3
291
     1
 70
    58
 90
        2
176
     1
 90
        2
176
     1
 90
        3
176
     1
 90
        0
176
     1
 40
0.6
176
     1
 40
30.0
176
     1
 62
     8
420
  8421504
176
     1
 90
        1
176
     1
 90
        4
176
     1
 62
     7
176
     1
 62
   257
176
     1
 90
        1
176
     1
 90
        1
176
     1
 40
1.0
176
     1
 90
        8
176
     1
 62
     8
420
  8421504
176
     1
 40
1.0
176
     1
 90
        1
176
     1
 90
        6
176
     1
 90
        2
176
     1
 62
     7
176
     1
 90
        5
176
     1
 90
        0
176
     1
 90
        0
176
     1
290
     0
176
     1
 90
        1
176
     1
 40
0.0
176
     1
 90
        0
176
     1
290
     0
176
     1
290
     1
176
     1
290
     1
176
     1
290
     0
176
     1
290
     0
176
     1
290
     0
176
     1
290
     0
176
     1
290
     0
176
     1
290
     0
176
     1
 90
       50
176
     1
 40
0.0
176
     1
 40
1.0
176
     1
 90
        0
176
     1
 62
    18
176
     1
 90
       50
176
     1
 90
        3
176
     1
 62
     5
420
      255
176
     1
290
     0
176
     1
 90
       50
176
     1
 90
       50
176
     1
 90
       50
176
     1
290
     0
176
     1
 90
       50
176
     1
 62
   256
176
     0
 40
1.0
176
     0
 90
        2
176
     1
  1
strokes_ogs.tif
176
     1
290
     0
176
     1
 40
1.0
176
     1
 40
1.0
176
     1
1001
ACAD
1000
AcDbSavedByObjectVersion
1070
     0
  0
VISUALSTYLE
  5
10026
102
{ACAD_REACTORS
330
1001D
102
}
330
1001D
100
AcDbVisualStyle
  2
Conceptual
 70
     9
177
     3
291
     0
 70
    58
 90
        3
176
     1
 90
        2
176
     1
 90
        0
176
     1
 90
        0
176
     1
 40
0.6
176
     1
 40
30.0
176
     1
 62
     7
420
 16777215
176
     1
 90
        2
176
     1
 90
        2
176
     1
 62
     7
176
     1
 62
   257
176
     1
 90
        1
176
     1
 90
        1
176
     1
 40
179.0
176
     1
 90
        8
176
     1
 62
     7
176
     1
 40
1.0
176
     1
 90
        1
176
     1
 90
        6
176
     1
 90
        2
176
     1
 62
     7
176
     1
 90
        3
176
     1
 90
        0
176
     1
 90
        0
176
     1
290
     0
176
     1
 90
        1
176
     1
 40
0.0
176
     1
 90
        0
176
     1
290
     0
176
     1
290
     1
176
     1
290
     1
176
     1
290
     0
176
     1
290
     0
176
     1
290
     0
176
     1
290
     0
176
     1
290
     0
176
     1
290
     0
176
     1
 90
       50
176
     1
 40
0.0
176
     1
 40
1.0
176
     1
 90
        0
176
     1
 62
    18
176
     1
 90
       50
176
     1
 90
        3
176
     1
 62
     5
420
      255
176
     1
290
     0
176
     1
 90
       50
176
     1
 90
       50
176
     1
 90
       50
176
     1
290
     0
176
     1
 90
       50
176
     1
 62
   256
176
     0
 40
1.0
176
     0
 90
        2
176
     1
  1
strokes_ogs.tif
176
     1
290
     0
176
     1
 40
1.0
176
     1
 40
1.0
176
     1
1001
ACAD
1000
AcDbSavedByObjectVersion
1070
     0
  0
VISUALSTYLE
  5
10028
102
{ACAD_REACTORS
330
1001D
102
}
330
1001D
100
AcDbVisualStyle
  2
Dim
 70
    11
177
     3
291
     1
 70
    58
 90
        2
176
     1
 90
        2
176
     1
 90
        0
176
     1
 90
        0
176
     1
 40
0.6
176
     1
 40
30.0
176
     1
 62
     7
420
 16777215
176
     1
 90
        1
176
     1
 90
        4
176
     1
 62
     7
176
     1
 62
   257
176
     1
 90
        1
176
     1
 90
        1
176
     1
 40
1.0
176
     1
 90
        8
176
     1
 62
     7
176
     1
 40
1.0
176
     1
 90
        1
176
     1
 90
        6
176
     1
 90
        2
176
     1
 62
     7
176
     1
 90
        5
176
     1
 90
        0
176
     1
 90
        0
176
     1
290
     0
176
     1
 90
        1
176
     1
 40
-50.0
176
     1
 90
        0
176
     1
290
     0
176
     1
290
     1
176
     1
290
     1
176
     1
290
     0
176
     1
290
     0
176
     1
290
     0
176
     1
290
     0
176
     1
290
     0
176
     1
290
     0
176
     1
 90
       50
176
     1
 40
0.0
176
     1
 40
1.0
176
     1
 90
        0
176
     1
 62
    18
176
     1
 90
       50
176
     1
 90
        3
176
     1
 62
     5
420
      255
176
     1
290
     0
176
     1
 90
       50
176
     1
 90
       50
176
     1
 90
       50
176
     1
290
     0
176
     1
 90
       50
176
     1
 62
   256
176
     0
 40
1.0
176
     0
 90
        2
176
     1
  1
strokes_ogs.tif
176
     1
290
     0
176
     1
 40
1.0
176
     1
 40
1.0
176
     1
1001
ACAD
1000
AcDbSavedByObjectVersion
1070
     0
  0
VISUALSTYLE
  5
10035
102
{ACAD_REACTORS
330
1001D
102
}
330
1001D
100
AcDbVisualStyle
  2
EdgeColorOff
 70
    22
177
     3
291
     1
 70
    58
 90
        2
176
     0
 90
        2
176
     0
 90
        0
176
     0
 90
        0
176
     0
 40
0.6
176
     0
 40
30.0
176
     0
 62
     7
420
 16777215
176
     0
 90
        1
176
     0
 90
        4
176
     0
 62
     7
176
     0
 62
   257
176
     0
 90
        1
176
     0
 90
        1
176
     0
 40
1.0
176
     0
 90
        8
176
     2
 62
     7
176
     0
 40
1.0
176
     0
 90
        1
176
     0
 90
        6
176
     0
 90
        2
176
     0
 62
     7
176
     0
 90
        5
176
     0
 90
        0
176
     0
 90
        0
176
     0
290
     0
176
     0
 90
        1
176
     0
 40
0.0
176
     0
 90
        0
176
     0
290
     0
176
     1
290
     1
176
     1
290
     1
176
     1
290
     0
176
     1
290
     0
176
     1
290
     0
176
     1
290
     0
176
     1
290
     0
176
     1
290
     0
176
     1
 90
       50
176
     0
 40
0.0
176
     0
 40
1.0
176
     0
 90
        0
176
     0
 62
    18
176
     0
 90
       50
176
     0
 90
        3
176
     0
 62
     5
420
      255
176
     0
290
     0
176
     1
 90
       50
176
     0
 90
       50
176
     0
 90
       50
176
     0
290
     0
176
     1
 90
       50
176
     0
 62
   256
176
     0
 40
1.0
176
     0
 90
        2
176
     0
  1
strokes_ogs.tif
176
     0
290
     0
176
     1
 40
1.0
176
     0
 40
1.0
176
     0
1001
ACAD
1000
AcDbSavedByObjectVersion
1070
     0
  0
VISUALSTYLE
  5
1002C
102
{ACAD_REACTORS
330
1001D
102
}
330
1001D
100
AcDbVisualStyle
  2
Facepattern
 70
    15
177
     3
291
     1
 70
    58
 90
        2
176
     1
 90
        2
176
     1
 90
        0
176
     1
 90
        0
176
     1
 40
0.6
176
     1
 40
30.0
176
     1
 62
     7
420
 16777215
176
     1
 90
        1
176
     1
 90
        4
176
     1
 62
     7
176
     1
 62
   257
176
     1
 90
        1
176
     1
 90
        1
176
     1
 40
1.0
176
     1
 90
        8
176
     1
 62
     7
176
     1
 40
1.0
176
     1
 90
        1
176
     1
 90
        6
176
     1
 90
        2
176
     1
 62
     7
176
     1
 90
        5
176
     1
 90
        0
176
     1
 90
        0
176
     1
290
     0
176
     1
 90
        1
176
     1
 40
0.0
176
     1
 90
        0
176
     1
290
     0
176
     1
290
     1
176
     1
290
     1
176
     1
290
     0
176
     1
290
     0
176
     1
290
     0
176
     1
290
     0
176
     1
290
     0
176
     1
290
     0
176
     1
 90
       50
176
     1
 40
0.0
176
     1
 40
1.0
176
     1
 90
        0
176
     1
 62
    18
176
     1
 90
       50
176
     1
 90
        3
176
     1
 62
     5
420
      255
176
     1
290
     0
176
     1
 90
       50
176
     1
 90
       50
176
     1
 90
       50
176
     1
290
     0
176
     1
 90
       50
176
     1
 62
   256
176
     0
 40
1.0
176
     0
 90
        2
176
     1
  1
strokes_ogs.tif
176
     1
290
     0
176
     1
 40
1.0
176
     1
 40
1.0
176
     1
1001
ACAD
1000
AcDbSavedByObjectVersion
1070
     0
  0
VISUALSTYLE
  5
1001E
102
{ACAD_REACTORS
330
1001D
102
}
330
1001D
100
AcDbVisualStyle
  2
Flat
 70
     0
177
     3
291
     1
 70
    58
 90
        2
176
     1
 90
        1
176
     1
 90
        1
176
     1
 90
        2
176
     1
 40
0.6
176
     1
 40
30.0
176
     1
 62
     7
420
 16777215
176
     1
 90
        0
176
     1
 90
        0
176
     1
 62
     7
176
     1
 62
   257
176
     1
 90
        1
176
     1
 90
        1
176
     1
 40
1.0
176
     1
 90
        8
176
     1
 62
     7
176
     1
 40
1.0
176
     1
 90
        1
176
     1
 90
        6
176
     1
 90
        2
176
     1
 62
     7
176
     1
 90
        5
176
     1
 90
        0
176
     1
 90
        0
176
     1
290
     0
176
     1
 90
       13
176
     1
 40
0.0
176
     1
 90
        0
176
     1
290
     0
176
     1
290
     1
176
     1
290
     1
176
     1
290
     0
176
     1
290
     0
176
     1
290
     0
176
     1
290
     0
176
     1
290
     0
176
     1
290
     0
176
     1
 90
       50
176
     1
 40
0.0
176
     1
 40
1.0
176
     1
 90
        0
176
     1
 62
    18
176
     1
 90
       50
176
     1
 90
        3
176
     1
 62
     5
420
      255
176
     1
290
     0
176
     1
 90
       50
176
     1
 90
       50
176
     1
 90
       50
176
     1
290
     0
176
     1
 90
       50
176
     1
 62
   256
176
     0
 40
1.0
176
     0
 90
        2
176
     1
  1
strokes_ogs.tif
176
     1
290
     0
176
     1
 40
1.0
176
     1
 40
1.0
176
     1
1001
ACAD
1000
AcDbSavedByObjectVersion
1070
     0
  0
VISUALSTYLE
  5
1001F
102
{ACAD_REACTORS
330
1001D
102
}
330
1001D
100
AcDbVisualStyle
  2
FlatWithEdges
 70
     1
177
     3
291
     1
 70
    58
 90
        2
176
     1
 90
        1
176
     1
 90
        1
176
     1
 90
        2
176
     1
 40
0.6
176
     1
 40
30.0
176
     1
 62
     7
420
 16777215
176
     1
 90
        1
176
     1
 90
        0
176
     1
 62
     7
176
     1
 62
   257
176
     1
 90
        1
176
     1
 90
        1
176
     1
 40
1.0
176
     1
 90
        0
176
     1
 62
   257
176
     1
 40
1.0
176
     1
 90
        1
176
     1
 90
        6
176
     1
 90
        2
176
     1
 62
     7
176
     1
 90
        5
176
     1
 90
        0
176
     1
 90
        0
176
     1
290
     0
176
     1
 90
       13
176
     1
 40
0.0
176
     1
 90
        0
176
     1
290
     0
176
     1
290
     1
176
     1
290
     1
176
     1
290
     0
176
     1
290
     0
176
     1
290
     0
176
     1
290
     0
176
     1
290
     0
176
     1
290
     0
176
     1
 90
       50
176
     1
 40
0.0
176
     1
 40
1.0
176
     1
 90
        0
176
     1
 62
    18
176
     1
 90
       50
176
     1
 90
        3
176
     1
 62
     5
420
      255
176
     1
290
     0
176
     1
 90
       50
176
     1
 90
       50
176
     1
 90
       50
176
     1
290
     0
176
     1
 90
       50
176
     1
 62
   256
176
     0
 40
1.0
176
     0
 90
        2
176
     1
  1
strokes_ogs.tif
176
     1
290
     0
176
     1
 40
1.0
176
     1
 40
1.0
176
     1
1001
ACAD
1000
AcDbSavedByObjectVersion
1070
     0
  0
VISUALSTYLE
  5
10020
102
{ACAD_REACTORS
330
1001D
102
}
330
1001D
100
AcDbVisualStyle
  2
Gouraud
 70
     2
177
     3
291
     1
 70
    58
 90
        2
176
     1
 90
        2
176
     1
 90
        1
176
     1
 90
        2
176
     1
 40
0.6
176
     1
 40
30.0
176
     1
 62
     7
420
 16777215
176
     1
 90
        0
176
     1
 90
        0
176
     1
 62
     7
176
     1
 62
   257
176
     1
 90
        1
176
     1
 90
        1
176
     1
 40
1.0
176
     1
 90
        0
176
     1
 62
     7
176
     1
 40
1.0
176
     1
 90
        1
176
     1
 90
        6
176
     1
 90
        2
176
     1
 62
     7
176
     1
 90
        5
176
     1
 90
        0
176
     1
 90
        0
176
     1
290
     0
176
     1
 90
       13
176
     1
 40
0.0
176
     1
 90
        0
176
     1
290
     0
176
     1
290
     1
176
     1
290
     1
176
     1
290
     0
176
     1
290
     0
176
     1
290
     0
176
     1
290
     0
176
     1
290
     0
176
     1
290
     0
176
     1
 90
       50
176
     1
 40
0.0
176
     1
 40
1.0
176
     1
 90
        0
176
     1
 62
    18
176
     1
 90
       50
176
     1
 90
        3
176
     1
 62
     5
420
      255
176
     1
290
     0
176
     1
 90
       50
176
     1
 90
       50
176
     1
 90
       50
176
     1
290
     0
176
     1
 90
       50
176
     1
 62
   256
176
     0
 40
1.0
176
     0
 90
        2
176
     1
  1
strokes_ogs.tif
176
     1
290
     0
176
     1
 40
1.0
176
     1
 40
1.0
176
     1
1001
ACAD
1000
AcDbSavedByObjectVersion
1070
     0
  0
VISUALSTYLE
  5
10021
102
{ACAD_REACTORS
330
1001D
102
}
330
1001D
100
AcDbVisualStyle
  2
GouraudWithEdges
 70
     3
177
     3
291
     1
 70
    58
 90
        2
176
     1
 90
        2
176
     1
 90
        1
176
     1
 90
        2
176
     1
 40
0.6
176
     1
 40
30.0
176
     1
 62
     7
420
 16777215
176
     1
 90
        1
176
     1
 90
        0
176
     1
 62
     7
176
     1
 62
   257
176
     1
 90
        1
176
     1
 90
        1
176
     1
 40
1.0
176
     1
 90
        0
176
     1
 62
   257
176
     1
 40
1.0
176
     1
 90
        1
176
     1
 90
        6
176
     1
 90
        2
176
     1
 62
     7
176
     1
 90
        5
176
     1
 90
        0
176
     1
 90
        0
176
     1
290
     0
176
     1
 90
       13
176
     1
 40
0.0
176
     1
 90
        0
176
     1
290
     0
176
     1
290
     1
176
     1
290
     1
176
     1
290
     0
176
     1
290
     0
176
     1
290
     0
176
     1
290
     0
176
     1
290
     0
176
     1
290
     0
176
     1
 90
       50
176
     1
 40
0.0
176
     1
 40
1.0
176
     1
 90
        0
176
     1
 62
    18
176
     1
 90
       50
176
     1
 90
        3
176
     1
 62
     5
420
      255
176
     1
290
     0
176
     1
 90
       50
176
     1
 90
       50
176
     1
 90
       50
176
     1
290
     0
176
     1
 90
       50
176
     1
 62
   256
176
     0
 40
1.0
176
     0
 90
        2
176
     1
  1
strokes_ogs.tif
176
     1
290
     0
176
     1
 40
1.0
176
     1
 40
1.0
176
     1
1001
ACAD
1000
AcDbSavedByObjectVersion
1070
     0
  0
VISUALSTYLE
  5
10025
102
{ACAD_REACTORS
330
1001D
102
}
330
1001D
100
AcDbVisualStyle
  2
Hidden
 70
     6
177
     3
291
     0
 70
    58
 90
        1
176
     1
 90
        2
176
     1
 90
        2
176
     1
 90
        0
176
     1
 40
0.6
176
     1
 40
30.0
176
     1
 62
     7
420
 16777215
176
     1
 90
        2
176
     1
 90
        2
176
     1
 62
     7
176
     1
 62
   257
176
     1
 90
        2
176
     1
 90
        1
176
     1
 40
40.0
176
     1
 90
        0
176
     1
 62
   257
176
     1
 40
1.0
176
     1
 90
        1
176
     1
 90
        6
176
     1
 90
        2
176
     1
 62
     7
176
     1
 90
        3
176
     1
 90
        0
176
     1
 90
        0
176
     1
290
     0
176
     1
 90
        1
176
     1
 40
0.0
176
     1
 90
        0
176
     1
290
     0
176
     1
290
     1
176
     1
290
     1
176
     1
290
     0
176
     1
290
     0
176
     1
290
     0
176
     1
290
     0
176
     1
290
     0
176
     1
290
     0
176
     1
 90
       50
176
     1
 40
0.0
176
     1
 40
1.0
176
     1
 90
        0
176
     1
 62
    18
176
     1
 90
       50
176
     1
 90
        3
176
     1
 62
     5
420
      255
176
     1
290
     0
176
     1
 90
       50
176
     1
 90
       50
176
     1
 90
       50
176
     1
290
     0
176
     1
 90
       50
176
     1
 62
   256
176
     0
 40
1.0
176
     0
 90
        2
176
     1
  1
strokes_ogs.tif
176
     1
290
     0
176
     1
 40
1.0
176
     1
 40
1.0
176
     1
1001
ACAD
1000
AcDbSavedByObjectVersion
1070
     0
  0
VISUALSTYLE
  5
10033
102
{ACAD_REACTORS
330
1001D
102
}
330
1001D
100
AcDbVisualStyle
  2
JitterOff
 70
    20
177
     3
291
     1
 70
    58
 90
        2
176
     0
 90
        2
176
     0
 90
        0
176
     0
 90
        0
176
     0
 40
0.6
176
     0
 40
30.0
176
     0
 62
     7
420
 16777215
176
     0
 90
        1
176
     0
 90
        4
176
     0
 62
     7
176
     0
 62
   257
176
     0
 90
        1
176
     0
 90
        1
176
     0
 40
1.0
176
     0
 90
       10
176
     2
 62
     7
176
     0
 40
1.0
176
     0
 90
        1
176
     0
 90
        6
176
     0
 90
        2
176
     0
 62
     7
176
     0
 90
        5
176
     0
 90
        0
176
     0
 90
        0
176
     0
290
     0
176
     0
 90
        1
176
     0
 40
0.0
176
     0
 90
        0
176
     0
290
     0
176
     1
290
     1
176
     1
290
     1
176
     1
290
     0
176
     1
290
     0
176
     1
290
     0
176
     1
290
     0
176
     1
290
     0
176
     1
290
     0
176
     1
 90
       50
176
     0
 40
0.0
176
     0
 40
1.0
176
     0
 90
        0
176
     0
 62
    18
176
     0
 90
       50
176
     0
 90
        3
176
     0
 62
     5
420
      255
176
     0
290
     0
176
     1
 90
       50
176
     0
 90
       50
176
     0
 90
       50
176
     0
290
     0
176
     1
 90
       50
176
     0
 62
   256
176
     0
 40
1.0
176
     0
 90
        2
176
     0
  1
strokes_ogs.tif
176
     0
290
     0
176
     1
 40
1.0
176
     0
 40
1.0
176
     0
1001
ACAD
1000
AcDbSavedByObjectVersion
1070
     0
  0
VISUALSTYLE
  5
1002B
102
{ACAD_REACTORS
330
1001D
102
}
330
1001D
100
AcDbVisualStyle
  2
Linepattern
 70
    14
177
     3
291
     1
 70
    58
 90
        2
176
     1
 90
        2
176
     1
 90
        0
176
     1
 90
        0
176
     1
 40
0.6
176
     1
 40
30.0
176
     1
 62
     7
420
 16777215
176
     1
 90
        1
176
     1
 90
        4
176
     1
 62
     7
176
     1
 62
   257
176
     1
 90
        7
176
     1
 90
        7
176
     1
 40
1.0
176
     1
 90
        8
176
     1
 62
     7
176
     1
 40
1.0
176
     1
 90
        1
176
     1
 90
        6
176
     1
 90
        2
176
     1
 62
     7
176
     1
 90
        5
176
     1
 90
        0
176
     1
 90
        0
176
     1
290
     0
176
     1
 90
        1
176
     1
 40
0.0
176
     1
 90
        0
176
     1
290
     0
176
     1
290
     1
176
     1
290
     1
176
     1
290
     0
176
     1
290
     0
176
     1
290
     0
176
     1
290
     0
176
     1
290
     0
176
     1
290
     0
176
     1
 90
       50
176
     1
 40
0.0
176
     1
 40
1.0
176
     1
 90
        0
176
     1
 62
    18
176
     1
 90
       50
176
     1
 90
        3
176
     1
 62
     5
420
      255
176
     1
290
     0
176
     1
 90
       50
176
     1
 90
       50
176
     1
 90
       50
176
     1
290
     0
176
     1
 90
       50
176
     1
 62
   256
176
     0
 40
1.0
176
     0
 90
        2
176
     1
  1
strokes_ogs.tif
176
     1
290
     0
176
     1
 40
1.0
176
     1
 40
1.0
176
     1
1001
ACAD
1000
AcDbSavedByObjectVersion
1070
     0
  0
VISUALSTYLE
  5
10034
102
{ACAD_REACTORS
330
1001D
102
}
330
1001D
100
AcDbVisualStyle
  2
OverhangOff
 70
    21
177
     3
291
     1
 70
    58
 90
        2
176
     0
 90
        2
176
     0
 90
        0
176
     0
 90
        0
176
     0
 40
0.6
176
     0
 40
30.0
176
     0
 62
     7
420
 16777215
176
     0
 90
        1
176
     0
 90
        4
176
     0
 62
     7
176
     0
 62
   257
176
     0
 90
        1
176
     0
 90
        1
176
     0
 40
1.0
176
     0
 90
        9
176
     2
 62
     7
176
     0
 40
1.0
176
     0
 90
        1
176
     0
 90
        6
176
     0
 90
        2
176
     0
 62
     7
176
     0
 90
        5
176
     0
 90
        0
176
     0
 90
        0
176
     0
290
     0
176
     0
 90
        1
176
     0
 40
0.0
176
     0
 90
        0
176
     0
290
     0
176
     1
290
     1
176
     1
290
     1
176
     1
290
     0
176
     1
290
     0
176
     1
290
     0
176
     1
290
     0
176
     1
290
     0
176
     1
290
     0
176
     1
 90
       50
176
     0
 40
0.0
176
     0
 40
1.0
176
     0
 90
        0
176
     0
 62
    18
176
     0
 90
       50
176
     0
 90
        3
176
     0
 62
     5
420
      255
176
     0
290
     0
176
     1
 90
       50
176
     0
 90
       50
176
     0
 90
       50
176
     0
290
     0
176
     1
 90
       50
176
     0
 62
   256
176
     0
 40
1.0
176
     0
 90
        2
176
     0
  1
strokes_ogs.tif
176
     0
290
     0
176
     1
 40
1.0
176
     0
 40
1.0
176
     0
1001
ACAD
1000
AcDbSavedByObjectVersion
1070
     0
  0
VISUALSTYLE
  5
10027
102
{ACAD_REACTORS
330
1001D
102
}
330
1001D
100
AcDbVisualStyle
  2
Realistic
 70
     8
177
     3
291
     0
 70
    58
 90
        2
176
     1
 90
        3
176
     1
 90
        0
176
     1
 90
        2
176
     1
 40
0.6
176
     1
 40
30.0
176
     1
 62
     7
420
 16777215
176
     1
 90
        0
176
     1
 90
        0
176
     1
 62
     7
176
     1
 62
   257
176
     1
 90
        1
176
     1
 90
        1
176
     1
 40
1.0
176
     1
 90
        8
176
     1
 62
   257
176
     1
 40
1.0
176
     1
 90
        1
176
     1
 90
        6
176
     1
 90
        2
176
     1
 62
     7
176
     1
 90
        3
176
     1
 90
        0
176
     1
 90
        0
176
     1
290
     0
176
     1
 90
       13
176
     1
 40
0.0
176
     1
 90
        0
176
     1
290
     0
176
     1
290
     1
176
     1
290
     1
176
     1
290
     0
176
     1
290
     0
176
     1
290
     0
176
     1
290
     0
176
     1
290
     0
176
     1
290
     0
176
     1
 90
       50
176
     1
 40
0.0
176
     1
 40
1.0
176
     1
 90
        0
176
     1
 62
    18
176
     1
 90
       50
176
     1
 90
        3
176
     1
 62
     5
420
      255
176
     1
290
     0
176
     1
 90
       50
176
     1
 90
       50
176
     1
 90
       50
176
     1
290
     0
176
     1
 90
       50
176
     1
 62
   256
176
     0
 40
1.0
176
     0
 90
        2
176
     1
  1
strokes_ogs.tif
176
     1
290
     0
176
     1
 40
1.0
176
     1
 40
1.0
176
     1
1001
ACAD
1000
AcDbSavedByObjectVersion
1070
     0
  0
VISUALSTYLE
  5
10032
102
{ACAD_REACTORS
330
1001D
102
}
330
1001D
100
AcDbVisualStyle
  2
Shaded
 70
    27
177
     3
291
     0
 70
    58
 90
        2
176
     1
 90
        2
176
     1
 90
        1
176
     1
 90
        2
176
     1
 40
0.6
176
     1
 40
30.0
176
     1
 62
     7
420
 16777215
176
     1
 90
        0
176
     1
 90
        4
176
     1
 62
     7
176
     1
 62
   257
176
     1
 90
        1
176
     1
 90
        1
176
     1
 40
1.0
176
     1
 90
        8
176
     1
 62
   257
176
     1
 40
1.0
176
     1
 90
        1
176
     1
 90
        6
176
     1
 90
        2
176
     1
 62
     8
420
  7895160
176
     1
 90
        3
176
     1
 90
        0
176
     1
 90
        0
176
     1
290
     0
176
     1
 90
        5
176
     1
 40
0.0
176
     1
 90
        0
176
     1
290
     0
176
     1
290
     1
176
     1
290
     1
176
     1
290
     0
176
     1
290
     0
176
     1
290
     0
176
     1
290
     0
176
     1
290
     0
176
     1
290
     0
176
     1
 90
       50
176
     1
 40
0.0
176
     1
 40
1.0
176
     1
 90
        0
176
     1
 62
    18
176
     1
 90
       50
176
     1
 90
        3
176
     1
 62
     5
420
      255
176
     1
290
     0
176
     1
 90
       50
176
     1
 90
       50
176
     1
 90
       50
176
     1
290
     0
176
     1
 90
       50
176
     1
 62
   256
176
     0
 40
1.0
176
     0
 90
        2
176
     1
  1
strokes_ogs.tif
176
     1
290
     0
176
     1
 40
1.0
176
     1
 40
1.0
176
     1
1001
ACAD
1000
AcDbSavedByObjectVersion
1070
     0
  0
VISUALSTYLE
  5
10031
102
{ACAD_REACTORS
330
1001D
102
}
330
1001D
100
AcDbVisualStyle
  2
Shaded with edges
 70
    26
177
     3
291
     0
 70
    58
 90
        2
176
     1
 90
        2
176
     1
 90
        1
176
     1
 90
        2
176
     1
 40
0.6
176
     1
 40
30.0
176
     1
 62
     7
420
 16777215
176
     1
 90
        1
176
     1
 90
        2
176
     1
 62
     7
176
     1
 62
   257
176
     1
 90
        2
176
     1
 90
        1
176
     1
 40
1.0
176
     1
 90
        8
176
     1
 62
   257
176
     1
 40
1.0
176
     1
 90
        1
176
     1
 90
        6
176
     1
 90
        2
176
     1
 62
     7
176
     1
 90
        3
176
     1
 90
        0
176
     1
 90
        0
176
     1
290
     0
176
     1
 90
        5
176
     1
 40
0.0
176
     1
 90
        0
176
     1
290
     0
176
     1
290
     1
176
     1
290
     1
176
     1
290
     0
176
     1
290
     0
176
     1
290
     0
176
     1
290
     0
176
     1
290
     0
176
     1
290
     0
176
     1
 90
       50
176
     1
 40
0.0
176
     1
 40
1.0
176
     1
 90
        0
176
     1
 62
    18
176
     1
 90
       50
176
     1
 90
        3
176
     1
 62
     5
420
      255
176
     1
290
     0
176
     1
 90
       50
176
     1
 90
       50
176
     1
 90
       50
176
     1
290
     0
176
     1
 90
       50
176
     1
 62
   256
176
     0
 40
1.0
176
     0
 90
        2
176
     1
  1
strokes_ogs.tif
176
     1
290
     0
176
     1
 40
1.0
176
     1
 40
1.0
176
     1
1001
ACAD
1000
AcDbSavedByObjectVersion
1070
     0
  0
VISUALSTYLE
  5
1002E
102
{ACAD_REACTORS
330
1001D
102
}
330
1001D
100
AcDbVisualStyle
  2
Shades of Gray
 70
    23
177
     3
291
     0
 70
    58
 90
        2
176
     1
 90
        2
176
     1
 90
        3
176
     1
 90
        0
176
     1
 40
0.6
176
     1
 40
30.0
176
     1
 62
     7
420
 16777215
176
     1
 90
        2
176
     1
 90
        2
176
     1
 62
     7
176
     1
 62
     7
176
     1
 90
        1
176
     1
 90
        1
176
     1
 40
40.0
176
     1
 90
        8
176
     1
 62
     7
176
     1
 40
1.0
176
     1
 90
        1
176
     1
 90
        6
176
     1
 90
        2
176
     1
 62
     7
176
     1
 90
        3
176
     1
 90
        0
176
     1
 90
        0
176
     1
290
     0
176
     1
 90
        1
176
     1
 40
0.0
176
     1
 90
        0
176
     1
290
     0
176
     1
290
     1
176
     1
290
     1
176
     1
290
     0
176
     1
290
     0
176
     1
290
     0
176
     1
290
     0
176
     1
290
     0
176
     1
290
     0
176
     1
 90
       50
176
     1
 40
0.0
176
     1
 40
1.0
176
     1
 90
        0
176
     1
 62
    18
176
     1
 90
       50
176
     1
 90
        3
176
     1
 62
     5
420
      255
176
     1
290
     0
176
     1
 90
       50
176
     1
 90
       50
176
     1
 90
       50
176
     1
290
     0
176
     1
 90
       50
176
     1
 62
   256
176
     0
 40
1.0
176
     0
 90
        2
176
     1
  1
strokes_ogs.tif
176
     1
290
     0
176
     1
 40
1.0
176
     1
 40
1.0
176
     1
1001
ACAD
1000
AcDbSavedByObjectVersion
1070
     0
  0
VISUALSTYLE
  5
1002F
102
{ACAD_REACTORS
330
1001D
102
}
330
1001D
100
AcDbVisualStyle
  2
Sketchy
 70
    24
177
     3
291
     0
 70
    58
 90
        1
176
     1
 90
        2
176
     1
 90
        2
176
     1
 90
        0
176
     1
 40
0.6
176
     1
 40
30.0
176
     1
 62
     7
420
 16777215
176
     1
 90
        2
176
     1
 90
        2
176
     1
 62
     7
176
     1
 62
     7
176
     1
 90
        1
176
     1
 90
        1
176
     1
 40
40.0
176
     1
 90
       11
176
     1
 62
     7
176
     1
 40
1.0
176
     1
 90
        1
176
     1
 90
        6
176
     1
 90
        2
176
     1
 62
     7
176
     1
 90
        6
176
     1
 90
        0
176
     1
 90
        0
176
     1
290
     0
176
     1
 90
        1
176
     1
 40
0.0
176
     1
 90
        0
176
     1
290
     0
176
     1
290
     1
176
     1
290
     1
176
     1
290
     0
176
     1
290
     0
176
     1
290
     0
176
     1
290
     0
176
     1
290
     0
176
     1
290
     0
176
     1
 90
       50
176
     1
 40
0.0
176
     1
 40
1.0
176
     1
 90
        0
176
     1
 62
    18
176
     1
 90
       50
176
     1
 90
        3
176
     1
 62
     5
420
      255
176
     1
290
     0
176
     1
 90
       50
176
     1
 90
       50
176
     1
 90
       50
176
     1
290
     0
176
     1
 90
       50
176
     1
 62
   256
176
     0
 40
1.0
176
     0
 90
        2
176
     1
  1
strokes_ogs.tif
176
     1
290
     0
176
     1
 40
1.0
176
     1
 40
1.0
176
     1
1001
ACAD
1000
AcDbSavedByObjectVersion
1070
     0
  0
VISUALSTYLE
  5
1002A
102
{ACAD_REACTORS
330
1001D
102
}
330
1001D
100
AcDbVisualStyle
  2
Thicken
 70
    13
177
     3
291
     1
 70
    58
 90
        2
176
     1
 90
        2
176
     1
 90
        0
176
     1
 90
        0
176
     1
 40
0.6
176
     1
 40
30.0
176
     1
 62
     7
420
 16777215
176
     1
 90
        1
176
     1
 90
        4
176
     1
 62
     7
176
     1
 62
   257
176
     1
 90
        1
176
     1
 90
        1
176
     1
 40
1.0
176
     1
 90
       12
176
     1
 62
     7
176
     1
 40
1.0
176
     1
 90
        1
176
     1
 90
        6
176
     1
 90
        2
176
     1
 62
     7
176
     1
 90
        5
176
     1
 90
        0
176
     1
 90
        0
176
     1
290
     0
176
     1
 90
        1
176
     1
 40
0.0
176
     1
 90
        0
176
     1
290
     0
176
     1
290
     1
176
     1
290
     1
176
     1
290
     0
176
     1
290
     0
176
     1
290
     0
176
     1
290
     0
176
     1
290
     0
176
     1
290
     0
176
     1
 90
       50
176
     1
 40
0.0
176
     1
 40
1.0
176
     1
 90
        0
176
     1
 62
    18
176
     1
 90
       50
176
     1
 90
        3
176
     1
 62
     5
420
      255
176
     1
290
     0
176
     1
 90
       50
176
     1
 90
       50
176
     1
 90
       50
176
     1
290
     0
176
     1
 90
       50
176
     1
 62
   256
176
     0
 40
1.0
176
     0
 90
        2
176
     1
  1
strokes_ogs.tif
176
     1
290
     0
176
     1
 40
1.0
176
     1
 40
1.0
176
     1
1001
ACAD
1000
AcDbSavedByObjectVersion
1070
     0
  0
VISUALSTYLE
  5
10024
102
{ACAD_REACTORS
330
1001D
102
}
330
1001D
100
AcDbVisualStyle
  2
Wireframe
 70
     5
177
     3
291
     0
 70
    58
 90
        0
176
     1
 90
        2
176
     1
 90
        0
176
     1
 90
        0
176
     1
 40
0.6
176
     1
 40
30.0
176
     1
 62
     7
420
 16777215
176
     1
 90
        1
176
     1
 90
        4
176
     1
 62
     7
176
     1
 62
   257
176
     1
 90
        1
176
     1
 90
        1
176
     1
 40
1.0
176
     1
 90
        0
176
     1
 62
   257
176
     1
 40
1.0
176
     1
 90
        1
176
     1
 90
        6
176
     1
 90
        2
176
     1
 62
     7
176
     1
 90
        3
176
     1
 90
        0
176
     1
 90
        0
176
     1
290
     0
176
     1
 90
        1
176
     1
 40
0.0
176
     1
 90
        0
176
     1
290
     0
176
     1
290
     1
176
     1
290
     1
176
     1
290
     0
176
     1
290
     0
176
     1
290
     0
176
     1
290
     0
176
     1
290
     0
176
     1
290
     0
176
     1
 90
       50
176
     1
 40
0.0
176
     1
 40
1.0
176
     1
 90
        0
176
     1
 62
    18
176
     1
 90
       50
176
     1
 90
        3
176
     1
 62
     5
420
      255
176
     1
290
     0
176
     1
 90
       50
176
     1
 90
       50
176
     1
 90
       50
176
     1
290
     0
176
     1
 90
       50
176
     1
 62
   256
176
     0
 40
1.0
176
     0
 90
        2
176
     1
  1
strokes_ogs.tif
176
     1
290
     0
176
     1
 40
1.0
176
     1
 40
1.0
176
     1
1001
ACAD
1000
AcDbSavedByObjectVersion
1070
     0
  0
VISUALSTYLE
  5
10030
102
{ACAD_REACTORS
330
1001D
102
}
330
1001D
100
AcDbVisualStyle
  2
X-Ray
 70
    25
177
     3
291
     0
 70
    58
 90
        2
176
     1
 90
        2
176
     1
 90
        1
176
     1
 90
        1
176
     1
 40
0.5
176
     1
 40
30.0
176
     1
 62
     7
420
 16777215
176
     1
 90
        1
176
     1
 90
        0
176
     1
 62
     7
176
     1
 62
   257
176
     1
 90
        1
176
     1
 90
        1
176
     1
 40
1.0
176
     1
 90
        8
176
     1
 62
     7
176
     1
 40
1.0
176
     1
 90
        1
176
     1
 90
        6
176
     1
 90
        2
176
     1
 62
     7
176
     1
 90
        3
176
     1
 90
        0
176
     1
 90
        0
176
     1
290
     0
176
     1
 90
       13
176
     1
 40
0.0
176
     1
 90
        0
176
     1
290
     0
176
     1
290
     1
176
     1
290
     1
176
     1
290
     0
176
     1
290
     0
176
     1
290
     0
176
     1
290
     0
176
     1
290
     0
176
     1
290
     0
176
     1
 90
       50
176
     1
 40
0.0
176
     1
 40
1.0
176
     1
 90
        0
176
     1
 62
    18
176
     1
 90
       50
176
     1
 90
        3
176
     1
 62
     5
420
      255
176
     1
290
     0
176
     1
 90
       50
176
     1
 90
       50
176
     1
 90
       50
176
     1
290
     0
176
     1
 90
       50
176
     1
 62
   256
176
     0
 40
1.0
176
     0
 90
        2
176
     1
  1
strokes_ogs.tif
176
     1
290
     0
176
     1
 40
1.0
176
     1
 40
1.0
176
     1
1001
ACAD
1000
AcDbSavedByObjectVersion
1070
     0
  0
DICTIONARYVAR
  5
10067
102
{ACAD_REACTORS
330
10061
102
}
330
10061
100
DictionaryVariables
280
     0
  1
1:1
  0
DICTIONARYVAR
  5
10063
102
{ACAD_REACTORS
330
10061
102
}
330
10061
100
DictionaryVariables
280
     0
  1
STANDARD
  0
DICTIONARYVAR
  5
10062
102
{ACAD_REACTORS
330
10061
102
}
330
10061
100
DictionaryVariables
280
     0
  1
STANDARD
  0
DICTIONARYVAR
  5
10064
102
{ACAD_REACTORS
330
10061
102
}
330
10061
100
DictionaryVariables
280
     0
  1
Imperial24
  0
DICTIONARYVAR
  5
10065
102
{ACAD_REACTORS
330
10061
102
}
330
10061
100
DictionaryVariables
280
     0
  1
Imperial24
  0
DICTIONARYVAR
  5
10069
102
{ACAD_REACTORS
330
10061
102
}
330
10061
100
DictionaryVariables
280
     0
  1
1
  0
DICTIONARYVAR
  5
1006A
102
{ACAD_REACTORS
330
10061
102
}
330
10061
100
DictionaryVariables
280
     0
  1
15
  0
DICTIONARYVAR
  5
10068
102
{ACAD_REACTORS
330
10061
102
}
330
10061
100
DictionaryVariables
280
     0
  1
0
  0
DICTIONARYVAR
  5
10066
102
{ACAD_REACTORS
330
10061
102
}
330
10061
100
DictionaryVariables
280
     0
  1
0
  0
DICTIONARY
  5
102F7
102
{ACAD_REACTORS
330
102F5
102
}
330
102F5
100
AcDbDictionary
281
     1
  0
DICTIONARY
  5
102F6
102
{ACAD_REACTORS
330
102F5
102
}
330
102F5
100
AcDbDictionary
281
     1
  3
1622808157440
350
102F0
  3
1622808157456
350
102F1
  3
1622808157472
350
102F2
  3
1622808157488
350
102F3
  3
1622808157504
350
102F4
  0
DICTIONARY
  5
102FA
330
10052
100
AcDbDictionary
280
     1
281
     1
  3
ACAD_XREC_ROUNDTRIP
360
102FB
  0
DICTIONARY
  5
1000E
330
1000D
100
AcDbDictionary
280
     1
281
     1
  3
BUMPTILE
360
10010
  3
DIFFUSETILE
360
1000F
  3
OPACITYTILE
360
10013
  3
REFLECTIONTILE
360
10012
  3
REFRACTIONTILE
360
10014
  3
SPECULARTILE
360
10011
  0
DICTIONARY
  5
10006
330
10005
100
AcDbDictionary
280
     1
281
     1
  3
BUMPTILE
360
10008
  3
DIFFUSETILE
360
10007
  3
OPACITYTILE
360
1000B
  3
REFLECTIONTILE
360
1000A
  3
REFRACTIONTILE
360
1000C
  3
SPECULARTILE
360
10009
  0
DICTIONARY
  5
10016
330
10015
100
AcDbDictionary
280
     1
281
     1
  3
BUMPTILE
360
10018
  3
DIFFUSETILE
360
10017
  3
OPACITYTILE
360
1001B
  3
REFLECTIONTILE
360
1001A
  3
REFRACTIONTILE
360
1001C
  3
SPECULARTILE
360
10019
  0
DICTIONARY
  5
102F8
330
10050
100
AcDbDictionary
280
     1
281
     1
  3
ACAD_XREC_ROUNDTRIP
360
102F9
  0
DICTIONARY
  5
102CB
330
10039
100
AcDbDictionary
280
     1
281
     1
  3
ACAD_ROUNDTRIP_2008_TABLESTYLE_CELLSTYLEMAP
360
102EE
  0
XRECORD
  5
102F0
102
{ACAD_REACTORS
330
102F6
102
}
330
102F6
100
AcDbXrecord
280
     1
  1
AcDb_Thumbnail_Schema
102
{ATTRRECORD
341
102F1
  2
AcDbDs::TreatedAsObjectData
280
     1
291
     1
102
ATTRRECORD}
102
{ATTRRECORD
341
102F2
  2
AcDbDs::Legacy
280
     1
291
     1
102
ATTRRECORD}
  2
AcDbDs::ID
280
    10
 91
        8
102
{ATTRRECORD
341
102F3
  2
AcDs:Indexable
280
     1
291
     1
102
ATTRRECORD}
102
{ATTRRECORD
341
102F4
  2
AcDbDs::HandleAttribute
280
     7
282
     1
102
ATTRRECORD}
  2
Thumbnail_Data
280
    15
 91
        0
  0
XRECORD
  5
102F1
102
{ACAD_REACTORS
330
102F6
102
}
330
102F6
100
AcDbXrecord
280
     1
  1
AcDbDs::TreatedAsObjectDataSchema
  2
AcDbDs::TreatedAsObjectData
280
     1
 91
        0
  0
XRECORD
  5
102F2
102
{ACAD_REACTORS
330
102F6
102
}
330
102F6
100
AcDbXrecord
280
     1
  1
AcDbDs::LegacySchema
  2
AcDbDs::Legacy
280
     1
 91
        0
  0
XRECORD
  5
102F3
102
{ACAD_REACTORS
330
102F6
102
}
330
102F6
100
AcDbXrecord
280
     1
  1
AcDbDs::IndexedPropertySchema
  2
AcDs:Indexable
280
     1
 91
        0
  0
XRECORD
  5
102F4
102
{ACAD_REACTORS
330
102F6
102
}
330
102F6
100
AcDbXrecord
280
     1
  1
AcDbDs::HandleAttributeSchema
  2
AcDbDs::HandleAttribute
280
     7
 91
        1
284
     1
  0
XRECORD
  5
102FB
102
{ACAD_REACTORS
330
102FA
102
}
330
102FA
100
AcDbXrecord
280
     1
102
DISPLAYNAME
  1
Imperial24
102
FLAGS
 90
        0
  0
XRECORD
  5
10010
102
{ACAD_REACTORS
330
1000E
102
}
330
1000E
100
AcDbXrecord
280
     1
270
     1
271
     1
  0
XRECORD
  5
1000F
102
{ACAD_REACTORS
330
1000E
102
}
330
1000E
100
AcDbXrecord
280
     1
270
     1
271
     1
  0
XRECORD
  5
10013
102
{ACAD_REACTORS
330
1000E
102
}
330
1000E
100
AcDbXrecord
280
     1
270
     1
271
     1
  0
XRECORD
  5
10012
102
{ACAD_REACTORS
330
1000E
102
}
330
1000E
100
AcDbXrecord
280
     1
270
     1
271
     1
  0
XRECORD
  5
10014
102
{ACAD_REACTORS
330
1000E
102
}
330
1000E
100
AcDbXrecord
280
     1
270
     1
271
     1
  0
XRECORD
  5
10011
102
{ACAD_REACTORS
330
1000E
102
}
330
1000E
100
AcDbXrecord
280
     1
270
     1
271
     1
  0
XRECORD
  5
10008
102
{ACAD_REACTORS
330
10006
102
}
330
10006
100
AcDbXrecord
280
     1
270
     1
271
     1
  0
XRECORD
  5
10007
102
{ACAD_REACTORS
330
10006
102
}
330
10006
100
AcDbXrecord
280
     1
270
     1
271
     1
  0
XRECORD
  5
1000B
102
{ACAD_REACTORS
330
10006
102
}
330
10006
100
AcDbXrecord
280
     1
270
     1
271
     1
  0
XRECORD
  5
1000A
102
{ACAD_REACTORS
330
10006
102
}
330
10006
100
AcDbXrecord
280
     1
270
     1
271
     1
  0
XRECORD
  5
1000C
102
{ACAD_REACTORS
330
10006
102
}
330
10006
100
AcDbXrecord
280
     1
270
     1
271
     1
  0
XRECORD
  5
10009
102
{ACAD_REACTORS
330
10006
102
}
330
10006
100
AcDbXrecord
280
     1
270
     1
271
     1
  0
XRECORD
  5
10018
102
{ACAD_REACTORS
330
10016
102
}
330
10016
100
AcDbXrecord
280
     1
270
     1
271
     1
  0
XRECORD
  5
10017
102
{ACAD_REACTORS
330
10016
102
}
330
10016
100
AcDbXrecord
280
     1
270
     1
271
     1
  0
XRECORD
  5
1001B
102
{ACAD_REACTORS
330
10016
102
}
330
10016
100
AcDbXrecord
280
     1
270
     1
271
     1
  0
XRECORD
  5
1001A
102
{ACAD_REACTORS
330
10016
102
}
330
10016
100
AcDbXrecord
280
     1
270
     1
271
     1
  0
XRECORD
  5
1001C
102
{ACAD_REACTORS
330
10016
102
}
330
10016
100
AcDbXrecord
280
     1
270
     1
271
     1
  0
XRECORD
  5
10019
102
{ACAD_REACTORS
330
10016
102
}
330
10016
100
AcDbXrecord
280
     1
270
     1
271
     1
  0
XRECORD
  5
102F9
102
{ACAD_REACTORS
330
102F8
102
}
330
102F8
100
AcDbXrecord
280
     1
102
DISPLAYNAME
  1
Imperial24
102
FLAGS
 90
        0
  0
CELLSTYLEMAP
  5
102EE
102
{ACAD_REACTORS
330
102CB
102
}
330
102CB
100
AcDbCellStyleMap
 90
        3
300
CELLSTYLE
  1
TABLEFORMAT_BEGIN
 90
        5
170
     1
 91
        0
 92
    32768
 62
   257
 93
        1
300
CONTENTFORMAT
  1
CONTENTFORMAT_BEGIN
 90
        0
 91
        0
 92
      512
 93
        0
300

 40
0.0
140
1.0
 94
        5
 62
     0
340
11
144
0.25
309
CONTENTFORMAT_END
171
     1
301
MARGIN
  1
CELLMARGIN_BEGIN
 40
0.06
 40
0.06
 40
0.06
 40
0.06
 40
0.18
 40
0.18
309
CELLMARGIN_END
 94
        6
 95
        1
302
GRIDFORMAT
  1
GRIDFORMAT_BEGIN
 90
        0
 91
        1
 62
     0
 92
       -2
340
0
 93
        0
 40
0.045
309
GRIDFORMAT_END
 95
        2
302
GRIDFORMAT
  1
GRIDFORMAT_BEGIN
 90
        0
 91
        1
 62
     0
 92
       -2
340
0
 93
        0
 40
0.045
309
GRIDFORMAT_END
 95
        4
302
GRIDFORMAT
  1
GRIDFORMAT_BEGIN
 90
        0
 91
        1
 62
     0
 92
       -2
340
0
 93
        0
 40
0.045
309
GRIDFORMAT_END
 95
        8
302
GRIDFORMAT
  1
GRIDFORMAT_BEGIN
 90
        0
 91
        1
 62
     0
 92
       -2
340
0
 93
        0
 40
0.045
309
GRIDFORMAT_END
 95
       16
302
GRIDFORMAT
  1
GRIDFORMAT_BEGIN
 90
        0
 91
        1
 62
     0
 92
       -2
340
0
 93
        0
 40
0.045
309
GRIDFORMAT_END
 95
       32
302
GRIDFORMAT
  1
GRIDFORMAT_BEGIN
 90
        0
 91
        1
 62
     0
 92
       -2
340
0
 93
        0
 40
0.045
309
GRIDFORMAT_END
309
TABLEFORMAT_END
  1
CELLSTYLE_BEGIN
 90
        1
 91
        1
300
_TITLE
309
CELLSTYLE_END
300
CELLSTYLE
  1
TABLEFORMAT_BEGIN
 90
        5
170
     1
 91
        0
 92
        0
 62
   257
 93
        1
300
CONTENTFORMAT
  1
CONTENTFORMAT_BEGIN
 90
        0
 91
        0
 92
      512
 93
        0
300

 40
0.0
140
1.0
 94
        5
 62
     0
340
11
144
0.18
309
CONTENTFORMAT_END
171
     1
301
MARGIN
  1
CELLMARGIN_BEGIN
 40
0.06
 40
0.06
 40
0.06
 40
0.06
 40
0.18
 40
0.18
309
CELLMARGIN_END
 94
        6
 95
        1
302
GRIDFORMAT
  1
GRIDFORMAT_BEGIN
 90
        0
 91
        1
 62
     0
 92
       -2
340
0
 93
        0
 40
0.045
309
GRIDFORMAT_END
 95
        2
302
GRIDFORMAT
  1
GRIDFORMAT_BEGIN
 90
        0
 91
        1
 62
     0
 92
       -2
340
0
 93
        0
 40
0.045
309
GRIDFORMAT_END
 95
        4
302
GRIDFORMAT
  1
GRIDFORMAT_BEGIN
 90
        0
 91
        1
 62
     0
 92
       -2
340
0
 93
        0
 40
0.045
309
GRIDFORMAT_END
 95
        8
302
GRIDFORMAT
  1
GRIDFORMAT_BEGIN
 90
        0
 91
        1
 62
     0
 92
       -2
340
0
 93
        0
 40
0.045
309
GRIDFORMAT_END
 95
       16
302
GRIDFORMAT
  1
GRIDFORMAT_BEGIN
 90
        0
 91
        1
 62
     0
 92
       -2
340
0
 93
        0
 40
0.045
309
GRIDFORMAT_END
 95
       32
302
GRIDFORMAT
  1
GRIDFORMAT_BEGIN
 90
        0
 91
        1
 62
     0
 92
       -2
340
0
 93
        0
 40
0.045
309
GRIDFORMAT_END
309
TABLEFORMAT_END
  1
CELLSTYLE_BEGIN
 90
        2
 91
        1
300
_HEADER
309
CELLSTYLE_END
300
CELLSTYLE
  1
TABLEFORMAT_BEGIN
 90
        5
170
     1
 91
        0
 92
        0
 62
   257
 93
        1
300
CONTENTFORMAT
  1
CONTENTFORMAT_BEGIN
 90
        0
 91
        0
 92
      512
 93
        0
300

 40
0.0
140
1.0
 94
        2
 62
     0
340
11
144
0.18
309
CONTENTFORMAT_END
171
     1
301
MARGIN
  1
CELLMARGIN_BEGIN
 40
0.06
 40
0.06
 40
0.06
 40
0.06
 40
0.18
 40
0.18
309
CELLMARGIN_END
 94
        6
 95
        1
302
GRIDFORMAT
  1
GRIDFORMAT_BEGIN
 90
        0
 91
        1
 62
     0
 92
       -2
340
0
 93
        0
 40
0.045
309
GRIDFORMAT_END
 95
        2
302
GRIDFORMAT
  1
GRIDFORMAT_BEGIN
 90
        0
 91
        1
 62
     0
 92
       -2
340
0
 93
        0
 40
0.045
309
GRIDFORMAT_END
 95
        4
302
GRIDFORMAT
  1
GRIDFORMAT_BEGIN
 90
        0
 91
        1
 62
     0
 92
       -2
340
0
 93
        0
 40
0.045
309
GRIDFORMAT_END
 95
        8
302
GRIDFORMAT
  1
GRIDFORMAT_BEGIN
 90
        0
 91
        1
 62
     0
 92
       -2
340
0
 93
        0
 40
0.045
309
GRIDFORMAT_END
 95
       16
302
GRIDFORMAT
  1
GRIDFORMAT_BEGIN
 90
        0
 91
        1
 62
     0
 92
       -2
340
0
 93
        0
 40
0.045
309
GRIDFORMAT_END
 95
       32
302
GRIDFORMAT
  1
GRIDFORMAT_BEGIN
 90
        0
 91
        1
 62
     0
 92
       -2
340
0
 93
        0
 40
0.045
309
GRIDFORMAT_END
309
TABLEFORMAT_END
  1
CELLSTYLE_BEGIN
 90
        3
 91
        2
300
_DATA
309
CELLSTYLE_END
  0
ENDSEC
  0
SECTION
  2
ACDSDATA
 70
     2
 71
     8
  0
ACDSSCHEMA
 90
        0
  1
AcDb_Thumbnail_Schema
  2
AcDbDs::ID
280
    10
 91
        8
  2
Thumbnail_Data
280
    15
 91
        0
101
ACDSRECORD
 95
        0
 90
        1
  2
AcDbDs::TreatedAsObjectData
280
     1
291
     1
101
ACDSRECORD
 95
        0
 90
        2
  2
AcDbDs::Legacy
280
     1
291
     1
101
ACDSRECORD
  1
AcDbDs::ID
 90
        3
  2
AcDs:Indexable
280
     1
291
     1
101
ACDSRECORD
  1
AcDbDs::ID
 90
        4
  2
AcDbDs::HandleAttribute
280
     7
282
     1
  0
ACDSSCHEMA
 90
        1
  1
AcDbDs::TreatedAsObjectDataSchema
  2
AcDbDs::TreatedAsObjectData
280
     1
 91
        0
  0
ACDSSCHEMA
 90
        2
  1
AcDbDs::LegacySchema
  2
AcDbDs::Legacy
280
     1
 91
        0
  0
ACDSSCHEMA
 90
        3
  1
AcDbDs::IndexedPropertySchema
  2
AcDs:Indexable
280
     1
 91
        0
  0
ACDSSCHEMA
 90
        4
  1
AcDbDs::HandleAttributeSchema
  2
AcDbDs::HandleAttribute
280
     7
 91
        1
284
     1
  0
ACDSRECORD
 90
        0
  2
AcDbDs::ID
280
    10
320
10055
  2
Thumbnail_Data
280
    15
 94
     1469
310
89504E470D0A1A0A0000000D49484452000001000000007E0803000000FCF33F5100000300504C5445212830FFFFFF2128300000000000000000000000000000000000000000000000000000330000660000990000CC0000FF0033000033330033660033990033CC0033FF0066000066330066660066990066CC0066FF0099
310
000099330099660099990099CC0099FF00CC0000CC3300CC6600CC9900CCCC00CCFF00FF0000FF3300FF6600FF9900FFCC00FFFF3300003300333300663300993300CC3300FF3333003333333333663333993333CC3333FF3366003366333366663366993366CC3366FF3399003399333399663399993399CC3399FF33CC00
310
33CC3333CC6633CC9933CCCC33CCFF33FF0033FF3333FF6633FF9933FFCC33FFFF6600006600336600666600996600CC6600FF6633006633336633666633996633CC6633FF6666006666336666666666996666CC6666FF6699006699336699666699996699CC6699FF66CC0066CC3366CC6666CC9966CCCC66CCFF66FF0066
310
FF3366FF6666FF9966FFCC66FFFF9900009900339900669900999900CC9900FF9933009933339933669933999933CC9933FF9966009966339966669966999966CC9966FF9999009999339999669999999999CC9999FF99CC0099CC3399CC6699CC9999CCCC99CCFF99FF0099FF3399FF6699FF9999FFCC99FFFFCC0000CC00
310
33CC0066CC0099CC00CCCC00FFCC3300CC3333CC3366CC3399CC33CCCC33FFCC6600CC6633CC6666CC6699CC66CCCC66FFCC9900CC9933CC9966CC9999CC99CCCC99FFCCCC00CCCC33CCCC66CCCC99CCCCCCCCCCFFCCFF00CCFF33CCFF66CCFF99CCFFCCCCFFFFFF0000FF0033FF0066FF0099FF00CCFF00FFFF3300FF3333
310
FF3366FF3399FF33CCFF33FFFF6600FF6633FF6666FF6699FF66CCFF66FFFF9900FF9933FF9966FF9999FF99CCFF99FFFFCC00FFCC33FFCC66FFCC99FFCCCCFFCCFFFFFF00FFFF33FFFF66FFFF99FFFFCCFFFFFF0000000D0D0D1A1A1A2828283535354343435050505D5D5D6B6B6B787878868686939393A1A1A1AEAEAEBB
310
BBBBC9C9C9D6D6D6E4E4E4F1F1F1FFFFFF0000000000000000000000000000000000000000000000000000000000002E4550F1000002784944415478DAED9BCB9A83200C46F3FEEF9BFD2CA6D504034847211DCF59A89F5085DF10C2A52200000000000000000000000000000000000000000077A3A76EFDE3FA873CADF6C1
310
BDE5F6A8A3863A92438BFABBD34A05AA25E81BEA608EF7AD5F39DCC91CD7D4FF7D7548E9DFD05E0E73A1F904309F472B1F34B2D5205323836BF9E904D8BECF66091216D127B7538B8ABD3D80A6B4805705B6635D00A90B205AF95524402A27E80490960072950043F1D17FB4806C0214CEEE609D127BC576AABFEF429D6C02
310
184368B7C1BFA4DAB765F301D3DF96AD1778BC0051936DB4E6CF92F20742DE6937FCF940D2D6057C431C3053809471C06A0B789600B591C6139C60D6C1D02D6F0F9E98D7023AA16C70EADB82F3ED3D0B582A803B9F6CF927BCC1FEC813DDE0D240688900A1956001F880C5BD805EC277F5029BB1AAE8D8176E258593E66987
310
C3DA9FF51D0D078FBE256D13B84B003193A9A9C702F305C8372798C0021238C1F6ACEFB01354535349BD3264AEF4AA47AA5F154DEE04BD095E30128EA202CD2C806BAD17CC85EC2BE19B07D8638D844D60A20076113ECD58609600690743D3059068F0B95A80BDC3BAC2098ABB760268D1E764E905A428DE15A36CFF4CAB87
310
268B038A1ED04E651C3589BF94EBECCDD521EBEE0B3309509CCD3CFE313CD7306677E19E39D442844367B03414BE5980D8676AF5210F1140AA3B0A53F9804080D80748D507D42CA0BB0B73F69CE0A919D3DAAED86AD9635FA789368C771B5E23C3A91287618324FACB80C61B7E7D60A4D58A89B4067F95EDD3928AA840AF59
310
E26D6DBBD2F397CECC4C899B41D04786B3746D64DBD0D76A9CE1078EDDC363FF1B02000000000000000000000000000000B3F901366A4FABCF45ADA40000000049454E44AE426082
  0
ENDSEC
  0
EOF
