  0
SECTION
  2
HEADER
  9
$ACADVER
  1
AC1027
  9
$ACADMAINTVER
 70
   125
  9
$DWGCODEPAGE
  3
ANSI_1252
  9
$LASTSAVEDBY
  1
zz000
  9
$REQUIREDVERSIONS
160
                 0
  9
$INSBASE
 10
0.0
 20
0.0
 30
0.0
  9
$EXTMIN
 10
-525.7575425576106
 20
-143.3192497819032
 30
-0.0000007439996141
  9
$EXTMAX
 10
5.77927096839458
 20
17.26972441435589
 30
0.0000008273125751
  9
$LIMMIN
 10
0.0
 20
0.0
  9
$LIMMAX
 10
12.0
 20
9.0
  9
$ORTHOMODE
 70
     0
  9
$REGENMODE
 70
     1
  9
$FILLMODE
 70
     1
  9
$QTEXTMODE
 70
     0
  9
$MIRRTEXT
 70
     0
  9
$LTSCALE
 40
1.0
  9
$ATTMODE
 70
     1
  9
$TEXTSIZE
 40
0.2
  9
$TRACEWID
 40
0.05
  9
$TEXTSTYLE
  7
STANDARD
  9
$CLAYER
  8
0
  9
$CELTYPE
  6
Continuous
  9
$CECOLOR
 62
   256
  9
$CELTSCALE
 40
1.0
  9
$DISPSILH
 70
     0
  9
$DIMSCALE
 40
1.0
  9
$DIMASZ
 40
0.18
  9
$DIMEXO
 40
0.0625
  9
$DIMDLI
 40
0.38
  9
$DIMRND
 40
0.0
  9
$DIMDLE
 40
0.0
  9
$DIMEXE
 40
0.18
  9
$DIMTP
 40
0.0
  9
$DIMTM
 40
0.0
  9
$DIMTXT
 40
0.18
  9
$DIMCEN
 40
0.09
  9
$DIMTSZ
 40
0.0
  9
$DIMTOL
 70
     0
  9
$DIMLIM
 70
     0
  9
$DIMTIH
 70
     1
  9
$DIMTOH
 70
     1
  9
$DIMSE1
 70
     0
  9
$DIMSE2
 70
     0
  9
$DIMTAD
 70
     0
  9
$DIMZIN
 70
     0
  9
$DIMBLK
  1

  9
$DIMASO
 70
     1
  9
$DIMSHO
 70
     1
  9
$DIMPOST
  1

  9
$DIMAPOST
  1

  9
$DIMALT
 70
     0
  9
$DIMALTD
 70
     2
  9
$DIMALTF
 40
25.4
  9
$DIMLFAC
 40
1.0
  9
$DIMTOFL
 70
     0
  9
$DIMTVP
 40
0.0
  9
$DIMTIX
 70
     0
  9
$DIMSOXD
 70
     0
  9
$DIMSAH
 70
     0
  9
$DIMBLK1
  1

  9
$DIMBLK2
  1

  9
$DIMSTYLE
  2
Standard
  9
$DIMCLRD
 70
     0
  9
$DIMCLRE
 70
     0
  9
$DIMCLRT
 70
     0
  9
$DIMTFAC
 40
1.0
  9
$DIMGAP
 40
0.09
  9
$DIMJUST
 70
     0
  9
$DIMSD1
 70
     0
  9
$DIMSD2
 70
     0
  9
$DIMTOLJ
 70
     1
  9
$DIMTZIN
 70
     0
  9
$DIMALTZ
 70
     0
  9
$DIMALTTZ
 70
     0
  9
$DIMUPT
 70
     0
  9
$DIMDEC
 70
     4
  9
$DIMTDEC
 70
     4
  9
$DIMALTU
 70
     2
  9
$DIMALTTD
 70
     2
  9
$DIMTXSTY
  7
STANDARD
  9
$DIMAUNIT
 70
     0
  9
$DIMADEC
 70
     0
  9
$DIMALTRND
 40
0.0
  9
$DIMAZIN
 70
     0
  9
$DIMDSEP
 70
    46
  9
$DIMATFIT
 70
     3
  9
$DIMFRAC
 70
     0
  9
$DIMLDRBLK
  1

  9
$DIMLUNIT
 70
     2
  9
$DIMLWD
 70
    -2
  9
$DIMLWE
 70
    -2
  9
$DIMTMOVE
 70
     0
  9
$DIMFXL
 40
1.0
  9
$DIMFXLON
 70
     0
  9
$DIMJOGANG
 40
0.7853981633974483
  9
$DIMTFILL
 70
     0
  9
$DIMTFILLCLR
 70
     0
  9
$DIMARCSYM
 70
     0
  9
$DIMLTYPE
  6

  9
$DIMLTEX1
  6

  9
$DIMLTEX2
  6

  9
$DIMTXTDIRECTION
 70
     0
  9
$LUNITS
 70
     2
  9
$LUPREC
 70
     4
  9
$SKETCHINC
 40
0.1
  9
$FILLETRAD
 40
0.0
  9
$AUNITS
 70
     0
  9
$AUPREC
 70
     0
  9
$MENU
  1
.
  9
$ELEVATION
 40
0.0
  9
$PELEVATION
 40
0.0
  9
$THICKNESS
 40
0.0
  9
$LIMCHECK
 70
     0
  9
$CHAMFERA
 40
0.0
  9
$CHAMFERB
 40
0.0
  9
$CHAMFERC
 40
0.0
  9
$CHAMFERD
 40
0.0
  9
$SKPOLY
 70
     0
  9
$TDCREATE
 40
2459828.813530093
  9
$TDUCREATE
 40
2459829.105196759
  9
$TDUPDATE
 40
2459828.813935185
  9
$TDUUPDATE
 40
2459829.105601852
  9
$TDINDWG
 40
0.0004050926
  9
$TDUSRTIMER
 40
0.0004050926
  9
$USRTIMER
 70
     1
  9
$ANGBASE
 50
0.0
  9
$ANGDIR
 70
     0
  9
$PDMODE
 70
     0
  9
$PDSIZE
 40
0.0
  9
$PLINEWID
 40
0.0
  9
$SPLFRAME
 70
     0
  9
$SPLINETYPE
 70
     6
  9
$SPLINESEGS
 70
     8
  9
$HANDSEED
  5
10072
  9
$SURFTAB1
 70
     6
  9
$SURFTAB2
 70
     6
  9
$SURFTYPE
 70
     6
  9
$SURFU
 70
     6
  9
$SURFV
 70
     6
  9
$UCSBASE
  2

  9
$UCSNAME
  2

  9
$UCSORG
 10
0.0
 20
0.0
 30
0.0
  9
$UCSXDIR
 10
1.0
 20
0.0
 30
0.0
  9
$UCSYDIR
 10
0.0
 20
1.0
 30
0.0
  9
$UCSORTHOREF
  2

  9
$UCSORTHOVIEW
 70
     0
  9
$UCSORGTOP
 10
0.0
 20
0.0
 30
0.0
  9
$UCSORGBOTTOM
 10
0.0
 20
0.0
 30
0.0
  9
$UCSORGLEFT
 10
0.0
 20
0.0
 30
0.0
  9
$UCSORGRIGHT
 10
0.0
 20
0.0
 30
0.0
  9
$UCSORGFRONT
 10
0.0
 20
0.0
 30
0.0
  9
$UCSORGBACK
 10
0.0
 20
0.0
 30
0.0
  9
$PUCSBASE
  2

  9
$PUCSNAME
  2

  9
$PUCSORG
 10
0.0
 20
0.0
 30
0.0
  9
$PUCSXDIR
 10
1.0
 20
0.0
 30
0.0
  9
$PUCSYDIR
 10
0.0
 20
1.0
 30
0.0
  9
$PUCSORTHOREF
  2

  9
$PUCSORTHOVIEW
 70
     0
  9
$PUCSORGTOP
 10
0.0
 20
0.0
 30
0.0
  9
$PUCSORGBOTTOM
 10
0.0
 20
0.0
 30
0.0
  9
$PUCSORGLEFT
 10
0.0
 20
0.0
 30
0.0
  9
$PUCSORGRIGHT
 10
0.0
 20
0.0
 30
0.0
  9
$PUCSORGFRONT
 10
0.0
 20
0.0
 30
0.0
  9
$PUCSORGBACK
 10
0.0
 20
0.0
 30
0.0
  9
$USERI1
 70
     0
  9
$USERI2
 70
     0
  9
$USERI3
 70
     0
  9
$USERI4
 70
     0
  9
$USERI5
 70
     0
  9
$USERR1
 40
0.0
  9
$USERR2
 40
0.0
  9
$USERR3
 40
0.0
  9
$USERR4
 40
0.0
  9
$USERR5
 40
0.0
  9
$WORLDVIEW
 70
     1
  9
$SHADEDGE
 70
     3
  9
$SHADEDIF
 70
    70
  9
$TILEMODE
 70
     1
  9
$MAXACTVP
 70
    64
  9
$PINSBASE
 10
0.0
 20
0.0
 30
0.0
  9
$PLIMCHECK
 70
     0
  9
$PEXTMIN
 10
1.000000000000000E+20
 20
1.000000000000000E+20
 30
1.000000000000000E+20
  9
$PEXTMAX
 10
-1.000000000000000E+20
 20
-1.000000000000000E+20
 30
-1.000000000000000E+20
  9
$PLIMMIN
 10
0.0
 20
0.0
  9
$PLIMMAX
 10
12.0
 20
9.0
  9
$UNITMODE
 70
     0
  9
$VISRETAIN
 70
     1
  9
$PLINEGEN
 70
     0
  9
$PSLTSCALE
 70
     1
  9
$TREEDEPTH
 70
  3020
  9
$CMLSTYLE
  2
Standard
  9
$CMLJUST
 70
     0
  9
$CMLSCALE
 40
1.0
  9
$PROXYGRAPHICS
 70
     1
  9
$MEASUREMENT
 70
     0
  9
$CELWEIGHT
370
    -1
  9
$ENDCAPS
280
     0
  9
$JOINSTYLE
280
     0
  9
$LWDISPLAY
290
     0
  9
$INSUNITS
 70
     4
  9
$HYPERLINKBASE
  1

  9
$STYLESHEET
  1

  9
$XEDIT
290
     1
  9
$CEPSNTYPE
380
     0
  9
$PSTYLEMODE
290
     1
  9
$FINGERPRINTGUID
  2
{DA3618E8-2565-CA4C-A229-ABA4F7228243}
  9
$VERSIONGUID
  2
{7928E383-2327-4A45-B66A-D1433064AD5C}
  9
$EXTNAMES
290
     1
  9
$PSVPSCALE
 40
0.0
  9
$OLESTARTUP
290
     0
  9
$SORTENTS
280
   127
  9
$INDEXCTL
280
     0
  9
$HIDETEXT
280
     0
  9
$XCLIPFRAME
280
     2
  9
$HALOGAP
280
     0
  9
$OBSCOLOR
 70
   257
  9
$OBSLTYPE
280
     0
  9
$INTERSECTIONDISPLAY
280
     0
  9
$INTERSECTIONCOLOR
 70
   257
  9
$DIMASSOC
280
     1
  9
$PROJECTNAME
  1

  9
$CAMERADISPLAY
290
     0
  9
$LENSLENGTH
 40
50.0
  9
$CAMERAHEIGHT
 40
0.0
  9
$STEPSPERSEC
 40
2.0
  9
$STEPSIZE
 40
6.0
  9
$3DDWFPREC
 40
2.0
  9
$PSOLWIDTH
 40
0.25
  9
$PSOLHEIGHT
 40
4.0
  9
$LOFTANG1
 40
1.570796326794896
  9
$LOFTANG2
 40
1.570796326794896
  9
$LOFTMAG1
 40
0.0
  9
$LOFTMAG2
 40
0.0
  9
$LOFTPARAM
 70
     7
  9
$LOFTNORMALS
280
     1
  9
$LATITUDE
 40
37.795
  9
$LONGITUDE
 40
-122.394
  9
$NORTHDIRECTION
 40
0.0
  9
$TIMEZONE
 70
 -8000
  9
$LIGHTGLYPHDISPLAY
280
     1
  9
$TILEMODELIGHTSYNCH
280
     1
  9
$CMATERIAL
347
10005
  9
$SOLIDHIST
280
     0
  9
$SHOWHIST
280
     1
  9
$DWFFRAME
280
     2
  9
$DGNFRAME
280
     0
  9
$REALWORLDSCALE
290
     1
  9
$INTERFERECOLOR
 62
     1
  9
$INTERFEREOBJVS
345
10027
  9
$INTERFEREVPVS
346
10024
  9
$CSHADOW
280
     0
  9
$SHADOWPLANELOCATION
 40
0.0
  0
ENDSEC
  0
SECTION
  2
CLASSES
  0
CLASS
  1
ACDBDICTIONARYWDFLT
  2
AcDbDictionaryWithDefault
  3
ObjectDBX Classes
 90
        0
 91
        1
280
     0
281
     0
  0
CLASS
  1
MATERIAL
  2
AcDbMaterial
  3
ObjectDBX Classes
 90
     1153
 91
        3
280
     0
281
     0
  0
CLASS
  1
VISUALSTYLE
  2
AcDbVisualStyle
  3
ObjectDBX Classes
 90
     4095
 91
       24
280
     0
281
     0
  0
CLASS
  1
TABLESTYLE
  2
AcDbTableStyle
  3
ObjectDBX Classes
 90
     4095
 91
        1
280
     0
281
     0
  0
CLASS
  1
SCALE
  2
AcDbScale
  3
ObjectDBX Classes
 90
     1153
 91
       17
280
     0
281
     0
  0
CLASS
  1
MLEADERSTYLE
  2
AcDbMLeaderStyle
  3
ACDB_MLEADERSTYLE_CLASS
 90
     4095
 91
        1
280
     0
281
     0
  0
CLASS
  1
ACDBSECTIONVIEWSTYLE
  2
AcDbSectionViewStyle
  3
ObjectDBX Classes
 90
     1025
 91
        1
280
     0
281
     0
  0
CLASS
  1
ACDBDETAILVIEWSTYLE
  2
AcDbDetailViewStyle
  3
ObjectDBX Classes
 90
     1025
 91
        1
280
     0
281
     0
  0
CLASS
  1
SOLID_BACKGROUND
  2
AcDbSolidBackground
  3
SCENEOE
 90
     4095
 91
        1
280
     0
281
     0
  0
CLASS
  1
NPOCOLLECTION
  2
AcDbImpNonPersistentObjectsCollection
  3
ObjectDBX Classes
 90
     1153
 91
        1
280
     0
281
     0
  0
CLASS
  1
GROUND_PLANE_BACKGROUND
  2
AcDbGroundPlaneBackground
  3
SCENEOE
 90
     4095
 91
        1
280
     0
281
     0
  0
CLASS
  1
DICTIONARYVAR
  2
AcDbDictionaryVar
  3
ObjectDBX Classes
 90
        0
 91
        9
280
     0
281
     0
  0
CLASS
  1
CELLSTYLEMAP
  2
AcDbCellStyleMap
  3
ObjectDBX Classes
 90
     1152
 91
        1
280
     0
281
     0
  0
ENDSEC
  0
SECTION
  2
TABLES
  0
TABLE
  2
VPORT
  5
8
330
0
100
AcDbSymbolTable
 70
     1
1001
ACAD
1000
DbSaveVer
1071
      247
  0
VPORT
  5
10059
330
8
100
AcDbSymbolTableRecord
100
AcDbViewportTableRecord
  2
*Active
 70
     0
 10
0.0
 20
0.0
 11
1.0
 21
1.0
 12
0.0
 22
0.0
 13
0.0
 23
0.0
 14
1.0
 24
1.0
 15
0.0
 25
0.0
 16
-0.0000000000002558
 26
0.0
 36
1157.229575176831
 17
-194.9832282066345
 27
-64.91070741415024
 37
0.0000000416564774
 40
423.1365897273803
 41
2.025141930251419
 42
50.0
 43
0.0
 44
0.0
 50
0.0
 51
0.0
 71
     0
 72
  1000
 73
     1
 74
     3
 75
     0
 76
     0
 77
     0
 78
     0
281
     0
 65
     1
110
0.0
120
0.0
130
0.0
111
1.0
121
0.0
131
0.0
112
0.0
122
1.0
132
0.0
 79
     0
146
0.0
348
10023
 60
     3
 61
     5
292
     1
282
     1
141
0.0
142
0.0
 63
   250
421
  3355443
1001
ACAD_NAV_VCDISPLAY
1070
     3
  0
ENDTAB
  0
TABLE
  2
LTYPE
  5
5
330
0
100
AcDbSymbolTable
 70
     1
  0
LTYPE
  5
14
330
5
100
AcDbSymbolTableRecord
100
AcDbLinetypeTableRecord
  2
BYBLOCK
 70
     0
  3

 72
    65
 73
     0
 40
0.0
  0
LTYPE
  5
15
330
5
100
AcDbSymbolTableRecord
100
AcDbLinetypeTableRecord
  2
BYLAYER
 70
     0
  3

 72
    65
 73
     0
 40
0.0
  0
LTYPE
  5
10001
330
5
100
AcDbSymbolTableRecord
100
AcDbLinetypeTableRecord
  2
Continuous
 70
     0
  3
Solid line
 72
    65
 73
     0
 40
0.0
  0
ENDTAB
  0
TABLE
  2
LAYER
  5
2
330
0
100
AcDbSymbolTable
 70
     1
  0
LAYER
  5
50
102
{ACAD_XDICTIONARY
360
1005F
102
}
330
2
100
AcDbSymbolTableRecord
100
AcDbLayerTableRecord
  2
0
 70
     0
 62
     7
  6
Continuous
370
    -3
390
10003
347
10015
348
0
  0
ENDTAB
  0
TABLE
  2
STYLE
  5
3
330
0
100
AcDbSymbolTable
 70
     1
  0
STYLE
  5
11
330
3
100
AcDbSymbolTableRecord
100
AcDbTextStyleTableRecord
  2
STANDARD
 70
     0
 40
0.0
 41
1.0
 50
0.0
 71
     0
 42
0.2
  3

  4

  0
ENDTAB
  0
TABLE
  2
VIEW
  5
6
330
0
100
AcDbSymbolTable
 70
     0
  0
ENDTAB
  0
TABLE
  2
UCS
  5
7
330
0
100
AcDbSymbolTable
 70
     0
  0
ENDTAB
  0
TABLE
  2
APPID
  5
9
330
0
100
AcDbSymbolTable
 70
     2
  0
APPID
  5
12
330
9
100
AcDbSymbolTableRecord
100
AcDbRegAppTableRecord
  2
ACAD
 70
     0
  0
APPID
  5
10058
330
9
100
AcDbSymbolTableRecord
100
AcDbRegAppTableRecord
  2
ACAD_NAV_VCDISPLAY
 70
     0
  0
ENDTAB
  0
TABLE
  2
DIMSTYLE
  5
A
330
0
100
AcDbSymbolTable
 70
     1
100
AcDbDimStyleTable
 71
     0
  0
DIMSTYLE
105
10053
330
A
100
AcDbSymbolTableRecord
100
AcDbDimStyleTableRecord
  2
Standard
 70
     0
340
11
  0
ENDTAB
  0
TABLE
  2
BLOCK_RECORD
  5
1
330
0
100
AcDbSymbolTable
 70
     0
  0
BLOCK_RECORD
  5
1F
330
1
100
AcDbSymbolTableRecord
100
AcDbBlockTableRecord
  2
*MODEL_SPACE
340
10055
 70
     0
280
     1
281
     0
  0
BLOCK_RECORD
  5
1B
330
1
100
AcDbSymbolTableRecord
100
AcDbBlockTableRecord
  2
*PAPER_SPACE
340
10056
 70
     0
280
     1
281
     0
  0
ENDTAB
  0
ENDSEC
  0
SECTION
  2
BLOCKS
  0
BLOCK
  5
20
330
1F
100
AcDbEntity
  8
0
100
AcDbBlockBegin
  2
*MODEL_SPACE
 70
     0
 10
0.0
 20
0.0
 30
0.0
  3
*MODEL_SPACE
  1

  0
ENDBLK
  5
21
330
1F
100
AcDbEntity
  8
0
100
AcDbBlockEnd
  0
BLOCK
  5
1C
330
1B
100
AcDbEntity
 67
     1
  8
0
100
AcDbBlockBegin
  2
*PAPER_SPACE
 70
     0
 10
0.0
 20
0.0
 30
0.0
  3
*PAPER_SPACE
  1

  0
ENDBLK
  5
1D
330
1B
100
AcDbEntity
 67
     1
  8
0
100
AcDbBlockEnd
  0
ENDSEC
  0
SECTION
  2
ENTITIES
  0
ARC
  5
100
330
1F
100
AcDbEntity
  8
0
100
AcDbCircle
 10
-372.1060640513018
 20
-14.81924706618847
 30
-0.0000002276560518
 40
1.000000015836726
210
0.0000000030238419
220
-0.0000000052084481
230
1.0
100
AcDbArc
 50
300.1379445412866
 51
90.0
  0
LINE
  5
101
330
1F
100
AcDbEntity
  8
0
100
AcDbLine
 10
-371.6039804634715
 20
-15.6840661816715
 30
0.0000008143260011
 11
-403.9172854051131
 21
-15.68406618167101
 31
0.0000001463958743
  0
ARC
  5
102
330
1F
100
AcDbEntity
  8
0
100
AcDbCircle
 10
-403.9172854051131
 20
-17.68406622401991
 30
0.0000002616820041
 40
2.000000042348872
210
0.0
220
-0.0000000073505256
230
1.0
100
AcDbArc
 50
90.0
 51
180.0
  0
LINE
  5
103
330
1F
100
AcDbEntity
  8
0
100
AcDbLine
 10
-405.9172854051131
 20
-17.68406622402017
 30
0.0000001316948228
 11
-405.9172854051131
 21
-70.92133076215159
 31
-0.0000002382754916
  0
ARC
  5
104
330
1F
100
AcDbEntity
  8
0
100
AcDbCircle
 10
-406.8685640513018
 20
-70.61299824467797
 30
-0.0000002369013674
 40
1.0
100
AcDbArc
 50
180.0
 51
342.0412310851451
  0
LINE
  5
105
330
1F
100
AcDbEntity
  8
0
100
AcDbLine
 10
-407.8685640513018
 20
-70.61299824467797
 30
-0.0000002369013685
 11
-407.8685640513018
 21
-48.61299777883736
 31
-0.0000000829206237
  0
ARC
  5
106
330
1F
100
AcDbEntity
  8
0
100
AcDbCircle
 10
-409.8685640513018
 20
-48.61299777883743
 30
0.0000000747394812
 40
2.000000000000003
210
-0.0000000003865464
220
0.0
230
1.0
100
AcDbArc
 50
0.0
 51
180.0
  0
LINE
  5
107
330
1F
100
AcDbEntity
  8
0
100
AcDbLine
 10
-411.8685640513018
 20
-48.61299777883743
 30
-0.0000000836937164
 11
-411.8685640513018
 21
-104.6129989646133
 31
-0.0000004729037095
  0
ARC
  5
108
330
1F
100
AcDbEntity
  8
0
100
AcDbCircle
 10
-409.8685640513018
 20
-104.6129989646133
 30
-0.0000006321116003
 40
2.000000000000014
210
0.0000000003865502
220
0.0
230
1.0
100
AcDbArc
 50
180.0
 51
0.0
  0
LINE
  5
109
330
1F
100
AcDbEntity
  8
0
100
AcDbLine
 10
-407.8685640513018
 20
-104.6129989646133
 30
-0.0000004736768089
 11
-407.8685640513018
 21
-82.61299849877287
 31
-0.0000003196960729
  0
ARC
  5
110
330
1F
100
AcDbEntity
  8
0
100
AcDbCircle
 10
-406.8685640513018
 20
-82.61299849877275
 30
0.000000565297966
 40
1.000000002013045
210
-0.0000000020426068
220
-0.0000000006620585
230
1.0
100
AcDbArc
 50
17.95876891485189
 51
180.0
  0
LINE
  5
111
330
1F
100
AcDbEntity
  8
0
100
AcDbLine
 10
-405.9172854051131
 20
-82.30466598129916
 30
-0.0000003183219477
 11
-405.9172854051132
 21
-135.4815687183314
 31
-0.0000006878719316
  0
ARC
  5
112
330
1F
100
AcDbEntity
  8
0
100
AcDbCircle
 10
-403.9172854051132
 20
-135.4815687183314
 30
-0.0000008447782276
 40
1.999999999999968
210
0.0000000003865475
220
0.0
230
1.0
100
AcDbArc
 50
180.0
 51
270.0
  0
LINE
  5
113
330
1F
100
AcDbEntity
  8
0
100
AcDbLine
 10
-403.9172854051132
 20
-137.4815687606805
 30
-0.0000007025729942
 11
-371.7265376268827
 21
-137.4815687606805
 31
-0.0000007017999026
  0
ARC
  5
114
330
1F
100
AcDbEntity
  8
0
100
AcDbCircle
 10
-372.1060640513017
 20
-138.406749677808
 30
-0.0000007090159437
 40
1.0
100
AcDbArc
 50
0.0
 51
67.69564904028796
  0
ARC
  5
115
330
1F
100
AcDbEntity
  8
0
100
AcDbCircle
 10
-372.1022285708465
 20
-138.3192496759552
 30
0.0000002548462458
 40
1.000000021174568
210
0.0
220
-0.0000000069639826
230
1.0
100
AcDbArc
 50
270.0
 51
354.9801997625711
  0
LINE
  5
116
330
1F
100
AcDbEntity
  8
0
100
AcDbLine
 10
-372.1022285708465
 20
-139.3192496971298
 30
-0.0000007153705817
 11
-394.1060640513017
 21
-139.3192496971298
 31
-0.0000007145974801
  0
ARC
  5
117
330
1F
100
AcDbEntity
  8
0
100
AcDbCircle
 10
-394.1060640513017
 20
-141.3192497394789
 30
0.0000003094728484
 40
2.000000042349148
210
0.0
220
-0.00000000735053
230
1.0
100
AcDbArc
 50
90.0
 51
270.0
  0
LINE
  5
118
330
1F
100
AcDbEntity
  8
0
100
AcDbLine
 10
-394.1060640513017
 20
-143.319249781828
 30
-0.0000007432265081
 11
-338.1060640513017
 21
-143.3192497818281
 31
-0.0000007424534165
  0
ARC
  5
119
330
1F
100
AcDbEntity
  8
0
100
AcDbCircle
 10
-338.1060640513017
 20
-141.3192497394789
 30
0.0000002002200487
 40
2.000000042349136
210
0.0
220
-0.0000000065774379
230
1.0
100
AcDbArc
 50
270.0
 51
90.0
  0
LINE
  5
120
330
1F
100
AcDbEntity
  8
0
100
AcDbLine
 10
-338.1060640513017
 20
-139.3192496971298
 30
-0.0000007153705728
 11
-360.1098995317569
 21
-139.3192496971298
 31
-0.0000007145974834
  0
ARC
  5
121
330
1F
100
AcDbEntity
  8
0
100
AcDbCircle
 10
-360.1098995317569
 20
-138.3192496759552
 30
-0.0000004824406221
 40
1.000000000162119
210
-0.0000000006070121
220
-0.0000000000533181
230
1.0
100
AcDbArc
 50
185.0198002374288
 51
270.0
  0
ARC
  5
122
330
1F
100
AcDbEntity
  8
0
100
AcDbCircle
 10
-360.1060640513017
 20
-138.406749677808
 30
-0.0000007645443562
 40
1.000000018124576
210
0.0000000024452678
220
-0.0000000059608896
230
1.0
100
AcDbArc
 50
112.3043509597128
 51
180.0
  0
LINE
  5
123
330
1F
100
AcDbEntity
  8
0
100
AcDbLine
 10
-360.4855904757207
 20
-137.4815687606805
 30
-0.0000007025729987
 11
-315.8353184407583
 21
-137.4815687606805
 31
-0.0000007018000014
  0
ARC
  5
124
330
1F
100
AcDbEntity
  8
0
100
AcDbCircle
 10
-315.8353184407583
 20
-134.9815687077441
 30
0.0000002130991719
 40
2.500000052936426
210
0.0
220
-0.0000000066547042
230
1.0
100
AcDbArc
 50
270.0
 51
314.9999993933918
  0
LINE
  5
125
330
1F
100
AcDbEntity
  8
0
100
AcDbLine
 10
-314.067551487792
 20
-136.7493356981422
 30
-0.0000006974739408
 11
-310.0345182707844
 21
-132.7163023957367
 31
-0.0000006686146303
  0
ARC
  5
126
330
1F
100
AcDbEntity
  8
0
100
AcDbCircle
 10
-308.2667513178179
 20
-134.4840693861349
 30
0.0000002548464986
 40
2.500000052936421
210
0.0
220
-0.0000000069639839
230
1.0
100
AcDbArc
 50
90.0
 51
134.999999393392
  0
LINE
  5
127
330
1F
100
AcDbEntity
  8
0
100
AcDbLine
 10
-308.2667513178179
 20
-131.9840693331984
 30
-0.0000006642884365
 11
-282.7385354051131
 21
-131.9840693331984
 31
-0.0000006635154015
  0
ARC
  5
128
330
1F
100
AcDbEntity
  8
0
100
AcDbCircle
 10
-282.7385354051131
 20
-131.4840693226111
 30
0.0000000515460554
 40
0.5000000105872826
210
0.0
220
-0.0000000054177861
230
1.0
100
AcDbArc
 50
270.0
 51
0.0
  0
LINE
  5
129
330
1F
100
AcDbEntity
  8
0
100
AcDbLine
 10
-282.2385354051131
 20
-131.4840693226112
 30
-0.0000006608065095
 11
-282.2385354051131
 21
-118.4840683584166
 31
-0.0000005695015892
  0
ARC
  5
130
330
1F
100
AcDbEntity
  8
0
100
AcDbCircle
 10
-281.7385354051131
 20
-118.4840683584166
 30
0.0000002548463013
 40
0.5000000105872937
210
0.0
220
-0.0000000069639826
230
1.0
100
AcDbArc
 50
90.0
 51
180.0
  0
LINE
  5
131
330
1F
100
AcDbEntity
  8
0
100
AcDbLine
 10
-281.7385354051131
 20
-117.9840683478293
 30
-0.000000566792695
 11
-256.8322854051131
 21
-117.9840683478293
 31
-0.000000566019599
  0
ARC
  5
132
330
1F
100
AcDbEntity
  8
0
100
AcDbCircle
 10
-256.8322854051131
 20
-118.4840683584166
 30
-0.0000005702746864
 40
0.5000000000000071
100
AcDbArc
 50
0.0
 51
90.0
  0
LINE
  5
133
330
1F
100
AcDbEntity
  8
0
100
AcDbLine
 10
-256.3322854051131
 20
-118.4840683584166
 30
-0.0000005702746864
 11
-256.3322854051131
 21
-131.4840693226112
 31
-0.0000006600333913
  0
ARC
  5
134
330
1F
100
AcDbEntity
  8
0
100
AcDbCircle
 10
-255.8322854051131
 20
-131.4840693226111
 30
-0.0000010563831508
 40
0.4999999999999893
210
0.0000000015462343
220
0.0
230
1.0
100
AcDbArc
 50
180.0
 51
270.0
  0
LINE
  5
135
330
1F
100
AcDbEntity
  8
0
100
AcDbLine
 10
-255.8322854051131
 20
-131.9840693331984
 30
-0.0000006642885009
 11
-237.4540758054031
 21
-131.9840693331984
 31
-0.0000006635153726
  0
ARC
  5
136
330
1F
100
AcDbEntity
  8
0
100
AcDbCircle
 10
-237.4540758054031
 20
-134.4840693861349
 30
0.0000006133870495
 40
2.500000026468212
210
-0.0000000034819915
220
-0.0000000034819915
230
1.0
100
AcDbArc
 50
45.00000060661145
 51
90.0
  0
LINE
  5
137
330
1F
100
AcDbEntity
  8
0
100
AcDbLine
 10
-235.6863088524369
 20
-132.7163023957366
 30
-0.0000006693877064
 11
-231.5191716353802
 21
-136.8834397010314
 31
-0.0000006976345568
  0
ARC
  5
138
330
1F
100
AcDbEntity
  8
0
100
AcDbCircle
 10
-229.7514046824141
 20
-135.1156727106333
 30
0.00000050458545
 40
2.50000002646803
210
-0.0000000032633319
220
-0.000000003263332
230
1.0
100
AcDbArc
 50
225.0000006066115
 51
270.0
  0
LINE
  5
139
330
1F
100
AcDbEntity
  8
0
100
AcDbLine
 10
-229.7514046824141
 20
-137.6156727635697
 30
-0.000000703506895
 11
-216.4905118536132
 21
-137.6156727635697
 31
-0.0000004203600079
  0
ARC
  5
140
330
1F
100
AcDbEntity
  8
0
100
AcDbCircle
 10
-217.1022285708462
 20
-138.4067496778832
 30
-0.0000000043309334
 40
1.000000000162099
210
-0.000000000607011
220
-0.000000000053318
230
1.0
100
AcDbArc
 50
5.019800237427276
 51
52.28626401214853
  0
ARC
  5
141
330
1F
100
AcDbEntity
  8
0
100
AcDbCircle
 10
-217.1060640513011
 20
-138.3192496760303
 30
0.0000008203682517
 40
1.000000021174568
210
0.0
220
-0.0000000069639826
230
1.0
100
AcDbArc
 50
270.0
 51
0.0
  0
LINE
  5
142
330
1F
100
AcDbEntity
  8
0
100
AcDbLine
 10
-217.1060640513011
 20
-139.3192496972049
 30
-0.0000001498485758
 11
-239.1060640513011
 21
-139.3192496972049
 31
-0.0000001498485758
  0
ARC
  5
143
330
1F
100
AcDbEntity
  8
0
100
AcDbCircle
 10
-239.1060640513011
 20
-141.3192497395541
 30
0.0000008203680197
 40
2.000000042349171
210
0.0
220
-0.0000000069639809
230
1.0
100
AcDbArc
 50
90.0
 51
270.0
  0
LINE
  5
144
330
1F
100
AcDbEntity
  8
0
100
AcDbLine
 10
-239.1060640513011
 20
-143.3192497819032
 30
-0.0000001777045067
 11
-183.1060640513011
 21
-143.3192497819032
 31
-0.0000001777045122
  0
ARC
  5
145
330
1F
100
AcDbEntity
  8
0
100
AcDbCircle
 10
-183.1060640513011
 20
-141.3192497395541
 30
0.0000008203689621
 40
2.000000042349133
210
0.0
220
-0.0000000069639876
230
1.0
100
AcDbArc
 50
270.0
 51
90.0
  0
LINE
  5
146
330
1F
100
AcDbEntity
  8
0
100
AcDbLine
 10
-183.1060640513011
 20
-139.3192496972049
 30
-0.0000001498485702
 11
-205.1060640513011
 21
-139.3192496972049
 31
-0.0000001498485747
  0
ARC
  5
147
330
1F
100
AcDbEntity
  8
0
100
AcDbCircle
 10
-205.1060640513011
 20
-138.3192496760303
 30
-0.000000142884593
 40
1.000000000000014
100
AcDbArc
 50
180.0
 51
270.0
  0
ARC
  5
148
330
1F
100
AcDbEntity
  8
0
100
AcDbCircle
 10
-205.1098995317561
 20
-138.4067496778832
 30
-0.0000002315217219
 40
1.00000001325108
210
0.0000000033699758
220
-0.0000000043580794
230
1.0
100
AcDbArc
 50
127.7137359878517
 51
174.9801997625727
  0
LINE
  5
149
330
1F
100
AcDbEntity
  8
0
100
AcDbLine
 10
-205.7216162489892
 20
-137.6156727635696
 30
-0.0000001379848902
 11
-136.1270993719771
 21
-137.6156727635697
 31
-0.0000007027338
  0
ARC
  5
150
330
1F
100
AcDbEntity
  8
0
100
AcDbCircle
 10
-136.1270993719771
 20
-138.6156727847443
 30
-0.0000003672152663
 40
1.000000001771666
210
-0.0000000019282614
220
-0.0000000005826685
230
1.0
100
AcDbArc
 50
16.81339848305587
 51
90.0
  0
ARC
  5
151
330
1F
100
AcDbEntity
  8
0
100
AcDbCircle
 10
-134.2125956046801
 20
-138.0371614718215
 30
-0.0000003672152663
 40
1.000000001771846
210
-0.0000000019282614
220
-0.0000000005826685
230
1.0
100
AcDbArc
 50
196.8133984830772
 51
270.0
  0
LINE
  5
152
330
1F
100
AcDbEntity
  8
0
100
AcDbLine
 10
-134.2125956046801
 20
-139.037161492996
 30
-0.0000007134061197
 11
-78.11258381544206
 21
-139.037161492996
 31
-0.0000007126330204
  0
ARC
  5
153
330
1F
100
AcDbEntity
  8
0
100
AcDbCircle
 10
-78.11258381544206
 20
-138.0371614718215
 30
0.0000001481301198
 40
1.000000021174568
210
0.0
220
-0.0000000061908855
230
1.0
100
AcDbArc
 50
270.0
 51
346.0265513778982
  0
ARC
  5
154
330
1F
100
AcDbEntity
  8
0
100
AcDbCircle
 10
-76.17176835132005
 20
-138.5201059242201
 30
0.0000002548464056
 40
1.000000021174568
210
0.0
220
-0.0000000069639837
230
1.0
100
AcDbArc
 50
90.0
 51
166.0265513778982
  0
LINE
  5
155
330
1F
100
AcDbEntity
  8
0
100
AcDbLine
 10
-76.17176835132005
 20
-137.5201059030455
 30
-0.0000007028413684
 11
-51.50492408654708
 21
-137.5201059030454
 31
-0.0000007020682746
  0
ARC
  5
156
330
1F
100
AcDbEntity
  8
0
100
AcDbCircle
 10
-52.10606405130113
 20
-138.3192496759801
 30
0.000000254846248
 40
1.000000021174568
210
0.0
220
-0.0000000069639826
230
1.0
100
AcDbArc
 50
270.0
 51
53.04841527394067
  0
LINE
  5
157
330
1F
100
AcDbEntity
  8
0
100
AcDbLine
 10
-52.10606405130113
 20
-139.3192496971547
 30
-0.0000007153705794
 11
-74.10606405130113
 21
-139.3192496971547
 31
-0.0000007145974867
  0
ARC
  5
158
330
1F
100
AcDbEntity
  8
0
100
AcDbCircle
 10
-74.10606405130113
 20
-141.3192497395038
 30
0.0000003094730738
 40
2.000000042349152
210
0.0
220
-0.0000000073505317
230
1.0
100
AcDbArc
 50
90.0
 51
270.0
  0
LINE
  5
159
330
1F
100
AcDbEntity
  8
0
100
AcDbLine
 10
-74.10606405130113
 20
-143.319249781853
 30
-0.0000007432265181
 11
-18.10606405130102
 21
-143.319249781853
 31
-0.0000007424534199
  0
ARC
  5
160
330
1F
100
AcDbEntity
  8
0
100
AcDbCircle
 10
-18.10606405130102
 20
-141.3192497395038
 30
0.000000200219568
 40
2.000000042349136
210
0.0
220
-0.0000000065774346
230
1.0
100
AcDbArc
 50
270.0
 51
90.0
  0
LINE
  5
161
330
1F
100
AcDbEntity
  8
0
100
AcDbLine
 10
-18.10606405130102
 20
-139.3192496971547
 30
-0.0000007153705828
 11
-40.10989953175612
 21
-139.3192496971547
 31
-0.0000007145974834
  0
ARC
  5
162
330
1F
100
AcDbEntity
  8
0
100
AcDbCircle
 10
-40.10989953175612
 20
-138.3192496759801
 30
-0.0000006766845466
 40
1.000000000162099
210
-0.000000000607011
220
-0.000000000053318
230
1.0
100
AcDbArc
 50
185.0198002374281
 51
270.0
  0
ARC
  5
163
330
1F
100
AcDbEntity
  8
0
100
AcDbCircle
 10
-40.10606405130118
 20
-138.4067496778329
 30
-0.0000000658088927
 40
1.000000016646113
210
0.0000000028554497
220
-0.0000000054746456
230
1.0
100
AcDbArc
 50
117.5455133149593
 51
180.0
  0
LINE
  5
164
330
1F
100
AcDbEntity
  8
0
100
AcDbLine
 10
-40.56851712991902
 20
-137.5201059030457
 30
-0.0000007028413762
 11
-18.18228540511325
 21
-137.5201059030455
 31
-0.0000007020682746
  0
ARC
  5
165
330
1F
100
AcDbEntity
  8
0
100
AcDbCircle
 10
-18.18228540511325
 20
-135.5201058606964
 30
0.0000002024613002
 40
2.000000042349134
210
0.0
220
-0.0000000065774351
230
1.0
100
AcDbArc
 50
270.0
 51
0.0
  0
LINE
  5
166
330
1F
100
AcDbEntity
  8
0
100
AcDbLine
 10
-16.18228540511324
 20
-135.5201058606964
 30
-0.0000006889134041
 11
-16.18228540511302
 21
-82.06843766290353
 31
-0.0000003159037576
  0
ARC
  5
167
330
1F
100
AcDbEntity
  8
0
100
AcDbCircle
 10
-15.34356405130103
 20
-82.61299849808969
 30
-0.0000003204691712
 40
0.9999999999999431
100
AcDbArc
 50
0.0
 51
147.0053424796297
  0
LINE
  5
168
330
1F
100
AcDbEntity
  8
0
100
AcDbLine
 10
-14.3435640513012
 20
-82.61299849808969
 30
-0.0000003204691712
 11
-14.34356405130103
 21
-104.6129989639301
 31
-0.0000004729037206
  0
ARC
  5
169
330
1F
100
AcDbEntity
  8
0
100
AcDbCircle
 10
-12.3435640513012
 20
-104.6129989639301
 30
-0.0000004784482048
 40
1.999999999999957
210
0.0000000003865486
220
0.0
230
1.0
100
AcDbArc
 50
180.0
 51
0.0
  0
LINE
  5
170
330
1F
100
AcDbEntity
  8
0
100
AcDbLine
 10
-10.3435640513012
 20
-104.6129989639301
 30
-0.0000004736768178
 11
-10.34356405130103
 21
-48.61299777815414
 31
-0.0000000829206293
  0
ARC
  5
171
330
1F
100
AcDbEntity
  8
0
100
AcDbCircle
 10
-12.3435640513012
 20
-48.61299777815419
 30
-0.000000078922391
 40
2.000000000000028
210
-0.0000000003865436
220
0.0
230
1.0
100
AcDbArc
 50
0.0
 51
180.0
  0
LINE
  5
172
330
1F
100
AcDbEntity
  8
0
100
AcDbLine
 10
-14.3435640513012
 20
-48.61299777815419
 30
-0.0000000836937153
 11
-14.34356405130103
 21
-70.6129982439948
 31
-0.0000002361282692
  0
ARC
  5
173
330
1F
100
AcDbEntity
  8
0
100
AcDbCircle
 10
-15.34356405130103
 20
-70.6129982439948
 30
-0.0000000422720907
 40
1.000000006279245
210
-0.000000003180694
220
-0.0000000020651452
230
1.0
100
AcDbArc
 50
212.9946575203715
 51
0.0
  0
LINE
  5
174
330
1F
100
AcDbEntity
  8
0
100
AcDbLine
 10
-16.18228540511291
 20
-71.15755907918094
 30
-0.0000002406936783
 11
-16.18228540511324
 21
-17.68406622402016
 31
0.0000001324679333
  0
ARC
  5
175
330
1F
100
AcDbEntity
  8
0
100
AcDbCircle
 10
-18.18228540511325
 20
-17.68406622401996
 30
0.0000001387232804
 40
2.000000000000028
210
-0.0000000003865552
220
0.0
230
1.0
100
AcDbArc
 50
0.0
 51
90.0
  0
LINE
  5
176
330
1F
100
AcDbEntity
  8
0
100
AcDbLine
 10
-18.18228540511325
 20
-15.68406618167083
 30
0.0000001456227905
 11
-50.60814763913009
 21
-15.68406618167127
 31
0.0000001684435846
  0
ARC
  5
177
330
1F
100
AcDbEntity
  8
0
100
AcDbCircle
 10
-50.10606405130113
 20
-14.81924706618723
 30
0.0000002999931683
 40
1.000000021174596
210
0.0
220
-0.0000000069639848
230
1.0
100
AcDbArc
 50
90.0
 51
239.8620554588106
  0
LINE
  5
178
330
1F
100
AcDbEntity
  8
0
100
AcDbLine
 10
-50.10606405130113
 20
-13.81924704501261
 30
0.000000203756142
 11
-28.10606405130102
 21
-13.81924704501206
 31
0.0000004642988716
  0
ARC
  5
179
330
1F
100
AcDbEntity
  8
0
100
AcDbCircle
 10
-28.10606405130102
 20
-11.81924700266284
 30
-0.0000012397161451
 40
2.000000042349154
210
0.0
220
0.0000001233073706
230
0.9999999999999925
100
AcDbArc
 50
270.0
 51
90.0
  0
LINE
  5
180
330
1F
100
AcDbEntity
  8
0
100
AcDbLine
 10
-28.10606405130102
 20
-9.81924696031379
 30
0.0000002316120906
 11
-84.10606405130113
 21
-9.819246960314046
 31
0.0000002323234682
  0
ARC
  5
181
330
1F
100
AcDbEntity
  8
0
100
AcDbCircle
 10
-84.10606405130113
 20
-11.8192470026629
 30
0.0000003041971292
 40
2.000000042348855
210
0.0
220
-0.0000000073196714
230
1.0
100
AcDbArc
 50
90.0
 51
270.0
  0
LINE
  5
182
330
1F
100
AcDbEntity
  8
0
100
AcDbLine
 10
-84.10606405130113
 20
-13.819247045012
 30
0.0000002037561575
 11
-62.10606405130113
 21
-13.8192470450122
 31
0.0000004642988649
  0
ARC
  5
183
330
1F
100
AcDbEntity
  8
0
100
AcDbCircle
 10
-62.10606405130113
 20
-14.81924706618723
 30
0.0000000861785155
 40
1.000000015836691
210
0.0000000030238419
220
-0.0000000052084481
230
1.0
100
AcDbArc
 50
300.1379445411442
 51
90.0
  0
LINE
  5
184
330
1F
100
AcDbEntity
  8
0
100
AcDbLine
 10
-61.60398046347296
 20
-15.68406618167147
 30
0.0000001907695701
 11
-205.6081476391312
 21
-15.68406618167097
 31
-0.0000001192312593
  0
ARC
  5
185
330
1F
100
AcDbEntity
  8
0
100
AcDbCircle
 10
-205.1060640513011
 20
-14.81924706618788
 30
-0.0000002756196847
 40
1.000000021174578
210
0.0
220
-0.0000000069639848
230
1.0
100
AcDbArc
 50
90.0
 51
239.8620554587286
  0
LINE
  5
186
330
1F
100
AcDbEntity
  8
0
100
AcDbLine
 10
-205.1060640513011
 20
-13.81924704501332
 30
-0.000000371856711
 11
-183.1060640513011
 21
-13.81924704501308
 31
0.0000007755138209
  0
ARC
  5
187
330
1F
100
AcDbEntity
  8
0
100
AcDbCircle
 10
-183.1060640513011
 20
-11.81924700266423
 30
0.0000008717603442
 40
2.000000042348872
210
0.0
220
-0.000000006964672
230
1.0
100
AcDbArc
 50
270.0
 51
90.0
  0
LINE
  5
188
330
1F
100
AcDbEntity
  8
0
100
AcDbLine
 10
-183.1060640513011
 20
-9.819246960315069
 30
0.0000008033711507
 11
-239.1060640513011
 21
-9.819246960314984
 31
0.000000803370247
  0
ARC
  5
189
330
1F
100
AcDbEntity
  8
0
100
AcDbCircle
 10
-239.1060640513011
 20
-11.81924700266423
 30
0.0000008717469729
 40
2.000000042349245
210
0.0
220
-0.0000000069635407
230
1.0
100
AcDbArc
 50
90.0
 51
270.0
  0
LINE
  5
190
330
1F
100
AcDbEntity
  8
0
100
AcDbLine
 10
-239.1060640513011
 20
-13.81924704501331
 30
0.0000007755151799
 11
-217.1060640513011
 21
-13.81924704501281
 31
0.0000001763870683
  0
ARC
  5
191
330
1F
100
AcDbEntity
  8
0
100
AcDbCircle
 10
-217.1060640513011
 20
-14.8192470661879
 30
-0.000000958129623
 40
1.000000015836715
210
0.0000000030238408
220
-0.0000000052084462
230
1.0
100
AcDbArc
 50
300.1379445412656
 51
90.0
  0
LINE
  5
192
330
1F
100
AcDbEntity
  8
0
100
AcDbLine
 10
-216.603980463471
 20
-15.68406618167108
 30
-0.0000003848432806
 11
-360.6081476391321
 21
-15.68406618167125
 31
0.0000004802890563
  0
ARC
  5
193
330
1F
100
AcDbEntity
  8
0
100
AcDbCircle
 10
-360.1060640513018
 20
-14.81924706618846
 30
0.0000009235495663
 40
1.00000002117456
210
0.0
220
-0.0000000069639826
230
1.0
100
AcDbArc
 50
90.0
 51
239.8620554587126
  0
LINE
  5
194
330
1F
100
AcDbEntity
  8
0
100
AcDbLine
 10
-360.1060640513018
 20
-13.81924704501389
 30
0.0000008273125707
 11
-338.1060640513018
 21
-13.8192470450127
 31
0.0000007755151954
  0
ARC
  5
195
330
1F
100
AcDbEntity
  8
0
100
AcDbCircle
 10
-338.1060640513018
 20
-11.81924700266378
 30
0.0000008717522064
 40
2.00000004234889
210
0.0
220
-0.0000000069639837
230
1.0
100
AcDbArc
 50
270.0
 51
90.0
  0
LINE
  5
196
330
1F
100
AcDbEntity
  8
0
100
AcDbLine
 10
-338.1060640513018
 20
-9.819246960314643
 30
0.0000008033711441
 11
-394.1060640513018
 21
-9.819246960314671
 31
0.0000008033711285
  0
ARC
  5
197
330
1F
100
AcDbEntity
  8
0
100
AcDbCircle
 10
-394.1060640513018
 20
-11.81924700266378
 30
0.0000008717522151
 40
2.000000042349103
210
0.0
220
-0.0000000069639848
230
1.0
100
AcDbArc
 50
90.0
 51
270.0
  0
LINE
  5
198
330
1F
100
AcDbEntity
  8
0
100
AcDbLine
 10
-394.1060640513018
 20
-13.81924704501293
 30
0.000000775515191
 11
-372.1060640513018
 21
-13.81924704501389
 31
0.0000008273125751
  0
LWPOLYLINE
  5
199
330
1F
100
AcDbEntity
  8
0
100
AcDbPolyline
 90
        4
 70
     1
 43
0.0
 10
-251.3072854051131
 20
-122.7340687928711
 42
1.0
 10
-251.3072854051131
 20
-127.7340688987439
 10
-233.6385357959551
 20
-127.7340688987439
 42
1.0
 10
-233.6385357959551
 20
-122.7340687928711
  0
LWPOLYLINE
  5
200
330
1F
100
AcDbEntity
  8
0
100
AcDbPolyline
 90
        4
 70
     1
 43
0.0
 10
-304.9322850142711
 20
-122.7340687928711
 42
1.0
 10
-304.9322850142711
 20
-127.7340688987439
 10
-287.2635354051131
 20
-127.7340688987439
 42
1.0
 10
-287.2635354051131
 20
-122.7340687928711
  0
LWPOLYLINE
  5
201
330
1F
100
AcDbEntity
  8
0
100
AcDbPolyline
 90
        6
 70
     1
 43
0.0
 10
-112.171036340594
 20
-99.22157101167163
 42
0.3996366452206005
 10
-113.1697854051132
 20
-100.1715679706574
 42
0.4142135623730847
 10
-112.1697854051131
 20
-101.1715679918319
 10
-100.1697854051132
 20
-101.1715679918319
 42
0.4142135623730744
 10
-99.16978540511321
 20
-100.1715679706574
 42
0.3996366452206005
 10
-100.1685344696321
 20
-99.22157101167165
  0
LWPOLYLINE
  5
202
330
1F
100
AcDbEntity
  8
0
100
AcDbPolyline
 90
        8
 70
     1
 43
0.0
 10
-193.6322854051132
 20
-117.9840683478293
 10
-142.5322854051132
 20
-117.9840683584166
 42
-0.4142135623730639
 10
-142.0322854051132
 20
-118.4840683584166
 10
-142.0322853945258
 20
-131.484068633686
 42
-0.4142135623730847
 10
-142.5322854051132
 20
-131.9840686442733
 10
-193.6322854051132
 20
-131.984068633686
 42
-0.414213562373084
 10
-194.1322854051131
 20
-131.484068633686
 10
-194.1322854157005
 20
-118.4840683584166
 42
-0.4142135623730612
  0
LWPOLYLINE
  5
203
330
1F
100
AcDbEntity
  8
0
100
AcDbPolyline
 90
        8
 70
     1
 43
0.0
 10
-37.25728540511324
 20
-18.47156624069556
 42
0.4142135623732721
 10
-37.75728540511307
 20
-17.97156623010799
 10
-50.75728540511312
 20
-17.97156623010799
 42
0.4142135623732823
 10
-51.25728540511312
 20
-18.47156624069558
 10
-51.25728540511312
 20
-31.47156651596418
 42
0.4142135623729181
 10
-50.75728540511312
 20
-31.97156652655154
 10
-37.75728540511307
 20
-31.97156652655114
 42
0.4142135623729181
 10
-37.25728540511324
 20
-31.47156651596418
  0
LWPOLYLINE
  5
204
330
1F
100
AcDbEntity
  8
0
100
AcDbPolyline
 90
        8
 70
     1
 43
0.0
 10
-56.30728540511313
 20
-18.47156624069556
 42
0.4142135623732721
 10
-56.80728540511314
 20
-17.97156623010799
 10
-69.80728540511313
 20
-17.97156623010799
 42
0.4142135623732823
 10
-70.30728540511313
 20
-18.47156624069558
 10
-70.30728540511313
 20
-31.47156651596418
 42
0.4142135623729181
 10
-69.80728540511313
 20
-31.97156652655154
 10
-56.80728540511314
 20
-31.97156652655114
 42
0.4142135623729181
 10
-56.30728540511313
 20
-31.47156651596418
  0
LWPOLYLINE
  5
205
330
1F
100
AcDbEntity
  8
0
100
AcDbPolyline
 90
        8
 70
     1
 43
0.0
 10
-75.3572854051132
 20
-18.47156624069556
 42
0.4142135623732721
 10
-75.85728540511309
 20
-17.97156623010799
 10
-88.85728540511321
 20
-17.97156623010799
 42
0.4142135623732823
 10
-89.35728540511309
 20
-18.47156624069558
 10
-89.3572854051132
 20
-31.47156651596418
 42
0.4142135623729181
 10
-88.85728540511321
 20
-31.97156652655154
 10
-75.85728540511309
 20
-31.97156652655114
 42
0.4142135623729181
 10
-75.3572854051132
 20
-31.47156651596418
  0
LWPOLYLINE
  5
206
330
1F
100
AcDbEntity
  8
0
100
AcDbPolyline
 90
       20
 70
     1
 43
0.0
 10
-32.20728540511306
 20
-85.92206766893035
 10
-32.20728540511306
 20
-68.79606730629463
 10
-32.707285405113
 20
-68.79606729570738
 42
-0.414213562373121
 10
-33.207285405113
 20
-68.29606729570736
 10
-33.20728541570031
 20
-62.54606717395363
 42
-0.414213562373121
 10
-32.707285405113
 20
-62.04606716336629
 10
-32.20728540511306
 20
-62.04606716336629
 10
-32.20728541570037
 20
-61.33406714829006
 42
-0.4142135623731262
 10
-31.70728540511305
 20
-60.83406713770272
 10
-18.70728540511305
 20
-60.83406714829003
 42
-0.4142135623731159
 10
-18.20728540511305
 20
-61.33406714829003
 10
-18.20728539452574
 20
-93.38406782693501
 42
-0.414213562373069
 10
-18.70728540511305
 20
-93.88406783752225
 10
-31.707285405113
 20
-93.88406782693493
 42
-0.4142135623730744
 10
-32.20728540511306
 20
-93.38406782693501
 10
-32.20728540511306
 20
-92.67206781185874
 10
-32.707285405113
 20
-92.67206780127137
 42
-0.414213562373069
 10
-33.207285405113
 20
-92.17206780127142
 10
-33.20728541570031
 20
-86.42206767951771
 42
-0.4142135623731784
 10
-32.707285405113
 20
-85.92206766893028
  0
LWPOLYLINE
  5
207
330
1F
100
AcDbEntity
  8
0
100
AcDbPolyline
 90
        8
 70
     1
 43
0.0
 10
-37.25728540511324
 20
-80.3840675516656
 42
0.4142135623730586
 10
-37.75728540511307
 20
-79.88406754107842
 10
-50.75728540511312
 20
-79.88406754107839
 42
0.4142135623730586
 10
-51.25728540511312
 20
-80.3840675516656
 10
-51.25728540511312
 20
-93.38406782693501
 42
0.4142135623730744
 10
-50.75728540511312
 20
-93.88406783752229
 10
-37.75728540511307
 20
-93.88406783752225
 42
0.414213562373069
 10
-37.25728540511324
 20
-93.38406782693501
  0
LWPOLYLINE
  5
208
330
1F
100
AcDbEntity
  8
0
100
AcDbPolyline
 90
        8
 70
     1
 43
0.0
 10
-56.30728540511313
 20
-80.3840675516656
 42
0.4142135623730586
 10
-56.80728540511314
 20
-79.88406754107842
 10
-69.80728540511313
 20
-79.88406754107839
 42
0.4142135623730586
 10
-70.30728540511313
 20
-80.3840675516656
 10
-70.30728540511313
 20
-93.38406782693501
 42
0.4142135623730744
 10
-69.80728540511313
 20
-93.88406783752229
 10
-56.80728540511314
 20
-93.88406783752225
 42
0.414213562373069
 10
-56.30728540511313
 20
-93.38406782693501
  0
LWPOLYLINE
  5
209
330
1F
100
AcDbEntity
  8
0
100
AcDbPolyline
 90
        8
 70
     1
 43
0.0
 10
-75.3572854051132
 20
-80.3840675516656
 42
0.4142135623730586
 10
-75.85728540511309
 20
-79.88406754107842
 10
-88.85728540511321
 20
-79.88406754107839
 42
0.4142135623730586
 10
-89.35728540511309
 20
-80.3840675516656
 10
-89.3572854051132
 20
-93.384067826935
 42
0.4142135623730744
 10
-88.85728540511321
 20
-93.88406783752229
 10
-75.85728540511309
 20
-93.88406783752225
 42
0.414213562373069
 10
-75.3572854051132
 20
-93.38406782693501
  0
LWPOLYLINE
  5
210
330
1F
100
AcDbEntity
  8
0
100
AcDbPolyline
 90
        8
 70
     1
 43
0.0
 10
-31.70728540511305
 20
-17.9715662301078
 10
-18.70728540511305
 20
-17.97156624069529
 42
-0.4142135623732721
 10
-18.20728540511305
 20
-18.47156624069556
 10
-18.20728539452574
 20
-31.47156651596418
 42
-0.4142135623729181
 10
-18.70728540511305
 20
-31.97156652655114
 10
-31.70728540511305
 20
-31.97156651596384
 42
-0.4142135623729181
 10
-32.20728540511306
 20
-31.47156651596418
 10
-32.2072854157006
 20
-18.47156624069558
 42
-0.4142135623732823
  0
LWPOLYLINE
  5
211
330
1F
100
AcDbEntity
  8
0
100
AcDbPolyline
 90
        8
 70
     1
 43
0.0
 10
-69.80728540511313
 20
-60.83406713770273
 10
-56.80728540511314
 20
-60.83406714829003
 42
-0.4142135623731159
 10
-56.30728540511313
 20
-61.33406714829003
 10
-56.30728539452582
 20
-74.33406742355955
 42
-0.4142135623730066
 10
-56.80728540511314
 20
-74.83406743414668
 10
-69.80728540511313
 20
-74.83406742355938
 42
-0.4142135623730118
 10
-70.30728540511313
 20
-74.33406742355953
 10
-70.30728541570045
 20
-61.33406714829006
 42
-0.4142135623731262
  0
LWPOLYLINE
  5
212
330
1F
100
AcDbEntity
  8
0
100
AcDbPolyline
 90
        8
 70
     1
 43
0.0
 10
-37.25728540511324
 20
-61.33406714829006
 10
-37.25728539452575
 20
-74.33406742355955
 42
-0.4142135623730066
 10
-37.75728540511307
 20
-74.83406743414668
 10
-50.75728540511312
 20
-74.83406742355938
 42
-0.4142135623730118
 10
-51.25728540511312
 20
-74.33406742355953
 10
-51.25728541570038
 20
-61.33406714829006
 42
-0.4142135623731262
 10
-50.75728540511312
 20
-60.83406713770272
 10
-37.75728540511307
 20
-60.83406714829003
 42
-0.4142135623731262
  0
LWPOLYLINE
  5
213
330
1F
100
AcDbEntity
  8
0
100
AcDbPolyline
 90
        8
 70
     1
 43
0.0
 10
-75.3572854051132
 20
-61.33406714829006
 10
-75.35728539452583
 20
-74.33406742355955
 42
-0.4142135623730066
 10
-75.85728540511309
 20
-74.83406743414668
 10
-88.85728540511321
 20
-74.83406742355942
 42
-0.4142135623730118
 10
-89.3572854051132
 20
-74.33406742355953
 10
-89.35728541570041
 20
-61.33406714829006
 42
-0.4142135623731262
 10
-88.85728540511321
 20
-60.83406713770272
 10
-75.85728540511309
 20
-60.83406714829003
 42
-0.4142135623731262
  0
LWPOLYLINE
  5
214
330
1F
100
AcDbEntity
  8
0
100
AcDbPolyline
 90
       42
 70
     1
 43
0.0
 10
-150.4515354051131
 20
-93.88406783752229
 10
-150.4515353945258
 20
-94.38406784810952
 42
-0.4142135623730534
 10
-150.9515354051131
 20
-94.88406785869676
 10
-156.7015354051131
 20
-94.88406784810949
 42
-0.4142135623730793
 10
-157.2015354051131
 20
-94.3840678481095
 10
-157.2015354051131
 20
-93.88406783752229
 10
-160.2947854051131
 20
-93.88406782693497
 42
-0.4142135623730951
 10
-160.7947854051132
 20
-93.384067826935
 10
-160.7947854157004
 20
-80.38406755166558
 42
-0.4142135623730793
 10
-160.2947854051131
 20
-79.88406754107838
 10
-139.3635354051131
 20
-79.88406754107831
 10
-139.3635354051131
 20
-74.83406743414668
 10
-141.2447854051131
 20
-74.8340674235594
 42
-0.4142135623730326
 10
-141.7447854051131
 20
-74.33406742355952
 10
-141.7447854157004
 20
-61.33406714829004
 42
-0.4142135623731472
 10
-141.2447854051131
 20
-60.8340671377027
 10
-128.2447854051131
 20
-60.83406714828999
 42
-0.4142135623731159
 10
-127.7447854051131
 20
-61.33406714829002
 10
-127.7447854051131
 20
-62.04606716336627
 10
-126.8635354051131
 20
-62.04606717395356
 42
-0.414213562373121
 10
-126.3635354051132
 20
-62.54606717395361
 10
-126.3635353945258
 20
-68.29606729570734
 42
-0.4142135623731262
 10
-126.8635354051131
 20
-68.79606730629467
 10
-127.7447854051131
 20
-68.79606730629465
 10
-127.7447854051131
 20
-70.35906733939052
 10
-125.8635354051131
 20
-70.35906734997777
 42
-0.414213562373121
 10
-125.3635354051132
 20
-70.85906734997782
 10
-125.3635353945258
 20
-83.85906762524724
 42
-0.414213562373069
 10
-125.8635354051131
 20
-84.35906763583446
 10
-126.5755354051132
 20
-84.35906763583451
 10
-126.5755354091881
 20
-86.01334283032532
 42
-0.2439138281503675
 10
-126.3635354051132
 20
-86.42206767951771
 10
-126.3635353980384
 20
-92.17206780127142
 42
-0.2439138281502979
 10
-126.5755354051132
 20
-92.58079265624687
 10
-126.5755353945258
 20
-94.38406784810954
 42
-0.4142135623730744
 10
-127.0755354051131
 20
-94.88406785869678
 10
-132.8255354051132
 20
-94.88406784810951
 42
-0.4142135623730793
 10
-133.3255354051132
 20
-94.3840678481095
 10
-133.3255354051131
 20
-92.67206781185874
 10
-134.8885354051132
 20
-92.67206781185874
 10
-134.8885353945258
 20
-93.384067826935
 42
-0.414213562373069
 10
-135.3885354051131
 20
-93.88406783752225
  0
LWPOLYLINE
  5
215
330
1F
100
AcDbEntity
  8
0
100
AcDbPolyline
 90
        8
 70
     1
 43
0.0
 10
-184.1072854051132
 20
-60.83406713770272
 10
-171.1072854051132
 20
-60.83406714828999
 42
-0.4142135623731159
 10
-170.6072854051132
 20
-61.33406714829002
 10
-170.6072853945258
 20
-74.33406742355955
 42
-0.4142135623730066
 10
-171.1072854051132
 20
-74.83406743414668
 10
-184.1072854051132
 20
-74.8340674235594
 42
-0.4142135623730118
 10
-184.6072854051132
 20
-74.33406742355952
 10
-184.6072854157004
 20
-61.33406714829004
 42
-0.4142135623731262
  0
LWPOLYLINE
  5
216
330
1F
100
AcDbEntity
  8
0
100
AcDbPolyline
 90
        8
 70
     1
 43
0.0
 10
-165.0572854051131
 20
-60.83406713770272
 10
-152.0572854051131
 20
-60.83406714828999
 42
-0.4142135623731159
 10
-151.5572854051131
 20
-61.33406714829002
 10
-151.5572853945258
 20
-74.33406742355955
 42
-0.4142135623730066
 10
-152.0572854051131
 20
-74.83406743414668
 10
-165.0572854051131
 20
-74.8340674235594
 42
-0.4142135623730118
 10
-165.5572854051131
 20
-74.33406742355952
 10
-165.5572854157004
 20
-61.33406714829004
 42
-0.4142135623731262
  0
LWPOLYLINE
  5
217
330
1F
100
AcDbEntity
  8
0
100
AcDbPolyline
 90
        8
 70
     1
 43
0.0
 10
-189.6572854051131
 20
-61.33406714829004
 10
-189.6572853945258
 20
-74.33406742355955
 42
-0.4142135623730274
 10
-190.1572854051131
 20
-74.83406743414668
 10
-203.1572854051132
 20
-74.8340674235594
 42
-0.4142135623730118
 10
-203.6572854051132
 20
-74.33406742355952
 10
-203.6572854157004
 20
-61.33406714829004
 42
-0.4142135623731262
 10
-203.1572854051132
 20
-60.8340671377027
 10
-190.1572854051131
 20
-60.83406714828999
 42
-0.4142135623731472
  0
LWPOLYLINE
  5
218
330
1F
100
AcDbEntity
  8
0
100
AcDbPolyline
 90
        8
 70
     1
 43
0.0
 10
-222.2072854051132
 20
-60.83406713770272
 10
-209.2072854051131
 20
-60.83406714828999
 42
-0.4142135623731159
 10
-208.7072854051131
 20
-61.33406714829002
 10
-208.7072853945258
 20
-74.33406742355955
 42
-0.4142135623730066
 10
-209.2072854051131
 20
-74.83406743414668
 10
-222.2072854051132
 20
-74.8340674235594
 42
-0.4142135623730118
 10
-222.7072854051132
 20
-74.33406742355952
 10
-222.7072854157004
 20
-61.33406714829004
 42
-0.4142135623731262
  0
LWPOLYLINE
  5
219
330
1F
100
AcDbEntity
  8
0
100
AcDbPolyline
 90
        8
 70
     1
 43
0.0
 10
-279.3572854051131
 20
-60.8340671377027
 10
-266.3572854051131
 20
-60.83406714828997
 42
-0.4142135623731159
 10
-265.8572854051131
 20
-61.33406714829
 10
-265.8572853945259
 20
-74.33406742355953
 42
-0.4142135623730066
 10
-266.3572854051131
 20
-74.83406743414666
 10
-279.3572854051131
 20
-74.83406742355938
 42
-0.4142135623730118
 10
-279.8572854051131
 20
-74.3340674235595
 10
-279.8572854157004
 20
-61.33406714829003
 42
-0.4142135623731262
  0
LWPOLYLINE
  5
220
330
1F
100
AcDbEntity
  8
0
100
AcDbPolyline
 90
        8
 70
     1
 43
0.0
 10
-323.0072854051132
 20
-61.33406714829003
 10
-323.0072853945259
 20
-74.33406742355953
 42
-0.4142135623730066
 10
-323.5072854051133
 20
-74.83406743414666
 10
-336.5072854051132
 20
-74.83406742355936
 42
-0.4142135623730118
 10
-337.0072854051132
 20
-74.3340674235595
 10
-337.0072854157005
 20
-61.33406714829003
 42
-0.4142135623731262
 10
-336.5072854051132
 20
-60.83406713770269
 10
-323.5072854051133
 20
-60.83406714828995
 42
-0.4142135623731262
  0
LWPOLYLINE
  5
221
330
1F
100
AcDbEntity
  8
0
100
AcDbPolyline
 90
        8
 70
     1
 43
0.0
 10
-355.5572854051133
 20
-60.83406713770269
 10
-342.5572854051133
 20
-60.83406714828999
 42
-0.4142135623731159
 10
-342.0572854051132
 20
-61.33406714829
 10
-342.0572853945259
 20
-74.33406742355953
 42
-0.4142135623730066
 10
-342.5572854051133
 20
-74.83406743414666
 10
-355.5572854051133
 20
-74.83406742355935
 42
-0.4142135623730118
 10
-356.0572854051132
 20
-74.33406742355948
 10
-356.0572854157005
 20
-61.33406714829002
 42
-0.4142135623731262
  0
LWPOLYLINE
  5
222
330
1F
100
AcDbEntity
  8
0
100
AcDbPolyline
 90
        8
 70
     1
 43
0.0
 10
-260.3072854051131
 20
-60.8340671377027
 10
-247.3072854051131
 20
-60.83406714828997
 42
-0.4142135623731159
 10
-246.8072854051131
 20
-61.33406714829
 10
-246.8072853945258
 20
-74.33406742355953
 42
-0.4142135623730066
 10
-247.3072854051131
 20
-74.83406743414666
 10
-260.3072854051131
 20
-74.83406742355938
 42
-0.4142135623730118
 10
-260.8072854051131
 20
-74.3340674235595
 10
-260.8072854157004
 20
-61.33406714829003
 42
-0.4142135623731262
  0
LWPOLYLINE
  5
223
330
1F
100
AcDbEntity
  8
0
100
AcDbPolyline
 90
        8
 70
     1
 43
0.0
 10
-298.4072854051131
 20
-60.8340671377027
 10
-285.4072854051132
 20
-60.83406714828997
 42
-0.4142135623731262
 10
-284.9072854051131
 20
-61.33406714829
 10
-284.9072853945258
 20
-74.33406742355953
 42
-0.414213562373017
 10
-285.4072854051132
 20
-74.83406743414666
 10
-298.4072854051131
 20
-74.83406742355938
 42
-0.4142135623730118
 10
-298.9072854051132
 20
-74.3340674235595
 10
-298.9072854157004
 20
-61.33406714829003
 42
-0.4142135623731262
  0
LWPOLYLINE
  5
224
330
1F
100
AcDbEntity
  8
0
100
AcDbPolyline
 90
        8
 70
     1
 43
0.0
 10
-241.2572854051131
 20
-60.8340671377027
 10
-228.2572854051132
 20
-60.83406714828999
 42
-0.4142135623731159
 10
-227.7572854051132
 20
-61.33406714829002
 10
-227.7572853945259
 20
-74.33406742355955
 42
-0.4142135623730066
 10
-228.2572854051132
 20
-74.83406743414668
 10
-241.2572854051131
 20
-74.83406742355938
 42
-0.4142135623730118
 10
-241.7572854051131
 20
-74.3340674235595
 10
-241.7572854157004
 20
-61.33406714829003
 42
-0.4142135623731262
  0
LWPOLYLINE
  5
225
330
1F
100
AcDbEntity
  8
0
100
AcDbPolyline
 90
        8
 70
     1
 43
0.0
 10
-317.4572854051132
 20
-60.83406713770269
 42
0.4142135623731159
 10
-317.9572854051132
 20
-61.33406714829
 10
-317.9572854051132
 20
-74.3340674235595
 42
0.4142135623730118
 10
-317.4572854051132
 20
-74.83406743414666
 10
-304.4572854051131
 20
-74.83406743414666
 42
0.4142135623730066
 10
-303.9572854051131
 20
-74.33406742355953
 10
-303.9572854051131
 20
-61.33406714829
 42
0.4142135623731159
 10
-304.4572854051131
 20
-60.8340671377027
  0
LWPOLYLINE
  5
226
330
1F
100
AcDbEntity
  8
0
100
AcDbPolyline
 90
        8
 70
     1
 43
0.0
 10
-374.6072854051132
 20
-60.83406713770269
 10
-361.6072854051132
 20
-60.83406714828997
 42
-0.4142135623731159
 10
-361.1072854051132
 20
-61.33406714828999
 10
-361.1072853945259
 20
-74.33406742355952
 42
-0.4142135623730066
 10
-361.6072854051132
 20
-74.83406743414665
 10
-374.6072854051132
 20
-74.83406742355935
 42
-0.4142135623730118
 10
-375.1072854051132
 20
-74.33406742355948
 10
-375.1072854157005
 20
-61.33406714829002
 42
-0.4142135623731262
  0
LWPOLYLINE
  5
227
330
1F
100
AcDbEntity
  8
0
100
AcDbPolyline
 90
        8
 70
     1
 43
0.0
 10
-398.4197854051132
 20
-60.83406713770269
 10
-385.4197854051132
 20
-60.83406714828997
 42
-0.4142135623731159
 10
-384.9197854051132
 20
-61.33406714828999
 10
-384.9197853945259
 20
-74.33406742355952
 42
-0.4142135623730066
 10
-385.4197854051132
 20
-74.83406743414665
 10
-398.4197854051132
 20
-74.83406742355935
 42
-0.4142135623730125
 10
-398.9197854051132
 20
-74.33406742355948
 10
-398.9197854157005
 20
-61.33406714829002
 42
-0.4142135623731262
  0
LWPOLYLINE
  5
228
330
1F
100
AcDbEntity
  8
0
100
AcDbPolyline
 90
        8
 70
     1
 43
0.0
 10
-31.70728540511305
 20
-41.7840667343272
 10
-18.70728540511305
 20
-41.78406674491458
 42
-0.4142135623730639
 10
-18.20728540511305
 20
-42.28406674491451
 10
-18.20728539452574
 20
-55.2840670201839
 42
-0.4142135623731159
 10
-18.70728540511305
 20
-55.78406703077122
 10
-31.707285405113
 20
-55.78406702018394
 42
-0.4142135623731159
 10
-32.20728540511306
 20
-55.2840670201839
 10
-32.20728541570037
 20
-42.28406674491451
 42
-0.4142135623730744
  0
LWPOLYLINE
  5
229
330
1F
100
AcDbEntity
  8
0
100
AcDbPolyline
 90
       20
 70
     1
 43
0.0
 10
-155.5322854051131
 20
-41.7840667343272
 10
-123.4822854051132
 20
-41.78406674491452
 42
-0.4142135623730639
 10
-122.9822854051132
 20
-42.28406674491449
 10
-122.9822853945259
 20
-55.28406702018388
 42
-0.4142135623731262
 10
-123.4822854051132
 20
-55.78406703077121
 10
-124.1942854051131
 20
-55.78406703077114
 10
-124.1942853945258
 20
-56.28406704135842
 42
-0.4142135623731262
 10
-124.6942854051131
 20
-56.78406705194579
 10
-130.4442854051131
 20
-56.78406704135849
 42
-0.4142135623731368
 10
-130.9442854051131
 20
-56.28406704135845
 10
-130.9442854051131
 20
-55.78406703077114
 10
-148.0702854051132
 20
-55.78406703077114
 10
-148.0702853945258
 20
-56.28406704135842
 42
-0.4142135623731262
 10
-148.570285405113
 20
-56.78406705194579
 10
-154.3202854051132
 20
-56.78406704135849
 42
-0.4142135623731159
 10
-154.8202854051131
 20
-56.28406704135845
 10
-154.8202854051131
 20
-55.78406703077114
 10
-155.5322854051131
 20
-55.78406702018395
 42
-0.4142135623731159
 10
-156.0322854051131
 20
-55.28406702018388
 10
-156.0322854157004
 20
-42.28406674491449
 42
-0.4142135623730744
  0
LWPOLYLINE
  5
230
330
1F
100
AcDbEntity
  8
0
100
AcDbPolyline
 90
        8
 70
     1
 43
0.0
 10
-50.75728540511312
 20
-41.7840667343272
 10
-37.75728540511307
 20
-41.78406674491458
 42
-0.4142135623730639
 10
-37.25728540511324
 20
-42.28406674491451
 10
-37.25728539452575
 20
-55.2840670201839
 42
-0.4142135623731159
 10
-37.75728540511307
 20
-55.78406703077122
 10
-50.75728540511306
 20
-55.78406702018394
 42
-0.4142135623731159
 10
-51.25728540511312
 20
-55.2840670201839
 10
-51.25728541570038
 20
-42.28406674491451
 42
-0.4142135623730744
  0
LWPOLYLINE
  5
231
330
1F
100
AcDbEntity
  8
0
100
AcDbPolyline
 90
        8
 70
     1
 43
0.0
 10
-69.80728540511313
 20
-41.7840667343272
 10
-56.80728540511314
 20
-41.78406674491458
 42
-0.4142135623730639
 10
-56.30728540511313
 20
-42.28406674491451
 10
-56.30728539452582
 20
-55.2840670201839
 42
-0.4142135623731159
 10
-56.80728540511314
 20
-55.78406703077122
 10
-69.80728540511307
 20
-55.78406702018394
 42
-0.4142135623731159
 10
-70.30728540511313
 20
-55.2840670201839
 10
-70.30728541570045
 20
-42.28406674491451
 42
-0.4142135623730744
  0
LWPOLYLINE
  5
232
330
1F
100
AcDbEntity
  8
0
100
AcDbPolyline
 90
        8
 70
     1
 43
0.0
 10
-88.85728540511321
 20
-41.7840667343272
 10
-75.85728540511309
 20
-41.78406674491458
 42
-0.4142135623730639
 10
-75.3572854051132
 20
-42.28406674491451
 10
-75.35728539452583
 20
-55.2840670201839
 42
-0.4142135623731159
 10
-75.85728540511309
 20
-55.78406703077122
 10
-88.85728540511321
 20
-55.78406702018397
 42
-0.4142135623731159
 10
-89.3572854051132
 20
-55.2840670201839
 10
-89.35728541570041
 20
-42.28406674491451
 42
-0.4142135623730744
  0
LWPOLYLINE
  5
233
330
1F
100
AcDbEntity
  8
0
100
AcDbPolyline
 90
        8
 70
     1
 43
0.0
 10
-326.9822854051132
 20
-41.78406673432718
 10
-313.9822854051133
 20
-41.7840667449145
 42
-0.4142135623730639
 10
-313.4822854051132
 20
-42.28406674491448
 10
-313.482285394526
 20
-55.28406702018386
 42
-0.4142135623731262
 10
-313.9822854051133
 20
-55.7840670307712
 10
-326.9822854051132
 20
-55.78406702018394
 42
-0.4142135623731159
 10
-327.4822854051132
 20
-55.28406702018386
 10
-327.4822854157005
 20
-42.28406674491448
 42
-0.4142135623730744
  0
LWPOLYLINE
  5
234
330
1F
100
AcDbEntity
  8
0
100
AcDbPolyline
 90
        8
 70
     1
 43
0.0
 10
-174.5822854051132
 20
-41.78406673432725
 42
0.4142135623730639
 10
-175.0822854051132
 20
-42.28406674491449
 10
-175.0822854051132
 20
-55.28406702018388
 42
0.4142135623731159
 10
-174.5822854051132
 20
-55.78406703077121
 10
-161.5822854051132
 20
-55.78406703077121
 42
0.4142135623731159
 10
-161.0822854051132
 20
-55.28406702018388
 10
-161.0822854051131
 20
-42.28406674491449
 42
0.4142135623730639
 10
-161.5822854051132
 20
-41.7840667343272
  0
LWPOLYLINE
  5
235
330
1F
100
AcDbEntity
  8
0
100
AcDbPolyline
 90
        8
 70
     1
 43
0.0
 10
-250.7822854051131
 20
-41.78406673432718
 10
-237.7822854051132
 20
-41.7840667449145
 42
-0.4142135623730639
 10
-237.2822854051131
 20
-42.28406674491448
 10
-237.2822853945258
 20
-55.28406702018386
 42
-0.4142135623731159
 10
-237.7822854051131
 20
-55.7840670307712
 10
-250.7822854051131
 20
-55.78406702018394
 42
-0.4142135623731159
 10
-251.2822854051131
 20
-55.28406702018386
 10
-251.2822854157004
 20
-42.28406674491448
 42
-0.4142135623730744
  0
LWPOLYLINE
  5
236
330
1F
100
AcDbEntity
  8
0
100
AcDbPolyline
 90
        8
 70
     1
 43
0.0
 10
-193.6322854051132
 20
-41.7840667343272
 10
-180.6322854051131
 20
-41.78406674491452
 42
-0.4142135623730639
 10
-180.1322854051132
 20
-42.28406674491449
 10
-180.1322853945258
 20
-55.28406702018388
 42
-0.4142135623731159
 10
-180.6322854051131
 20
-55.78406703077121
 10
-193.6322854051132
 20
-55.78406702018395
 42
-0.4142135623731159
 10
-194.1322854051131
 20
-55.28406702018388
 10
-194.1322854157005
 20
-42.28406674491449
 42
-0.4142135623730744
  0
LWPOLYLINE
  5
237
330
1F
100
AcDbEntity
  8
0
100
AcDbPolyline
 90
        8
 70
     1
 43
0.0
 10
-212.6822854051131
 20
-41.7840667343272
 10
-199.6822854051131
 20
-41.78406674491452
 42
-0.4142135623730639
 10
-199.1822854051131
 20
-42.28406674491449
 10
-199.1822853945258
 20
-55.28406702018388
 42
-0.4142135623731159
 10
-199.6822854051131
 20
-55.78406703077121
 10
-212.6822854051131
 20
-55.78406702018395
 42
-0.4142135623731159
 10
-213.1822854051131
 20
-55.28406702018388
 10
-213.1822854157004
 20
-42.28406674491449
 42
-0.4142135623730744
  0
LWPOLYLINE
  5
238
330
1F
100
AcDbEntity
  8
0
100
AcDbPolyline
 90
        8
 70
     1
 43
0.0
 10
-231.7322854051131
 20
-41.7840667343272
 10
-218.7322854051132
 20
-41.78406674491452
 42
-0.4142135623730639
 10
-218.2322854051132
 20
-42.28406674491449
 10
-218.2322853945258
 20
-55.28406702018388
 42
-0.4142135623731159
 10
-218.7322854051132
 20
-55.78406703077121
 10
-231.7322854051131
 20
-55.78406702018395
 42
-0.4142135623731159
 10
-232.2322854051131
 20
-55.28406702018386
 10
-232.2322854157004
 20
-42.28406674491448
 42
-0.4142135623730744
  0
LWPOLYLINE
  5
239
330
1F
100
AcDbEntity
  8
0
100
AcDbPolyline
 90
        8
 70
     1
 43
0.0
 10
-384.1322854051132
 20
-41.78406673432717
 10
-371.1322854051132
 20
-41.7840667449145
 42
-0.4142135623730639
 10
-370.6322854051133
 20
-42.28406674491447
 10
-370.632285394526
 20
-55.28406702018386
 42
-0.4142135623731159
 10
-371.1322854051132
 20
-55.78406703077118
 10
-384.1322854051132
 20
-55.78406702018392
 42
-0.4142135623731159
 10
-384.6322854051132
 20
-55.28406702018386
 10
-384.6322854157006
 20
-42.28406674491447
 42
-0.4142135623730744
  0
LWPOLYLINE
  5
240
330
1F
100
AcDbEntity
  8
0
100
AcDbPolyline
 90
        8
 70
     1
 43
0.0
 10
-332.5322854051132
 20
-42.28406674491448
 10
-332.532285394526
 20
-55.28406702018386
 42
-0.4142135623731159
 10
-333.0322854051132
 20
-55.7840670307712
 10
-346.0322854051132
 20
-55.78406702018394
 42
-0.4142135623731159
 10
-346.5322854051132
 20
-55.28406702018386
 10
-346.5322854157005
 20
-42.28406674491448
 42
-0.4142135623730744
 10
-346.0322854051132
 20
-41.78406673432724
 10
-333.0322854051132
 20
-41.7840667449145
 42
-0.4142135623730744
  0
LWPOLYLINE
  5
241
330
1F
100
AcDbEntity
  8
0
100
AcDbPolyline
 90
        8
 70
     1
 43
0.0
 10
-307.9322854051132
 20
-41.78406673432718
 10
-294.9322854051132
 20
-41.7840667449145
 42
-0.4142135623730639
 10
-294.4322854051131
 20
-42.28406674491448
 10
-294.4322853945258
 20
-55.28406702018386
 42
-0.4142135623731159
 10
-294.9322854051132
 20
-55.7840670307712
 10
-307.9322854051132
 20
-55.78406702018394
 42
-0.4142135623731159
 10
-308.4322854051132
 20
-55.28406702018386
 10
-308.4322854157005
 20
-42.28406674491448
 42
-0.4142135623730744
  0
LWPOLYLINE
  5
242
330
1F
100
AcDbEntity
  8
0
100
AcDbPolyline
 90
        8
 70
     1
 43
0.0
 10
-288.8822854051131
 20
-41.78406673432718
 10
-275.8822854051131
 20
-41.7840667449145
 42
-0.4142135623730639
 10
-275.3822854051131
 20
-42.28406674491448
 10
-275.3822853945258
 20
-55.28406702018386
 42
-0.4142135623731159
 10
-275.8822854051131
 20
-55.7840670307712
 10
-288.8822854051131
 20
-55.78406702018394
 42
-0.4142135623731159
 10
-289.3822854051131
 20
-55.28406702018386
 10
-289.3822854157004
 20
-42.28406674491448
 42
-0.4142135623730744
  0
LWPOLYLINE
  5
243
330
1F
100
AcDbEntity
  8
0
100
AcDbPolyline
 90
        8
 70
     1
 43
0.0
 10
-403.1822854051132
 20
-17.97156623010775
 10
-390.1822854051133
 20
-17.97156624069522
 42
-0.4142135623732746
 10
-389.6822854051133
 20
-18.47156624069552
 10
-389.6822853945259
 20
-31.47156651596414
 42
-0.4142135623729195
 10
-390.1822854051133
 20
-31.9715665265511
 10
-403.1822854051132
 20
-31.97156651596382
 42
-0.4142135623729188
 10
-403.6822854051132
 20
-31.47156651596414
 10
-403.6822854157007
 20
-18.47156624069554
 42
-0.4142135623732823
  0
LWPOLYLINE
  5
244
330
1F
100
AcDbEntity
  8
0
100
AcDbPolyline
 90
        8
 70
     1
 43
0.0
 10
-261.0947854051131
 20
-80.38406755166557
 10
-261.0947853945258
 20
-93.38406782693498
 42
-0.4142135623730586
 10
-261.5947854051131
 20
-93.88406783752222
 10
-274.5947854051132
 20
-93.88406782693495
 42
-0.4142135623730744
 10
-275.0947854051132
 20
-93.38406782693498
 10
-275.0947854157004
 20
-80.38406755166557
 42
-0.4142135623730586
 10
-274.5947854051132
 20
-79.88406754107836
 10
-261.5947854051132
 20
-79.88406755166564
 42
-0.4142135623730482
  0
LWPOLYLINE
  5
245
330
1F
100
AcDbEntity
  8
0
100
AcDbPolyline
 90
        8
 70
     1
 43
0.0
 10
-293.6447854051131
 20
-79.88406754107829
 10
-280.6447854051131
 20
-79.88406755166564
 42
-0.4142135623730482
 10
-280.1447854051131
 20
-80.38406755166557
 10
-280.1447853945258
 20
-93.38406782693498
 42
-0.4142135623730586
 10
-280.6447854051131
 20
-93.88406783752222
 10
-293.6447854051131
 20
-93.88406782693495
 42
-0.4142135623730744
 10
-294.1447854051131
 20
-93.38406782693498
 10
-294.1447854157004
 20
-80.38406755166557
 42
-0.4142135623730586
  0
LWPOLYLINE
  5
246
330
1F
100
AcDbEntity
  8
0
100
AcDbPolyline
 90
        8
 70
     1
 43
0.0
 10
-312.6947854051132
 20
-79.88406754107829
 10
-299.6947854051131
 20
-79.88406755166564
 42
-0.4142135623730586
 10
-299.1947854051131
 20
-80.38406755166557
 10
-299.1947853945259
 20
-93.38406782693498
 42
-0.414213562373069
 10
-299.6947854051131
 20
-93.88406783752222
 10
-312.6947854051132
 20
-93.88406782693495
 42
-0.4142135623730744
 10
-313.1947854051133
 20
-93.38406782693498
 10
-313.1947854157005
 20
-80.38406755166557
 42
-0.4142135623730586
  0
LWPOLYLINE
  5
247
330
1F
100
AcDbEntity
  8
0
100
AcDbPolyline
 90
        8
 70
     1
 43
0.0
 10
-400.8010354051132
 20
-79.88406754107828
 10
-383.0385354051133
 20
-79.88406755166562
 42
-0.4142135623730586
 10
-382.5385354051132
 20
-80.38406755166555
 10
-382.538535394526
 20
-93.38406782693496
 42
-0.414213562373069
 10
-383.0385354051133
 20
-93.88406783752222
 10
-400.8010354051132
 20
-93.88406782693492
 42
-0.4142135623730744
 10
-401.3010354051131
 20
-93.38406782693496
 10
-401.3010354157005
 20
-80.38406755166555
 42
-0.4142135623730586
  0
LWPOLYLINE
  5
248
330
1F
100
AcDbEntity
  8
0
100
AcDbPolyline
 90
        8
 70
     1
 43
0.0
 10
-331.7447854051132
 20
-79.88406754107828
 10
-318.7447854051132
 20
-79.88406755166564
 42
-0.4142135623730586
 10
-318.2447854051132
 20
-80.38406755166557
 10
-318.2447853945259
 20
-93.38406782693498
 42
-0.414213562373069
 10
-318.7447854051132
 20
-93.88406783752222
 10
-331.7447854051132
 20
-93.88406782693492
 42
-0.4142135623730744
 10
-332.2447854051132
 20
-93.38406782693496
 10
-332.2447854157005
 20
-80.38406755166557
 42
-0.4142135623730586
  0
LWPOLYLINE
  5
249
330
1F
100
AcDbEntity
  8
0
100
AcDbPolyline
 90
        8
 70
     1
 43
0.0
 10
-350.7947854051132
 20
-79.88406754107828
 10
-337.7947854051132
 20
-79.88406755166562
 42
-0.4142135623730586
 10
-337.2947854051132
 20
-80.38406755166557
 10
-337.2947853945259
 20
-93.38406782693496
 42
-0.414213562373069
 10
-337.7947854051132
 20
-93.88406783752222
 10
-350.7947854051132
 20
-93.88406782693492
 42
-0.4142135623730744
 10
-351.2947854051132
 20
-93.38406782693496
 10
-351.2947854157005
 20
-80.38406755166557
 42
-0.4142135623730586
  0
LWPOLYLINE
  5
250
330
1F
100
AcDbEntity
  8
0
100
AcDbPolyline
 90
        8
 70
     1
 43
0.0
 10
-369.8447854051132
 20
-79.88406754107836
 42
0.4142135623730586
 10
-370.3447854051132
 20
-80.38406755166557
 10
-370.3447854051132
 20
-93.38406782693496
 42
0.4142135623730744
 10
-369.8447854051132
 20
-93.88406783752225
 10
-356.8447854051132
 20
-93.88406783752222
 42
0.414213562373069
 10
-356.3447854051132
 20
-93.38406782693496
 10
-356.3447854051132
 20
-80.38406755166557
 42
0.4142135623730586
 10
-356.8447854051132
 20
-79.88406754107828
  0
LWPOLYLINE
  5
251
330
1F
100
AcDbEntity
  8
0
100
AcDbPolyline
 90
        8
 70
     1
 43
0.0
 10
-112.6697854051132
 20
-122.7465684486732
 10
-99.66978540511309
 20
-122.7465684592605
 42
-0.4142135623731029
 10
-99.16978540511321
 20
-123.2465684592606
 10
-99.16978539452584
 20
-136.2465687345299
 42
-0.4142135623730657
 10
-99.66978540511309
 20
-136.7465687451172
 10
-112.6697854051132
 20
-136.7465687345299
 42
-0.4142135623730866
 10
-113.1697854051132
 20
-136.2465687345299
 10
-113.1697854157004
 20
-123.2465684592606
 42
-0.4142135623731237
  0
LWPOLYLINE
  5
252
330
1F
100
AcDbEntity
  8
0
100
AcDbPolyline
 90
        8
 70
     1
 43
0.0
 10
-118.2197854051131
 20
-123.2465684592606
 10
-118.2197853945258
 20
-136.2465687345299
 42
-0.4142135623730657
 10
-118.719785405113
 20
-136.7465687451172
 10
-131.7197854051132
 20
-136.7465687345299
 42
-0.4142135623730866
 10
-132.2197854051132
 20
-136.2465687345299
 10
-132.2197854157004
 20
-123.2465684592606
 42
-0.4142135623731237
 10
-131.7197854051132
 20
-122.7465684486732
 10
-118.719785405113
 20
-122.7465684592605
 42
-0.4142135623731029
  0
LWPOLYLINE
  5
253
330
1F
100
AcDbEntity
  8
0
100
AcDbPolyline
 90
        8
 70
     1
 43
0.0
 10
-93.61978540511314
 20
-122.7465684486732
 10
-80.61978540511313
 20
-122.7465684592605
 42
-0.4142135623731237
 10
-80.11978540511313
 20
-123.2465684592606
 10
-80.11978539452583
 20
-136.2465687345299
 42
-0.4142135623730866
 10
-80.61978540511313
 20
-136.7465687451172
 10
-93.61978540511314
 20
-136.7465687345299
 42
-0.4142135623730866
 10
-94.11978540511313
 20
-136.2465687345299
 10
-94.11978541570039
 20
-123.2465684592606
 42
-0.4142135623731237
  0
LWPOLYLINE
  5
254
330
1F
100
AcDbEntity
  8
0
100
AcDbPolyline
 90
       20
 70
     1
 43
0.0
 10
-32.20728540511306
 20
-106.8960681130458
 10
-32.707285405113
 20
-106.8960681024585
 42
-0.4142135623731237
 10
-33.207285405113
 20
-106.3960681024584
 10
-33.20728541570031
 20
-100.6460679807047
 42
-0.4142135623730639
 10
-32.707285405113
 20
-100.1460679701175
 10
-32.20728540511306
 20
-100.1460679701174
 10
-32.20728541570037
 20
-99.43406795504117
 42
-0.4142135623731106
 10
-31.70728540511305
 20
-98.93406794445384
 10
-18.70728540511305
 20
-98.93406795504118
 42
-0.4142135623731159
 10
-18.20728540511305
 20
-99.43406795504117
 10
-18.20728539452574
 20
-131.4840686336861
 42
-0.4142135623730879
 10
-18.70728540511305
 20
-131.9840686442733
 10
-31.70728540511305
 20
-131.984068633686
 42
-0.4142135623730879
 10
-32.20728540511306
 20
-131.4840686336861
 10
-32.20728540511323
 20
-130.7720686186097
 10
-32.707285405113
 20
-130.7720686080223
 42
-0.414213562373069
 10
-33.207285405113
 20
-130.2720686080224
 10
-33.20728541570031
 20
-124.5220684862687
 42
-0.4142135623731224
 10
-32.707285405113
 20
-124.0220684756814
 10
-32.20728540511306
 20
-124.0220684756814
  0
LWPOLYLINE
  5
255
330
1F
100
AcDbEntity
  8
0
100
AcDbPolyline
 90
        8
 70
     1
 43
0.0
 10
-50.75728540511312
 20
-117.9840683478294
 10
-37.75728540511307
 20
-117.9840683584167
 42
-0.4142135623730639
 10
-37.25728540511324
 20
-118.4840683584166
 10
-37.25728539452575
 20
-131.484068633686
 42
-0.4142135623730879
 10
-37.75728540511307
 20
-131.9840686442733
 10
-50.75728540511312
 20
-131.984068633686
 42
-0.4142135623730879
 10
-51.25728540511312
 20
-131.484068633686
 10
-51.25728541570038
 20
-118.4840683584166
 42
-0.4142135623730612
  0
LWPOLYLINE
  5
256
330
1F
100
AcDbEntity
  8
0
100
AcDbPolyline
 90
        8
 70
     1
 43
0.0
 10
-69.80728540511313
 20
-117.9840683478294
 10
-56.80728540511314
 20
-117.9840683584167
 42
-0.4142135623730639
 10
-56.30728540511313
 20
-118.4840683584166
 10
-56.30728539452582
 20
-131.484068633686
 42
-0.4142135623730905
 10
-56.80728540511314
 20
-131.9840686442733
 10
-69.80728540511313
 20
-131.984068633686
 42
-0.414213562373084
 10
-70.30728540511313
 20
-131.484068633686
 10
-70.30728541570045
 20
-118.4840683584166
 42
-0.4142135623730612
  0
LWPOLYLINE
  5
257
330
1F
100
AcDbEntity
  8
0
100
AcDbPolyline
 90
       14
 70
     1
 43
0.0
 10
-209.5572854051131
 20
-131.9840686442733
 10
-212.6822854051131
 20
-131.984068633686
 42
-0.414213562373084
 10
-213.1822854051131
 20
-131.484068633686
 10
-213.1822854157004
 20
-118.4840683584166
 42
-0.4142135623730612
 10
-212.6822854051131
 20
-117.9840683478293
 10
-199.6822854051131
 20
-117.9840683584166
 42
-0.4142135623730639
 10
-199.1822854051131
 20
-118.4840683584166
 10
-199.1822853945258
 20
-131.484068633686
 42
-0.4142135623730847
 10
-199.6822854051131
 20
-131.9840686442733
 10
-202.8072854051131
 20
-131.9840686442733
 10
-202.8072853945258
 20
-132.4840686548606
 42
-0.4142135623730872
 10
-203.3072854051131
 20
-132.9840686654479
 10
-209.0572854051131
 20
-132.9840686548606
 42
-0.4142135623730872
 10
-209.5572854051131
 20
-132.4840686548606
  0
LWPOLYLINE
  5
258
330
1F
100
AcDbEntity
  8
0
100
AcDbPolyline
 90
        8
 70
     1
 43
0.0
 10
-328.1135354051132
 20
-118.9840683690039
 10
-317.6072854051132
 20
-118.9840683795912
 42
-0.4142135623730639
 10
-317.1072854051133
 20
-119.4840683795912
 10
-317.107285394526
 20
-132.4840686548606
 42
-0.4142135623730833
 10
-317.6072854051132
 20
-132.9840686654478
 10
-328.1135354051132
 20
-132.9840686548606
 42
-0.4142135623730872
 10
-328.6135354051132
 20
-132.4840686548606
 10
-328.6135354157005
 20
-119.4840683795912
 42
-0.4142135623730639
  0
LWPOLYLINE
  5
259
330
1F
100
AcDbEntity
  8
0
100
AcDbPolyline
 90
        8
 70
     1
 43
0.0
 10
-361.6072854051132
 20
-131.9840686442733
 10
-376.9885354051132
 20
-131.984068633686
 42
-0.4142135623730898
 10
-377.4885354051132
 20
-131.484068633686
 10
-377.4885354157005
 20
-118.4840683584166
 42
-0.4142135623730612
 10
-376.9885354051132
 20
-117.9840683478293
 10
-361.6072854051132
 20
-117.9840683584166
 42
-0.4142135623730639
 10
-361.1072854051132
 20
-118.4840683584166
 10
-361.1072853945259
 20
-131.484068633686
 42
-0.4142135623730905
  0
LWPOLYLINE
  5
260
330
1F
100
AcDbEntity
  8
0
100
AcDbPolyline
 90
        8
 70
     1
 43
0.0
 10
-337.7947854051132
 20
-131.9840686442733
 10
-353.1760354051132
 20
-131.984068633686
 42
-0.4142135623730898
 10
-353.6760354051132
 20
-131.484068633686
 10
-353.6760354157006
 20
-118.4840683584166
 42
-0.4142135623730612
 10
-353.1760354051132
 20
-117.9840683478293
 10
-337.7947854051132
 20
-117.9840683584166
 42
-0.4142135623730639
 10
-337.2947854051132
 20
-118.4840683584166
 10
-337.2947853945259
 20
-131.484068633686
 42
-0.4142135623730905
  0
LWPOLYLINE
  5
261
330
1F
100
AcDbEntity
  8
0
100
AcDbPolyline
 90
        8
 70
     1
 43
0.0
 10
-384.9197854051133
 20
-118.4840683584166
 10
-384.9197853945259
 20
-131.484068633686
 42
-0.4142135623730905
 10
-385.4197854051133
 20
-131.9840686442733
 10
-400.8010354051132
 20
-131.984068633686
 42
-0.4142135623730898
 10
-401.3010354051131
 20
-131.484068633686
 10
-401.3010354157005
 20
-118.4840683584166
 42
-0.4142135623730612
 10
-400.8010354051132
 20
-117.9840683478293
 10
-385.4197854051132
 20
-117.9840683584166
 42
-0.4142135623730612
  0
LWPOLYLINE
  5
262
330
1F
100
AcDbEntity
  8
0
100
AcDbPolyline
 90
        8
 70
     1
 43
0.0
 10
-228.1135354051131
 20
-118.9840683690039
 10
-222.3635354051132
 20
-118.9840683795913
 42
-0.4142135623730639
 10
-221.8635354051131
 20
-119.4840683795912
 10
-221.8635353945258
 20
-132.4840686548606
 42
-0.4142135623730879
 10
-222.3635354051132
 20
-132.9840686654479
 10
-228.1135354051131
 20
-132.9840686548606
 42
-0.4142135623730872
 10
-228.6135354051131
 20
-132.4840686548606
 10
-228.6135354157005
 20
-119.4840683795912
 42
-0.4142135623730639
  0
LWPOLYLINE
  5
263
330
1F
100
AcDbEntity
  8
0
100
AcDbPolyline
 90
        8
 70
     1
 43
0.0
 10
-69.80728540511313
 20
-98.93406794445384
 42
0.4142135623731159
 10
-70.30728540511313
 20
-99.43406795504117
 10
-70.30728540511313
 20
-112.4340682303106
 42
0.4142135623730639
 10
-69.80728540511313
 20
-112.9340682408978
 10
-56.80728540511314
 20
-112.9340682408978
 42
0.4142135623730665
 10
-56.30728540511313
 20
-112.4340682303105
 10
-56.30728540511313
 20
-99.43406795504117
 42
0.4142135623731159
 10
-56.80728540511314
 20
-98.9340679444539
  0
LWPOLYLINE
  5
264
330
1F
100
AcDbEntity
  8
0
100
AcDbPolyline
 90
        8
 70
     1
 43
0.0
 10
-99.16978540511321
 20
-104.196568055885
 10
-99.16978539452589
 20
-117.1965683311544
 42
-0.4142135623730456
 10
-99.66978540511309
 20
-117.6965683417416
 10
-112.6697854051132
 20
-117.6965683311544
 42
-0.4142135623730665
 10
-113.1697854051132
 20
-117.1965683311544
 10
-113.1697854157004
 20
-104.196568055885
 42
-0.4142135623730639
 10
-112.6697854051132
 20
-103.6965680452977
 10
-99.6697854051132
 20
-103.696568055885
 42
-0.4142135623730431
  0
LWPOLYLINE
  5
265
330
1F
100
AcDbEntity
  8
0
100
AcDbPolyline
 90
        8
 70
     1
 43
0.0
 10
-37.25728540511324
 20
-99.43406795504117
 10
-37.25728539452575
 20
-112.4340682303105
 42
-0.4142135623730665
 10
-37.75728540511307
 20
-112.9340682408978
 10
-50.75728540511312
 20
-112.9340682303105
 42
-0.4142135623730639
 10
-51.25728540511312
 20
-112.4340682303106
 10
-51.25728541570038
 20
-99.43406795504117
 42
-0.4142135623731106
 10
-50.75728540511312
 20
-98.93406794445384
 10
-37.75728540511307
 20
-98.93406795504118
 42
-0.4142135623731106
  0
LWPOLYLINE
  5
266
330
1F
100
AcDbEntity
  8
0
100
AcDbPolyline
 90
        8
 70
     1
 43
0.0
 10
-88.85728540511321
 20
-98.93406794445386
 10
-75.85728540511309
 20
-98.93406795504118
 42
-0.4142135623731159
 10
-75.3572854051132
 20
-99.43406795504117
 10
-75.35728539452583
 20
-112.4340682303105
 42
-0.4142135623730665
 10
-75.85728540511309
 20
-112.9340682408978
 10
-88.85728540511308
 20
-112.9340682303105
 42
-0.4142135623730639
 10
-89.3572854051132
 20
-112.4340682303105
 10
-89.35728541570041
 20
-99.43406795504117
 42
-0.4142135623731106
  0
LWPOLYLINE
  5
267
330
1F
100
AcDbEntity
  8
0
100
AcDbPolyline
 90
       14
 70
     1
 43
0.0
 10
-162.6760354051132
 20
-98.93406794445386
 10
-140.1510354051131
 20
-98.93406795504112
 42
-0.4142135623730951
 10
-139.6510354051131
 20
-99.43406795504117
 10
-139.6510353945258
 20
-112.4340682303105
 42
-0.4142135623730456
 10
-140.1510354051131
 20
-112.9340682408978
 10
-155.2140354051132
 20
-112.9340682408978
 10
-155.2140353945258
 20
-113.4340682514851
 42
-0.4142135623731262
 10
-155.7140354051131
 20
-113.9340682620724
 10
-161.4640354051132
 20
-113.9340682514851
 42
-0.4142135623731262
 10
-161.9640354051132
 20
-113.4340682514851
 10
-161.9640354051131
 20
-112.9340682408978
 10
-162.6760354051131
 20
-112.9340682303105
 42
-0.4142135623730639
 10
-163.1760354051132
 20
-112.4340682303105
 10
-163.1760354157004
 20
-99.43406795504115
 42
-0.4142135623731106
  0
LWPOLYLINE
  5
268
330
1F
100
AcDbEntity
  8
0
100
AcDbPolyline
 90
       14
 70
     1
 43
0.0
 10
-136.9822854051132
 20
-99.9340679656284
 10
-136.9822854157004
 20
-99.43406795504117
 42
-0.4142135623731106
 10
-136.4822854051131
 20
-98.93406794445382
 10
-123.4822854051132
 20
-98.93406795504112
 42
-0.4142135623731159
 10
-122.9822854051132
 20
-99.43406795504117
 10
-122.9822853945258
 20
-112.4340682303105
 42
-0.4142135623730665
 10
-123.4822854051132
 20
-112.9340682408978
 10
-131.3380354051132
 20
-112.9340682408978
 10
-131.3380353945258
 20
-113.4340682514851
 42
-0.4142135623731055
 10
-131.8380354051131
 20
-113.9340682620724
 10
-137.5880354051131
 20
-113.9340682514851
 42
-0.4142135623731262
 10
-138.0880354051132
 20
-113.4340682514851
 10
-138.0880354157004
 20
-100.4340679762158
 42
-0.414213562373168
 10
-137.5880354051132
 20
-99.93406796562837
  0
LWPOLYLINE
  5
269
330
1F
100
AcDbEntity
  8
0
100
AcDbPolyline
 90
        8
 70
     1
 43
0.0
 10
-226.9697854051131
 20
-98.93406794445386
 10
-213.9697854051131
 20
-98.93406795504112
 42
-0.4142135623731159
 10
-213.4697854051132
 20
-99.43406795504115
 10
-213.4697853945259
 20
-112.4340682303105
 42
-0.4142135623730665
 10
-213.9697854051131
 20
-112.9340682408978
 10
-226.9697854051131
 20
-112.9340682303105
 42
-0.4142135623730639
 10
-227.4697854051132
 20
-112.4340682303105
 10
-227.4697854157004
 20
-99.43406795504115
 42
-0.4142135623731106
  0
LWPOLYLINE
  5
270
330
1F
100
AcDbEntity
  8
0
100
AcDbPolyline
 90
        8
 70
     1
 43
0.0
 10
-207.9197854051131
 20
-98.93406794445386
 10
-194.9197854051131
 20
-98.93406795504112
 42
-0.4142135623731159
 10
-194.4197854051131
 20
-99.43406795504117
 10
-194.4197853945258
 20
-112.4340682303105
 42
-0.4142135623730665
 10
-194.9197854051131
 20
-112.9340682408978
 10
-207.9197854051131
 20
-112.9340682303105
 42
-0.4142135623730639
 10
-208.4197854051132
 20
-112.4340682303105
 10
-208.4197854157004
 20
-99.43406795504115
 42
-0.4142135623731106
  0
LWPOLYLINE
  5
271
330
1F
100
AcDbEntity
  8
0
100
AcDbPolyline
 90
        8
 70
     1
 43
0.0
 10
-188.8697854051131
 20
-98.93406794445386
 10
-175.8697854051131
 20
-98.93406795504112
 42
-0.4142135623731159
 10
-175.3697854051131
 20
-99.43406795504117
 10
-175.3697853945258
 20
-112.4340682303105
 42
-0.4142135623730665
 10
-175.8697854051131
 20
-112.9340682408978
 10
-188.8697854051131
 20
-112.9340682303105
 42
-0.4142135623730639
 10
-189.3697854051131
 20
-112.4340682303105
 10
-189.3697854157004
 20
-99.43406795504115
 42
-0.4142135623731106
  0
LWPOLYLINE
  5
272
330
1F
100
AcDbEntity
  8
0
100
AcDbPolyline
 90
        8
 70
     1
 43
0.0
 10
-265.0697854051131
 20
-98.93406794445384
 10
-252.0697854051131
 20
-98.93406795504112
 42
-0.4142135623731159
 10
-251.5697854051131
 20
-99.43406795504115
 10
-251.5697853945259
 20
-112.4340682303105
 42
-0.4142135623730665
 10
-252.0697854051131
 20
-112.9340682408978
 10
-265.0697854051131
 20
-112.9340682303105
 42
-0.4142135623730639
 10
-265.5697854051131
 20
-112.4340682303105
 10
-265.5697854157004
 20
-99.43406795504115
 42
-0.4142135623731106
  0
LWPOLYLINE
  5
273
330
1F
100
AcDbEntity
  8
0
100
AcDbPolyline
 90
        8
 70
     1
 43
0.0
 10
-303.1697854051131
 20
-98.93406794445384
 10
-290.1697854051132
 20
-98.93406795504111
 42
-0.4142135623731055
 10
-289.6697854051132
 20
-99.43406795504115
 10
-289.6697853945259
 20
-112.4340682303105
 42
-0.4142135623730561
 10
-290.1697854051132
 20
-112.9340682408978
 10
-303.1697854051131
 20
-112.9340682303105
 42
-0.4142135623730639
 10
-303.6697854051131
 20
-112.4340682303105
 10
-303.6697854157004
 20
-99.43406795504115
 42
-0.4142135623731106
  0
LWPOLYLINE
  5
274
330
1F
100
AcDbEntity
  8
0
100
AcDbPolyline
 90
        8
 70
     1
 43
0.0
 10
-284.1197854051131
 20
-98.93406794445382
 42
0.4142135623731159
 10
-284.6197854051131
 20
-99.43406795504115
 10
-284.6197854051131
 20
-112.4340682303105
 42
0.4142135623730639
 10
-284.1197854051131
 20
-112.9340682408978
 10
-271.1197854051131
 20
-112.9340682408978
 42
0.4142135623730561
 10
-270.6197854051132
 20
-112.4340682303105
 10
-270.6197854051132
 20
-99.43406795504115
 42
0.4142135623731055
 10
-271.1197854051131
 20
-98.93406794445384
  0
LWPOLYLINE
  5
275
330
1F
100
AcDbEntity
  8
0
100
AcDbPolyline
 90
        8
 70
     1
 43
0.0
 10
-246.0197854051131
 20
-98.93406794445382
 42
0.4142135623731159
 10
-246.5197854051132
 20
-99.43406795504115
 10
-246.5197854051132
 20
-112.4340682303105
 42
0.4142135623730639
 10
-246.0197854051131
 20
-112.9340682408978
 10
-233.0197854051131
 20
-112.9340682408978
 42
0.4142135623730665
 10
-232.5197854051131
 20
-112.4340682303105
 10
-232.5197854051131
 20
-99.43406795504115
 42
0.4142135623731159
 10
-233.0197854051131
 20
-98.93406794445386
  0
LWPOLYLINE
  5
276
330
1F
100
AcDbEntity
  8
0
100
AcDbPolyline
 90
        8
 70
     1
 43
0.0
 10
-322.2197854051132
 20
-98.93406794445382
 10
-309.2197854051133
 20
-98.93406795504111
 42
-0.4142135623731159
 10
-308.7197854051132
 20
-99.43406795504115
 10
-308.719785394526
 20
-112.4340682303105
 42
-0.4142135623730665
 10
-309.2197854051133
 20
-112.9340682408978
 10
-322.2197854051132
 20
-112.9340682303105
 42
-0.4142135623730639
 10
-322.7197854051133
 20
-112.4340682303105
 10
-322.7197854157005
 20
-99.43406795504113
 42
-0.4142135623731106
  0
LWPOLYLINE
  5
277
330
1F
100
AcDbEntity
  8
0
100
AcDbPolyline
 90
        8
 70
     1
 43
0.0
 10
-360.3197854051132
 20
-98.93406794445382
 10
-347.3197854051132
 20
-98.93406795504109
 42
-0.4142135623731159
 10
-346.8197854051132
 20
-99.43406795504115
 10
-346.8197853945259
 20
-112.4340682303105
 42
-0.4142135623730665
 10
-347.3197854051132
 20
-112.9340682408978
 10
-360.3197854051132
 20
-112.9340682303105
 42
-0.4142135623730639
 10
-360.8197854051133
 20
-112.4340682303105
 10
-360.8197854157005
 20
-99.43406795504113
 42
-0.4142135623731106
  0
LWPOLYLINE
  5
278
330
1F
100
AcDbEntity
  8
0
100
AcDbPolyline
 90
       20
 70
     1
 43
0.0
 10
-400.8010354051132
 20
-98.93406794445382
 10
-366.3697854051132
 20
-98.93406795504109
 42
-0.4142135623731159
 10
-365.8697854051133
 20
-99.43406795504115
 10
-365.8697853945259
 20
-112.4340682303105
 42
-0.4142135623730665
 10
-366.3697854051132
 20
-112.9340682408978
 10
-369.4630354051132
 20
-112.9340682408978
 10
-369.4630353945259
 20
-113.434068251485
 42
-0.4142135623731262
 10
-369.9630354051133
 20
-113.9340682620724
 10
-375.7130354051132
 20
-113.9340682514851
 42
-0.4142135623731262
 10
-376.2130354051133
 20
-113.434068251485
 10
-376.2130354051133
 20
-112.9340682408978
 10
-393.3390354051132
 20
-112.9340682408978
 10
-393.3390353945259
 20
-113.434068251485
 42
-0.4142135623731262
 10
-393.8390354051133
 20
-113.9340682620724
 10
-399.5890354051132
 20
-113.9340682514851
 42
-0.4142135623731262
 10
-400.0890354051132
 20
-113.434068251485
 10
-400.0890354051132
 20
-112.9340682408978
 10
-400.8010354051132
 20
-112.9340682303105
 42
-0.4142135623730639
 10
-401.3010354051131
 20
-112.4340682303105
 10
-401.3010354157004
 20
-99.43406795504111
 42
-0.4142135623731106
  0
LWPOLYLINE
  5
279
330
1F
100
AcDbEntity
  8
0
100
AcDbPolyline
 90
        8
 70
     1
 43
0.0
 10
-341.2697854051132
 20
-98.93406794445381
 42
0.4142135623731159
 10
-341.7697854051132
 20
-99.43406795504115
 10
-341.7697854051132
 20
-112.4340682303105
 42
0.4142135623730639
 10
-341.2697854051132
 20
-112.9340682408978
 10
-328.2697854051132
 20
-112.9340682408978
 42
0.4142135623730665
 10
-327.7697854051132
 20
-112.4340682303105
 10
-327.7697854051132
 20
-99.43406795504115
 42
0.4142135623731159
 10
-328.2697854051132
 20
-98.93406794445382
  0
LWPOLYLINE
  5
280
330
1F
100
AcDbEntity
  8
0
100
AcDbPolyline
 90
        8
 70
     1
 43
0.0
 10
-198.3947854051131
 20
-79.88406754107831
 10
-185.3947854051131
 20
-79.88406755166565
 42
-0.4142135623730586
 10
-184.8947854051131
 20
-80.38406755166558
 10
-184.8947853945258
 20
-93.384067826935
 42
-0.414213562373069
 10
-185.3947854051131
 20
-93.88406783752223
 10
-198.3947854051131
 20
-93.88406782693497
 42
-0.4142135623730744
 10
-198.8947854051131
 20
-93.384067826935
 10
-198.8947854157004
 20
-80.38406755166558
 42
-0.4142135623730586
  0
LWPOLYLINE
  5
281
330
1F
100
AcDbEntity
  8
0
100
AcDbPolyline
 90
        8
 70
     1
 43
0.0
 10
-179.3447854051131
 20
-79.88406754107831
 10
-166.3447854051131
 20
-79.88406755166565
 42
-0.4142135623730586
 10
-165.8447854051131
 20
-80.38406755166558
 10
-165.8447853945258
 20
-93.384067826935
 42
-0.414213562373069
 10
-166.3447854051131
 20
-93.88406783752223
 10
-179.3447854051131
 20
-93.88406782693497
 42
-0.4142135623730744
 10
-179.8447854051131
 20
-93.384067826935
 10
-179.8447854157005
 20
-80.38406755166558
 42
-0.4142135623730586
  0
LWPOLYLINE
  5
282
330
1F
100
AcDbEntity
  8
0
100
AcDbPolyline
 90
        8
 70
     1
 43
0.0
 10
-217.4447854051132
 20
-79.88406754107831
 10
-204.4447854051132
 20
-79.88406755166565
 42
-0.4142135623730586
 10
-203.9447854051132
 20
-80.38406755166557
 10
-203.9447853945258
 20
-93.384067826935
 42
-0.414213562373069
 10
-204.4447854051132
 20
-93.88406783752222
 10
-217.4447854051132
 20
-93.88406782693497
 42
-0.4142135623730744
 10
-217.9447854051132
 20
-93.384067826935
 10
-217.9447854157005
 20
-80.38406755166557
 42
-0.4142135623730586
  0
LWPOLYLINE
  5
283
330
1F
100
AcDbEntity
  8
0
100
AcDbPolyline
 90
        8
 70
     1
 43
0.0
 10
-236.4947854051131
 20
-79.88406754107831
 10
-223.4947854051132
 20
-79.88406755166565
 42
-0.4142135623730586
 10
-222.9947854051131
 20
-80.38406755166557
 10
-222.9947853945259
 20
-93.384067826935
 42
-0.414213562373069
 10
-223.4947854051132
 20
-93.88406783752222
 10
-236.4947854051131
 20
-93.88406782693497
 42
-0.4142135623730744
 10
-236.9947854051131
 20
-93.384067826935
 10
-236.9947854157004
 20
-80.38406755166557
 42
-0.4142135623730586
  0
LWPOLYLINE
  5
284
330
1F
100
AcDbEntity
  8
0
100
AcDbPolyline
 90
        8
 70
     1
 43
0.0
 10
-255.5447854051131
 20
-79.88406754107836
 42
0.4142135623730586
 10
-256.0447854051131
 20
-80.38406755166557
 10
-256.0447854051131
 20
-93.384067826935
 42
0.4142135623730744
 10
-255.5447854051131
 20
-93.88406783752229
 10
-242.5447854051131
 20
-93.88406783752222
 42
0.414213562373069
 10
-242.0447854051131
 20
-93.384067826935
 10
-242.0447854051131
 20
-80.38406755166557
 42
0.4142135623730586
 10
-242.5447854051131
 20
-79.88406754107831
  0
LWPOLYLINE
  5
285
330
1F
100
AcDbEntity
  8
0
100
AcDbPolyline
 90
        8
 70
     1
 43
0.0
 10
-365.0822854051132
 20
-41.78406673432717
 10
-352.0822854051132
 20
-41.7840667449145
 42
-0.4142135623730639
 10
-351.5822854051132
 20
-42.28406674491447
 10
-351.582285394526
 20
-55.28406702018386
 42
-0.4142135623731159
 10
-352.0822854051132
 20
-55.78406703077118
 10
-365.0822854051132
 20
-55.78406702018392
 42
-0.4142135623731159
 10
-365.5822854051132
 20
-55.28406702018386
 10
-365.5822854157005
 20
-42.28406674491447
 42
-0.4142135623730744
  0
LWPOLYLINE
  5
286
330
1F
100
AcDbEntity
  8
0
100
AcDbPolyline
 90
        8
 70
     1
 43
0.0
 10
-403.1822854051132
 20
-41.78406673432717
 10
-390.1822854051133
 20
-41.7840667449145
 42
-0.4142135623730665
 10
-389.6822854051133
 20
-42.28406674491447
 10
-389.6822853945259
 20
-55.28406702018386
 42
-0.4142135623731171
 10
-390.1822854051133
 20
-55.78406703077118
 10
-403.1822854051132
 20
-55.78406702018392
 42
-0.4142135623731165
 10
-403.6822854051132
 20
-55.28406702018386
 10
-403.6822854157004
 20
-42.28406674491447
 42
-0.4142135623730744
  0
LWPOLYLINE
  5
287
330
1F
100
AcDbEntity
  8
0
100
AcDbPolyline
 90
        8
 70
     1
 43
0.0
 10
-269.8322854051131
 20
-41.78406673432724
 42
0.4142135623730639
 10
-270.3322854051131
 20
-42.28406674491448
 10
-270.3322854051131
 20
-55.28406702018386
 42
0.4142135623731159
 10
-269.8322854051131
 20
-55.7840670307712
 10
-256.8322854051131
 20
-55.7840670307712
 42
0.4142135623731159
 10
-256.3322854051131
 20
-55.28406702018386
 10
-256.3322854051131
 20
-42.28406674491448
 42
0.4142135623730639
 10
-256.8322854051131
 20
-41.78406673432718
  0
LWPOLYLINE
  5
288
330
1F
100
AcDbEntity
  8
0
100
AcDbPolyline
 90
        8
 70
     1
 43
0.0
 10
-180.6322854051131
 20
-31.97156652655153
 10
-193.6322854051132
 20
-31.97156651596384
 42
-0.4142135623728973
 10
-194.1322854051131
 20
-31.47156651596418
 10
-194.1322854157004
 20
-18.47156624069458
 42
-0.41421356237271
 10
-193.6322854051132
 20
-17.97156623010798
 10
-180.6322854051131
 20
-17.97156624069525
 42
-0.4142135623726996
 10
-180.1322854051131
 20
-18.47156624069455
 10
-180.1322853945255
 20
-31.4715665159642
 42
-0.414213562372887
  0
LWPOLYLINE
  5
289
330
1F
100
AcDbEntity
  8
0
100
AcDbPolyline
 90
        8
 70
     1
 43
0.0
 10
-208.7072854051131
 20
-18.47156624069455
 10
-208.7072853945258
 20
-31.4715665159642
 42
-0.414213562372887
 10
-209.2072854051131
 20
-31.97156652655113
 10
-222.2072854051131
 20
-31.97156651596384
 42
-0.4142135623728973
 10
-222.7072854051132
 20
-31.47156651596418
 10
-222.7072854157004
 20
-18.47156624069458
 42
-0.41421356237271
 10
-222.2072854051132
 20
-17.97156623010798
 10
-209.2072854051131
 20
-17.97156624069525
 42
-0.4142135623726996
  0
LWPOLYLINE
  5
290
330
1F
100
AcDbEntity
  8
0
100
AcDbPolyline
 90
        8
 70
     1
 43
0.0
 10
-265.8572854051131
 20
-18.47156624069454
 10
-265.8572853945259
 20
-31.47156651596418
 42
-0.414213562372887
 10
-266.3572854051131
 20
-31.97156652655112
 10
-279.3572854051131
 20
-31.97156651596383
 42
-0.4142135623728973
 10
-279.8572854051131
 20
-31.47156651596417
 10
-279.8572854157004
 20
-18.47156624069457
 42
-0.41421356237271
 10
-279.3572854051131
 20
-17.97156623010797
 10
-266.3572854051131
 20
-17.97156624069524
 42
-0.4142135623726996
  0
LWPOLYLINE
  5
291
330
1F
100
AcDbEntity
  8
0
100
AcDbPolyline
 90
        8
 70
     1
 43
0.0
 10
-123.4822854051132
 20
-31.97156652655153
 10
-136.4822854051131
 20
-31.97156651596384
 42
-0.4142135623728973
 10
-136.9822854051132
 20
-31.47156651596418
 10
-136.9822854157004
 20
-18.47156624069458
 42
-0.41421356237271
 10
-136.4822854051131
 20
-17.97156623010798
 10
-123.4822854051132
 20
-17.97156624069525
 42
-0.4142135623726996
 10
-122.9822854051132
 20
-18.47156624069455
 10
-122.9822853945254
 20
-31.4715665159642
 42
-0.414213562372887
  0
LWPOLYLINE
  5
292
330
1F
100
AcDbEntity
  8
0
100
AcDbPolyline
 90
        8
 70
     1
 43
0.0
 10
-351.5822854051132
 20
-18.47156624069453
 10
-351.582285394526
 20
-31.47156651596416
 42
-0.4142135623728922
 10
-352.0822854051132
 20
-31.9715665265511
 10
-365.0822854051132
 20
-31.97156651596382
 42
-0.4142135623729026
 10
-365.5822854051132
 20
-31.47156651596416
 10
-365.5822854157005
 20
-18.47156624069455
 42
-0.4142135623727153
 10
-365.0822854051132
 20
-17.97156623010795
 10
-352.0822854051132
 20
-17.97156624069524
 42
-0.4142135623727049
  0
LWPOLYLINE
  5
293
330
1F
100
AcDbEntity
  8
0
100
AcDbPolyline
 90
        8
 70
     1
 43
0.0
 10
-142.0322854051132
 20
-18.47156624069455
 10
-142.0322853945259
 20
-31.4715665159642
 42
-0.414213562372887
 10
-142.5322854051132
 20
-31.97156652655113
 10
-155.5322854051131
 20
-31.97156651596384
 42
-0.4142135623728973
 10
-156.0322854051131
 20
-31.47156651596418
 10
-156.0322854157003
 20
-18.47156624069458
 42
-0.41421356237271
 10
-155.5322854051131
 20
-17.97156623010798
 10
-142.5322854051132
 20
-17.97156624069525
 42
-0.4142135623726996
  0
LWPOLYLINE
  5
294
330
1F
100
AcDbEntity
  8
0
100
AcDbPolyline
 90
        8
 70
     1
 43
0.0
 10
-161.0822854051131
 20
-18.47156624069455
 10
-161.0822853945258
 20
-31.4715665159642
 42
-0.414213562372887
 10
-161.5822854051132
 20
-31.97156652655113
 10
-174.5822854051132
 20
-31.97156651596384
 42
-0.4142135623728973
 10
-175.0822854051132
 20
-31.47156651596418
 10
-175.0822854157004
 20
-18.47156624069458
 42
-0.41421356237271
 10
-174.5822854051132
 20
-17.97156623010798
 10
-161.5822854051131
 20
-17.97156624069528
 42
-0.4142135623726996
  0
LWPOLYLINE
  5
295
330
1F
100
AcDbEntity
  8
0
100
AcDbPolyline
 90
        8
 70
     1
 43
0.0
 10
-313.4822854051132
 20
-18.47156624069454
 10
-313.482285394526
 20
-31.47156651596418
 42
-0.414213562372887
 10
-313.9822854051133
 20
-31.97156652655112
 10
-326.9822854051132
 20
-31.97156651596383
 42
-0.4142135623729026
 10
-327.4822854051132
 20
-31.47156651596417
 10
-327.4822854157005
 20
-18.47156624069457
 42
-0.4142135623727153
 10
-326.9822854051132
 20
-17.97156623010797
 10
-313.9822854051133
 20
-17.97156624069524
 42
-0.4142135623726996
  0
LWPOLYLINE
  5
296
330
1F
100
AcDbEntity
  8
0
100
AcDbPolyline
 90
        8
 70
     1
 43
0.0
 10
-294.9322854051132
 20
-31.97156652655151
 10
-307.9322854051132
 20
-31.97156651596383
 42
-0.4142135623728973
 10
-308.4322854051132
 20
-31.47156651596417
 10
-308.4322854157004
 20
-18.47156624069457
 42
-0.41421356237271
 10
-307.9322854051132
 20
-17.97156623010797
 10
-294.9322854051132
 20
-17.97156624069524
 42
-0.4142135623726996
 10
-294.4322854051131
 20
-18.47156624069454
 10
-294.4322853945254
 20
-31.47156651596418
 42
-0.414213562372887
  0
LWPOLYLINE
  5
297
330
1F
100
AcDbEntity
  8
0
100
AcDbPolyline
 90
        8
 70
     1
 43
0.0
 10
-332.5322854051132
 20
-18.47156624069454
 10
-332.532285394526
 20
-31.47156651596418
 42
-0.414213562372887
 10
-333.0322854051132
 20
-31.97156652655112
 10
-346.0322854051132
 20
-31.97156651596383
 42
-0.4142135623728973
 10
-346.5322854051132
 20
-31.47156651596417
 10
-346.5322854157005
 20
-18.47156624069457
 42
-0.41421356237271
 10
-346.0322854051132
 20
-17.97156623010797
 10
-333.0322854051132
 20
-17.97156624069525
 42
-0.4142135623726996
  0
LWPOLYLINE
  5
298
330
1F
100
AcDbEntity
  8
0
100
AcDbPolyline
 90
        8
 70
     1
 43
0.0
 10
-247.3072854051131
 20
-31.97156652655112
 42
0.414213562372887
 10
-246.8072854051131
 20
-31.47156651596418
 10
-246.8072854051131
 20
-18.47156624069454
 42
0.4142135623726996
 10
-247.3072854051131
 20
-17.97156623010781
 10
-260.3072854051131
 20
-17.97156623010797
 42
0.41421356237271
 10
-260.8072854051131
 20
-18.47156624069457
 10
-260.8072854051131
 20
-31.47156651596417
 42
0.4142135623728973
 10
-260.3072854051131
 20
-31.97156652655151
  0
LWPOLYLINE
  5
299
330
1F
100
AcDbEntity
  8
0
100
AcDbPolyline
 90
        8
 70
     1
 43
0.0
 10
-241.7572854051131
 20
-31.47156651596418
 10
-241.7572854157004
 20
-18.47156624069457
 42
-0.41421356237271
 10
-241.2572854051131
 20
-17.97156623010797
 10
-228.2572854051131
 20
-17.97156624069525
 42
-0.4142135623726996
 10
-227.7572854051131
 20
-18.47156624069455
 10
-227.7572853945259
 20
-31.4715665159642
 42
-0.414213562372887
 10
-228.2572854051132
 20
-31.97156652655113
 10
-241.2572854051131
 20
-31.97156651596383
 42
-0.414213562372887
  0
LWPOLYLINE
  5
300
330
1F
100
AcDbEntity
  8
0
100
AcDbPolyline
 90
        4
 70
     1
 43
0.0
 10
-248.3072854051131
 20
-38.31765950405748
 10
-402.1822850806994
 20
-38.31765950405729
 42
-1.0
 10
-402.1822850806995
 20
-35.31765944053359
 10
-248.3072854051131
 20
-35.31765944053339
 42
-1.0
  0
LWPOLYLINE
  5
301
330
1F
100
AcDbEntity
  8
0
100
AcDbPolyline
 90
        8
 70
     1
 43
0.0
 10
-112.6697854051132
 20
-41.78406673432727
 42
0.4142135623730639
 10
-113.1697854051132
 20
-42.28406674491451
 10
-113.1697854051132
 20
-55.2840670201839
 42
0.4142135623731159
 10
-112.6697854051132
 20
-55.78406703077122
 10
-99.66978540511309
 20
-55.78406703077122
 42
0.4142135623730951
 10
-99.16978540511321
 20
-55.2840670201839
 10
-99.16978540511321
 20
-42.28406674491451
 42
0.4142135623730431
 10
-99.66978540511309
 20
-41.7840667343272
  0
LWPOLYLINE
  5
302
330
1F
100
AcDbEntity
  8
0
100
AcDbPolyline
 90
        8
 70
     1
 43
0.0
 10
-99.16978540511321
 20
-18.47156624069556
 42
0.4142135623732511
 10
-99.66978540511309
 20
-17.97156623010794
 10
-112.6697854051132
 20
-17.97156623010799
 42
0.4142135623732823
 10
-113.1697854051132
 20
-18.47156624069558
 10
-113.1697854051132
 20
-31.47156651596418
 42
0.4142135623729181
 10
-112.6697854051132
 20
-31.97156652655154
 10
-99.66978540511309
 20
-31.97156652655114
 42
0.4142135623728973
 10
-99.16978540511321
 20
-31.47156651596418
  0
LWPOLYLINE
  5
303
330
1F
100
AcDbEntity
  8
0
100
AcDbPolyline
 90
        6
 70
     1
 43
0.0
 10
-136.6947854051131
 20
-135.7478196594501
 42
0.3996366458337601
 10
-135.7447884662431
 20
-136.7465687451172
 42
0.4142135623730951
 10
-134.7447884662431
 20
-135.7465687239426
 10
-134.7447884662431
 20
-123.7465684698477
 42
0.4142135623730678
 10
-135.7447884662431
 20
-122.7465684486732
 42
0.399636645833753
 10
-136.6947854051131
 20
-123.7453175343403
  0
LWPOLYLINE
  5
304
330
1F
100
AcDbEntity
  8
0
100
AcDbPolyline
 90
        6
 70
     1
 43
0.0
 10
-138.5072854051131
 20
-131.9840686442734
 42
0.4069083932354449
 10
-137.5322884662431
 20
-130.9843812485057
 10
-137.5322884662431
 20
-118.983755743597
 42
0.4069083932354501
 10
-138.5072854051131
 20
-117.9840683478294
 42
0.4142135623730912
 10
-139.5072854051131
 20
-118.984068369004
 10
-139.5072854051131
 20
-130.9840686230989
 42
0.4142135623730879
  0
LWPOLYLINE
  5
305
330
1F
100
AcDbEntity
  8
0
100
AcDbPolyline
 90
        6
 70
     1
 43
0.0
 10
-76.59478540511315
 20
-136.7465687451172
 42
0.4069083932354481
 10
-75.61978846624317
 20
-135.7468813493495
 10
-75.61978846624317
 20
-123.7462558444409
 42
0.4069083932354546
 10
-76.59478540511315
 20
-122.7465684486732
 42
0.4142135623731003
 10
-77.59478540511316
 20
-123.7465684698477
 10
-77.59478540511316
 20
-135.7465687239427
 42
0.4142135623730905
  0
LWPOLYLINE
  5
306
330
1F
100
AcDbEntity
  8
0
100
AcDbPolyline
 90
        6
 70
     1
 43
0.0
 10
-74.78228540511316
 20
-130.9853195586063
 42
0.3996366458337679
 10
-73.83228846624319
 20
-131.9840686442733
 42
0.4142135623730793
 10
-72.83228846624308
 20
-130.9840686230988
 10
-72.83228846624308
 20
-118.9840683690038
 42
0.4142135623730665
 10
-73.83228846624319
 20
-117.9840683478293
 42
0.3996366458337776
 10
-74.78228540511316
 20
-118.9828174334964
  0
LWPOLYLINE
  5
307
330
1F
100
AcDbEntity
  8
0
100
AcDbPolyline
 90
        6
 70
     1
 43
0.0
 10
-167.6510354051131
 20
-111.9353191552308
 42
0.399636645833757
 10
-166.7010384662432
 20
-112.9340682408979
 42
0.414213562373099
 10
-165.7010384662432
 20
-111.9340682197233
 10
-165.7010384662432
 20
-99.93406796562837
 42
0.4142135623730925
 10
-166.7010384662432
 20
-98.93406794445381
 42
0.399636645833775
 10
-167.6510354051131
 20
-99.93281703012099
  0
LWPOLYLINE
  5
308
330
1F
100
AcDbEntity
  8
0
100
AcDbPolyline
 90
        6
 70
     1
 43
0.0
 10
-171.8447854051131
 20
-112.9340682408979
 42
0.4069083932354455
 10
-170.8697884662431
 20
-111.9343808451302
 10
-170.8697884662431
 20
-99.93375534022149
 42
0.4069083932354346
 10
-171.8447854051131
 20
-98.9340679444539
 42
0.4142135623730872
 10
-172.8447854051131
 20
-99.93406796562846
 10
-172.8447854051131
 20
-111.9340682197233
 42
0.4142135623731003
  0
LWPOLYLINE
  5
309
330
1F
100
AcDbEntity
  8
0
100
AcDbPolyline
 90
        6
 70
     1
 43
0.0
 10
-146.2197854051131
 20
-73.83531834847956
 42
0.3996366458337672
 10
-145.2697884662432
 20
-74.83406743414668
 42
0.4142135623731055
 10
-144.2697884662432
 20
-73.83406741297209
 10
-144.2697884662432
 20
-61.83406715887715
 42
0.4142135623730951
 10
-145.2697884662432
 20
-60.83406713770267
 42
0.3996366458337569
 10
-146.2197854051131
 20
-61.83281622336977
  0
LWPOLYLINE
  5
310
330
1F
100
AcDbEntity
  8
0
100
AcDbPolyline
 90
        6
 70
     1
 43
0.0
 10
-148.0322854051132
 20
-74.83406743414668
 42
0.4069083932354405
 10
-147.0572884662431
 20
-73.83438003837898
 10
-147.0572884662431
 20
-61.83375453347025
 42
0.4069083932354294
 10
-148.0322854051132
 20
-60.83406713770267
 42
0.4142135623730872
 10
-149.0322854051131
 20
-61.83406715887722
 10
-149.0322854051132
 20
-73.83406741297211
 42
0.4142135623730976
  0
LWPOLYLINE
  5
311
330
1F
100
AcDbEntity
  8
0
100
AcDbPolyline
 90
        8
 70
     1
 43
0.0
 10
-200.1822884662431
 20
-31.97156652655177
 42
0.4142135623731055
 10
-199.1822884662431
 20
-30.97156650537713
 10
-199.1822884662431
 20
-18.97156625128201
 42
0.4142135623730951
 10
-200.1822884662431
 20
-17.97156623010748
 10
-202.657285405113
 20
-17.9715662301074
 42
0.4142135623730951
 10
-203.6572854051132
 20
-18.97156625128201
 10
-203.6572854051132
 20
-30.97156650537713
 42
0.4142135623731055
 10
-202.6572854051131
 20
-31.97156652655166
  0
LWPOLYLINE
  5
312
330
1F
100
AcDbEntity
  8
0
100
AcDbPolyline
 90
        8
 70
     1
 43
0.0
 10
-285.9072884662431
 20
-31.97156652655177
 42
0.4142135623731055
 10
-284.9072884662431
 20
-30.97156650537717
 10
-284.9072884662431
 20
-18.97156625128201
 42
0.4142135623730951
 10
-285.9072884662431
 20
-17.97156623010747
 10
-288.3822854051132
 20
-17.97156623010741
 42
0.4142135623730898
 10
-289.3822854051131
 20
-18.97156625128201
 10
-289.3822854051131
 20
-30.97156650537717
 42
0.4142135623731003
 10
-288.3822854051132
 20
-31.97156652655164
  0
LWPOLYLINE
  5
313
330
1F
100
AcDbEntity
  8
0
100
AcDbPolyline
 90
        8
 70
     1
 43
0.0
 10
-369.1072884662432
 20
-31.9715665265518
 42
0.414213562373121
 10
-368.1072884662432
 20
-30.9715665053771
 10
-368.1072884662432
 20
-18.97156625128201
 42
0.4142135623730898
 10
-369.1072884662432
 20
-17.97156623010751
 10
-371.5822854051132
 20
-17.97156623010742
 42
0.4142135623730847
 10
-372.5822854051132
 20
-18.971566251282
 10
-372.5822854051132
 20
-30.97156650537716
 42
0.4142135623731159
 10
-371.5822854051132
 20
-31.97156652655163
  0
LWPOLYLINE
  5
314
330
1F
100
AcDbEntity
  8
0
100
AcDbPolyline
 90
        8
 70
     1
 43
0.0
 10
-383.6822884662432
 20
-31.9715665265518
 42
0.4142135623731159
 10
-382.6822884662432
 20
-30.97156650537716
 10
-382.6822884662432
 20
-18.97156625128201
 42
0.4142135623730898
 10
-383.6822884662432
 20
-17.97156623010751
 10
-386.1572854051132
 20
-17.97156623010742
 42
0.4142135623730847
 10
-387.1572854051132
 20
-18.971566251282
 10
-387.1572854051132
 20
-30.97156650537716
 42
0.4142135623731159
 10
-386.1572854051132
 20
-31.97156652655163
  0
LWPOLYLINE
  5
315
330
1F
100
AcDbEntity
  8
0
100
AcDbPolyline
 90
        6
 70
     1
 43
0.0
 10
-403.3947854051132
 20
-73.83531834847953
 42
0.3996366458337617
 10
-402.4447884662431
 20
-74.83406743414661
 42
0.4142135623730924
 10
-401.4447884662431
 20
-73.83406741297207
 10
-401.4447884662431
 20
-61.83406715887712
 42
0.4142135623730705
 10
-402.4447884662431
 20
-60.8340671377026
 42
0.399636645833773
 10
-403.3947854051132
 20
-61.83281622336974
  0
LWPOLYLINE
  5
316
330
1F
100
AcDbEntity
  8
0
100
AcDbPolyline
 90
        6
 70
     1
 43
0.0
 10
-381.3947854051132
 20
-74.83406743414659
 42
0.4069083932354378
 10
-380.4197884662432
 20
-73.83438003837895
 10
-380.4197884662432
 20
-61.83375453347022
 42
0.4069083932354273
 10
-381.3947854051132
 20
-60.8340671377026
 42
0.4142135623730976
 10
-382.3947854051132
 20
-61.83406715887719
 10
-382.3947854051132
 20
-73.83406741297207
 42
0.4142135623730898
  0
LWPOLYLINE
  5
317
330
1F
100
AcDbEntity
  8
0
100
AcDbPolyline
 90
        6
 70
     1
 43
0.0
 10
-379.5822854051132
 20
-73.83531834847953
 42
0.3996366458337581
 10
-378.6322884662432
 20
-74.83406743414661
 42
0.4142135623730898
 10
-377.6322884662433
 20
-73.83406741297207
 10
-377.6322884662432
 20
-61.83406715887712
 42
0.4142135623730717
 10
-378.6322884662432
 20
-60.8340671377026
 42
0.399636645833771
 10
-379.5822854051132
 20
-61.83281622336974
  0
LWPOLYLINE
  5
318
330
1F
100
AcDbEntity
  8
0
100
AcDbPolyline
 90
        6
 70
     1
 43
0.0
 10
-374.8197854051132
 20
-92.88531875185521
 42
0.3996366458337581
 10
-373.8697884662432
 20
-93.88406783752229
 42
0.4142135623730898
 10
-372.8697884662432
 20
-92.88406781634774
 10
-372.8697884662432
 20
-80.88406756225277
 42
0.4142135623730744
 10
-373.8697884662432
 20
-79.88406754107828
 42
0.3996366458337737
 10
-374.8197854051132
 20
-80.88281662674541
  0
LWPOLYLINE
  5
319
330
1F
100
AcDbEntity
  8
0
100
AcDbPolyline
 90
        6
 70
     1
 43
0.0
 10
-379.0135354051132
 20
-93.88406783752227
 42
0.4069083932354403
 10
-378.0385384662433
 20
-92.88438044175462
 10
-378.0385384662433
 20
-80.88375493684599
 42
0.4069083932354611
 10
-379.0135354051132
 20
-79.88406754107828
 42
0.4142135623731003
 10
-380.0135354051132
 20
-80.88406756225285
 10
-380.0135354051132
 20
-92.88406781634774
 42
0.4142135623730872
  0
LWPOLYLINE
  5
320
330
1F
100
AcDbEntity
  8
0
100
AcDbPolyline
 90
        6
 70
     1
 43
0.0
 10
-334.3385354051132
 20
-130.9853195586062
 42
0.3996366458337615
 10
-333.3885384662433
 20
-131.9840686442733
 42
0.4142135623730793
 10
-332.3885384662432
 20
-130.9840686230987
 10
-332.3885384662432
 20
-118.9840683690038
 42
0.4142135623730744
 10
-333.3885384662433
 20
-117.9840683478293
 42
0.3996366458337801
 10
-334.3385354051132
 20
-118.9828174334964
  0
LWPOLYLINE
  5
321
330
1F
100
AcDbEntity
  8
0
100
AcDbPolyline
 90
        6
 70
     1
 43
0.0
 10
-358.1510354051133
 20
-130.9853195586062
 42
0.3996366458337609
 10
-357.2010384662432
 20
-131.9840686442733
 42
0.4142135623730827
 10
-356.2010384662432
 20
-130.9840686230987
 10
-356.2010384662432
 20
-118.9840683690038
 42
0.4142135623730768
 10
-357.2010384662432
 20
-117.9840683478293
 42
0.3996366458337776
 10
-358.1510354051133
 20
-118.9828174334964
  0
LWPOLYLINE
  5
322
330
1F
100
AcDbEntity
  8
0
100
AcDbPolyline
 90
        6
 70
     1
 43
0.0
 10
-381.9635354051133
 20
-130.9853195586062
 42
0.3996366458337563
 10
-381.0135384662432
 20
-131.9840686442733
 42
0.4142135623730866
 10
-380.0135384662432
 20
-130.9840686230987
 10
-380.0135384662432
 20
-118.9840683690038
 42
0.4142135623730768
 10
-381.0135384662432
 20
-117.9840683478293
 42
0.3996366458337711
 10
-381.9635354051133
 20
-118.9828174334964
  0
LWPOLYLINE
  5
323
330
1F
100
AcDbEntity
  8
0
100
AcDbPolyline
 90
       21
 70
     1
 43
0.0
 10
-120.5762854051132
 20
-120.2215692401482
 10
-131.2197854051131
 20
-120.2215683740329
 42
-0.4142135623731159
 10
-132.2197854262084
 20
-119.2215683729767
 42
-0.3996366452205979
 10
-131.2210363405941
 20
-118.271571415047
 10
-122.0762854051132
 20
-118.2715714150471
 42
0.4142135623730987
 10
-119.5762854051132
 20
-115.7715713621106
 10
-119.5762854051132
 20
-39.81765953581957
 42
0.4142135623732582
 10
-121.0762854051132
 20
-38.31765950405689
 10
-240.2572854051131
 20
-38.3176595040573
 42
-1.0
 10
-240.2572854051131
 20
-35.3176594405336
 10
-121.0762854051132
 20
-35.31765944053382
 42
0.4142135623731262
 10
-119.5762854051132
 20
-33.81765940877199
 10
-119.5762854051132
 20
-19.47156480522997
 42
-1.0
 10
-116.5762854051132
 20
-19.47156480523
 10
-116.5762854051132
 20
-33.81765940877199
 42
0.4142135623731332
 10
-115.076285405113
 20
-35.317659440534
 10
-110.1947854051131
 20
-35.31765944053363
 42
-1.0
 10
-110.1947854051131
 20
-38.31765950405733
 10
-115.076285405113
 20
-38.31765950405733
 42
0.4142135623732582
 10
-116.5762854051132
 20
-39.81765953581954
 10
-116.5762857428852
 20
-116.2215695779204
 42
-0.4142135623730893
  0
LWPOLYLINE
  5
324
330
1F
100
AcDbEntity
  8
0
100
AcDbPolyline
 90
       21
 70
     1
 43
0.0
 10
-81.11978540511307
 20
-120.2215685058814
 10
-91.7637854051132
 20
-120.2215686425309
 42
-0.414213562373097
 10
-95.76378540511308
 20
-116.2215686425309
 10
-95.76378540511319
 20
-39.81765953581959
 42
0.4142135623732477
 10
-97.26378540511309
 20
-38.31765950405691
 10
-102.1447854051132
 20
-38.31765950405733
 42
-1.0
 10
-102.1447854051132
 20
-35.31765944053363
 10
-97.26378540511309
 20
-35.31765944053383
 42
0.4142135623731194
 10
-95.76378540511319
 20
-33.817659408772
 10
-95.76378540511308
 20
-19.47156480522999
 42
-1.0
 10
-92.7637854051132
 20
-19.47156480523002
 10
-92.7637854051132
 20
-33.817659408772
 42
0.4142135623731262
 10
-91.2637854051132
 20
-35.317659440534
 10
-19.70728388860601
 20
-35.31765944053363
 42
-1.0
 10
-19.70728388860601
 20
-38.31765950405733
 10
-91.2637854051132
 20
-38.31765950405733
 42
0.4142135623732511
 10
-92.76378540511307
 20
-39.81765953581956
 10
-92.7637854051132
 20
-115.7715713621108
 42
0.4142135623730878
 10
-90.2637854051132
 20
-118.2715714150471
 10
-81.11853446963214
 20
-118.2715714361688
 42
-0.3996366452206005
 10
-80.1197852732646
 20
-119.221568374033
 42
-0.4142135623731015
  0
LWPOLYLINE
  5
325
330
1F
100
AcDbEntity
  8
0
100
AcDbPolyline
 90
        8
 70
     1
 43
0.0
 10
-99.16978540511321
 20
-61.33406714829002
 10
-99.16978539452589
 20
-74.33406742355939
 42
-0.4142135623730847
 10
-99.66978540511309
 20
-74.83406743414668
 10
-112.6697854051132
 20
-74.83406742355942
 42
-0.4142135623731003
 10
-113.1697854051132
 20
-74.33406742355939
 10
-113.1697854157004
 20
-61.33406714828997
 42
-0.4142135623730847
 10
-112.6697854051132
 20
-60.83406713770273
 10
-99.66978540511309
 20
-60.83406714829
 42
-0.4142135623730744
  0
LWPOLYLINE
  5
326
330
1F
100
AcDbEntity
  8
0
100
AcDbPolyline
 90
        8
 70
     1
 43
0.0
 10
-99.16978540511321
 20
-83.38406757480163
 10
-99.16978539452589
 20
-96.38406785007104
 42
-0.4142135623730898
 10
-99.66978540511309
 20
-96.88406786065833
 10
-112.6697854051131
 20
-96.88406785007108
 42
-0.4142135623731055
 10
-113.1697854051132
 20
-96.38406785007106
 10
-113.1697854157004
 20
-83.38406757480163
 42
-0.4142135623730898
 10
-112.6697854051132
 20
-82.88406756421437
 10
-99.6697854051132
 20
-82.88406757480164
 42
-0.4142135623730639
  0
ENDSEC
  0
SECTION
  2
OBJECTS
  0
DICTIONARY
  5
C
330
0
100
AcDbDictionary
281
     1
  3
ACAD_BACKGROUND
350
1005B
  3
ACAD_CIP_PREVIOUS_PRODUCT_INFO
350
1005A
  3
ACAD_COLOR
350
10036
  3
ACAD_DETAILVIEWSTYLE
350
10051
  3
ACAD_GROUP
350
D
  3
ACAD_LAYOUT
350
10037
  3
ACAD_MATERIAL
350
10004
  3
ACAD_MLEADERSTYLE
350
1004D
  3
ACAD_MLINESTYLE
350
17
  3
ACAD_PLOTSETTINGS
350
10054
  3
ACAD_PLOTSTYLENAME
350
10002
  3
ACAD_SCALELIST
350
1003B
  3
ACAD_SECTIONVIEWSTYLE
350
1004F
  3
ACAD_TABLESTYLE
350
10038
  3
ACAD_VISUALSTYLE
350
1001D
  3
ACDB_RECOMPOSE_DATA
350
1006D
  3
AcDbVariableDictionary
350
10061
  0
DICTIONARY
  5
1005F
330
50
100
AcDbDictionary
280
     1
281
     1
  3
ADSK_XREC_LAYER_RECONCILED
360
10060
  0
DICTIONARY
  5
1005B
102
{ACAD_REACTORS
330
C
102
}
330
C
100
AcDbDictionary
281
     1
  0
XRECORD
  5
1005A
102
{ACAD_REACTORS
330
C
102
}
330
C
100
AcDbXrecord
280
     1
300
ACD
300
2022
300

  0
DICTIONARY
  5
10036
102
{ACAD_REACTORS
330
C
102
}
330
C
100
AcDbDictionary
281
     1
  0
DICTIONARY
  5
10051
102
{ACAD_REACTORS
330
C
102
}
330
C
100
AcDbDictionary
281
     1
  3
Imperial24
350
10052
  0
DICTIONARY
  5
D
330
C
100
AcDbDictionary
281
     1
  0
DICTIONARY
  5
10037
102
{ACAD_REACTORS
330
C
102
}
330
C
100
AcDbDictionary
281
     1
  3
Layout1
350
10056
  3
Model
350
10055
  0
DICTIONARY
  5
10004
102
{ACAD_REACTORS
330
C
102
}
330
C
100
AcDbDictionary
281
     1
  3
ByBlock
350
1000D
  3
ByLayer
350
10005
  3
Global
350
10015
  0
DICTIONARY
  5
1004D
102
{ACAD_REACTORS
330
C
102
}
330
C
100
AcDbDictionary
281
     1
  3
Standard
350
1004E
  0
DICTIONARY
  5
17
330
C
100
AcDbDictionary
281
     1
  3
Standard
350
1003A
  0
DICTIONARY
  5
10054
102
{ACAD_REACTORS
330
C
102
}
330
C
100
AcDbDictionary
281
     1
  0
ACDBDICTIONARYWDFLT
  5
10002
102
{ACAD_REACTORS
330
C
102
}
330
C
100
AcDbDictionary
281
     1
  3
Normal
350
10003
100
AcDbDictionaryWithDefault
340
10003
  0
DICTIONARY
  5
1003B
102
{ACAD_REACTORS
330
C
102
}
330
C
100
AcDbDictionary
281
     1
  3
A0
350
1003C
  3
A1
350
1003D
  3
A2
350
1003E
  3
A3
350
1003F
  3
A4
350
10040
  3
A5
350
10041
  3
A6
350
10042
  3
A7
350
10043
  3
A8
350
10044
  3
A9
350
10045
  3
B0
350
10046
  3
B1
350
10047
  3
B2
350
10048
  3
B3
350
10049
  3
B4
350
1004A
  3
B5
350
1004B
  3
B6
350
1004C
  0
DICTIONARY
  5
1004F
102
{ACAD_REACTORS
330
C
102
}
330
C
100
AcDbDictionary
281
     1
  3
Imperial24
350
10050
  0
DICTIONARY
  5
10038
102
{ACAD_REACTORS
330
C
102
}
330
C
100
AcDbDictionary
281
     1
  3
Standard
350
10039
  0
DICTIONARY
  5
1001D
102
{ACAD_REACTORS
330
C
102
}
330
C
100
AcDbDictionary
281
     1
  3
2dWireframe
350
10023
  3
Basic
350
10022
  3
Brighten
350
10029
  3
ColorChange
350
1002D
  3
Conceptual
350
10026
  3
Dim
350
10028
  3
EdgeColorOff
350
10035
  3
Facepattern
350
1002C
  3
Flat
350
1001E
  3
FlatWithEdges
350
1001F
  3
Gouraud
350
10020
  3
GouraudWithEdges
350
10021
  3
Hidden
350
10025
  3
JitterOff
350
10033
  3
Linepattern
350
1002B
  3
OverhangOff
350
10034
  3
Realistic
350
10027
  3
Shaded
350
10032
  3
Shaded with edges
350
10031
  3
Shades of Gray
350
1002E
  3
Sketchy
350
1002F
  3
Thicken
350
1002A
  3
Wireframe
350
10024
  3
X-Ray
350
10030
  0
XRECORD
  5
1006D
102
{ACAD_REACTORS
330
C
102
}
330
C
100
AcDbXrecord
280
     1
 90
        1
330
10039
  0
DICTIONARY
  5
10061
102
{ACAD_REACTORS
330
C
102
}
330
C
100
AcDbDictionary
281
     1
  3
CANNOSCALE
350
10067
  3
CMLEADERSTYLE
350
10063
  3
CTABLESTYLE
350
10062
  3
CVIEWDETAILSTYLE
350
10064
  3
CVIEWSECTIONSTYLE
350
10065
  3
LAYEREVAL
350
10069
  3
LAYERNOTIFY
350
1006A
  3
LIGHTINGUNITS
350
10068
  3
MSLTSCALE
350
10066
  0
XRECORD
  5
10060
102
{ACAD_REACTORS
330
1005F
102
}
330
1005F
100
AcDbXrecord
280
     1
290
     1
  0
ACDBDETAILVIEWSTYLE
  5
10052
102
{ACAD_XDICTIONARY
360
10070
102
}
102
{ACAD_REACTORS
330
10051
102
}
330
10051
100
AcDbModelDocViewStyle
 70
     0
  3
Imperial24
290
     0
100
AcDbDetailViewStyle
 70
     0
 71
     0
 90
        3
 71
     1
340
11
 62
   256
 40
0.24
340
0
 62
   256
 40
0.24
300

 40
0.36
280
     3
 71
     2
340
0
 90
       25
 62
   256
 71
     3
340
11
 62
   256
 40
0.24
 90
        1
 40
0.75
 90
        1
300
%<\AcVar ViewType \f "%tc1">% %<\AcVar ViewDetailId>%\PSCALE %<\AcVar ViewScale \f "%sn">%
 71
     4
340
0
 90
       25
 62
   256
340
0
 90
       25
 62
   256
280
     0
  0
LAYOUT
  5
10056
102
{ACAD_REACTORS
330
10037
102
}
330
10037
100
AcDbPlotSettings
  1

  2
Canon iP110 series WS
  4

  6

 40
0.0
 41
0.0
 42
0.0
 43
0.0
 44
0.0
 45
0.0
 46
0.0
 47
0.0
 48
0.0
 49
0.0
140
0.0
141
0.0
142
1.0
143
1.0
 70
   688
 72
     0
 73
     0
 74
     5
  7

 75
    16
147
1.0
 76
     0
 77
     2
 78
   300
148
0.0
149
0.0
100
AcDbLayout
  1
Layout1
 70
     1
 71
     1
 10
0.0
 20
0.0
 11
12.0
 21
9.0
 12
0.0
 22
0.0
 32
0.0
 14
1.000000000000000E+20
 24
1.000000000000000E+20
 34
1.000000000000000E+20
 15
-1.000000000000000E+20
 25
-1.000000000000000E+20
 35
-1.000000000000000E+20
146
0.0
 13
0.0
 23
0.0
 33
0.0
 16
1.0
 26
0.0
 36
0.0
 17
0.0
 27
1.0
 37
0.0
 76
     0
330
1B
  0
LAYOUT
  5
10055
102
{ACAD_REACTORS
330
10037
102
}
330
10037
100
AcDbPlotSettings
  1

  2
Canon iP110 series WS
  4

  6

 40
0.0
 41
0.0
 42
0.0
 43
0.0
 44
0.0
 45
0.0
 46
0.0
 47
0.0
 48
0.0
 49
0.0
140
0.0
141
0.0
142
1.0
143
1.0
 70
  1712
 72
     0
 73
     0
 74
     0
  7

 75
     0
147
1.0
 76
     0
 77
     2
 78
   300
148
0.0
149
0.0
100
AcDbLayout
  1
Model
 70
     1
 71
     0
 10
0.0
 20
0.0
 11
12.0
 21
9.0
 12
0.0
 22
0.0
 32
0.0
 14
0.0
 24
0.0
 34
0.0
 15
0.0
 25
0.0
 35
0.0
146
0.0
 13
0.0
 23
0.0
 33
0.0
 16
1.0
 26
0.0
 36
0.0
 17
0.0
 27
1.0
 37
0.0
 76
     0
330
1F
331
10059
  0
MATERIAL
  5
1000D
102
{ACAD_XDICTIONARY
360
1000E
102
}
102
{ACAD_REACTORS
330
10004
102
}
330
10004
100
AcDbMaterial
  1
ByBlock
 72
     0
 43
0.0008202099737533
 43
0.0
 43
0.0
 43
0.0
 43
0.0
 43
0.0008202099737533
 43
0.0
 43
0.0
 43
0.0
 43
0.0
 43
1.0
 43
0.0
 43
0.0
 43
0.0
 43
0.0
 43
1.0
 77
     0
 47
0.0008202099737533
 47
0.0
 47
0.0
 47
0.0
 47
0.0
 47
0.0008202099737533
 47
0.0
 47
0.0
 47
0.0
 47
0.0
 47
1.0
 47
0.0
 47
0.0
 47
0.0
 47
0.0
 47
1.0
171
     0
 49
0.0008202099737533
 49
0.0
 49
0.0
 49
0.0
 49
0.0
 49
0.0008202099737533
 49
0.0
 49
0.0
 49
0.0
 49
0.0
 49
1.0
 49
0.0
 49
0.0
 49
0.0
 49
0.0
 49
1.0
175
     0
142
0.0008202099737533
142
0.0
142
0.0
142
0.0
142
0.0
142
0.0008202099737533
142
0.0
142
0.0
142
0.0
142
0.0
142
1.0
142
0.0
142
0.0
142
0.0
142
0.0
142
1.0
179
     0
144
0.0008202099737533
144
0.0
144
0.0
144
0.0
144
0.0
144
0.0008202099737533
144
0.0
144
0.0
144
0.0
144
0.0
144
1.0
144
0.0
144
0.0
144
0.0
144
0.0
144
1.0
147
0.0008202099737533
147
0.0
147
0.0
147
0.0
147
0.0
147
0.0008202099737533
147
0.0
147
0.0
147
0.0
147
0.0
147
1.0
147
0.0
147
0.0
147
0.0
147
0.0
147
1.0
  0
MATERIAL
  5
10005
102
{ACAD_XDICTIONARY
360
10006
102
}
102
{ACAD_REACTORS
330
10004
102
}
330
10004
100
AcDbMaterial
  1
ByLayer
 72
     0
 43
0.0008202099737533
 43
0.0
 43
0.0
 43
0.0
 43
0.0
 43
0.0008202099737533
 43
0.0
 43
0.0
 43
0.0
 43
0.0
 43
1.0
 43
0.0
 43
0.0
 43
0.0
 43
0.0
 43
1.0
 77
     0
 47
0.0008202099737533
 47
0.0
 47
0.0
 47
0.0
 47
0.0
 47
0.0008202099737533
 47
0.0
 47
0.0
 47
0.0
 47
0.0
 47
1.0
 47
0.0
 47
0.0
 47
0.0
 47
0.0
 47
1.0
171
     0
 49
0.0008202099737533
 49
0.0
 49
0.0
 49
0.0
 49
0.0
 49
0.0008202099737533
 49
0.0
 49
0.0
 49
0.0
 49
0.0
 49
1.0
 49
0.0
 49
0.0
 49
0.0
 49
0.0
 49
1.0
175
     0
142
0.0008202099737533
142
0.0
142
0.0
142
0.0
142
0.0
142
0.0008202099737533
142
0.0
142
0.0
142
0.0
142
0.0
142
1.0
142
0.0
142
0.0
142
0.0
142
0.0
142
1.0
179
     0
144
0.0008202099737533
144
0.0
144
0.0
144
0.0
144
0.0
144
0.0008202099737533
144
0.0
144
0.0
144
0.0
144
0.0
144
1.0
144
0.0
144
0.0
144
0.0
144
0.0
144
1.0
147
0.0008202099737533
147
0.0
147
0.0
147
0.0
147
0.0
147
0.0008202099737533
147
0.0
147
0.0
147
0.0
147
0.0
147
1.0
147
0.0
147
0.0
147
0.0
147
0.0
147
1.0
  0
MATERIAL
  5
10015
102
{ACAD_XDICTIONARY
360
10016
102
}
102
{ACAD_REACTORS
330
10004
102
}
330
10004
100
AcDbMaterial
  1
Global
 72
     0
 43
0.0008202099737533
 43
0.0
 43
0.0
 43
0.0
 43
0.0
 43
0.0008202099737533
 43
0.0
 43
0.0
 43
0.0
 43
0.0
 43
1.0
 43
0.0
 43
0.0
 43
0.0
 43
0.0
 43
1.0
 77
     0
 47
0.0008202099737533
 47
0.0
 47
0.0
 47
0.0
 47
0.0
 47
0.0008202099737533
 47
0.0
 47
0.0
 47
0.0
 47
0.0
 47
1.0
 47
0.0
 47
0.0
 47
0.0
 47
0.0
 47
1.0
171
     0
 49
0.0008202099737533
 49
0.0
 49
0.0
 49
0.0
 49
0.0
 49
0.0008202099737533
 49
0.0
 49
0.0
 49
0.0
 49
0.0
 49
1.0
 49
0.0
 49
0.0
 49
0.0
 49
0.0
 49
1.0
175
     0
142
0.0008202099737533
142
0.0
142
0.0
142
0.0
142
0.0
142
0.0008202099737533
142
0.0
142
0.0
142
0.0
142
0.0
142
1.0
142
0.0
142
0.0
142
0.0
142
0.0
142
1.0
179
     0
144
0.0008202099737533
144
0.0
144
0.0
144
0.0
144
0.0
144
0.0008202099737533
144
0.0
144
0.0
144
0.0
144
0.0
144
1.0
144
0.0
144
0.0
144
0.0
144
0.0
144
1.0
147
0.0008202099737533
147
0.0
147
0.0
147
0.0
147
0.0
147
0.0008202099737533
147
0.0
147
0.0
147
0.0
147
0.0
147
1.0
147
0.0
147
0.0
147
0.0
147
0.0
147
1.0
  0
MLEADERSTYLE
  5
1004E
102
{ACAD_REACTORS
330
1004D
102
}
330
1004D
100
AcDbMLeaderStyle
179
     2
170
     2
171
     1
172
     0
 90
        2
 40
0.0
 41
0.0
173
     1
 91
-1056964608
340
14
 92
       -2
290
     1
 42
0.09
291
     1
 43
0.36
  3
Standard
 44
0.18
300

342
11
174
     1
178
     6
175
     1
176
     0
 93
-1056964608
 45
0.18
292
     0
297
     0
 46
0.18
 94
-1056964608
 47
1.0
 49
1.0
140
1.0
293
     1
141
0.0
294
     1
177
     0
142
1.0
295
     0
296
     0
143
0.125
271
     0
272
     9
273
     9
298
     0
  0
MLINESTYLE
  5
1003A
102
{ACAD_REACTORS
330
17
102
}
330
17
100
AcDbMlineStyle
  2
STANDARD
 70
     0
  3

 62
   256
 51
90.0
 52
90.0
 71
     2
 49
0.5
 62
   256
  6
BYLAYER
 49
-0.5
 62
   256
  6
BYLAYER
  0
ACDBPLACEHOLDER
  5
10003
102
{ACAD_REACTORS
330
10002
102
}
330
10002
  0
SCALE
  5
1003C
102
{ACAD_REACTORS
330
1003B
102
}
330
1003B
100
AcDbScale
 70
     0
300
1:1
140
1.0
141
1.0
290
     1
  0
SCALE
  5
1003D
102
{ACAD_REACTORS
330
1003B
102
}
330
1003B
100
AcDbScale
 70
     0
300
1/128" = 1'-0"
140
0.0078125
141
12.0
290
     0
  0
SCALE
  5
1003E
102
{ACAD_REACTORS
330
1003B
102
}
330
1003B
100
AcDbScale
 70
     0
300
1/64" = 1'-0"
140
0.015625
141
12.0
290
     0
  0
SCALE
  5
1003F
102
{ACAD_REACTORS
330
1003B
102
}
330
1003B
100
AcDbScale
 70
     0
300
1/32" = 1'-0"
140
0.03125
141
12.0
290
     0
  0
SCALE
  5
10040
102
{ACAD_REACTORS
330
1003B
102
}
330
1003B
100
AcDbScale
 70
     0
300
1/16" = 1'-0"
140
0.0625
141
12.0
290
     0
  0
SCALE
  5
10041
102
{ACAD_REACTORS
330
1003B
102
}
330
1003B
100
AcDbScale
 70
     0
300
3/32" = 1'-0"
140
0.09375
141
12.0
290
     0
  0
SCALE
  5
10042
102
{ACAD_REACTORS
330
1003B
102
}
330
1003B
100
AcDbScale
 70
     0
300
1/8" = 1'-0"
140
0.125
141
12.0
290
     0
  0
SCALE
  5
10043
102
{ACAD_REACTORS
330
1003B
102
}
330
1003B
100
AcDbScale
 70
     0
300
3/16" = 1'-0"
140
0.1875
141
12.0
290
     0
  0
SCALE
  5
10044
102
{ACAD_REACTORS
330
1003B
102
}
330
1003B
100
AcDbScale
 70
     0
300
1/4" = 1'-0"
140
0.25
141
12.0
290
     0
  0
SCALE
  5
10045
102
{ACAD_REACTORS
330
1003B
102
}
330
1003B
100
AcDbScale
 70
     0
300
3/8" = 1'-0"
140
0.375
141
12.0
290
     0
  0
SCALE
  5
10046
102
{ACAD_REACTORS
330
1003B
102
}
330
1003B
100
AcDbScale
 70
     0
300
1/2" = 1'-0"
140
0.5
141
12.0
290
     0
  0
SCALE
  5
10047
102
{ACAD_REACTORS
330
1003B
102
}
330
1003B
100
AcDbScale
 70
     0
300
3/4" = 1'-0"
140
0.75
141
12.0
290
     0
  0
SCALE
  5
10048
102
{ACAD_REACTORS
330
1003B
102
}
330
1003B
100
AcDbScale
 70
     0
300
1" = 1'-0"
140
1.0
141
12.0
290
     0
  0
SCALE
  5
10049
102
{ACAD_REACTORS
330
1003B
102
}
330
1003B
100
AcDbScale
 70
     0
300
1-1/2" = 1'-0"
140
1.5
141
12.0
290
     0
  0
SCALE
  5
1004A
102
{ACAD_REACTORS
330
1003B
102
}
330
1003B
100
AcDbScale
 70
     0
300
3" = 1'-0"
140
3.0
141
12.0
290
     0
  0
SCALE
  5
1004B
102
{ACAD_REACTORS
330
1003B
102
}
330
1003B
100
AcDbScale
 70
     0
300
6" = 1'-0"
140
6.0
141
12.0
290
     0
  0
SCALE
  5
1004C
102
{ACAD_REACTORS
330
1003B
102
}
330
1003B
100
AcDbScale
 70
     0
300
1'-0" = 1'-0"
140
12.0
141
12.0
290
     0
  0
ACDBSECTIONVIEWSTYLE
  5
10050
102
{ACAD_XDICTIONARY
360
1006E
102
}
102
{ACAD_REACTORS
330
1004F
102
}
330
1004F
100
AcDbModelDocViewStyle
 70
     0
  3
Imperial24
290
     0
100
AcDbSectionViewStyle
 70
     0
 71
     0
 90
       78
 71
     1
340
11
 62
   256
 40
0.24
340
0
340
0
 62
   256
 40
0.24
300
I, O, Q, S, X, Z
 40
0.48
 90
        3
 40
0.18
 90
        1
 71
     2
340
0
 90
       25
 62
   256
340
0
 90
       50
 62
   256
 40
0.24
 40
0.0
 40
0.24
 71
     3
340
11
 62
   256
 40
0.24
 90
        1
 40
0.75
 90
        1
300
%<\AcVar ViewType \f "%tc1">% %<\AcVar ViewSectionStartId>%-%<\AcVar ViewSectionEndId>%\PSCALE %<\AcVar ViewScale \f "%sn">%
 71
     4
 62
   256
 62
   257
300
ANSI31
 40
1.0
 90
        0
290
     0
290
     0
 90
        6
 40
0.0
 40
1.570796326794896
 40
0.2617993877991494
 40
1.308996938995747
 40
-0.2617993877991494
 40
1.832595714594046
  0
TABLESTYLE
  5
10039
102
{ACAD_XDICTIONARY
360
1006B
102
}
102
{ACAD_REACTORS
330
10038
102
}
330
10038
100
AcDbTableStyle
280
     0
  3
Standard
 70
     0
 71
     0
 40
0.06
 41
0.06
280
     0
281
     0
  7
STANDARD
140
0.18
170
     2
 62
     0
 63
     7
283
     0
 90
      512
 91
        0
  1

274
    -2
284
     1
 64
     0
275
    -2
285
     1
 65
     0
276
    -2
286
     1
 66
     0
277
    -2
287
     1
 67
     0
278
    -2
288
     1
 68
     0
279
    -2
289
     1
 69
     0
  7
STANDARD
140
0.25
170
     5
 62
     0
 63
     7
283
     0
 90
      512
 91
        0
  1

274
    -2
284
     1
 64
     0
275
    -2
285
     1
 65
     0
276
    -2
286
     1
 66
     0
277
    -2
287
     1
 67
     0
278
    -2
288
     1
 68
     0
279
    -2
289
     1
 69
     0
  7
STANDARD
140
0.18
170
     5
 62
     0
 63
     7
283
     0
 90
      512
 91
        0
  1

274
    -2
284
     1
 64
     0
275
    -2
285
     1
 65
     0
276
    -2
286
     1
 66
     0
277
    -2
287
     1
 67
     0
278
    -2
288
     1
 68
     0
279
    -2
289
     1
 69
     0
  0
VISUALSTYLE
  5
10023
102
{ACAD_REACTORS
330
1001D
102
}
330
1001D
100
AcDbVisualStyle
  2
2dWireframe
 70
     4
177
     3
291
     0
 70
    58
 90
        0
176
     1
 90
        2
176
     1
 90
        0
176
     1
 90
        0
176
     1
 40
0.6
176
     1
 40
30.0
176
     1
 62
     7
420
 16777215
176
     1
 90
        1
176
     1
 90
        4
176
     1
 62
     7
176
     1
 62
   257
176
     1
 90
        1
176
     1
 90
        1
176
     1
 40
1.0
176
     1
 90
        0
176
     1
 62
   257
176
     1
 40
1.0
176
     1
 90
        1
176
     1
 90
        6
176
     1
 90
        2
176
     1
 62
     7
176
     1
 90
        5
176
     1
 90
        0
176
     1
 90
        0
176
     1
290
     0
176
     1
 90
        1
176
     1
 40
0.0
176
     1
 90
        0
176
     1
290
     1
176
     1
290
     1
176
     1
290
     0
176
     1
290
     0
176
     1
290
     0
176
     1
290
     0
176
     1
290
     0
176
     1
290
     0
176
     1
290
     0
176
     1
 90
       50
176
     1
 40
0.0
176
     1
 40
1.0
176
     1
 90
        0
176
     1
 62
    18
420
        0
176
     1
 90
       50
176
     1
 90
        3
176
     1
 62
     5
420
      255
176
     1
290
     0
176
     1
 90
       50
176
     1
 90
       50
176
     1
 90
       50
176
     1
290
     0
176
     1
 90
       50
176
     1
 62
   256
176
     0
 40
1.0
176
     0
 90
        2
176
     1
  1
strokes_ogs.tif
176
     1
290
     0
176
     1
 40
1.0
176
     1
 40
1.0
176
     1
1001
ACAD
1000
AcDbSavedByObjectVersion
1070
     0
  0
VISUALSTYLE
  5
10022
102
{ACAD_REACTORS
330
1001D
102
}
330
1001D
100
AcDbVisualStyle
  2
Basic
 70
     7
177
     3
291
     1
 70
    58
 90
        1
176
     1
 90
        0
176
     1
 90
        1
176
     1
 90
        0
176
     1
 40
0.6
176
     1
 40
30.0
176
     1
 62
     7
420
 16777215
176
     1
 90
        0
176
     1
 90
        4
176
     1
 62
     7
176
     1
 62
   257
176
     1
 90
        1
176
     1
 90
        1
176
     1
 40
1.0
176
     1
 90
        8
176
     1
 62
     7
176
     1
 40
1.0
176
     1
 90
        1
176
     1
 90
        6
176
     1
 90
        2
176
     1
 62
     7
176
     1
 90
        5
176
     1
 90
        0
176
     1
 90
        0
176
     1
290
     0
176
     1
 90
        1
176
     1
 40
0.0
176
     1
 90
        0
176
     1
290
     0
176
     1
290
     1
176
     1
290
     1
176
     1
290
     0
176
     1
290
     0
176
     1
290
     0
176
     1
290
     0
176
     1
290
     0
176
     1
290
     0
176
     1
 90
       50
176
     1
 40
0.0
176
     1
 40
1.0
176
     1
 90
        0
176
     1
 62
    18
420
        0
176
     1
 90
       50
176
     1
 90
        3
176
     1
 62
     5
420
      255
176
     1
290
     0
176
     1
 90
       50
176
     1
 90
       50
176
     1
 90
       50
176
     1
290
     0
176
     1
 90
       50
176
     1
 62
   256
176
     0
 40
1.0
176
     0
 90
        2
176
     1
  1
strokes_ogs.tif
176
     1
290
     0
176
     1
 40
1.0
176
     1
 40
1.0
176
     1
1001
ACAD
1000
AcDbSavedByObjectVersion
1070
     0
  0
VISUALSTYLE
  5
10029
102
{ACAD_REACTORS
330
1001D
102
}
330
1001D
100
AcDbVisualStyle
  2
Brighten
 70
    12
177
     3
291
     1
 70
    58
 90
        2
176
     1
 90
        2
176
     1
 90
        0
176
     1
 90
        0
176
     1
 40
0.6
176
     1
 40
30.0
176
     1
 62
     7
420
 16777215
176
     1
 90
        1
176
     1
 90
        4
176
     1
 62
     7
176
     1
 62
   257
176
     1
 90
        1
176
     1
 90
        1
176
     1
 40
1.0
176
     1
 90
        8
176
     1
 62
     7
176
     1
 40
1.0
176
     1
 90
        1
176
     1
 90
        6
176
     1
 90
        2
176
     1
 62
     7
176
     1
 90
        5
176
     1
 90
        0
176
     1
 90
        0
176
     1
290
     0
176
     1
 90
        1
176
     1
 40
50.0
176
     1
 90
        0
176
     1
290
     0
176
     1
290
     1
176
     1
290
     1
176
     1
290
     0
176
     1
290
     0
176
     1
290
     0
176
     1
290
     0
176
     1
290
     0
176
     1
290
     0
176
     1
 90
       50
176
     1
 40
0.0
176
     1
 40
1.0
176
     1
 90
        0
176
     1
 62
    18
420
        0
176
     1
 90
       50
176
     1
 90
        3
176
     1
 62
     5
420
      255
176
     1
290
     0
176
     1
 90
       50
176
     1
 90
       50
176
     1
 90
       50
176
     1
290
     0
176
     1
 90
       50
176
     1
 62
   256
176
     0
 40
1.0
176
     0
 90
        2
176
     1
  1
strokes_ogs.tif
176
     1
290
     0
176
     1
 40
1.0
176
     1
 40
1.0
176
     1
1001
ACAD
1000
AcDbSavedByObjectVersion
1070
     0
  0
VISUALSTYLE
  5
1002D
102
{ACAD_REACTORS
330
1001D
102
}
330
1001D
100
AcDbVisualStyle
  2
ColorChange
 70
    16
177
     3
291
     1
 70
    58
 90
        2
176
     1
 90
        2
176
     1
 90
        3
176
     1
 90
        0
176
     1
 40
0.6
176
     1
 40
30.0
176
     1
 62
     8
420
  8421504
176
     1
 90
        1
176
     1
 90
        4
176
     1
 62
     7
176
     1
 62
   257
176
     1
 90
        1
176
     1
 90
        1
176
     1
 40
1.0
176
     1
 90
        8
176
     1
 62
     8
420
  8421504
176
     1
 40
1.0
176
     1
 90
        1
176
     1
 90
        6
176
     1
 90
        2
176
     1
 62
     7
176
     1
 90
        5
176
     1
 90
        0
176
     1
 90
        0
176
     1
290
     0
176
     1
 90
        1
176
     1
 40
0.0
176
     1
 90
        0
176
     1
290
     0
176
     1
290
     1
176
     1
290
     1
176
     1
290
     0
176
     1
290
     0
176
     1
290
     0
176
     1
290
     0
176
     1
290
     0
176
     1
290
     0
176
     1
 90
       50
176
     1
 40
0.0
176
     1
 40
1.0
176
     1
 90
        0
176
     1
 62
    18
420
        0
176
     1
 90
       50
176
     1
 90
        3
176
     1
 62
     5
420
      255
176
     1
290
     0
176
     1
 90
       50
176
     1
 90
       50
176
     1
 90
       50
176
     1
290
     0
176
     1
 90
       50
176
     1
 62
   256
176
     0
 40
1.0
176
     0
 90
        2
176
     1
  1
strokes_ogs.tif
176
     1
290
     0
176
     1
 40
1.0
176
     1
 40
1.0
176
     1
1001
ACAD
1000
AcDbSavedByObjectVersion
1070
     0
  0
VISUALSTYLE
  5
10026
102
{ACAD_REACTORS
330
1001D
102
}
330
1001D
100
AcDbVisualStyle
  2
Conceptual
 70
     9
177
     3
291
     0
 70
    58
 90
        3
176
     1
 90
        2
176
     1
 90
        0
176
     1
 90
        0
176
     1
 40
0.6
176
     1
 40
30.0
176
     1
 62
     7
420
 16777215
176
     1
 90
        2
176
     1
 90
        2
176
     1
 62
     7
176
     1
 62
   257
176
     1
 90
        1
176
     1
 90
        1
176
     1
 40
179.0
176
     1
 90
        8
176
     1
 62
     7
176
     1
 40
1.0
176
     1
 90
        1
176
     1
 90
        6
176
     1
 90
        2
176
     1
 62
     7
176
     1
 90
        3
176
     1
 90
        0
176
     1
 90
        0
176
     1
290
     0
176
     1
 90
        1
176
     1
 40
0.0
176
     1
 90
        0
176
     1
290
     0
176
     1
290
     1
176
     1
290
     1
176
     1
290
     0
176
     1
290
     0
176
     1
290
     0
176
     1
290
     0
176
     1
290
     0
176
     1
290
     0
176
     1
 90
       50
176
     1
 40
0.0
176
     1
 40
1.0
176
     1
 90
        0
176
     1
 62
    18
420
        0
176
     1
 90
       50
176
     1
 90
        3
176
     1
 62
     5
420
      255
176
     1
290
     0
176
     1
 90
       50
176
     1
 90
       50
176
     1
 90
       50
176
     1
290
     0
176
     1
 90
       50
176
     1
 62
   256
176
     0
 40
1.0
176
     0
 90
        2
176
     1
  1
strokes_ogs.tif
176
     1
290
     0
176
     1
 40
1.0
176
     1
 40
1.0
176
     1
1001
ACAD
1000
AcDbSavedByObjectVersion
1070
     0
  0
VISUALSTYLE
  5
10028
102
{ACAD_REACTORS
330
1001D
102
}
330
1001D
100
AcDbVisualStyle
  2
Dim
 70
    11
177
     3
291
     1
 70
    58
 90
        2
176
     1
 90
        2
176
     1
 90
        0
176
     1
 90
        0
176
     1
 40
0.6
176
     1
 40
30.0
176
     1
 62
     7
420
 16777215
176
     1
 90
        1
176
     1
 90
        4
176
     1
 62
     7
176
     1
 62
   257
176
     1
 90
        1
176
     1
 90
        1
176
     1
 40
1.0
176
     1
 90
        8
176
     1
 62
     7
176
     1
 40
1.0
176
     1
 90
        1
176
     1
 90
        6
176
     1
 90
        2
176
     1
 62
     7
176
     1
 90
        5
176
     1
 90
        0
176
     1
 90
        0
176
     1
290
     0
176
     1
 90
        1
176
     1
 40
-50.0
176
     1
 90
        0
176
     1
290
     0
176
     1
290
     1
176
     1
290
     1
176
     1
290
     0
176
     1
290
     0
176
     1
290
     0
176
     1
290
     0
176
     1
290
     0
176
     1
290
     0
176
     1
 90
       50
176
     1
 40
0.0
176
     1
 40
1.0
176
     1
 90
        0
176
     1
 62
    18
420
        0
176
     1
 90
       50
176
     1
 90
        3
176
     1
 62
     5
420
      255
176
     1
290
     0
176
     1
 90
       50
176
     1
 90
       50
176
     1
 90
       50
176
     1
290
     0
176
     1
 90
       50
176
     1
 62
   256
176
     0
 40
1.0
176
     0
 90
        2
176
     1
  1
strokes_ogs.tif
176
     1
290
     0
176
     1
 40
1.0
176
     1
 40
1.0
176
     1
1001
ACAD
1000
AcDbSavedByObjectVersion
1070
     0
  0
VISUALSTYLE
  5
10035
102
{ACAD_REACTORS
330
1001D
102
}
330
1001D
100
AcDbVisualStyle
  2
EdgeColorOff
 70
    22
177
     3
291
     1
 70
    58
 90
        2
176
     0
 90
        2
176
     0
 90
        0
176
     0
 90
        0
176
     0
 40
0.6
176
     0
 40
30.0
176
     0
 62
     7
420
 16777215
176
     0
 90
        1
176
     0
 90
        4
176
     0
 62
     7
176
     0
 62
   257
176
     0
 90
        1
176
     0
 90
        1
176
     0
 40
1.0
176
     0
 90
        8
176
     2
 62
     7
176
     0
 40
1.0
176
     0
 90
        1
176
     0
 90
        6
176
     0
 90
        2
176
     0
 62
     7
176
     0
 90
        5
176
     0
 90
        0
176
     0
 90
        0
176
     0
290
     0
176
     0
 90
        1
176
     0
 40
0.0
176
     0
 90
        0
176
     0
290
     0
176
     1
290
     1
176
     1
290
     1
176
     1
290
     0
176
     1
290
     0
176
     1
290
     0
176
     1
290
     0
176
     1
290
     0
176
     1
290
     0
176
     1
 90
       50
176
     0
 40
0.0
176
     0
 40
1.0
176
     0
 90
        0
176
     0
 62
    18
420
        0
176
     0
 90
       50
176
     0
 90
        3
176
     0
 62
     5
420
      255
176
     0
290
     0
176
     1
 90
       50
176
     0
 90
       50
176
     0
 90
       50
176
     0
290
     0
176
     1
 90
       50
176
     0
 62
   256
176
     0
 40
1.0
176
     0
 90
        2
176
     0
  1
strokes_ogs.tif
176
     0
290
     0
176
     1
 40
1.0
176
     0
 40
1.0
176
     0
1001
ACAD
1000
AcDbSavedByObjectVersion
1070
     0
  0
VISUALSTYLE
  5
1002C
102
{ACAD_REACTORS
330
1001D
102
}
330
1001D
100
AcDbVisualStyle
  2
Facepattern
 70
    15
177
     3
291
     1
 70
    58
 90
        2
176
     1
 90
        2
176
     1
 90
        0
176
     1
 90
        0
176
     1
 40
0.6
176
     1
 40
30.0
176
     1
 62
     7
420
 16777215
176
     1
 90
        1
176
     1
 90
        4
176
     1
 62
     7
176
     1
 62
   257
176
     1
 90
        1
176
     1
 90
        1
176
     1
 40
1.0
176
     1
 90
        8
176
     1
 62
     7
176
     1
 40
1.0
176
     1
 90
        1
176
     1
 90
        6
176
     1
 90
        2
176
     1
 62
     7
176
     1
 90
        5
176
     1
 90
        0
176
     1
 90
        0
176
     1
290
     0
176
     1
 90
        1
176
     1
 40
0.0
176
     1
 90
        0
176
     1
290
     0
176
     1
290
     1
176
     1
290
     1
176
     1
290
     0
176
     1
290
     0
176
     1
290
     0
176
     1
290
     0
176
     1
290
     0
176
     1
290
     0
176
     1
 90
       50
176
     1
 40
0.0
176
     1
 40
1.0
176
     1
 90
        0
176
     1
 62
    18
420
        0
176
     1
 90
       50
176
     1
 90
        3
176
     1
 62
     5
420
      255
176
     1
290
     0
176
     1
 90
       50
176
     1
 90
       50
176
     1
 90
       50
176
     1
290
     0
176
     1
 90
       50
176
     1
 62
   256
176
     0
 40
1.0
176
     0
 90
        2
176
     1
  1
strokes_ogs.tif
176
     1
290
     0
176
     1
 40
1.0
176
     1
 40
1.0
176
     1
1001
ACAD
1000
AcDbSavedByObjectVersion
1070
     0
  0
VISUALSTYLE
  5
1001E
102
{ACAD_REACTORS
330
1001D
102
}
330
1001D
100
AcDbVisualStyle
  2
Flat
 70
     0
177
     3
291
     1
 70
    58
 90
        2
176
     1
 90
        1
176
     1
 90
        1
176
     1
 90
        2
176
     1
 40
0.6
176
     1
 40
30.0
176
     1
 62
     7
420
 16777215
176
     1
 90
        0
176
     1
 90
        0
176
     1
 62
     7
176
     1
 62
   257
176
     1
 90
        1
176
     1
 90
        1
176
     1
 40
1.0
176
     1
 90
        8
176
     1
 62
     7
176
     1
 40
1.0
176
     1
 90
        1
176
     1
 90
        6
176
     1
 90
        2
176
     1
 62
     7
176
     1
 90
        5
176
     1
 90
        0
176
     1
 90
        0
176
     1
290
     0
176
     1
 90
       13
176
     1
 40
0.0
176
     1
 90
        0
176
     1
290
     0
176
     1
290
     1
176
     1
290
     1
176
     1
290
     0
176
     1
290
     0
176
     1
290
     0
176
     1
290
     0
176
     1
290
     0
176
     1
290
     0
176
     1
 90
       50
176
     1
 40
0.0
176
     1
 40
1.0
176
     1
 90
        0
176
     1
 62
    18
420
        0
176
     1
 90
       50
176
     1
 90
        3
176
     1
 62
     5
420
      255
176
     1
290
     0
176
     1
 90
       50
176
     1
 90
       50
176
     1
 90
       50
176
     1
290
     0
176
     1
 90
       50
176
     1
 62
   256
176
     0
 40
1.0
176
     0
 90
        2
176
     1
  1
strokes_ogs.tif
176
     1
290
     0
176
     1
 40
1.0
176
     1
 40
1.0
176
     1
1001
ACAD
1000
AcDbSavedByObjectVersion
1070
     0
  0
VISUALSTYLE
  5
1001F
102
{ACAD_REACTORS
330
1001D
102
}
330
1001D
100
AcDbVisualStyle
  2
FlatWithEdges
 70
     1
177
     3
291
     1
 70
    58
 90
        2
176
     1
 90
        1
176
     1
 90
        1
176
     1
 90
        2
176
     1
 40
0.6
176
     1
 40
30.0
176
     1
 62
     7
420
 16777215
176
     1
 90
        1
176
     1
 90
        0
176
     1
 62
     7
176
     1
 62
   257
176
     1
 90
        1
176
     1
 90
        1
176
     1
 40
1.0
176
     1
 90
        0
176
     1
 62
   257
176
     1
 40
1.0
176
     1
 90
        1
176
     1
 90
        6
176
     1
 90
        2
176
     1
 62
     7
176
     1
 90
        5
176
     1
 90
        0
176
     1
 90
        0
176
     1
290
     0
176
     1
 90
       13
176
     1
 40
0.0
176
     1
 90
        0
176
     1
290
     0
176
     1
290
     1
176
     1
290
     1
176
     1
290
     0
176
     1
290
     0
176
     1
290
     0
176
     1
290
     0
176
     1
290
     0
176
     1
290
     0
176
     1
 90
       50
176
     1
 40
0.0
176
     1
 40
1.0
176
     1
 90
        0
176
     1
 62
    18
420
        0
176
     1
 90
       50
176
     1
 90
        3
176
     1
 62
     5
420
      255
176
     1
290
     0
176
     1
 90
       50
176
     1
 90
       50
176
     1
 90
       50
176
     1
290
     0
176
     1
 90
       50
176
     1
 62
   256
176
     0
 40
1.0
176
     0
 90
        2
176
     1
  1
strokes_ogs.tif
176
     1
290
     0
176
     1
 40
1.0
176
     1
 40
1.0
176
     1
1001
ACAD
1000
AcDbSavedByObjectVersion
1070
     0
  0
VISUALSTYLE
  5
10020
102
{ACAD_REACTORS
330
1001D
102
}
330
1001D
100
AcDbVisualStyle
  2
Gouraud
 70
     2
177
     3
291
     1
 70
    58
 90
        2
176
     1
 90
        2
176
     1
 90
        1
176
     1
 90
        2
176
     1
 40
0.6
176
     1
 40
30.0
176
     1
 62
     7
420
 16777215
176
     1
 90
        0
176
     1
 90
        0
176
     1
 62
     7
176
     1
 62
   257
176
     1
 90
        1
176
     1
 90
        1
176
     1
 40
1.0
176
     1
 90
        0
176
     1
 62
     7
176
     1
 40
1.0
176
     1
 90
        1
176
     1
 90
        6
176
     1
 90
        2
176
     1
 62
     7
176
     1
 90
        5
176
     1
 90
        0
176
     1
 90
        0
176
     1
290
     0
176
     1
 90
       13
176
     1
 40
0.0
176
     1
 90
        0
176
     1
290
     0
176
     1
290
     1
176
     1
290
     1
176
     1
290
     0
176
     1
290
     0
176
     1
290
     0
176
     1
290
     0
176
     1
290
     0
176
     1
290
     0
176
     1
 90
       50
176
     1
 40
0.0
176
     1
 40
1.0
176
     1
 90
        0
176
     1
 62
    18
420
        0
176
     1
 90
       50
176
     1
 90
        3
176
     1
 62
     5
420
      255
176
     1
290
     0
176
     1
 90
       50
176
     1
 90
       50
176
     1
 90
       50
176
     1
290
     0
176
     1
 90
       50
176
     1
 62
   256
176
     0
 40
1.0
176
     0
 90
        2
176
     1
  1
strokes_ogs.tif
176
     1
290
     0
176
     1
 40
1.0
176
     1
 40
1.0
176
     1
1001
ACAD
1000
AcDbSavedByObjectVersion
1070
     0
  0
VISUALSTYLE
  5
10021
102
{ACAD_REACTORS
330
1001D
102
}
330
1001D
100
AcDbVisualStyle
  2
GouraudWithEdges
 70
     3
177
     3
291
     1
 70
    58
 90
        2
176
     1
 90
        2
176
     1
 90
        1
176
     1
 90
        2
176
     1
 40
0.6
176
     1
 40
30.0
176
     1
 62
     7
420
 16777215
176
     1
 90
        1
176
     1
 90
        0
176
     1
 62
     7
176
     1
 62
   257
176
     1
 90
        1
176
     1
 90
        1
176
     1
 40
1.0
176
     1
 90
        0
176
     1
 62
   257
176
     1
 40
1.0
176
     1
 90
        1
176
     1
 90
        6
176
     1
 90
        2
176
     1
 62
     7
176
     1
 90
        5
176
     1
 90
        0
176
     1
 90
        0
176
     1
290
     0
176
     1
 90
       13
176
     1
 40
0.0
176
     1
 90
        0
176
     1
290
     0
176
     1
290
     1
176
     1
290
     1
176
     1
290
     0
176
     1
290
     0
176
     1
290
     0
176
     1
290
     0
176
     1
290
     0
176
     1
290
     0
176
     1
 90
       50
176
     1
 40
0.0
176
     1
 40
1.0
176
     1
 90
        0
176
     1
 62
    18
420
        0
176
     1
 90
       50
176
     1
 90
        3
176
     1
 62
     5
420
      255
176
     1
290
     0
176
     1
 90
       50
176
     1
 90
       50
176
     1
 90
       50
176
     1
290
     0
176
     1
 90
       50
176
     1
 62
   256
176
     0
 40
1.0
176
     0
 90
        2
176
     1
  1
strokes_ogs.tif
176
     1
290
     0
176
     1
 40
1.0
176
     1
 40
1.0
176
     1
1001
ACAD
1000
AcDbSavedByObjectVersion
1070
     0
  0
VISUALSTYLE
  5
10025
102
{ACAD_REACTORS
330
1001D
102
}
330
1001D
100
AcDbVisualStyle
  2
Hidden
 70
     6
177
     3
291
     0
 70
    58
 90
        1
176
     1
 90
        2
176
     1
 90
        2
176
     1
 90
        0
176
     1
 40
0.6
176
     1
 40
30.0
176
     1
 62
     7
420
 16777215
176
     1
 90
        2
176
     1
 90
        2
176
     1
 62
     7
176
     1
 62
   257
176
     1
 90
        2
176
     1
 90
        1
176
     1
 40
40.0
176
     1
 90
        0
176
     1
 62
   257
176
     1
 40
1.0
176
     1
 90
        1
176
     1
 90
        6
176
     1
 90
        2
176
     1
 62
     7
176
     1
 90
        3
176
     1
 90
        0
176
     1
 90
        0
176
     1
290
     0
176
     1
 90
        1
176
     1
 40
0.0
176
     1
 90
        0
176
     1
290
     0
176
     1
290
     1
176
     1
290
     1
176
     1
290
     0
176
     1
290
     0
176
     1
290
     0
176
     1
290
     0
176
     1
290
     0
176
     1
290
     0
176
     1
 90
       50
176
     1
 40
0.0
176
     1
 40
1.0
176
     1
 90
        0
176
     1
 62
    18
420
        0
176
     1
 90
       50
176
     1
 90
        3
176
     1
 62
     5
420
      255
176
     1
290
     0
176
     1
 90
       50
176
     1
 90
       50
176
     1
 90
       50
176
     1
290
     0
176
     1
 90
       50
176
     1
 62
   256
176
     0
 40
1.0
176
     0
 90
        2
176
     1
  1
strokes_ogs.tif
176
     1
290
     0
176
     1
 40
1.0
176
     1
 40
1.0
176
     1
1001
ACAD
1000
AcDbSavedByObjectVersion
1070
     0
  0
VISUALSTYLE
  5
10033
102
{ACAD_REACTORS
330
1001D
102
}
330
1001D
100
AcDbVisualStyle
  2
JitterOff
 70
    20
177
     3
291
     1
 70
    58
 90
        2
176
     0
 90
        2
176
     0
 90
        0
176
     0
 90
        0
176
     0
 40
0.6
176
     0
 40
30.0
176
     0
 62
     7
420
 16777215
176
     0
 90
        1
176
     0
 90
        4
176
     0
 62
     7
176
     0
 62
   257
176
     0
 90
        1
176
     0
 90
        1
176
     0
 40
1.0
176
     0
 90
       10
176
     2
 62
     7
176
     0
 40
1.0
176
     0
 90
        1
176
     0
 90
        6
176
     0
 90
        2
176
     0
 62
     7
176
     0
 90
        5
176
     0
 90
        0
176
     0
 90
        0
176
     0
290
     0
176
     0
 90
        1
176
     0
 40
0.0
176
     0
 90
        0
176
     0
290
     0
176
     1
290
     1
176
     1
290
     1
176
     1
290
     0
176
     1
290
     0
176
     1
290
     0
176
     1
290
     0
176
     1
290
     0
176
     1
290
     0
176
     1
 90
       50
176
     0
 40
0.0
176
     0
 40
1.0
176
     0
 90
        0
176
     0
 62
    18
420
        0
176
     0
 90
       50
176
     0
 90
        3
176
     0
 62
     5
420
      255
176
     0
290
     0
176
     1
 90
       50
176
     0
 90
       50
176
     0
 90
       50
176
     0
290
     0
176
     1
 90
       50
176
     0
 62
   256
176
     0
 40
1.0
176
     0
 90
        2
176
     0
  1
strokes_ogs.tif
176
     0
290
     0
176
     1
 40
1.0
176
     0
 40
1.0
176
     0
1001
ACAD
1000
AcDbSavedByObjectVersion
1070
     0
  0
VISUALSTYLE
  5
1002B
102
{ACAD_REACTORS
330
1001D
102
}
330
1001D
100
AcDbVisualStyle
  2
Linepattern
 70
    14
177
     3
291
     1
 70
    58
 90
        2
176
     1
 90
        2
176
     1
 90
        0
176
     1
 90
        0
176
     1
 40
0.6
176
     1
 40
30.0
176
     1
 62
     7
420
 16777215
176
     1
 90
        1
176
     1
 90
        4
176
     1
 62
     7
176
     1
 62
   257
176
     1
 90
        7
176
     1
 90
        7
176
     1
 40
1.0
176
     1
 90
        8
176
     1
 62
     7
176
     1
 40
1.0
176
     1
 90
        1
176
     1
 90
        6
176
     1
 90
        2
176
     1
 62
     7
176
     1
 90
        5
176
     1
 90
        0
176
     1
 90
        0
176
     1
290
     0
176
     1
 90
        1
176
     1
 40
0.0
176
     1
 90
        0
176
     1
290
     0
176
     1
290
     1
176
     1
290
     1
176
     1
290
     0
176
     1
290
     0
176
     1
290
     0
176
     1
290
     0
176
     1
290
     0
176
     1
290
     0
176
     1
 90
       50
176
     1
 40
0.0
176
     1
 40
1.0
176
     1
 90
        0
176
     1
 62
    18
420
        0
176
     1
 90
       50
176
     1
 90
        3
176
     1
 62
     5
420
      255
176
     1
290
     0
176
     1
 90
       50
176
     1
 90
       50
176
     1
 90
       50
176
     1
290
     0
176
     1
 90
       50
176
     1
 62
   256
176
     0
 40
1.0
176
     0
 90
        2
176
     1
  1
strokes_ogs.tif
176
     1
290
     0
176
     1
 40
1.0
176
     1
 40
1.0
176
     1
1001
ACAD
1000
AcDbSavedByObjectVersion
1070
     0
  0
VISUALSTYLE
  5
10034
102
{ACAD_REACTORS
330
1001D
102
}
330
1001D
100
AcDbVisualStyle
  2
OverhangOff
 70
    21
177
     3
291
     1
 70
    58
 90
        2
176
     0
 90
        2
176
     0
 90
        0
176
     0
 90
        0
176
     0
 40
0.6
176
     0
 40
30.0
176
     0
 62
     7
420
 16777215
176
     0
 90
        1
176
     0
 90
        4
176
     0
 62
     7
176
     0
 62
   257
176
     0
 90
        1
176
     0
 90
        1
176
     0
 40
1.0
176
     0
 90
        9
176
     2
 62
     7
176
     0
 40
1.0
176
     0
 90
        1
176
     0
 90
        6
176
     0
 90
        2
176
     0
 62
     7
176
     0
 90
        5
176
     0
 90
        0
176
     0
 90
        0
176
     0
290
     0
176
     0
 90
        1
176
     0
 40
0.0
176
     0
 90
        0
176
     0
290
     0
176
     1
290
     1
176
     1
290
     1
176
     1
290
     0
176
     1
290
     0
176
     1
290
     0
176
     1
290
     0
176
     1
290
     0
176
     1
290
     0
176
     1
 90
       50
176
     0
 40
0.0
176
     0
 40
1.0
176
     0
 90
        0
176
     0
 62
    18
420
        0
176
     0
 90
       50
176
     0
 90
        3
176
     0
 62
     5
420
      255
176
     0
290
     0
176
     1
 90
       50
176
     0
 90
       50
176
     0
 90
       50
176
     0
290
     0
176
     1
 90
       50
176
     0
 62
   256
176
     0
 40
1.0
176
     0
 90
        2
176
     0
  1
strokes_ogs.tif
176
     0
290
     0
176
     1
 40
1.0
176
     0
 40
1.0
176
     0
1001
ACAD
1000
AcDbSavedByObjectVersion
1070
     0
  0
VISUALSTYLE
  5
10027
102
{ACAD_REACTORS
330
1001D
102
}
330
1001D
100
AcDbVisualStyle
  2
Realistic
 70
     8
177
     3
291
     0
 70
    58
 90
        2
176
     1
 90
        3
176
     1
 90
        0
176
     1
 90
        2
176
     1
 40
0.6
176
     1
 40
30.0
176
     1
 62
     7
420
 16777215
176
     1
 90
        0
176
     1
 90
        0
176
     1
 62
     7
176
     1
 62
   257
176
     1
 90
        1
176
     1
 90
        1
176
     1
 40
1.0
176
     1
 90
        8
176
     1
 62
   257
176
     1
 40
1.0
176
     1
 90
        1
176
     1
 90
        6
176
     1
 90
        2
176
     1
 62
     7
176
     1
 90
        3
176
     1
 90
        0
176
     1
 90
        0
176
     1
290
     0
176
     1
 90
       13
176
     1
 40
0.0
176
     1
 90
        0
176
     1
290
     0
176
     1
290
     1
176
     1
290
     1
176
     1
290
     0
176
     1
290
     0
176
     1
290
     0
176
     1
290
     0
176
     1
290
     0
176
     1
290
     0
176
     1
 90
       50
176
     1
 40
0.0
176
     1
 40
1.0
176
     1
 90
        0
176
     1
 62
    18
420
        0
176
     1
 90
       50
176
     1
 90
        3
176
     1
 62
     5
420
      255
176
     1
290
     0
176
     1
 90
       50
176
     1
 90
       50
176
     1
 90
       50
176
     1
290
     0
176
     1
 90
       50
176
     1
 62
   256
176
     0
 40
1.0
176
     0
 90
        2
176
     1
  1
strokes_ogs.tif
176
     1
290
     0
176
     1
 40
1.0
176
     1
 40
1.0
176
     1
1001
ACAD
1000
AcDbSavedByObjectVersion
1070
     0
  0
VISUALSTYLE
  5
10032
102
{ACAD_REACTORS
330
1001D
102
}
330
1001D
100
AcDbVisualStyle
  2
Shaded
 70
    27
177
     3
291
     0
 70
    58
 90
        2
176
     1
 90
        2
176
     1
 90
        1
176
     1
 90
        2
176
     1
 40
0.6
176
     1
 40
30.0
176
     1
 62
     7
420
 16777215
176
     1
 90
        0
176
     1
 90
        4
176
     1
 62
     7
176
     1
 62
   257
176
     1
 90
        1
176
     1
 90
        1
176
     1
 40
1.0
176
     1
 90
        8
176
     1
 62
   257
176
     1
 40
1.0
176
     1
 90
        1
176
     1
 90
        6
176
     1
 90
        2
176
     1
 62
     8
420
  7895160
176
     1
 90
        3
176
     1
 90
        0
176
     1
 90
        0
176
     1
290
     0
176
     1
 90
        5
176
     1
 40
0.0
176
     1
 90
        0
176
     1
290
     0
176
     1
290
     1
176
     1
290
     1
176
     1
290
     0
176
     1
290
     0
176
     1
290
     0
176
     1
290
     0
176
     1
290
     0
176
     1
290
     0
176
     1
 90
       50
176
     1
 40
0.0
176
     1
 40
1.0
176
     1
 90
        0
176
     1
 62
    18
420
        0
176
     1
 90
       50
176
     1
 90
        3
176
     1
 62
     5
420
      255
176
     1
290
     0
176
     1
 90
       50
176
     1
 90
       50
176
     1
 90
       50
176
     1
290
     0
176
     1
 90
       50
176
     1
 62
   256
176
     0
 40
1.0
176
     0
 90
        2
176
     1
  1
strokes_ogs.tif
176
     1
290
     0
176
     1
 40
1.0
176
     1
 40
1.0
176
     1
1001
ACAD
1000
AcDbSavedByObjectVersion
1070
     0
  0
VISUALSTYLE
  5
10031
102
{ACAD_REACTORS
330
1001D
102
}
330
1001D
100
AcDbVisualStyle
  2
Shaded with edges
 70
    26
177
     3
291
     0
 70
    58
 90
        2
176
     1
 90
        2
176
     1
 90
        1
176
     1
 90
        2
176
     1
 40
0.6
176
     1
 40
30.0
176
     1
 62
     7
420
 16777215
176
     1
 90
        1
176
     1
 90
        2
176
     1
 62
     7
176
     1
 62
   257
176
     1
 90
        2
176
     1
 90
        1
176
     1
 40
1.0
176
     1
 90
        8
176
     1
 62
   257
176
     1
 40
1.0
176
     1
 90
        1
176
     1
 90
        6
176
     1
 90
        2
176
     1
 62
     7
176
     1
 90
        3
176
     1
 90
        0
176
     1
 90
        0
176
     1
290
     0
176
     1
 90
        5
176
     1
 40
0.0
176
     1
 90
        0
176
     1
290
     0
176
     1
290
     1
176
     1
290
     1
176
     1
290
     0
176
     1
290
     0
176
     1
290
     0
176
     1
290
     0
176
     1
290
     0
176
     1
290
     0
176
     1
 90
       50
176
     1
 40
0.0
176
     1
 40
1.0
176
     1
 90
        0
176
     1
 62
    18
420
        0
176
     1
 90
       50
176
     1
 90
        3
176
     1
 62
     5
420
      255
176
     1
290
     0
176
     1
 90
       50
176
     1
 90
       50
176
     1
 90
       50
176
     1
290
     0
176
     1
 90
       50
176
     1
 62
   256
176
     0
 40
1.0
176
     0
 90
        2
176
     1
  1
strokes_ogs.tif
176
     1
290
     0
176
     1
 40
1.0
176
     1
 40
1.0
176
     1
1001
ACAD
1000
AcDbSavedByObjectVersion
1070
     0
  0
VISUALSTYLE
  5
1002E
102
{ACAD_REACTORS
330
1001D
102
}
330
1001D
100
AcDbVisualStyle
  2
Shades of Gray
 70
    23
177
     3
291
     0
 70
    58
 90
        2
176
     1
 90
        2
176
     1
 90
        3
176
     1
 90
        0
176
     1
 40
0.6
176
     1
 40
30.0
176
     1
 62
     7
420
 16777215
176
     1
 90
        2
176
     1
 90
        2
176
     1
 62
     7
176
     1
 62
     7
176
     1
 90
        1
176
     1
 90
        1
176
     1
 40
40.0
176
     1
 90
        8
176
     1
 62
     7
176
     1
 40
1.0
176
     1
 90
        1
176
     1
 90
        6
176
     1
 90
        2
176
     1
 62
     7
176
     1
 90
        3
176
     1
 90
        0
176
     1
 90
        0
176
     1
290
     0
176
     1
 90
        1
176
     1
 40
0.0
176
     1
 90
        0
176
     1
290
     0
176
     1
290
     1
176
     1
290
     1
176
     1
290
     0
176
     1
290
     0
176
     1
290
     0
176
     1
290
     0
176
     1
290
     0
176
     1
290
     0
176
     1
 90
       50
176
     1
 40
0.0
176
     1
 40
1.0
176
     1
 90
        0
176
     1
 62
    18
420
        0
176
     1
 90
       50
176
     1
 90
        3
176
     1
 62
     5
420
      255
176
     1
290
     0
176
     1
 90
       50
176
     1
 90
       50
176
     1
 90
       50
176
     1
290
     0
176
     1
 90
       50
176
     1
 62
   256
176
     0
 40
1.0
176
     0
 90
        2
176
     1
  1
strokes_ogs.tif
176
     1
290
     0
176
     1
 40
1.0
176
     1
 40
1.0
176
     1
1001
ACAD
1000
AcDbSavedByObjectVersion
1070
     0
  0
VISUALSTYLE
  5
1002F
102
{ACAD_REACTORS
330
1001D
102
}
330
1001D
100
AcDbVisualStyle
  2
Sketchy
 70
    24
177
     3
291
     0
 70
    58
 90
        1
176
     1
 90
        2
176
     1
 90
        2
176
     1
 90
        0
176
     1
 40
0.6
176
     1
 40
30.0
176
     1
 62
     7
420
 16777215
176
     1
 90
        2
176
     1
 90
        2
176
     1
 62
     7
176
     1
 62
     7
176
     1
 90
        1
176
     1
 90
        1
176
     1
 40
40.0
176
     1
 90
       11
176
     1
 62
     7
176
     1
 40
1.0
176
     1
 90
        1
176
     1
 90
        6
176
     1
 90
        2
176
     1
 62
     7
176
     1
 90
        6
176
     1
 90
        0
176
     1
 90
        0
176
     1
290
     0
176
     1
 90
        1
176
     1
 40
0.0
176
     1
 90
        0
176
     1
290
     0
176
     1
290
     1
176
     1
290
     1
176
     1
290
     0
176
     1
290
     0
176
     1
290
     0
176
     1
290
     0
176
     1
290
     0
176
     1
290
     0
176
     1
 90
       50
176
     1
 40
0.0
176
     1
 40
1.0
176
     1
 90
        0
176
     1
 62
    18
420
        0
176
     1
 90
       50
176
     1
 90
        3
176
     1
 62
     5
420
      255
176
     1
290
     0
176
     1
 90
       50
176
     1
 90
       50
176
     1
 90
       50
176
     1
290
     0
176
     1
 90
       50
176
     1
 62
   256
176
     0
 40
1.0
176
     0
 90
        2
176
     1
  1
strokes_ogs.tif
176
     1
290
     0
176
     1
 40
1.0
176
     1
 40
1.0
176
     1
1001
ACAD
1000
AcDbSavedByObjectVersion
1070
     0
  0
VISUALSTYLE
  5
1002A
102
{ACAD_REACTORS
330
1001D
102
}
330
1001D
100
AcDbVisualStyle
  2
Thicken
 70
    13
177
     3
291
     1
 70
    58
 90
        2
176
     1
 90
        2
176
     1
 90
        0
176
     1
 90
        0
176
     1
 40
0.6
176
     1
 40
30.0
176
     1
 62
     7
420
 16777215
176
     1
 90
        1
176
     1
 90
        4
176
     1
 62
     7
176
     1
 62
   257
176
     1
 90
        1
176
     1
 90
        1
176
     1
 40
1.0
176
     1
 90
       12
176
     1
 62
     7
176
     1
 40
1.0
176
     1
 90
        1
176
     1
 90
        6
176
     1
 90
        2
176
     1
 62
     7
176
     1
 90
        5
176
     1
 90
        0
176
     1
 90
        0
176
     1
290
     0
176
     1
 90
        1
176
     1
 40
0.0
176
     1
 90
        0
176
     1
290
     0
176
     1
290
     1
176
     1
290
     1
176
     1
290
     0
176
     1
290
     0
176
     1
290
     0
176
     1
290
     0
176
     1
290
     0
176
     1
290
     0
176
     1
 90
       50
176
     1
 40
0.0
176
     1
 40
1.0
176
     1
 90
        0
176
     1
 62
    18
420
        0
176
     1
 90
       50
176
     1
 90
        3
176
     1
 62
     5
420
      255
176
     1
290
     0
176
     1
 90
       50
176
     1
 90
       50
176
     1
 90
       50
176
     1
290
     0
176
     1
 90
       50
176
     1
 62
   256
176
     0
 40
1.0
176
     0
 90
        2
176
     1
  1
strokes_ogs.tif
176
     1
290
     0
176
     1
 40
1.0
176
     1
 40
1.0
176
     1
1001
ACAD
1000
AcDbSavedByObjectVersion
1070
     0
  0
VISUALSTYLE
  5
10024
102
{ACAD_REACTORS
330
1001D
102
}
330
1001D
100
AcDbVisualStyle
  2
Wireframe
 70
     5
177
     3
291
     0
 70
    58
 90
        0
176
     1
 90
        2
176
     1
 90
        0
176
     1
 90
        0
176
     1
 40
0.6
176
     1
 40
30.0
176
     1
 62
     7
420
 16777215
176
     1
 90
        1
176
     1
 90
        4
176
     1
 62
     7
176
     1
 62
   257
176
     1
 90
        1
176
     1
 90
        1
176
     1
 40
1.0
176
     1
 90
        0
176
     1
 62
   257
176
     1
 40
1.0
176
     1
 90
        1
176
     1
 90
        6
176
     1
 90
        2
176
     1
 62
     7
176
     1
 90
        3
176
     1
 90
        0
176
     1
 90
        0
176
     1
290
     0
176
     1
 90
        1
176
     1
 40
0.0
176
     1
 90
        0
176
     1
290
     0
176
     1
290
     1
176
     1
290
     1
176
     1
290
     0
176
     1
290
     0
176
     1
290
     0
176
     1
290
     0
176
     1
290
     0
176
     1
290
     0
176
     1
 90
       50
176
     1
 40
0.0
176
     1
 40
1.0
176
     1
 90
        0
176
     1
 62
    18
420
        0
176
     1
 90
       50
176
     1
 90
        3
176
     1
 62
     5
420
      255
176
     1
290
     0
176
     1
 90
       50
176
     1
 90
       50
176
     1
 90
       50
176
     1
290
     0
176
     1
 90
       50
176
     1
 62
   256
176
     0
 40
1.0
176
     0
 90
        2
176
     1
  1
strokes_ogs.tif
176
     1
290
     0
176
     1
 40
1.0
176
     1
 40
1.0
176
     1
1001
ACAD
1000
AcDbSavedByObjectVersion
1070
     0
  0
VISUALSTYLE
  5
10030
102
{ACAD_REACTORS
330
1001D
102
}
330
1001D
100
AcDbVisualStyle
  2
X-Ray
 70
    25
177
     3
291
     0
 70
    58
 90
        2
176
     1
 90
        2
176
     1
 90
        1
176
     1
 90
        1
176
     1
 40
0.5
176
     1
 40
30.0
176
     1
 62
     7
420
 16777215
176
     1
 90
        1
176
     1
 90
        0
176
     1
 62
     7
176
     1
 62
   257
176
     1
 90
        1
176
     1
 90
        1
176
     1
 40
1.0
176
     1
 90
        8
176
     1
 62
     7
176
     1
 40
1.0
176
     1
 90
        1
176
     1
 90
        6
176
     1
 90
        2
176
     1
 62
     7
176
     1
 90
        3
176
     1
 90
        0
176
     1
 90
        0
176
     1
290
     0
176
     1
 90
       13
176
     1
 40
0.0
176
     1
 90
        0
176
     1
290
     0
176
     1
290
     1
176
     1
290
     1
176
     1
290
     0
176
     1
290
     0
176
     1
290
     0
176
     1
290
     0
176
     1
290
     0
176
     1
290
     0
176
     1
 90
       50
176
     1
 40
0.0
176
     1
 40
1.0
176
     1
 90
        0
176
     1
 62
    18
420
        0
176
     1
 90
       50
176
     1
 90
        3
176
     1
 62
     5
420
      255
176
     1
290
     0
176
     1
 90
       50
176
     1
 90
       50
176
     1
 90
       50
176
     1
290
     0
176
     1
 90
       50
176
     1
 62
   256
176
     0
 40
1.0
176
     0
 90
        2
176
     1
  1
strokes_ogs.tif
176
     1
290
     0
176
     1
 40
1.0
176
     1
 40
1.0
176
     1
1001
ACAD
1000
AcDbSavedByObjectVersion
1070
     0
  0
DICTIONARYVAR
  5
10067
102
{ACAD_REACTORS
330
10061
102
}
330
10061
100
DictionaryVariables
280
     0
  1
1:1
  0
DICTIONARYVAR
  5
10063
102
{ACAD_REACTORS
330
10061
102
}
330
10061
100
DictionaryVariables
280
     0
  1
STANDARD
  0
DICTIONARYVAR
  5
10062
102
{ACAD_REACTORS
330
10061
102
}
330
10061
100
DictionaryVariables
280
     0
  1
STANDARD
  0
DICTIONARYVAR
  5
10064
102
{ACAD_REACTORS
330
10061
102
}
330
10061
100
DictionaryVariables
280
     0
  1
Imperial24
  0
DICTIONARYVAR
  5
10065
102
{ACAD_REACTORS
330
10061
102
}
330
10061
100
DictionaryVariables
280
     0
  1
Imperial24
  0
DICTIONARYVAR
  5
10069
102
{ACAD_REACTORS
330
10061
102
}
330
10061
100
DictionaryVariables
280
     0
  1
1
  0
DICTIONARYVAR
  5
1006A
102
{ACAD_REACTORS
330
10061
102
}
330
10061
100
DictionaryVariables
280
     0
  1
15
  0
DICTIONARYVAR
  5
10068
102
{ACAD_REACTORS
330
10061
102
}
330
10061
100
DictionaryVariables
280
     0
  1
0
  0
DICTIONARYVAR
  5
10066
102
{ACAD_REACTORS
330
10061
102
}
330
10061
100
DictionaryVariables
280
     0
  1
0
  0
DICTIONARY
  5
10070
330
10052
100
AcDbDictionary
280
     1
281
     1
  3
ACAD_XREC_ROUNDTRIP
360
10071
  0
DICTIONARY
  5
1000E
330
1000D
100
AcDbDictionary
280
     1
281
     1
  3
BUMPTILE
360
10010
  3
DIFFUSETILE
360
1000F
  3
OPACITYTILE
360
10013
  3
REFLECTIONTILE
360
10012
  3
REFRACTIONTILE
360
10014
  3
SPECULARTILE
360
10011
  0
DICTIONARY
  5
10006
330
10005
100
AcDbDictionary
280
     1
281
     1
  3
BUMPTILE
360
10008
  3
DIFFUSETILE
360
10007
  3
OPACITYTILE
360
1000B
  3
REFLECTIONTILE
360
1000A
  3
REFRACTIONTILE
360
1000C
  3
SPECULARTILE
360
10009
  0
DICTIONARY
  5
10016
330
10015
100
AcDbDictionary
280
     1
281
     1
  3
BUMPTILE
360
10018
  3
DIFFUSETILE
360
10017
  3
OPACITYTILE
360
1001B
  3
REFLECTIONTILE
360
1001A
  3
REFRACTIONTILE
360
1001C
  3
SPECULARTILE
360
10019
  0
DICTIONARY
  5
1006E
330
10050
100
AcDbDictionary
280
     1
281
     1
  3
ACAD_XREC_ROUNDTRIP
360
1006F
  0
DICTIONARY
  5
1006B
330
10039
100
AcDbDictionary
280
     1
281
     1
  3
ACAD_ROUNDTRIP_2008_TABLESTYLE_CELLSTYLEMAP
360
1006C
  0
XRECORD
  5
10071
102
{ACAD_REACTORS
330
10070
102
}
330
10070
100
AcDbXrecord
280
     1
102
DISPLAYNAME
  1
Imperial24
102
FLAGS
 90
        0
  0
XRECORD
  5
10010
102
{ACAD_REACTORS
330
1000E
102
}
330
1000E
100
AcDbXrecord
280
     1
270
     1
271
     1
  0
XRECORD
  5
1000F
102
{ACAD_REACTORS
330
1000E
102
}
330
1000E
100
AcDbXrecord
280
     1
270
     1
271
     1
  0
XRECORD
  5
10013
102
{ACAD_REACTORS
330
1000E
102
}
330
1000E
100
AcDbXrecord
280
     1
270
     1
271
     1
  0
XRECORD
  5
10012
102
{ACAD_REACTORS
330
1000E
102
}
330
1000E
100
AcDbXrecord
280
     1
270
     1
271
     1
  0
XRECORD
  5
10014
102
{ACAD_REACTORS
330
1000E
102
}
330
1000E
100
AcDbXrecord
280
     1
270
     1
271
     1
  0
XRECORD
  5
10011
102
{ACAD_REACTORS
330
1000E
102
}
330
1000E
100
AcDbXrecord
280
     1
270
     1
271
     1
  0
XRECORD
  5
10008
102
{ACAD_REACTORS
330
10006
102
}
330
10006
100
AcDbXrecord
280
     1
270
     1
271
     1
  0
XRECORD
  5
10007
102
{ACAD_REACTORS
330
10006
102
}
330
10006
100
AcDbXrecord
280
     1
270
     1
271
     1
  0
XRECORD
  5
1000B
102
{ACAD_REACTORS
330
10006
102
}
330
10006
100
AcDbXrecord
280
     1
270
     1
271
     1
  0
XRECORD
  5
1000A
102
{ACAD_REACTORS
330
10006
102
}
330
10006
100
AcDbXrecord
280
     1
270
     1
271
     1
  0
XRECORD
  5
1000C
102
{ACAD_REACTORS
330
10006
102
}
330
10006
100
AcDbXrecord
280
     1
270
     1
271
     1
  0
XRECORD
  5
10009
102
{ACAD_REACTORS
330
10006
102
}
330
10006
100
AcDbXrecord
280
     1
270
     1
271
     1
  0
XRECORD
  5
10018
102
{ACAD_REACTORS
330
10016
102
}
330
10016
100
AcDbXrecord
280
     1
270
     1
271
     1
  0
XRECORD
  5
10017
102
{ACAD_REACTORS
330
10016
102
}
330
10016
100
AcDbXrecord
280
     1
270
     1
271
     1
  0
XRECORD
  5
1001B
102
{ACAD_REACTORS
330
10016
102
}
330
10016
100
AcDbXrecord
280
     1
270
     1
271
     1
  0
XRECORD
  5
1001A
102
{ACAD_REACTORS
330
10016
102
}
330
10016
100
AcDbXrecord
280
     1
270
     1
271
     1
  0
XRECORD
  5
1001C
102
{ACAD_REACTORS
330
10016
102
}
330
10016
100
AcDbXrecord
280
     1
270
     1
271
     1
  0
XRECORD
  5
10019
102
{ACAD_REACTORS
330
10016
102
}
330
10016
100
AcDbXrecord
280
     1
270
     1
271
     1
  0
XRECORD
  5
1006F
102
{ACAD_REACTORS
330
1006E
102
}
330
1006E
100
AcDbXrecord
280
     1
102
DISPLAYNAME
  1
Imperial24
102
FLAGS
 90
        0
  0
CELLSTYLEMAP
  5
1006C
102
{ACAD_REACTORS
330
1006B
102
}
330
1006B
100
AcDbCellStyleMap
 90
        3
300
CELLSTYLE
  1
TABLEFORMAT_BEGIN
 90
        5
170
     1
 91
        0
 92
    32768
 62
   257
 93
        1
300
CONTENTFORMAT
  1
CONTENTFORMAT_BEGIN
 90
        0
 91
        0
 92
      512
 93
        0
300

 40
0.0
140
1.0
 94
        5
 62
     0
340
11
144
0.25
309
CONTENTFORMAT_END
171
     0
 94
        0
309
TABLEFORMAT_END
  1
CELLSTYLE_BEGIN
 90
        1
 91
        1
300
_TITLE
309
CELLSTYLE_END
300
CELLSTYLE
  1
TABLEFORMAT_BEGIN
 90
        5
170
     1
 91
        0
 92
        0
 62
   257
 93
        1
300
CONTENTFORMAT
  1
CONTENTFORMAT_BEGIN
 90
        0
 91
        0
 92
      512
 93
        0
300

 40
0.0
140
1.0
 94
        5
 62
     0
340
11
144
0.18
309
CONTENTFORMAT_END
171
     0
 94
        0
309
TABLEFORMAT_END
  1
CELLSTYLE_BEGIN
 90
        2
 91
        1
300
_HEADER
309
CELLSTYLE_END
300
CELLSTYLE
  1
TABLEFORMAT_BEGIN
 90
        5
170
     1
 91
        0
 92
        0
 62
   257
 93
        1
300
CONTENTFORMAT
  1
CONTENTFORMAT_BEGIN
 90
        0
 91
        0
 92
      512
 93
        0
300

 40
0.0
140
1.0
 94
        2
 62
     0
340
11
144
0.18
309
CONTENTFORMAT_END
171
     0
 94
        0
309
TABLEFORMAT_END
  1
CELLSTYLE_BEGIN
 90
        3
 91
        2
300
_DATA
309
CELLSTYLE_END
  0
ENDSEC
  0
EOF
