  0
SECTION
  2
HEADER
  9
$ACADVER
  1
AC1027
  9
$ACADMAINTVER
 70
   125
  9
$DWGCODEPAGE
  3
ANSI_1252
  9
$LASTSAVEDBY
  1
zz000
  9
$REQUIREDVERSIONS
160
                 0
  9
$INSBASE
 10
0.0
 20
0.0
 30
0.0
  9
$EXTMIN
 10
-212.8985665995515
 20
115.5415009816214
 30
-0.0000000000036993
  9
$EXTMAX
 10
727.1722393771274
 20
228.1310580949204
 30
0.0000000000033984
  9
$LIMMIN
 10
0.0
 20
0.0
  9
$LIMMAX
 10
12.0
 20
9.0
  9
$ORTHOMODE
 70
     0
  9
$REGENMODE
 70
     1
  9
$FILLMODE
 70
     1
  9
$QTEXTMODE
 70
     0
  9
$MIRRTEXT
 70
     0
  9
$LTSCALE
 40
1.0
  9
$ATTMODE
 70
     1
  9
$TEXTSIZE
 40
0.2
  9
$TRACEWID
 40
0.05
  9
$TEXTSTYLE
  7
STANDARD
  9
$CLAYER
  8
0
  9
$CELTYPE
  6
Continuous
  9
$CECOLOR
 62
   256
  9
$CELTSCALE
 40
1.0
  9
$DISPSILH
 70
     0
  9
$DIMSCALE
 40
1.0
  9
$DIMASZ
 40
0.18
  9
$DIMEXO
 40
0.0625
  9
$DIMDLI
 40
0.38
  9
$DIMRND
 40
0.0
  9
$DIMDLE
 40
0.0
  9
$DIMEXE
 40
0.18
  9
$DIMTP
 40
0.0
  9
$DIMTM
 40
0.0
  9
$DIMTXT
 40
0.18
  9
$DIMCEN
 40
0.09
  9
$DIMTSZ
 40
0.0
  9
$DIMTOL
 70
     0
  9
$DIMLIM
 70
     0
  9
$DIMTIH
 70
     1
  9
$DIMTOH
 70
     1
  9
$DIMSE1
 70
     0
  9
$DIMSE2
 70
     0
  9
$DIMTAD
 70
     0
  9
$DIMZIN
 70
     0
  9
$DIMBLK
  1

  9
$DIMASO
 70
     1
  9
$DIMSHO
 70
     1
  9
$DIMPOST
  1

  9
$DIMAPOST
  1

  9
$DIMALT
 70
     0
  9
$DIMALTD
 70
     2
  9
$DIMALTF
 40
25.4
  9
$DIMLFAC
 40
1.0
  9
$DIMTOFL
 70
     0
  9
$DIMTVP
 40
0.0
  9
$DIMTIX
 70
     0
  9
$DIMSOXD
 70
     0
  9
$DIMSAH
 70
     0
  9
$DIMBLK1
  1

  9
$DIMBLK2
  1

  9
$DIMSTYLE
  2
Standard
  9
$DIMCLRD
 70
     0
  9
$DIMCLRE
 70
     0
  9
$DIMCLRT
 70
     0
  9
$DIMTFAC
 40
1.0
  9
$DIMGAP
 40
0.09
  9
$DIMJUST
 70
     0
  9
$DIMSD1
 70
     0
  9
$DIMSD2
 70
     0
  9
$DIMTOLJ
 70
     1
  9
$DIMTZIN
 70
     0
  9
$DIMALTZ
 70
     0
  9
$DIMALTTZ
 70
     0
  9
$DIMUPT
 70
     0
  9
$DIMDEC
 70
     4
  9
$DIMTDEC
 70
     4
  9
$DIMALTU
 70
     2
  9
$DIMALTTD
 70
     2
  9
$DIMTXSTY
  7
STANDARD
  9
$DIMAUNIT
 70
     0
  9
$DIMADEC
 70
     0
  9
$DIMALTRND
 40
0.0
  9
$DIMAZIN
 70
     0
  9
$DIMDSEP
 70
    46
  9
$DIMATFIT
 70
     3
  9
$DIMFRAC
 70
     0
  9
$DIMLDRBLK
  1

  9
$DIMLUNIT
 70
     2
  9
$DIMLWD
 70
    -2
  9
$DIMLWE
 70
    -2
  9
$DIMTMOVE
 70
     0
  9
$DIMFXL
 40
1.0
  9
$DIMFXLON
 70
     0
  9
$DIMJOGANG
 40
0.7853981633974483
  9
$DIMTFILL
 70
     0
  9
$DIMTFILLCLR
 70
     0
  9
$DIMARCSYM
 70
     0
  9
$DIMLTYPE
  6

  9
$DIMLTEX1
  6

  9
$DIMLTEX2
  6

  9
$DIMTXTDIRECTION
 70
     0
  9
$LUNITS
 70
     2
  9
$LUPREC
 70
     4
  9
$SKETCHINC
 40
0.1
  9
$FILLETRAD
 40
0.0
  9
$AUNITS
 70
     0
  9
$AUPREC
 70
     0
  9
$MENU
  1
.
  9
$ELEVATION
 40
0.0
  9
$PELEVATION
 40
0.0
  9
$THICKNESS
 40
0.0
  9
$LIMCHECK
 70
     0
  9
$CHAMFERA
 40
0.0
  9
$CHAMFERB
 40
0.0
  9
$CHAMFERC
 40
0.0
  9
$CHAMFERD
 40
0.0
  9
$SKPOLY
 70
     0
  9
$TDCREATE
 40
2459828.779189815
  9
$TDUCREATE
 40
2459829.070856482
  9
$TDUPDATE
 40
2459828.781759259
  9
$TDUUPDATE
 40
2459829.073425926
  9
$TDINDWG
 40
0.0025694444
  9
$TDUSRTIMER
 40
0.0025694444
  9
$USRTIMER
 70
     1
  9
$ANGBASE
 50
0.0
  9
$ANGDIR
 70
     0
  9
$PDMODE
 70
     0
  9
$PDSIZE
 40
0.0
  9
$PLINEWID
 40
0.0
  9
$SPLFRAME
 70
     0
  9
$SPLINETYPE
 70
     6
  9
$SPLINESEGS
 70
     8
  9
$HANDSEED
  5
10079
  9
$SURFTAB1
 70
     6
  9
$SURFTAB2
 70
     6
  9
$SURFTYPE
 70
     6
  9
$SURFU
 70
     6
  9
$SURFV
 70
     6
  9
$UCSBASE
  2

  9
$UCSNAME
  2

  9
$UCSORG
 10
0.0
 20
0.0
 30
0.0
  9
$UCSXDIR
 10
1.0
 20
0.0
 30
0.0
  9
$UCSYDIR
 10
0.0
 20
1.0
 30
0.0
  9
$UCSORTHOREF
  2

  9
$UCSORTHOVIEW
 70
     0
  9
$UCSORGTOP
 10
0.0
 20
0.0
 30
0.0
  9
$UCSORGBOTTOM
 10
0.0
 20
0.0
 30
0.0
  9
$UCSORGLEFT
 10
0.0
 20
0.0
 30
0.0
  9
$UCSORGRIGHT
 10
0.0
 20
0.0
 30
0.0
  9
$UCSORGFRONT
 10
0.0
 20
0.0
 30
0.0
  9
$UCSORGBACK
 10
0.0
 20
0.0
 30
0.0
  9
$PUCSBASE
  2

  9
$PUCSNAME
  2

  9
$PUCSORG
 10
0.0
 20
0.0
 30
0.0
  9
$PUCSXDIR
 10
1.0
 20
0.0
 30
0.0
  9
$PUCSYDIR
 10
0.0
 20
1.0
 30
0.0
  9
$PUCSORTHOREF
  2

  9
$PUCSORTHOVIEW
 70
     0
  9
$PUCSORGTOP
 10
0.0
 20
0.0
 30
0.0
  9
$PUCSORGBOTTOM
 10
0.0
 20
0.0
 30
0.0
  9
$PUCSORGLEFT
 10
0.0
 20
0.0
 30
0.0
  9
$PUCSORGRIGHT
 10
0.0
 20
0.0
 30
0.0
  9
$PUCSORGFRONT
 10
0.0
 20
0.0
 30
0.0
  9
$PUCSORGBACK
 10
0.0
 20
0.0
 30
0.0
  9
$USERI1
 70
     0
  9
$USERI2
 70
     0
  9
$USERI3
 70
     0
  9
$USERI4
 70
     0
  9
$USERI5
 70
     0
  9
$USERR1
 40
0.0
  9
$USERR2
 40
0.0
  9
$USERR3
 40
0.0
  9
$USERR4
 40
0.0
  9
$USERR5
 40
0.0
  9
$WORLDVIEW
 70
     1
  9
$SHADEDGE
 70
     3
  9
$SHADEDIF
 70
    70
  9
$TILEMODE
 70
     1
  9
$MAXACTVP
 70
    64
  9
$PINSBASE
 10
0.0
 20
0.0
 30
0.0
  9
$PLIMCHECK
 70
     0
  9
$PEXTMIN
 10
1.000000000000000E+20
 20
1.000000000000000E+20
 30
1.000000000000000E+20
  9
$PEXTMAX
 10
-1.000000000000000E+20
 20
-1.000000000000000E+20
 30
-1.000000000000000E+20
  9
$PLIMMIN
 10
0.0
 20
0.0
  9
$PLIMMAX
 10
12.0
 20
9.0
  9
$UNITMODE
 70
     0
  9
$VISRETAIN
 70
     1
  9
$PLINEGEN
 70
     0
  9
$PSLTSCALE
 70
     1
  9
$TREEDEPTH
 70
  3020
  9
$CMLSTYLE
  2
Standard
  9
$CMLJUST
 70
     0
  9
$CMLSCALE
 40
1.0
  9
$PROXYGRAPHICS
 70
     1
  9
$MEASUREMENT
 70
     0
  9
$CELWEIGHT
370
    -1
  9
$ENDCAPS
280
     0
  9
$JOINSTYLE
280
     0
  9
$LWDISPLAY
290
     0
  9
$INSUNITS
 70
     4
  9
$HYPERLINKBASE
  1

  9
$STYLESHEET
  1

  9
$XEDIT
290
     1
  9
$CEPSNTYPE
380
     0
  9
$PSTYLEMODE
290
     1
  9
$FINGERPRINTGUID
  2
{18478E05-C872-DD4D-A5BA-EFF2722F2940}
  9
$VERSIONGUID
  2
{057C58DA-434A-6548-A1C8-2CE17D7C6FFC}
  9
$EXTNAMES
290
     1
  9
$PSVPSCALE
 40
0.0
  9
$OLESTARTUP
290
     0
  9
$SORTENTS
280
   127
  9
$INDEXCTL
280
     0
  9
$HIDETEXT
280
     0
  9
$XCLIPFRAME
280
     2
  9
$HALOGAP
280
     0
  9
$OBSCOLOR
 70
   257
  9
$OBSLTYPE
280
     0
  9
$INTERSECTIONDISPLAY
280
     0
  9
$INTERSECTIONCOLOR
 70
   257
  9
$DIMASSOC
280
     1
  9
$PROJECTNAME
  1

  9
$CAMERADISPLAY
290
     0
  9
$LENSLENGTH
 40
50.0
  9
$CAMERAHEIGHT
 40
0.0
  9
$STEPSPERSEC
 40
2.0
  9
$STEPSIZE
 40
6.0
  9
$3DDWFPREC
 40
2.0
  9
$PSOLWIDTH
 40
0.25
  9
$PSOLHEIGHT
 40
4.0
  9
$LOFTANG1
 40
1.570796326794896
  9
$LOFTANG2
 40
1.570796326794896
  9
$LOFTMAG1
 40
0.0
  9
$LOFTMAG2
 40
0.0
  9
$LOFTPARAM
 70
     7
  9
$LOFTNORMALS
280
     1
  9
$LATITUDE
 40
37.795
  9
$LONGITUDE
 40
-122.394
  9
$NORTHDIRECTION
 40
0.0
  9
$TIMEZONE
 70
 -8000
  9
$LIGHTGLYPHDISPLAY
280
     1
  9
$TILEMODELIGHTSYNCH
280
     1
  9
$CMATERIAL
347
10005
  9
$SOLIDHIST
280
     0
  9
$SHOWHIST
280
     1
  9
$DWFFRAME
280
     2
  9
$DGNFRAME
280
     0
  9
$REALWORLDSCALE
290
     1
  9
$INTERFERECOLOR
 62
     1
  9
$INTERFEREOBJVS
345
10027
  9
$INTERFEREVPVS
346
10024
  9
$CSHADOW
280
     0
  9
$SHADOWPLANELOCATION
 40
0.0
  0
ENDSEC
  0
SECTION
  2
CLASSES
  0
CLASS
  1
ACDBDICTIONARYWDFLT
  2
AcDbDictionaryWithDefault
  3
ObjectDBX Classes
 90
        0
 91
        1
280
     0
281
     0
  0
CLASS
  1
MATERIAL
  2
AcDbMaterial
  3
ObjectDBX Classes
 90
     1153
 91
        3
280
     0
281
     0
  0
CLASS
  1
VISUALSTYLE
  2
AcDbVisualStyle
  3
ObjectDBX Classes
 90
     4095
 91
       24
280
     0
281
     0
  0
CLASS
  1
TABLESTYLE
  2
AcDbTableStyle
  3
ObjectDBX Classes
 90
     4095
 91
        1
280
     0
281
     0
  0
CLASS
  1
SCALE
  2
AcDbScale
  3
ObjectDBX Classes
 90
     1153
 91
       17
280
     0
281
     0
  0
CLASS
  1
MLEADERSTYLE
  2
AcDbMLeaderStyle
  3
ACDB_MLEADERSTYLE_CLASS
 90
     4095
 91
        1
280
     0
281
     0
  0
CLASS
  1
ACDBSECTIONVIEWSTYLE
  2
AcDbSectionViewStyle
  3
ObjectDBX Classes
 90
     1025
 91
        1
280
     0
281
     0
  0
CLASS
  1
ACDBDETAILVIEWSTYLE
  2
AcDbDetailViewStyle
  3
ObjectDBX Classes
 90
     1025
 91
        1
280
     0
281
     0
  0
CLASS
  1
SOLID_BACKGROUND
  2
AcDbSolidBackground
  3
SCENEOE
 90
     4095
 91
        1
280
     0
281
     0
  0
CLASS
  1
NPOCOLLECTION
  2
AcDbImpNonPersistentObjectsCollection
  3
ObjectDBX Classes
 90
     1153
 91
        1
280
     0
281
     0
  0
CLASS
  1
GROUND_PLANE_BACKGROUND
  2
AcDbGroundPlaneBackground
  3
SCENEOE
 90
     4095
 91
        1
280
     0
281
     0
  0
CLASS
  1
DICTIONARYVAR
  2
AcDbDictionaryVar
  3
ObjectDBX Classes
 90
        0
 91
        9
280
     0
281
     0
  0
CLASS
  1
CELLSTYLEMAP
  2
AcDbCellStyleMap
  3
ObjectDBX Classes
 90
     1152
 91
        1
280
     0
281
     0
  0
ENDSEC
  0
SECTION
  2
TABLES
  0
TABLE
  2
VPORT
  5
8
330
0
100
AcDbSymbolTable
 70
     1
1001
ACAD
1000
DbSaveVer
1071
      247
  0
VPORT
  5
10059
330
8
100
AcDbSymbolTableRecord
100
AcDbViewportTableRecord
  2
*Active
 70
     0
 10
0.0
 20
0.0
 11
1.0
 21
1.0
 12
-251.906463498084
 22
-26.42957722093076
 13
0.0
 23
0.0
 14
1.0
 24
1.0
 15
0.0
 25
0.0
 16
-0.0000000000003411
 26
0.0
 36
859.0307547824389
 17
579.2454071044922
 27
175.3810577392578
 37
-0.0000000000001504
 40
315.3375086435743
 41
2.025141930251419
 42
50.0
 43
0.0
 44
0.0
 50
0.0
 51
0.0
 71
     0
 72
  1000
 73
     1
 74
     3
 75
     0
 76
     0
 77
     0
 78
     0
281
     0
 65
     1
110
0.0
120
0.0
130
0.0
111
1.0
121
0.0
131
0.0
112
0.0
122
1.0
132
0.0
 79
     0
146
0.0
348
10023
 60
     3
 61
     5
292
     1
282
     1
141
0.0
142
0.0
 63
   250
421
  3355443
1001
ACAD_NAV_VCDISPLAY
1070
     3
  0
ENDTAB
  0
TABLE
  2
LTYPE
  5
5
330
0
100
AcDbSymbolTable
 70
     2
  0
LTYPE
  5
14
330
5
100
AcDbSymbolTableRecord
100
AcDbLinetypeTableRecord
  2
BYBLOCK
 70
     0
  3

 72
    65
 73
     0
 40
0.0
  0
LTYPE
  5
15
330
5
100
AcDbSymbolTableRecord
100
AcDbLinetypeTableRecord
  2
BYLAYER
 70
     0
  3

 72
    65
 73
     0
 40
0.0
  0
LTYPE
  5
10001
330
5
100
AcDbSymbolTableRecord
100
AcDbLinetypeTableRecord
  2
Continuous
 70
     0
  3
Solid line
 72
    65
 73
     0
 40
0.0
  0
ENDTAB
  0
TABLE
  2
LAYER
  5
2
330
0
100
AcDbSymbolTable
 70
     1
  0
LAYER
  5
50
102
{ACAD_XDICTIONARY
360
10066
102
}
330
2
100
AcDbSymbolTableRecord
100
AcDbLayerTableRecord
  2
0
 70
     0
 62
     7
  6
Continuous
370
    -3
390
10003
347
10015
348
0
  0
ENDTAB
  0
TABLE
  2
STYLE
  5
3
330
0
100
AcDbSymbolTable
 70
     1
  0
STYLE
  5
11
330
3
100
AcDbSymbolTableRecord
100
AcDbTextStyleTableRecord
  2
STANDARD
 70
     0
 40
0.0
 41
1.0
 50
0.0
 71
     0
 42
0.2
  3

  4

  0
ENDTAB
  0
TABLE
  2
VIEW
  5
6
330
0
100
AcDbSymbolTable
 70
     0
  0
ENDTAB
  0
TABLE
  2
UCS
  5
7
330
0
100
AcDbSymbolTable
 70
     0
  0
ENDTAB
  0
TABLE
  2
APPID
  5
9
330
0
100
AcDbSymbolTable
 70
     3
  0
APPID
  5
12
330
9
100
AcDbSymbolTableRecord
100
AcDbRegAppTableRecord
  2
ACAD
 70
     0
  0
APPID
  5
10058
330
9
100
AcDbSymbolTableRecord
100
AcDbRegAppTableRecord
  2
ACAD_NAV_VCDISPLAY
 70
     0
  0
APPID
  5
1005F
330
9
100
AcDbSymbolTableRecord
100
AcDbRegAppTableRecord
  2
ACAD_EXEMPT_FROM_CAD_STANDARDS
 70
     0
  0
ENDTAB
  0
TABLE
  2
DIMSTYLE
  5
A
330
0
100
AcDbSymbolTable
 70
     2
100
AcDbDimStyleTable
 71
     0
  0
DIMSTYLE
105
10053
330
A
100
AcDbSymbolTableRecord
100
AcDbDimStyleTableRecord
  2
Standard
 70
     0
340
11
  0
ENDTAB
  0
TABLE
  2
BLOCK_RECORD
  5
1
330
0
100
AcDbSymbolTable
 70
     1
  0
BLOCK_RECORD
  5
1F
330
1
100
AcDbSymbolTableRecord
100
AcDbBlockTableRecord
  2
*MODEL_SPACE
340
10055
 70
     0
280
     1
281
     0
  0
BLOCK_RECORD
  5
1B
330
1
100
AcDbSymbolTableRecord
100
AcDbBlockTableRecord
  2
*PAPER_SPACE
340
10056
 70
     0
280
     1
281
     0
  0
ENDTAB
  0
ENDSEC
  0
SECTION
  2
BLOCKS
  0
BLOCK
  5
20
330
1F
100
AcDbEntity
  8
0
100
AcDbBlockBegin
  2
*MODEL_SPACE
 70
     0
 10
0.0
 20
0.0
 30
0.0
  3
*MODEL_SPACE
  1

  0
ENDBLK
  5
21
330
1F
100
AcDbEntity
  8
0
100
AcDbBlockEnd
  0
BLOCK
  5
1C
330
1B
100
AcDbEntity
 67
     1
  8
0
100
AcDbBlockBegin
  2
*PAPER_SPACE
 70
     0
 10
0.0
 20
0.0
 30
0.0
  3
*PAPER_SPACE
  1

  0
ENDBLK
  5
1D
330
1B
100
AcDbEntity
 67
     1
  8
0
100
AcDbBlockEnd
  0
ENDSEC
  0
SECTION
  2
ENTITIES
  0
LWPOLYLINE
  5
100
330
1F
100
AcDbEntity
  8
0
100
AcDbPolyline
 90
       72
 70
     1
 43
0.0
 10
478.0862971885791
 20
216.0914904004668
 42
-0.4142135623730951
 10
480.086297188579
 20
214.0914904004667
 10
480.086297188579
 20
201.5413992422507
 42
0.4142135623730951
 10
482.0862971885791
 20
199.5413992422508
 10
483.105634699192
 20
199.5413992422507
 42
-0.4142135623730951
 10
484.6056346991922
 20
198.0413992422507
 10
484.6056346991922
 20
142.0392472786967
 42
-0.4142135623730951
 10
483.105634699192
 20
140.5392472786967
 10
482.0862971885791
 20
140.5392472786968
 42
0.4142135623730951
 10
480.086297188579
 20
138.5392472786967
 10
480.086297188579
 20
121.9415059698968
 42
-0.4142135623729494
 10
478.0862971885791
 20
119.9415059698978
 10
471.25163968748
 20
119.9415059698978
 42
0.4142135623730951
 10
469.25163968748
 20
117.9415059698977
 10
469.2516371933345
 20
117.5414967434747
 42
-0.4142129417115691
 10
467.2516346991922
 20
115.5415009816227
 10
411.251634699192
 20
115.5415009816227
 42
-0.4142129417043853
 10
409.2516346991965
 20
117.5414967434297
 10
409.2516346991961
 20
117.9415059698977
 42
0.4142135623730951
 10
407.251634699196
 20
119.9415059698977
 10
368.6261396874801
 20
119.9415059698968
 42
0.4142135623732407
 10
366.6261396874801
 20
117.9415059698958
 10
366.6261371933339
 20
117.5414967434736
 42
-0.4142129417115691
 10
364.6261346991921
 20
115.5415009816218
 10
308.626134699192
 20
115.5415009816228
 42
-0.4142129417043853
 10
306.6261346991964
 20
117.5414967434298
 10
306.626134699196
 20
117.9415059698967
 42
0.4142135623730951
 10
304.626134699196
 20
119.9415059698967
 10
266.054066628843
 20
119.9415059698968
 42
0.4142135623732407
 10
264.054066628843
 20
117.9415059698958
 10
264.0540641346976
 20
117.5879135880457
 42
-0.4142129417114391
 10
262.0540616405549
 20
115.5879178261948
 10
206.0540616405549
 20
115.5879178261947
 42
-0.4142129417045256
 10
204.0540616405594
 20
117.5879135880027
 10
204.054061640559
 20
117.9415059698967
 42
0.4142135623729494
 10
202.054061640559
 20
119.9415059698958
 10
195.151637333551
 20
119.9415059698958
 42
-0.4142135623732407
 10
193.151637333551
 20
121.9415059698968
 10
193.151637333551
 20
138.5392472786978
 42
0.4142135623729494
 10
191.151637333551
 20
140.5392472786968
 10
190.251964704466
 20
140.5392472786978
 42
-0.4142135623732963
 10
188.751964704466
 20
142.0392472786978
 10
188.751964704466
 20
198.0413992422517
 42
-0.414213562372901
 10
190.251964704466
 20
199.5413992422508
 10
191.1516373335511
 20
199.5413992422508
 42
0.4142135623732407
 10
193.1516373335511
 20
201.5413992422518
 10
193.151637333551
 20
214.0914904004657
 42
-0.4142135623732407
 10
195.151637333551
 20
216.0914904004668
 10
223.261634885456
 20
216.0914904004668
 42
0.4142135623729494
 10
225.261634885456
 20
218.0914904004658
 10
225.261634885456
 20
219.0414998299557
 42
-0.4142135623730951
 10
227.261634885456
 20
221.0414998299557
 10
283.28843698166
 20
221.0414998299548
 42
-0.4142135623730951
 10
285.2884369816599
 20
219.0414998299557
 10
285.2884369816588
 20
218.0914904004658
 42
0.4142135623729494
 10
287.2884369816588
 20
216.0914904004668
 10
315.2616348854559
 20
216.0914904004668
 42
0.4142135623729494
 10
317.2616348854559
 20
218.0914904004658
 10
317.2616348854559
 20
219.0414998299557
 42
-0.4142135623730951
 10
319.2616348854559
 20
221.0414998299557
 10
375.288436981659
 20
221.0414998299548
 42
-0.4142135623730951
 10
377.2884369816591
 20
219.0414998299557
 10
377.288436981659
 20
218.0914904004657
 42
0.4142135623729494
 10
379.288436981659
 20
216.0914904004668
 10
407.201634885456
 20
216.0914904004668
 42
0.4142135623729494
 10
409.2016348854561
 20
218.0914904004657
 10
409.2016348854561
 20
219.0414998299557
 42
-0.4142135623730951
 10
411.201634885456
 20
221.0414998299557
 10
467.3016365692909
 20
221.0414998299557
 42
-0.4142135623730951
 10
469.3016365692911
 20
219.0414998299547
 10
469.3016365692911
 20
218.0914904004668
 42
0.4142135623732407
 10
471.3016365692912
 20
216.0914904004658
  0
LWPOLYLINE
  5
101
330
1F
100
AcDbEntity
  8
0
100
AcDbPolyline
 90
        8
 70
     1
 43
0.0
 10
311.5518830451631
 20
199.3076963595587
 42
-0.4142135623730951
 10
310.5518830451631
 20
200.3076963595588
 10
310.5518830451631
 20
212.3069963595588
 42
-0.4142135623730951
 10
311.5518830451631
 20
213.3069963595588
 10
323.551433045163
 20
213.3069963595588
 42
-0.4142135623730951
 10
324.551433045163
 20
212.3069963595588
 10
324.5514330451632
 20
200.3076963595588
 42
-0.4142135623730951
 10
323.551433045163
 20
199.3076963595587
  0
LWPOLYLINE
  5
102
330
1F
100
AcDbEntity
  8
0
100
AcDbPolyline
 90
        8
 70
     1
 43
0.0
 10
198.633343045163
 20
136.1069663595578
 42
-0.4142135623730951
 10
199.633343045163
 20
137.1069663595578
 10
214.0141330451629
 20
137.1069663595578
 42
-0.4142135623730951
 10
215.0141330451629
 20
136.1069663595578
 10
215.0141330451629
 20
124.1076663595588
 42
-0.4142135623730951
 10
214.0141330451629
 20
123.1076663595588
 10
199.633343045163
 20
123.1076663595588
 42
-0.4142135623730951
 10
198.633343045163
 20
124.1076663595588
  0
LWPOLYLINE
  5
103
330
1F
100
AcDbEntity
  8
0
100
AcDbPolyline
 90
       23
 70
     1
 43
0.0
 10
370.793917119903
 20
124.5817249595588
 10
370.793917119903
 20
124.5475100158468
 42
0.4142135623730951
 10
371.293917119903
 20
124.0475100158468
 10
378.0939171199029
 20
124.0475100158468
 42
0.4142135623730951
 10
378.5939171199029
 20
124.5475100158468
 10
378.5939171199029
 20
128.5749730976498
 10
378.5939373291829
 20
128.5749730976488
 10
378.5939373291829
 20
131.6385182214688
 10
378.5939171199029
 20
131.6385182214688
 10
378.5939171199029
 20
135.5475100158467
 42
0.4142135623730951
 10
378.0939171199029
 20
136.0475100158467
 10
376.493917119903
 20
136.0475100158468
 42
-0.4142135623730951
 10
375.993917119903
 20
136.5475100158468
 10
375.993917119903
 20
137.5334148399578
 42
0.4142135623730951
 10
375.493917119903
 20
138.0334148399578
 10
373.893917119903
 20
138.0334148399578
 42
0.4142135623730951
 10
373.393917119903
 20
137.5334148399578
 10
373.393917119903
 20
136.5475100158468
 42
-0.4142135623730951
 10
372.893917119903
 20
136.0475100158468
 10
371.293917119903
 20
136.0475100158468
 42
0.3654466461625797
 10
370.8010673775432
 20
135.6317663595597
 10
370.801037037503
 20
135.6317663595598
 10
370.801037037503
 20
124.5817249595598
  0
LWPOLYLINE
  5
104
330
1F
100
AcDbEntity
  8
0
100
AcDbPolyline
 90
        8
 70
     1
 43
0.0
 10
196.252083045163
 20
212.3069963595588
 42
-0.4142135623730951
 10
197.252083045163
 20
213.3069963595588
 10
209.251633045163
 20
213.3069963595588
 42
-0.4142135623730951
 10
210.251633045163
 20
212.3069963595588
 10
210.251633045163
 20
200.3076963595588
 42
-0.4142135623730951
 10
209.251633045163
 20
199.3076963595587
 10
197.252083045163
 20
199.3076963595587
 42
-0.4142135623730951
 10
196.252083045163
 20
200.3076963595588
  0
LWPOLYLINE
  5
105
330
1F
100
AcDbEntity
  8
0
100
AcDbPolyline
 90
        8
 70
     1
 43
0.0
 10
418.8014330451629
 20
213.3069963595588
 42
-0.4142135623730951
 10
419.801433045163
 20
212.3069963595587
 10
419.801433045163
 20
200.3076963595587
 42
-0.4142135623730951
 10
418.8014330451629
 20
199.3076963595587
 10
406.8018830451632
 20
199.3076963595587
 42
-0.4142135623730951
 10
405.8018830451632
 20
200.3076963595587
 10
405.8018830451632
 20
212.3069963595587
 42
-0.4142135623730951
 10
406.8018830451632
 20
213.3069963595588
  0
LWPOLYLINE
  5
106
330
1F
100
AcDbEntity
  8
0
100
AcDbPolyline
 90
       20
 70
     1
 43
0.0
 10
449.7785757051631
 20
199.3076963595577
 10
470.9775757051629
 20
199.3076963595577
 10
470.9775757051633
 20
198.7678260354477
 42
0.4142135623730951
 10
471.4775757051633
 20
198.2678260354477
 10
473.0775757051633
 20
198.2678260354477
 42
0.4142135623730951
 10
473.5775757051633
 20
198.7678260354477
 10
473.5775757051633
 20
199.3076963595577
 10
475.9514330451633
 20
199.3076963595588
 42
0.4142135623730951
 10
476.9514330451629
 20
200.3076963595587
 10
476.9514330451629
 20
212.3069963595587
 42
0.4142135623730951
 10
475.9514330451633
 20
213.3069963595588
 10
444.9018830451632
 20
213.3069963595587
 42
0.4142135623730951
 10
443.9018830451632
 20
212.3069963595587
 10
443.9018830451632
 20
200.3076963595587
 42
0.4142135623730951
 10
444.9018830451632
 20
199.3076963595587
 10
447.1785757051633
 20
199.3076963595577
 10
447.1785757051633
 20
198.7678260354477
 42
0.4142135623730951
 10
447.6785757051629
 20
198.2678260354477
 10
449.2785757051631
 20
198.2678260354477
 42
0.4142135623730951
 10
449.7785757051631
 20
198.7678260354477
  0
LWPOLYLINE
  5
107
330
1F
100
AcDbEntity
  8
0
100
AcDbPolyline
 90
        8
 70
     1
 43
0.0
 10
215.301883045163
 20
212.3069963595588
 42
-0.4142135623730951
 10
216.301883045163
 20
213.3069963595588
 10
228.3014330451631
 20
213.3069963595588
 42
-0.4142135623730951
 10
229.301433045163
 20
212.3069963595588
 10
229.301433045163
 20
200.3076963595588
 42
-0.4142135623730951
 10
228.3014330451631
 20
199.3076963595587
 10
216.301883045163
 20
199.3076963595587
 42
-0.4142135623730951
 10
215.301883045163
 20
200.3076963595588
  0
LWPOLYLINE
  5
108
330
1F
100
AcDbEntity
  8
0
100
AcDbPolyline
 90
       16
 70
     1
 43
0.0
 10
204.509975705163
 20
142.6037308595597
 42
-0.4142135623730951
 10
205.0099757051629
 20
143.1037308595598
 10
206.609975705163
 20
143.1037308595588
 42
0.4142135623730951
 10
207.109975705163
 20
143.6037308595588
 10
207.109975705163
 20
154.6037308595588
 42
0.4142135623730951
 10
206.609975705163
 20
155.1037308595588
 10
199.8099757051629
 20
155.1037308595588
 42
0.4142135623730951
 10
199.309975705163
 20
154.6037308595588
 10
199.309975705163
 20
143.6037308595588
 42
0.4142135623730951
 10
199.8099757051629
 20
143.1037308595587
 10
201.409975705163
 20
143.1037308595598
 42
-0.4142135623730951
 10
201.909975705163
 20
142.6037308595597
 10
201.9099757051629
 20
141.6178260354478
 42
0.4142135623730951
 10
202.409975705163
 20
141.1178260354478
 10
204.0099757051629
 20
141.1178260354478
 42
0.4142135623730951
 10
204.5099757051629
 20
141.6178260354478
  0
LWPOLYLINE
  5
109
330
1F
100
AcDbEntity
  8
0
100
AcDbPolyline
 90
       16
 70
     1
 43
0.0
 10
468.1975757051633
 20
162.1537308595587
 42
-0.4142135623730951
 10
468.6975757051629
 20
161.6537308595587
 10
468.6975757051629
 20
160.6678260354477
 42
0.4142135623730951
 10
469.1975757051629
 20
160.1678260354477
 10
470.7975757051631
 20
160.1678260354477
 42
0.4142135623730951
 10
471.2975757051631
 20
160.6678260354477
 10
471.2975757051631
 20
161.6537308595587
 42
-0.4142135623730951
 10
471.7975757051631
 20
162.1537308595587
 10
473.3975757051631
 20
162.1537308595597
 42
0.4142135623730951
 10
473.8975757051631
 20
162.6537308595598
 10
473.8975757051631
 20
173.6537308595598
 42
0.4142135623730951
 10
473.3975757051631
 20
174.1537308595598
 10
466.5975757051633
 20
174.1537308595597
 42
0.4142135623730951
 10
466.0975757051633
 20
173.6537308595598
 10
466.0975757051633
 20
162.6537308595598
 42
0.4142135623730951
 10
466.5975757051633
 20
162.1537308595597
  0
LWPOLYLINE
  5
110
330
1F
100
AcDbEntity
  8
0
100
AcDbPolyline
 90
       16
 70
     1
 43
0.0
 10
225.3099757051629
 20
143.1037308595598
 42
-0.4142135623730951
 10
225.8099757051629
 20
142.6037308595597
 10
225.8099757051629
 20
141.6178260354478
 42
0.4142135623730951
 10
226.3099757051629
 20
141.1178260354478
 10
227.909975705163
 20
141.1178260354478
 42
0.4142135623730951
 10
228.409975705163
 20
141.6178260354478
 10
228.409975705163
 20
142.6037308595597
 42
-0.4142135623730951
 10
228.909975705163
 20
143.1037308595598
 10
230.509975705163
 20
143.1037308595588
 42
0.4142135623730951
 10
231.0099757051629
 20
143.6037308595588
 10
231.009975705163
 20
154.6037308595588
 42
0.4142135623730951
 10
230.509975705163
 20
155.1037308595588
 10
223.709975705163
 20
155.1037308595588
 42
0.4142135623730951
 10
223.209975705163
 20
154.6037308595588
 10
223.209975705163
 20
143.6037308595588
 42
0.4142135623730951
 10
223.709975705163
 20
143.1037308595587
  0
LWPOLYLINE
  5
111
330
1F
100
AcDbEntity
  8
0
100
AcDbPolyline
 90
        8
 70
     1
 43
0.0
 10
201.0145830451629
 20
193.2569963595588
 42
-0.4142135623730951
 10
202.014583045163
 20
194.2569963595587
 10
214.0141330451629
 20
194.2569963595587
 42
-0.4142135623730951
 10
215.0141330451629
 20
193.2569963595588
 10
215.0141330451629
 20
181.2576963595578
 42
-0.4142135623730951
 10
214.0141330451629
 20
180.2576963595578
 10
202.014583045163
 20
180.2576963595577
 42
-0.4142135623730951
 10
201.0145830451629
 20
181.2576963595578
  0
LWPOLYLINE
  5
112
330
1F
100
AcDbEntity
  8
0
100
AcDbPolyline
 90
       16
 70
     1
 43
0.0
 10
447.3975757051631
 20
161.6537308595587
 42
-0.4142135623730951
 10
447.8975757051631
 20
162.1537308595587
 10
449.4975757051632
 20
162.1537308595597
 42
0.4142135623730951
 10
449.9975757051629
 20
162.6537308595598
 10
449.9975757051629
 20
173.6537308595598
 42
0.4142135623730951
 10
449.4975757051632
 20
174.1537308595598
 10
442.6975757051632
 20
174.1537308595597
 42
0.4142135623730951
 10
442.1975757051632
 20
173.6537308595598
 10
442.1975757051632
 20
162.6537308595598
 42
0.4142135623730951
 10
442.6975757051632
 20
162.1537308595597
 10
444.2975757051629
 20
162.1537308595587
 42
-0.4142135623730951
 10
444.7975757051629
 20
161.6537308595587
 10
444.7975757051631
 20
160.6678260354477
 42
0.4142135623730951
 10
445.2975757051631
 20
160.1678260354477
 10
446.8975757051631
 20
160.1678260354477
 42
0.4142135623730951
 10
447.3975757051629
 20
160.6678260354477
  0
LWPOLYLINE
  5
113
330
1F
100
AcDbEntity
  8
0
100
AcDbPolyline
 90
        8
 70
     1
 43
0.0
 10
437.851433045163
 20
213.3069963595588
 42
-0.4142135623730951
 10
438.8514330451629
 20
212.3069963595587
 10
438.8514330451629
 20
200.3076963595587
 42
-0.4142135623730951
 10
437.851433045163
 20
199.3076963595587
 10
425.851883045163
 20
199.3076963595587
 42
-0.4142135623730951
 10
424.851883045163
 20
200.3076963595587
 10
424.851883045163
 20
212.3069963595587
 42
-0.4142135623730951
 10
425.851883045163
 20
213.3069963595588
  0
LWPOLYLINE
  5
114
330
1F
100
AcDbEntity
  8
0
100
AcDbPolyline
 90
        8
 70
     1
 43
0.0
 10
380.701433045163
 20
213.3069963595588
 42
-0.4142135623730951
 10
381.7014330451629
 20
212.3069963595588
 10
381.7014330451629
 20
200.3076963595588
 42
-0.4142135623730951
 10
380.701433045163
 20
199.3076963595587
 10
368.701883045163
 20
199.3076963595587
 42
-0.4142135623730951
 10
367.701883045163
 20
200.3076963595588
 10
367.701883045163
 20
212.3069963595588
 42
-0.4142135623730951
 10
368.701883045163
 20
213.3069963595588
  0
LWPOLYLINE
  5
115
330
1F
100
AcDbEntity
  8
0
100
AcDbPolyline
 90
        8
 70
     1
 43
0.0
 10
258.164165265163
 20
155.1569734995578
 42
-0.4142135623730951
 10
259.1641652651631
 20
156.1569734995578
 10
271.1637152651631
 20
156.1569734995578
 42
-0.4142135623730951
 10
272.1637152651631
 20
155.1569734995578
 10
272.1637152651631
 20
143.1576734995577
 42
-0.4142135623730951
 10
271.1637152651631
 20
142.1576734995578
 10
259.1641652651631
 20
142.1576734995577
 42
-0.4142135623730951
 10
258.164165265163
 20
143.1576734995577
  0
LWPOLYLINE
  5
116
330
1F
100
AcDbEntity
  8
0
100
AcDbPolyline
 90
        8
 70
     1
 43
0.0
 10
353.413940265163
 20
155.1569734995578
 42
-0.4142135623730951
 10
354.413940265163
 20
156.1569734995578
 10
366.413940265163
 20
156.1569734995578
 42
-0.4142135623730951
 10
367.413940265163
 20
155.1569734995578
 10
367.413940265163
 20
143.1569734995568
 42
-0.4142135623730951
 10
366.413940265163
 20
142.1569734995568
 10
354.413940265163
 20
142.1569734995568
 42
-0.4142135623730951
 10
353.413940265163
 20
143.1569734995568
  0
LWPOLYLINE
  5
117
330
1F
100
AcDbEntity
  8
0
100
AcDbPolyline
 90
        8
 70
     1
 43
0.0
 10
247.258433045163
 20
123.1076663595588
 42
-0.4142135623730951
 10
246.258433045163
 20
124.1076663595588
 10
246.258433045163
 20
136.1069663595578
 42
-0.4142135623730951
 10
247.258433045163
 20
137.1069663595578
 10
261.6389330451629
 20
137.1069663595578
 42
-0.4142135623730951
 10
262.6389330451631
 20
136.1069663595578
 10
262.6389330451631
 20
124.1076663595588
 42
-0.4142135623730951
 10
261.6389330451629
 20
123.1076663595588
  0
LWPOLYLINE
  5
118
330
1F
100
AcDbEntity
  8
0
100
AcDbPolyline
 90
        8
 70
     1
 43
0.0
 10
434.3766830451632
 20
193.2569963595587
 42
-0.4142135623730951
 10
435.3766830451632
 20
194.2569963595587
 10
447.3762330451632
 20
194.2569963595587
 42
-0.4142135623730951
 10
448.3762330451632
 20
193.2569963595587
 10
448.3762330451632
 20
181.2576963595577
 42
-0.4142135623730951
 10
447.3762330451632
 20
180.2576963595577
 10
435.3766830451632
 20
180.2576963595577
 42
-0.4142135623730951
 10
434.3766830451629
 20
181.2576963595577
  0
LWPOLYLINE
  5
119
330
1F
100
AcDbEntity
  8
0
100
AcDbPolyline
 90
        8
 70
     1
 43
0.0
 10
401.0389402651632
 20
174.2069734995587
 42
-0.4142135623730951
 10
402.038940265163
 20
175.2069734995588
 10
414.0389402651631
 20
175.2069734995588
 42
-0.4142135623730951
 10
415.0389402651631
 20
174.2069734995587
 10
415.0389402651629
 20
162.2069734995578
 42
-0.4142135623730951
 10
414.0389402651631
 20
161.2069734995577
 10
402.038940265163
 20
161.2069734995577
 42
-0.4142135623730951
 10
401.0389402651632
 20
162.2069734995578
  0
LWPOLYLINE
  5
120
330
1F
100
AcDbEntity
  8
0
100
AcDbPolyline
 90
        8
 70
     1
 43
0.0
 10
329.3139402651629
 20
143.1569734995568
 42
-0.4142135623730951
 10
328.313940265163
 20
142.1569734995568
 10
316.3139402651629
 20
142.1569734995568
 42
-0.4142135623730951
 10
315.3139402651628
 20
143.1569734995568
 10
315.3139402651628
 20
155.1569734995578
 42
-0.4142135623730951
 10
316.3139402651629
 20
156.1569734995578
 10
328.313940265163
 20
156.1569734995578
 42
-0.4142135623730951
 10
329.3139402651629
 20
155.1569734995578
  0
LWPOLYLINE
  5
121
330
1F
100
AcDbEntity
  8
0
100
AcDbPolyline
 90
        8
 70
     1
 43
0.0
 10
277.214165265163
 20
155.1569734995578
 42
-0.4142135623730951
 10
278.2141652651629
 20
156.1569734995578
 10
290.2137152651629
 20
156.1569734995578
 42
-0.4142135623730951
 10
291.2137152651629
 20
155.1569734995578
 10
291.2137152651629
 20
143.1576734995577
 42
-0.4142135623730951
 10
290.2137152651629
 20
142.1576734995578
 10
278.2141652651629
 20
142.1576734995577
 42
-0.4142135623730951
 10
277.214165265163
 20
143.1576734995577
  0
LWPOLYLINE
  5
122
330
1F
100
AcDbEntity
  8
0
100
AcDbPolyline
 90
        8
 70
     1
 43
0.0
 10
399.7514330451632
 20
213.3069963595588
 42
-0.4142135623730951
 10
400.7514330451632
 20
212.3069963595587
 10
400.7514330451632
 20
200.3076963595587
 42
-0.4142135623730951
 10
399.7514330451632
 20
199.3076963595587
 10
387.751883045163
 20
199.3076963595587
 42
-0.4142135623730951
 10
386.751883045163
 20
200.3076963595588
 10
386.751883045163
 20
212.3069963595588
 42
-0.4142135623730951
 10
387.751883045163
 20
213.3069963595588
  0
LWPOLYLINE
  5
123
330
1F
100
AcDbEntity
  8
0
100
AcDbPolyline
 90
        8
 70
     1
 43
0.0
 10
348.3639402651633
 20
143.1569734995568
 42
-0.4142135623730951
 10
347.363940265163
 20
142.1569734995568
 10
335.363940265163
 20
142.1569734995568
 42
-0.4142135623730951
 10
334.363940265163
 20
143.1569734995568
 10
334.363940265163
 20
155.1569734995578
 42
-0.4142135623730951
 10
335.363940265163
 20
156.1569734995578
 10
347.363940265163
 20
156.1569734995578
 42
-0.4142135623730951
 10
348.363940265163
 20
155.1569734995578
  0
LWPOLYLINE
  5
124
330
1F
100
AcDbEntity
  8
0
100
AcDbPolyline
 90
        8
 70
     1
 43
0.0
 10
458.1898830451631
 20
193.2569963595587
 42
-0.4142135623730951
 10
459.1898830451631
 20
194.2569963595587
 10
471.1894330451631
 20
194.2569963595587
 42
-0.4142135623730951
 10
472.189433045163
 20
193.2569963595587
 10
472.189433045163
 20
181.2576963595577
 42
-0.4142135623730951
 10
471.1894330451631
 20
180.2576963595577
 10
459.1898830451631
 20
180.2576963595577
 42
-0.4142135623730951
 10
458.1898830451631
 20
181.2576963595577
  0
LWPOLYLINE
  5
125
330
1F
100
AcDbEntity
  8
0
100
AcDbPolyline
 90
        8
 70
     1
 43
0.0
 10
372.176458045163
 20
181.2569963595588
 42
-0.4142135623730951
 10
371.176458045163
 20
180.2569963595588
 10
359.176458045163
 20
180.2569963595588
 42
-0.4142135623730951
 10
358.176458045163
 20
181.2569963595588
 10
358.176458045163
 20
193.2569963595588
 42
-0.4142135623730951
 10
359.176458045163
 20
194.2569963595587
 10
371.176458045163
 20
194.2569963595587
 42
-0.4142135623730951
 10
372.176458045163
 20
193.2569963595588
  0
LWPOLYLINE
  5
126
330
1F
100
AcDbEntity
  8
0
100
AcDbPolyline
 90
        8
 70
     1
 43
0.0
 10
222.4444330451629
 20
136.1069663595578
 42
-0.4142135623730951
 10
223.4444330451629
 20
137.1069663595578
 10
237.8264330451629
 20
137.1069663595578
 42
-0.4142135623730951
 10
238.8264330451629
 20
136.1069663595578
 10
238.8264330451629
 20
124.1076663595588
 42
-0.4142135623730951
 10
237.8264330451629
 20
123.1076663595588
 10
223.4444330451629
 20
123.1076663595588
 42
-0.4142135623730951
 10
222.4444330451629
 20
124.1076663595588
  0
LWPOLYLINE
  5
127
330
1F
100
AcDbEntity
  8
0
100
AcDbPolyline
 90
        8
 70
     1
 43
0.0
 10
253.113915265163
 20
143.1576734995577
 42
-0.4142135623730951
 10
252.113915265163
 20
142.1576734995577
 10
240.114365265163
 20
142.1576734995577
 42
-0.4142135623730951
 10
239.114365265163
 20
143.1576734995577
 10
239.114365265163
 20
155.1569734995578
 42
-0.4142135623730951
 10
240.114365265163
 20
156.1569734995578
 10
252.113915265163
 20
156.1569734995578
 42
-0.4142135623730951
 10
253.113915265163
 20
155.1569734995578
  0
LWPOLYLINE
  5
128
330
1F
100
AcDbEntity
  8
0
100
AcDbPolyline
 90
        8
 70
     1
 43
0.0
 10
434.088940265163
 20
162.2069734995578
 42
-0.4142135623730951
 10
433.088940265163
 20
161.2069734995577
 10
421.088940265163
 20
161.2069734995577
 42
-0.4142135623730951
 10
420.088940265163
 20
162.2069734995578
 10
420.088940265163
 20
174.2069734995587
 42
-0.4142135623730951
 10
421.088940265163
 20
175.2069734995588
 10
433.088940265163
 20
175.2069734995588
 42
-0.4142135623730951
 10
434.088940265163
 20
174.2069734995587
  0
LWPOLYLINE
  5
129
330
1F
100
AcDbEntity
  8
0
100
AcDbPolyline
 90
        8
 70
     1
 43
0.0
 10
415.326683045163
 20
193.2569963595587
 42
-0.4142135623730951
 10
416.326683045163
 20
194.2569963595587
 10
428.326233045163
 20
194.2569963595587
 42
-0.4142135623730951
 10
429.3262330451629
 20
193.2569963595587
 10
429.3262330451629
 20
181.2576963595577
 42
-0.4142135623730951
 10
428.326233045163
 20
180.2576963595577
 10
416.326683045163
 20
180.2576963595577
 42
-0.4142135623730951
 10
415.326683045163
 20
181.2576963595577
  0
LWPOLYLINE
  5
130
330
1F
100
AcDbEntity
  8
0
100
AcDbPolyline
 90
        8
 70
     1
 43
0.0
 10
451.0458830451632
 20
174.2069963595588
 42
-0.4142135623730951
 10
452.0458830451631
 20
175.2069963595588
 10
464.0454330451631
 20
175.2069963595588
 42
-0.4142135623730951
 10
465.0454330451631
 20
174.2069963595588
 10
465.0454330451631
 20
162.2076963595578
 42
-0.4142135623730951
 10
464.0454330451631
 20
161.2076963595578
 10
452.0458830451631
 20
161.2076963595578
 42
-0.4142135623730951
 10
451.0458830451629
 20
162.2076963595578
  0
LWPOLYLINE
  5
131
330
1F
100
AcDbEntity
  8
0
100
AcDbPolyline
 90
        8
 70
     1
 43
0.0
 10
310.263940265163
 20
143.1569734995568
 42
-0.4142135623730951
 10
309.263940265163
 20
142.1569734995568
 10
297.263940265163
 20
142.1569734995568
 42
-0.4142135623730951
 10
296.263940265163
 20
143.1569734995568
 10
296.263940265163
 20
155.1569734995578
 42
-0.4142135623730951
 10
297.263940265163
 20
156.1569734995578
 10
309.263940265163
 20
156.1569734995578
 42
-0.4142135623730951
 10
310.263940265163
 20
155.1569734995578
  0
LWPOLYLINE
  5
132
330
1F
100
AcDbEntity
  8
0
100
AcDbPolyline
 90
        8
 70
     1
 43
0.0
 10
361.651433045163
 20
213.3069963595588
 42
-0.4142135623730951
 10
362.651433045163
 20
212.3069963595588
 10
362.651433045163
 20
200.3076963595588
 42
-0.4142135623730951
 10
361.651433045163
 20
199.3076963595587
 10
349.651883045163
 20
199.3076963595587
 42
-0.4142135623730951
 10
348.651883045163
 20
200.3076963595588
 10
348.651883045163
 20
212.3069963595588
 42
-0.4142135623730951
 10
349.651883045163
 20
213.3069963595588
  0
LWPOLYLINE
  5
133
330
1F
100
AcDbEntity
  8
0
100
AcDbPolyline
 90
        8
 70
     1
 43
0.0
 10
314.026458045163
 20
194.2569963595587
 42
-0.4142135623730951
 10
315.0264580451629
 20
193.2569963595588
 10
315.0264580451629
 20
181.2569963595588
 42
-0.4142135623730951
 10
314.026458045163
 20
180.2569963595588
 10
302.0264580451629
 20
180.2569963595588
 42
-0.4142135623730951
 10
301.0264580451629
 20
181.2569963595588
 10
301.0264580451629
 20
193.2569963595588
 42
-0.4142135623730951
 10
302.0264580451629
 20
194.2569963595587
  0
LWPOLYLINE
  5
134
330
1F
100
AcDbEntity
  8
0
100
AcDbPolyline
 90
        8
 70
     1
 43
0.0
 10
221.157833045163
 20
156.1569963595598
 42
-0.4142135623730951
 10
222.157833045163
 20
155.1569963595598
 10
222.157833045163
 20
143.1576963595598
 42
-0.4142135623730951
 10
221.157833045163
 20
142.1576963595597
 10
209.158283045163
 20
142.1576963595597
 42
-0.4142135623730951
 10
208.158283045163
 20
143.1576963595598
 10
208.158283045163
 20
155.1569963595598
 42
-0.4142135623730951
 10
209.158283045163
 20
156.1569963595597
  0
LWPOLYLINE
  5
135
330
1F
100
AcDbEntity
  8
0
100
AcDbPolyline
 90
        8
 70
     1
 43
0.0
 10
319.7889402651631
 20
162.2069734995578
 42
-0.4142135623730951
 10
318.7889402651631
 20
161.2069734995578
 10
306.7889402651631
 20
161.2069734995578
 42
-0.4142135623730951
 10
305.7889402651631
 20
162.2069734995578
 10
305.7889402651631
 20
174.2069734995588
 42
-0.4142135623730951
 10
306.7889402651631
 20
175.2069734995588
 10
318.7889402651631
 20
175.2069734995588
 42
-0.4142135623730951
 10
319.7889402651631
 20
174.2069734995588
  0
LWPOLYLINE
  5
136
330
1F
100
AcDbEntity
  8
0
100
AcDbPolyline
 90
        8
 70
     1
 43
0.0
 10
343.6014330451629
 20
200.3076963595588
 42
-0.4142135623730951
 10
342.6014330451629
 20
199.3076963595587
 10
330.601883045163
 20
199.3076963595587
 42
-0.4142135623730951
 10
329.6018830451629
 20
200.3076963595588
 10
329.6018830451629
 20
212.3069963595588
 42
-0.4142135623730951
 10
330.601883045163
 20
213.3069963595588
 10
342.6014330451629
 20
213.3069963595588
 42
-0.4142135623730951
 10
343.6014330451629
 20
212.3069963595588
  0
LWPOLYLINE
  5
137
330
1F
100
AcDbEntity
  8
0
100
AcDbPolyline
 90
        8
 70
     1
 43
0.0
 10
334.076458045163
 20
181.2569963595588
 42
-0.4142135623730951
 10
333.076458045163
 20
180.2569963595588
 10
321.076458045163
 20
180.2569963595588
 42
-0.4142135623730951
 10
320.076458045163
 20
181.2569963595588
 10
320.076458045163
 20
193.2569963595588
 42
-0.4142135623730951
 10
321.076458045163
 20
194.2569963595587
 10
333.076458045163
 20
194.2569963595587
 42
-0.4142135623730951
 10
334.076458045163
 20
193.2569963595588
  0
LWPOLYLINE
  5
138
330
1F
100
AcDbEntity
  8
0
100
AcDbPolyline
 90
        8
 70
     1
 43
0.0
 10
395.988940265163
 20
162.2069734995578
 42
-0.4142135623730951
 10
394.988940265163
 20
161.2069734995577
 10
382.988940265163
 20
161.2069734995578
 42
-0.4142135623730951
 10
381.988940265163
 20
162.2069734995578
 10
381.988940265163
 20
174.2069734995588
 42
-0.4142135623730951
 10
382.988940265163
 20
175.2069734995588
 10
394.988940265163
 20
175.2069734995588
 42
-0.4142135623730951
 10
395.988940265163
 20
174.2069734995587
  0
LWPOLYLINE
  5
139
330
1F
100
AcDbEntity
  8
0
100
AcDbPolyline
 90
        8
 70
     1
 43
0.0
 10
376.938940265163
 20
162.2069734995578
 42
-0.4142135623730951
 10
375.9389402651629
 20
161.2069734995578
 10
363.938940265163
 20
161.2069734995578
 42
-0.4142135623730951
 10
362.938940265163
 20
162.2069734995578
 10
362.938940265163
 20
174.2069734995588
 42
-0.4142135623730951
 10
363.938940265163
 20
175.2069734995588
 10
375.9389402651629
 20
175.2069734995588
 42
-0.4142135623730951
 10
376.938940265163
 20
174.2069734995588
  0
LWPOLYLINE
  5
140
330
1F
100
AcDbEntity
  8
0
100
AcDbPolyline
 90
        8
 70
     1
 43
0.0
 10
386.4639402651629
 20
143.1569734995568
 42
-0.4142135623730951
 10
385.4639402651629
 20
142.1569734995568
 10
373.4639402651629
 20
142.1569734995568
 42
-0.4142135623730951
 10
372.4639402651629
 20
143.1569734995568
 10
372.4639402651629
 20
155.1569734995578
 42
-0.4142135623730951
 10
373.4639402651629
 20
156.1569734995578
 10
385.4639402651629
 20
156.1569734995578
 42
-0.4142135623730951
 10
386.4639402651629
 20
155.1569734995578
  0
LWPOLYLINE
  5
141
330
1F
100
AcDbEntity
  8
0
100
AcDbPolyline
 90
        8
 70
     1
 43
0.0
 10
300.738715265163
 20
162.2076734995587
 42
-0.4142135623730951
 10
299.738715265163
 20
161.2076734995588
 10
287.739165265163
 20
161.2076734995588
 42
-0.4142135623730951
 10
286.739165265163
 20
162.2076734995587
 10
286.739165265163
 20
174.2069734995578
 42
-0.4142135623730951
 10
287.739165265163
 20
175.2069734995578
 10
299.738715265163
 20
175.2069734995578
 42
-0.4142135623730951
 10
300.738715265163
 20
174.2069734995578
  0
LWPOLYLINE
  5
142
330
1F
100
AcDbEntity
  8
0
100
AcDbPolyline
 90
        8
 70
     1
 43
0.0
 10
237.8264330451629
 20
194.2569963595587
 42
-0.4142135623730951
 10
238.8264330451629
 20
193.2569963595588
 10
238.8264330451629
 20
181.2576963595578
 42
-0.4142135623730951
 10
237.8264330451629
 20
180.2576963595578
 10
225.8268830451629
 20
180.2576963595577
 42
-0.4142135623730951
 10
224.826883045163
 20
181.2576963595578
 10
224.8268830451629
 20
193.2569963595588
 42
-0.4142135623730951
 10
225.8268830451629
 20
194.2569963595587
  0
LWPOLYLINE
  5
143
330
1F
100
AcDbEntity
  8
0
100
AcDbPolyline
 90
        8
 70
     1
 43
0.0
 10
344.888940265163
 20
161.2069734995578
 42
-0.4142135623730951
 10
343.888940265163
 20
162.2069734995578
 10
343.888940265163
 20
174.2069734995588
 42
-0.4142135623730951
 10
344.888940265163
 20
175.2069734995588
 10
356.888940265163
 20
175.2069734995588
 42
-0.4142135623730951
 10
357.888940265163
 20
174.2069734995588
 10
357.888940265163
 20
162.2069734995578
 42
-0.4142135623730951
 10
356.888940265163
 20
161.2069734995578
  0
LWPOLYLINE
  5
144
330
1F
100
AcDbEntity
  8
0
100
AcDbPolyline
 90
        8
 70
     1
 43
0.0
 10
353.126458045163
 20
181.2569963595588
 42
-0.4142135623730951
 10
352.126458045163
 20
180.2569963595588
 10
340.126458045163
 20
180.2569963595588
 42
-0.4142135623730951
 10
339.1264580451629
 20
181.2569963595588
 10
339.1264580451629
 20
193.2569963595588
 42
-0.4142135623730951
 10
340.126458045163
 20
194.2569963595587
 10
352.126458045163
 20
194.2569963595587
 42
-0.4142135623730951
 10
353.126458045163
 20
193.2569963595588
  0
LWPOLYLINE
  5
145
330
1F
100
AcDbEntity
  8
0
100
AcDbPolyline
 90
        8
 70
     1
 43
0.0
 10
397.2764580451629
 20
180.2569963595587
 42
-0.4142135623730951
 10
396.2764580451629
 20
181.2569963595587
 10
396.2764580451629
 20
193.2569963595587
 42
-0.4142135623730951
 10
397.2764580451629
 20
194.2569963595587
 10
409.2764580451641
 20
194.2569963595587
 42
-0.4142135623730951
 10
410.2764580451641
 20
193.2569963595587
 10
410.2764580451641
 20
181.2569963595587
 42
-0.4142135623730951
 10
409.2764580451641
 20
180.2569963595587
  0
LWPOLYLINE
  5
146
330
1F
100
AcDbEntity
  8
0
100
AcDbPolyline
 90
        8
 70
     1
 43
0.0
 10
280.6887152651628
 20
175.2069734995578
 42
-0.4142135623730951
 10
281.6887152651629
 20
174.2069734995578
 10
281.6887152651629
 20
162.2076734995587
 42
-0.4142135623730951
 10
280.6887152651628
 20
161.2076734995588
 10
268.6891652651631
 20
161.2076734995588
 42
-0.4142135623730951
 10
267.6891652651629
 20
162.2076734995587
 10
267.6891652651629
 20
174.2069734995578
 42
-0.4142135623730951
 10
268.6891652651631
 20
175.2069734995578
  0
LWPOLYLINE
  5
147
330
1F
100
AcDbEntity
  8
0
100
AcDbPolyline
 90
        8
 70
     1
 43
0.0
 10
256.8762330451629
 20
194.2569963595587
 42
-0.4142135623730951
 10
257.876233045163
 20
193.2569963595588
 10
257.876233045163
 20
181.2576963595578
 42
-0.4142135623730951
 10
256.8762330451629
 20
180.2576963595578
 10
244.8766830451629
 20
180.2576963595577
 42
-0.4142135623730951
 10
243.8766830451629
 20
181.2576963595578
 10
243.8766830451629
 20
193.2569963595588
 42
-0.4142135623730951
 10
244.8766830451629
 20
194.2569963595587
  0
LWPOLYLINE
  5
148
330
1F
100
AcDbEntity
  8
0
100
AcDbPolyline
 90
        8
 70
     1
 43
0.0
 10
275.926233045163
 20
194.2569963595587
 42
-0.4142135623730951
 10
276.9262330451631
 20
193.2569963595588
 10
276.9262330451631
 20
181.2576963595578
 42
-0.4142135623730951
 10
275.926233045163
 20
180.2576963595578
 10
263.926683045163
 20
180.2576963595577
 42
-0.4142135623730951
 10
262.926683045163
 20
181.2576963595578
 10
262.926683045163
 20
193.2569963595588
 42
-0.4142135623730951
 10
263.926683045163
 20
194.2569963595587
  0
LWPOLYLINE
  5
149
330
1F
100
AcDbEntity
  8
0
100
AcDbPolyline
 90
        8
 70
     1
 43
0.0
 10
267.4014330451631
 20
200.3076963595588
 42
-0.4142135623730951
 10
266.4014330451631
 20
199.3076963595587
 10
254.401883045163
 20
199.3076963595587
 42
-0.4142135623730951
 10
253.401883045163
 20
200.3076963595588
 10
253.401883045163
 20
212.3069963595588
 42
-0.4142135623730951
 10
254.401883045163
 20
213.3069963595588
 10
266.4014330451631
 20
213.3069963595588
 42
-0.4142135623730951
 10
267.4014330451631
 20
212.3069963595588
  0
LWPOLYLINE
  5
150
330
1F
100
AcDbEntity
  8
0
100
AcDbPolyline
 90
        8
 70
     1
 43
0.0
 10
405.5139402651629
 20
143.1569734995568
 42
-0.4142135623730951
 10
404.513940265163
 20
142.1569734995567
 10
392.513940265163
 20
142.1569734995567
 42
-0.4142135623730951
 10
391.513940265163
 20
143.1569734995568
 10
391.513940265163
 20
155.1569734995578
 42
-0.4142135623730951
 10
392.513940265163
 20
156.1569734995577
 10
404.513940265163
 20
156.1569734995577
 42
-0.4142135623730951
 10
405.5139402651632
 20
155.1569734995578
  0
LWPOLYLINE
  5
151
330
1F
100
AcDbEntity
  8
0
100
AcDbPolyline
 90
        8
 70
     1
 43
0.0
 10
294.9762330451631
 20
194.2569963595587
 42
-0.4142135623730951
 10
295.9762330451631
 20
193.2569963595588
 10
295.9762330451631
 20
181.2576963595578
 42
-0.4142135623730951
 10
294.9762330451631
 20
180.2576963595578
 10
282.9766830451631
 20
180.2576963595577
 42
-0.4142135623730951
 10
281.9766830451631
 20
181.2576963595578
 10
281.9766830451631
 20
193.2569963595588
 42
-0.4142135623730951
 10
282.9766830451631
 20
194.2569963595587
  0
LWPOLYLINE
  5
152
330
1F
100
AcDbEntity
  8
0
100
AcDbPolyline
 90
        8
 70
     1
 43
0.0
 10
286.4514330451628
 20
200.3076963595588
 42
-0.4142135623730951
 10
285.4514330451628
 20
199.3076963595587
 10
273.4518830451628
 20
199.3076963595587
 42
-0.4142135623730951
 10
272.4518830451629
 20
200.3076963595588
 10
272.4518830451629
 20
212.3069963595588
 42
-0.4142135623730951
 10
273.4518830451628
 20
213.3069963595588
 10
285.4514330451628
 20
213.3069963595588
 42
-0.4142135623730951
 10
286.4514330451628
 20
212.3069963595588
  0
LWPOLYLINE
  5
153
330
1F
100
AcDbEntity
  8
0
100
AcDbPolyline
 90
        8
 70
     1
 43
0.0
 10
248.351433045163
 20
200.3076963595588
 42
-0.4142135623730951
 10
247.351433045163
 20
199.3076963595587
 10
235.351883045163
 20
199.3076963595587
 42
-0.4142135623730951
 10
234.3518830451631
 20
200.3076963595588
 10
234.3518830451631
 20
212.3069963595588
 42
-0.4142135623730951
 10
235.351883045163
 20
213.3069963595588
 10
247.3514330451631
 20
213.3069963595588
 42
-0.4142135623730951
 10
248.351433045163
 20
212.3069963595588
  0
LWPOLYLINE
  5
154
330
1F
100
AcDbEntity
  8
0
100
AcDbPolyline
 90
        8
 70
     1
 43
0.0
 10
338.8389402651629
 20
162.2069734995578
 42
-0.4142135623730951
 10
337.8389402651629
 20
161.2069734995578
 10
325.838940265163
 20
161.2069734995578
 42
-0.4142135623730951
 10
324.8389402651629
 20
162.2069734995578
 10
324.8389402651629
 20
174.2069734995588
 42
-0.4142135623730951
 10
325.838940265163
 20
175.2069734995588
 10
337.8389402651629
 20
175.2069734995588
 42
-0.4142135623730951
 10
338.8389402651629
 20
174.2069734995588
  0
LWPOLYLINE
  5
155
330
1F
100
AcDbEntity
  8
0
100
AcDbPolyline
 90
       12
 70
     1
 43
0.0
 10
217.395208045163
 20
174.2228072537518
 10
217.3952080451629
 20
174.7069963595588
 42
0.4142135623730951
 10
216.895208045163
 20
175.2069963595588
 10
199.132708045163
 20
175.2069963595587
 42
0.4142135623730951
 10
198.632708045163
 20
174.7069963595588
 10
198.632708045163
 20
161.7069963595588
 42
0.4142135623730951
 10
199.132708045163
 20
161.2069963595588
 10
216.895208045163
 20
161.2069963595588
 42
0.4142135623730951
 10
217.3952080451629
 20
161.7069963595588
 10
217.3952080451629
 20
162.1918854653648
 42
0.0039529088418181
 10
217.395333045163
 20
162.2076963595578
 10
217.3953330451631
 20
174.2069963595588
 42
0.0039529088418094
  0
LWPOLYLINE
  5
156
330
1F
100
AcDbEntity
  8
0
100
AcDbPolyline
 90
        8
 70
     1
 43
0.0
 10
377.226458045163
 20
193.2569963595588
 42
-0.4142135623730951
 10
378.226458045163
 20
194.2569963595587
 10
390.226458045163
 20
194.2569963595587
 42
-0.4142135623730951
 10
391.226458045163
 20
193.2569963595587
 10
391.226458045163
 20
181.2569963595587
 42
-0.4142135623730951
 10
390.226458045163
 20
180.2569963595587
 10
378.226458045163
 20
180.2569963595588
 42
-0.4142135623730951
 10
377.226458045163
 20
181.2569963595588
  0
LWPOLYLINE
  5
157
330
1F
100
AcDbEntity
  8
0
100
AcDbPolyline
 90
        8
 70
     1
 43
0.0
 10
261.638715265163
 20
175.2069734995578
 42
-0.4142135623730951
 10
262.6387152651631
 20
174.2069734995578
 10
262.6387152651631
 20
162.2076734995587
 42
-0.4142135623730951
 10
261.638715265163
 20
161.2076734995588
 10
249.639165265163
 20
161.2076734995588
 42
-0.4142135623730951
 10
248.639165265163
 20
162.2076734995587
 10
248.639165265163
 20
174.2069734995578
 42
-0.4142135623730951
 10
249.639165265163
 20
175.2069734995578
  0
LWPOLYLINE
  5
158
330
1F
100
AcDbEntity
  8
0
100
AcDbPolyline
 90
        8
 70
     1
 43
0.0
 10
291.501883045163
 20
212.3069963595588
 42
-0.4142135623730951
 10
292.501883045163
 20
213.3069963595588
 10
304.501433045163
 20
213.3069963595588
 42
-0.4142135623730951
 10
305.501433045163
 20
212.3069963595588
 10
305.501433045163
 20
200.3076963595588
 42
-0.4142135623730951
 10
304.501433045163
 20
199.3076963595587
 10
292.501883045163
 20
199.3076963595587
 42
-0.4142135623730951
 10
291.501883045163
 20
200.3076963595588
  0
LWPOLYLINE
  5
159
330
1F
100
AcDbEntity
  8
0
100
AcDbPolyline
 90
        8
 70
     1
 43
0.0
 10
196.021841132903
 20
193.7569963595587
 42
-0.4142135623725123
 10
196.5218411329031
 20
194.2569963595578
 10
197.9652238273431
 20
194.2569963595578
 42
-0.4142135623725123
 10
198.465223827343
 20
193.7569963595587
 10
198.465223827343
 20
180.7576963595598
 42
-0.4142135623736778
 10
197.9652238273431
 20
180.2576963595588
 10
196.5218411329031
 20
180.2576963595588
 42
-0.4142135623736778
 10
196.0218411329029
 20
180.7576963595598
  0
LWPOLYLINE
  5
160
330
1F
100
AcDbEntity
  8
0
100
AcDbPolyline
 90
        8
 70
     1
 43
0.0
 10
477.182174957423
 20
180.7576963595588
 10
477.182174957423
 20
193.7569963595577
 42
0.4142135623730951
 10
476.682174957423
 20
194.2569963595578
 10
475.2387922629832
 20
194.2569963595577
 42
0.4142135623725123
 10
474.7387922629832
 20
193.7569963595587
 10
474.7387922629832
 20
180.7576963595588
 42
0.4142135623730951
 10
475.2387922629832
 20
180.2576963595588
 10
476.682174957423
 20
180.2576963595588
 42
0.4142135623730951
  0
LWPOLYLINE
  5
161
330
1F
100
AcDbEntity
  8
0
100
AcDbPolyline
 90
        8
 70
     1
 43
0.0
 10
220.4446922629831
 20
161.2076963595597
 42
-0.4142135623725123
 10
219.9446922629831
 20
161.7076963595588
 10
219.9446922629831
 20
174.7069963595578
 42
-0.4142135623730951
 10
220.4446922629831
 20
175.2069963595578
 10
221.888074957423
 20
175.2069963595578
 42
-0.4142135623730951
 10
222.388074957423
 20
174.7069963595578
 10
222.388074957423
 20
161.7076963595588
 42
-0.4142135623725123
 10
221.888074957423
 20
161.2076963595578
  0
LWPOLYLINE
  5
162
330
1F
100
AcDbEntity
  8
0
100
AcDbPolyline
 90
        8
 70
     1
 43
0.0
 10
243.588915265163
 20
162.2076734995587
 42
-0.4142135623730951
 10
242.588915265163
 20
161.2076734995588
 10
230.589365265163
 20
161.2076734995588
 42
-0.4142135623730951
 10
229.589365265163
 20
162.2076734995587
 10
229.589365265163
 20
174.2069734995578
 42
-0.4142135623730951
 10
230.589365265163
 20
175.2069734995578
 10
242.588915265163
 20
175.2069734995578
 42
-0.4142135623730951
 10
243.588915265163
 20
174.2069734995578
  0
LWPOLYLINE
  5
163
330
1F
100
AcDbEntity
  8
0
100
AcDbPolyline
 90
        8
 70
     1
 43
0.0
 10
431.7079080451632
 20
142.6569963595587
 10
431.7079080451632
 20
155.6569963595588
 42
0.4142135623730951
 10
431.2079080451631
 20
156.1569963595588
 10
418.2079080451631
 20
156.1569963595587
 42
0.4142135623730951
 10
417.7079080451632
 20
155.6569963595588
 10
417.7079080451632
 20
142.6569963595587
 42
0.4142135623730951
 10
418.2079080451631
 20
142.1569963595588
 10
431.2079080451631
 20
142.1569963595588
 42
0.4142135623730951
  0
LWPOLYLINE
  5
164
330
1F
100
AcDbEntity
  8
0
100
AcDbPolyline
 90
        8
 70
     1
 43
0.0
 10
419.8016580451632
 20
123.6069963595588
 10
419.8016580451632
 20
136.6069963595587
 42
0.4142135623730951
 10
419.3016580451631
 20
137.1069963595587
 10
406.301658045163
 20
137.1069963595586
 42
0.4142135623730951
 10
405.8016580451631
 20
136.6069963595587
 10
405.8016580451631
 20
123.6069963595588
 42
0.4142135623730951
 10
406.301658045163
 20
123.1069963595588
 10
419.3016580451631
 20
123.1069963595588
 42
0.4142135623730951
  0
LWPOLYLINE
  5
165
330
1F
100
AcDbEntity
  8
0
100
AcDbPolyline
 90
        8
 70
     1
 43
0.0
 10
400.7516580451632
 20
123.6069963595588
 10
400.7516580451632
 20
136.6069963595587
 42
0.4142135623730951
 10
400.2516580451632
 20
137.1069963595587
 10
387.251658045163
 20
137.1069963595587
 42
0.4142135623730951
 10
386.7516580451633
 20
136.6069963595587
 10
386.751658045163
 20
123.6069963595588
 42
0.4142135623730951
 10
387.251658045163
 20
123.1069963595588
 10
400.2516580451632
 20
123.1069963595588
 42
0.4142135623730951
  0
LWPOLYLINE
  5
166
330
1F
100
AcDbEntity
  8
0
100
AcDbPolyline
 90
        8
 70
     1
 43
0.0
 10
476.9516580451629
 20
142.6569963595587
 10
476.9516580451629
 20
155.6569963595588
 42
0.4142135623730951
 10
476.4516580451629
 20
156.1569963595588
 10
463.4516580451633
 20
156.1569963595587
 42
0.4142135623730951
 10
462.9516580451633
 20
155.6569963595588
 10
462.9516580451633
 20
142.6569963595587
 42
0.4142135623730951
 10
463.4516580451633
 20
142.1569963595588
 10
476.4516580451629
 20
142.1569963595588
 42
0.4142135623730951
  0
LWPOLYLINE
  5
167
330
1F
100
AcDbEntity
  8
0
100
AcDbPolyline
 90
        8
 70
     1
 43
0.0
 10
438.8516580451629
 20
123.6069963595588
 10
438.8516580451629
 20
136.6069963595587
 42
0.4142135623730951
 10
438.351658045163
 20
137.1069963595587
 10
425.351658045163
 20
137.1069963595586
 42
0.4142135623730951
 10
424.851658045163
 20
136.6069963595587
 10
424.851658045163
 20
123.6069963595588
 42
0.4142135623730951
 10
425.351658045163
 20
123.1069963595588
 10
438.351658045163
 20
123.1069963595588
 42
0.4142135623730951
  0
LWPOLYLINE
  5
168
330
1F
100
AcDbEntity
  8
0
100
AcDbPolyline
 90
        8
 70
     1
 43
0.0
 10
457.9016580451632
 20
123.6069963595588
 10
457.9016580451632
 20
136.6069963595587
 42
0.4142135623730951
 10
457.4016580451632
 20
137.1069963595587
 10
444.401658045163
 20
137.1069963595586
 42
0.4142135623730951
 10
443.901658045163
 20
136.6069963595587
 10
443.901658045163
 20
123.6069963595588
 42
0.4142135623730951
 10
444.401658045163
 20
123.1069963595588
 10
457.4016580451632
 20
123.1069963595588
 42
0.4142135623730951
  0
LWPOLYLINE
  5
169
330
1F
100
AcDbEntity
  8
0
100
AcDbPolyline
 90
        8
 70
     1
 43
0.0
 10
476.9516580451629
 20
123.6069963595588
 10
476.9516580451629
 20
136.6069963595587
 42
0.4142135623730951
 10
476.4516580451629
 20
137.1069963595587
 10
463.4516580451633
 20
137.1069963595586
 42
0.4142135623730951
 10
462.9516580451633
 20
136.6069963595587
 10
462.9516580451633
 20
123.6069963595588
 42
0.4142135623730951
 10
463.4516580451633
 20
123.1069963595588
 10
476.4516580451629
 20
123.1069963595588
 42
0.4142135623730951
  0
LWPOLYLINE
  5
170
330
1F
100
AcDbEntity
  8
0
100
AcDbPolyline
 90
        8
 70
     1
 43
0.0
 10
457.9016580451632
 20
142.6569963595587
 10
457.9016580451632
 20
155.6569963595588
 42
0.4142135623730951
 10
457.4016580451632
 20
156.1569963595588
 10
444.401658045163
 20
156.1569963595587
 42
0.4142135623730951
 10
443.901658045163
 20
155.6569963595588
 10
443.901658045163
 20
142.6569963595587
 42
0.4142135623730951
 10
444.401658045163
 20
142.1569963595588
 10
457.4016580451632
 20
142.1569963595588
 42
0.4142135623730951
  0
LWPOLYLINE
  5
171
330
1F
100
AcDbEntity
  8
0
100
AcDbPolyline
 90
        8
 70
     1
 43
0.0
 10
318.1954080451629
 20
123.1069963595588
 10
331.1954080451629
 20
123.1069963595588
 42
0.4142135623730951
 10
331.6954080451629
 20
123.6069963595588
 10
331.6954080451629
 20
136.6069963595587
 42
0.4142135623730951
 10
331.1954080451629
 20
137.1069963595587
 10
318.1954080451629
 20
137.1069963595587
 42
0.4142135623730951
 10
317.695408045163
 20
136.6069963595587
 10
317.6954080451628
 20
123.6069963595588
 42
0.4142135623730951
  0
LWPOLYLINE
  5
172
330
1F
100
AcDbEntity
  8
0
100
AcDbPolyline
 90
       16
 70
     1
 43
0.0
 10
278.150767119903
 20
136.0475100158468
 10
276.4937171199028
 20
136.0475100158468
 42
-0.4142135623730951
 10
275.9937171199029
 20
136.5475100158468
 10
275.9937171199029
 20
137.5334148399578
 42
0.4142135623730951
 10
275.4937171199028
 20
138.0334148399578
 10
273.893717119903
 20
138.0334148399578
 42
0.4142135623730951
 10
273.3937171199029
 20
137.5334148399578
 10
273.3937171199029
 20
136.5475100158468
 42
-0.4142135623730951
 10
272.8937171199029
 20
136.0475100158468
 10
271.293717119903
 20
136.0475100158467
 42
0.4142135623730951
 10
270.793717119903
 20
135.5475100158467
 10
270.793717119903
 20
124.5475100158468
 42
0.4142135623730951
 10
271.293717119903
 20
124.0475100158468
 10
278.150767119903
 20
124.0475100158468
 42
0.4142135623730951
 10
278.650767119903
 20
124.5475100158468
 10
278.6507671199031
 20
135.5475100158467
 42
0.4142135623730951
  0
CIRCLE
  5
173
330
1F
100
AcDbEntity
  8
0
100
AcDbCircle
 10
-460.426934245163
 20
139.6324454195588
 30
0.0000000000036993
 40
1.0
210
0.0
220
0.0
230
-1.0
  0
CIRCLE
  5
174
330
1F
100
AcDbEntity
  8
0
100
AcDbCircle
 10
-454.1518871051628
 20
187.6060451795587
 30
0.0000000000028078
 40
1.0
210
0.0
220
0.0
230
-1.0
  0
CIRCLE
  5
175
330
1F
100
AcDbEntity
  8
0
100
AcDbCircle
 10
-341.3644317051629
 20
158.6823463595578
 30
-0.0000000000000133
 40
1.0
210
0.0
220
0.0
230
-1.0
  0
CIRCLE
  5
176
330
1F
100
AcDbEntity
  8
0
100
AcDbCircle
 10
-284.2142818451631
 20
158.6823463595578
 30
-0.0000000000013611
 40
1.0
210
0.0
220
0.0
230
-1.0
  0
CIRCLE
  5
177
330
1F
100
AcDbEntity
  8
0
100
AcDbCircle
 10
-231.843962405163
 20
196.7823463595578
 30
-0.0000000000023825
 40
1.0
210
0.0
220
0.0
230
-1.0
  0
CIRCLE
  5
178
330
1F
100
AcDbEntity
  8
0
100
AcDbCircle
 10
-197.811396485163
 20
158.6945154995588
 30
-0.0000000000033984
 40
1.0
210
0.0
220
0.0
230
-1.0
  0
CIRCLE
  5
179
330
1F
100
AcDbEntity
  8
0
100
AcDbCircle
 10
-327.093962405163
 20
196.7823463595578
 30
-0.0000000000001366
 40
1.0
210
0.0
220
0.0
230
-1.0
  0
CIRCLE
  5
180
330
1F
100
AcDbEntity
  8
0
100
AcDbCircle
 10
-441.342888085163
 20
196.7823463595577
 30
0.0000000000025574
 40
1.0
210
0.0
220
0.0
230
-1.0
  0
CIRCLE
  5
181
330
1F
100
AcDbEntity
  8
0
100
AcDbCircle
 10
-475.3927564851629
 20
158.6945154995587
 30
0.0000000000031469
 40
1.0
210
0.0
220
0.0
230
-1.0
  0
CIRCLE
  5
182
330
1F
100
AcDbEntity
  8
0
100
AcDbCircle
 10
-219.302537145163
 20
187.6060451795588
 30
-0.0000000000027295
 40
1.0
210
0.0
220
0.0
230
-1.0
  0
ENDSEC
  0
SECTION
  2
OBJECTS
  0
DICTIONARY
  5
C
330
0
100
AcDbDictionary
281
     1
  3
ACAD_BACKGROUND
350
1005B
  3
ACAD_CIP_PREVIOUS_PRODUCT_INFO
350
1005A
  3
ACAD_COLOR
350
10036
  3
ACAD_DETAILVIEWSTYLE
350
10051
  3
ACAD_GROUP
350
D
  3
ACAD_LAYOUT
350
10037
  3
ACAD_MATERIAL
350
10004
  3
ACAD_MLEADERSTYLE
350
1004D
  3
ACAD_MLINESTYLE
350
17
  3
ACAD_PLOTSETTINGS
350
10054
  3
ACAD_PLOTSTYLENAME
350
10002
  3
ACAD_SCALELIST
350
1003B
  3
ACAD_SECTIONVIEWSTYLE
350
1004F
  3
ACAD_TABLESTYLE
350
10038
  3
ACAD_VISUALSTYLE
350
1001D
  3
ACDB_RECOMPOSE_DATA
350
10074
  3
AcDbVariableDictionary
350
10068
  0
DICTIONARY
  5
10066
330
50
100
AcDbDictionary
280
     1
281
     1
  3
ADSK_XREC_LAYER_RECONCILED
360
10067
  0
DICTIONARY
  5
1005B
102
{ACAD_REACTORS
330
C
102
}
330
C
100
AcDbDictionary
281
     1
  0
XRECORD
  5
1005A
102
{ACAD_REACTORS
330
C
102
}
330
C
100
AcDbXrecord
280
     1
300
ACD
300
2022
300

  0
DICTIONARY
  5
10036
102
{ACAD_REACTORS
330
C
102
}
330
C
100
AcDbDictionary
281
     1
  0
DICTIONARY
  5
10051
102
{ACAD_REACTORS
330
C
102
}
330
C
100
AcDbDictionary
281
     1
  3
Imperial24
350
10052
  0
DICTIONARY
  5
D
330
C
100
AcDbDictionary
281
     1
  0
DICTIONARY
  5
10037
102
{ACAD_REACTORS
330
C
102
}
330
C
100
AcDbDictionary
281
     1
  3
Layout1
350
10056
  3
Model
350
10055
  0
DICTIONARY
  5
10004
102
{ACAD_REACTORS
330
C
102
}
330
C
100
AcDbDictionary
281
     1
  3
ByBlock
350
1000D
  3
ByLayer
350
10005
  3
Global
350
10015
  0
DICTIONARY
  5
1004D
102
{ACAD_REACTORS
330
C
102
}
330
C
100
AcDbDictionary
281
     1
  3
Standard
350
1004E
  0
DICTIONARY
  5
17
330
C
100
AcDbDictionary
281
     1
  3
Standard
350
1003A
  0
DICTIONARY
  5
10054
102
{ACAD_REACTORS
330
C
102
}
330
C
100
AcDbDictionary
281
     1
  0
ACDBDICTIONARYWDFLT
  5
10002
102
{ACAD_REACTORS
330
C
102
}
330
C
100
AcDbDictionary
281
     1
  3
Normal
350
10003
100
AcDbDictionaryWithDefault
340
10003
  0
DICTIONARY
  5
1003B
102
{ACAD_REACTORS
330
C
102
}
330
C
100
AcDbDictionary
281
     1
  3
A0
350
1003C
  3
A1
350
1003D
  3
A2
350
1003E
  3
A3
350
1003F
  3
A4
350
10040
  3
A5
350
10041
  3
A6
350
10042
  3
A7
350
10043
  3
A8
350
10044
  3
A9
350
10045
  3
B0
350
10046
  3
B1
350
10047
  3
B2
350
10048
  3
B3
350
10049
  3
B4
350
1004A
  3
B5
350
1004B
  3
B6
350
1004C
  0
DICTIONARY
  5
1004F
102
{ACAD_REACTORS
330
C
102
}
330
C
100
AcDbDictionary
281
     1
  3
Imperial24
350
10050
  0
DICTIONARY
  5
10038
102
{ACAD_REACTORS
330
C
102
}
330
C
100
AcDbDictionary
281
     1
  3
Standard
350
10039
  0
DICTIONARY
  5
1001D
102
{ACAD_REACTORS
330
C
102
}
330
C
100
AcDbDictionary
281
     1
  3
2dWireframe
350
10023
  3
Basic
350
10022
  3
Brighten
350
10029
  3
ColorChange
350
1002D
  3
Conceptual
350
10026
  3
Dim
350
10028
  3
EdgeColorOff
350
10035
  3
Facepattern
350
1002C
  3
Flat
350
1001E
  3
FlatWithEdges
350
1001F
  3
Gouraud
350
10020
  3
GouraudWithEdges
350
10021
  3
Hidden
350
10025
  3
JitterOff
350
10033
  3
Linepattern
350
1002B
  3
OverhangOff
350
10034
  3
Realistic
350
10027
  3
Shaded
350
10032
  3
Shaded with edges
350
10031
  3
Shades of Gray
350
1002E
  3
Sketchy
350
1002F
  3
Thicken
350
1002A
  3
Wireframe
350
10024
  3
X-Ray
350
10030
  0
XRECORD
  5
10074
102
{ACAD_REACTORS
330
C
102
}
330
C
100
AcDbXrecord
280
     1
 90
        1
330
10039
  0
DICTIONARY
  5
10068
102
{ACAD_REACTORS
330
C
102
}
330
C
100
AcDbDictionary
281
     1
  3
CANNOSCALE
350
1006E
  3
CMLEADERSTYLE
350
1006A
  3
CTABLESTYLE
350
10069
  3
CVIEWDETAILSTYLE
350
1006B
  3
CVIEWSECTIONSTYLE
350
1006C
  3
LAYEREVAL
350
10070
  3
LAYERNOTIFY
350
10071
  3
LIGHTINGUNITS
350
1006F
  3
MSLTSCALE
350
1006D
  0
XRECORD
  5
10067
102
{ACAD_REACTORS
330
10066
102
}
330
10066
100
AcDbXrecord
280
     1
290
     1
  0
ACDBDETAILVIEWSTYLE
  5
10052
102
{ACAD_XDICTIONARY
360
10077
102
}
102
{ACAD_REACTORS
330
10051
102
}
330
10051
100
AcDbModelDocViewStyle
 70
     0
  3
Imperial24
290
     0
100
AcDbDetailViewStyle
 70
     0
 71
     0
 90
        3
 71
     1
340
11
 62
   256
 40
0.24
340
0
 62
   256
 40
0.24
300

 40
0.36
280
     3
 71
     2
340
0
 90
       25
 62
   256
 71
     3
340
11
 62
   256
 40
0.24
 90
        1
 40
0.75
 90
        1
300
%<\AcVar ViewType \f "%tc1">% %<\AcVar ViewDetailId>%\PSCALE %<\AcVar ViewScale \f "%sn">%
 71
     4
340
0
 90
       25
 62
   256
340
0
 90
       25
 62
   256
280
     0
  0
LAYOUT
  5
10056
102
{ACAD_REACTORS
330
10037
102
}
330
10037
100
AcDbPlotSettings
  1

  2
Canon iP110 series WS
  4

  6

 40
0.0
 41
0.0
 42
0.0
 43
0.0
 44
0.0
 45
0.0
 46
0.0
 47
0.0
 48
0.0
 49
0.0
140
0.0
141
0.0
142
1.0
143
1.0
 70
   688
 72
     0
 73
     0
 74
     5
  7

 75
    16
147
1.0
 76
     0
 77
     2
 78
   300
148
0.0
149
0.0
100
AcDbLayout
  1
Layout1
 70
     1
 71
     1
 10
0.0
 20
0.0
 11
12.0
 21
9.0
 12
0.0
 22
0.0
 32
0.0
 14
1.000000000000000E+20
 24
1.000000000000000E+20
 34
1.000000000000000E+20
 15
-1.000000000000000E+20
 25
-1.000000000000000E+20
 35
-1.000000000000000E+20
146
0.0
 13
0.0
 23
0.0
 33
0.0
 16
1.0
 26
0.0
 36
0.0
 17
0.0
 27
1.0
 37
0.0
 76
     0
330
1B
  0
LAYOUT
  5
10055
102
{ACAD_REACTORS
330
10037
102
}
330
10037
100
AcDbPlotSettings
  1

  2
Canon iP110 series WS
  4

  6

 40
0.0
 41
0.0
 42
0.0
 43
0.0
 44
0.0
 45
0.0
 46
0.0
 47
0.0
 48
0.0
 49
0.0
140
0.0
141
0.0
142
1.0
143
1.0
 70
  1712
 72
     0
 73
     0
 74
     0
  7

 75
     0
147
1.0
 76
     0
 77
     2
 78
   300
148
0.0
149
0.0
100
AcDbLayout
  1
Model
 70
     1
 71
     0
 10
0.0
 20
0.0
 11
12.0
 21
9.0
 12
0.0
 22
0.0
 32
0.0
 14
0.0
 24
0.0
 34
0.0
 15
0.0
 25
0.0
 35
0.0
146
0.0
 13
0.0
 23
0.0
 33
0.0
 16
1.0
 26
0.0
 36
0.0
 17
0.0
 27
1.0
 37
0.0
 76
     0
330
1F
331
10059
  0
MATERIAL
  5
1000D
102
{ACAD_XDICTIONARY
360
1000E
102
}
102
{ACAD_REACTORS
330
10004
102
}
330
10004
100
AcDbMaterial
  1
ByBlock
 72
     0
 43
0.0008202099737533
 43
0.0
 43
0.0
 43
0.0
 43
0.0
 43
0.0008202099737533
 43
0.0
 43
0.0
 43
0.0
 43
0.0
 43
1.0
 43
0.0
 43
0.0
 43
0.0
 43
0.0
 43
1.0
 77
     0
 47
0.0008202099737533
 47
0.0
 47
0.0
 47
0.0
 47
0.0
 47
0.0008202099737533
 47
0.0
 47
0.0
 47
0.0
 47
0.0
 47
1.0
 47
0.0
 47
0.0
 47
0.0
 47
0.0
 47
1.0
171
     0
 49
0.0008202099737533
 49
0.0
 49
0.0
 49
0.0
 49
0.0
 49
0.0008202099737533
 49
0.0
 49
0.0
 49
0.0
 49
0.0
 49
1.0
 49
0.0
 49
0.0
 49
0.0
 49
0.0
 49
1.0
175
     0
142
0.0008202099737533
142
0.0
142
0.0
142
0.0
142
0.0
142
0.0008202099737533
142
0.0
142
0.0
142
0.0
142
0.0
142
1.0
142
0.0
142
0.0
142
0.0
142
0.0
142
1.0
179
     0
144
0.0008202099737533
144
0.0
144
0.0
144
0.0
144
0.0
144
0.0008202099737533
144
0.0
144
0.0
144
0.0
144
0.0
144
1.0
144
0.0
144
0.0
144
0.0
144
0.0
144
1.0
147
0.0008202099737533
147
0.0
147
0.0
147
0.0
147
0.0
147
0.0008202099737533
147
0.0
147
0.0
147
0.0
147
0.0
147
1.0
147
0.0
147
0.0
147
0.0
147
0.0
147
1.0
  0
MATERIAL
  5
10005
102
{ACAD_XDICTIONARY
360
10006
102
}
102
{ACAD_REACTORS
330
10004
102
}
330
10004
100
AcDbMaterial
  1
ByLayer
 72
     0
 43
0.0008202099737533
 43
0.0
 43
0.0
 43
0.0
 43
0.0
 43
0.0008202099737533
 43
0.0
 43
0.0
 43
0.0
 43
0.0
 43
1.0
 43
0.0
 43
0.0
 43
0.0
 43
0.0
 43
1.0
 77
     0
 47
0.0008202099737533
 47
0.0
 47
0.0
 47
0.0
 47
0.0
 47
0.0008202099737533
 47
0.0
 47
0.0
 47
0.0
 47
0.0
 47
1.0
 47
0.0
 47
0.0
 47
0.0
 47
0.0
 47
1.0
171
     0
 49
0.0008202099737533
 49
0.0
 49
0.0
 49
0.0
 49
0.0
 49
0.0008202099737533
 49
0.0
 49
0.0
 49
0.0
 49
0.0
 49
1.0
 49
0.0
 49
0.0
 49
0.0
 49
0.0
 49
1.0
175
     0
142
0.0008202099737533
142
0.0
142
0.0
142
0.0
142
0.0
142
0.0008202099737533
142
0.0
142
0.0
142
0.0
142
0.0
142
1.0
142
0.0
142
0.0
142
0.0
142
0.0
142
1.0
179
     0
144
0.0008202099737533
144
0.0
144
0.0
144
0.0
144
0.0
144
0.0008202099737533
144
0.0
144
0.0
144
0.0
144
0.0
144
1.0
144
0.0
144
0.0
144
0.0
144
0.0
144
1.0
147
0.0008202099737533
147
0.0
147
0.0
147
0.0
147
0.0
147
0.0008202099737533
147
0.0
147
0.0
147
0.0
147
0.0
147
1.0
147
0.0
147
0.0
147
0.0
147
0.0
147
1.0
  0
MATERIAL
  5
10015
102
{ACAD_XDICTIONARY
360
10016
102
}
102
{ACAD_REACTORS
330
10004
102
}
330
10004
100
AcDbMaterial
  1
Global
 72
     0
 43
0.0008202099737533
 43
0.0
 43
0.0
 43
0.0
 43
0.0
 43
0.0008202099737533
 43
0.0
 43
0.0
 43
0.0
 43
0.0
 43
1.0
 43
0.0
 43
0.0
 43
0.0
 43
0.0
 43
1.0
 77
     0
 47
0.0008202099737533
 47
0.0
 47
0.0
 47
0.0
 47
0.0
 47
0.0008202099737533
 47
0.0
 47
0.0
 47
0.0
 47
0.0
 47
1.0
 47
0.0
 47
0.0
 47
0.0
 47
0.0
 47
1.0
171
     0
 49
0.0008202099737533
 49
0.0
 49
0.0
 49
0.0
 49
0.0
 49
0.0008202099737533
 49
0.0
 49
0.0
 49
0.0
 49
0.0
 49
1.0
 49
0.0
 49
0.0
 49
0.0
 49
0.0
 49
1.0
175
     0
142
0.0008202099737533
142
0.0
142
0.0
142
0.0
142
0.0
142
0.0008202099737533
142
0.0
142
0.0
142
0.0
142
0.0
142
1.0
142
0.0
142
0.0
142
0.0
142
0.0
142
1.0
179
     0
144
0.0008202099737533
144
0.0
144
0.0
144
0.0
144
0.0
144
0.0008202099737533
144
0.0
144
0.0
144
0.0
144
0.0
144
1.0
144
0.0
144
0.0
144
0.0
144
0.0
144
1.0
147
0.0008202099737533
147
0.0
147
0.0
147
0.0
147
0.0
147
0.0008202099737533
147
0.0
147
0.0
147
0.0
147
0.0
147
1.0
147
0.0
147
0.0
147
0.0
147
0.0
147
1.0
  0
MLEADERSTYLE
  5
1004E
102
{ACAD_REACTORS
330
1004D
102
}
330
1004D
100
AcDbMLeaderStyle
179
     2
170
     2
171
     1
172
     0
 90
        2
 40
0.0
 41
0.0
173
     1
 91
-1056964608
340
14
 92
       -2
290
     1
 42
0.09
291
     1
 43
0.36
  3
Standard
 44
0.18
300

342
11
174
     1
178
     6
175
     1
176
     0
 93
-1056964608
 45
0.18
292
     0
297
     0
 46
0.18
 94
-1056964608
 47
1.0
 49
1.0
140
1.0
293
     1
141
0.0
294
     1
177
     0
142
1.0
295
     0
296
     0
143
0.125
271
     0
272
     9
273
     9
298
     0
  0
MLINESTYLE
  5
1003A
102
{ACAD_REACTORS
330
17
102
}
330
17
100
AcDbMlineStyle
  2
STANDARD
 70
     0
  3

 62
   256
 51
90.0
 52
90.0
 71
     2
 49
0.5
 62
   256
  6
BYLAYER
 49
-0.5
 62
   256
  6
BYLAYER
  0
ACDBPLACEHOLDER
  5
10003
102
{ACAD_REACTORS
330
10002
102
}
330
10002
  0
SCALE
  5
1003C
102
{ACAD_REACTORS
330
1003B
102
}
330
1003B
100
AcDbScale
 70
     0
300
1:1
140
1.0
141
1.0
290
     1
  0
SCALE
  5
1003D
102
{ACAD_REACTORS
330
1003B
102
}
330
1003B
100
AcDbScale
 70
     0
300
1/128" = 1'-0"
140
0.0078125
141
12.0
290
     0
  0
SCALE
  5
1003E
102
{ACAD_REACTORS
330
1003B
102
}
330
1003B
100
AcDbScale
 70
     0
300
1/64" = 1'-0"
140
0.015625
141
12.0
290
     0
  0
SCALE
  5
1003F
102
{ACAD_REACTORS
330
1003B
102
}
330
1003B
100
AcDbScale
 70
     0
300
1/32" = 1'-0"
140
0.03125
141
12.0
290
     0
  0
SCALE
  5
10040
102
{ACAD_REACTORS
330
1003B
102
}
330
1003B
100
AcDbScale
 70
     0
300
1/16" = 1'-0"
140
0.0625
141
12.0
290
     0
  0
SCALE
  5
10041
102
{ACAD_REACTORS
330
1003B
102
}
330
1003B
100
AcDbScale
 70
     0
300
3/32" = 1'-0"
140
0.09375
141
12.0
290
     0
  0
SCALE
  5
10042
102
{ACAD_REACTORS
330
1003B
102
}
330
1003B
100
AcDbScale
 70
     0
300
1/8" = 1'-0"
140
0.125
141
12.0
290
     0
  0
SCALE
  5
10043
102
{ACAD_REACTORS
330
1003B
102
}
330
1003B
100
AcDbScale
 70
     0
300
3/16" = 1'-0"
140
0.1875
141
12.0
290
     0
  0
SCALE
  5
10044
102
{ACAD_REACTORS
330
1003B
102
}
330
1003B
100
AcDbScale
 70
     0
300
1/4" = 1'-0"
140
0.25
141
12.0
290
     0
  0
SCALE
  5
10045
102
{ACAD_REACTORS
330
1003B
102
}
330
1003B
100
AcDbScale
 70
     0
300
3/8" = 1'-0"
140
0.375
141
12.0
290
     0
  0
SCALE
  5
10046
102
{ACAD_REACTORS
330
1003B
102
}
330
1003B
100
AcDbScale
 70
     0
300
1/2" = 1'-0"
140
0.5
141
12.0
290
     0
  0
SCALE
  5
10047
102
{ACAD_REACTORS
330
1003B
102
}
330
1003B
100
AcDbScale
 70
     0
300
3/4" = 1'-0"
140
0.75
141
12.0
290
     0
  0
SCALE
  5
10048
102
{ACAD_REACTORS
330
1003B
102
}
330
1003B
100
AcDbScale
 70
     0
300
1" = 1'-0"
140
1.0
141
12.0
290
     0
  0
SCALE
  5
10049
102
{ACAD_REACTORS
330
1003B
102
}
330
1003B
100
AcDbScale
 70
     0
300
1-1/2" = 1'-0"
140
1.5
141
12.0
290
     0
  0
SCALE
  5
1004A
102
{ACAD_REACTORS
330
1003B
102
}
330
1003B
100
AcDbScale
 70
     0
300
3" = 1'-0"
140
3.0
141
12.0
290
     0
  0
SCALE
  5
1004B
102
{ACAD_REACTORS
330
1003B
102
}
330
1003B
100
AcDbScale
 70
     0
300
6" = 1'-0"
140
6.0
141
12.0
290
     0
  0
SCALE
  5
1004C
102
{ACAD_REACTORS
330
1003B
102
}
330
1003B
100
AcDbScale
 70
     0
300
1'-0" = 1'-0"
140
12.0
141
12.0
290
     0
  0
ACDBSECTIONVIEWSTYLE
  5
10050
102
{ACAD_XDICTIONARY
360
10075
102
}
102
{ACAD_REACTORS
330
1004F
102
}
330
1004F
100
AcDbModelDocViewStyle
 70
     0
  3
Imperial24
290
     0
100
AcDbSectionViewStyle
 70
     0
 71
     0
 90
       78
 71
     1
340
11
 62
   256
 40
0.24
340
0
340
0
 62
   256
 40
0.24
300
I, O, Q, S, X, Z
 40
0.48
 90
        3
 40
0.18
 90
        1
 71
     2
340
0
 90
       25
 62
   256
340
0
 90
       50
 62
   256
 40
0.24
 40
0.0
 40
0.24
 71
     3
340
11
 62
   256
 40
0.24
 90
        1
 40
0.75
 90
        1
300
%<\AcVar ViewType \f "%tc1">% %<\AcVar ViewSectionStartId>%-%<\AcVar ViewSectionEndId>%\PSCALE %<\AcVar ViewScale \f "%sn">%
 71
     4
 62
   256
 62
   257
300
ANSI31
 40
1.0
 90
        0
290
     0
290
     0
 90
        6
 40
0.0
 40
1.570796326794896
 40
0.2617993877991494
 40
1.308996938995747
 40
-0.2617993877991494
 40
1.832595714594046
  0
TABLESTYLE
  5
10039
102
{ACAD_XDICTIONARY
360
10072
102
}
102
{ACAD_REACTORS
330
10038
102
}
330
10038
100
AcDbTableStyle
280
     0
  3
Standard
 70
     0
 71
     0
 40
0.06
 41
0.06
280
     0
281
     0
  7
STANDARD
140
0.18
170
     2
 62
     0
 63
     7
283
     0
 90
      512
 91
        0
  1

274
    -2
284
     1
 64
     0
275
    -2
285
     1
 65
     0
276
    -2
286
     1
 66
     0
277
    -2
287
     1
 67
     0
278
    -2
288
     1
 68
     0
279
    -2
289
     1
 69
     0
  7
STANDARD
140
0.25
170
     5
 62
     0
 63
     7
283
     0
 90
      512
 91
        0
  1

274
    -2
284
     1
 64
     0
275
    -2
285
     1
 65
     0
276
    -2
286
     1
 66
     0
277
    -2
287
     1
 67
     0
278
    -2
288
     1
 68
     0
279
    -2
289
     1
 69
     0
  7
STANDARD
140
0.18
170
     5
 62
     0
 63
     7
283
     0
 90
      512
 91
        0
  1

274
    -2
284
     1
 64
     0
275
    -2
285
     1
 65
     0
276
    -2
286
     1
 66
     0
277
    -2
287
     1
 67
     0
278
    -2
288
     1
 68
     0
279
    -2
289
     1
 69
     0
  0
VISUALSTYLE
  5
10023
102
{ACAD_REACTORS
330
1001D
102
}
330
1001D
100
AcDbVisualStyle
  2
2dWireframe
 70
     4
177
     3
291
     0
 70
    58
 90
        0
176
     1
 90
        2
176
     1
 90
        0
176
     1
 90
        0
176
     1
 40
0.6
176
     1
 40
30.0
176
     1
 62
     7
420
 16777215
176
     1
 90
        1
176
     1
 90
        4
176
     1
 62
     7
176
     1
 62
   257
176
     1
 90
        1
176
     1
 90
        1
176
     1
 40
1.0
176
     1
 90
        0
176
     1
 62
   257
176
     1
 40
1.0
176
     1
 90
        1
176
     1
 90
        6
176
     1
 90
        2
176
     1
 62
     7
176
     1
 90
        5
176
     1
 90
        0
176
     1
 90
        0
176
     1
290
     0
176
     1
 90
        1
176
     1
 40
0.0
176
     1
 90
        0
176
     1
290
     1
176
     1
290
     1
176
     1
290
     0
176
     1
290
     0
176
     1
290
     0
176
     1
290
     0
176
     1
290
     0
176
     1
290
     0
176
     1
290
     0
176
     1
 90
       50
176
     1
 40
0.0
176
     1
 40
1.0
176
     1
 90
        0
176
     1
 62
    18
420
        0
176
     1
 90
       50
176
     1
 90
        3
176
     1
 62
     5
420
      255
176
     1
290
     0
176
     1
 90
       50
176
     1
 90
       50
176
     1
 90
       50
176
     1
290
     0
176
     1
 90
       50
176
     1
 62
   256
176
     0
 40
1.0
176
     0
 90
        2
176
     1
  1
strokes_ogs.tif
176
     1
290
     0
176
     1
 40
1.0
176
     1
 40
1.0
176
     1
1001
ACAD
1000
AcDbSavedByObjectVersion
1070
     0
  0
VISUALSTYLE
  5
10022
102
{ACAD_REACTORS
330
1001D
102
}
330
1001D
100
AcDbVisualStyle
  2
Basic
 70
     7
177
     3
291
     1
 70
    58
 90
        1
176
     1
 90
        0
176
     1
 90
        1
176
     1
 90
        0
176
     1
 40
0.6
176
     1
 40
30.0
176
     1
 62
     7
420
 16777215
176
     1
 90
        0
176
     1
 90
        4
176
     1
 62
     7
176
     1
 62
   257
176
     1
 90
        1
176
     1
 90
        1
176
     1
 40
1.0
176
     1
 90
        8
176
     1
 62
     7
176
     1
 40
1.0
176
     1
 90
        1
176
     1
 90
        6
176
     1
 90
        2
176
     1
 62
     7
176
     1
 90
        5
176
     1
 90
        0
176
     1
 90
        0
176
     1
290
     0
176
     1
 90
        1
176
     1
 40
0.0
176
     1
 90
        0
176
     1
290
     0
176
     1
290
     1
176
     1
290
     1
176
     1
290
     0
176
     1
290
     0
176
     1
290
     0
176
     1
290
     0
176
     1
290
     0
176
     1
290
     0
176
     1
 90
       50
176
     1
 40
0.0
176
     1
 40
1.0
176
     1
 90
        0
176
     1
 62
    18
420
        0
176
     1
 90
       50
176
     1
 90
        3
176
     1
 62
     5
420
      255
176
     1
290
     0
176
     1
 90
       50
176
     1
 90
       50
176
     1
 90
       50
176
     1
290
     0
176
     1
 90
       50
176
     1
 62
   256
176
     0
 40
1.0
176
     0
 90
        2
176
     1
  1
strokes_ogs.tif
176
     1
290
     0
176
     1
 40
1.0
176
     1
 40
1.0
176
     1
1001
ACAD
1000
AcDbSavedByObjectVersion
1070
     0
  0
VISUALSTYLE
  5
10029
102
{ACAD_REACTORS
330
1001D
102
}
330
1001D
100
AcDbVisualStyle
  2
Brighten
 70
    12
177
     3
291
     1
 70
    58
 90
        2
176
     1
 90
        2
176
     1
 90
        0
176
     1
 90
        0
176
     1
 40
0.6
176
     1
 40
30.0
176
     1
 62
     7
420
 16777215
176
     1
 90
        1
176
     1
 90
        4
176
     1
 62
     7
176
     1
 62
   257
176
     1
 90
        1
176
     1
 90
        1
176
     1
 40
1.0
176
     1
 90
        8
176
     1
 62
     7
176
     1
 40
1.0
176
     1
 90
        1
176
     1
 90
        6
176
     1
 90
        2
176
     1
 62
     7
176
     1
 90
        5
176
     1
 90
        0
176
     1
 90
        0
176
     1
290
     0
176
     1
 90
        1
176
     1
 40
50.0
176
     1
 90
        0
176
     1
290
     0
176
     1
290
     1
176
     1
290
     1
176
     1
290
     0
176
     1
290
     0
176
     1
290
     0
176
     1
290
     0
176
     1
290
     0
176
     1
290
     0
176
     1
 90
       50
176
     1
 40
0.0
176
     1
 40
1.0
176
     1
 90
        0
176
     1
 62
    18
420
        0
176
     1
 90
       50
176
     1
 90
        3
176
     1
 62
     5
420
      255
176
     1
290
     0
176
     1
 90
       50
176
     1
 90
       50
176
     1
 90
       50
176
     1
290
     0
176
     1
 90
       50
176
     1
 62
   256
176
     0
 40
1.0
176
     0
 90
        2
176
     1
  1
strokes_ogs.tif
176
     1
290
     0
176
     1
 40
1.0
176
     1
 40
1.0
176
     1
1001
ACAD
1000
AcDbSavedByObjectVersion
1070
     0
  0
VISUALSTYLE
  5
1002D
102
{ACAD_REACTORS
330
1001D
102
}
330
1001D
100
AcDbVisualStyle
  2
ColorChange
 70
    16
177
     3
291
     1
 70
    58
 90
        2
176
     1
 90
        2
176
     1
 90
        3
176
     1
 90
        0
176
     1
 40
0.6
176
     1
 40
30.0
176
     1
 62
     8
420
  8421504
176
     1
 90
        1
176
     1
 90
        4
176
     1
 62
     7
176
     1
 62
   257
176
     1
 90
        1
176
     1
 90
        1
176
     1
 40
1.0
176
     1
 90
        8
176
     1
 62
     8
420
  8421504
176
     1
 40
1.0
176
     1
 90
        1
176
     1
 90
        6
176
     1
 90
        2
176
     1
 62
     7
176
     1
 90
        5
176
     1
 90
        0
176
     1
 90
        0
176
     1
290
     0
176
     1
 90
        1
176
     1
 40
0.0
176
     1
 90
        0
176
     1
290
     0
176
     1
290
     1
176
     1
290
     1
176
     1
290
     0
176
     1
290
     0
176
     1
290
     0
176
     1
290
     0
176
     1
290
     0
176
     1
290
     0
176
     1
 90
       50
176
     1
 40
0.0
176
     1
 40
1.0
176
     1
 90
        0
176
     1
 62
    18
420
        0
176
     1
 90
       50
176
     1
 90
        3
176
     1
 62
     5
420
      255
176
     1
290
     0
176
     1
 90
       50
176
     1
 90
       50
176
     1
 90
       50
176
     1
290
     0
176
     1
 90
       50
176
     1
 62
   256
176
     0
 40
1.0
176
     0
 90
        2
176
     1
  1
strokes_ogs.tif
176
     1
290
     0
176
     1
 40
1.0
176
     1
 40
1.0
176
     1
1001
ACAD
1000
AcDbSavedByObjectVersion
1070
     0
  0
VISUALSTYLE
  5
10026
102
{ACAD_REACTORS
330
1001D
102
}
330
1001D
100
AcDbVisualStyle
  2
Conceptual
 70
     9
177
     3
291
     0
 70
    58
 90
        3
176
     1
 90
        2
176
     1
 90
        0
176
     1
 90
        0
176
     1
 40
0.6
176
     1
 40
30.0
176
     1
 62
     7
420
 16777215
176
     1
 90
        2
176
     1
 90
        2
176
     1
 62
     7
176
     1
 62
   257
176
     1
 90
        1
176
     1
 90
        1
176
     1
 40
179.0
176
     1
 90
        8
176
     1
 62
     7
176
     1
 40
1.0
176
     1
 90
        1
176
     1
 90
        6
176
     1
 90
        2
176
     1
 62
     7
176
     1
 90
        3
176
     1
 90
        0
176
     1
 90
        0
176
     1
290
     0
176
     1
 90
        1
176
     1
 40
0.0
176
     1
 90
        0
176
     1
290
     0
176
     1
290
     1
176
     1
290
     1
176
     1
290
     0
176
     1
290
     0
176
     1
290
     0
176
     1
290
     0
176
     1
290
     0
176
     1
290
     0
176
     1
 90
       50
176
     1
 40
0.0
176
     1
 40
1.0
176
     1
 90
        0
176
     1
 62
    18
420
        0
176
     1
 90
       50
176
     1
 90
        3
176
     1
 62
     5
420
      255
176
     1
290
     0
176
     1
 90
       50
176
     1
 90
       50
176
     1
 90
       50
176
     1
290
     0
176
     1
 90
       50
176
     1
 62
   256
176
     0
 40
1.0
176
     0
 90
        2
176
     1
  1
strokes_ogs.tif
176
     1
290
     0
176
     1
 40
1.0
176
     1
 40
1.0
176
     1
1001
ACAD
1000
AcDbSavedByObjectVersion
1070
     0
  0
VISUALSTYLE
  5
10028
102
{ACAD_REACTORS
330
1001D
102
}
330
1001D
100
AcDbVisualStyle
  2
Dim
 70
    11
177
     3
291
     1
 70
    58
 90
        2
176
     1
 90
        2
176
     1
 90
        0
176
     1
 90
        0
176
     1
 40
0.6
176
     1
 40
30.0
176
     1
 62
     7
420
 16777215
176
     1
 90
        1
176
     1
 90
        4
176
     1
 62
     7
176
     1
 62
   257
176
     1
 90
        1
176
     1
 90
        1
176
     1
 40
1.0
176
     1
 90
        8
176
     1
 62
     7
176
     1
 40
1.0
176
     1
 90
        1
176
     1
 90
        6
176
     1
 90
        2
176
     1
 62
     7
176
     1
 90
        5
176
     1
 90
        0
176
     1
 90
        0
176
     1
290
     0
176
     1
 90
        1
176
     1
 40
-50.0
176
     1
 90
        0
176
     1
290
     0
176
     1
290
     1
176
     1
290
     1
176
     1
290
     0
176
     1
290
     0
176
     1
290
     0
176
     1
290
     0
176
     1
290
     0
176
     1
290
     0
176
     1
 90
       50
176
     1
 40
0.0
176
     1
 40
1.0
176
     1
 90
        0
176
     1
 62
    18
420
        0
176
     1
 90
       50
176
     1
 90
        3
176
     1
 62
     5
420
      255
176
     1
290
     0
176
     1
 90
       50
176
     1
 90
       50
176
     1
 90
       50
176
     1
290
     0
176
     1
 90
       50
176
     1
 62
   256
176
     0
 40
1.0
176
     0
 90
        2
176
     1
  1
strokes_ogs.tif
176
     1
290
     0
176
     1
 40
1.0
176
     1
 40
1.0
176
     1
1001
ACAD
1000
AcDbSavedByObjectVersion
1070
     0
  0
VISUALSTYLE
  5
10035
102
{ACAD_REACTORS
330
1001D
102
}
330
1001D
100
AcDbVisualStyle
  2
EdgeColorOff
 70
    22
177
     3
291
     1
 70
    58
 90
        2
176
     0
 90
        2
176
     0
 90
        0
176
     0
 90
        0
176
     0
 40
0.6
176
     0
 40
30.0
176
     0
 62
     7
420
 16777215
176
     0
 90
        1
176
     0
 90
        4
176
     0
 62
     7
176
     0
 62
   257
176
     0
 90
        1
176
     0
 90
        1
176
     0
 40
1.0
176
     0
 90
        8
176
     2
 62
     7
176
     0
 40
1.0
176
     0
 90
        1
176
     0
 90
        6
176
     0
 90
        2
176
     0
 62
     7
176
     0
 90
        5
176
     0
 90
        0
176
     0
 90
        0
176
     0
290
     0
176
     0
 90
        1
176
     0
 40
0.0
176
     0
 90
        0
176
     0
290
     0
176
     1
290
     1
176
     1
290
     1
176
     1
290
     0
176
     1
290
     0
176
     1
290
     0
176
     1
290
     0
176
     1
290
     0
176
     1
290
     0
176
     1
 90
       50
176
     0
 40
0.0
176
     0
 40
1.0
176
     0
 90
        0
176
     0
 62
    18
420
        0
176
     0
 90
       50
176
     0
 90
        3
176
     0
 62
     5
420
      255
176
     0
290
     0
176
     1
 90
       50
176
     0
 90
       50
176
     0
 90
       50
176
     0
290
     0
176
     1
 90
       50
176
     0
 62
   256
176
     0
 40
1.0
176
     0
 90
        2
176
     0
  1
strokes_ogs.tif
176
     0
290
     0
176
     1
 40
1.0
176
     0
 40
1.0
176
     0
1001
ACAD
1000
AcDbSavedByObjectVersion
1070
     0
  0
VISUALSTYLE
  5
1002C
102
{ACAD_REACTORS
330
1001D
102
}
330
1001D
100
AcDbVisualStyle
  2
Facepattern
 70
    15
177
     3
291
     1
 70
    58
 90
        2
176
     1
 90
        2
176
     1
 90
        0
176
     1
 90
        0
176
     1
 40
0.6
176
     1
 40
30.0
176
     1
 62
     7
420
 16777215
176
     1
 90
        1
176
     1
 90
        4
176
     1
 62
     7
176
     1
 62
   257
176
     1
 90
        1
176
     1
 90
        1
176
     1
 40
1.0
176
     1
 90
        8
176
     1
 62
     7
176
     1
 40
1.0
176
     1
 90
        1
176
     1
 90
        6
176
     1
 90
        2
176
     1
 62
     7
176
     1
 90
        5
176
     1
 90
        0
176
     1
 90
        0
176
     1
290
     0
176
     1
 90
        1
176
     1
 40
0.0
176
     1
 90
        0
176
     1
290
     0
176
     1
290
     1
176
     1
290
     1
176
     1
290
     0
176
     1
290
     0
176
     1
290
     0
176
     1
290
     0
176
     1
290
     0
176
     1
290
     0
176
     1
 90
       50
176
     1
 40
0.0
176
     1
 40
1.0
176
     1
 90
        0
176
     1
 62
    18
420
        0
176
     1
 90
       50
176
     1
 90
        3
176
     1
 62
     5
420
      255
176
     1
290
     0
176
     1
 90
       50
176
     1
 90
       50
176
     1
 90
       50
176
     1
290
     0
176
     1
 90
       50
176
     1
 62
   256
176
     0
 40
1.0
176
     0
 90
        2
176
     1
  1
strokes_ogs.tif
176
     1
290
     0
176
     1
 40
1.0
176
     1
 40
1.0
176
     1
1001
ACAD
1000
AcDbSavedByObjectVersion
1070
     0
  0
VISUALSTYLE
  5
1001E
102
{ACAD_REACTORS
330
1001D
102
}
330
1001D
100
AcDbVisualStyle
  2
Flat
 70
     0
177
     3
291
     1
 70
    58
 90
        2
176
     1
 90
        1
176
     1
 90
        1
176
     1
 90
        2
176
     1
 40
0.6
176
     1
 40
30.0
176
     1
 62
     7
420
 16777215
176
     1
 90
        0
176
     1
 90
        0
176
     1
 62
     7
176
     1
 62
   257
176
     1
 90
        1
176
     1
 90
        1
176
     1
 40
1.0
176
     1
 90
        8
176
     1
 62
     7
176
     1
 40
1.0
176
     1
 90
        1
176
     1
 90
        6
176
     1
 90
        2
176
     1
 62
     7
176
     1
 90
        5
176
     1
 90
        0
176
     1
 90
        0
176
     1
290
     0
176
     1
 90
       13
176
     1
 40
0.0
176
     1
 90
        0
176
     1
290
     0
176
     1
290
     1
176
     1
290
     1
176
     1
290
     0
176
     1
290
     0
176
     1
290
     0
176
     1
290
     0
176
     1
290
     0
176
     1
290
     0
176
     1
 90
       50
176
     1
 40
0.0
176
     1
 40
1.0
176
     1
 90
        0
176
     1
 62
    18
420
        0
176
     1
 90
       50
176
     1
 90
        3
176
     1
 62
     5
420
      255
176
     1
290
     0
176
     1
 90
       50
176
     1
 90
       50
176
     1
 90
       50
176
     1
290
     0
176
     1
 90
       50
176
     1
 62
   256
176
     0
 40
1.0
176
     0
 90
        2
176
     1
  1
strokes_ogs.tif
176
     1
290
     0
176
     1
 40
1.0
176
     1
 40
1.0
176
     1
1001
ACAD
1000
AcDbSavedByObjectVersion
1070
     0
  0
VISUALSTYLE
  5
1001F
102
{ACAD_REACTORS
330
1001D
102
}
330
1001D
100
AcDbVisualStyle
  2
FlatWithEdges
 70
     1
177
     3
291
     1
 70
    58
 90
        2
176
     1
 90
        1
176
     1
 90
        1
176
     1
 90
        2
176
     1
 40
0.6
176
     1
 40
30.0
176
     1
 62
     7
420
 16777215
176
     1
 90
        1
176
     1
 90
        0
176
     1
 62
     7
176
     1
 62
   257
176
     1
 90
        1
176
     1
 90
        1
176
     1
 40
1.0
176
     1
 90
        0
176
     1
 62
   257
176
     1
 40
1.0
176
     1
 90
        1
176
     1
 90
        6
176
     1
 90
        2
176
     1
 62
     7
176
     1
 90
        5
176
     1
 90
        0
176
     1
 90
        0
176
     1
290
     0
176
     1
 90
       13
176
     1
 40
0.0
176
     1
 90
        0
176
     1
290
     0
176
     1
290
     1
176
     1
290
     1
176
     1
290
     0
176
     1
290
     0
176
     1
290
     0
176
     1
290
     0
176
     1
290
     0
176
     1
290
     0
176
     1
 90
       50
176
     1
 40
0.0
176
     1
 40
1.0
176
     1
 90
        0
176
     1
 62
    18
420
        0
176
     1
 90
       50
176
     1
 90
        3
176
     1
 62
     5
420
      255
176
     1
290
     0
176
     1
 90
       50
176
     1
 90
       50
176
     1
 90
       50
176
     1
290
     0
176
     1
 90
       50
176
     1
 62
   256
176
     0
 40
1.0
176
     0
 90
        2
176
     1
  1
strokes_ogs.tif
176
     1
290
     0
176
     1
 40
1.0
176
     1
 40
1.0
176
     1
1001
ACAD
1000
AcDbSavedByObjectVersion
1070
     0
  0
VISUALSTYLE
  5
10020
102
{ACAD_REACTORS
330
1001D
102
}
330
1001D
100
AcDbVisualStyle
  2
Gouraud
 70
     2
177
     3
291
     1
 70
    58
 90
        2
176
     1
 90
        2
176
     1
 90
        1
176
     1
 90
        2
176
     1
 40
0.6
176
     1
 40
30.0
176
     1
 62
     7
420
 16777215
176
     1
 90
        0
176
     1
 90
        0
176
     1
 62
     7
176
     1
 62
   257
176
     1
 90
        1
176
     1
 90
        1
176
     1
 40
1.0
176
     1
 90
        0
176
     1
 62
     7
176
     1
 40
1.0
176
     1
 90
        1
176
     1
 90
        6
176
     1
 90
        2
176
     1
 62
     7
176
     1
 90
        5
176
     1
 90
        0
176
     1
 90
        0
176
     1
290
     0
176
     1
 90
       13
176
     1
 40
0.0
176
     1
 90
        0
176
     1
290
     0
176
     1
290
     1
176
     1
290
     1
176
     1
290
     0
176
     1
290
     0
176
     1
290
     0
176
     1
290
     0
176
     1
290
     0
176
     1
290
     0
176
     1
 90
       50
176
     1
 40
0.0
176
     1
 40
1.0
176
     1
 90
        0
176
     1
 62
    18
420
        0
176
     1
 90
       50
176
     1
 90
        3
176
     1
 62
     5
420
      255
176
     1
290
     0
176
     1
 90
       50
176
     1
 90
       50
176
     1
 90
       50
176
     1
290
     0
176
     1
 90
       50
176
     1
 62
   256
176
     0
 40
1.0
176
     0
 90
        2
176
     1
  1
strokes_ogs.tif
176
     1
290
     0
176
     1
 40
1.0
176
     1
 40
1.0
176
     1
1001
ACAD
1000
AcDbSavedByObjectVersion
1070
     0
  0
VISUALSTYLE
  5
10021
102
{ACAD_REACTORS
330
1001D
102
}
330
1001D
100
AcDbVisualStyle
  2
GouraudWithEdges
 70
     3
177
     3
291
     1
 70
    58
 90
        2
176
     1
 90
        2
176
     1
 90
        1
176
     1
 90
        2
176
     1
 40
0.6
176
     1
 40
30.0
176
     1
 62
     7
420
 16777215
176
     1
 90
        1
176
     1
 90
        0
176
     1
 62
     7
176
     1
 62
   257
176
     1
 90
        1
176
     1
 90
        1
176
     1
 40
1.0
176
     1
 90
        0
176
     1
 62
   257
176
     1
 40
1.0
176
     1
 90
        1
176
     1
 90
        6
176
     1
 90
        2
176
     1
 62
     7
176
     1
 90
        5
176
     1
 90
        0
176
     1
 90
        0
176
     1
290
     0
176
     1
 90
       13
176
     1
 40
0.0
176
     1
 90
        0
176
     1
290
     0
176
     1
290
     1
176
     1
290
     1
176
     1
290
     0
176
     1
290
     0
176
     1
290
     0
176
     1
290
     0
176
     1
290
     0
176
     1
290
     0
176
     1
 90
       50
176
     1
 40
0.0
176
     1
 40
1.0
176
     1
 90
        0
176
     1
 62
    18
420
        0
176
     1
 90
       50
176
     1
 90
        3
176
     1
 62
     5
420
      255
176
     1
290
     0
176
     1
 90
       50
176
     1
 90
       50
176
     1
 90
       50
176
     1
290
     0
176
     1
 90
       50
176
     1
 62
   256
176
     0
 40
1.0
176
     0
 90
        2
176
     1
  1
strokes_ogs.tif
176
     1
290
     0
176
     1
 40
1.0
176
     1
 40
1.0
176
     1
1001
ACAD
1000
AcDbSavedByObjectVersion
1070
     0
  0
VISUALSTYLE
  5
10025
102
{ACAD_REACTORS
330
1001D
102
}
330
1001D
100
AcDbVisualStyle
  2
Hidden
 70
     6
177
     3
291
     0
 70
    58
 90
        1
176
     1
 90
        2
176
     1
 90
        2
176
     1
 90
        0
176
     1
 40
0.6
176
     1
 40
30.0
176
     1
 62
     7
420
 16777215
176
     1
 90
        2
176
     1
 90
        2
176
     1
 62
     7
176
     1
 62
   257
176
     1
 90
        2
176
     1
 90
        1
176
     1
 40
40.0
176
     1
 90
        0
176
     1
 62
   257
176
     1
 40
1.0
176
     1
 90
        1
176
     1
 90
        6
176
     1
 90
        2
176
     1
 62
     7
176
     1
 90
        3
176
     1
 90
        0
176
     1
 90
        0
176
     1
290
     0
176
     1
 90
        1
176
     1
 40
0.0
176
     1
 90
        0
176
     1
290
     0
176
     1
290
     1
176
     1
290
     1
176
     1
290
     0
176
     1
290
     0
176
     1
290
     0
176
     1
290
     0
176
     1
290
     0
176
     1
290
     0
176
     1
 90
       50
176
     1
 40
0.0
176
     1
 40
1.0
176
     1
 90
        0
176
     1
 62
    18
420
        0
176
     1
 90
       50
176
     1
 90
        3
176
     1
 62
     5
420
      255
176
     1
290
     0
176
     1
 90
       50
176
     1
 90
       50
176
     1
 90
       50
176
     1
290
     0
176
     1
 90
       50
176
     1
 62
   256
176
     0
 40
1.0
176
     0
 90
        2
176
     1
  1
strokes_ogs.tif
176
     1
290
     0
176
     1
 40
1.0
176
     1
 40
1.0
176
     1
1001
ACAD
1000
AcDbSavedByObjectVersion
1070
     0
  0
VISUALSTYLE
  5
10033
102
{ACAD_REACTORS
330
1001D
102
}
330
1001D
100
AcDbVisualStyle
  2
JitterOff
 70
    20
177
     3
291
     1
 70
    58
 90
        2
176
     0
 90
        2
176
     0
 90
        0
176
     0
 90
        0
176
     0
 40
0.6
176
     0
 40
30.0
176
     0
 62
     7
420
 16777215
176
     0
 90
        1
176
     0
 90
        4
176
     0
 62
     7
176
     0
 62
   257
176
     0
 90
        1
176
     0
 90
        1
176
     0
 40
1.0
176
     0
 90
       10
176
     2
 62
     7
176
     0
 40
1.0
176
     0
 90
        1
176
     0
 90
        6
176
     0
 90
        2
176
     0
 62
     7
176
     0
 90
        5
176
     0
 90
        0
176
     0
 90
        0
176
     0
290
     0
176
     0
 90
        1
176
     0
 40
0.0
176
     0
 90
        0
176
     0
290
     0
176
     1
290
     1
176
     1
290
     1
176
     1
290
     0
176
     1
290
     0
176
     1
290
     0
176
     1
290
     0
176
     1
290
     0
176
     1
290
     0
176
     1
 90
       50
176
     0
 40
0.0
176
     0
 40
1.0
176
     0
 90
        0
176
     0
 62
    18
420
        0
176
     0
 90
       50
176
     0
 90
        3
176
     0
 62
     5
420
      255
176
     0
290
     0
176
     1
 90
       50
176
     0
 90
       50
176
     0
 90
       50
176
     0
290
     0
176
     1
 90
       50
176
     0
 62
   256
176
     0
 40
1.0
176
     0
 90
        2
176
     0
  1
strokes_ogs.tif
176
     0
290
     0
176
     1
 40
1.0
176
     0
 40
1.0
176
     0
1001
ACAD
1000
AcDbSavedByObjectVersion
1070
     0
  0
VISUALSTYLE
  5
1002B
102
{ACAD_REACTORS
330
1001D
102
}
330
1001D
100
AcDbVisualStyle
  2
Linepattern
 70
    14
177
     3
291
     1
 70
    58
 90
        2
176
     1
 90
        2
176
     1
 90
        0
176
     1
 90
        0
176
     1
 40
0.6
176
     1
 40
30.0
176
     1
 62
     7
420
 16777215
176
     1
 90
        1
176
     1
 90
        4
176
     1
 62
     7
176
     1
 62
   257
176
     1
 90
        7
176
     1
 90
        7
176
     1
 40
1.0
176
     1
 90
        8
176
     1
 62
     7
176
     1
 40
1.0
176
     1
 90
        1
176
     1
 90
        6
176
     1
 90
        2
176
     1
 62
     7
176
     1
 90
        5
176
     1
 90
        0
176
     1
 90
        0
176
     1
290
     0
176
     1
 90
        1
176
     1
 40
0.0
176
     1
 90
        0
176
     1
290
     0
176
     1
290
     1
176
     1
290
     1
176
     1
290
     0
176
     1
290
     0
176
     1
290
     0
176
     1
290
     0
176
     1
290
     0
176
     1
290
     0
176
     1
 90
       50
176
     1
 40
0.0
176
     1
 40
1.0
176
     1
 90
        0
176
     1
 62
    18
420
        0
176
     1
 90
       50
176
     1
 90
        3
176
     1
 62
     5
420
      255
176
     1
290
     0
176
     1
 90
       50
176
     1
 90
       50
176
     1
 90
       50
176
     1
290
     0
176
     1
 90
       50
176
     1
 62
   256
176
     0
 40
1.0
176
     0
 90
        2
176
     1
  1
strokes_ogs.tif
176
     1
290
     0
176
     1
 40
1.0
176
     1
 40
1.0
176
     1
1001
ACAD
1000
AcDbSavedByObjectVersion
1070
     0
  0
VISUALSTYLE
  5
10034
102
{ACAD_REACTORS
330
1001D
102
}
330
1001D
100
AcDbVisualStyle
  2
OverhangOff
 70
    21
177
     3
291
     1
 70
    58
 90
        2
176
     0
 90
        2
176
     0
 90
        0
176
     0
 90
        0
176
     0
 40
0.6
176
     0
 40
30.0
176
     0
 62
     7
420
 16777215
176
     0
 90
        1
176
     0
 90
        4
176
     0
 62
     7
176
     0
 62
   257
176
     0
 90
        1
176
     0
 90
        1
176
     0
 40
1.0
176
     0
 90
        9
176
     2
 62
     7
176
     0
 40
1.0
176
     0
 90
        1
176
     0
 90
        6
176
     0
 90
        2
176
     0
 62
     7
176
     0
 90
        5
176
     0
 90
        0
176
     0
 90
        0
176
     0
290
     0
176
     0
 90
        1
176
     0
 40
0.0
176
     0
 90
        0
176
     0
290
     0
176
     1
290
     1
176
     1
290
     1
176
     1
290
     0
176
     1
290
     0
176
     1
290
     0
176
     1
290
     0
176
     1
290
     0
176
     1
290
     0
176
     1
 90
       50
176
     0
 40
0.0
176
     0
 40
1.0
176
     0
 90
        0
176
     0
 62
    18
420
        0
176
     0
 90
       50
176
     0
 90
        3
176
     0
 62
     5
420
      255
176
     0
290
     0
176
     1
 90
       50
176
     0
 90
       50
176
     0
 90
       50
176
     0
290
     0
176
     1
 90
       50
176
     0
 62
   256
176
     0
 40
1.0
176
     0
 90
        2
176
     0
  1
strokes_ogs.tif
176
     0
290
     0
176
     1
 40
1.0
176
     0
 40
1.0
176
     0
1001
ACAD
1000
AcDbSavedByObjectVersion
1070
     0
  0
VISUALSTYLE
  5
10027
102
{ACAD_REACTORS
330
1001D
102
}
330
1001D
100
AcDbVisualStyle
  2
Realistic
 70
     8
177
     3
291
     0
 70
    58
 90
        2
176
     1
 90
        3
176
     1
 90
        0
176
     1
 90
        2
176
     1
 40
0.6
176
     1
 40
30.0
176
     1
 62
     7
420
 16777215
176
     1
 90
        0
176
     1
 90
        0
176
     1
 62
     7
176
     1
 62
   257
176
     1
 90
        1
176
     1
 90
        1
176
     1
 40
1.0
176
     1
 90
        8
176
     1
 62
   257
176
     1
 40
1.0
176
     1
 90
        1
176
     1
 90
        6
176
     1
 90
        2
176
     1
 62
     7
176
     1
 90
        3
176
     1
 90
        0
176
     1
 90
        0
176
     1
290
     0
176
     1
 90
       13
176
     1
 40
0.0
176
     1
 90
        0
176
     1
290
     0
176
     1
290
     1
176
     1
290
     1
176
     1
290
     0
176
     1
290
     0
176
     1
290
     0
176
     1
290
     0
176
     1
290
     0
176
     1
290
     0
176
     1
 90
       50
176
     1
 40
0.0
176
     1
 40
1.0
176
     1
 90
        0
176
     1
 62
    18
420
        0
176
     1
 90
       50
176
     1
 90
        3
176
     1
 62
     5
420
      255
176
     1
290
     0
176
     1
 90
       50
176
     1
 90
       50
176
     1
 90
       50
176
     1
290
     0
176
     1
 90
       50
176
     1
 62
   256
176
     0
 40
1.0
176
     0
 90
        2
176
     1
  1
strokes_ogs.tif
176
     1
290
     0
176
     1
 40
1.0
176
     1
 40
1.0
176
     1
1001
ACAD
1000
AcDbSavedByObjectVersion
1070
     0
  0
VISUALSTYLE
  5
10032
102
{ACAD_REACTORS
330
1001D
102
}
330
1001D
100
AcDbVisualStyle
  2
Shaded
 70
    27
177
     3
291
     0
 70
    58
 90
        2
176
     1
 90
        2
176
     1
 90
        1
176
     1
 90
        2
176
     1
 40
0.6
176
     1
 40
30.0
176
     1
 62
     7
420
 16777215
176
     1
 90
        0
176
     1
 90
        4
176
     1
 62
     7
176
     1
 62
   257
176
     1
 90
        1
176
     1
 90
        1
176
     1
 40
1.0
176
     1
 90
        8
176
     1
 62
   257
176
     1
 40
1.0
176
     1
 90
        1
176
     1
 90
        6
176
     1
 90
        2
176
     1
 62
     8
420
  7895160
176
     1
 90
        3
176
     1
 90
        0
176
     1
 90
        0
176
     1
290
     0
176
     1
 90
        5
176
     1
 40
0.0
176
     1
 90
        0
176
     1
290
     0
176
     1
290
     1
176
     1
290
     1
176
     1
290
     0
176
     1
290
     0
176
     1
290
     0
176
     1
290
     0
176
     1
290
     0
176
     1
290
     0
176
     1
 90
       50
176
     1
 40
0.0
176
     1
 40
1.0
176
     1
 90
        0
176
     1
 62
    18
420
        0
176
     1
 90
       50
176
     1
 90
        3
176
     1
 62
     5
420
      255
176
     1
290
     0
176
     1
 90
       50
176
     1
 90
       50
176
     1
 90
       50
176
     1
290
     0
176
     1
 90
       50
176
     1
 62
   256
176
     0
 40
1.0
176
     0
 90
        2
176
     1
  1
strokes_ogs.tif
176
     1
290
     0
176
     1
 40
1.0
176
     1
 40
1.0
176
     1
1001
ACAD
1000
AcDbSavedByObjectVersion
1070
     0
  0
VISUALSTYLE
  5
10031
102
{ACAD_REACTORS
330
1001D
102
}
330
1001D
100
AcDbVisualStyle
  2
Shaded with edges
 70
    26
177
     3
291
     0
 70
    58
 90
        2
176
     1
 90
        2
176
     1
 90
        1
176
     1
 90
        2
176
     1
 40
0.6
176
     1
 40
30.0
176
     1
 62
     7
420
 16777215
176
     1
 90
        1
176
     1
 90
        2
176
     1
 62
     7
176
     1
 62
   257
176
     1
 90
        2
176
     1
 90
        1
176
     1
 40
1.0
176
     1
 90
        8
176
     1
 62
   257
176
     1
 40
1.0
176
     1
 90
        1
176
     1
 90
        6
176
     1
 90
        2
176
     1
 62
     7
176
     1
 90
        3
176
     1
 90
        0
176
     1
 90
        0
176
     1
290
     0
176
     1
 90
        5
176
     1
 40
0.0
176
     1
 90
        0
176
     1
290
     0
176
     1
290
     1
176
     1
290
     1
176
     1
290
     0
176
     1
290
     0
176
     1
290
     0
176
     1
290
     0
176
     1
290
     0
176
     1
290
     0
176
     1
 90
       50
176
     1
 40
0.0
176
     1
 40
1.0
176
     1
 90
        0
176
     1
 62
    18
420
        0
176
     1
 90
       50
176
     1
 90
        3
176
     1
 62
     5
420
      255
176
     1
290
     0
176
     1
 90
       50
176
     1
 90
       50
176
     1
 90
       50
176
     1
290
     0
176
     1
 90
       50
176
     1
 62
   256
176
     0
 40
1.0
176
     0
 90
        2
176
     1
  1
strokes_ogs.tif
176
     1
290
     0
176
     1
 40
1.0
176
     1
 40
1.0
176
     1
1001
ACAD
1000
AcDbSavedByObjectVersion
1070
     0
  0
VISUALSTYLE
  5
1002E
102
{ACAD_REACTORS
330
1001D
102
}
330
1001D
100
AcDbVisualStyle
  2
Shades of Gray
 70
    23
177
     3
291
     0
 70
    58
 90
        2
176
     1
 90
        2
176
     1
 90
        3
176
     1
 90
        0
176
     1
 40
0.6
176
     1
 40
30.0
176
     1
 62
     7
420
 16777215
176
     1
 90
        2
176
     1
 90
        2
176
     1
 62
     7
176
     1
 62
     7
176
     1
 90
        1
176
     1
 90
        1
176
     1
 40
40.0
176
     1
 90
        8
176
     1
 62
     7
176
     1
 40
1.0
176
     1
 90
        1
176
     1
 90
        6
176
     1
 90
        2
176
     1
 62
     7
176
     1
 90
        3
176
     1
 90
        0
176
     1
 90
        0
176
     1
290
     0
176
     1
 90
        1
176
     1
 40
0.0
176
     1
 90
        0
176
     1
290
     0
176
     1
290
     1
176
     1
290
     1
176
     1
290
     0
176
     1
290
     0
176
     1
290
     0
176
     1
290
     0
176
     1
290
     0
176
     1
290
     0
176
     1
 90
       50
176
     1
 40
0.0
176
     1
 40
1.0
176
     1
 90
        0
176
     1
 62
    18
420
        0
176
     1
 90
       50
176
     1
 90
        3
176
     1
 62
     5
420
      255
176
     1
290
     0
176
     1
 90
       50
176
     1
 90
       50
176
     1
 90
       50
176
     1
290
     0
176
     1
 90
       50
176
     1
 62
   256
176
     0
 40
1.0
176
     0
 90
        2
176
     1
  1
strokes_ogs.tif
176
     1
290
     0
176
     1
 40
1.0
176
     1
 40
1.0
176
     1
1001
ACAD
1000
AcDbSavedByObjectVersion
1070
     0
  0
VISUALSTYLE
  5
1002F
102
{ACAD_REACTORS
330
1001D
102
}
330
1001D
100
AcDbVisualStyle
  2
Sketchy
 70
    24
177
     3
291
     0
 70
    58
 90
        1
176
     1
 90
        2
176
     1
 90
        2
176
     1
 90
        0
176
     1
 40
0.6
176
     1
 40
30.0
176
     1
 62
     7
420
 16777215
176
     1
 90
        2
176
     1
 90
        2
176
     1
 62
     7
176
     1
 62
     7
176
     1
 90
        1
176
     1
 90
        1
176
     1
 40
40.0
176
     1
 90
       11
176
     1
 62
     7
176
     1
 40
1.0
176
     1
 90
        1
176
     1
 90
        6
176
     1
 90
        2
176
     1
 62
     7
176
     1
 90
        6
176
     1
 90
        0
176
     1
 90
        0
176
     1
290
     0
176
     1
 90
        1
176
     1
 40
0.0
176
     1
 90
        0
176
     1
290
     0
176
     1
290
     1
176
     1
290
     1
176
     1
290
     0
176
     1
290
     0
176
     1
290
     0
176
     1
290
     0
176
     1
290
     0
176
     1
290
     0
176
     1
 90
       50
176
     1
 40
0.0
176
     1
 40
1.0
176
     1
 90
        0
176
     1
 62
    18
420
        0
176
     1
 90
       50
176
     1
 90
        3
176
     1
 62
     5
420
      255
176
     1
290
     0
176
     1
 90
       50
176
     1
 90
       50
176
     1
 90
       50
176
     1
290
     0
176
     1
 90
       50
176
     1
 62
   256
176
     0
 40
1.0
176
     0
 90
        2
176
     1
  1
strokes_ogs.tif
176
     1
290
     0
176
     1
 40
1.0
176
     1
 40
1.0
176
     1
1001
ACAD
1000
AcDbSavedByObjectVersion
1070
     0
  0
VISUALSTYLE
  5
1002A
102
{ACAD_REACTORS
330
1001D
102
}
330
1001D
100
AcDbVisualStyle
  2
Thicken
 70
    13
177
     3
291
     1
 70
    58
 90
        2
176
     1
 90
        2
176
     1
 90
        0
176
     1
 90
        0
176
     1
 40
0.6
176
     1
 40
30.0
176
     1
 62
     7
420
 16777215
176
     1
 90
        1
176
     1
 90
        4
176
     1
 62
     7
176
     1
 62
   257
176
     1
 90
        1
176
     1
 90
        1
176
     1
 40
1.0
176
     1
 90
       12
176
     1
 62
     7
176
     1
 40
1.0
176
     1
 90
        1
176
     1
 90
        6
176
     1
 90
        2
176
     1
 62
     7
176
     1
 90
        5
176
     1
 90
        0
176
     1
 90
        0
176
     1
290
     0
176
     1
 90
        1
176
     1
 40
0.0
176
     1
 90
        0
176
     1
290
     0
176
     1
290
     1
176
     1
290
     1
176
     1
290
     0
176
     1
290
     0
176
     1
290
     0
176
     1
290
     0
176
     1
290
     0
176
     1
290
     0
176
     1
 90
       50
176
     1
 40
0.0
176
     1
 40
1.0
176
     1
 90
        0
176
     1
 62
    18
420
        0
176
     1
 90
       50
176
     1
 90
        3
176
     1
 62
     5
420
      255
176
     1
290
     0
176
     1
 90
       50
176
     1
 90
       50
176
     1
 90
       50
176
     1
290
     0
176
     1
 90
       50
176
     1
 62
   256
176
     0
 40
1.0
176
     0
 90
        2
176
     1
  1
strokes_ogs.tif
176
     1
290
     0
176
     1
 40
1.0
176
     1
 40
1.0
176
     1
1001
ACAD
1000
AcDbSavedByObjectVersion
1070
     0
  0
VISUALSTYLE
  5
10024
102
{ACAD_REACTORS
330
1001D
102
}
330
1001D
100
AcDbVisualStyle
  2
Wireframe
 70
     5
177
     3
291
     0
 70
    58
 90
        0
176
     1
 90
        2
176
     1
 90
        0
176
     1
 90
        0
176
     1
 40
0.6
176
     1
 40
30.0
176
     1
 62
     7
420
 16777215
176
     1
 90
        1
176
     1
 90
        4
176
     1
 62
     7
176
     1
 62
   257
176
     1
 90
        1
176
     1
 90
        1
176
     1
 40
1.0
176
     1
 90
        0
176
     1
 62
   257
176
     1
 40
1.0
176
     1
 90
        1
176
     1
 90
        6
176
     1
 90
        2
176
     1
 62
     7
176
     1
 90
        3
176
     1
 90
        0
176
     1
 90
        0
176
     1
290
     0
176
     1
 90
        1
176
     1
 40
0.0
176
     1
 90
        0
176
     1
290
     0
176
     1
290
     1
176
     1
290
     1
176
     1
290
     0
176
     1
290
     0
176
     1
290
     0
176
     1
290
     0
176
     1
290
     0
176
     1
290
     0
176
     1
 90
       50
176
     1
 40
0.0
176
     1
 40
1.0
176
     1
 90
        0
176
     1
 62
    18
420
        0
176
     1
 90
       50
176
     1
 90
        3
176
     1
 62
     5
420
      255
176
     1
290
     0
176
     1
 90
       50
176
     1
 90
       50
176
     1
 90
       50
176
     1
290
     0
176
     1
 90
       50
176
     1
 62
   256
176
     0
 40
1.0
176
     0
 90
        2
176
     1
  1
strokes_ogs.tif
176
     1
290
     0
176
     1
 40
1.0
176
     1
 40
1.0
176
     1
1001
ACAD
1000
AcDbSavedByObjectVersion
1070
     0
  0
VISUALSTYLE
  5
10030
102
{ACAD_REACTORS
330
1001D
102
}
330
1001D
100
AcDbVisualStyle
  2
X-Ray
 70
    25
177
     3
291
     0
 70
    58
 90
        2
176
     1
 90
        2
176
     1
 90
        1
176
     1
 90
        1
176
     1
 40
0.5
176
     1
 40
30.0
176
     1
 62
     7
420
 16777215
176
     1
 90
        1
176
     1
 90
        0
176
     1
 62
     7
176
     1
 62
   257
176
     1
 90
        1
176
     1
 90
        1
176
     1
 40
1.0
176
     1
 90
        8
176
     1
 62
     7
176
     1
 40
1.0
176
     1
 90
        1
176
     1
 90
        6
176
     1
 90
        2
176
     1
 62
     7
176
     1
 90
        3
176
     1
 90
        0
176
     1
 90
        0
176
     1
290
     0
176
     1
 90
       13
176
     1
 40
0.0
176
     1
 90
        0
176
     1
290
     0
176
     1
290
     1
176
     1
290
     1
176
     1
290
     0
176
     1
290
     0
176
     1
290
     0
176
     1
290
     0
176
     1
290
     0
176
     1
290
     0
176
     1
 90
       50
176
     1
 40
0.0
176
     1
 40
1.0
176
     1
 90
        0
176
     1
 62
    18
420
        0
176
     1
 90
       50
176
     1
 90
        3
176
     1
 62
     5
420
      255
176
     1
290
     0
176
     1
 90
       50
176
     1
 90
       50
176
     1
 90
       50
176
     1
290
     0
176
     1
 90
       50
176
     1
 62
   256
176
     0
 40
1.0
176
     0
 90
        2
176
     1
  1
strokes_ogs.tif
176
     1
290
     0
176
     1
 40
1.0
176
     1
 40
1.0
176
     1
1001
ACAD
1000
AcDbSavedByObjectVersion
1070
     0
  0
DICTIONARYVAR
  5
1006E
102
{ACAD_REACTORS
330
10068
102
}
330
10068
100
DictionaryVariables
280
     0
  1
1:1
  0
DICTIONARYVAR
  5
1006A
102
{ACAD_REACTORS
330
10068
102
}
330
10068
100
DictionaryVariables
280
     0
  1
STANDARD
  0
DICTIONARYVAR
  5
10069
102
{ACAD_REACTORS
330
10068
102
}
330
10068
100
DictionaryVariables
280
     0
  1
STANDARD
  0
DICTIONARYVAR
  5
1006B
102
{ACAD_REACTORS
330
10068
102
}
330
10068
100
DictionaryVariables
280
     0
  1
Imperial24
  0
DICTIONARYVAR
  5
1006C
102
{ACAD_REACTORS
330
10068
102
}
330
10068
100
DictionaryVariables
280
     0
  1
Imperial24
  0
DICTIONARYVAR
  5
10070
102
{ACAD_REACTORS
330
10068
102
}
330
10068
100
DictionaryVariables
280
     0
  1
1
  0
DICTIONARYVAR
  5
10071
102
{ACAD_REACTORS
330
10068
102
}
330
10068
100
DictionaryVariables
280
     0
  1
15
  0
DICTIONARYVAR
  5
1006F
102
{ACAD_REACTORS
330
10068
102
}
330
10068
100
DictionaryVariables
280
     0
  1
0
  0
DICTIONARYVAR
  5
1006D
102
{ACAD_REACTORS
330
10068
102
}
330
10068
100
DictionaryVariables
280
     0
  1
0
  0
DICTIONARY
  5
10077
330
10052
100
AcDbDictionary
280
     1
281
     1
  3
ACAD_XREC_ROUNDTRIP
360
10078
  0
DICTIONARY
  5
1000E
330
1000D
100
AcDbDictionary
280
     1
281
     1
  3
BUMPTILE
360
10010
  3
DIFFUSETILE
360
1000F
  3
OPACITYTILE
360
10013
  3
REFLECTIONTILE
360
10012
  3
REFRACTIONTILE
360
10014
  3
SPECULARTILE
360
10011
  0
DICTIONARY
  5
10006
330
10005
100
AcDbDictionary
280
     1
281
     1
  3
BUMPTILE
360
10008
  3
DIFFUSETILE
360
10007
  3
OPACITYTILE
360
1000B
  3
REFLECTIONTILE
360
1000A
  3
REFRACTIONTILE
360
1000C
  3
SPECULARTILE
360
10009
  0
DICTIONARY
  5
10016
330
10015
100
AcDbDictionary
280
     1
281
     1
  3
BUMPTILE
360
10018
  3
DIFFUSETILE
360
10017
  3
OPACITYTILE
360
1001B
  3
REFLECTIONTILE
360
1001A
  3
REFRACTIONTILE
360
1001C
  3
SPECULARTILE
360
10019
  0
DICTIONARY
  5
10075
330
10050
100
AcDbDictionary
280
     1
281
     1
  3
ACAD_XREC_ROUNDTRIP
360
10076
  0
DICTIONARY
  5
10072
330
10039
100
AcDbDictionary
280
     1
281
     1
  3
ACAD_ROUNDTRIP_2008_TABLESTYLE_CELLSTYLEMAP
360
10073
  0
XRECORD
  5
10078
102
{ACAD_REACTORS
330
10077
102
}
330
10077
100
AcDbXrecord
280
     1
102
DISPLAYNAME
  1
Imperial24
102
FLAGS
 90
        0
  0
XRECORD
  5
10010
102
{ACAD_REACTORS
330
1000E
102
}
330
1000E
100
AcDbXrecord
280
     1
270
     1
271
     1
  0
XRECORD
  5
1000F
102
{ACAD_REACTORS
330
1000E
102
}
330
1000E
100
AcDbXrecord
280
     1
270
     1
271
     1
  0
XRECORD
  5
10013
102
{ACAD_REACTORS
330
1000E
102
}
330
1000E
100
AcDbXrecord
280
     1
270
     1
271
     1
  0
XRECORD
  5
10012
102
{ACAD_REACTORS
330
1000E
102
}
330
1000E
100
AcDbXrecord
280
     1
270
     1
271
     1
  0
XRECORD
  5
10014
102
{ACAD_REACTORS
330
1000E
102
}
330
1000E
100
AcDbXrecord
280
     1
270
     1
271
     1
  0
XRECORD
  5
10011
102
{ACAD_REACTORS
330
1000E
102
}
330
1000E
100
AcDbXrecord
280
     1
270
     1
271
     1
  0
XRECORD
  5
10008
102
{ACAD_REACTORS
330
10006
102
}
330
10006
100
AcDbXrecord
280
     1
270
     1
271
     1
  0
XRECORD
  5
10007
102
{ACAD_REACTORS
330
10006
102
}
330
10006
100
AcDbXrecord
280
     1
270
     1
271
     1
  0
XRECORD
  5
1000B
102
{ACAD_REACTORS
330
10006
102
}
330
10006
100
AcDbXrecord
280
     1
270
     1
271
     1
  0
XRECORD
  5
1000A
102
{ACAD_REACTORS
330
10006
102
}
330
10006
100
AcDbXrecord
280
     1
270
     1
271
     1
  0
XRECORD
  5
1000C
102
{ACAD_REACTORS
330
10006
102
}
330
10006
100
AcDbXrecord
280
     1
270
     1
271
     1
  0
XRECORD
  5
10009
102
{ACAD_REACTORS
330
10006
102
}
330
10006
100
AcDbXrecord
280
     1
270
     1
271
     1
  0
XRECORD
  5
10018
102
{ACAD_REACTORS
330
10016
102
}
330
10016
100
AcDbXrecord
280
     1
270
     1
271
     1
  0
XRECORD
  5
10017
102
{ACAD_REACTORS
330
10016
102
}
330
10016
100
AcDbXrecord
280
     1
270
     1
271
     1
  0
XRECORD
  5
1001B
102
{ACAD_REACTORS
330
10016
102
}
330
10016
100
AcDbXrecord
280
     1
270
     1
271
     1
  0
XRECORD
  5
1001A
102
{ACAD_REACTORS
330
10016
102
}
330
10016
100
AcDbXrecord
280
     1
270
     1
271
     1
  0
XRECORD
  5
1001C
102
{ACAD_REACTORS
330
10016
102
}
330
10016
100
AcDbXrecord
280
     1
270
     1
271
     1
  0
XRECORD
  5
10019
102
{ACAD_REACTORS
330
10016
102
}
330
10016
100
AcDbXrecord
280
     1
270
     1
271
     1
  0
XRECORD
  5
10076
102
{ACAD_REACTORS
330
10075
102
}
330
10075
100
AcDbXrecord
280
     1
102
DISPLAYNAME
  1
Imperial24
102
FLAGS
 90
        0
  0
CELLSTYLEMAP
  5
10073
102
{ACAD_REACTORS
330
10072
102
}
330
10072
100
AcDbCellStyleMap
 90
        3
300
CELLSTYLE
  1
TABLEFORMAT_BEGIN
 90
        5
170
     1
 91
        0
 92
    32768
 62
   257
 93
        1
300
CONTENTFORMAT
  1
CONTENTFORMAT_BEGIN
 90
        0
 91
        0
 92
      512
 93
        0
300

 40
0.0
140
1.0
 94
        5
 62
     0
340
11
144
0.25
309
CONTENTFORMAT_END
171
     0
 94
        0
309
TABLEFORMAT_END
  1
CELLSTYLE_BEGIN
 90
        1
 91
        1
300
_TITLE
309
CELLSTYLE_END
300
CELLSTYLE
  1
TABLEFORMAT_BEGIN
 90
        5
170
     1
 91
        0
 92
        0
 62
   257
 93
        1
300
CONTENTFORMAT
  1
CONTENTFORMAT_BEGIN
 90
        0
 91
        0
 92
      512
 93
        0
300

 40
0.0
140
1.0
 94
        5
 62
     0
340
11
144
0.18
309
CONTENTFORMAT_END
171
     0
 94
        0
309
TABLEFORMAT_END
  1
CELLSTYLE_BEGIN
 90
        2
 91
        1
300
_HEADER
309
CELLSTYLE_END
300
CELLSTYLE
  1
TABLEFORMAT_BEGIN
 90
        5
170
     1
 91
        0
 92
        0
 62
   257
 93
        1
300
CONTENTFORMAT
  1
CONTENTFORMAT_BEGIN
 90
        0
 91
        0
 92
      512
 93
        0
300

 40
0.0
140
1.0
 94
        2
 62
     0
340
11
144
0.18
309
CONTENTFORMAT_END
171
     0
 94
        0
309
TABLEFORMAT_END
  1
CELLSTYLE_BEGIN
 90
        3
 91
        2
300
_DATA
309
CELLSTYLE_END
  0
ENDSEC
  0
EOF
