  0
SECTION
  2
HEADER
  9
$ACADVER
  1
AC1027
  9
$ACADMAINTVER
 70
   125
  9
$DWGCODEPAGE
  3
ANSI_1252
  9
$LASTSAVEDBY
  1
zz000
  9
$REQUIREDVERSIONS
160
                 0
  9
$INSBASE
 10
0.0
 20
0.0
 30
0.0
  9
$EXTMIN
 10
-307.6436018349861
 20
-154.3271626806984
 30
-0.0000000000001887
  9
$EXTMAX
 10
6.119134483527564
 20
142.5773632452211
 30
0.0000000000001676
  9
$LIMMIN
 10
0.0
 20
0.0
  9
$LIMMAX
 10
12.0
 20
9.0
  9
$ORTHOMODE
 70
     0
  9
$REGENMODE
 70
     1
  9
$FILLMODE
 70
     1
  9
$QTEXTMODE
 70
     0
  9
$MIRRTEXT
 70
     0
  9
$LTSCALE
 40
1.0
  9
$ATTMODE
 70
     1
  9
$TEXTSIZE
 40
0.2
  9
$TRACEWID
 40
0.05
  9
$TEXTSTYLE
  7
STANDARD
  9
$CLAYER
  8
0
  9
$CELTYPE
  6
Continuous
  9
$CECOLOR
 62
   256
  9
$CELTSCALE
 40
1.0
  9
$DISPSILH
 70
     0
  9
$DIMSCALE
 40
1.0
  9
$DIMASZ
 40
0.18
  9
$DIMEXO
 40
0.0625
  9
$DIMDLI
 40
0.38
  9
$DIMRND
 40
0.0
  9
$DIMDLE
 40
0.0
  9
$DIMEXE
 40
0.18
  9
$DIMTP
 40
0.0
  9
$DIMTM
 40
0.0
  9
$DIMTXT
 40
0.18
  9
$DIMCEN
 40
0.09
  9
$DIMTSZ
 40
0.0
  9
$DIMTOL
 70
     0
  9
$DIMLIM
 70
     0
  9
$DIMTIH
 70
     1
  9
$DIMTOH
 70
     1
  9
$DIMSE1
 70
     0
  9
$DIMSE2
 70
     0
  9
$DIMTAD
 70
     0
  9
$DIMZIN
 70
     0
  9
$DIMBLK
  1

  9
$DIMASO
 70
     1
  9
$DIMSHO
 70
     1
  9
$DIMPOST
  1

  9
$DIMAPOST
  1

  9
$DIMALT
 70
     0
  9
$DIMALTD
 70
     2
  9
$DIMALTF
 40
25.4
  9
$DIMLFAC
 40
1.0
  9
$DIMTOFL
 70
     0
  9
$DIMTVP
 40
0.0
  9
$DIMTIX
 70
     0
  9
$DIMSOXD
 70
     0
  9
$DIMSAH
 70
     0
  9
$DIMBLK1
  1

  9
$DIMBLK2
  1

  9
$DIMSTYLE
  2
Standard
  9
$DIMCLRD
 70
     0
  9
$DIMCLRE
 70
     0
  9
$DIMCLRT
 70
     0
  9
$DIMTFAC
 40
1.0
  9
$DIMGAP
 40
0.09
  9
$DIMJUST
 70
     0
  9
$DIMSD1
 70
     0
  9
$DIMSD2
 70
     0
  9
$DIMTOLJ
 70
     1
  9
$DIMTZIN
 70
     0
  9
$DIMALTZ
 70
     0
  9
$DIMALTTZ
 70
     0
  9
$DIMUPT
 70
     0
  9
$DIMDEC
 70
     4
  9
$DIMTDEC
 70
     4
  9
$DIMALTU
 70
     2
  9
$DIMALTTD
 70
     2
  9
$DIMTXSTY
  7
STANDARD
  9
$DIMAUNIT
 70
     0
  9
$DIMADEC
 70
     0
  9
$DIMALTRND
 40
0.0
  9
$DIMAZIN
 70
     0
  9
$DIMDSEP
 70
    46
  9
$DIMATFIT
 70
     3
  9
$DIMFRAC
 70
     0
  9
$DIMLDRBLK
  1

  9
$DIMLUNIT
 70
     2
  9
$DIMLWD
 70
    -2
  9
$DIMLWE
 70
    -2
  9
$DIMTMOVE
 70
     0
  9
$DIMFXL
 40
1.0
  9
$DIMFXLON
 70
     0
  9
$DIMJOGANG
 40
0.7853981633974483
  9
$DIMTFILL
 70
     0
  9
$DIMTFILLCLR
 70
     0
  9
$DIMARCSYM
 70
     0
  9
$DIMLTYPE
  6

  9
$DIMLTEX1
  6

  9
$DIMLTEX2
  6

  9
$DIMTXTDIRECTION
 70
     0
  9
$LUNITS
 70
     2
  9
$LUPREC
 70
     4
  9
$SKETCHINC
 40
0.1
  9
$FILLETRAD
 40
0.0
  9
$AUNITS
 70
     0
  9
$AUPREC
 70
     0
  9
$MENU
  1
.
  9
$ELEVATION
 40
0.0
  9
$PELEVATION
 40
0.0
  9
$THICKNESS
 40
0.0
  9
$LIMCHECK
 70
     0
  9
$CHAMFERA
 40
0.0
  9
$CHAMFERB
 40
0.0
  9
$CHAMFERC
 40
0.0
  9
$CHAMFERD
 40
0.0
  9
$SKPOLY
 70
     0
  9
$TDCREATE
 40
2459828.795625000
  9
$TDUCREATE
 40
2459829.087291667
  9
$TDUPDATE
 40
2459828.796018519
  9
$TDUUPDATE
 40
2459829.087685185
  9
$TDINDWG
 40
0.0003935185
  9
$TDUSRTIMER
 40
0.0003935185
  9
$USRTIMER
 70
     1
  9
$ANGBASE
 50
0.0
  9
$ANGDIR
 70
     0
  9
$PDMODE
 70
     0
  9
$PDSIZE
 40
0.0
  9
$PLINEWID
 40
0.0
  9
$SPLFRAME
 70
     0
  9
$SPLINETYPE
 70
     6
  9
$SPLINESEGS
 70
     8
  9
$HANDSEED
  5
10072
  9
$SURFTAB1
 70
     6
  9
$SURFTAB2
 70
     6
  9
$SURFTYPE
 70
     6
  9
$SURFU
 70
     6
  9
$SURFV
 70
     6
  9
$UCSBASE
  2

  9
$UCSNAME
  2

  9
$UCSORG
 10
0.0
 20
0.0
 30
0.0
  9
$UCSXDIR
 10
1.0
 20
0.0
 30
0.0
  9
$UCSYDIR
 10
0.0
 20
1.0
 30
0.0
  9
$UCSORTHOREF
  2

  9
$UCSORTHOVIEW
 70
     0
  9
$UCSORGTOP
 10
0.0
 20
0.0
 30
0.0
  9
$UCSORGBOTTOM
 10
0.0
 20
0.0
 30
0.0
  9
$UCSORGLEFT
 10
0.0
 20
0.0
 30
0.0
  9
$UCSORGRIGHT
 10
0.0
 20
0.0
 30
0.0
  9
$UCSORGFRONT
 10
0.0
 20
0.0
 30
0.0
  9
$UCSORGBACK
 10
0.0
 20
0.0
 30
0.0
  9
$PUCSBASE
  2

  9
$PUCSNAME
  2

  9
$PUCSORG
 10
0.0
 20
0.0
 30
0.0
  9
$PUCSXDIR
 10
1.0
 20
0.0
 30
0.0
  9
$PUCSYDIR
 10
0.0
 20
1.0
 30
0.0
  9
$PUCSORTHOREF
  2

  9
$PUCSORTHOVIEW
 70
     0
  9
$PUCSORGTOP
 10
0.0
 20
0.0
 30
0.0
  9
$PUCSORGBOTTOM
 10
0.0
 20
0.0
 30
0.0
  9
$PUCSORGLEFT
 10
0.0
 20
0.0
 30
0.0
  9
$PUCSORGRIGHT
 10
0.0
 20
0.0
 30
0.0
  9
$PUCSORGFRONT
 10
0.0
 20
0.0
 30
0.0
  9
$PUCSORGBACK
 10
0.0
 20
0.0
 30
0.0
  9
$USERI1
 70
     0
  9
$USERI2
 70
     0
  9
$USERI3
 70
     0
  9
$USERI4
 70
     0
  9
$USERI5
 70
     0
  9
$USERR1
 40
0.0
  9
$USERR2
 40
0.0
  9
$USERR3
 40
0.0
  9
$USERR4
 40
0.0
  9
$USERR5
 40
0.0
  9
$WORLDVIEW
 70
     1
  9
$SHADEDGE
 70
     3
  9
$SHADEDIF
 70
    70
  9
$TILEMODE
 70
     1
  9
$MAXACTVP
 70
    64
  9
$PINSBASE
 10
0.0
 20
0.0
 30
0.0
  9
$PLIMCHECK
 70
     0
  9
$PEXTMIN
 10
1.000000000000000E+20
 20
1.000000000000000E+20
 30
1.000000000000000E+20
  9
$PEXTMAX
 10
-1.000000000000000E+20
 20
-1.000000000000000E+20
 30
-1.000000000000000E+20
  9
$PLIMMIN
 10
0.0
 20
0.0
  9
$PLIMMAX
 10
12.0
 20
9.0
  9
$UNITMODE
 70
     0
  9
$VISRETAIN
 70
     1
  9
$PLINEGEN
 70
     0
  9
$PSLTSCALE
 70
     1
  9
$TREEDEPTH
 70
  3020
  9
$CMLSTYLE
  2
Standard
  9
$CMLJUST
 70
     0
  9
$CMLSCALE
 40
1.0
  9
$PROXYGRAPHICS
 70
     1
  9
$MEASUREMENT
 70
     0
  9
$CELWEIGHT
370
    -1
  9
$ENDCAPS
280
     0
  9
$JOINSTYLE
280
     0
  9
$LWDISPLAY
290
     0
  9
$INSUNITS
 70
     4
  9
$HYPERLINKBASE
  1

  9
$STYLESHEET
  1

  9
$XEDIT
290
     1
  9
$CEPSNTYPE
380
     0
  9
$PSTYLEMODE
290
     1
  9
$FINGERPRINTGUID
  2
{69128234-FC82-6242-8DDC-8F2D07948DE8}
  9
$VERSIONGUID
  2
{B3274031-769A-E340-A10C-88EE01625117}
  9
$EXTNAMES
290
     1
  9
$PSVPSCALE
 40
0.0
  9
$OLESTARTUP
290
     0
  9
$SORTENTS
280
   127
  9
$INDEXCTL
280
     0
  9
$HIDETEXT
280
     0
  9
$XCLIPFRAME
280
     2
  9
$HALOGAP
280
     0
  9
$OBSCOLOR
 70
   257
  9
$OBSLTYPE
280
     0
  9
$INTERSECTIONDISPLAY
280
     0
  9
$INTERSECTIONCOLOR
 70
   257
  9
$DIMASSOC
280
     1
  9
$PROJECTNAME
  1

  9
$CAMERADISPLAY
290
     0
  9
$LENSLENGTH
 40
50.0
  9
$CAMERAHEIGHT
 40
0.0
  9
$STEPSPERSEC
 40
2.0
  9
$STEPSIZE
 40
6.0
  9
$3DDWFPREC
 40
2.0
  9
$PSOLWIDTH
 40
0.25
  9
$PSOLHEIGHT
 40
4.0
  9
$LOFTANG1
 40
1.570796326794896
  9
$LOFTANG2
 40
1.570796326794896
  9
$LOFTMAG1
 40
0.0
  9
$LOFTMAG2
 40
0.0
  9
$LOFTPARAM
 70
     7
  9
$LOFTNORMALS
280
     1
  9
$LATITUDE
 40
37.795
  9
$LONGITUDE
 40
-122.394
  9
$NORTHDIRECTION
 40
0.0
  9
$TIMEZONE
 70
 -8000
  9
$LIGHTGLYPHDISPLAY
280
     1
  9
$TILEMODELIGHTSYNCH
280
     1
  9
$CMATERIAL
347
10005
  9
$SOLIDHIST
280
     0
  9
$SHOWHIST
280
     1
  9
$DWFFRAME
280
     2
  9
$DGNFRAME
280
     0
  9
$REALWORLDSCALE
290
     1
  9
$INTERFERECOLOR
 62
     1
  9
$INTERFEREOBJVS
345
10027
  9
$INTERFEREVPVS
346
10024
  9
$CSHADOW
280
     0
  9
$SHADOWPLANELOCATION
 40
0.0
  0
ENDSEC
  0
SECTION
  2
CLASSES
  0
CLASS
  1
ACDBDICTIONARYWDFLT
  2
AcDbDictionaryWithDefault
  3
ObjectDBX Classes
 90
        0
 91
        1
280
     0
281
     0
  0
CLASS
  1
MATERIAL
  2
AcDbMaterial
  3
ObjectDBX Classes
 90
     1153
 91
        3
280
     0
281
     0
  0
CLASS
  1
VISUALSTYLE
  2
AcDbVisualStyle
  3
ObjectDBX Classes
 90
     4095
 91
       24
280
     0
281
     0
  0
CLASS
  1
TABLESTYLE
  2
AcDbTableStyle
  3
ObjectDBX Classes
 90
     4095
 91
        1
280
     0
281
     0
  0
CLASS
  1
SCALE
  2
AcDbScale
  3
ObjectDBX Classes
 90
     1153
 91
       17
280
     0
281
     0
  0
CLASS
  1
MLEADERSTYLE
  2
AcDbMLeaderStyle
  3
ACDB_MLEADERSTYLE_CLASS
 90
     4095
 91
        1
280
     0
281
     0
  0
CLASS
  1
ACDBSECTIONVIEWSTYLE
  2
AcDbSectionViewStyle
  3
ObjectDBX Classes
 90
     1025
 91
        1
280
     0
281
     0
  0
CLASS
  1
ACDBDETAILVIEWSTYLE
  2
AcDbDetailViewStyle
  3
ObjectDBX Classes
 90
     1025
 91
        1
280
     0
281
     0
  0
CLASS
  1
SOLID_BACKGROUND
  2
AcDbSolidBackground
  3
SCENEOE
 90
     4095
 91
        1
280
     0
281
     0
  0
CLASS
  1
NPOCOLLECTION
  2
AcDbImpNonPersistentObjectsCollection
  3
ObjectDBX Classes
 90
     1153
 91
        1
280
     0
281
     0
  0
CLASS
  1
GROUND_PLANE_BACKGROUND
  2
AcDbGroundPlaneBackground
  3
SCENEOE
 90
     4095
 91
        1
280
     0
281
     0
  0
CLASS
  1
DICTIONARYVAR
  2
AcDbDictionaryVar
  3
ObjectDBX Classes
 90
        0
 91
        9
280
     0
281
     0
  0
CLASS
  1
CELLSTYLEMAP
  2
AcDbCellStyleMap
  3
ObjectDBX Classes
 90
     1152
 91
        1
280
     0
281
     0
  0
ENDSEC
  0
SECTION
  2
TABLES
  0
TABLE
  2
VPORT
  5
8
330
0
100
AcDbSymbolTable
 70
     1
1001
ACAD
1000
DbSaveVer
1071
      247
  0
VPORT
  5
10059
330
8
100
AcDbSymbolTableRecord
100
AcDbViewportTableRecord
  2
*Active
 70
     0
 10
0.0
 20
0.0
 11
1.0
 21
1.0
 12
9.315873888079181
 22
-175.3576359631088
 13
0.0
 23
0.0
 14
1.0
 24
1.0
 15
0.0
 25
0.0
 16
-0.000000000000199
 26
0.0
 36
923.9462926980017
 17
-150.7622406482696
 27
79.95333290100098
 37
-0.0000000000000105
 40
337.8374452119381
 41
2.025141930251419
 42
50.0
 43
0.0
 44
0.0
 50
0.0
 51
0.0
 71
     0
 72
  1000
 73
     1
 74
     3
 75
     0
 76
     0
 77
     0
 78
     0
281
     0
 65
     1
110
0.0
120
0.0
130
0.0
111
1.0
121
0.0
131
0.0
112
0.0
122
1.0
132
0.0
 79
     0
146
0.0
348
10023
 60
     3
 61
     5
292
     1
282
     1
141
0.0
142
0.0
 63
   250
421
  3355443
1001
ACAD_NAV_VCDISPLAY
1070
     3
  0
ENDTAB
  0
TABLE
  2
LTYPE
  5
5
330
0
100
AcDbSymbolTable
 70
     1
  0
LTYPE
  5
14
330
5
100
AcDbSymbolTableRecord
100
AcDbLinetypeTableRecord
  2
BYBLOCK
 70
     0
  3

 72
    65
 73
     0
 40
0.0
  0
LTYPE
  5
15
330
5
100
AcDbSymbolTableRecord
100
AcDbLinetypeTableRecord
  2
BYLAYER
 70
     0
  3

 72
    65
 73
     0
 40
0.0
  0
LTYPE
  5
10001
330
5
100
AcDbSymbolTableRecord
100
AcDbLinetypeTableRecord
  2
Continuous
 70
     0
  3
Solid line
 72
    65
 73
     0
 40
0.0
  0
ENDTAB
  0
TABLE
  2
LAYER
  5
2
330
0
100
AcDbSymbolTable
 70
     1
  0
LAYER
  5
50
102
{ACAD_XDICTIONARY
360
1005F
102
}
330
2
100
AcDbSymbolTableRecord
100
AcDbLayerTableRecord
  2
0
 70
     0
 62
     7
  6
Continuous
370
    -3
390
10003
347
10015
348
0
  0
ENDTAB
  0
TABLE
  2
STYLE
  5
3
330
0
100
AcDbSymbolTable
 70
     1
  0
STYLE
  5
11
330
3
100
AcDbSymbolTableRecord
100
AcDbTextStyleTableRecord
  2
STANDARD
 70
     0
 40
0.0
 41
1.0
 50
0.0
 71
     0
 42
0.2
  3

  4

  0
ENDTAB
  0
TABLE
  2
VIEW
  5
6
330
0
100
AcDbSymbolTable
 70
     0
  0
ENDTAB
  0
TABLE
  2
UCS
  5
7
330
0
100
AcDbSymbolTable
 70
     0
  0
ENDTAB
  0
TABLE
  2
APPID
  5
9
330
0
100
AcDbSymbolTable
 70
     2
  0
APPID
  5
12
330
9
100
AcDbSymbolTableRecord
100
AcDbRegAppTableRecord
  2
ACAD
 70
     0
  0
APPID
  5
10058
330
9
100
AcDbSymbolTableRecord
100
AcDbRegAppTableRecord
  2
ACAD_NAV_VCDISPLAY
 70
     0
  0
ENDTAB
  0
TABLE
  2
DIMSTYLE
  5
A
330
0
100
AcDbSymbolTable
 70
     1
100
AcDbDimStyleTable
 71
     0
  0
DIMSTYLE
105
10053
330
A
100
AcDbSymbolTableRecord
100
AcDbDimStyleTableRecord
  2
Standard
 70
     0
340
11
  0
ENDTAB
  0
TABLE
  2
BLOCK_RECORD
  5
1
330
0
100
AcDbSymbolTable
 70
     0
  0
BLOCK_RECORD
  5
1F
330
1
100
AcDbSymbolTableRecord
100
AcDbBlockTableRecord
  2
*MODEL_SPACE
340
10055
 70
     0
280
     1
281
     0
  0
BLOCK_RECORD
  5
1B
330
1
100
AcDbSymbolTableRecord
100
AcDbBlockTableRecord
  2
*PAPER_SPACE
340
10056
 70
     0
280
     1
281
     0
  0
ENDTAB
  0
ENDSEC
  0
SECTION
  2
BLOCKS
  0
BLOCK
  5
20
330
1F
100
AcDbEntity
  8
0
100
AcDbBlockBegin
  2
*MODEL_SPACE
 70
     0
 10
0.0
 20
0.0
 30
0.0
  3
*MODEL_SPACE
  1

  0
ENDBLK
  5
21
330
1F
100
AcDbEntity
  8
0
100
AcDbBlockEnd
  0
BLOCK
  5
1C
330
1B
100
AcDbEntity
 67
     1
  8
0
100
AcDbBlockBegin
  2
*PAPER_SPACE
 70
     0
 10
0.0
 20
0.0
 30
0.0
  3
*PAPER_SPACE
  1

  0
ENDBLK
  5
1D
330
1B
100
AcDbEntity
 67
     1
  8
0
100
AcDbBlockEnd
  0
ENDSEC
  0
SECTION
  2
ENTITIES
  0
LWPOLYLINE
  5
100
330
1F
100
AcDbEntity
  8
0
100
AcDbPolyline
 90
       72
 70
     1
 43
0.0
 10
-119.380602662001
 20
-34.57088633537419
 10
-67.38060266200091
 20
-34.5708863353742
 42
0.4142135623730958
 10
-65.3806026620009
 20
-32.57088633537418
 10
-65.38060266200094
 20
-31.07910349232219
 42
-0.4142135623730918
 10
-63.38060266200093
 20
-29.07910349232219
 10
-7.380602662000912
 20
-29.07910349232214
 42
-0.4142135623730925
 10
-5.380602662000929
 20
-31.07910349232219
 10
-5.380602662000901
 20
-32.57088633537418
 42
0.4142135623730936
 10
-3.380602662000909
 20
-34.5708863353742
 10
-0.3808646894583958
 20
-34.57088633537419
 42
-0.4142135623730965
 10
1.619135310541613
 20
-36.57088633537409
 10
1.619135310541617
 20
-60.70313308650989
 42
0.4142135623730951
 10
3.11913531054162
 20
-62.2031330865099
 10
4.619134483527401
 20
-62.20313308650995
 42
-0.4142135623730847
 10
6.119134483527401
 20
-63.70313308650994
 10
6.119134483527564
 20
-119.7031330865104
 42
-0.4142135623730951
 10
4.61913448352757
 20
-121.2031330865104
 10
3.119135310541611
 20
-121.2031330865104
 42
0.4142135623730951
 10
1.61913531054161
 20
-122.7031330865104
 10
1.61913531054161
 20
-146.8353798376454
 42
-0.4142135623730937
 10
-0.3808646894583814
 20
-148.8353798376454
 10
-2.617864689458248
 20
-148.8353798376454
 42
0.4142135623730966
 10
-4.617864689458259
 20
-150.8353798376454
 10
-4.617864689458257
 20
-152.3271626806984
 42
-0.414213562373093
 10
-6.617864689458253
 20
-154.3271626806984
 10
-62.61786468945832
 20
-154.3271626806984
 42
-0.4142135623730912
 10
-64.61786468945828
 20
-152.3271626806984
 10
-64.61786468945833
 20
-150.8353798376454
 42
0.4142135623730951
 10
-66.61786468945833
 20
-148.8353798376454
 10
-119.380864689458
 20
-148.8353798376454
 42
0.4142135623730951
 10
-121.380864689458
 20
-150.8353798376454
 10
-121.380864689458
 20
-152.3271626806984
 42
-0.4142135623730898
 10
-123.380864689458
 20
-154.3271626806984
 10
-179.380864689458
 20
-154.3271626806984
 42
-0.4142135623730925
 10
-181.380864689458
 20
-152.3271626806984
 10
-181.380864689458
 20
-150.8353798376454
 42
0.4142135623730951
 10
-183.380864689458
 20
-148.8353798376454
 10
-234.143864689458
 20
-148.8353798376454
 42
0.4142135623730951
 10
-236.143864689458
 20
-150.8353798376454
 10
-236.1438646894577
 20
-152.3271626806984
 42
-0.4142135623732381
 10
-238.143864689458
 20
-154.3271626806984
 10
-294.1438646894571
 20
-154.3271626806984
 42
-0.4142135623730925
 10
-296.1438646894571
 20
-152.3271626806984
 10
-296.143864689458
 20
-150.8353798376454
 42
0.4142135623729545
 10
-298.143864689457
 20
-148.8353798376454
 10
-301.143602662
 20
-148.8353798376454
 42
-0.4142135623730951
 10
-303.143602662
 20
-146.8353798376454
 10
-303.143602662
 20
-122.8599257814114
 42
0.4142135623730951
 10
-304.643602662
 20
-121.3599257814113
 10
-306.143601834986
 20
-121.3599257814114
 42
-0.4142135623730916
 10
-307.643601834986
 20
-119.8599257814114
 10
-307.6436018349861
 20
-63.85992578141148
 42
-0.4142135623731106
 10
-306.143601834986
 20
-62.35992578141139
 10
-304.643602662
 20
-62.35992578141128
 42
0.4142135623730951
 10
-303.143602662
 20
-60.85992578141129
 10
-303.143602662
 20
-36.57088633537409
 42
-0.4142135623730951
 10
-301.143602662
 20
-34.57088633537408
 10
-275.3806026620001
 20
-34.57088633537408
 42
0.4142135623730822
 10
-273.380602662
 20
-32.57088633537418
 10
-273.380602662
 20
-31.07910349232217
 42
-0.4142135623731071
 10
-271.380602662
 20
-29.07910349232209
 10
-215.3806026620001
 20
-29.0791034923221
 42
-0.4142135623731003
 10
-213.3806026620001
 20
-31.07910349232219
 10
-213.380602662
 20
-32.57088633537418
 42
0.4142135623730951
 10
-211.380602662
 20
-34.5708863353742
 10
-183.380602662001
 20
-34.57088633537419
 42
0.4142135623730958
 10
-181.380602662001
 20
-32.57088633537418
 10
-181.380602662001
 20
-31.07910349232219
 42
-0.4142135623730944
 10
-179.380602662001
 20
-29.07910349232219
 10
-123.380602662001
 20
-29.07910349232214
 42
-0.4142135623730976
 10
-121.380602662001
 20
-31.07910349232219
 10
-121.380602662001
 20
-32.57088633537418
 42
0.4142135623730951
  0
LWPOLYLINE
  5
101
330
1F
100
AcDbEntity
  8
0
100
AcDbPolyline
 90
        8
 70
     1
 43
0.0
 10
-53.8235351546997
 20
-109.2056293869738
 10
-48.17953562279971
 20
-109.2056293869738
 42
0.4142135623730951
 10
-47.17953562279967
 20
-108.2056293869738
 10
-47.17953562279979
 20
-94.17633039597379
 42
0.4142135623730951
 10
-48.17953562279971
 20
-93.17633039597387
 10
-53.82353515469979
 20
-93.17633039597385
 42
0.4142135623730717
 10
-54.82353515469964
 20
-94.17633039597381
 10
-54.8235351546997
 20
-108.2056293869738
 42
0.4142135623730951
  0
LWPOLYLINE
  5
102
330
1F
100
AcDbEntity
  8
0
100
AcDbPolyline
 90
        8
 70
     1
 43
0.0
 10
-45.0659118869493
 20
-107.7204386368239
 10
-33.06591238614942
 20
-107.7204386368241
 42
0.4142135623730951
 10
-32.06591238614929
 20
-106.720438636824
 10
-32.06591238614932
 20
-94.721438445124
 42
0.4142135623730951
 10
-33.06591238614942
 20
-93.7214384451239
 10
-45.0659118869493
 20
-93.72143844512406
 42
0.414213562373121
 10
-46.06591188694925
 20
-94.72143844512409
 10
-46.0659118869493
 20
-106.720438636824
 42
0.4142135623730951
  0
LWPOLYLINE
  5
103
330
1F
100
AcDbEntity
  8
0
100
AcDbPolyline
 90
        8
 70
     1
 43
0.0
 10
-29.9475351546997
 20
-109.2056293869737
 10
-24.3035356227997
 20
-109.2056293869737
 42
0.4142135623730951
 10
-23.30353562279967
 20
-108.2056293869737
 10
-23.3035356227998
 20
-94.17633039597379
 42
0.4142135623730951
 10
-24.3035356227997
 20
-93.17633039597387
 10
-29.9475351546997
 20
-93.17633039597385
 42
0.4142135623730951
 10
-30.94753515469964
 20
-94.17633039597379
 10
-30.9475351546997
 20
-108.2056293869737
 42
0.4142135623730951
  0
LWPOLYLINE
  5
104
330
1F
100
AcDbEntity
  8
0
100
AcDbPolyline
 90
        8
 70
     1
 43
0.0
 10
-13.8923560309001
 20
-107.7207883214741
 42
-0.4142135623730951
 10
-14.89235603090004
 20
-106.7207883214742
 10
-14.89235603090004
 20
-94.72088777377418
 42
-0.4142135623730951
 10
-13.8923560309001
 20
-93.72088777377419
 10
-1.893355839200199
 20
-93.72088777377406
 42
-0.4142135623730951
 10
-0.8933558392000715
 20
-94.72088777377418
 10
-0.8933558392002385
 20
-106.7207883214742
 42
-0.4142135623730949
 10
-1.893355839200199
 20
-107.7207883214741
  0
LWPOLYLINE
  5
105
330
1F
100
AcDbEntity
  8
0
100
AcDbPolyline
 90
        8
 70
     1
 43
0.0
 10
-47.13736149530029
 20
-112.7712294689754
 10
-59.13636168700019
 20
-112.7712294689753
 42
0.4142135623731237
 10
-60.13636168700042
 20
-113.7712294689754
 10
-60.13636168700024
 20
-125.7712289697754
 42
0.4142135623731237
 10
-59.13636168700019
 20
-126.7712289697753
 10
-47.13736149530029
 20
-126.7712289697753
 42
0.4142135623730951
 10
-46.13736149530031
 20
-125.7712289697754
 10
-46.13736149530029
 20
-113.7712294689754
 42
0.4142135623730951
  0
LWPOLYLINE
  5
106
330
1F
100
AcDbEntity
  8
0
100
AcDbPolyline
 90
        8
 70
     1
 43
0.0
 10
-45.5862812652997
 20
-54.13613963427509
 10
-51.2302807971997
 20
-54.13613963427515
 42
0.4142135623730951
 10
-52.23028079719973
 20
-55.13613963427519
 10
-52.23028079719961
 20
-69.16543862527508
 42
0.4142135623730951
 10
-51.2302807971997
 20
-70.165438625275
 10
-45.5862812652997
 20
-70.16543862527504
 42
0.4142135623730951
 10
-44.58628126529975
 20
-69.16543862527508
 10
-44.5862812652996
 20
-55.13613963427519
 42
0.4142135623730951
  0
LWPOLYLINE
  5
107
330
1F
100
AcDbEntity
  8
0
100
AcDbPolyline
 90
        8
 70
     1
 43
0.0
 10
-30.4679045330501
 20
-55.62133038442479
 10
-42.46790403385008
 20
-55.62133038442477
 42
0.4142135623730951
 10
-43.46790403385022
 20
-56.62133038442489
 10
-43.4679040338501
 20
-68.62033057612478
 42
0.4142135623730951
 10
-42.46790403385
 20
-69.6203305761249
 10
-30.4679045330501
 20
-69.62033057612472
 42
0.4142135623730951
 10
-29.46790453305016
 20
-68.62033057612478
 10
-29.4679045330501
 20
-56.6213303844248
 42
0.4142135623730951
  0
LWPOLYLINE
  5
108
330
1F
100
AcDbEntity
  8
0
100
AcDbPolyline
 90
        8
 70
     1
 43
0.0
 10
-21.7102812652997
 20
-54.13613963427509
 10
-27.3542807971997
 20
-54.13613963427515
 42
0.4142135623730951
 10
-28.35428079719973
 20
-55.13613963427519
 10
-28.35428079719961
 20
-69.16543862527508
 42
0.4142135623730951
 10
-27.3542807971997
 20
-70.165438625275
 10
-21.7102812652997
 20
-70.16543862527504
 42
0.4142135623730951
 10
-20.71028126529976
 20
-69.16543862527508
 10
-20.71028126529961
 20
-55.13613963427519
 42
0.4142135623730951
  0
LWPOLYLINE
  5
109
330
1F
100
AcDbEntity
  8
0
100
AcDbPolyline
 90
        8
 70
     1
 43
0.0
 10
-290.8549763218
 20
-111.2864402264752
 10
-296.4989758537
 20
-111.2864402264754
 42
0.4142135623730951
 10
-297.4989758537
 20
-112.2864402264754
 10
-297.4989758536998
 20
-126.3157392174754
 42
0.4142135623730951
 10
-296.4989758537
 20
-127.3157392174753
 10
-290.8549763218
 20
-127.3157392174753
 42
0.4142135623730951
 10
-289.8549763218
 20
-126.3157392174754
 10
-289.8549763217997
 20
-112.2864402264754
 42
0.4142135623730951
  0
LWPOLYLINE
  5
110
330
1F
100
AcDbEntity
  8
0
100
AcDbPolyline
 90
        8
 70
     1
 43
0.0
 10
-275.73659958955
 20
-112.7716309766254
 10
-287.7365990903501
 20
-112.7716309766253
 42
0.4142135623730951
 10
-288.7365990903502
 20
-113.7716309766254
 10
-288.7365990903501
 20
-125.7706311683254
 42
0.4142135623730951
 10
-287.7365990903501
 20
-126.7706311683255
 10
-275.73659958955
 20
-126.7706311683253
 42
0.4142135623730951
 10
-274.73659958955
 20
-125.7706311683254
 10
-274.73659958955
 20
-113.7716309766254
 42
0.4142135623730951
  0
LWPOLYLINE
  5
111
330
1F
100
AcDbEntity
  8
0
100
AcDbPolyline
 90
        8
 70
     1
 43
0.0
 10
-266.9789763218
 20
-111.2864402264752
 10
-272.6229758537
 20
-111.2864402264754
 42
0.4142135623730951
 10
-273.6229758537001
 20
-112.2864402264754
 10
-273.6229758536999
 20
-126.3157392174754
 42
0.4142135623730951
 10
-272.6229758537
 20
-127.3157392174753
 10
-266.9789763218
 20
-127.3157392174753
 42
0.4142135623730951
 10
-265.9789763218001
 20
-126.3157392174754
 10
-265.9789763217997
 20
-112.2864402264754
 42
0.4142135623730951
  0
LWPOLYLINE
  5
112
330
1F
100
AcDbEntity
  8
0
100
AcDbPolyline
 90
        8
 70
     1
 43
0.0
 10
-52.99236022700029
 20
-37.57088776587411
 10
-52.99236022699994
 20
-49.57088633537418
 42
0.4142135623730951
 10
-51.9923602270001
 20
-50.57088633537403
 10
-39.9933600353002
 20
-50.57088633537417
 42
0.4142135623730951
 10
-38.99336003530023
 20
-49.57088633537418
 10
-38.99336003530011
 20
-37.57088776587411
 42
0.4142135623730951
 10
-39.9933600353002
 20
-36.570887765874
 10
-51.9923602270001
 20
-36.57088776587389
 42
0.4142135623730951
  0
LWPOLYLINE
  5
113
330
1F
100
AcDbEntity
  8
0
100
AcDbPolyline
 90
        8
 70
     1
 43
0.0
 10
-19.9433579373002
 20
-49.57088633537418
 10
-19.94335793730004
 20
-37.57088776587411
 42
0.4142135623730951
 10
-20.9433579373002
 20
-36.57088776587393
 10
-32.94235812900021
 20
-36.57088776587397
 42
0.4142135623730951
 10
-33.94235812900032
 20
-37.57088776587411
 10
-33.94235812900007
 20
-49.57088633537418
 42
0.4142135623730951
 10
-32.94235812900021
 20
-50.57088633537406
 10
-20.9433579373002
 20
-50.57088633537418
 42
0.4142135623730951
  0
LWPOLYLINE
  5
114
330
1F
100
AcDbEntity
  8
0
100
AcDbPolyline
 90
        4
 70
     1
 43
0.0
 10
-62.6306026620012
 20
-34.57910349232209
 10
-8.1306026620011
 20
-34.57910349232209
 42
1.0
 10
-8.1306026620011
 20
-33.07910349232209
 10
-62.6306026620012
 20
-33.07910349232209
 42
1.0
  0
LWPOLYLINE
  5
115
330
1F
100
AcDbEntity
  8
0
100
AcDbPolyline
 90
        8
 70
     1
 43
0.0
 10
-33.94236022700041
 20
-113.7712294689754
 10
-33.94236022700015
 20
-125.7712289697754
 42
0.4142135623730951
 10
-32.9423602270002
 20
-126.7712289697753
 10
-20.9433600353002
 20
-126.7712289697753
 42
0.4142135623730951
 10
-19.94336003530021
 20
-125.7712289697754
 10
-19.94336003530008
 20
-113.7712294689754
 42
0.4142135623730951
 10
-20.9433600353002
 20
-112.7712294689753
 10
-32.9423602270002
 20
-112.7712294689752
 42
0.4142135623730951
  0
LWPOLYLINE
  5
116
330
1F
100
AcDbEntity
  8
0
100
AcDbPolyline
 90
        8
 70
     1
 43
0.0
 10
-298.2614505870009
 20
-132.8211888289754
 10
-298.261450587
 20
-144.8211883297754
 42
0.4142135623730951
 10
-297.261450587
 20
-145.8211883297753
 10
-285.2624503953
 20
-145.8211883297753
 42
0.4142135623730951
 10
-284.2624503953
 20
-144.8211883297754
 10
-284.2624503952999
 20
-132.8211888289754
 42
0.4142135623730951
 10
-285.2624503953
 20
-131.8211888289752
 10
-297.261450587
 20
-131.8211888289744
 42
0.4142135623730951
  0
LWPOLYLINE
  5
117
330
1F
100
AcDbEntity
  8
0
100
AcDbPolyline
 90
        8
 70
     1
 43
0.0
 10
-274.4503602870009
 20
-132.8211888289754
 10
-274.450360287
 20
-144.8211883297754
 42
0.4142135623730951
 10
-273.450360287
 20
-145.8211883297753
 10
-261.4513600953
 20
-145.8211883297753
 42
0.4142135623730951
 10
-260.4513600953001
 20
-144.8211883297754
 10
-260.4513600952999
 20
-132.8211888289754
 42
0.4142135623730951
 10
-261.4513600953
 20
-131.8211888289752
 10
-273.450360287
 20
-131.8211888289744
 42
0.4142135623730951
  0
LWPOLYLINE
  5
118
330
1F
100
AcDbEntity
  8
0
100
AcDbPolyline
 90
        8
 70
     1
 43
0.0
 10
-250.636361687
 20
-132.8211888289754
 10
-250.636361687
 20
-144.8211883297754
 42
0.4142135623730951
 10
-249.636361687
 20
-145.8211883297753
 10
-237.6373614953
 20
-145.8211883297753
 42
0.4142135623730951
 10
-236.6373614953001
 20
-144.8211883297754
 10
-236.6373614953
 20
-132.8211888289754
 42
0.4142135623730951
 10
-237.6373614953
 20
-131.8211888289752
 10
-249.636361687
 20
-131.8211888289754
 42
0.4142135623730951
  0
LWPOLYLINE
  5
119
330
1F
100
AcDbEntity
  8
0
100
AcDbPolyline
 90
        8
 70
     1
 43
0.0
 10
-179.200360287
 20
-132.8211888289754
 10
-179.2003602869999
 20
-144.8211883297754
 42
0.4142135623730951
 10
-178.200360287
 20
-145.8211883297753
 10
-166.2013600953
 20
-145.8211883297753
 42
0.4142135623730951
 10
-165.2013600953
 20
-144.8211883297754
 10
-165.2013600952998
 20
-132.8211888289754
 42
0.4142135623730951
 10
-166.2013600953
 20
-131.8211888289752
 10
-178.200360287
 20
-131.8211888289753
 42
0.4142135623730951
  0
LWPOLYLINE
  5
120
330
1F
100
AcDbEntity
  8
0
100
AcDbPolyline
 90
        8
 70
     1
 43
0.0
 10
-225.7293605732
 20
-112.7711885935744
 10
-237.7303575205
 20
-112.7711885935744
 42
0.4142135623730951
 10
-238.7303575205
 20
-113.7711885935743
 10
-238.7303575205001
 20
-125.7707866942744
 42
0.4142135623730951
 10
-237.7303575205
 20
-126.7707866942744
 10
-225.7293605732
 20
-126.7707866942744
 42
0.4142135623730951
 10
-224.7293605732
 20
-125.7707866942744
 10
-224.7293605732
 20
-113.7711885935743
 42
0.4142135623730951
  0
LWPOLYLINE
  5
121
330
1F
100
AcDbEntity
  8
0
100
AcDbPolyline
 90
        8
 70
     1
 43
0.0
 10
-226.0233550596
 20
-132.2915859735743
 10
-226.0233550596001
 20
-146.3207881069744
 42
0.4142135623730951
 10
-225.0233550596
 20
-147.3207881069744
 10
-219.3743580508
 20
-147.3207881069744
 42
0.4142135623730951
 10
-218.3743580508
 20
-146.3207881069744
 10
-218.3743580508
 20
-132.2915859735743
 42
0.4142135623730951
 10
-219.3743580508
 20
-131.2915859735744
 10
-225.0233550596
 20
-131.2915859735744
 42
0.4142135623730951
  0
LWPOLYLINE
  5
122
330
1F
100
AcDbEntity
  8
0
100
AcDbPolyline
 90
        8
 70
     1
 43
0.0
 10
-124.4303561079
 20
-113.7711885935743
 10
-124.4303561079
 20
-125.7707866942744
 42
0.4142135623730951
 10
-123.4303561079
 20
-126.7707866942744
 10
-111.4293554353
 20
-126.7707866942744
 42
0.4142135623730951
 10
-110.4293554353
 20
-125.7707866942744
 10
-110.4293554352999
 20
-113.7711885935743
 42
0.4142135623730951
 10
-111.4293554353
 20
-112.7711885935743
 10
-123.4303561079
 20
-112.7711885935744
 42
0.4142135623730951
  0
LWPOLYLINE
  5
123
330
1F
100
AcDbEntity
  8
0
100
AcDbPolyline
 90
        8
 70
     1
 43
0.0
 10
-13.8923560309001
 20
-126.7707866942744
 10
-1.893355839200199
 20
-126.7707866942743
 42
0.4142135623730949
 10
-0.8933558392002385
 20
-125.7707866942744
 10
-0.893355839200079
 20
-113.7711885935743
 42
0.4142135623730951
 10
-1.893355839200199
 20
-112.7711885935742
 10
-13.8923560309001
 20
-112.7711885935744
 42
0.4142135623730951
 10
-14.89235603090004
 20
-113.7711885935743
 10
-14.89235603090009
 20
-125.7707866942744
 42
0.4142135623730951
  0
LWPOLYLINE
  5
124
330
1F
100
AcDbEntity
  8
0
100
AcDbPolyline
 90
        8
 70
     1
 43
0.0
 10
-199.6303570496
 20
-126.7707866942744
 10
-187.6293563771
 20
-126.7707866942744
 42
0.4142135623730951
 10
-186.6293563771
 20
-125.7707866942744
 10
-186.6293563771
 20
-113.7711885935743
 42
0.4142135623730951
 10
-187.6293563771
 20
-112.7711885935744
 10
-199.6303570496
 20
-112.7711885935744
 42
0.4142135623730951
 10
-200.6303570496
 20
-113.7711885935743
 10
-200.6303570496
 20
-125.7707866942744
 42
0.4142135623730951
  0
LWPOLYLINE
  5
125
330
1F
100
AcDbEntity
  8
0
100
AcDbPolyline
 90
        8
 70
     1
 43
0.0
 10
-149.5293568375
 20
-112.7711885935744
 10
-161.5303565788
 20
-112.7711885935744
 42
0.4142135623730951
 10
-162.5303565787999
 20
-113.7711885935743
 10
-162.5303565788
 20
-125.7707866942744
 42
0.4142135623730951
 10
-161.5303565788
 20
-126.7707866942744
 10
-149.5293568375
 20
-126.7707866942744
 42
0.4142135623730951
 10
-148.5293568375
 20
-125.7707866942744
 10
-148.5293568375
 20
-113.7711885935743
 42
0.4142135623730951
  0
LWPOLYLINE
  5
126
330
1F
100
AcDbEntity
  8
0
100
AcDbPolyline
 90
        8
 70
     1
 43
0.0
 10
-19.9433579373002
 20
-144.8207887923744
 10
-19.94335793730011
 20
-132.8211888289744
 42
0.4142135623730951
 10
-20.9433579373002
 20
-131.8211888289743
 10
-32.94235812900021
 20
-131.8211888289744
 42
0.4142135623730951
 10
-33.94235812900023
 20
-132.8211888289744
 10
-33.94235812900014
 20
-144.8207887923744
 42
0.4142135623730951
 10
-32.94235812900021
 20
-145.8207887923743
 10
-20.9433579373002
 20
-145.8207887923744
 42
0.4142135623730951
  0
LWPOLYLINE
  5
127
330
1F
100
AcDbEntity
  8
0
100
AcDbPolyline
 90
        8
 70
     1
 43
0.0
 10
-118.3733581828
 20
-146.3207881069744
 10
-118.3733581827999
 20
-132.2914891159744
 42
0.4142135623730951
 10
-119.3733581828
 20
-131.2914891159743
 10
-125.0173577147
 20
-131.2914891159744
 42
0.4142135623730951
 10
-126.0173577146999
 20
-132.2914891159744
 10
-126.0173577147
 20
-146.3207881069744
 42
0.4142135623730951
 10
-125.0173577147
 20
-147.3207881069744
 10
-119.3733581828
 20
-147.3207881069744
 42
0.4142135623730951
  0
LWPOLYLINE
  5
128
330
1F
100
AcDbEntity
  8
0
100
AcDbPolyline
 90
        8
 70
     1
 43
0.0
 10
-124.718257718
 20
-87.67088773757411
 10
-124.7182577179998
 20
-75.67088823677408
 42
0.4142135623730951
 10
-125.718257718
 20
-74.67088823677397
 10
-137.7192583906
 20
-74.67088823677412
 42
0.4142135623730951
 10
-138.7192583906
 20
-75.67088823677408
 10
-138.7192583905999
 20
-87.67088773757411
 42
0.4142135623730951
 10
-137.7192583906
 20
-88.670887737574
 10
-125.718257718
 20
-88.6708877375741
 42
0.4142135623730951
  0
LWPOLYLINE
  5
129
330
1F
100
AcDbEntity
  8
0
100
AcDbPolyline
 90
        8
 70
     1
 43
0.0
 10
-266.3050551938
 20
-107.7207883214741
 10
-254.3043562698
 20
-107.7207883214741
 42
0.4142135623730951
 10
-253.3043562698
 20
-106.7207883214741
 10
-253.3043562698
 20
-94.72088777377406
 42
0.4142135623730951
 10
-254.3043562698
 20
-93.7208877737741
 10
-266.3050551938
 20
-93.72088777377411
 42
0.4142135623730951
 10
-267.3050551938
 20
-94.72088777377406
 10
-267.3050551938001
 20
-106.7207883214741
 42
0.4142135623730951
  0
LWPOLYLINE
  5
130
330
1F
100
AcDbEntity
  8
0
100
AcDbPolyline
 90
        8
 70
     1
 43
0.0
 10
-139.0043567198
 20
-106.7207883214741
 10
-139.0043567197999
 20
-94.72088777377406
 42
0.4142135623730951
 10
-140.0043567198
 20
-93.72088777377403
 10
-152.0053569267
 20
-93.7208877737741
 42
0.4142135623730951
 10
-153.0053569267
 20
-94.72088777377406
 10
-153.0053569267
 20
-106.7207883214741
 42
0.4142135623730951
 10
-152.0053569267
 20
-107.7207883214741
 10
-140.0043567198
 20
-107.7207883214741
 42
0.4142135623730951
  0
LWPOLYLINE
  5
131
330
1F
100
AcDbEntity
  8
0
100
AcDbPolyline
 90
        8
 70
     1
 43
0.0
 10
-177.1043571907
 20
-106.7207883214741
 10
-177.1043571907
 20
-94.72088777377406
 42
0.4142135623730951
 10
-178.1043571907
 20
-93.72088777377406
 10
-190.1053560006
 20
-93.72088777377411
 42
0.4142135623730951
 10
-191.1053560006
 20
-94.72088777377406
 10
-191.1053560006
 20
-106.7207883214741
 42
0.4142135623730951
 10
-190.1053560006
 20
-107.7207883214741
 10
-178.1043571907
 20
-107.7207883214741
 42
0.4142135623730951
  0
LWPOLYLINE
  5
132
330
1F
100
AcDbEntity
  8
0
100
AcDbPolyline
 90
        8
 70
     1
 43
0.0
 10
-229.2053564715
 20
-94.72088777377406
 10
-229.2053564715
 20
-106.7207883214741
 42
0.4142135623730951
 10
-228.2053564715
 20
-107.7207883214741
 10
-216.2043595242
 20
-107.7207883214741
 42
0.4142135623730951
 10
-215.2043595242
 20
-106.7207883214741
 10
-215.2043595242
 20
-94.72088777377406
 42
0.4142135623730951
 10
-216.2043595242
 20
-93.7208877737741
 10
-228.2053564715
 20
-93.72088777377406
 42
0.4142135623730951
  0
LWPOLYLINE
  5
133
330
1F
100
AcDbEntity
  8
0
100
AcDbPolyline
 90
        8
 70
     1
 43
0.0
 10
-253.0192598032
 20
-75.67088823677408
 10
-253.0192598031999
 20
-87.67088773757411
 42
0.4142135623730951
 10
-252.0192598032
 20
-88.67088773757405
 10
-240.0182554054
 20
-88.67088773757407
 42
0.4142135623730951
 10
-239.0182554054001
 20
-87.67088773757411
 10
-239.0182554054
 20
-75.67088823677408
 42
0.4142135623730951
 10
-240.0182554054
 20
-74.67088823677404
 10
-252.0192598032
 20
-74.67088823677409
 42
0.4142135623730951
  0
LWPOLYLINE
  5
134
330
1F
100
AcDbEntity
  8
0
100
AcDbPolyline
 90
        8
 70
     1
 43
0.0
 10
-115.193256669
 20
-68.62088843347409
 10
-115.1932566689999
 20
-56.62088613867418
 42
0.4142135623730951
 10
-116.193256669
 20
-55.62088613867409
 10
-128.1942592042
 20
-55.62088613867418
 42
0.4142135623730951
 10
-129.1942592042
 20
-56.62088613867418
 10
-129.1942592041999
 20
-68.62088843347409
 42
0.4142135623730951
 10
-128.1942592042
 20
-69.62088843347401
 10
-116.193256669
 20
-69.62088843347409
 42
0.4142135623730951
  0
LWPOLYLINE
  5
135
330
1F
100
AcDbEntity
  8
0
100
AcDbPolyline
 90
        8
 70
     1
 43
0.0
 10
-162.8182581889
 20
-87.67088773757411
 10
-162.8182581888999
 20
-75.67088823677408
 42
0.4142135623730951
 10
-163.8182581889
 20
-74.67088823677404
 10
-175.8192588615
 20
-74.67088823677404
 42
0.4142135623730951
 10
-176.8192588615
 20
-75.67088823677408
 10
-176.8192588615
 20
-87.67088773757411
 42
0.4142135623730951
 10
-175.8192588615
 20
-88.67088773757407
 10
-163.8182581889
 20
-88.67088773757412
 42
0.4142135623730951
  0
LWPOLYLINE
  5
136
330
1F
100
AcDbEntity
  8
0
100
AcDbPolyline
 90
        8
 70
     1
 43
0.0
 10
-281.8793519663
 20
-87.67088773757411
 10
-281.8793519663
 20
-75.67088823677408
 42
0.4142135623730951
 10
-282.8793519663
 20
-74.67088823677404
 10
-294.8800508904
 20
-74.67088823677409
 42
0.4142135623730951
 10
-295.8800508904
 20
-75.67088823677408
 10
-295.8800508904
 20
-87.67088773757411
 42
0.4142135623730951
 10
-294.8800508904
 20
-88.67088773757405
 10
-282.8793519663
 20
-88.67088773757407
 42
0.4142135623730951
  0
LWPOLYLINE
  5
137
330
1F
100
AcDbEntity
  8
0
100
AcDbPolyline
 90
        8
 70
     1
 43
0.0
 10
-267.5932585525
 20
-68.62088843347409
 10
-267.5932585525
 20
-56.62088613867409
 42
0.4142135623730951
 10
-268.5932585525
 20
-55.62088613867405
 10
-280.5942629503
 20
-55.62088613867404
 42
0.4142135623730951
 10
-281.5942629503
 20
-56.62088613867409
 10
-281.5942629503
 20
-68.62088843347409
 42
0.4142135623730951
 10
-280.5942629503
 20
-69.62088843347413
 10
-268.5932585525
 20
-69.62088843347411
 42
0.4142135623730951
  0
LWPOLYLINE
  5
138
330
1F
100
AcDbEntity
  8
0
100
AcDbPolyline
 90
        8
 70
     1
 43
0.0
 10
-229.4932618069
 20
-68.62088843347409
 10
-229.4932618069
 20
-56.62088613867418
 42
0.4142135623730951
 10
-230.4932618069
 20
-55.62088613867414
 10
-242.4942587542
 20
-55.62088613867404
 42
0.4142135623730951
 10
-243.4942587542001
 20
-56.62088613867409
 10
-243.4942587542
 20
-68.62088843347409
 42
0.4142135623730951
 10
-242.4942587542
 20
-69.62088843347402
 10
-230.4932618069
 20
-69.62088843347411
 42
0.4142135623730951
  0
LWPOLYLINE
  5
139
330
1F
100
AcDbEntity
  8
0
100
AcDbPolyline
 90
        8
 70
     1
 43
0.0
 10
-192.3932576107
 20
-55.62088613867409
 10
-204.3942582833
 20
-55.62088613867414
 42
0.4142135623730951
 10
-205.3942582833001
 20
-56.62088613867418
 10
-205.3942582833
 20
-68.62088843347409
 42
0.4142135623730951
 10
-204.3942582833
 20
-69.62088843347405
 10
-192.3932576107
 20
-69.62088843347408
 42
0.4142135623730951
 10
-191.3932576107001
 20
-68.62088843347409
 10
-191.3932576106999
 20
-56.62088613867418
 42
0.4142135623730951
  0
LWPOLYLINE
  5
140
330
1F
100
AcDbEntity
  8
0
100
AcDbPolyline
 90
        8
 70
     1
 43
0.0
 10
-166.2942578124
 20
-69.62088843347399
 10
-154.293258304
 20
-69.62088843347408
 42
0.4142135623730951
 10
-153.293258304
 20
-68.62088843347409
 10
-153.293258304
 20
-56.62088613867418
 42
0.4142135623730951
 10
-154.293258304
 20
-55.62088613867416
 10
-166.2942578124
 20
-55.62088613867414
 42
0.4142135623730951
 10
-167.2942578124
 20
-56.62088613867418
 10
-167.2942578123999
 20
-68.62088843347409
 42
0.4142135623730951
  0
LWPOLYLINE
  5
141
330
1F
100
AcDbEntity
  8
0
100
AcDbPolyline
 90
        8
 70
     1
 43
0.0
 10
-214.9192556071
 20
-75.67088823677408
 10
-214.9192556071
 20
-87.67088773757411
 42
0.4142135623730951
 10
-213.9192556071
 20
-88.67088773757407
 10
-201.9182586598
 20
-88.67088773757407
 42
0.4142135623730951
 10
-200.9182586598
 20
-87.67088773757411
 10
-200.9182586598
 20
-75.67088823677408
 42
0.4142135623730951
 10
-201.9182586598
 20
-74.67088823677406
 10
-213.9192556071
 20
-74.67088823677412
 42
0.4142135623730951
  0
LWPOLYLINE
  5
142
330
1F
100
AcDbEntity
  8
0
100
AcDbPolyline
 90
        8
 70
     1
 43
0.0
 10
-0.8933558392002478
 20
-49.57088633537418
 10
-0.8933558392000289
 20
-37.57088776587411
 42
0.4142135623730951
 10
-1.893355839200189
 20
-36.57088776587393
 10
-13.8923560309001
 20
-36.57088776587405
 42
0.4142135623730951
 10
-14.89235603090015
 20
-37.57088776587411
 10
-14.89235603089993
 20
-49.57088633537418
 42
0.4142135623730951
 10
-13.8923560309001
 20
-50.57088633537403
 10
-1.89335583920019
 20
-50.57088633537413
 42
0.4142135623730952
  0
LWPOLYLINE
  5
143
330
1F
100
AcDbEntity
  8
0
100
AcDbPolyline
 90
        8
 70
     1
 43
0.0
 10
-211.4432597088
 20
-36.57088776587409
 10
-223.4442566561
 20
-36.57088776587405
 42
0.4142135623730951
 10
-224.4442566561001
 20
-37.57088776587411
 10
-224.4442566560999
 20
-49.57088633537418
 42
0.4142135623730951
 10
-223.4442566561
 20
-50.57088633537406
 10
-211.4432597088
 20
-50.5708863353742
 42
0.4142135623730951
 10
-210.4432597088
 20
-49.57088633537418
 10
-210.4432597088
 20
-37.57088776587411
 42
0.4142135623730951
  0
LWPOLYLINE
  5
144
330
1F
100
AcDbEntity
  8
0
100
AcDbPolyline
 90
        8
 70
     1
 43
0.0
 10
-286.6432532
 20
-68.62088843347409
 10
-286.6432532
 20
-56.62088613867409
 42
0.4142135623730951
 10
-287.6432531999999
 20
-55.62088613867403
 10
-299.643952124
 20
-55.62088613867404
 42
0.4142135623730951
 10
-300.6439521240001
 20
-56.62088613867409
 10
-300.6439521239999
 20
-68.62088843347409
 42
0.4142135623730951
 10
-299.643952124
 20
-69.62088843347402
 10
-287.6432531999999
 20
-69.62088843347408
 42
0.4142135623730951
  0
LWPOLYLINE
  5
145
330
1F
100
AcDbEntity
  8
0
100
AcDbPolyline
 90
        8
 70
     1
 43
0.0
 10
-185.3442599105
 20
-50.57088633537409
 10
-173.3432573753
 20
-50.5708863353742
 42
0.4142135623730951
 10
-172.3432573753
 20
-49.57088633537418
 10
-172.3432573753
 20
-37.57088776587411
 42
0.4142135623730951
 10
-173.3432573753
 20
-36.57088776587405
 10
-185.3442599105
 20
-36.57088776587405
 42
0.4142135623730951
 10
-186.3442599105001
 20
-37.57088776587411
 10
-186.3442599104999
 20
-49.57088633537418
 42
0.4142135623730951
  0
LWPOLYLINE
  5
146
330
1F
100
AcDbEntity
  8
0
100
AcDbPolyline
 90
        8
 70
     1
 43
0.0
 10
-287.6432531999999
 20
-36.57088776587409
 10
-299.643952124
 20
-36.57088776587405
 42
0.4142135623730951
 10
-300.6439521240001
 20
-37.57088776587411
 10
-300.6439521239999
 20
-49.57088633537418
 42
0.4142135623730951
 10
-299.643952124
 20
-50.57088633537405
 10
-287.6432531999999
 20
-50.5708863353742
 42
0.4142135623730951
 10
-286.6432532
 20
-49.57088633537418
 10
-286.6432532
 20
-37.57088776587411
 42
0.4142135623730951
  0
LWPOLYLINE
  5
147
330
1F
100
AcDbEntity
  8
0
100
AcDbPolyline
 90
        8
 70
     1
 43
0.0
 10
-148.2442582755
 20
-37.57128637197418
 10
-148.2442582754998
 20
-49.57088633537418
 42
0.4142135623730951
 10
-147.2442582755
 20
-50.57088633537403
 10
-135.2442590075
 20
-50.57088633537417
 42
0.4142135623730951
 10
-134.2442590075
 20
-49.57088633537418
 10
-134.2442590074999
 20
-37.57128637197418
 42
0.4142135623730951
 10
-135.2442590075
 20
-36.5712863719741
 10
-147.2442582755
 20
-36.5712863719742
 42
0.4142135623730951
  0
LWPOLYLINE
  5
148
330
1F
100
AcDbEntity
  8
0
100
AcDbPolyline
 90
        8
 70
     1
 43
0.0
 10
-166.2942578124
 20
-50.57088633537409
 10
-154.293258304
 20
-50.57088633537417
 42
0.4142135623730951
 10
-153.293258304
 20
-49.57088633537418
 10
-153.293258304
 20
-37.57088776587411
 42
0.4142135623730951
 10
-154.293258304
 20
-36.57088776587405
 10
-166.2942578124
 20
-36.57088776587405
 42
0.4142135623730951
 10
-167.2942578124
 20
-37.57088776587411
 10
-167.2942578123999
 20
-49.57088633537418
 42
0.4142135623730951
  0
LWPOLYLINE
  5
149
330
1F
100
AcDbEntity
  8
0
100
AcDbPolyline
 90
        8
 70
     1
 43
0.0
 10
-205.3942582833
 20
-37.57088776587411
 10
-205.3942582833
 20
-49.57088633537418
 42
0.4142135623730951
 10
-204.3942582833
 20
-50.57088633537411
 10
-192.3932576107
 20
-50.5708863353742
 42
0.4142135623730951
 10
-191.3932576107
 20
-49.57088633537418
 10
-191.3932576107
 20
-37.57088776587411
 42
0.4142135623730951
 10
-192.3932576107
 20
-36.57088776587406
 10
-204.3942582833
 20
-36.57088776587412
 42
0.4142135623730951
  0
LWPOLYLINE
  5
150
330
1F
100
AcDbEntity
  8
0
100
AcDbPolyline
 90
        8
 70
     1
 43
0.0
 10
-116.193256669
 20
-36.57088776587409
 10
-128.1942592042
 20
-36.57088776587408
 42
0.4142135623730951
 10
-129.1942592042
 20
-37.57088776587411
 10
-129.1942592041998
 20
-49.57088633537418
 42
0.4142135623730951
 10
-128.1942592042
 20
-50.57088633537403
 10
-116.193256669
 20
-50.57088633537417
 42
0.4142135623730951
 10
-115.193256669
 20
-49.57088633537418
 10
-115.193256669
 20
-37.57088776587411
 42
0.4142135623730951
  0
LWPOLYLINE
  5
151
330
1F
100
AcDbEntity
  8
0
100
AcDbPolyline
 90
        8
 70
     1
 43
0.0
 10
-267.5932585525
 20
-49.57088633537418
 10
-267.5932585525
 20
-37.57088776587411
 42
0.4142135623730951
 10
-268.5932585525
 20
-36.57088776587404
 10
-280.5942629503
 20
-36.57088776587405
 42
0.4142135623730951
 10
-281.5942629503
 20
-37.57088776587411
 10
-281.5942629503
 20
-49.57088633537418
 42
0.4142135623730951
 10
-280.5942629503
 20
-50.57088633537416
 10
-268.5932585525
 20
-50.5708863353742
 42
0.4142135623730951
  0
LWPOLYLINE
  5
152
330
1F
100
AcDbEntity
  8
0
100
AcDbPolyline
 90
        8
 70
     1
 43
0.0
 10
-242.4942587542
 20
-50.570886335374
 10
-230.4932618069
 20
-50.5708863353742
 42
0.4142135623730951
 10
-229.4932618069
 20
-49.57088633537418
 10
-229.4932618069
 20
-37.57088776587411
 42
0.4142135623730951
 10
-230.4932618069
 20
-36.57088776587404
 10
-242.4942587542
 20
-36.57088776587405
 42
0.4142135623730951
 10
-243.4942587542001
 20
-37.57088776587411
 10
-243.4942587541998
 20
-49.57088633537418
 42
0.4142135623730951
  0
LWPOLYLINE
  5
153
330
1F
100
AcDbEntity
  8
0
100
AcDbPolyline
 90
        8
 70
     1
 43
0.0
 10
-248.5432564544
 20
-49.57088633537418
 10
-248.5432564544
 20
-37.57088776587411
 42
0.4142135623730951
 10
-249.5432564544
 20
-36.57088776587404
 10
-261.5442608523
 20
-36.57088776587405
 42
0.4142135623730951
 10
-262.5442608523001
 20
-37.57088776587411
 10
-262.5442608522999
 20
-49.57088633537418
 42
0.4142135623730951
 10
-261.5442608523
 20
-50.57088633537406
 10
-249.5432564544
 20
-50.5708863353742
 42
0.4142135623730951
  0
LWPOLYLINE
  5
154
330
1F
100
AcDbEntity
  8
0
100
AcDbPolyline
 90
        8
 70
     1
 43
0.0
 10
-144.7682584191
 20
-74.67088823677389
 10
-156.7692581604
 20
-74.67088823677404
 42
0.4142135623730951
 10
-157.7692581604
 20
-75.67088823677408
 10
-157.7692581604
 20
-87.67088773757411
 42
0.4142135623730951
 10
-156.7692581604
 20
-88.67088773757407
 10
-144.7682584191
 20
-88.67088773757407
 42
0.4142135623730951
 10
-143.7682584191
 20
-87.67088773757411
 10
-143.7682584190998
 20
-75.67088823677408
 42
0.4142135623730951
  0
LWPOLYLINE
  5
155
330
1F
100
AcDbEntity
  8
0
100
AcDbPolyline
 90
        8
 70
     1
 43
0.0
 10
-0.8933558392002494
 20
-87.67088773757411
 10
-0.8933558392000433
 20
-75.67088823677408
 42
0.4142135623730951
 10
-1.893355839200199
 20
-74.67088823677392
 10
-13.8923560309001
 20
-74.67088823677412
 42
0.4142135623730951
 10
-14.89235603090008
 20
-75.67088823677408
 10
-14.89235603089997
 20
-87.67088773757411
 42
0.4142135623730951
 10
-13.8923560309001
 20
-88.67088773757398
 10
-1.893355839200199
 20
-88.67088773757405
 42
0.4142135623730949
  0
LWPOLYLINE
  5
156
330
1F
100
AcDbEntity
  8
0
100
AcDbPolyline
 90
        8
 70
     1
 43
0.0
 10
-224.4442566561
 20
-56.62088613867418
 10
-224.4442566561
 20
-68.62088843347409
 42
0.4142135623730951
 10
-223.4442566561
 20
-69.62088843347402
 10
-211.4432597088
 20
-69.62088843347408
 42
0.4142135623730951
 10
-210.4432597088001
 20
-68.62088843347409
 10
-210.4432597088
 20
-56.62088613867418
 42
0.4142135623730951
 10
-211.4432597088
 20
-55.62088613867415
 10
-223.4442566561
 20
-55.62088613867422
 42
0.4142135623730951
  0
LWPOLYLINE
  5
157
330
1F
100
AcDbEntity
  8
0
100
AcDbPolyline
 90
        8
 70
     1
 43
0.0
 10
-194.8692572343
 20
-88.6708877375741
 10
-182.8682584243
 20
-88.67088773757407
 42
0.4142135623730951
 10
-181.8682584243
 20
-87.67088773757411
 10
-181.8682584243
 20
-75.67088823677408
 42
0.4142135623730951
 10
-182.8682584243
 20
-74.67088823677406
 10
-194.8692572343
 20
-74.67088823677404
 42
0.4142135623730951
 10
-195.8692572343
 20
-75.67088823677408
 10
-195.8692572343
 20
-87.67088773757411
 42
0.4142135623730951
  0
LWPOLYLINE
  5
158
330
1F
100
AcDbEntity
  8
0
100
AcDbPolyline
 90
        8
 70
     1
 43
0.0
 10
-1.893355839200189
 20
-55.62088613867389
 10
-13.8923560309001
 20
-55.62088613867418
 42
0.4142135623730951
 10
-14.89235603090011
 20
-56.62088613867418
 10
-14.89235603089997
 20
-68.62088843347409
 42
0.4142135623730951
 10
-13.8923560309001
 20
-69.62088843347396
 10
-1.893355839200199
 20
-69.62088843347402
 42
0.4142135623730949
 10
-0.8933558392002565
 20
-68.62088843347409
 10
-0.8933558391998925
 20
-56.62088613867418
 42
0.4142135623730921
  0
LWPOLYLINE
  5
159
330
1F
100
AcDbEntity
  8
0
100
AcDbPolyline
 90
        8
 70
     1
 43
0.0
 10
-185.3442599105
 20
-69.62088843347399
 10
-173.3432573753
 20
-69.62088843347408
 42
0.4142135623730951
 10
-172.3432573753
 20
-68.62088843347409
 10
-172.3432573753
 20
-56.62088613867418
 42
0.4142135623730951
 10
-173.3432573753
 20
-55.62088613867414
 10
-185.3442599105
 20
-55.62088613867414
 42
0.4142135623730951
 10
-186.3442599105001
 20
-56.62088613867418
 10
-186.3442599104999
 20
-68.62088843347409
 42
0.4142135623730951
  0
LWPOLYLINE
  5
160
330
1F
100
AcDbEntity
  8
0
100
AcDbPolyline
 90
        8
 70
     1
 43
0.0
 10
-219.9682607579
 20
-87.67088773757411
 10
-219.9682607579
 20
-75.67088823677408
 42
0.4142135623730951
 10
-220.9682607579001
 20
-74.67088823677404
 10
-232.9692577051
 20
-74.67088823677404
 42
0.4142135623730951
 10
-233.9692577051001
 20
-75.67088823677408
 10
-233.9692577051
 20
-87.67088773757411
 42
0.4142135623730951
 10
-232.9692577051
 20
-88.67088773757407
 10
-220.9682607579001
 20
-88.67088773757412
 42
0.4142135623730951
  0
LWPOLYLINE
  5
161
330
1F
100
AcDbEntity
  8
0
100
AcDbPolyline
 90
        8
 70
     1
 43
0.0
 10
-148.2442582755
 20
-56.62128847007409
 10
-148.2442582754999
 20
-68.62088843347409
 42
0.4142135623730951
 10
-147.2442582755
 20
-69.62088843347401
 10
-135.2442590075
 20
-69.62088843347408
 42
0.4142135623730951
 10
-134.2442590075
 20
-68.62088843347409
 10
-134.2442590074999
 20
-56.62128847007409
 42
0.4142135623730951
 10
-135.2442590075
 20
-55.62128847007399
 10
-147.2442582755
 20
-55.62128847007409
 42
0.4142135623730951
  0
LWPOLYLINE
  5
162
330
1F
100
AcDbEntity
  8
0
100
AcDbPolyline
 90
        8
 70
     1
 43
0.0
 10
-280.4980570006
 20
-93.72088777377419
 10
-292.4987559246
 20
-93.72088777377411
 42
0.4142135623730951
 10
-293.4987559246
 20
-94.72088777377406
 10
-293.4987559246
 20
-106.7207883214741
 42
0.4142135623730951
 10
-292.4987559246
 20
-107.7207883214741
 10
-280.4980570006
 20
-107.7207883214741
 42
0.4142135623730951
 10
-279.4980570006
 20
-106.7207883214741
 10
-279.4980570006001
 20
-94.72088777377406
 42
0.4142135623730951
  0
LWPOLYLINE
  5
163
330
1F
100
AcDbEntity
  8
0
100
AcDbPolyline
 90
        8
 70
     1
 43
0.0
 10
-249.5432564544
 20
-55.620886138674
 10
-261.5442608523
 20
-55.62088613867404
 42
0.4142135623730951
 10
-262.5442608523001
 20
-56.62088613867409
 10
-262.5442608523
 20
-68.62088843347409
 42
0.4142135623730951
 10
-261.5442608523
 20
-69.62088843347402
 10
-249.5432564544
 20
-69.62088843347408
 42
0.4142135623730951
 10
-248.5432564544
 20
-68.62088843347409
 10
-248.5432564543999
 20
-56.62088613867409
 42
0.4142135623730951
  0
LWPOLYLINE
  5
164
330
1F
100
AcDbEntity
  8
0
100
AcDbPolyline
 90
        8
 70
     1
 43
0.0
 10
-271.0689564275
 20
-88.6708877375741
 10
-259.0682575034
 20
-88.67088773757407
 42
0.4142135623730951
 10
-258.0682575034
 20
-87.67088773757411
 10
-258.0682575034
 20
-75.67088823677408
 42
0.4142135623730951
 10
-259.0682575034
 20
-74.67088823677404
 10
-271.0689564275
 20
-74.67088823677409
 42
0.4142135623730951
 10
-272.0689564275001
 20
-75.67088823677408
 10
-272.0689564275
 20
-87.67088773757411
 42
0.4142135623730951
  0
LWPOLYLINE
  5
165
330
1F
100
AcDbEntity
  8
0
100
AcDbPolyline
 90
        8
 70
     1
 43
0.0
 10
-234.2543616223
 20
-106.7207883214741
 10
-234.2543616223
 20
-94.72088777377406
 42
0.4142135623730951
 10
-235.2543616223
 20
-93.7208877737741
 10
-247.2553585696
 20
-93.72088777377411
 42
0.4142135623730951
 10
-248.2553585696
 20
-94.72088777377406
 10
-248.2553585696
 20
-106.7207883214741
 42
0.4142135623730951
 10
-247.2553585696
 20
-107.7207883214741
 10
-235.2543616223
 20
-107.7207883214741
 42
0.4142135623730951
  0
LWPOLYLINE
  5
166
330
1F
100
AcDbEntity
  8
0
100
AcDbPolyline
 90
        8
 70
     1
 43
0.0
 10
-219.6803554224
 20
-113.7711885935743
 10
-219.6803554224
 20
-125.7707866942744
 42
0.4142135623730951
 10
-218.6803554224
 20
-126.7707866942744
 10
-206.6793584751
 20
-126.7707866942744
 42
0.4142135623730951
 10
-205.6793584751
 20
-125.7707866942744
 10
-205.6793584751
 20
-113.7711885935743
 42
0.4142135623730951
 10
-206.6793584751
 20
-112.7711885935744
 10
-218.6803554224
 20
-112.7711885935744
 42
0.4142135623730951
  0
LWPOLYLINE
  5
167
330
1F
100
AcDbEntity
  8
0
100
AcDbPolyline
 90
        8
 70
     1
 43
0.0
 10
-159.0543569552
 20
-93.72088777377419
 10
-171.0553576278
 20
-93.72088777377411
 42
0.4142135623730951
 10
-172.0553576278
 20
-94.72088777377406
 10
-172.0553576278
 20
-106.7207883214741
 42
0.4142135623730951
 10
-171.0553576278
 20
-107.7207883214741
 10
-159.0543569552
 20
-107.7207883214741
 42
0.4142135623730951
 10
-158.0543569552
 20
-106.7207883214741
 10
-158.0543569552001
 20
-94.72088777377406
 42
0.4142135623730951
  0
LWPOLYLINE
  5
168
330
1F
100
AcDbEntity
  8
0
100
AcDbPolyline
 90
        8
 70
     1
 43
0.0
 10
-196.1543574261
 20
-106.7207883214741
 10
-196.1543574261
 20
-94.72088777377406
 42
0.4142135623730951
 10
-197.1543574261
 20
-93.72088777377411
 10
-209.1553580987
 20
-93.72088777377411
 42
0.4142135623730951
 10
-210.1553580987
 20
-94.72088777377406
 10
-210.1553580987
 20
-106.7207883214741
 42
0.4142135623730951
 10
-209.1553580987
 20
-107.7207883214741
 10
-197.1543574261
 20
-107.7207883214741
 42
0.4142135623730951
  0
LWPOLYLINE
  5
169
330
1F
100
AcDbEntity
  8
0
100
AcDbPolyline
 90
        8
 70
     1
 43
0.0
 10
-129.4793575334
 20
-125.7707866942744
 10
-129.4793575333999
 20
-113.7711885935743
 42
0.4142135623730951
 10
-130.4793575334
 20
-112.7711885935743
 10
-142.480356809
 20
-112.7711885935745
 42
0.4142135623730951
 10
-143.4803568089999
 20
-113.7711885935743
 10
-143.480356809
 20
-125.7707866942744
 42
0.4142135623730951
 10
-142.480356809
 20
-126.7707866942744
 10
-130.4793575334
 20
-126.7707866942744
 42
0.4142135623730951
  0
LWPOLYLINE
  5
170
330
1F
100
AcDbEntity
  8
0
100
AcDbPolyline
 90
        8
 70
     1
 43
0.0
 10
-120.9543564843
 20
-93.7208877737741
 10
-132.9553571569
 20
-93.72088777377419
 42
0.4142135623730951
 10
-133.9553571568999
 20
-94.72088777377406
 10
-133.9553571569
 20
-106.7207883214741
 42
0.4142135623730951
 10
-132.9553571569
 20
-107.7207883214741
 10
-120.9543564843
 20
-107.7207883214741
 42
0.4142135623730951
 10
-119.9543564843
 20
-106.7207883214741
 10
-119.9543564843
 20
-94.72088777377406
 42
0.4142135623730951
  0
LWPOLYLINE
  5
171
330
1F
100
AcDbEntity
  8
0
100
AcDbPolyline
 90
        8
 70
     1
 43
0.0
 10
-180.5803568141999
 20
-126.7707866942744
 10
-168.5793561416
 20
-126.7707866942744
 42
0.4142135623730951
 10
-167.5793561416
 20
-125.7707866942744
 10
-167.5793561416
 20
-113.7711885935743
 42
0.4142135623730951
 10
-168.5793561416
 20
-112.7711885935744
 10
-180.5803568141999
 20
-112.7711885935744
 42
0.4142135623730951
 10
-181.5803568141999
 20
-113.7711885935743
 10
-181.5803568142
 20
-125.7707866942744
 42
0.4142135623730951
  0
LWPOLYLINE
  5
172
330
1F
100
AcDbEntity
  8
0
100
AcDbPolyline
 90
        8
 70
     1
 43
0.0
 10
-257.7800541448
 20
-113.7711885935743
 10
-257.7800541448
 20
-125.7707866942744
 42
0.4142135623730951
 10
-256.7800541448
 20
-126.7707866942744
 10
-244.7793552207
 20
-126.7707866942744
 42
0.4142135623730951
 10
-243.7793552207
 20
-125.7707866942744
 10
-243.7793552207001
 20
-113.7711885935743
 42
0.4142135623730951
 10
-244.7793552207
 20
-112.7711885935744
 10
-256.7800541448
 20
-112.7711885935744
 42
0.4142135623730951
  0
LWPOLYLINE
  5
173
330
1F
100
AcDbEntity
  8
0
100
AcDbPolyline
 90
        8
 70
     1
 43
0.0
 10
-13.8923560309001
 20
-145.8207887923744
 10
-1.893355839200199
 20
-145.8207887923743
 42
0.4142135623730949
 10
-0.8933558392002385
 20
-144.8207887923744
 10
-0.8933558392001145
 20
-132.8211888289744
 42
0.4142135623730951
 10
-1.893355839200199
 20
-131.8211888289743
 10
-13.8923560309001
 20
-131.8211888289744
 42
0.4142135623730951
 10
-14.89235603090004
 20
-132.8211888289744
 10
-14.89235603090009
 20
-144.8207887923744
 42
0.4142135623730951
  0
LWPOLYLINE
  5
174
330
1F
100
AcDbEntity
  8
0
100
AcDbPolyline
 90
        4
 70
     1
 43
0.0
 10
-124.130602662001
 20
-33.07910349232209
 42
-1.0
 10
-124.130602662001
 20
-34.57910349232209
 10
-178.630602662001
 20
-34.57910349232209
 42
-1.0
 10
-178.630602662001
 20
-33.07910349232209
  0
LWPOLYLINE
  5
175
330
1F
100
AcDbEntity
  8
0
100
AcDbPolyline
 90
        4
 70
     1
 43
0.0
 10
-216.130602662001
 20
-33.07910349232209
 42
-1.0
 10
-216.130602662001
 20
-34.57910349232209
 10
-270.630602662001
 20
-34.57910349232209
 42
-1.0
 10
-270.630602662001
 20
-33.07910349232209
  0
LWPOLYLINE
  5
176
330
1F
100
AcDbEntity
  8
0
100
AcDbPolyline
 90
        4
 70
     1
 43
0.0
 10
3.11913531054159
 20
-118.9531330865104
 42
-1.0
 10
1.61913531054159
 20
-118.9531330865104
 10
1.61913531054155
 20
-64.45313308650989
 42
-1.0
 10
3.11913531054155
 20
-64.45313308650989
  0
LWPOLYLINE
  5
177
330
1F
100
AcDbEntity
  8
0
100
AcDbPolyline
 90
        4
 70
     1
 43
0.0
 10
-303.143602662
 20
-119.1099257814113
 42
-1.0
 10
-304.643602662
 20
-119.1099257814113
 10
-304.643602662
 20
-64.60992578141129
 42
-1.0
 10
-303.143602662
 20
-64.60992578141129
  0
LWPOLYLINE
  5
178
330
1F
100
AcDbEntity
  8
0
100
AcDbPolyline
 90
        4
 70
     1
 43
0.0
 10
-124.130864689458
 20
-148.8271626806984
 42
-1.0
 10
-124.130864689458
 20
-150.3271626806984
 10
-178.630864689458
 20
-150.3271626806984
 42
-1.0
 10
-178.630864689458
 20
-148.8271626806984
  0
LWPOLYLINE
  5
179
330
1F
100
AcDbEntity
  8
0
100
AcDbPolyline
 90
        4
 70
     1
 43
0.0
 10
-7.367864689458039
 20
-148.8271626806984
 42
-1.0
 10
-7.367864689458043
 20
-150.3271626806984
 10
-61.8678646894581
 20
-150.3271626806984
 42
-1.0
 10
-61.8678646894581
 20
-148.8271626806984
  0
LWPOLYLINE
  5
180
330
1F
100
AcDbEntity
  8
0
100
AcDbPolyline
 90
        4
 70
     1
 43
0.0
 10
-238.893864689457
 20
-148.8271626806984
 42
-1.0
 10
-238.893864689457
 20
-150.3271626806984
 10
-293.3938646894571
 20
-150.3271626806984
 42
-1.0
 10
-293.3938646894571
 20
-148.8271626806984
  0
LWPOLYLINE
  5
181
330
1F
100
AcDbEntity
  8
0
100
AcDbPolyline
 90
        9
 70
     1
 43
0.0
 10
-38.99335657364864
 20
-139.3038031971533
 10
-38.99336003530016
 20
-132.8211888289744
 42
0.4142135623730951
 10
-39.9933600353002
 20
-131.8211888289744
 10
-51.9923602270001
 20
-131.8211888289744
 42
0.4142135623730951
 10
-52.99236022700013
 20
-132.8211888289744
 10
-52.99236022700004
 20
-144.8207887923744
 42
0.4142135623730951
 10
-51.9923602270001
 20
-145.8207887923743
 10
-39.9933600353002
 20
-145.8207887923743
 42
0.4142135623730951
 10
-38.99336003530029
 20
-144.8207887923744
  0
LWPOLYLINE
  5
182
330
1F
100
AcDbEntity
  8
0
100
AcDbPolyline
 90
        8
 70
     1
 43
0.0
 10
-25.7063599012864
 20
-74.67088823677419
 10
-37.70535784240021
 20
-74.67088823677397
 42
0.4142135623730951
 10
-38.70535784240033
 20
-75.67088823677408
 10
-38.70535784240014
 20
-87.67088773757411
 42
0.4142135623730951
 10
-37.70535784240021
 20
-88.67088773757405
 10
-25.7063599012864
 20
-88.6708877375741
 42
0.4142135623730951
 10
-24.7063599012864
 20
-87.67088773757411
 10
-24.7063599012865
 20
-75.67088823677408
 42
0.4142135623730951
  0
LWPOLYLINE
  5
183
330
1F
100
AcDbEntity
  8
0
100
AcDbPolyline
 90
        8
 70
     1
 43
0.0
 10
-62.8043576407001
 20
-106.7207883214742
 10
-62.80435764070009
 20
-94.72088777377418
 42
0.4142135623730951
 10
-63.80435764070011
 20
-93.72088777377419
 10
-75.8053545880002
 20
-93.72088777377415
 42
0.4142135623730951
 10
-76.80535458800022
 20
-94.72088777377418
 10
-76.80535458800014
 20
-106.7207883214742
 42
0.4142135623730951
 10
-75.8053545880002
 20
-107.7207883214741
 10
-63.80435764070011
 20
-107.7207883214742
 42
0.4142135623730951
  0
LWPOLYLINE
  5
184
330
1F
100
AcDbEntity
  8
0
100
AcDbPolyline
 90
        8
 70
     1
 43
0.0
 10
-86.33035563700017
 20
-113.7711885935743
 10
-86.33035563700014
 20
-125.7707866942744
 42
0.4142135623730951
 10
-85.33035563700019
 20
-126.7707866942743
 10
-73.3293586897002
 20
-126.7707866942744
 42
0.4142135623730951
 10
-72.32935868970018
 20
-125.7707866942744
 10
-72.32935868970018
 20
-113.7711885935743
 42
0.4142135623730951
 10
-73.3293586897002
 20
-112.7711885935744
 10
-85.33035563700019
 20
-112.7711885935744
 42
0.4142135623730951
  0
LWPOLYLINE
  5
185
330
1F
100
AcDbEntity
  8
0
100
AcDbPolyline
 90
        8
 70
     1
 43
0.0
 10
-87.61826097240019
 20
-74.67088823677389
 10
-99.61925791970021
 20
-74.67088823677404
 42
0.4142135623730951
 10
-100.6192579197002
 20
-75.67088823677408
 10
-100.6192579197001
 20
-87.67088773757411
 42
0.4142135623730951
 10
-99.61925791970021
 20
-88.670887737574
 10
-87.61826097240019
 20
-88.67088773757407
 42
0.4142135623730951
 10
-86.61826097240021
 20
-87.67088773757411
 10
-86.61826097239998
 20
-75.67088823677408
 42
0.4142135623730951
  0
LWPOLYLINE
  5
186
330
1F
100
AcDbEntity
  8
0
100
AcDbPolyline
 90
        8
 70
     1
 43
0.0
 10
-78.09335678090019
 20
-36.57088776587409
 10
-90.09235697260022
 20
-36.57088776587397
 42
0.4142135623730951
 10
-91.09235697260031
 20
-37.57088776587411
 10
-91.09235697260004
 20
-49.57088633537418
 42
0.4142135623730951
 10
-90.09235697260022
 20
-50.57088633537403
 10
-78.09335678090019
 20
-50.57088633537417
 42
0.4142135623730951
 10
-77.09335678090022
 20
-49.57088633537418
 10
-77.09335678090019
 20
-37.57088776587411
 42
0.4142135623730951
  0
LWPOLYLINE
  5
187
330
1F
100
AcDbEntity
  8
0
100
AcDbPolyline
 90
        8
 70
     1
 43
0.0
 10
-78.09335678090019
 20
-55.62088613867409
 10
-90.09235697260022
 20
-55.62088613867408
 42
0.4142135623730951
 10
-91.09235697260031
 20
-56.62088613867418
 10
-91.09235697260016
 20
-68.62088843347409
 42
0.4142135623730951
 10
-90.09235697260022
 20
-69.62088843347402
 10
-78.09335678090019
 20
-69.62088843347408
 42
0.4142135623730951
 10
-77.09335678090022
 20
-68.62088843347409
 10
-77.0933567809001
 20
-56.62088613867418
 42
0.4142135623730951
  0
LWPOLYLINE
  5
188
330
1F
100
AcDbEntity
  8
0
100
AcDbPolyline
 90
        8
 70
     1
 43
0.0
 10
-81.56735592360028
 20
-75.67088823677408
 10
-81.56735592360014
 20
-87.67088773757411
 42
0.4142135623730951
 10
-80.56735592360018
 20
-88.67088773757405
 10
-68.56835573190021
 20
-88.67088773757407
 42
0.4142135623730951
 10
-67.56835573190023
 20
-87.67088773757411
 10
-67.56835573190008
 20
-75.67088823677408
 42
0.4142135623730951
 10
-68.56835573190021
 20
-74.67088823677397
 10
-80.56735592360018
 20
-74.67088823677397
 42
0.4142135623730951
  0
LWPOLYLINE
  5
189
330
1F
100
AcDbEntity
  8
0
100
AcDbPolyline
 90
        8
 70
     1
 43
0.0
 10
-91.38035544030019
 20
-125.7707866942744
 10
-91.38035544030016
 20
-113.7711885935743
 42
0.4142135623730951
 10
-92.38035544030019
 20
-112.7711885935743
 10
-104.3803577351
 20
-112.7711885935743
 42
0.4142135623730951
 10
-105.3803577351
 20
-113.7711885935743
 10
-105.3803577350999
 20
-125.7707866942744
 42
0.4142135623730951
 10
-104.3803577351
 20
-126.7707866942743
 10
-92.38035544030019
 20
-126.7707866942744
 42
0.4142135623730951
  0
LWPOLYLINE
  5
190
330
1F
100
AcDbEntity
  8
0
100
AcDbPolyline
 90
        8
 70
     1
 43
0.0
 10
-95.85535668600021
 20
-94.72088777377418
 10
-95.85535668600014
 20
-106.7207883214742
 42
0.4142135623730951
 10
-94.8553566860002
 20
-107.7207883214742
 10
-82.85435973880019
 20
-107.7207883214742
 42
0.4142135623730951
 10
-81.85435973880016
 20
-106.7207883214742
 10
-81.85435973880014
 20
-94.72088777377418
 42
0.4142135623730951
 10
-82.85435973880019
 20
-93.72088777377413
 10
-94.8553566860002
 20
-93.72088777377419
 42
0.4142135623730951
  0
LWPOLYLINE
  5
191
330
1F
100
AcDbEntity
  8
0
100
AcDbPolyline
 90
        8
 70
     1
 43
0.0
 10
-61.51735382550021
 20
-88.6708877375741
 10
-49.5183536338002
 20
-88.67088773757407
 42
0.4142135623730951
 10
-48.51835363380022
 20
-87.67088773757411
 10
-48.51835363380008
 20
-75.67088823677408
 42
0.4142135623730951
 10
-49.5183536338002
 20
-74.67088823677397
 10
-61.51735382550021
 20
-74.67088823677397
 42
0.4142135623730951
 10
-62.51735382550031
 20
-75.67088823677408
 10
-62.5173538255002
 20
-87.67088773757411
 42
0.4142135623730951
  0
LWPOLYLINE
  5
192
330
1F
100
AcDbEntity
  8
0
100
AcDbPolyline
 90
        8
 70
     1
 43
0.0
 10
-59.04335468290021
 20
-55.62088613867409
 42
-0.4142135623730951
 10
-58.04335468290012
 20
-56.62088613867418
 10
-58.04335468290023
 20
-68.62088843347409
 42
-0.4142135623730951
 10
-59.04335468290021
 20
-69.62088843347409
 10
-71.04235487450009
 20
-69.62088843347402
 42
-0.4142135623730951
 10
-72.04235487450009
 20
-68.62088843347409
 10
-72.04235487450024
 20
-56.62088613867418
 42
-0.4142135623730951
 10
-71.04235487450009
 20
-55.62088613867409
  0
LWPOLYLINE
  5
193
330
1F
100
AcDbEntity
  8
0
100
AcDbPolyline
 90
        8
 70
     1
 43
0.0
 10
-59.04335468290021
 20
-36.570887765874
 42
-0.4142135623730951
 10
-58.04335468290012
 20
-37.57088776587411
 10
-58.04335468290023
 20
-49.57088633537418
 42
-0.4142135623730951
 10
-59.04335468290021
 20
-50.57088633537409
 10
-71.04235487450009
 20
-50.57088633537403
 42
-0.4142135623730951
 10
-72.04235487450002
 20
-49.57088633537418
 10
-72.04235487450024
 20
-37.57088776587411
 42
-0.4142135623730951
 10
-71.04235487450009
 20
-36.57088776587409
  0
LWPOLYLINE
  5
194
330
1F
100
AcDbEntity
  8
0
100
AcDbPolyline
 90
        8
 70
     1
 43
0.0
 10
-109.1423553454
 20
-50.57088633537403
 42
-0.4142135623730951
 10
-110.1423553453998
 20
-49.57088633537418
 10
-110.1423553454001
 20
-37.57088776587411
 42
-0.4142135623730951
 10
-109.1423553454
 20
-36.57088776587409
 10
-97.1433551537002
 20
-36.570887765874
 42
-0.4142135623730951
 10
-96.14335515370008
 20
-37.57088776587411
 10
-96.14335515370022
 20
-49.57088633537418
 42
-0.4142135623730951
 10
-97.1433551537002
 20
-50.57088633537409
  0
LWPOLYLINE
  5
195
330
1F
100
AcDbEntity
  8
0
100
AcDbPolyline
 90
        8
 70
     1
 43
0.0
 10
-109.1423553454
 20
-69.62088843347402
 42
-0.4142135623730951
 10
-110.1423553453999
 20
-68.62088843347409
 10
-110.1423553454001
 20
-56.62088613867418
 42
-0.4142135623730951
 10
-109.1423553454
 20
-55.62088613867409
 10
-97.1433551537002
 20
-55.62088613867409
 42
-0.4142135623730951
 10
-96.14335515370008
 20
-56.62088613867418
 10
-96.14335515370022
 20
-68.62088843347409
 42
-0.4142135623730951
 10
-97.1433551537002
 20
-69.62088843347409
  0
LWPOLYLINE
  5
196
330
1F
100
AcDbEntity
  8
0
100
AcDbPolyline
 90
        8
 70
     1
 43
0.0
 10
-118.6692581552
 20
-88.670887737574
 10
-106.669257723
 20
-88.67088773757407
 42
0.4142135623730951
 10
-105.669257723
 20
-87.67088773757411
 10
-105.6692577229998
 20
-75.67128684287419
 42
0.4142135623730951
 10
-106.669257723
 20
-74.67128684287408
 10
-118.6692581552
 20
-74.67128684287422
 42
0.4142135623730951
 10
-119.6692581551999
 20
-75.67128684287419
 10
-119.6692581551998
 20
-87.67088773757411
 42
0.4142135623730951
  0
LWPOLYLINE
  5
197
330
1F
100
AcDbEntity
  8
0
100
AcDbPolyline
 90
        8
 70
     1
 43
0.0
 10
-113.9053587841
 20
-107.7207883214741
 10
-101.9053564893
 20
-107.7207883214742
 42
0.4142135623730951
 10
-100.9053564893
 20
-106.7207883214742
 10
-100.9053564893
 20
-94.72118765957418
 42
0.4142135623730951
 10
-101.9053564893
 20
-93.72118765957415
 10
-113.9053587841
 20
-93.72118765957415
 42
0.4142135623730951
 10
-114.9053587841
 20
-94.72118765957418
 10
-114.9053587840999
 20
-106.7207883214742
 42
0.4142135623730951
  0
LWPOLYLINE
  5
198
330
1F
100
AcDbEntity
  8
0
100
AcDbPolyline
 90
        8
 70
     1
 43
0.0
 10
-91.09236442300042
 20
-132.8211888289744
 10
-91.09236442300016
 20
-144.8211883297744
 42
0.4142135623730951
 10
-90.0923644230002
 20
-145.8211883297743
 10
-78.09336423130019
 20
-145.8211883297744
 42
0.4142135623730951
 10
-77.0933642313002
 20
-144.8211883297744
 10
-77.09336423130007
 20
-132.8211888289744
 42
0.4142135623730951
 10
-78.09336423130019
 20
-131.8211888289743
 10
-90.0923644230002
 20
-131.8211888289742
 42
0.4142135623730951
  0
LWPOLYLINE
  5
199
330
1F
100
AcDbEntity
  8
0
100
AcDbPolyline
 90
        8
 70
     1
 43
0.0
 10
-72.04236232500041
 20
-132.8211888289744
 10
-72.04236232500024
 20
-144.8211883297743
 42
0.4142135623731237
 10
-71.0423623250002
 20
-145.8211883297743
 10
-59.0433621333002
 20
-145.8211883297744
 42
0.4142135623730951
 10
-58.04336213330021
 20
-144.8211883297744
 10
-58.04336213330008
 20
-132.8211888289744
 42
0.4142135623730951
 10
-59.0433621333002
 20
-131.8211888289743
 10
-71.0423623250002
 20
-131.8211888289743
 42
0.4142135623731237
  0
LWPOLYLINE
  5
200
330
1F
100
AcDbEntity
  8
0
100
AcDbPolyline
 90
        8
 70
     1
 43
0.0
 10
-110.142366521
 20
-132.8211888289744
 10
-110.1423665209999
 20
-144.8211883297744
 42
0.4142135623730951
 10
-109.142366521
 20
-145.8211883297743
 10
-97.1433663293002
 20
-145.8211883297744
 42
0.4142135623730951
 10
-96.14336632930019
 20
-144.8211883297744
 10
-96.1433663293001
 20
-132.8211888289744
 42
0.4142135623730951
 10
-97.1433663293002
 20
-131.8211888289743
 10
-109.142366521
 20
-131.8211888289744
 42
0.4142135623730951
  0
CIRCLE
  5
201
330
1F
100
AcDbEntity
  8
0
100
AcDbCircle
 10
17.4181846199998
 20
-53.09583625062439
 30
-0.0000000000001676
 40
1.249499659999999
210
0.0
220
0.0
230
-1.0
  0
CIRCLE
  5
202
330
1F
100
AcDbEntity
  8
0
100
AcDbCircle
 10
279.10244662
 20
-138.8210394506243
 30
0.0000000000001765
 40
1.249499659999989
210
0.0
220
0.0
230
-1.0
  0
CIRCLE
  5
203
330
1F
100
AcDbEntity
  8
0
100
AcDbCircle
 10
114.49306286
 20
-138.8210470706244
 30
0.0000000000001887
 40
1.249499660000009
210
0.0
220
0.0
230
-1.0
  0
CIRCLE
  5
204
330
1F
100
AcDbEntity
  8
0
100
AcDbCircle
 10
17.3844813599998
 20
-129.2606394706244
 30
0.0000000000001277
 40
1.249499659999999
210
0.0
220
0.0
230
-1.0
  0
CIRCLE
  5
205
330
1F
100
AcDbEntity
  8
0
100
AcDbCircle
 10
65.00893017999979
 20
-72.11213807062439
 30
-0.0000000000000977
 40
1.249499659999999
210
0.0
220
0.0
230
-1.0
  0
CIRCLE
  5
206
330
1F
100
AcDbEntity
  8
0
100
AcDbCircle
 10
169.81818462
 20
-53.09583879062437
 30
-0.0000000000001488
 40
1.249499659999989
210
0.0
220
0.0
230
-1.0
  0
CIRCLE
  5
207
330
1F
100
AcDbEntity
  8
0
100
AcDbCircle
 10
236.45948136
 20
-72.1120390106244
 30
-0.0000000000000799
 40
1.249499659999989
210
0.0
220
0.0
230
-1.0
  0
CIRCLE
  5
208
330
1F
100
AcDbEntity
  8
0
100
AcDbCircle
 10
265.06841068
 20
-53.09576259062438
 30
-0.0000000000001554
 40
1.249499659999989
210
0.0
220
0.0
230
-1.0
  0
ENDSEC
  0
SECTION
  2
OBJECTS
  0
DICTIONARY
  5
C
330
0
100
AcDbDictionary
281
     1
  3
ACAD_BACKGROUND
350
1005B
  3
ACAD_CIP_PREVIOUS_PRODUCT_INFO
350
1005A
  3
ACAD_COLOR
350
10036
  3
ACAD_DETAILVIEWSTYLE
350
10051
  3
ACAD_GROUP
350
D
  3
ACAD_LAYOUT
350
10037
  3
ACAD_MATERIAL
350
10004
  3
ACAD_MLEADERSTYLE
350
1004D
  3
ACAD_MLINESTYLE
350
17
  3
ACAD_PLOTSETTINGS
350
10054
  3
ACAD_PLOTSTYLENAME
350
10002
  3
ACAD_SCALELIST
350
1003B
  3
ACAD_SECTIONVIEWSTYLE
350
1004F
  3
ACAD_TABLESTYLE
350
10038
  3
ACAD_VISUALSTYLE
350
1001D
  3
ACDB_RECOMPOSE_DATA
350
1006D
  3
AcDbVariableDictionary
350
10061
  0
DICTIONARY
  5
1005F
330
50
100
AcDbDictionary
280
     1
281
     1
  3
ADSK_XREC_LAYER_RECONCILED
360
10060
  0
DICTIONARY
  5
1005B
102
{ACAD_REACTORS
330
C
102
}
330
C
100
AcDbDictionary
281
     1
  0
XRECORD
  5
1005A
102
{ACAD_REACTORS
330
C
102
}
330
C
100
AcDbXrecord
280
     1
300
ACD
300
2022
300

  0
DICTIONARY
  5
10036
102
{ACAD_REACTORS
330
C
102
}
330
C
100
AcDbDictionary
281
     1
  0
DICTIONARY
  5
10051
102
{ACAD_REACTORS
330
C
102
}
330
C
100
AcDbDictionary
281
     1
  3
Imperial24
350
10052
  0
DICTIONARY
  5
D
330
C
100
AcDbDictionary
281
     1
  0
DICTIONARY
  5
10037
102
{ACAD_REACTORS
330
C
102
}
330
C
100
AcDbDictionary
281
     1
  3
Layout1
350
10056
  3
Model
350
10055
  0
DICTIONARY
  5
10004
102
{ACAD_REACTORS
330
C
102
}
330
C
100
AcDbDictionary
281
     1
  3
ByBlock
350
1000D
  3
ByLayer
350
10005
  3
Global
350
10015
  0
DICTIONARY
  5
1004D
102
{ACAD_REACTORS
330
C
102
}
330
C
100
AcDbDictionary
281
     1
  3
Standard
350
1004E
  0
DICTIONARY
  5
17
330
C
100
AcDbDictionary
281
     1
  3
Standard
350
1003A
  0
DICTIONARY
  5
10054
102
{ACAD_REACTORS
330
C
102
}
330
C
100
AcDbDictionary
281
     1
  0
ACDBDICTIONARYWDFLT
  5
10002
102
{ACAD_REACTORS
330
C
102
}
330
C
100
AcDbDictionary
281
     1
  3
Normal
350
10003
100
AcDbDictionaryWithDefault
340
10003
  0
DICTIONARY
  5
1003B
102
{ACAD_REACTORS
330
C
102
}
330
C
100
AcDbDictionary
281
     1
  3
A0
350
1003C
  3
A1
350
1003D
  3
A2
350
1003E
  3
A3
350
1003F
  3
A4
350
10040
  3
A5
350
10041
  3
A6
350
10042
  3
A7
350
10043
  3
A8
350
10044
  3
A9
350
10045
  3
B0
350
10046
  3
B1
350
10047
  3
B2
350
10048
  3
B3
350
10049
  3
B4
350
1004A
  3
B5
350
1004B
  3
B6
350
1004C
  0
DICTIONARY
  5
1004F
102
{ACAD_REACTORS
330
C
102
}
330
C
100
AcDbDictionary
281
     1
  3
Imperial24
350
10050
  0
DICTIONARY
  5
10038
102
{ACAD_REACTORS
330
C
102
}
330
C
100
AcDbDictionary
281
     1
  3
Standard
350
10039
  0
DICTIONARY
  5
1001D
102
{ACAD_REACTORS
330
C
102
}
330
C
100
AcDbDictionary
281
     1
  3
2dWireframe
350
10023
  3
Basic
350
10022
  3
Brighten
350
10029
  3
ColorChange
350
1002D
  3
Conceptual
350
10026
  3
Dim
350
10028
  3
EdgeColorOff
350
10035
  3
Facepattern
350
1002C
  3
Flat
350
1001E
  3
FlatWithEdges
350
1001F
  3
Gouraud
350
10020
  3
GouraudWithEdges
350
10021
  3
Hidden
350
10025
  3
JitterOff
350
10033
  3
Linepattern
350
1002B
  3
OverhangOff
350
10034
  3
Realistic
350
10027
  3
Shaded
350
10032
  3
Shaded with edges
350
10031
  3
Shades of Gray
350
1002E
  3
Sketchy
350
1002F
  3
Thicken
350
1002A
  3
Wireframe
350
10024
  3
X-Ray
350
10030
  0
XRECORD
  5
1006D
102
{ACAD_REACTORS
330
C
102
}
330
C
100
AcDbXrecord
280
     1
 90
        1
330
10039
  0
DICTIONARY
  5
10061
102
{ACAD_REACTORS
330
C
102
}
330
C
100
AcDbDictionary
281
     1
  3
CANNOSCALE
350
10067
  3
CMLEADERSTYLE
350
10063
  3
CTABLESTYLE
350
10062
  3
CVIEWDETAILSTYLE
350
10064
  3
CVIEWSECTIONSTYLE
350
10065
  3
LAYEREVAL
350
10069
  3
LAYERNOTIFY
350
1006A
  3
LIGHTINGUNITS
350
10068
  3
MSLTSCALE
350
10066
  0
XRECORD
  5
10060
102
{ACAD_REACTORS
330
1005F
102
}
330
1005F
100
AcDbXrecord
280
     1
290
     1
  0
ACDBDETAILVIEWSTYLE
  5
10052
102
{ACAD_XDICTIONARY
360
10070
102
}
102
{ACAD_REACTORS
330
10051
102
}
330
10051
100
AcDbModelDocViewStyle
 70
     0
  3
Imperial24
290
     0
100
AcDbDetailViewStyle
 70
     0
 71
     0
 90
        3
 71
     1
340
11
 62
   256
 40
0.24
340
0
 62
   256
 40
0.24
300

 40
0.36
280
     3
 71
     2
340
0
 90
       25
 62
   256
 71
     3
340
11
 62
   256
 40
0.24
 90
        1
 40
0.75
 90
        1
300
%<\AcVar ViewType \f "%tc1">% %<\AcVar ViewDetailId>%\PSCALE %<\AcVar ViewScale \f "%sn">%
 71
     4
340
0
 90
       25
 62
   256
340
0
 90
       25
 62
   256
280
     0
  0
LAYOUT
  5
10056
102
{ACAD_REACTORS
330
10037
102
}
330
10037
100
AcDbPlotSettings
  1

  2
Canon iP110 series WS
  4

  6

 40
0.0
 41
0.0
 42
0.0
 43
0.0
 44
0.0
 45
0.0
 46
0.0
 47
0.0
 48
0.0
 49
0.0
140
0.0
141
0.0
142
1.0
143
1.0
 70
   688
 72
     0
 73
     0
 74
     5
  7

 75
    16
147
1.0
 76
     0
 77
     2
 78
   300
148
0.0
149
0.0
100
AcDbLayout
  1
Layout1
 70
     1
 71
     1
 10
0.0
 20
0.0
 11
12.0
 21
9.0
 12
0.0
 22
0.0
 32
0.0
 14
1.000000000000000E+20
 24
1.000000000000000E+20
 34
1.000000000000000E+20
 15
-1.000000000000000E+20
 25
-1.000000000000000E+20
 35
-1.000000000000000E+20
146
0.0
 13
0.0
 23
0.0
 33
0.0
 16
1.0
 26
0.0
 36
0.0
 17
0.0
 27
1.0
 37
0.0
 76
     0
330
1B
  0
LAYOUT
  5
10055
102
{ACAD_REACTORS
330
10037
102
}
330
10037
100
AcDbPlotSettings
  1

  2
Canon iP110 series WS
  4

  6

 40
0.0
 41
0.0
 42
0.0
 43
0.0
 44
0.0
 45
0.0
 46
0.0
 47
0.0
 48
0.0
 49
0.0
140
0.0
141
0.0
142
1.0
143
1.0
 70
  1712
 72
     0
 73
     0
 74
     0
  7

 75
     0
147
1.0
 76
     0
 77
     2
 78
   300
148
0.0
149
0.0
100
AcDbLayout
  1
Model
 70
     1
 71
     0
 10
0.0
 20
0.0
 11
12.0
 21
9.0
 12
0.0
 22
0.0
 32
0.0
 14
0.0
 24
0.0
 34
0.0
 15
0.0
 25
0.0
 35
0.0
146
0.0
 13
0.0
 23
0.0
 33
0.0
 16
1.0
 26
0.0
 36
0.0
 17
0.0
 27
1.0
 37
0.0
 76
     0
330
1F
331
10059
  0
MATERIAL
  5
1000D
102
{ACAD_XDICTIONARY
360
1000E
102
}
102
{ACAD_REACTORS
330
10004
102
}
330
10004
100
AcDbMaterial
  1
ByBlock
 72
     0
 43
0.0008202099737533
 43
0.0
 43
0.0
 43
0.0
 43
0.0
 43
0.0008202099737533
 43
0.0
 43
0.0
 43
0.0
 43
0.0
 43
1.0
 43
0.0
 43
0.0
 43
0.0
 43
0.0
 43
1.0
 77
     0
 47
0.0008202099737533
 47
0.0
 47
0.0
 47
0.0
 47
0.0
 47
0.0008202099737533
 47
0.0
 47
0.0
 47
0.0
 47
0.0
 47
1.0
 47
0.0
 47
0.0
 47
0.0
 47
0.0
 47
1.0
171
     0
 49
0.0008202099737533
 49
0.0
 49
0.0
 49
0.0
 49
0.0
 49
0.0008202099737533
 49
0.0
 49
0.0
 49
0.0
 49
0.0
 49
1.0
 49
0.0
 49
0.0
 49
0.0
 49
0.0
 49
1.0
175
     0
142
0.0008202099737533
142
0.0
142
0.0
142
0.0
142
0.0
142
0.0008202099737533
142
0.0
142
0.0
142
0.0
142
0.0
142
1.0
142
0.0
142
0.0
142
0.0
142
0.0
142
1.0
179
     0
144
0.0008202099737533
144
0.0
144
0.0
144
0.0
144
0.0
144
0.0008202099737533
144
0.0
144
0.0
144
0.0
144
0.0
144
1.0
144
0.0
144
0.0
144
0.0
144
0.0
144
1.0
147
0.0008202099737533
147
0.0
147
0.0
147
0.0
147
0.0
147
0.0008202099737533
147
0.0
147
0.0
147
0.0
147
0.0
147
1.0
147
0.0
147
0.0
147
0.0
147
0.0
147
1.0
  0
MATERIAL
  5
10005
102
{ACAD_XDICTIONARY
360
10006
102
}
102
{ACAD_REACTORS
330
10004
102
}
330
10004
100
AcDbMaterial
  1
ByLayer
 72
     0
 43
0.0008202099737533
 43
0.0
 43
0.0
 43
0.0
 43
0.0
 43
0.0008202099737533
 43
0.0
 43
0.0
 43
0.0
 43
0.0
 43
1.0
 43
0.0
 43
0.0
 43
0.0
 43
0.0
 43
1.0
 77
     0
 47
0.0008202099737533
 47
0.0
 47
0.0
 47
0.0
 47
0.0
 47
0.0008202099737533
 47
0.0
 47
0.0
 47
0.0
 47
0.0
 47
1.0
 47
0.0
 47
0.0
 47
0.0
 47
0.0
 47
1.0
171
     0
 49
0.0008202099737533
 49
0.0
 49
0.0
 49
0.0
 49
0.0
 49
0.0008202099737533
 49
0.0
 49
0.0
 49
0.0
 49
0.0
 49
1.0
 49
0.0
 49
0.0
 49
0.0
 49
0.0
 49
1.0
175
     0
142
0.0008202099737533
142
0.0
142
0.0
142
0.0
142
0.0
142
0.0008202099737533
142
0.0
142
0.0
142
0.0
142
0.0
142
1.0
142
0.0
142
0.0
142
0.0
142
0.0
142
1.0
179
     0
144
0.0008202099737533
144
0.0
144
0.0
144
0.0
144
0.0
144
0.0008202099737533
144
0.0
144
0.0
144
0.0
144
0.0
144
1.0
144
0.0
144
0.0
144
0.0
144
0.0
144
1.0
147
0.0008202099737533
147
0.0
147
0.0
147
0.0
147
0.0
147
0.0008202099737533
147
0.0
147
0.0
147
0.0
147
0.0
147
1.0
147
0.0
147
0.0
147
0.0
147
0.0
147
1.0
  0
MATERIAL
  5
10015
102
{ACAD_XDICTIONARY
360
10016
102
}
102
{ACAD_REACTORS
330
10004
102
}
330
10004
100
AcDbMaterial
  1
Global
 72
     0
 43
0.0008202099737533
 43
0.0
 43
0.0
 43
0.0
 43
0.0
 43
0.0008202099737533
 43
0.0
 43
0.0
 43
0.0
 43
0.0
 43
1.0
 43
0.0
 43
0.0
 43
0.0
 43
0.0
 43
1.0
 77
     0
 47
0.0008202099737533
 47
0.0
 47
0.0
 47
0.0
 47
0.0
 47
0.0008202099737533
 47
0.0
 47
0.0
 47
0.0
 47
0.0
 47
1.0
 47
0.0
 47
0.0
 47
0.0
 47
0.0
 47
1.0
171
     0
 49
0.0008202099737533
 49
0.0
 49
0.0
 49
0.0
 49
0.0
 49
0.0008202099737533
 49
0.0
 49
0.0
 49
0.0
 49
0.0
 49
1.0
 49
0.0
 49
0.0
 49
0.0
 49
0.0
 49
1.0
175
     0
142
0.0008202099737533
142
0.0
142
0.0
142
0.0
142
0.0
142
0.0008202099737533
142
0.0
142
0.0
142
0.0
142
0.0
142
1.0
142
0.0
142
0.0
142
0.0
142
0.0
142
1.0
179
     0
144
0.0008202099737533
144
0.0
144
0.0
144
0.0
144
0.0
144
0.0008202099737533
144
0.0
144
0.0
144
0.0
144
0.0
144
1.0
144
0.0
144
0.0
144
0.0
144
0.0
144
1.0
147
0.0008202099737533
147
0.0
147
0.0
147
0.0
147
0.0
147
0.0008202099737533
147
0.0
147
0.0
147
0.0
147
0.0
147
1.0
147
0.0
147
0.0
147
0.0
147
0.0
147
1.0
  0
MLEADERSTYLE
  5
1004E
102
{ACAD_REACTORS
330
1004D
102
}
330
1004D
100
AcDbMLeaderStyle
179
     2
170
     2
171
     1
172
     0
 90
        2
 40
0.0
 41
0.0
173
     1
 91
-1056964608
340
14
 92
       -2
290
     1
 42
0.09
291
     1
 43
0.36
  3
Standard
 44
0.18
300

342
11
174
     1
178
     6
175
     1
176
     0
 93
-1056964608
 45
0.18
292
     0
297
     0
 46
0.18
 94
-1056964608
 47
1.0
 49
1.0
140
1.0
293
     1
141
0.0
294
     1
177
     0
142
1.0
295
     0
296
     0
143
0.125
271
     0
272
     9
273
     9
298
     0
  0
MLINESTYLE
  5
1003A
102
{ACAD_REACTORS
330
17
102
}
330
17
100
AcDbMlineStyle
  2
STANDARD
 70
     0
  3

 62
   256
 51
90.0
 52
90.0
 71
     2
 49
0.5
 62
   256
  6
BYLAYER
 49
-0.5
 62
   256
  6
BYLAYER
  0
ACDBPLACEHOLDER
  5
10003
102
{ACAD_REACTORS
330
10002
102
}
330
10002
  0
SCALE
  5
1003C
102
{ACAD_REACTORS
330
1003B
102
}
330
1003B
100
AcDbScale
 70
     0
300
1:1
140
1.0
141
1.0
290
     1
  0
SCALE
  5
1003D
102
{ACAD_REACTORS
330
1003B
102
}
330
1003B
100
AcDbScale
 70
     0
300
1/128" = 1'-0"
140
0.0078125
141
12.0
290
     0
  0
SCALE
  5
1003E
102
{ACAD_REACTORS
330
1003B
102
}
330
1003B
100
AcDbScale
 70
     0
300
1/64" = 1'-0"
140
0.015625
141
12.0
290
     0
  0
SCALE
  5
1003F
102
{ACAD_REACTORS
330
1003B
102
}
330
1003B
100
AcDbScale
 70
     0
300
1/32" = 1'-0"
140
0.03125
141
12.0
290
     0
  0
SCALE
  5
10040
102
{ACAD_REACTORS
330
1003B
102
}
330
1003B
100
AcDbScale
 70
     0
300
1/16" = 1'-0"
140
0.0625
141
12.0
290
     0
  0
SCALE
  5
10041
102
{ACAD_REACTORS
330
1003B
102
}
330
1003B
100
AcDbScale
 70
     0
300
3/32" = 1'-0"
140
0.09375
141
12.0
290
     0
  0
SCALE
  5
10042
102
{ACAD_REACTORS
330
1003B
102
}
330
1003B
100
AcDbScale
 70
     0
300
1/8" = 1'-0"
140
0.125
141
12.0
290
     0
  0
SCALE
  5
10043
102
{ACAD_REACTORS
330
1003B
102
}
330
1003B
100
AcDbScale
 70
     0
300
3/16" = 1'-0"
140
0.1875
141
12.0
290
     0
  0
SCALE
  5
10044
102
{ACAD_REACTORS
330
1003B
102
}
330
1003B
100
AcDbScale
 70
     0
300
1/4" = 1'-0"
140
0.25
141
12.0
290
     0
  0
SCALE
  5
10045
102
{ACAD_REACTORS
330
1003B
102
}
330
1003B
100
AcDbScale
 70
     0
300
3/8" = 1'-0"
140
0.375
141
12.0
290
     0
  0
SCALE
  5
10046
102
{ACAD_REACTORS
330
1003B
102
}
330
1003B
100
AcDbScale
 70
     0
300
1/2" = 1'-0"
140
0.5
141
12.0
290
     0
  0
SCALE
  5
10047
102
{ACAD_REACTORS
330
1003B
102
}
330
1003B
100
AcDbScale
 70
     0
300
3/4" = 1'-0"
140
0.75
141
12.0
290
     0
  0
SCALE
  5
10048
102
{ACAD_REACTORS
330
1003B
102
}
330
1003B
100
AcDbScale
 70
     0
300
1" = 1'-0"
140
1.0
141
12.0
290
     0
  0
SCALE
  5
10049
102
{ACAD_REACTORS
330
1003B
102
}
330
1003B
100
AcDbScale
 70
     0
300
1-1/2" = 1'-0"
140
1.5
141
12.0
290
     0
  0
SCALE
  5
1004A
102
{ACAD_REACTORS
330
1003B
102
}
330
1003B
100
AcDbScale
 70
     0
300
3" = 1'-0"
140
3.0
141
12.0
290
     0
  0
SCALE
  5
1004B
102
{ACAD_REACTORS
330
1003B
102
}
330
1003B
100
AcDbScale
 70
     0
300
6" = 1'-0"
140
6.0
141
12.0
290
     0
  0
SCALE
  5
1004C
102
{ACAD_REACTORS
330
1003B
102
}
330
1003B
100
AcDbScale
 70
     0
300
1'-0" = 1'-0"
140
12.0
141
12.0
290
     0
  0
ACDBSECTIONVIEWSTYLE
  5
10050
102
{ACAD_XDICTIONARY
360
1006E
102
}
102
{ACAD_REACTORS
330
1004F
102
}
330
1004F
100
AcDbModelDocViewStyle
 70
     0
  3
Imperial24
290
     0
100
AcDbSectionViewStyle
 70
     0
 71
     0
 90
       78
 71
     1
340
11
 62
   256
 40
0.24
340
0
340
0
 62
   256
 40
0.24
300
I, O, Q, S, X, Z
 40
0.48
 90
        3
 40
0.18
 90
        1
 71
     2
340
0
 90
       25
 62
   256
340
0
 90
       50
 62
   256
 40
0.24
 40
0.0
 40
0.24
 71
     3
340
11
 62
   256
 40
0.24
 90
        1
 40
0.75
 90
        1
300
%<\AcVar ViewType \f "%tc1">% %<\AcVar ViewSectionStartId>%-%<\AcVar ViewSectionEndId>%\PSCALE %<\AcVar ViewScale \f "%sn">%
 71
     4
 62
   256
 62
   257
300
ANSI31
 40
1.0
 90
        0
290
     0
290
     0
 90
        6
 40
0.0
 40
1.570796326794896
 40
0.2617993877991494
 40
1.308996938995747
 40
-0.2617993877991494
 40
1.832595714594046
  0
TABLESTYLE
  5
10039
102
{ACAD_XDICTIONARY
360
1006B
102
}
102
{ACAD_REACTORS
330
10038
102
}
330
10038
100
AcDbTableStyle
280
     0
  3
Standard
 70
     0
 71
     0
 40
0.06
 41
0.06
280
     0
281
     0
  7
STANDARD
140
0.18
170
     2
 62
     0
 63
     7
283
     0
 90
      512
 91
        0
  1

274
    -2
284
     1
 64
     0
275
    -2
285
     1
 65
     0
276
    -2
286
     1
 66
     0
277
    -2
287
     1
 67
     0
278
    -2
288
     1
 68
     0
279
    -2
289
     1
 69
     0
  7
STANDARD
140
0.25
170
     5
 62
     0
 63
     7
283
     0
 90
      512
 91
        0
  1

274
    -2
284
     1
 64
     0
275
    -2
285
     1
 65
     0
276
    -2
286
     1
 66
     0
277
    -2
287
     1
 67
     0
278
    -2
288
     1
 68
     0
279
    -2
289
     1
 69
     0
  7
STANDARD
140
0.18
170
     5
 62
     0
 63
     7
283
     0
 90
      512
 91
        0
  1

274
    -2
284
     1
 64
     0
275
    -2
285
     1
 65
     0
276
    -2
286
     1
 66
     0
277
    -2
287
     1
 67
     0
278
    -2
288
     1
 68
     0
279
    -2
289
     1
 69
     0
  0
VISUALSTYLE
  5
10023
102
{ACAD_REACTORS
330
1001D
102
}
330
1001D
100
AcDbVisualStyle
  2
2dWireframe
 70
     4
177
     3
291
     0
 70
    58
 90
        0
176
     1
 90
        2
176
     1
 90
        0
176
     1
 90
        0
176
     1
 40
0.6
176
     1
 40
30.0
176
     1
 62
     7
420
 16777215
176
     1
 90
        1
176
     1
 90
        4
176
     1
 62
     7
176
     1
 62
   257
176
     1
 90
        1
176
     1
 90
        1
176
     1
 40
1.0
176
     1
 90
        0
176
     1
 62
   257
176
     1
 40
1.0
176
     1
 90
        1
176
     1
 90
        6
176
     1
 90
        2
176
     1
 62
     7
176
     1
 90
        5
176
     1
 90
        0
176
     1
 90
        0
176
     1
290
     0
176
     1
 90
        1
176
     1
 40
0.0
176
     1
 90
        0
176
     1
290
     1
176
     1
290
     1
176
     1
290
     0
176
     1
290
     0
176
     1
290
     0
176
     1
290
     0
176
     1
290
     0
176
     1
290
     0
176
     1
290
     0
176
     1
 90
       50
176
     1
 40
0.0
176
     1
 40
1.0
176
     1
 90
        0
176
     1
 62
    18
420
        0
176
     1
 90
       50
176
     1
 90
        3
176
     1
 62
     5
420
      255
176
     1
290
     0
176
     1
 90
       50
176
     1
 90
       50
176
     1
 90
       50
176
     1
290
     0
176
     1
 90
       50
176
     1
 62
   256
176
     0
 40
1.0
176
     0
 90
        2
176
     1
  1
strokes_ogs.tif
176
     1
290
     0
176
     1
 40
1.0
176
     1
 40
1.0
176
     1
1001
ACAD
1000
AcDbSavedByObjectVersion
1070
     0
  0
VISUALSTYLE
  5
10022
102
{ACAD_REACTORS
330
1001D
102
}
330
1001D
100
AcDbVisualStyle
  2
Basic
 70
     7
177
     3
291
     1
 70
    58
 90
        1
176
     1
 90
        0
176
     1
 90
        1
176
     1
 90
        0
176
     1
 40
0.6
176
     1
 40
30.0
176
     1
 62
     7
420
 16777215
176
     1
 90
        0
176
     1
 90
        4
176
     1
 62
     7
176
     1
 62
   257
176
     1
 90
        1
176
     1
 90
        1
176
     1
 40
1.0
176
     1
 90
        8
176
     1
 62
     7
176
     1
 40
1.0
176
     1
 90
        1
176
     1
 90
        6
176
     1
 90
        2
176
     1
 62
     7
176
     1
 90
        5
176
     1
 90
        0
176
     1
 90
        0
176
     1
290
     0
176
     1
 90
        1
176
     1
 40
0.0
176
     1
 90
        0
176
     1
290
     0
176
     1
290
     1
176
     1
290
     1
176
     1
290
     0
176
     1
290
     0
176
     1
290
     0
176
     1
290
     0
176
     1
290
     0
176
     1
290
     0
176
     1
 90
       50
176
     1
 40
0.0
176
     1
 40
1.0
176
     1
 90
        0
176
     1
 62
    18
420
        0
176
     1
 90
       50
176
     1
 90
        3
176
     1
 62
     5
420
      255
176
     1
290
     0
176
     1
 90
       50
176
     1
 90
       50
176
     1
 90
       50
176
     1
290
     0
176
     1
 90
       50
176
     1
 62
   256
176
     0
 40
1.0
176
     0
 90
        2
176
     1
  1
strokes_ogs.tif
176
     1
290
     0
176
     1
 40
1.0
176
     1
 40
1.0
176
     1
1001
ACAD
1000
AcDbSavedByObjectVersion
1070
     0
  0
VISUALSTYLE
  5
10029
102
{ACAD_REACTORS
330
1001D
102
}
330
1001D
100
AcDbVisualStyle
  2
Brighten
 70
    12
177
     3
291
     1
 70
    58
 90
        2
176
     1
 90
        2
176
     1
 90
        0
176
     1
 90
        0
176
     1
 40
0.6
176
     1
 40
30.0
176
     1
 62
     7
420
 16777215
176
     1
 90
        1
176
     1
 90
        4
176
     1
 62
     7
176
     1
 62
   257
176
     1
 90
        1
176
     1
 90
        1
176
     1
 40
1.0
176
     1
 90
        8
176
     1
 62
     7
176
     1
 40
1.0
176
     1
 90
        1
176
     1
 90
        6
176
     1
 90
        2
176
     1
 62
     7
176
     1
 90
        5
176
     1
 90
        0
176
     1
 90
        0
176
     1
290
     0
176
     1
 90
        1
176
     1
 40
50.0
176
     1
 90
        0
176
     1
290
     0
176
     1
290
     1
176
     1
290
     1
176
     1
290
     0
176
     1
290
     0
176
     1
290
     0
176
     1
290
     0
176
     1
290
     0
176
     1
290
     0
176
     1
 90
       50
176
     1
 40
0.0
176
     1
 40
1.0
176
     1
 90
        0
176
     1
 62
    18
420
        0
176
     1
 90
       50
176
     1
 90
        3
176
     1
 62
     5
420
      255
176
     1
290
     0
176
     1
 90
       50
176
     1
 90
       50
176
     1
 90
       50
176
     1
290
     0
176
     1
 90
       50
176
     1
 62
   256
176
     0
 40
1.0
176
     0
 90
        2
176
     1
  1
strokes_ogs.tif
176
     1
290
     0
176
     1
 40
1.0
176
     1
 40
1.0
176
     1
1001
ACAD
1000
AcDbSavedByObjectVersion
1070
     0
  0
VISUALSTYLE
  5
1002D
102
{ACAD_REACTORS
330
1001D
102
}
330
1001D
100
AcDbVisualStyle
  2
ColorChange
 70
    16
177
     3
291
     1
 70
    58
 90
        2
176
     1
 90
        2
176
     1
 90
        3
176
     1
 90
        0
176
     1
 40
0.6
176
     1
 40
30.0
176
     1
 62
     8
420
  8421504
176
     1
 90
        1
176
     1
 90
        4
176
     1
 62
     7
176
     1
 62
   257
176
     1
 90
        1
176
     1
 90
        1
176
     1
 40
1.0
176
     1
 90
        8
176
     1
 62
     8
420
  8421504
176
     1
 40
1.0
176
     1
 90
        1
176
     1
 90
        6
176
     1
 90
        2
176
     1
 62
     7
176
     1
 90
        5
176
     1
 90
        0
176
     1
 90
        0
176
     1
290
     0
176
     1
 90
        1
176
     1
 40
0.0
176
     1
 90
        0
176
     1
290
     0
176
     1
290
     1
176
     1
290
     1
176
     1
290
     0
176
     1
290
     0
176
     1
290
     0
176
     1
290
     0
176
     1
290
     0
176
     1
290
     0
176
     1
 90
       50
176
     1
 40
0.0
176
     1
 40
1.0
176
     1
 90
        0
176
     1
 62
    18
420
        0
176
     1
 90
       50
176
     1
 90
        3
176
     1
 62
     5
420
      255
176
     1
290
     0
176
     1
 90
       50
176
     1
 90
       50
176
     1
 90
       50
176
     1
290
     0
176
     1
 90
       50
176
     1
 62
   256
176
     0
 40
1.0
176
     0
 90
        2
176
     1
  1
strokes_ogs.tif
176
     1
290
     0
176
     1
 40
1.0
176
     1
 40
1.0
176
     1
1001
ACAD
1000
AcDbSavedByObjectVersion
1070
     0
  0
VISUALSTYLE
  5
10026
102
{ACAD_REACTORS
330
1001D
102
}
330
1001D
100
AcDbVisualStyle
  2
Conceptual
 70
     9
177
     3
291
     0
 70
    58
 90
        3
176
     1
 90
        2
176
     1
 90
        0
176
     1
 90
        0
176
     1
 40
0.6
176
     1
 40
30.0
176
     1
 62
     7
420
 16777215
176
     1
 90
        2
176
     1
 90
        2
176
     1
 62
     7
176
     1
 62
   257
176
     1
 90
        1
176
     1
 90
        1
176
     1
 40
179.0
176
     1
 90
        8
176
     1
 62
     7
176
     1
 40
1.0
176
     1
 90
        1
176
     1
 90
        6
176
     1
 90
        2
176
     1
 62
     7
176
     1
 90
        3
176
     1
 90
        0
176
     1
 90
        0
176
     1
290
     0
176
     1
 90
        1
176
     1
 40
0.0
176
     1
 90
        0
176
     1
290
     0
176
     1
290
     1
176
     1
290
     1
176
     1
290
     0
176
     1
290
     0
176
     1
290
     0
176
     1
290
     0
176
     1
290
     0
176
     1
290
     0
176
     1
 90
       50
176
     1
 40
0.0
176
     1
 40
1.0
176
     1
 90
        0
176
     1
 62
    18
420
        0
176
     1
 90
       50
176
     1
 90
        3
176
     1
 62
     5
420
      255
176
     1
290
     0
176
     1
 90
       50
176
     1
 90
       50
176
     1
 90
       50
176
     1
290
     0
176
     1
 90
       50
176
     1
 62
   256
176
     0
 40
1.0
176
     0
 90
        2
176
     1
  1
strokes_ogs.tif
176
     1
290
     0
176
     1
 40
1.0
176
     1
 40
1.0
176
     1
1001
ACAD
1000
AcDbSavedByObjectVersion
1070
     0
  0
VISUALSTYLE
  5
10028
102
{ACAD_REACTORS
330
1001D
102
}
330
1001D
100
AcDbVisualStyle
  2
Dim
 70
    11
177
     3
291
     1
 70
    58
 90
        2
176
     1
 90
        2
176
     1
 90
        0
176
     1
 90
        0
176
     1
 40
0.6
176
     1
 40
30.0
176
     1
 62
     7
420
 16777215
176
     1
 90
        1
176
     1
 90
        4
176
     1
 62
     7
176
     1
 62
   257
176
     1
 90
        1
176
     1
 90
        1
176
     1
 40
1.0
176
     1
 90
        8
176
     1
 62
     7
176
     1
 40
1.0
176
     1
 90
        1
176
     1
 90
        6
176
     1
 90
        2
176
     1
 62
     7
176
     1
 90
        5
176
     1
 90
        0
176
     1
 90
        0
176
     1
290
     0
176
     1
 90
        1
176
     1
 40
-50.0
176
     1
 90
        0
176
     1
290
     0
176
     1
290
     1
176
     1
290
     1
176
     1
290
     0
176
     1
290
     0
176
     1
290
     0
176
     1
290
     0
176
     1
290
     0
176
     1
290
     0
176
     1
 90
       50
176
     1
 40
0.0
176
     1
 40
1.0
176
     1
 90
        0
176
     1
 62
    18
420
        0
176
     1
 90
       50
176
     1
 90
        3
176
     1
 62
     5
420
      255
176
     1
290
     0
176
     1
 90
       50
176
     1
 90
       50
176
     1
 90
       50
176
     1
290
     0
176
     1
 90
       50
176
     1
 62
   256
176
     0
 40
1.0
176
     0
 90
        2
176
     1
  1
strokes_ogs.tif
176
     1
290
     0
176
     1
 40
1.0
176
     1
 40
1.0
176
     1
1001
ACAD
1000
AcDbSavedByObjectVersion
1070
     0
  0
VISUALSTYLE
  5
10035
102
{ACAD_REACTORS
330
1001D
102
}
330
1001D
100
AcDbVisualStyle
  2
EdgeColorOff
 70
    22
177
     3
291
     1
 70
    58
 90
        2
176
     0
 90
        2
176
     0
 90
        0
176
     0
 90
        0
176
     0
 40
0.6
176
     0
 40
30.0
176
     0
 62
     7
420
 16777215
176
     0
 90
        1
176
     0
 90
        4
176
     0
 62
     7
176
     0
 62
   257
176
     0
 90
        1
176
     0
 90
        1
176
     0
 40
1.0
176
     0
 90
        8
176
     2
 62
     7
176
     0
 40
1.0
176
     0
 90
        1
176
     0
 90
        6
176
     0
 90
        2
176
     0
 62
     7
176
     0
 90
        5
176
     0
 90
        0
176
     0
 90
        0
176
     0
290
     0
176
     0
 90
        1
176
     0
 40
0.0
176
     0
 90
        0
176
     0
290
     0
176
     1
290
     1
176
     1
290
     1
176
     1
290
     0
176
     1
290
     0
176
     1
290
     0
176
     1
290
     0
176
     1
290
     0
176
     1
290
     0
176
     1
 90
       50
176
     0
 40
0.0
176
     0
 40
1.0
176
     0
 90
        0
176
     0
 62
    18
420
        0
176
     0
 90
       50
176
     0
 90
        3
176
     0
 62
     5
420
      255
176
     0
290
     0
176
     1
 90
       50
176
     0
 90
       50
176
     0
 90
       50
176
     0
290
     0
176
     1
 90
       50
176
     0
 62
   256
176
     0
 40
1.0
176
     0
 90
        2
176
     0
  1
strokes_ogs.tif
176
     0
290
     0
176
     1
 40
1.0
176
     0
 40
1.0
176
     0
1001
ACAD
1000
AcDbSavedByObjectVersion
1070
     0
  0
VISUALSTYLE
  5
1002C
102
{ACAD_REACTORS
330
1001D
102
}
330
1001D
100
AcDbVisualStyle
  2
Facepattern
 70
    15
177
     3
291
     1
 70
    58
 90
        2
176
     1
 90
        2
176
     1
 90
        0
176
     1
 90
        0
176
     1
 40
0.6
176
     1
 40
30.0
176
     1
 62
     7
420
 16777215
176
     1
 90
        1
176
     1
 90
        4
176
     1
 62
     7
176
     1
 62
   257
176
     1
 90
        1
176
     1
 90
        1
176
     1
 40
1.0
176
     1
 90
        8
176
     1
 62
     7
176
     1
 40
1.0
176
     1
 90
        1
176
     1
 90
        6
176
     1
 90
        2
176
     1
 62
     7
176
     1
 90
        5
176
     1
 90
        0
176
     1
 90
        0
176
     1
290
     0
176
     1
 90
        1
176
     1
 40
0.0
176
     1
 90
        0
176
     1
290
     0
176
     1
290
     1
176
     1
290
     1
176
     1
290
     0
176
     1
290
     0
176
     1
290
     0
176
     1
290
     0
176
     1
290
     0
176
     1
290
     0
176
     1
 90
       50
176
     1
 40
0.0
176
     1
 40
1.0
176
     1
 90
        0
176
     1
 62
    18
420
        0
176
     1
 90
       50
176
     1
 90
        3
176
     1
 62
     5
420
      255
176
     1
290
     0
176
     1
 90
       50
176
     1
 90
       50
176
     1
 90
       50
176
     1
290
     0
176
     1
 90
       50
176
     1
 62
   256
176
     0
 40
1.0
176
     0
 90
        2
176
     1
  1
strokes_ogs.tif
176
     1
290
     0
176
     1
 40
1.0
176
     1
 40
1.0
176
     1
1001
ACAD
1000
AcDbSavedByObjectVersion
1070
     0
  0
VISUALSTYLE
  5
1001E
102
{ACAD_REACTORS
330
1001D
102
}
330
1001D
100
AcDbVisualStyle
  2
Flat
 70
     0
177
     3
291
     1
 70
    58
 90
        2
176
     1
 90
        1
176
     1
 90
        1
176
     1
 90
        2
176
     1
 40
0.6
176
     1
 40
30.0
176
     1
 62
     7
420
 16777215
176
     1
 90
        0
176
     1
 90
        0
176
     1
 62
     7
176
     1
 62
   257
176
     1
 90
        1
176
     1
 90
        1
176
     1
 40
1.0
176
     1
 90
        8
176
     1
 62
     7
176
     1
 40
1.0
176
     1
 90
        1
176
     1
 90
        6
176
     1
 90
        2
176
     1
 62
     7
176
     1
 90
        5
176
     1
 90
        0
176
     1
 90
        0
176
     1
290
     0
176
     1
 90
       13
176
     1
 40
0.0
176
     1
 90
        0
176
     1
290
     0
176
     1
290
     1
176
     1
290
     1
176
     1
290
     0
176
     1
290
     0
176
     1
290
     0
176
     1
290
     0
176
     1
290
     0
176
     1
290
     0
176
     1
 90
       50
176
     1
 40
0.0
176
     1
 40
1.0
176
     1
 90
        0
176
     1
 62
    18
420
        0
176
     1
 90
       50
176
     1
 90
        3
176
     1
 62
     5
420
      255
176
     1
290
     0
176
     1
 90
       50
176
     1
 90
       50
176
     1
 90
       50
176
     1
290
     0
176
     1
 90
       50
176
     1
 62
   256
176
     0
 40
1.0
176
     0
 90
        2
176
     1
  1
strokes_ogs.tif
176
     1
290
     0
176
     1
 40
1.0
176
     1
 40
1.0
176
     1
1001
ACAD
1000
AcDbSavedByObjectVersion
1070
     0
  0
VISUALSTYLE
  5
1001F
102
{ACAD_REACTORS
330
1001D
102
}
330
1001D
100
AcDbVisualStyle
  2
FlatWithEdges
 70
     1
177
     3
291
     1
 70
    58
 90
        2
176
     1
 90
        1
176
     1
 90
        1
176
     1
 90
        2
176
     1
 40
0.6
176
     1
 40
30.0
176
     1
 62
     7
420
 16777215
176
     1
 90
        1
176
     1
 90
        0
176
     1
 62
     7
176
     1
 62
   257
176
     1
 90
        1
176
     1
 90
        1
176
     1
 40
1.0
176
     1
 90
        0
176
     1
 62
   257
176
     1
 40
1.0
176
     1
 90
        1
176
     1
 90
        6
176
     1
 90
        2
176
     1
 62
     7
176
     1
 90
        5
176
     1
 90
        0
176
     1
 90
        0
176
     1
290
     0
176
     1
 90
       13
176
     1
 40
0.0
176
     1
 90
        0
176
     1
290
     0
176
     1
290
     1
176
     1
290
     1
176
     1
290
     0
176
     1
290
     0
176
     1
290
     0
176
     1
290
     0
176
     1
290
     0
176
     1
290
     0
176
     1
 90
       50
176
     1
 40
0.0
176
     1
 40
1.0
176
     1
 90
        0
176
     1
 62
    18
420
        0
176
     1
 90
       50
176
     1
 90
        3
176
     1
 62
     5
420
      255
176
     1
290
     0
176
     1
 90
       50
176
     1
 90
       50
176
     1
 90
       50
176
     1
290
     0
176
     1
 90
       50
176
     1
 62
   256
176
     0
 40
1.0
176
     0
 90
        2
176
     1
  1
strokes_ogs.tif
176
     1
290
     0
176
     1
 40
1.0
176
     1
 40
1.0
176
     1
1001
ACAD
1000
AcDbSavedByObjectVersion
1070
     0
  0
VISUALSTYLE
  5
10020
102
{ACAD_REACTORS
330
1001D
102
}
330
1001D
100
AcDbVisualStyle
  2
Gouraud
 70
     2
177
     3
291
     1
 70
    58
 90
        2
176
     1
 90
        2
176
     1
 90
        1
176
     1
 90
        2
176
     1
 40
0.6
176
     1
 40
30.0
176
     1
 62
     7
420
 16777215
176
     1
 90
        0
176
     1
 90
        0
176
     1
 62
     7
176
     1
 62
   257
176
     1
 90
        1
176
     1
 90
        1
176
     1
 40
1.0
176
     1
 90
        0
176
     1
 62
     7
176
     1
 40
1.0
176
     1
 90
        1
176
     1
 90
        6
176
     1
 90
        2
176
     1
 62
     7
176
     1
 90
        5
176
     1
 90
        0
176
     1
 90
        0
176
     1
290
     0
176
     1
 90
       13
176
     1
 40
0.0
176
     1
 90
        0
176
     1
290
     0
176
     1
290
     1
176
     1
290
     1
176
     1
290
     0
176
     1
290
     0
176
     1
290
     0
176
     1
290
     0
176
     1
290
     0
176
     1
290
     0
176
     1
 90
       50
176
     1
 40
0.0
176
     1
 40
1.0
176
     1
 90
        0
176
     1
 62
    18
420
        0
176
     1
 90
       50
176
     1
 90
        3
176
     1
 62
     5
420
      255
176
     1
290
     0
176
     1
 90
       50
176
     1
 90
       50
176
     1
 90
       50
176
     1
290
     0
176
     1
 90
       50
176
     1
 62
   256
176
     0
 40
1.0
176
     0
 90
        2
176
     1
  1
strokes_ogs.tif
176
     1
290
     0
176
     1
 40
1.0
176
     1
 40
1.0
176
     1
1001
ACAD
1000
AcDbSavedByObjectVersion
1070
     0
  0
VISUALSTYLE
  5
10021
102
{ACAD_REACTORS
330
1001D
102
}
330
1001D
100
AcDbVisualStyle
  2
GouraudWithEdges
 70
     3
177
     3
291
     1
 70
    58
 90
        2
176
     1
 90
        2
176
     1
 90
        1
176
     1
 90
        2
176
     1
 40
0.6
176
     1
 40
30.0
176
     1
 62
     7
420
 16777215
176
     1
 90
        1
176
     1
 90
        0
176
     1
 62
     7
176
     1
 62
   257
176
     1
 90
        1
176
     1
 90
        1
176
     1
 40
1.0
176
     1
 90
        0
176
     1
 62
   257
176
     1
 40
1.0
176
     1
 90
        1
176
     1
 90
        6
176
     1
 90
        2
176
     1
 62
     7
176
     1
 90
        5
176
     1
 90
        0
176
     1
 90
        0
176
     1
290
     0
176
     1
 90
       13
176
     1
 40
0.0
176
     1
 90
        0
176
     1
290
     0
176
     1
290
     1
176
     1
290
     1
176
     1
290
     0
176
     1
290
     0
176
     1
290
     0
176
     1
290
     0
176
     1
290
     0
176
     1
290
     0
176
     1
 90
       50
176
     1
 40
0.0
176
     1
 40
1.0
176
     1
 90
        0
176
     1
 62
    18
420
        0
176
     1
 90
       50
176
     1
 90
        3
176
     1
 62
     5
420
      255
176
     1
290
     0
176
     1
 90
       50
176
     1
 90
       50
176
     1
 90
       50
176
     1
290
     0
176
     1
 90
       50
176
     1
 62
   256
176
     0
 40
1.0
176
     0
 90
        2
176
     1
  1
strokes_ogs.tif
176
     1
290
     0
176
     1
 40
1.0
176
     1
 40
1.0
176
     1
1001
ACAD
1000
AcDbSavedByObjectVersion
1070
     0
  0
VISUALSTYLE
  5
10025
102
{ACAD_REACTORS
330
1001D
102
}
330
1001D
100
AcDbVisualStyle
  2
Hidden
 70
     6
177
     3
291
     0
 70
    58
 90
        1
176
     1
 90
        2
176
     1
 90
        2
176
     1
 90
        0
176
     1
 40
0.6
176
     1
 40
30.0
176
     1
 62
     7
420
 16777215
176
     1
 90
        2
176
     1
 90
        2
176
     1
 62
     7
176
     1
 62
   257
176
     1
 90
        2
176
     1
 90
        1
176
     1
 40
40.0
176
     1
 90
        0
176
     1
 62
   257
176
     1
 40
1.0
176
     1
 90
        1
176
     1
 90
        6
176
     1
 90
        2
176
     1
 62
     7
176
     1
 90
        3
176
     1
 90
        0
176
     1
 90
        0
176
     1
290
     0
176
     1
 90
        1
176
     1
 40
0.0
176
     1
 90
        0
176
     1
290
     0
176
     1
290
     1
176
     1
290
     1
176
     1
290
     0
176
     1
290
     0
176
     1
290
     0
176
     1
290
     0
176
     1
290
     0
176
     1
290
     0
176
     1
 90
       50
176
     1
 40
0.0
176
     1
 40
1.0
176
     1
 90
        0
176
     1
 62
    18
420
        0
176
     1
 90
       50
176
     1
 90
        3
176
     1
 62
     5
420
      255
176
     1
290
     0
176
     1
 90
       50
176
     1
 90
       50
176
     1
 90
       50
176
     1
290
     0
176
     1
 90
       50
176
     1
 62
   256
176
     0
 40
1.0
176
     0
 90
        2
176
     1
  1
strokes_ogs.tif
176
     1
290
     0
176
     1
 40
1.0
176
     1
 40
1.0
176
     1
1001
ACAD
1000
AcDbSavedByObjectVersion
1070
     0
  0
VISUALSTYLE
  5
10033
102
{ACAD_REACTORS
330
1001D
102
}
330
1001D
100
AcDbVisualStyle
  2
JitterOff
 70
    20
177
     3
291
     1
 70
    58
 90
        2
176
     0
 90
        2
176
     0
 90
        0
176
     0
 90
        0
176
     0
 40
0.6
176
     0
 40
30.0
176
     0
 62
     7
420
 16777215
176
     0
 90
        1
176
     0
 90
        4
176
     0
 62
     7
176
     0
 62
   257
176
     0
 90
        1
176
     0
 90
        1
176
     0
 40
1.0
176
     0
 90
       10
176
     2
 62
     7
176
     0
 40
1.0
176
     0
 90
        1
176
     0
 90
        6
176
     0
 90
        2
176
     0
 62
     7
176
     0
 90
        5
176
     0
 90
        0
176
     0
 90
        0
176
     0
290
     0
176
     0
 90
        1
176
     0
 40
0.0
176
     0
 90
        0
176
     0
290
     0
176
     1
290
     1
176
     1
290
     1
176
     1
290
     0
176
     1
290
     0
176
     1
290
     0
176
     1
290
     0
176
     1
290
     0
176
     1
290
     0
176
     1
 90
       50
176
     0
 40
0.0
176
     0
 40
1.0
176
     0
 90
        0
176
     0
 62
    18
420
        0
176
     0
 90
       50
176
     0
 90
        3
176
     0
 62
     5
420
      255
176
     0
290
     0
176
     1
 90
       50
176
     0
 90
       50
176
     0
 90
       50
176
     0
290
     0
176
     1
 90
       50
176
     0
 62
   256
176
     0
 40
1.0
176
     0
 90
        2
176
     0
  1
strokes_ogs.tif
176
     0
290
     0
176
     1
 40
1.0
176
     0
 40
1.0
176
     0
1001
ACAD
1000
AcDbSavedByObjectVersion
1070
     0
  0
VISUALSTYLE
  5
1002B
102
{ACAD_REACTORS
330
1001D
102
}
330
1001D
100
AcDbVisualStyle
  2
Linepattern
 70
    14
177
     3
291
     1
 70
    58
 90
        2
176
     1
 90
        2
176
     1
 90
        0
176
     1
 90
        0
176
     1
 40
0.6
176
     1
 40
30.0
176
     1
 62
     7
420
 16777215
176
     1
 90
        1
176
     1
 90
        4
176
     1
 62
     7
176
     1
 62
   257
176
     1
 90
        7
176
     1
 90
        7
176
     1
 40
1.0
176
     1
 90
        8
176
     1
 62
     7
176
     1
 40
1.0
176
     1
 90
        1
176
     1
 90
        6
176
     1
 90
        2
176
     1
 62
     7
176
     1
 90
        5
176
     1
 90
        0
176
     1
 90
        0
176
     1
290
     0
176
     1
 90
        1
176
     1
 40
0.0
176
     1
 90
        0
176
     1
290
     0
176
     1
290
     1
176
     1
290
     1
176
     1
290
     0
176
     1
290
     0
176
     1
290
     0
176
     1
290
     0
176
     1
290
     0
176
     1
290
     0
176
     1
 90
       50
176
     1
 40
0.0
176
     1
 40
1.0
176
     1
 90
        0
176
     1
 62
    18
420
        0
176
     1
 90
       50
176
     1
 90
        3
176
     1
 62
     5
420
      255
176
     1
290
     0
176
     1
 90
       50
176
     1
 90
       50
176
     1
 90
       50
176
     1
290
     0
176
     1
 90
       50
176
     1
 62
   256
176
     0
 40
1.0
176
     0
 90
        2
176
     1
  1
strokes_ogs.tif
176
     1
290
     0
176
     1
 40
1.0
176
     1
 40
1.0
176
     1
1001
ACAD
1000
AcDbSavedByObjectVersion
1070
     0
  0
VISUALSTYLE
  5
10034
102
{ACAD_REACTORS
330
1001D
102
}
330
1001D
100
AcDbVisualStyle
  2
OverhangOff
 70
    21
177
     3
291
     1
 70
    58
 90
        2
176
     0
 90
        2
176
     0
 90
        0
176
     0
 90
        0
176
     0
 40
0.6
176
     0
 40
30.0
176
     0
 62
     7
420
 16777215
176
     0
 90
        1
176
     0
 90
        4
176
     0
 62
     7
176
     0
 62
   257
176
     0
 90
        1
176
     0
 90
        1
176
     0
 40
1.0
176
     0
 90
        9
176
     2
 62
     7
176
     0
 40
1.0
176
     0
 90
        1
176
     0
 90
        6
176
     0
 90
        2
176
     0
 62
     7
176
     0
 90
        5
176
     0
 90
        0
176
     0
 90
        0
176
     0
290
     0
176
     0
 90
        1
176
     0
 40
0.0
176
     0
 90
        0
176
     0
290
     0
176
     1
290
     1
176
     1
290
     1
176
     1
290
     0
176
     1
290
     0
176
     1
290
     0
176
     1
290
     0
176
     1
290
     0
176
     1
290
     0
176
     1
 90
       50
176
     0
 40
0.0
176
     0
 40
1.0
176
     0
 90
        0
176
     0
 62
    18
420
        0
176
     0
 90
       50
176
     0
 90
        3
176
     0
 62
     5
420
      255
176
     0
290
     0
176
     1
 90
       50
176
     0
 90
       50
176
     0
 90
       50
176
     0
290
     0
176
     1
 90
       50
176
     0
 62
   256
176
     0
 40
1.0
176
     0
 90
        2
176
     0
  1
strokes_ogs.tif
176
     0
290
     0
176
     1
 40
1.0
176
     0
 40
1.0
176
     0
1001
ACAD
1000
AcDbSavedByObjectVersion
1070
     0
  0
VISUALSTYLE
  5
10027
102
{ACAD_REACTORS
330
1001D
102
}
330
1001D
100
AcDbVisualStyle
  2
Realistic
 70
     8
177
     3
291
     0
 70
    58
 90
        2
176
     1
 90
        3
176
     1
 90
        0
176
     1
 90
        2
176
     1
 40
0.6
176
     1
 40
30.0
176
     1
 62
     7
420
 16777215
176
     1
 90
        0
176
     1
 90
        0
176
     1
 62
     7
176
     1
 62
   257
176
     1
 90
        1
176
     1
 90
        1
176
     1
 40
1.0
176
     1
 90
        8
176
     1
 62
   257
176
     1
 40
1.0
176
     1
 90
        1
176
     1
 90
        6
176
     1
 90
        2
176
     1
 62
     7
176
     1
 90
        3
176
     1
 90
        0
176
     1
 90
        0
176
     1
290
     0
176
     1
 90
       13
176
     1
 40
0.0
176
     1
 90
        0
176
     1
290
     0
176
     1
290
     1
176
     1
290
     1
176
     1
290
     0
176
     1
290
     0
176
     1
290
     0
176
     1
290
     0
176
     1
290
     0
176
     1
290
     0
176
     1
 90
       50
176
     1
 40
0.0
176
     1
 40
1.0
176
     1
 90
        0
176
     1
 62
    18
420
        0
176
     1
 90
       50
176
     1
 90
        3
176
     1
 62
     5
420
      255
176
     1
290
     0
176
     1
 90
       50
176
     1
 90
       50
176
     1
 90
       50
176
     1
290
     0
176
     1
 90
       50
176
     1
 62
   256
176
     0
 40
1.0
176
     0
 90
        2
176
     1
  1
strokes_ogs.tif
176
     1
290
     0
176
     1
 40
1.0
176
     1
 40
1.0
176
     1
1001
ACAD
1000
AcDbSavedByObjectVersion
1070
     0
  0
VISUALSTYLE
  5
10032
102
{ACAD_REACTORS
330
1001D
102
}
330
1001D
100
AcDbVisualStyle
  2
Shaded
 70
    27
177
     3
291
     0
 70
    58
 90
        2
176
     1
 90
        2
176
     1
 90
        1
176
     1
 90
        2
176
     1
 40
0.6
176
     1
 40
30.0
176
     1
 62
     7
420
 16777215
176
     1
 90
        0
176
     1
 90
        4
176
     1
 62
     7
176
     1
 62
   257
176
     1
 90
        1
176
     1
 90
        1
176
     1
 40
1.0
176
     1
 90
        8
176
     1
 62
   257
176
     1
 40
1.0
176
     1
 90
        1
176
     1
 90
        6
176
     1
 90
        2
176
     1
 62
     8
420
  7895160
176
     1
 90
        3
176
     1
 90
        0
176
     1
 90
        0
176
     1
290
     0
176
     1
 90
        5
176
     1
 40
0.0
176
     1
 90
        0
176
     1
290
     0
176
     1
290
     1
176
     1
290
     1
176
     1
290
     0
176
     1
290
     0
176
     1
290
     0
176
     1
290
     0
176
     1
290
     0
176
     1
290
     0
176
     1
 90
       50
176
     1
 40
0.0
176
     1
 40
1.0
176
     1
 90
        0
176
     1
 62
    18
420
        0
176
     1
 90
       50
176
     1
 90
        3
176
     1
 62
     5
420
      255
176
     1
290
     0
176
     1
 90
       50
176
     1
 90
       50
176
     1
 90
       50
176
     1
290
     0
176
     1
 90
       50
176
     1
 62
   256
176
     0
 40
1.0
176
     0
 90
        2
176
     1
  1
strokes_ogs.tif
176
     1
290
     0
176
     1
 40
1.0
176
     1
 40
1.0
176
     1
1001
ACAD
1000
AcDbSavedByObjectVersion
1070
     0
  0
VISUALSTYLE
  5
10031
102
{ACAD_REACTORS
330
1001D
102
}
330
1001D
100
AcDbVisualStyle
  2
Shaded with edges
 70
    26
177
     3
291
     0
 70
    58
 90
        2
176
     1
 90
        2
176
     1
 90
        1
176
     1
 90
        2
176
     1
 40
0.6
176
     1
 40
30.0
176
     1
 62
     7
420
 16777215
176
     1
 90
        1
176
     1
 90
        2
176
     1
 62
     7
176
     1
 62
   257
176
     1
 90
        2
176
     1
 90
        1
176
     1
 40
1.0
176
     1
 90
        8
176
     1
 62
   257
176
     1
 40
1.0
176
     1
 90
        1
176
     1
 90
        6
176
     1
 90
        2
176
     1
 62
     7
176
     1
 90
        3
176
     1
 90
        0
176
     1
 90
        0
176
     1
290
     0
176
     1
 90
        5
176
     1
 40
0.0
176
     1
 90
        0
176
     1
290
     0
176
     1
290
     1
176
     1
290
     1
176
     1
290
     0
176
     1
290
     0
176
     1
290
     0
176
     1
290
     0
176
     1
290
     0
176
     1
290
     0
176
     1
 90
       50
176
     1
 40
0.0
176
     1
 40
1.0
176
     1
 90
        0
176
     1
 62
    18
420
        0
176
     1
 90
       50
176
     1
 90
        3
176
     1
 62
     5
420
      255
176
     1
290
     0
176
     1
 90
       50
176
     1
 90
       50
176
     1
 90
       50
176
     1
290
     0
176
     1
 90
       50
176
     1
 62
   256
176
     0
 40
1.0
176
     0
 90
        2
176
     1
  1
strokes_ogs.tif
176
     1
290
     0
176
     1
 40
1.0
176
     1
 40
1.0
176
     1
1001
ACAD
1000
AcDbSavedByObjectVersion
1070
     0
  0
VISUALSTYLE
  5
1002E
102
{ACAD_REACTORS
330
1001D
102
}
330
1001D
100
AcDbVisualStyle
  2
Shades of Gray
 70
    23
177
     3
291
     0
 70
    58
 90
        2
176
     1
 90
        2
176
     1
 90
        3
176
     1
 90
        0
176
     1
 40
0.6
176
     1
 40
30.0
176
     1
 62
     7
420
 16777215
176
     1
 90
        2
176
     1
 90
        2
176
     1
 62
     7
176
     1
 62
     7
176
     1
 90
        1
176
     1
 90
        1
176
     1
 40
40.0
176
     1
 90
        8
176
     1
 62
     7
176
     1
 40
1.0
176
     1
 90
        1
176
     1
 90
        6
176
     1
 90
        2
176
     1
 62
     7
176
     1
 90
        3
176
     1
 90
        0
176
     1
 90
        0
176
     1
290
     0
176
     1
 90
        1
176
     1
 40
0.0
176
     1
 90
        0
176
     1
290
     0
176
     1
290
     1
176
     1
290
     1
176
     1
290
     0
176
     1
290
     0
176
     1
290
     0
176
     1
290
     0
176
     1
290
     0
176
     1
290
     0
176
     1
 90
       50
176
     1
 40
0.0
176
     1
 40
1.0
176
     1
 90
        0
176
     1
 62
    18
420
        0
176
     1
 90
       50
176
     1
 90
        3
176
     1
 62
     5
420
      255
176
     1
290
     0
176
     1
 90
       50
176
     1
 90
       50
176
     1
 90
       50
176
     1
290
     0
176
     1
 90
       50
176
     1
 62
   256
176
     0
 40
1.0
176
     0
 90
        2
176
     1
  1
strokes_ogs.tif
176
     1
290
     0
176
     1
 40
1.0
176
     1
 40
1.0
176
     1
1001
ACAD
1000
AcDbSavedByObjectVersion
1070
     0
  0
VISUALSTYLE
  5
1002F
102
{ACAD_REACTORS
330
1001D
102
}
330
1001D
100
AcDbVisualStyle
  2
Sketchy
 70
    24
177
     3
291
     0
 70
    58
 90
        1
176
     1
 90
        2
176
     1
 90
        2
176
     1
 90
        0
176
     1
 40
0.6
176
     1
 40
30.0
176
     1
 62
     7
420
 16777215
176
     1
 90
        2
176
     1
 90
        2
176
     1
 62
     7
176
     1
 62
     7
176
     1
 90
        1
176
     1
 90
        1
176
     1
 40
40.0
176
     1
 90
       11
176
     1
 62
     7
176
     1
 40
1.0
176
     1
 90
        1
176
     1
 90
        6
176
     1
 90
        2
176
     1
 62
     7
176
     1
 90
        6
176
     1
 90
        0
176
     1
 90
        0
176
     1
290
     0
176
     1
 90
        1
176
     1
 40
0.0
176
     1
 90
        0
176
     1
290
     0
176
     1
290
     1
176
     1
290
     1
176
     1
290
     0
176
     1
290
     0
176
     1
290
     0
176
     1
290
     0
176
     1
290
     0
176
     1
290
     0
176
     1
 90
       50
176
     1
 40
0.0
176
     1
 40
1.0
176
     1
 90
        0
176
     1
 62
    18
420
        0
176
     1
 90
       50
176
     1
 90
        3
176
     1
 62
     5
420
      255
176
     1
290
     0
176
     1
 90
       50
176
     1
 90
       50
176
     1
 90
       50
176
     1
290
     0
176
     1
 90
       50
176
     1
 62
   256
176
     0
 40
1.0
176
     0
 90
        2
176
     1
  1
strokes_ogs.tif
176
     1
290
     0
176
     1
 40
1.0
176
     1
 40
1.0
176
     1
1001
ACAD
1000
AcDbSavedByObjectVersion
1070
     0
  0
VISUALSTYLE
  5
1002A
102
{ACAD_REACTORS
330
1001D
102
}
330
1001D
100
AcDbVisualStyle
  2
Thicken
 70
    13
177
     3
291
     1
 70
    58
 90
        2
176
     1
 90
        2
176
     1
 90
        0
176
     1
 90
        0
176
     1
 40
0.6
176
     1
 40
30.0
176
     1
 62
     7
420
 16777215
176
     1
 90
        1
176
     1
 90
        4
176
     1
 62
     7
176
     1
 62
   257
176
     1
 90
        1
176
     1
 90
        1
176
     1
 40
1.0
176
     1
 90
       12
176
     1
 62
     7
176
     1
 40
1.0
176
     1
 90
        1
176
     1
 90
        6
176
     1
 90
        2
176
     1
 62
     7
176
     1
 90
        5
176
     1
 90
        0
176
     1
 90
        0
176
     1
290
     0
176
     1
 90
        1
176
     1
 40
0.0
176
     1
 90
        0
176
     1
290
     0
176
     1
290
     1
176
     1
290
     1
176
     1
290
     0
176
     1
290
     0
176
     1
290
     0
176
     1
290
     0
176
     1
290
     0
176
     1
290
     0
176
     1
 90
       50
176
     1
 40
0.0
176
     1
 40
1.0
176
     1
 90
        0
176
     1
 62
    18
420
        0
176
     1
 90
       50
176
     1
 90
        3
176
     1
 62
     5
420
      255
176
     1
290
     0
176
     1
 90
       50
176
     1
 90
       50
176
     1
 90
       50
176
     1
290
     0
176
     1
 90
       50
176
     1
 62
   256
176
     0
 40
1.0
176
     0
 90
        2
176
     1
  1
strokes_ogs.tif
176
     1
290
     0
176
     1
 40
1.0
176
     1
 40
1.0
176
     1
1001
ACAD
1000
AcDbSavedByObjectVersion
1070
     0
  0
VISUALSTYLE
  5
10024
102
{ACAD_REACTORS
330
1001D
102
}
330
1001D
100
AcDbVisualStyle
  2
Wireframe
 70
     5
177
     3
291
     0
 70
    58
 90
        0
176
     1
 90
        2
176
     1
 90
        0
176
     1
 90
        0
176
     1
 40
0.6
176
     1
 40
30.0
176
     1
 62
     7
420
 16777215
176
     1
 90
        1
176
     1
 90
        4
176
     1
 62
     7
176
     1
 62
   257
176
     1
 90
        1
176
     1
 90
        1
176
     1
 40
1.0
176
     1
 90
        0
176
     1
 62
   257
176
     1
 40
1.0
176
     1
 90
        1
176
     1
 90
        6
176
     1
 90
        2
176
     1
 62
     7
176
     1
 90
        3
176
     1
 90
        0
176
     1
 90
        0
176
     1
290
     0
176
     1
 90
        1
176
     1
 40
0.0
176
     1
 90
        0
176
     1
290
     0
176
     1
290
     1
176
     1
290
     1
176
     1
290
     0
176
     1
290
     0
176
     1
290
     0
176
     1
290
     0
176
     1
290
     0
176
     1
290
     0
176
     1
 90
       50
176
     1
 40
0.0
176
     1
 40
1.0
176
     1
 90
        0
176
     1
 62
    18
420
        0
176
     1
 90
       50
176
     1
 90
        3
176
     1
 62
     5
420
      255
176
     1
290
     0
176
     1
 90
       50
176
     1
 90
       50
176
     1
 90
       50
176
     1
290
     0
176
     1
 90
       50
176
     1
 62
   256
176
     0
 40
1.0
176
     0
 90
        2
176
     1
  1
strokes_ogs.tif
176
     1
290
     0
176
     1
 40
1.0
176
     1
 40
1.0
176
     1
1001
ACAD
1000
AcDbSavedByObjectVersion
1070
     0
  0
VISUALSTYLE
  5
10030
102
{ACAD_REACTORS
330
1001D
102
}
330
1001D
100
AcDbVisualStyle
  2
X-Ray
 70
    25
177
     3
291
     0
 70
    58
 90
        2
176
     1
 90
        2
176
     1
 90
        1
176
     1
 90
        1
176
     1
 40
0.5
176
     1
 40
30.0
176
     1
 62
     7
420
 16777215
176
     1
 90
        1
176
     1
 90
        0
176
     1
 62
     7
176
     1
 62
   257
176
     1
 90
        1
176
     1
 90
        1
176
     1
 40
1.0
176
     1
 90
        8
176
     1
 62
     7
176
     1
 40
1.0
176
     1
 90
        1
176
     1
 90
        6
176
     1
 90
        2
176
     1
 62
     7
176
     1
 90
        3
176
     1
 90
        0
176
     1
 90
        0
176
     1
290
     0
176
     1
 90
       13
176
     1
 40
0.0
176
     1
 90
        0
176
     1
290
     0
176
     1
290
     1
176
     1
290
     1
176
     1
290
     0
176
     1
290
     0
176
     1
290
     0
176
     1
290
     0
176
     1
290
     0
176
     1
290
     0
176
     1
 90
       50
176
     1
 40
0.0
176
     1
 40
1.0
176
     1
 90
        0
176
     1
 62
    18
420
        0
176
     1
 90
       50
176
     1
 90
        3
176
     1
 62
     5
420
      255
176
     1
290
     0
176
     1
 90
       50
176
     1
 90
       50
176
     1
 90
       50
176
     1
290
     0
176
     1
 90
       50
176
     1
 62
   256
176
     0
 40
1.0
176
     0
 90
        2
176
     1
  1
strokes_ogs.tif
176
     1
290
     0
176
     1
 40
1.0
176
     1
 40
1.0
176
     1
1001
ACAD
1000
AcDbSavedByObjectVersion
1070
     0
  0
DICTIONARYVAR
  5
10067
102
{ACAD_REACTORS
330
10061
102
}
330
10061
100
DictionaryVariables
280
     0
  1
1:1
  0
DICTIONARYVAR
  5
10063
102
{ACAD_REACTORS
330
10061
102
}
330
10061
100
DictionaryVariables
280
     0
  1
STANDARD
  0
DICTIONARYVAR
  5
10062
102
{ACAD_REACTORS
330
10061
102
}
330
10061
100
DictionaryVariables
280
     0
  1
STANDARD
  0
DICTIONARYVAR
  5
10064
102
{ACAD_REACTORS
330
10061
102
}
330
10061
100
DictionaryVariables
280
     0
  1
Imperial24
  0
DICTIONARYVAR
  5
10065
102
{ACAD_REACTORS
330
10061
102
}
330
10061
100
DictionaryVariables
280
     0
  1
Imperial24
  0
DICTIONARYVAR
  5
10069
102
{ACAD_REACTORS
330
10061
102
}
330
10061
100
DictionaryVariables
280
     0
  1
1
  0
DICTIONARYVAR
  5
1006A
102
{ACAD_REACTORS
330
10061
102
}
330
10061
100
DictionaryVariables
280
     0
  1
15
  0
DICTIONARYVAR
  5
10068
102
{ACAD_REACTORS
330
10061
102
}
330
10061
100
DictionaryVariables
280
     0
  1
0
  0
DICTIONARYVAR
  5
10066
102
{ACAD_REACTORS
330
10061
102
}
330
10061
100
DictionaryVariables
280
     0
  1
0
  0
DICTIONARY
  5
10070
330
10052
100
AcDbDictionary
280
     1
281
     1
  3
ACAD_XREC_ROUNDTRIP
360
10071
  0
DICTIONARY
  5
1000E
330
1000D
100
AcDbDictionary
280
     1
281
     1
  3
BUMPTILE
360
10010
  3
DIFFUSETILE
360
1000F
  3
OPACITYTILE
360
10013
  3
REFLECTIONTILE
360
10012
  3
REFRACTIONTILE
360
10014
  3
SPECULARTILE
360
10011
  0
DICTIONARY
  5
10006
330
10005
100
AcDbDictionary
280
     1
281
     1
  3
BUMPTILE
360
10008
  3
DIFFUSETILE
360
10007
  3
OPACITYTILE
360
1000B
  3
REFLECTIONTILE
360
1000A
  3
REFRACTIONTILE
360
1000C
  3
SPECULARTILE
360
10009
  0
DICTIONARY
  5
10016
330
10015
100
AcDbDictionary
280
     1
281
     1
  3
BUMPTILE
360
10018
  3
DIFFUSETILE
360
10017
  3
OPACITYTILE
360
1001B
  3
REFLECTIONTILE
360
1001A
  3
REFRACTIONTILE
360
1001C
  3
SPECULARTILE
360
10019
  0
DICTIONARY
  5
1006E
330
10050
100
AcDbDictionary
280
     1
281
     1
  3
ACAD_XREC_ROUNDTRIP
360
1006F
  0
DICTIONARY
  5
1006B
330
10039
100
AcDbDictionary
280
     1
281
     1
  3
ACAD_ROUNDTRIP_2008_TABLESTYLE_CELLSTYLEMAP
360
1006C
  0
XRECORD
  5
10071
102
{ACAD_REACTORS
330
10070
102
}
330
10070
100
AcDbXrecord
280
     1
102
DISPLAYNAME
  1
Imperial24
102
FLAGS
 90
        0
  0
XRECORD
  5
10010
102
{ACAD_REACTORS
330
1000E
102
}
330
1000E
100
AcDbXrecord
280
     1
270
     1
271
     1
  0
XRECORD
  5
1000F
102
{ACAD_REACTORS
330
1000E
102
}
330
1000E
100
AcDbXrecord
280
     1
270
     1
271
     1
  0
XRECORD
  5
10013
102
{ACAD_REACTORS
330
1000E
102
}
330
1000E
100
AcDbXrecord
280
     1
270
     1
271
     1
  0
XRECORD
  5
10012
102
{ACAD_REACTORS
330
1000E
102
}
330
1000E
100
AcDbXrecord
280
     1
270
     1
271
     1
  0
XRECORD
  5
10014
102
{ACAD_REACTORS
330
1000E
102
}
330
1000E
100
AcDbXrecord
280
     1
270
     1
271
     1
  0
XRECORD
  5
10011
102
{ACAD_REACTORS
330
1000E
102
}
330
1000E
100
AcDbXrecord
280
     1
270
     1
271
     1
  0
XRECORD
  5
10008
102
{ACAD_REACTORS
330
10006
102
}
330
10006
100
AcDbXrecord
280
     1
270
     1
271
     1
  0
XRECORD
  5
10007
102
{ACAD_REACTORS
330
10006
102
}
330
10006
100
AcDbXrecord
280
     1
270
     1
271
     1
  0
XRECORD
  5
1000B
102
{ACAD_REACTORS
330
10006
102
}
330
10006
100
AcDbXrecord
280
     1
270
     1
271
     1
  0
XRECORD
  5
1000A
102
{ACAD_REACTORS
330
10006
102
}
330
10006
100
AcDbXrecord
280
     1
270
     1
271
     1
  0
XRECORD
  5
1000C
102
{ACAD_REACTORS
330
10006
102
}
330
10006
100
AcDbXrecord
280
     1
270
     1
271
     1
  0
XRECORD
  5
10009
102
{ACAD_REACTORS
330
10006
102
}
330
10006
100
AcDbXrecord
280
     1
270
     1
271
     1
  0
XRECORD
  5
10018
102
{ACAD_REACTORS
330
10016
102
}
330
10016
100
AcDbXrecord
280
     1
270
     1
271
     1
  0
XRECORD
  5
10017
102
{ACAD_REACTORS
330
10016
102
}
330
10016
100
AcDbXrecord
280
     1
270
     1
271
     1
  0
XRECORD
  5
1001B
102
{ACAD_REACTORS
330
10016
102
}
330
10016
100
AcDbXrecord
280
     1
270
     1
271
     1
  0
XRECORD
  5
1001A
102
{ACAD_REACTORS
330
10016
102
}
330
10016
100
AcDbXrecord
280
     1
270
     1
271
     1
  0
XRECORD
  5
1001C
102
{ACAD_REACTORS
330
10016
102
}
330
10016
100
AcDbXrecord
280
     1
270
     1
271
     1
  0
XRECORD
  5
10019
102
{ACAD_REACTORS
330
10016
102
}
330
10016
100
AcDbXrecord
280
     1
270
     1
271
     1
  0
XRECORD
  5
1006F
102
{ACAD_REACTORS
330
1006E
102
}
330
1006E
100
AcDbXrecord
280
     1
102
DISPLAYNAME
  1
Imperial24
102
FLAGS
 90
        0
  0
CELLSTYLEMAP
  5
1006C
102
{ACAD_REACTORS
330
1006B
102
}
330
1006B
100
AcDbCellStyleMap
 90
        3
300
CELLSTYLE
  1
TABLEFORMAT_BEGIN
 90
        5
170
     1
 91
        0
 92
    32768
 62
   257
 93
        1
300
CONTENTFORMAT
  1
CONTENTFORMAT_BEGIN
 90
        0
 91
        0
 92
      512
 93
        0
300

 40
0.0
140
1.0
 94
        5
 62
     0
340
11
144
0.25
309
CONTENTFORMAT_END
171
     0
 94
        0
309
TABLEFORMAT_END
  1
CELLSTYLE_BEGIN
 90
        1
 91
        1
300
_TITLE
309
CELLSTYLE_END
300
CELLSTYLE
  1
TABLEFORMAT_BEGIN
 90
        5
170
     1
 91
        0
 92
        0
 62
   257
 93
        1
300
CONTENTFORMAT
  1
CONTENTFORMAT_BEGIN
 90
        0
 91
        0
 92
      512
 93
        0
300

 40
0.0
140
1.0
 94
        5
 62
     0
340
11
144
0.18
309
CONTENTFORMAT_END
171
     0
 94
        0
309
TABLEFORMAT_END
  1
CELLSTYLE_BEGIN
 90
        2
 91
        1
300
_HEADER
309
CELLSTYLE_END
300
CELLSTYLE
  1
TABLEFORMAT_BEGIN
 90
        5
170
     1
 91
        0
 92
        0
 62
   257
 93
        1
300
CONTENTFORMAT
  1
CONTENTFORMAT_BEGIN
 90
        0
 91
        0
 92
      512
 93
        0
300

 40
0.0
140
1.0
 94
        2
 62
     0
340
11
144
0.18
309
CONTENTFORMAT_END
171
     0
 94
        0
309
TABLEFORMAT_END
  1
CELLSTYLE_BEGIN
 90
        3
 91
        2
300
_DATA
309
CELLSTYLE_END
  0
ENDSEC
  0
EOF
